%TF.GenerationSoftware,KiCad,Pcbnew,7.0.7*%
%TF.CreationDate,2023-11-27T18:29:32+03:00*%
%TF.ProjectId,Bagryanets,42616772-7961-46e6-9574-732e6b696361,rev?*%
%TF.SameCoordinates,PX68e7780PY7bfa480*%
%TF.FileFunction,Copper,L2,Bot*%
%TF.FilePolarity,Positive*%
%FSLAX46Y46*%
G04 Gerber Fmt 4.6, Leading zero omitted, Abs format (unit mm)*
G04 Created by KiCad (PCBNEW 7.0.7) date 2023-11-27 18:29:32*
%MOMM*%
%LPD*%
G01*
G04 APERTURE LIST*
%TA.AperFunction,ComponentPad*%
%ADD10R,1.600000X1.600000*%
%TD*%
%TA.AperFunction,ComponentPad*%
%ADD11C,1.600000*%
%TD*%
%TA.AperFunction,ComponentPad*%
%ADD12C,2.000000*%
%TD*%
%TA.AperFunction,ComponentPad*%
%ADD13C,1.700000*%
%TD*%
%TA.AperFunction,ComponentPad*%
%ADD14O,1.900000X0.900000*%
%TD*%
%TA.AperFunction,ComponentPad*%
%ADD15O,1.700000X0.900000*%
%TD*%
%TA.AperFunction,ComponentPad*%
%ADD16R,1.800000X1.800000*%
%TD*%
%TA.AperFunction,ComponentPad*%
%ADD17C,1.800000*%
%TD*%
%TA.AperFunction,ComponentPad*%
%ADD18R,1.700000X1.700000*%
%TD*%
%TA.AperFunction,ComponentPad*%
%ADD19O,1.700000X1.700000*%
%TD*%
%TA.AperFunction,ViaPad*%
%ADD20C,0.800000*%
%TD*%
%TA.AperFunction,Conductor*%
%ADD21C,0.500000*%
%TD*%
%TA.AperFunction,Conductor*%
%ADD22C,0.600000*%
%TD*%
%TA.AperFunction,Conductor*%
%ADD23C,0.300000*%
%TD*%
G04 APERTURE END LIST*
D10*
%TO.P,HA1,1,-*%
%TO.N,/Unst.power*%
X8945000Y13035000D03*
D11*
%TO.P,HA1,2,+*%
%TO.N,Net-(HA1-+)*%
X4945000Y13035000D03*
%TD*%
D12*
%TO.P,SB2,1,1*%
%TO.N,GND*%
X9475000Y34925000D03*
X2975000Y34925000D03*
%TO.P,SB2,2,2*%
%TO.N,Net-(DD1-NRST)*%
X9475000Y39425000D03*
X2975000Y39425000D03*
%TD*%
D13*
%TO.P,SB1,1*%
%TO.N,/Battery*%
X30620000Y9460000D03*
%TO.P,SB1,2*%
%TO.N,Net-(R5-Pad1)*%
X30620000Y6960000D03*
%TO.P,SB1,3*%
%TO.N,unconnected-(SB1-Pad3)*%
X30620000Y4460000D03*
%TO.P,SB1,4*%
%TO.N,/Battery*%
X25120000Y9460000D03*
%TO.P,SB1,5*%
%TO.N,Net-(R5-Pad1)*%
X25120000Y6960000D03*
%TO.P,SB1,6*%
%TO.N,unconnected-(SB1-Pad6)*%
X25120000Y4460000D03*
%TD*%
D14*
%TO.P,XS1,SHLD1*%
%TO.N,unconnected-(XS1-PadSHLD1)*%
X55965000Y12125000D03*
D15*
%TO.P,XS1,SHLD2*%
%TO.N,unconnected-(XS1-PadSHLD2)*%
X52025000Y12125000D03*
%TO.P,XS1,SHLD3*%
%TO.N,unconnected-(XS1-PadSHLD3)*%
X52025000Y20775000D03*
D14*
%TO.P,XS1,SHLD4*%
%TO.N,unconnected-(XS1-PadSHLD4)*%
X55965000Y20775000D03*
%TD*%
D16*
%TO.P,VD5,1,K*%
%TO.N,Net-(DA3--)*%
X4225000Y25525000D03*
D17*
%TO.P,VD5,2,A*%
%TO.N,GND*%
X1685000Y25525000D03*
%TD*%
D16*
%TO.P,VD6,1,K*%
%TO.N,Net-(VD6-K)*%
X26775000Y25475000D03*
D17*
%TO.P,VD6,2,A*%
%TO.N,/Unst.power*%
X29315000Y25475000D03*
%TD*%
D16*
%TO.P,VD4,1,K*%
%TO.N,Net-(DA2--)*%
X51625000Y25525000D03*
D17*
%TO.P,VD4,2,A*%
%TO.N,GND*%
X54165000Y25525000D03*
%TD*%
D18*
%TO.P,XP2,1*%
%TO.N,Net-(R5-Pad1)*%
X19345000Y4185000D03*
D19*
%TO.P,XP2,2*%
%TO.N,GND*%
X16805000Y4185000D03*
%TD*%
D18*
%TO.P,XP1,1*%
%TO.N,+3V3*%
X55151000Y47345000D03*
D19*
%TO.P,XP1,2*%
%TO.N,/SWCLK*%
X55151000Y44805000D03*
%TO.P,XP1,3*%
%TO.N,GND*%
X55151000Y42265000D03*
%TO.P,XP1,4*%
%TO.N,/SWDIO*%
X55151000Y39725000D03*
%TO.P,XP1,5*%
%TO.N,/UART_TX*%
X55151000Y37185000D03*
%TO.P,XP1,6*%
%TO.N,/UART_RX*%
X55151000Y34645000D03*
%TD*%
D20*
%TO.N,GND*%
X0Y15000000D03*
X46400000Y13800000D03*
X20200000Y52400000D03*
X52500000Y63500000D03*
X39400000Y43700000D03*
X6500000Y63500000D03*
X40000000Y63500000D03*
X7100000Y50500000D03*
X5000000Y45000000D03*
X15000000Y5000000D03*
X10000000Y20000000D03*
X50000000Y63500000D03*
X38000000Y42300000D03*
X20000000Y63500000D03*
X18600000Y54100000D03*
X46000000Y28300000D03*
X41400000Y42300000D03*
X9300000Y26100000D03*
X35000000Y60000000D03*
X9400000Y48700000D03*
X0Y60000000D03*
X40100000Y24900000D03*
X6500000Y55400000D03*
X12500000Y63500000D03*
X14100000Y17900000D03*
X42000000Y37800000D03*
X37700000Y23900000D03*
X44200000Y31600000D03*
X37500000Y63500000D03*
X48100000Y45900000D03*
X48375000Y54575000D03*
X21200000Y59700000D03*
X17500000Y63500000D03*
X30900000Y57700000D03*
X45000000Y5000000D03*
X6300000Y53900000D03*
X40600000Y56100000D03*
X36650000Y13100000D03*
X50000000Y60000000D03*
X8000000Y61700000D03*
X20000000Y20000000D03*
X12300000Y52100000D03*
X22500000Y63500000D03*
X29300000Y47300000D03*
X10000000Y10000000D03*
X0Y10000000D03*
X55000000Y50000000D03*
X47800000Y16500000D03*
X43300000Y34100000D03*
X13700000Y54400000D03*
X9700000Y53300000D03*
X45500000Y43100000D03*
X11500000Y22000000D03*
X30000000Y60000000D03*
X36900000Y9900000D03*
X29000000Y36400000D03*
X25000000Y63500000D03*
X39600000Y15700000D03*
X23000000Y52100000D03*
X21700000Y55500000D03*
X52750000Y48900000D03*
X-1000000Y63500000D03*
X16200000Y46900000D03*
X42500000Y63500000D03*
X40000000Y60000000D03*
X32100000Y8100000D03*
X47350000Y8250000D03*
X25700000Y55600000D03*
X12800000Y29000000D03*
X37700000Y27400000D03*
X4800000Y63500000D03*
X10000000Y5000000D03*
X55700000Y17600000D03*
X52700000Y45000000D03*
X45900000Y26800000D03*
X55000000Y63500000D03*
X7600000Y48900000D03*
X49850000Y42850000D03*
X52600000Y33050000D03*
X42300000Y29800000D03*
X28800000Y20900000D03*
X37700000Y20900000D03*
X11200000Y61200000D03*
X8200000Y63500000D03*
X0Y45000000D03*
X5000000Y20000000D03*
X6500000Y56700000D03*
X11900000Y56600000D03*
X40000000Y5000000D03*
X42400000Y18300000D03*
X49700000Y20700000D03*
X33200000Y36000000D03*
X50600000Y46200000D03*
X40400000Y27800000D03*
X33800000Y32700000D03*
X20000000Y25000000D03*
X45300000Y18900000D03*
X29200000Y49900000D03*
X0Y20000000D03*
X48200000Y36000000D03*
X19200000Y50300000D03*
X20500000Y43700000D03*
X50800000Y27500000D03*
X33800000Y30100000D03*
X47500000Y63500000D03*
X6500000Y52200000D03*
X20000000Y15000000D03*
X12800000Y59000000D03*
X9200000Y56800000D03*
X35000000Y5000000D03*
X9700000Y51900000D03*
X15000000Y10000000D03*
X23500000Y59300000D03*
X25000000Y35400000D03*
X18900000Y45700000D03*
X54000000Y20200000D03*
X50000000Y50000000D03*
X0Y35000000D03*
X0Y40000000D03*
X27100000Y52400000D03*
X30000000Y63500000D03*
X35000000Y63500000D03*
X1000000Y63500000D03*
X20000000Y10000000D03*
X45600000Y32550000D03*
X10800000Y48700000D03*
X33400000Y26500000D03*
X45400000Y59300000D03*
X5000000Y5000000D03*
X10500000Y59800000D03*
X43100000Y24300000D03*
X16100000Y28975000D03*
X32500000Y63500000D03*
X5000000Y10000000D03*
X27700000Y63500000D03*
X21200000Y39000000D03*
X28300000Y23400000D03*
X32300000Y13500000D03*
X9600000Y54800000D03*
X40300000Y7900000D03*
X57000000Y63500000D03*
X49300000Y33800000D03*
X47600000Y49600000D03*
X52600000Y41400000D03*
X37700000Y18000000D03*
X17500000Y51000000D03*
X13400000Y36600000D03*
X11000000Y46900000D03*
X13950000Y44450000D03*
X40100000Y21800000D03*
X3000000Y63500000D03*
X13900000Y47300000D03*
X18500000Y59800000D03*
X18800000Y30200000D03*
X12700000Y27500000D03*
X55000000Y30000000D03*
X17700000Y43850000D03*
X47000000Y47000000D03*
X23900000Y49600000D03*
X29400000Y14100000D03*
X0Y50000000D03*
X23400000Y17400000D03*
X34625000Y46500000D03*
X5000000Y30000000D03*
X40000000Y19000000D03*
X15000000Y35000000D03*
X23800000Y46450000D03*
X38800000Y37500000D03*
X18500000Y56700000D03*
X8100000Y59900000D03*
X29200000Y34750000D03*
X15000000Y63500000D03*
X39700000Y30300000D03*
X50000000Y5000000D03*
X37500000Y8000000D03*
X49900000Y12200000D03*
X55000000Y60000000D03*
X0Y30000000D03*
X12900000Y55600000D03*
X37500000Y35500000D03*
X45000000Y63500000D03*
X13800000Y52000000D03*
X12650000Y45850000D03*
X55000000Y10000000D03*
X30900000Y40000000D03*
X5000000Y60000000D03*
X11000000Y52100000D03*
X29150000Y31500000D03*
X44100000Y14400000D03*
X16400000Y52200000D03*
X41400000Y32000000D03*
X10800000Y41000000D03*
%TO.N,/Unst.power*%
X38986800Y6550000D03*
X30750000Y13035000D03*
%TO.N,+3V3*%
X31400000Y38000000D03*
X15150000Y48500000D03*
X22550000Y56650000D03*
X47600000Y33750000D03*
X45625000Y21500000D03*
X21500000Y46150000D03*
X5000000Y57800000D03*
X25150000Y44900000D03*
X31950000Y56650000D03*
X13000000Y42650000D03*
X38350000Y34050000D03*
X49500000Y26200000D03*
X33600000Y44300000D03*
%TO.N,/OSC_IN*%
X42100000Y59305000D03*
X44110000Y45700000D03*
%TO.N,/IR_IN1*%
X28200000Y41700000D03*
X22850000Y38900000D03*
X33150000Y48550000D03*
X29050000Y44600000D03*
%TO.N,/IR_IN2*%
X48400000Y30200000D03*
X40700000Y36900000D03*
%TO.N,/USB.power*%
X42800000Y16500000D03*
X41950000Y12750000D03*
%TO.N,/L.RESET*%
X28200684Y51238656D03*
X39600000Y44800000D03*
%TO.N,/L.DIO1*%
X29779977Y51979977D03*
X40655331Y44805331D03*
%TO.N,/L.SCK*%
X17203439Y57600000D03*
X28554977Y57604977D03*
%TO.N,/L.MISO*%
X16311078Y58500000D03*
X26554977Y58554977D03*
%TO.N,/BatCtrl*%
X34850000Y40280500D03*
X30825000Y34200000D03*
%TO.N,/Buzzer*%
X38100000Y40030000D03*
X35300000Y32700000D03*
%TO.N,/IR_Out*%
X37650000Y28800000D03*
X25300000Y28900000D03*
%TO.N,/UART_TX*%
X44000000Y39800000D03*
%TO.N,/UART_RX*%
X44000000Y38700000D03*
%TO.N,/SWDIO*%
X44000000Y40900000D03*
%TO.N,/SWCLK*%
X49850000Y41700000D03*
%TO.N,/Battery*%
X32325000Y25300000D03*
X34300000Y11075000D03*
%TO.N,/Conn.D-*%
X52531379Y17064177D03*
X48557357Y15847761D03*
%TO.N,/Conn.D+*%
X52531379Y16065333D03*
X48555781Y17154065D03*
%TO.N,/VBUS*%
X54000000Y14600000D03*
X52600000Y9525000D03*
%TO.N,Net-(DD1-NRST)*%
X27200000Y41700000D03*
X42100000Y49300000D03*
X33100000Y49700000D03*
X36600000Y53200000D03*
X22850000Y39900000D03*
X29000000Y45700000D03*
%TD*%
D21*
%TO.N,GND*%
X29200000Y49900000D02*
X27800000Y49900000D01*
X27800000Y49900000D02*
X27100000Y50600000D01*
X27100000Y50600000D02*
X27100000Y52400000D01*
D22*
%TO.N,/Unst.power*%
X38986800Y6550000D02*
X37168400Y6550000D01*
X30750000Y13035000D02*
X30750000Y24040000D01*
X37168400Y6550000D02*
X30750000Y12968400D01*
X30750000Y12968400D02*
X30750000Y13035000D01*
X30750000Y24040000D02*
X29315000Y25475000D01*
%TO.N,+3V3*%
X31950000Y56650000D02*
X28300000Y56650000D01*
D21*
X47600000Y33750000D02*
X45550000Y35800000D01*
X45625000Y21525000D02*
X49500000Y25400000D01*
D22*
X5000000Y47900000D02*
X10250000Y42650000D01*
D21*
X49500000Y25400000D02*
X49500000Y26200000D01*
X40100000Y35800000D02*
X38350000Y34050000D01*
X45625000Y21500000D02*
X45625000Y21525000D01*
D22*
X28300000Y56650000D02*
X22550000Y56650000D01*
X5000000Y57800000D02*
X5000000Y47900000D01*
X25150000Y44900000D02*
X25100000Y44950000D01*
X25100000Y44950000D02*
X25100000Y53450000D01*
D21*
X31400000Y38000000D02*
X33600000Y44300000D01*
X21500000Y46150000D02*
X15150000Y48500000D01*
D22*
X10250000Y42650000D02*
X13000000Y42650000D01*
X25100000Y53450000D02*
X28300000Y56650000D01*
D21*
X45550000Y35800000D02*
X40100000Y35800000D01*
D23*
%TO.N,/OSC_IN*%
X42100000Y59305000D02*
X44100000Y57305000D01*
X44100000Y45710000D02*
X44110000Y45700000D01*
X44100000Y57305000D02*
X44100000Y45710000D01*
%TO.N,/IR_IN1*%
X28200000Y41639339D02*
X25460661Y38900000D01*
X33150000Y48600000D02*
X29150000Y44600000D01*
X29150000Y44600000D02*
X29050000Y44600000D01*
X25460661Y38900000D02*
X22850000Y38900000D01*
X28200000Y41700000D02*
X28200000Y41639339D01*
%TO.N,/IR_IN2*%
X48400000Y34010661D02*
X45510661Y36900000D01*
X48400000Y30200000D02*
X48400000Y34010661D01*
X45510661Y36900000D02*
X40700000Y36900000D01*
D22*
%TO.N,/USB.power*%
X41950000Y12750000D02*
X42800000Y13600000D01*
X42800000Y13600000D02*
X42800000Y16500000D01*
D23*
%TO.N,/L.RESET*%
X28239340Y51200000D02*
X33200000Y51200000D01*
X33200000Y51200000D02*
X39600000Y44800000D01*
X28200684Y51238656D02*
X28239340Y51200000D01*
%TO.N,/L.DIO1*%
X33510661Y51950000D02*
X29809954Y51950000D01*
X29809954Y51950000D02*
X29779977Y51979977D01*
X40655331Y44805331D02*
X33510661Y51950000D01*
%TO.N,/L.SCK*%
X28554977Y57604977D02*
X28550000Y57600000D01*
X28550000Y57600000D02*
X17203439Y57600000D01*
%TO.N,/L.MISO*%
X26550000Y58550000D02*
X16361078Y58550000D01*
X16361078Y58550000D02*
X16311078Y58500000D01*
X26554977Y58554977D02*
X26550000Y58550000D01*
%TO.N,/BatCtrl*%
X34850000Y40280500D02*
X30825000Y34200000D01*
%TO.N,/Buzzer*%
X35300000Y32700000D02*
X38100000Y40030000D01*
%TO.N,/IR_Out*%
X37550000Y28900000D02*
X37650000Y28800000D01*
X25300000Y28900000D02*
X37550000Y28900000D01*
%TO.N,/UART_TX*%
X44000000Y39800000D02*
X55151000Y37185000D01*
%TO.N,/UART_RX*%
X44000000Y38700000D02*
X55151000Y34645000D01*
%TO.N,/SWDIO*%
X55126000Y39750000D02*
X55151000Y39725000D01*
X44000000Y40900000D02*
X55151000Y39725000D01*
%TO.N,/SWCLK*%
X54355000Y44805000D02*
X55151000Y44805000D01*
X49850000Y41700000D02*
X55151000Y44805000D01*
%TO.N,/Battery*%
X31500000Y24475000D02*
X31500000Y13137638D01*
X33562638Y11075000D02*
X34300000Y11075000D01*
X32325000Y25300000D02*
X31500000Y24475000D01*
X31500000Y13137638D02*
X33562638Y11075000D01*
%TO.N,/Conn.D-*%
X52805801Y16789755D02*
X52531379Y17064177D01*
X48984720Y16275124D02*
X49393324Y16275124D01*
X50993200Y18575000D02*
X50993200Y18486749D01*
X52193200Y18575000D02*
X52193200Y18486752D01*
X50225000Y18406800D02*
X50693200Y18875000D01*
X50225000Y17106800D02*
X50225000Y18406800D01*
X53671555Y16789755D02*
X52805801Y16789755D01*
X54175000Y17293200D02*
X53671555Y16789755D01*
X48557357Y15847761D02*
X48984720Y16275124D01*
X54175000Y18206800D02*
X54175000Y17293200D01*
X52793200Y18486752D02*
X52793200Y18575000D01*
X51593200Y18486749D02*
X51593200Y18575000D01*
X49393324Y16275124D02*
X50225000Y17106800D01*
X53093200Y18875000D02*
X53506800Y18875000D01*
X53506800Y18875000D02*
X54175000Y18206800D01*
X51893200Y18875000D02*
G75*
G03*
X51593200Y18575000I0J-300000D01*
G01*
X53093200Y18875000D02*
G75*
G03*
X52793200Y18575000I0J-300000D01*
G01*
X52193152Y18486752D02*
G75*
G03*
X52493200Y18186752I300048J48D01*
G01*
X51293200Y18186700D02*
G75*
G03*
X51593200Y18486749I0J300000D01*
G01*
X52493200Y18186800D02*
G75*
G03*
X52793200Y18486752I0J300000D01*
G01*
X52193200Y18575000D02*
G75*
G03*
X51893200Y18875000I-300000J0D01*
G01*
X50993249Y18486749D02*
G75*
G03*
X51293200Y18186749I299951J-49D01*
G01*
X50993200Y18575000D02*
G75*
G03*
X50693200Y18875000I-300000J0D01*
G01*
%TO.N,/Conn.D+*%
X48555781Y17154065D02*
X48984720Y16725126D01*
X50506800Y19325000D02*
X53693200Y19325000D01*
X49775000Y17293200D02*
X49775000Y18593200D01*
X54625000Y17106800D02*
X53857955Y16339755D01*
X53693200Y19325000D02*
X54625000Y18393200D01*
X53857955Y16339755D02*
X52805801Y16339755D01*
X54625000Y18393200D02*
X54625000Y17106800D01*
X49206926Y16725126D02*
X49775000Y17293200D01*
X48984720Y16725126D02*
X49206926Y16725126D01*
X52805801Y16339755D02*
X52531379Y16065333D01*
X49775000Y18593200D02*
X50506800Y19325000D01*
D21*
%TO.N,/VBUS*%
X54000000Y14600000D02*
X54000000Y10925000D01*
X54000000Y10925000D02*
X52600000Y9525000D01*
D23*
%TO.N,Net-(DD1-NRST)*%
X22850000Y39900000D02*
X25400000Y39900000D01*
X42100000Y49300000D02*
X36600000Y53200000D01*
X25400000Y39900000D02*
X27200000Y41700000D01*
X29000000Y45700000D02*
X29000000Y45750000D01*
X29000000Y45750000D02*
X32950000Y49700000D01*
X32950000Y49700000D02*
X33100000Y49700000D01*
%TD*%
%TA.AperFunction,Conductor*%
%TO.N,GND*%
G36*
X57642539Y63980315D02*
G01*
X57688294Y63927511D01*
X57699500Y63876000D01*
X57699500Y2175833D01*
X57679815Y2108794D01*
X57663181Y2088152D01*
X55911848Y336819D01*
X55850525Y303334D01*
X55824167Y300500D01*
X175833Y300500D01*
X108794Y320185D01*
X88152Y336819D01*
X-1663181Y2088152D01*
X-1696666Y2149475D01*
X-1699500Y2175833D01*
X-1699500Y2937371D01*
X-554283Y2937371D01*
X-524108Y2688850D01*
X-454460Y2448399D01*
X-347140Y2222225D01*
X-274059Y2116350D01*
X-204932Y2016203D01*
X-31516Y1835659D01*
X168615Y1685270D01*
X390279Y1568931D01*
X627734Y1489657D01*
X627737Y1489657D01*
X627739Y1489656D01*
X874828Y1449500D01*
X874831Y1449500D01*
X1062482Y1449500D01*
X1156003Y1457051D01*
X1249527Y1464600D01*
X1492591Y1524510D01*
X1722897Y1622634D01*
X1934481Y1756432D01*
X2121862Y1922437D01*
X2280188Y2116350D01*
X2405357Y2333150D01*
X2494128Y2567220D01*
X2544202Y2812500D01*
X2549234Y2937371D01*
X53445717Y2937371D01*
X53475892Y2688850D01*
X53545540Y2448399D01*
X53652860Y2222225D01*
X53725941Y2116350D01*
X53795068Y2016203D01*
X53968484Y1835659D01*
X54168615Y1685270D01*
X54390279Y1568931D01*
X54627734Y1489657D01*
X54627737Y1489657D01*
X54627739Y1489656D01*
X54874828Y1449500D01*
X54874831Y1449500D01*
X55062482Y1449500D01*
X55156003Y1457051D01*
X55249527Y1464600D01*
X55492591Y1524510D01*
X55722897Y1622634D01*
X55934481Y1756432D01*
X56121862Y1922437D01*
X56280188Y2116350D01*
X56405357Y2333150D01*
X56494128Y2567220D01*
X56544202Y2812500D01*
X56549714Y2949290D01*
X56554282Y3062629D01*
X56554282Y3062635D01*
X56524107Y3311151D01*
X56473818Y3484768D01*
X56454459Y3551604D01*
X56347141Y3777772D01*
X56347140Y3777773D01*
X56347139Y3777776D01*
X56204933Y3983795D01*
X56204932Y3983797D01*
X56031516Y4164341D01*
X55831385Y4314730D01*
X55831383Y4314731D01*
X55831382Y4314732D01*
X55609726Y4431067D01*
X55609722Y4431069D01*
X55609721Y4431069D01*
X55372266Y4510343D01*
X55372265Y4510344D01*
X55372260Y4510345D01*
X55125172Y4550500D01*
X55125169Y4550500D01*
X54937519Y4550500D01*
X54937518Y4550500D01*
X54750473Y4535401D01*
X54507411Y4475491D01*
X54277106Y4377368D01*
X54065514Y4243565D01*
X53878143Y4077569D01*
X53719809Y3883647D01*
X53594643Y3666852D01*
X53505871Y3432778D01*
X53455798Y3187507D01*
X53455797Y3187497D01*
X53445717Y2937372D01*
X53445717Y2937371D01*
X2549234Y2937371D01*
X2549714Y2949290D01*
X2554282Y3062629D01*
X2554282Y3062635D01*
X2524107Y3311151D01*
X2473818Y3484768D01*
X2454459Y3551604D01*
X2347141Y3777772D01*
X2347140Y3777773D01*
X2347139Y3777776D01*
X2204933Y3983795D01*
X2204932Y3983797D01*
X2203776Y3985000D01*
X15567723Y3985000D01*
X15569288Y3967113D01*
X15569288Y3967109D01*
X15625894Y3755850D01*
X15625898Y3755841D01*
X15718333Y3557613D01*
X15843787Y3378446D01*
X15998445Y3223788D01*
X16177612Y3098334D01*
X16375840Y3005899D01*
X16375849Y3005895D01*
X16587105Y2949290D01*
X16587116Y2949288D01*
X16604998Y2947724D01*
X16604999Y2947724D01*
X16604999Y3395639D01*
X16624684Y3462678D01*
X16677488Y3508433D01*
X16746646Y3518377D01*
X16786886Y3500000D01*
X16800000Y3500000D01*
X16881000Y3500000D01*
X16948039Y3480315D01*
X16993794Y3427511D01*
X17005000Y3376000D01*
X17005000Y2947724D01*
X17022887Y2949289D01*
X17022891Y2949289D01*
X17234150Y3005895D01*
X17234159Y3005899D01*
X17432387Y3098334D01*
X17611554Y3223788D01*
X17766211Y3378445D01*
X17766216Y3378451D01*
X17814301Y3447123D01*
X17868877Y3490748D01*
X17915876Y3500000D01*
X18170500Y3500000D01*
X18237539Y3480315D01*
X18283294Y3427511D01*
X18294500Y3376000D01*
X18294500Y3315248D01*
X18306131Y3256771D01*
X18306132Y3256770D01*
X18350447Y3190448D01*
X18416769Y3146133D01*
X18416770Y3146132D01*
X18475247Y3134501D01*
X18475250Y3134500D01*
X18475252Y3134500D01*
X20214750Y3134500D01*
X20214751Y3134501D01*
X20229568Y3137448D01*
X20273229Y3146132D01*
X20273229Y3146133D01*
X20273231Y3146133D01*
X20339552Y3190448D01*
X20383867Y3256769D01*
X20383867Y3256771D01*
X20383868Y3256771D01*
X20395499Y3315248D01*
X20395500Y3315250D01*
X20395500Y4460000D01*
X24064417Y4460000D01*
X24084699Y4254068D01*
X24084700Y4254066D01*
X24144768Y4056046D01*
X24242315Y3873550D01*
X24276969Y3831323D01*
X24373589Y3713590D01*
X24430543Y3666850D01*
X24533550Y3582315D01*
X24716046Y3484768D01*
X24914066Y3424700D01*
X24914065Y3424700D01*
X24932529Y3422882D01*
X25120000Y3404417D01*
X25325934Y3424700D01*
X25523954Y3484768D01*
X25706450Y3582315D01*
X25866410Y3713590D01*
X25997685Y3873550D01*
X26095232Y4056046D01*
X26155300Y4254066D01*
X26175583Y4460000D01*
X26175583Y4460001D01*
X29564417Y4460001D01*
X29584699Y4254068D01*
X29584700Y4254066D01*
X29644768Y4056046D01*
X29742315Y3873550D01*
X29776969Y3831323D01*
X29873589Y3713590D01*
X29930543Y3666850D01*
X30033550Y3582315D01*
X30216046Y3484768D01*
X30414066Y3424700D01*
X30414065Y3424700D01*
X30432529Y3422882D01*
X30620000Y3404417D01*
X30825934Y3424700D01*
X31023954Y3484768D01*
X31206450Y3582315D01*
X31366410Y3713590D01*
X31497685Y3873550D01*
X31595232Y4056046D01*
X31655300Y4254066D01*
X31675583Y4460000D01*
X31655300Y4665934D01*
X31595232Y4863954D01*
X31497685Y5046450D01*
X31388451Y5179553D01*
X31366410Y5206411D01*
X31206452Y5337683D01*
X31206453Y5337683D01*
X31206450Y5337685D01*
X31023954Y5435232D01*
X30825934Y5495300D01*
X30825932Y5495301D01*
X30825934Y5495301D01*
X30620000Y5515583D01*
X30414067Y5495301D01*
X30216043Y5435231D01*
X30105897Y5376357D01*
X30033550Y5337685D01*
X30033548Y5337684D01*
X30033547Y5337683D01*
X29873589Y5206411D01*
X29742317Y5046453D01*
X29644769Y4863957D01*
X29584699Y4665933D01*
X29564417Y4460001D01*
X26175583Y4460001D01*
X26155300Y4665934D01*
X26095232Y4863954D01*
X25997685Y5046450D01*
X25888451Y5179553D01*
X25866410Y5206411D01*
X25706452Y5337683D01*
X25706453Y5337683D01*
X25706450Y5337685D01*
X25523954Y5435232D01*
X25325934Y5495300D01*
X25325932Y5495301D01*
X25325934Y5495301D01*
X25120000Y5515583D01*
X24914067Y5495301D01*
X24716043Y5435231D01*
X24605897Y5376357D01*
X24533550Y5337685D01*
X24533548Y5337684D01*
X24533547Y5337683D01*
X24373589Y5206411D01*
X24242317Y5046453D01*
X24144769Y4863957D01*
X24084699Y4665933D01*
X24064417Y4460000D01*
X20395500Y4460000D01*
X20395500Y5054751D01*
X20395499Y5054753D01*
X20383868Y5113230D01*
X20383867Y5113231D01*
X20339552Y5179553D01*
X20273230Y5223868D01*
X20273229Y5223869D01*
X20214752Y5235500D01*
X20214748Y5235500D01*
X18475252Y5235500D01*
X18475247Y5235500D01*
X18416770Y5223869D01*
X18416769Y5223868D01*
X18350447Y5179553D01*
X18306132Y5113231D01*
X18306131Y5113230D01*
X18294500Y5054753D01*
X18294500Y5024000D01*
X18274815Y4956961D01*
X18222011Y4911206D01*
X18170500Y4900000D01*
X17894870Y4900000D01*
X17827831Y4919685D01*
X17793296Y4952875D01*
X17766209Y4991558D01*
X17611554Y5146213D01*
X17432387Y5271667D01*
X17234159Y5364102D01*
X17234150Y5364106D01*
X17022889Y5420712D01*
X17005000Y5422278D01*
X17005000Y5024000D01*
X16985315Y4956961D01*
X16932511Y4911206D01*
X16881000Y4900000D01*
X16786131Y4900000D01*
X16755354Y4883195D01*
X16685662Y4888181D01*
X16629730Y4930054D01*
X16605315Y4995519D01*
X16604999Y5004362D01*
X16604999Y5422278D01*
X16604998Y5422278D01*
X16587109Y5420712D01*
X16375849Y5364106D01*
X16375840Y5364102D01*
X16177612Y5271667D01*
X16177608Y5271665D01*
X15998450Y5146217D01*
X15998444Y5146212D01*
X15843788Y4991556D01*
X15843783Y4991550D01*
X15718335Y4812392D01*
X15718333Y4812388D01*
X15625898Y4614160D01*
X15625894Y4614151D01*
X15569288Y4402892D01*
X15569288Y4402888D01*
X15567723Y4385000D01*
X16181000Y4385000D01*
X16248039Y4365315D01*
X16293794Y4312511D01*
X16305000Y4261000D01*
X16305000Y4109000D01*
X16285315Y4041961D01*
X16232511Y3996206D01*
X16181000Y3985000D01*
X15567723Y3985000D01*
X2203776Y3985000D01*
X2031516Y4164341D01*
X1831385Y4314730D01*
X1831383Y4314731D01*
X1831382Y4314732D01*
X1609726Y4431067D01*
X1609722Y4431069D01*
X1609721Y4431069D01*
X1372266Y4510343D01*
X1372265Y4510344D01*
X1372260Y4510345D01*
X1125172Y4550500D01*
X1125169Y4550500D01*
X937519Y4550500D01*
X937518Y4550500D01*
X750473Y4535401D01*
X507411Y4475491D01*
X277106Y4377368D01*
X65514Y4243565D01*
X-121857Y4077569D01*
X-280191Y3883647D01*
X-405357Y3666852D01*
X-494129Y3432778D01*
X-544202Y3187507D01*
X-544203Y3187497D01*
X-554283Y2937372D01*
X-554283Y2937371D01*
X-1699500Y2937371D01*
X-1699500Y6960001D01*
X24064417Y6960001D01*
X24084699Y6754068D01*
X24114734Y6655057D01*
X24144768Y6556046D01*
X24242315Y6373550D01*
X24242317Y6373548D01*
X24373589Y6213590D01*
X24470209Y6134298D01*
X24533550Y6082315D01*
X24716046Y5984768D01*
X24914066Y5924700D01*
X24914065Y5924700D01*
X24932529Y5922882D01*
X25120000Y5904417D01*
X25325934Y5924700D01*
X25523954Y5984768D01*
X25706450Y6082315D01*
X25866410Y6213590D01*
X25997685Y6373550D01*
X26095232Y6556046D01*
X26155300Y6754066D01*
X26175583Y6960000D01*
X29564417Y6960000D01*
X29584699Y6754068D01*
X29614734Y6655057D01*
X29644768Y6556046D01*
X29742315Y6373550D01*
X29742317Y6373548D01*
X29873589Y6213590D01*
X29970209Y6134298D01*
X30033550Y6082315D01*
X30216046Y5984768D01*
X30414066Y5924700D01*
X30414065Y5924700D01*
X30432529Y5922882D01*
X30620000Y5904417D01*
X30825934Y5924700D01*
X31023954Y5984768D01*
X31206450Y6082315D01*
X31366410Y6213590D01*
X31497685Y6373550D01*
X31595232Y6556046D01*
X31655300Y6754066D01*
X31675583Y6960000D01*
X31655300Y7165934D01*
X31595232Y7363954D01*
X31497685Y7546450D01*
X31445702Y7609791D01*
X31366410Y7706411D01*
X31206452Y7837683D01*
X31206453Y7837683D01*
X31206450Y7837685D01*
X31023954Y7935232D01*
X30825934Y7995300D01*
X30825932Y7995301D01*
X30825934Y7995301D01*
X30620000Y8015583D01*
X30414067Y7995301D01*
X30216043Y7935231D01*
X30105897Y7876357D01*
X30033550Y7837685D01*
X30033548Y7837684D01*
X30033547Y7837683D01*
X29873589Y7706411D01*
X29742317Y7546453D01*
X29644769Y7363957D01*
X29584699Y7165933D01*
X29564417Y6960000D01*
X26175583Y6960000D01*
X26155300Y7165934D01*
X26095232Y7363954D01*
X25997685Y7546450D01*
X25945702Y7609791D01*
X25866410Y7706411D01*
X25706452Y7837683D01*
X25706453Y7837683D01*
X25706450Y7837685D01*
X25523954Y7935232D01*
X25325934Y7995300D01*
X25325932Y7995301D01*
X25325934Y7995301D01*
X25120000Y8015583D01*
X24914067Y7995301D01*
X24716043Y7935231D01*
X24605897Y7876357D01*
X24533550Y7837685D01*
X24533548Y7837684D01*
X24533547Y7837683D01*
X24373589Y7706411D01*
X24242317Y7546453D01*
X24144769Y7363957D01*
X24084699Y7165933D01*
X24064417Y6960001D01*
X-1699500Y6960001D01*
X-1699500Y9460000D01*
X24064417Y9460000D01*
X24084699Y9254068D01*
X24084700Y9254066D01*
X24144768Y9056046D01*
X24242315Y8873550D01*
X24242317Y8873548D01*
X24373589Y8713590D01*
X24470209Y8634298D01*
X24533550Y8582315D01*
X24716046Y8484768D01*
X24914066Y8424700D01*
X24914065Y8424700D01*
X24932529Y8422882D01*
X25120000Y8404417D01*
X25325934Y8424700D01*
X25523954Y8484768D01*
X25706450Y8582315D01*
X25866410Y8713590D01*
X25997685Y8873550D01*
X26095232Y9056046D01*
X26155300Y9254066D01*
X26175583Y9460000D01*
X29564417Y9460000D01*
X29584699Y9254068D01*
X29584700Y9254066D01*
X29644768Y9056046D01*
X29742315Y8873550D01*
X29742317Y8873548D01*
X29873589Y8713590D01*
X29970209Y8634298D01*
X30033550Y8582315D01*
X30216046Y8484768D01*
X30414066Y8424700D01*
X30414065Y8424700D01*
X30432529Y8422882D01*
X30620000Y8404417D01*
X30825934Y8424700D01*
X31023954Y8484768D01*
X31206450Y8582315D01*
X31366410Y8713590D01*
X31497685Y8873550D01*
X31595232Y9056046D01*
X31655300Y9254066D01*
X31675583Y9460000D01*
X31655300Y9665934D01*
X31595232Y9863954D01*
X31497685Y10046450D01*
X31432467Y10125919D01*
X31366410Y10206411D01*
X31248677Y10303031D01*
X31206450Y10337685D01*
X31023954Y10435232D01*
X30825934Y10495300D01*
X30825932Y10495301D01*
X30825934Y10495301D01*
X30620000Y10515583D01*
X30414067Y10495301D01*
X30216043Y10435231D01*
X30139004Y10394052D01*
X30033550Y10337685D01*
X30033548Y10337684D01*
X30033547Y10337683D01*
X29873589Y10206411D01*
X29742317Y10046453D01*
X29644769Y9863957D01*
X29584699Y9665933D01*
X29564417Y9460000D01*
X26175583Y9460000D01*
X26155300Y9665934D01*
X26095232Y9863954D01*
X25997685Y10046450D01*
X25932467Y10125919D01*
X25866410Y10206411D01*
X25748677Y10303031D01*
X25706450Y10337685D01*
X25523954Y10435232D01*
X25325934Y10495300D01*
X25325932Y10495301D01*
X25325934Y10495301D01*
X25138463Y10513765D01*
X25120000Y10515583D01*
X25119999Y10515583D01*
X24914067Y10495301D01*
X24716043Y10435231D01*
X24639004Y10394052D01*
X24533550Y10337685D01*
X24533548Y10337684D01*
X24533547Y10337683D01*
X24373589Y10206411D01*
X24242317Y10046453D01*
X24144769Y9863957D01*
X24084699Y9665933D01*
X24064417Y9460000D01*
X-1699500Y9460000D01*
X-1699500Y13035000D01*
X3939659Y13035000D01*
X3958975Y12838871D01*
X3958976Y12838868D01*
X4001232Y12699568D01*
X4016188Y12650267D01*
X4109086Y12476468D01*
X4109090Y12476461D01*
X4234116Y12324117D01*
X4386460Y12199091D01*
X4386467Y12199087D01*
X4560266Y12106189D01*
X4560269Y12106189D01*
X4560273Y12106186D01*
X4748868Y12048976D01*
X4945000Y12029659D01*
X5141132Y12048976D01*
X5329727Y12106186D01*
X5503538Y12199090D01*
X5523226Y12215248D01*
X7944500Y12215248D01*
X7956131Y12156771D01*
X7956132Y12156770D01*
X8000447Y12090448D01*
X8066769Y12046133D01*
X8066770Y12046132D01*
X8125247Y12034501D01*
X8125250Y12034500D01*
X8125252Y12034500D01*
X9764750Y12034500D01*
X9764751Y12034501D01*
X9779568Y12037448D01*
X9823229Y12046132D01*
X9823229Y12046133D01*
X9823231Y12046133D01*
X9889552Y12090448D01*
X9933867Y12156769D01*
X9933867Y12156771D01*
X9933868Y12156771D01*
X9945499Y12215248D01*
X9945500Y12215250D01*
X9945500Y13854751D01*
X9945499Y13854753D01*
X9933868Y13913230D01*
X9933867Y13913231D01*
X9889552Y13979553D01*
X9823230Y14023868D01*
X9823229Y14023869D01*
X9764752Y14035500D01*
X9764748Y14035500D01*
X8125252Y14035500D01*
X8125247Y14035500D01*
X8066770Y14023869D01*
X8066769Y14023868D01*
X8000447Y13979553D01*
X7956132Y13913231D01*
X7956131Y13913230D01*
X7944500Y13854753D01*
X7944500Y12215248D01*
X5523226Y12215248D01*
X5655883Y12324117D01*
X5780910Y12476462D01*
X5873814Y12650273D01*
X5931024Y12838868D01*
X5950341Y13035000D01*
X5931024Y13231132D01*
X5873814Y13419727D01*
X5873811Y13419731D01*
X5873811Y13419734D01*
X5780913Y13593533D01*
X5780909Y13593540D01*
X5655883Y13745884D01*
X5503539Y13870910D01*
X5503532Y13870914D01*
X5329733Y13963812D01*
X5329727Y13963814D01*
X5141132Y14021024D01*
X5141129Y14021025D01*
X4945000Y14040341D01*
X4748870Y14021025D01*
X4560266Y13963812D01*
X4386467Y13870914D01*
X4386460Y13870910D01*
X4234116Y13745884D01*
X4109090Y13593540D01*
X4109086Y13593533D01*
X4016188Y13419734D01*
X3958975Y13231130D01*
X3939659Y13035000D01*
X-1699500Y13035000D01*
X-1699500Y25524998D01*
X380034Y25524998D01*
X399858Y25298401D01*
X399860Y25298390D01*
X458730Y25078683D01*
X458734Y25078674D01*
X554866Y24872518D01*
X635095Y24757939D01*
X1141185Y25264030D01*
X1202508Y25297515D01*
X1272199Y25292531D01*
X1325813Y25253662D01*
X1375463Y25191402D01*
X1375466Y25191400D01*
X1405678Y25170801D01*
X1449980Y25116772D01*
X1458038Y25047369D01*
X1427295Y24984626D01*
X1423507Y24980667D01*
X917936Y24475097D01*
X1032517Y24394867D01*
X1238673Y24298735D01*
X1238682Y24298731D01*
X1458389Y24239861D01*
X1458400Y24239859D01*
X1684998Y24220034D01*
X1685002Y24220034D01*
X1911599Y24239859D01*
X1911610Y24239861D01*
X2131317Y24298731D01*
X2131331Y24298736D01*
X2337478Y24394864D01*
X2452062Y24475097D01*
X1947731Y24979427D01*
X1914246Y25040750D01*
X1919230Y25110441D01*
X1951069Y25158005D01*
X2040798Y25241260D01*
X2040802Y25241269D01*
X2046594Y25248528D01*
X2049212Y25246440D01*
X2087699Y25283149D01*
X2156304Y25296384D01*
X2221173Y25270427D01*
X2232219Y25260624D01*
X2734903Y24757938D01*
X2815136Y24872522D01*
X2888118Y25029031D01*
X2934290Y25081471D01*
X3001484Y25100623D01*
X3068365Y25080407D01*
X3113699Y25027242D01*
X3124500Y24976627D01*
X3124500Y24605248D01*
X3136131Y24546771D01*
X3136132Y24546770D01*
X3180447Y24480448D01*
X3246769Y24436133D01*
X3246770Y24436132D01*
X3305247Y24424501D01*
X3305250Y24424500D01*
X3305252Y24424500D01*
X5144750Y24424500D01*
X5144751Y24424501D01*
X5159568Y24427448D01*
X5203229Y24436132D01*
X5203229Y24436133D01*
X5203231Y24436133D01*
X5269552Y24480448D01*
X5313867Y24546769D01*
X5313867Y24546771D01*
X5313868Y24546771D01*
X5315554Y24555248D01*
X25674500Y24555248D01*
X25686131Y24496771D01*
X25686132Y24496770D01*
X25730447Y24430448D01*
X25796769Y24386133D01*
X25796770Y24386132D01*
X25855247Y24374501D01*
X25855250Y24374500D01*
X25855252Y24374500D01*
X27694750Y24374500D01*
X27694751Y24374501D01*
X27709568Y24377448D01*
X27753229Y24386132D01*
X27753229Y24386133D01*
X27753231Y24386133D01*
X27819552Y24430448D01*
X27863867Y24496769D01*
X27863867Y24496771D01*
X27863868Y24496771D01*
X27875499Y24555248D01*
X27875500Y24555250D01*
X27875500Y25475000D01*
X28209785Y25475000D01*
X28228602Y25271918D01*
X28284417Y25075753D01*
X28284422Y25075740D01*
X28375327Y24893179D01*
X28498237Y24730419D01*
X28648958Y24593020D01*
X28648960Y24593018D01*
X28656196Y24588538D01*
X28822363Y24485652D01*
X29012544Y24411976D01*
X29213024Y24374500D01*
X29213026Y24374500D01*
X29416974Y24374500D01*
X29416976Y24374500D01*
X29597655Y24408275D01*
X29667168Y24401244D01*
X29708119Y24374067D01*
X30213181Y23869005D01*
X30246666Y23807682D01*
X30249500Y23781324D01*
X30249500Y13411258D01*
X30229815Y13344219D01*
X30226073Y13338897D01*
X30225465Y13337844D01*
X30164956Y13191763D01*
X30164955Y13191761D01*
X30144318Y13035002D01*
X30144318Y13034999D01*
X30164955Y12878240D01*
X30164956Y12878238D01*
X30207511Y12775500D01*
X30225464Y12732159D01*
X30321718Y12606718D01*
X30447159Y12510464D01*
X30447160Y12510464D01*
X30447161Y12510463D01*
X30514784Y12482453D01*
X30555013Y12455573D01*
X36767014Y6243573D01*
X36783650Y6222929D01*
X36786257Y6218872D01*
X36825463Y6184900D01*
X36828704Y6181883D01*
X36839807Y6170780D01*
X36839810Y6170778D01*
X36839812Y6170776D01*
X36852370Y6161375D01*
X36855818Y6158597D01*
X36895023Y6124626D01*
X36895024Y6124625D01*
X36895025Y6124625D01*
X36895027Y6124623D01*
X36899410Y6122621D01*
X36922207Y6109095D01*
X36926069Y6106204D01*
X36974695Y6088068D01*
X36978751Y6086388D01*
X36987668Y6082315D01*
X37025940Y6064836D01*
X37025941Y6064836D01*
X37025943Y6064835D01*
X37030712Y6064150D01*
X37056402Y6057593D01*
X37060917Y6055909D01*
X37112658Y6052209D01*
X37117057Y6051736D01*
X37132601Y6049500D01*
X37148306Y6049500D01*
X37152728Y6049343D01*
X37204473Y6045641D01*
X37209184Y6046666D01*
X37235543Y6049500D01*
X38610543Y6049500D01*
X38677582Y6029815D01*
X38682899Y6026076D01*
X38683957Y6025466D01*
X38683959Y6025464D01*
X38683960Y6025464D01*
X38683963Y6025462D01*
X38756998Y5995211D01*
X38830038Y5964956D01*
X38908418Y5954638D01*
X38986799Y5944318D01*
X38986800Y5944318D01*
X38986801Y5944318D01*
X39039054Y5951198D01*
X39143562Y5964956D01*
X39289641Y6025464D01*
X39415082Y6121718D01*
X39511336Y6247159D01*
X39571844Y6393238D01*
X39592482Y6550000D01*
X39591686Y6556044D01*
X39571844Y6706761D01*
X39571844Y6706762D01*
X39511336Y6852841D01*
X39415082Y6978282D01*
X39289641Y7074536D01*
X39259987Y7086819D01*
X39143562Y7135044D01*
X39143560Y7135045D01*
X38986801Y7155682D01*
X38986799Y7155682D01*
X38830039Y7135045D01*
X38830034Y7135043D01*
X38683963Y7074539D01*
X38676924Y7070474D01*
X38675917Y7072217D01*
X38620868Y7050931D01*
X38610543Y7050500D01*
X37427075Y7050500D01*
X37360036Y7070185D01*
X37339394Y7086819D01*
X34901215Y9524999D01*
X51994318Y9524999D01*
X52014955Y9368240D01*
X52014956Y9368238D01*
X52075464Y9222159D01*
X52171718Y9096718D01*
X52297159Y9000464D01*
X52443238Y8939956D01*
X52521619Y8929638D01*
X52599999Y8919318D01*
X52600000Y8919318D01*
X52600001Y8919318D01*
X52652253Y8926198D01*
X52756762Y8939956D01*
X52902841Y9000464D01*
X53028282Y9096718D01*
X53124536Y9222159D01*
X53185044Y9368238D01*
X53195424Y9447085D01*
X53223688Y9510979D01*
X53230669Y9518567D01*
X54298205Y10586104D01*
X54303373Y10590723D01*
X54333970Y10615121D01*
X54367480Y10664272D01*
X54402793Y10712118D01*
X54402794Y10712121D01*
X54406787Y10719676D01*
X54410470Y10727324D01*
X54410470Y10727325D01*
X54410472Y10727327D01*
X54428007Y10784178D01*
X54447646Y10840301D01*
X54449232Y10848689D01*
X54450500Y10857096D01*
X54450500Y10916574D01*
X54452724Y10976008D01*
X54451684Y10985239D01*
X54452516Y10985333D01*
X54450500Y11000627D01*
X54450500Y12166167D01*
X54810624Y12166167D01*
X54820944Y12002140D01*
X54871732Y11845829D01*
X54871734Y11845825D01*
X54959798Y11707060D01*
X55079603Y11594555D01*
X55079611Y11594549D01*
X55159860Y11550432D01*
X55223632Y11515373D01*
X55382823Y11474500D01*
X55382827Y11474500D01*
X56505923Y11474500D01*
X56505925Y11474500D01*
X56505930Y11474501D01*
X56505934Y11474501D01*
X56519174Y11476174D01*
X56628058Y11489929D01*
X56780871Y11550432D01*
X56780878Y11550437D01*
X56913835Y11647035D01*
X56913835Y11647037D01*
X56913837Y11647037D01*
X57018600Y11773674D01*
X57088579Y11922387D01*
X57119376Y12083830D01*
X57109056Y12247860D01*
X57058268Y12404171D01*
X56970202Y12542940D01*
X56908829Y12600573D01*
X56850396Y12655446D01*
X56850388Y12655452D01*
X56706371Y12734626D01*
X56706361Y12734629D01*
X56547180Y12775500D01*
X56547177Y12775500D01*
X55424075Y12775500D01*
X55424065Y12775500D01*
X55301942Y12760071D01*
X55301939Y12760071D01*
X55149130Y12699569D01*
X55149121Y12699564D01*
X55016164Y12602966D01*
X55016162Y12602963D01*
X54911400Y12476327D01*
X54841420Y12327613D01*
X54840296Y12321718D01*
X54810624Y12166170D01*
X54810624Y12166168D01*
X54810624Y12166167D01*
X54450500Y12166167D01*
X54450500Y14158582D01*
X54470185Y14225620D01*
X54476124Y14234067D01*
X54492092Y14254879D01*
X54524536Y14297159D01*
X54585044Y14443238D01*
X54605682Y14600000D01*
X54585044Y14756762D01*
X54524536Y14902841D01*
X54428282Y15028282D01*
X54302841Y15124536D01*
X54156762Y15185044D01*
X54156760Y15185045D01*
X54000001Y15205682D01*
X53999999Y15205682D01*
X53843239Y15185045D01*
X53843237Y15185044D01*
X53697160Y15124537D01*
X53571718Y15028282D01*
X53475463Y14902840D01*
X53414956Y14756763D01*
X53414955Y14756761D01*
X53394318Y14600002D01*
X53394318Y14599999D01*
X53414955Y14443240D01*
X53414957Y14443235D01*
X53475461Y14297164D01*
X53475464Y14297159D01*
X53523876Y14234067D01*
X53549070Y14168898D01*
X53549500Y14158581D01*
X53549500Y11162967D01*
X53529815Y11095928D01*
X53513181Y11075286D01*
X52593577Y10155683D01*
X52532254Y10122198D01*
X52522083Y10120425D01*
X52443238Y10110044D01*
X52297160Y10049537D01*
X52171718Y9953282D01*
X52075463Y9827840D01*
X52014956Y9681763D01*
X52014955Y9681761D01*
X51994318Y9525002D01*
X51994318Y9524999D01*
X34901215Y9524999D01*
X34163177Y10263037D01*
X34129692Y10324360D01*
X34134676Y10394052D01*
X34176548Y10449985D01*
X34242012Y10474402D01*
X34267041Y10473658D01*
X34300000Y10469318D01*
X34300001Y10469318D01*
X34352254Y10476198D01*
X34456762Y10489956D01*
X34602841Y10550464D01*
X34728282Y10646718D01*
X34824536Y10772159D01*
X34885044Y10918238D01*
X34905682Y11075000D01*
X34905644Y11075286D01*
X34885044Y11231761D01*
X34885044Y11231762D01*
X34824536Y11377841D01*
X34728282Y11503282D01*
X34602841Y11599536D01*
X34488168Y11647035D01*
X34456762Y11660044D01*
X34456760Y11660045D01*
X34300001Y11680682D01*
X34299999Y11680682D01*
X34143239Y11660045D01*
X34143237Y11660044D01*
X33997160Y11599537D01*
X33990660Y11594549D01*
X33887476Y11515373D01*
X33871717Y11503281D01*
X33852861Y11478707D01*
X33796432Y11437505D01*
X33726686Y11433351D01*
X33666805Y11466514D01*
X32383321Y12749999D01*
X41344318Y12749999D01*
X41364955Y12593240D01*
X41364956Y12593238D01*
X41413382Y12476326D01*
X41425464Y12447159D01*
X41521718Y12321718D01*
X41647159Y12225464D01*
X41793238Y12164956D01*
X41855410Y12156771D01*
X41949999Y12144318D01*
X41950000Y12144318D01*
X41950001Y12144318D01*
X42002254Y12151198D01*
X42106762Y12164956D01*
X42109686Y12166167D01*
X50970624Y12166167D01*
X50980944Y12002140D01*
X51031732Y11845829D01*
X51031734Y11845825D01*
X51119798Y11707060D01*
X51239603Y11594555D01*
X51239611Y11594549D01*
X51319860Y11550432D01*
X51383632Y11515373D01*
X51542823Y11474500D01*
X51542827Y11474500D01*
X52465923Y11474500D01*
X52465925Y11474500D01*
X52465930Y11474501D01*
X52465934Y11474501D01*
X52479174Y11476174D01*
X52588058Y11489929D01*
X52740871Y11550432D01*
X52740878Y11550437D01*
X52873835Y11647035D01*
X52873835Y11647037D01*
X52873837Y11647037D01*
X52978600Y11773674D01*
X53048579Y11922387D01*
X53079376Y12083830D01*
X53069056Y12247860D01*
X53018268Y12404171D01*
X52930202Y12542940D01*
X52868829Y12600573D01*
X52810396Y12655446D01*
X52810388Y12655452D01*
X52666371Y12734626D01*
X52666361Y12734629D01*
X52507180Y12775500D01*
X52507177Y12775500D01*
X51584075Y12775500D01*
X51584065Y12775500D01*
X51461942Y12760071D01*
X51461939Y12760071D01*
X51309130Y12699569D01*
X51309121Y12699564D01*
X51176164Y12602966D01*
X51176162Y12602963D01*
X51071400Y12476327D01*
X51001420Y12327613D01*
X51000296Y12321718D01*
X50970624Y12166170D01*
X50970624Y12166168D01*
X50970624Y12166167D01*
X42109686Y12166167D01*
X42252841Y12225464D01*
X42378282Y12321718D01*
X42474536Y12447159D01*
X42535044Y12593238D01*
X42535044Y12593246D01*
X42537149Y12601094D01*
X42539094Y12600573D01*
X42562963Y12654542D01*
X42569950Y12662138D01*
X43106431Y13198619D01*
X43127068Y13215249D01*
X43131128Y13217857D01*
X43165109Y13257075D01*
X43168092Y13260280D01*
X43179221Y13271407D01*
X43188637Y13283986D01*
X43191417Y13287436D01*
X43225377Y13326627D01*
X43227375Y13331005D01*
X43240907Y13353811D01*
X43243796Y13357669D01*
X43261922Y13406272D01*
X43263614Y13410355D01*
X43267897Y13419734D01*
X43285165Y13457543D01*
X43285850Y13462315D01*
X43292409Y13488008D01*
X43294091Y13492517D01*
X43297791Y13544260D01*
X43298265Y13548660D01*
X43300500Y13564201D01*
X43300500Y13579906D01*
X43300658Y13584331D01*
X43301316Y13593533D01*
X43304359Y13636073D01*
X43303332Y13640794D01*
X43300500Y13667142D01*
X43300500Y16123743D01*
X43320185Y16190782D01*
X43323924Y16196100D01*
X43324532Y16197155D01*
X43324536Y16197159D01*
X43385044Y16343238D01*
X43399553Y16453443D01*
X43405682Y16499999D01*
X43405682Y16500002D01*
X43385044Y16656761D01*
X43385044Y16656762D01*
X43324536Y16802841D01*
X43228282Y16928282D01*
X43102841Y17024536D01*
X43045438Y17048313D01*
X42956762Y17085044D01*
X42956760Y17085045D01*
X42800001Y17105682D01*
X42799999Y17105682D01*
X42643239Y17085045D01*
X42643237Y17085044D01*
X42497160Y17024537D01*
X42371718Y16928282D01*
X42275463Y16802840D01*
X42214956Y16656763D01*
X42214955Y16656761D01*
X42194318Y16500002D01*
X42194318Y16499999D01*
X42214955Y16343240D01*
X42214957Y16343235D01*
X42275461Y16197164D01*
X42279526Y16190124D01*
X42277783Y16189118D01*
X42299069Y16134068D01*
X42299500Y16123743D01*
X42299500Y13858678D01*
X42279815Y13791639D01*
X42263181Y13770997D01*
X41862146Y13369962D01*
X41800823Y13336477D01*
X41794415Y13335360D01*
X41793241Y13335046D01*
X41647160Y13274537D01*
X41521718Y13178282D01*
X41425463Y13052840D01*
X41364956Y12906763D01*
X41364955Y12906761D01*
X41344318Y12750002D01*
X41344318Y12749999D01*
X32383321Y12749999D01*
X31886819Y13246501D01*
X31853334Y13307824D01*
X31850500Y13334182D01*
X31850500Y17154064D01*
X47950099Y17154064D01*
X47970736Y16997305D01*
X47970737Y16997303D01*
X48019535Y16879493D01*
X48031245Y16851224D01*
X48127499Y16725783D01*
X48252940Y16629529D01*
X48252941Y16629529D01*
X48252942Y16629528D01*
X48287659Y16615148D01*
X48342063Y16571308D01*
X48364128Y16505014D01*
X48346849Y16437314D01*
X48295712Y16389704D01*
X48287661Y16386026D01*
X48254516Y16372297D01*
X48129075Y16276043D01*
X48032820Y16150601D01*
X47972313Y16004524D01*
X47972312Y16004522D01*
X47951675Y15847763D01*
X47951675Y15847760D01*
X47972312Y15691001D01*
X47972313Y15691000D01*
X47972313Y15690999D01*
X48032821Y15544920D01*
X48129075Y15419479D01*
X48254516Y15323225D01*
X48400595Y15262717D01*
X48478976Y15252398D01*
X48557356Y15242079D01*
X48557357Y15242079D01*
X48557358Y15242079D01*
X48609611Y15248959D01*
X48714119Y15262717D01*
X48860198Y15323225D01*
X48985639Y15419479D01*
X49081893Y15544920D01*
X49142401Y15690999D01*
X49147177Y15727284D01*
X49175442Y15791179D01*
X49233766Y15829651D01*
X49263592Y15834927D01*
X51831418Y15970076D01*
X51899398Y15953942D01*
X51947865Y15903616D01*
X51952493Y15893705D01*
X52006843Y15762492D01*
X52103097Y15637051D01*
X52228538Y15540797D01*
X52374617Y15480289D01*
X52452997Y15469971D01*
X52531378Y15459651D01*
X52531379Y15459651D01*
X52531380Y15459651D01*
X52583633Y15466531D01*
X52688141Y15480289D01*
X52834220Y15540797D01*
X52959661Y15637051D01*
X53055915Y15762492D01*
X53116423Y15908571D01*
X53116423Y15908572D01*
X53118136Y15912707D01*
X53161977Y15967111D01*
X53228271Y15989176D01*
X53232697Y15989255D01*
X53808744Y15989255D01*
X53834189Y15986617D01*
X53843270Y15984712D01*
X53858960Y15986668D01*
X53875894Y15988778D01*
X53883570Y15989255D01*
X53886990Y15989255D01*
X53886995Y15989255D01*
X53890563Y15989851D01*
X53908494Y15992842D01*
X53935913Y15996261D01*
X53959348Y15999182D01*
X53959357Y15999187D01*
X53966406Y16001285D01*
X53973332Y16003663D01*
X53973336Y16003663D01*
X54018399Y16028051D01*
X54064439Y16050557D01*
X54064442Y16050561D01*
X54070408Y16054820D01*
X54076209Y16059336D01*
X54076213Y16059337D01*
X54110912Y16097031D01*
X54838046Y16824166D01*
X54857902Y16840289D01*
X54865669Y16845363D01*
X54885873Y16871323D01*
X54890941Y16877061D01*
X54893375Y16879493D01*
X54906044Y16897238D01*
X54937517Y16937674D01*
X54937518Y16937680D01*
X54941017Y16944144D01*
X54944235Y16950729D01*
X54944239Y16950733D01*
X54958858Y16999838D01*
X54975500Y17048312D01*
X54975500Y17048319D01*
X54976706Y17055544D01*
X54977617Y17062848D01*
X54975500Y17114030D01*
X54975500Y18343994D01*
X54978139Y18369440D01*
X54980042Y18378515D01*
X54977782Y18396639D01*
X54975977Y18411132D01*
X54975500Y18418809D01*
X54975500Y18422237D01*
X54975498Y18422250D01*
X54974494Y18428264D01*
X54971910Y18443751D01*
X54965573Y18494593D01*
X54965572Y18494596D01*
X54963518Y18501496D01*
X54963475Y18501621D01*
X54963437Y18501747D01*
X54961092Y18508582D01*
X54936704Y18553645D01*
X54914199Y18599682D01*
X54909919Y18605676D01*
X54905419Y18611457D01*
X54867724Y18646159D01*
X53975837Y19538045D01*
X53959711Y19557902D01*
X53954637Y19565669D01*
X53928687Y19585867D01*
X53922941Y19590941D01*
X53920507Y19593375D01*
X53920506Y19593376D01*
X53920505Y19593377D01*
X53914048Y19597987D01*
X53902761Y19606045D01*
X53862326Y19637517D01*
X53862322Y19637519D01*
X53855848Y19641023D01*
X53849269Y19644240D01*
X53800154Y19658862D01*
X53751686Y19675502D01*
X53744469Y19676706D01*
X53737153Y19677618D01*
X53687925Y19675581D01*
X53685969Y19675500D01*
X50556006Y19675500D01*
X50530561Y19678139D01*
X50521485Y19680042D01*
X50521482Y19680042D01*
X50488868Y19675977D01*
X50481192Y19675500D01*
X50477760Y19675500D01*
X50463419Y19673108D01*
X50456248Y19671911D01*
X50439421Y19669814D01*
X50405407Y19665573D01*
X50405406Y19665573D01*
X50405401Y19665572D01*
X50398375Y19663481D01*
X50391423Y19661094D01*
X50391419Y19661093D01*
X50391419Y19661092D01*
X50360279Y19644240D01*
X50346355Y19636705D01*
X50300312Y19614197D01*
X50294366Y19609952D01*
X50288542Y19605419D01*
X50253842Y19567725D01*
X49561955Y18875839D01*
X49542106Y18859718D01*
X49534331Y18854638D01*
X49514143Y18828702D01*
X49509067Y18822952D01*
X49506634Y18820519D01*
X49506623Y18820506D01*
X49493954Y18802762D01*
X49462483Y18762328D01*
X49458975Y18755847D01*
X49455760Y18749268D01*
X49441138Y18700155D01*
X49424498Y18651684D01*
X49423294Y18644467D01*
X49422382Y18637154D01*
X49424500Y18585970D01*
X49424500Y17489745D01*
X49404815Y17422706D01*
X49388181Y17402064D01*
X49317775Y17331658D01*
X49256452Y17298173D01*
X49186760Y17303157D01*
X49130827Y17345029D01*
X49115533Y17371887D01*
X49080318Y17456904D01*
X49080317Y17456905D01*
X49080317Y17456906D01*
X48984063Y17582347D01*
X48858622Y17678601D01*
X48712543Y17739109D01*
X48712541Y17739110D01*
X48555782Y17759747D01*
X48555780Y17759747D01*
X48399020Y17739110D01*
X48399018Y17739109D01*
X48252941Y17678602D01*
X48127499Y17582347D01*
X48031244Y17456905D01*
X47970737Y17310828D01*
X47970736Y17310826D01*
X47950099Y17154067D01*
X47950099Y17154064D01*
X31850500Y17154064D01*
X31850500Y20816167D01*
X50970624Y20816167D01*
X50980944Y20652140D01*
X51031732Y20495829D01*
X51031734Y20495825D01*
X51119798Y20357060D01*
X51239603Y20244555D01*
X51239611Y20244549D01*
X51319860Y20200432D01*
X51383632Y20165373D01*
X51542823Y20124500D01*
X51542827Y20124500D01*
X52465923Y20124500D01*
X52465925Y20124500D01*
X52465930Y20124501D01*
X52465934Y20124501D01*
X52479174Y20126174D01*
X52588058Y20139929D01*
X52740871Y20200432D01*
X52740878Y20200437D01*
X52873835Y20297035D01*
X52873835Y20297037D01*
X52873837Y20297037D01*
X52978600Y20423674D01*
X53048579Y20572387D01*
X53079376Y20733830D01*
X53074196Y20816167D01*
X54810624Y20816167D01*
X54820944Y20652140D01*
X54871732Y20495829D01*
X54871734Y20495825D01*
X54959798Y20357060D01*
X55079603Y20244555D01*
X55079611Y20244549D01*
X55159860Y20200432D01*
X55223632Y20165373D01*
X55382823Y20124500D01*
X55382827Y20124500D01*
X56505923Y20124500D01*
X56505925Y20124500D01*
X56505930Y20124501D01*
X56505934Y20124501D01*
X56519174Y20126174D01*
X56628058Y20139929D01*
X56780871Y20200432D01*
X56780878Y20200437D01*
X56913835Y20297035D01*
X56913835Y20297037D01*
X56913837Y20297037D01*
X57018600Y20423674D01*
X57088579Y20572387D01*
X57119376Y20733830D01*
X57109056Y20897860D01*
X57058268Y21054171D01*
X56970202Y21192940D01*
X56906281Y21252966D01*
X56850396Y21305446D01*
X56850388Y21305452D01*
X56706371Y21384626D01*
X56706361Y21384629D01*
X56547180Y21425500D01*
X56547177Y21425500D01*
X55424075Y21425500D01*
X55424065Y21425500D01*
X55301942Y21410071D01*
X55301939Y21410071D01*
X55149130Y21349569D01*
X55149121Y21349564D01*
X55016164Y21252966D01*
X55016162Y21252963D01*
X54911400Y21126327D01*
X54841420Y20977613D01*
X54821833Y20874931D01*
X54810624Y20816170D01*
X54810624Y20816168D01*
X54810624Y20816167D01*
X53074196Y20816167D01*
X53069056Y20897860D01*
X53018268Y21054171D01*
X52930202Y21192940D01*
X52866281Y21252966D01*
X52810396Y21305446D01*
X52810388Y21305452D01*
X52666371Y21384626D01*
X52666361Y21384629D01*
X52507180Y21425500D01*
X52507177Y21425500D01*
X51584075Y21425500D01*
X51584065Y21425500D01*
X51461942Y21410071D01*
X51461939Y21410071D01*
X51309130Y21349569D01*
X51309121Y21349564D01*
X51176164Y21252966D01*
X51176162Y21252963D01*
X51071400Y21126327D01*
X51001420Y20977613D01*
X50981833Y20874931D01*
X50970624Y20816170D01*
X50970624Y20816168D01*
X50970624Y20816167D01*
X31850500Y20816167D01*
X31850500Y21499999D01*
X45019318Y21499999D01*
X45039955Y21343240D01*
X45039956Y21343238D01*
X45100464Y21197159D01*
X45196718Y21071718D01*
X45322159Y20975464D01*
X45468238Y20914956D01*
X45546618Y20904637D01*
X45624999Y20894318D01*
X45625000Y20894318D01*
X45625001Y20894318D01*
X45677254Y20901198D01*
X45781762Y20914956D01*
X45927841Y20975464D01*
X46053282Y21071718D01*
X46149536Y21197159D01*
X46210044Y21343238D01*
X46224214Y21450875D01*
X46252479Y21514769D01*
X46259459Y21522357D01*
X49342349Y24605248D01*
X50524500Y24605248D01*
X50536131Y24546771D01*
X50536132Y24546770D01*
X50580447Y24480448D01*
X50646769Y24436133D01*
X50646770Y24436132D01*
X50705247Y24424501D01*
X50705250Y24424500D01*
X50705252Y24424500D01*
X52544750Y24424500D01*
X52544751Y24424501D01*
X52559568Y24427448D01*
X52603229Y24436132D01*
X52603229Y24436133D01*
X52603231Y24436133D01*
X52669552Y24480448D01*
X52713867Y24546769D01*
X52713867Y24546771D01*
X52713868Y24546771D01*
X52722552Y24590432D01*
X52725500Y24605252D01*
X52725500Y24976628D01*
X52745185Y25043667D01*
X52797989Y25089422D01*
X52867147Y25099366D01*
X52930703Y25070341D01*
X52961882Y25029032D01*
X53034864Y24872521D01*
X53034865Y24872519D01*
X53115095Y24757939D01*
X53621185Y25264030D01*
X53682508Y25297515D01*
X53752199Y25292531D01*
X53805813Y25253662D01*
X53855463Y25191402D01*
X53855466Y25191400D01*
X53885678Y25170801D01*
X53929980Y25116772D01*
X53938038Y25047369D01*
X53907295Y24984626D01*
X53903507Y24980667D01*
X53397936Y24475097D01*
X53512517Y24394867D01*
X53718673Y24298735D01*
X53718682Y24298731D01*
X53938389Y24239861D01*
X53938400Y24239859D01*
X54164998Y24220034D01*
X54165002Y24220034D01*
X54391599Y24239859D01*
X54391610Y24239861D01*
X54611317Y24298731D01*
X54611331Y24298736D01*
X54817478Y24394864D01*
X54932062Y24475097D01*
X54427731Y24979427D01*
X54394246Y25040750D01*
X54399230Y25110441D01*
X54431069Y25158005D01*
X54520798Y25241260D01*
X54520802Y25241269D01*
X54526594Y25248528D01*
X54529212Y25246440D01*
X54567699Y25283149D01*
X54636304Y25296384D01*
X54701173Y25270427D01*
X54712219Y25260624D01*
X55214903Y24757938D01*
X55295136Y24872522D01*
X55391264Y25078669D01*
X55391269Y25078683D01*
X55450139Y25298390D01*
X55450141Y25298401D01*
X55469966Y25524998D01*
X55469966Y25525003D01*
X55450141Y25751600D01*
X55450139Y25751611D01*
X55391269Y25971318D01*
X55391265Y25971327D01*
X55295133Y26177483D01*
X55214903Y26292064D01*
X54708813Y25785972D01*
X54647490Y25752487D01*
X54577799Y25757471D01*
X54524185Y25796341D01*
X54474539Y25858596D01*
X54474537Y25858597D01*
X54474536Y25858598D01*
X54474535Y25858599D01*
X54444319Y25879201D01*
X54400018Y25933228D01*
X54391959Y26002632D01*
X54422702Y26065374D01*
X54426491Y26069334D01*
X54932062Y26574905D01*
X54817482Y26655134D01*
X54611326Y26751266D01*
X54611317Y26751270D01*
X54391610Y26810140D01*
X54391599Y26810142D01*
X54165002Y26829966D01*
X54164998Y26829966D01*
X53938400Y26810142D01*
X53938389Y26810140D01*
X53718682Y26751270D01*
X53718673Y26751266D01*
X53512518Y26655135D01*
X53512516Y26655134D01*
X53397937Y26574905D01*
X53397936Y26574905D01*
X53902268Y26070574D01*
X53935753Y26009251D01*
X53930769Y25939560D01*
X53898929Y25891995D01*
X53809202Y25808741D01*
X53803406Y25801472D01*
X53800796Y25803554D01*
X53762225Y25766813D01*
X53693611Y25753626D01*
X53628759Y25779627D01*
X53617780Y25789377D01*
X53115095Y26292064D01*
X53115095Y26292063D01*
X53034866Y26177484D01*
X53034865Y26177482D01*
X52961882Y26020968D01*
X52915710Y25968529D01*
X52848516Y25949377D01*
X52781635Y25969593D01*
X52736300Y26022758D01*
X52725500Y26073373D01*
X52725500Y26219582D01*
X52725500Y26444748D01*
X52721602Y26464345D01*
X52713868Y26503230D01*
X52713867Y26503231D01*
X52669552Y26569553D01*
X52603230Y26613868D01*
X52603229Y26613869D01*
X52544752Y26625500D01*
X52544748Y26625500D01*
X50705252Y26625500D01*
X50705247Y26625500D01*
X50646770Y26613869D01*
X50646769Y26613868D01*
X50580447Y26569553D01*
X50536132Y26503231D01*
X50536131Y26503230D01*
X50524500Y26444753D01*
X50524500Y24605248D01*
X49342349Y24605248D01*
X49798205Y25061104D01*
X49803373Y25065723D01*
X49833970Y25090121D01*
X49867480Y25139272D01*
X49902793Y25187118D01*
X49902794Y25187121D01*
X49906787Y25194676D01*
X49910470Y25202324D01*
X49910470Y25202325D01*
X49910472Y25202327D01*
X49928007Y25259178D01*
X49947646Y25315301D01*
X49947646Y25315302D01*
X49949228Y25323664D01*
X49950500Y25332101D01*
X49950500Y25391559D01*
X49952725Y25451010D01*
X49951685Y25460242D01*
X49952513Y25460336D01*
X49950500Y25475639D01*
X49950500Y25758581D01*
X49970185Y25825620D01*
X49976124Y25834067D01*
X49994948Y25858599D01*
X50024536Y25897159D01*
X50085044Y26043238D01*
X50098802Y26147746D01*
X50105682Y26199999D01*
X50105682Y26200002D01*
X50085044Y26356761D01*
X50085044Y26356762D01*
X50024536Y26502841D01*
X49928282Y26628282D01*
X49802841Y26724536D01*
X49656762Y26785044D01*
X49656760Y26785045D01*
X49500001Y26805682D01*
X49499999Y26805682D01*
X49343239Y26785045D01*
X49343237Y26785044D01*
X49197160Y26724537D01*
X49071718Y26628282D01*
X48975463Y26502840D01*
X48914956Y26356763D01*
X48914955Y26356761D01*
X48894318Y26200002D01*
X48894318Y26199999D01*
X48914955Y26043240D01*
X48914957Y26043235D01*
X48975461Y25897164D01*
X48975464Y25897159D01*
X49023876Y25834067D01*
X49049070Y25768898D01*
X49049500Y25758581D01*
X49049500Y25637966D01*
X49029815Y25570927D01*
X49013181Y25550285D01*
X45589787Y22126892D01*
X45528464Y22093407D01*
X45518292Y22091634D01*
X45488890Y22087763D01*
X45468238Y22085044D01*
X45468237Y22085044D01*
X45322160Y22024537D01*
X45196718Y21928282D01*
X45100463Y21802840D01*
X45039956Y21656763D01*
X45039955Y21656761D01*
X45019318Y21500002D01*
X45019318Y21499999D01*
X31850500Y21499999D01*
X31850500Y24278457D01*
X31870185Y24345496D01*
X31886815Y24366134D01*
X32184558Y24663878D01*
X32245879Y24697361D01*
X32288419Y24699134D01*
X32325000Y24694318D01*
X32481762Y24714956D01*
X32627841Y24775464D01*
X32753282Y24871718D01*
X32849536Y24997159D01*
X32910044Y25143238D01*
X32925866Y25263421D01*
X32930682Y25299999D01*
X32930682Y25300002D01*
X32910044Y25456761D01*
X32910044Y25456762D01*
X32849536Y25602841D01*
X32753282Y25728282D01*
X32627841Y25824536D01*
X32604831Y25834067D01*
X32481762Y25885044D01*
X32481760Y25885045D01*
X32325001Y25905682D01*
X32324999Y25905682D01*
X32168239Y25885045D01*
X32168237Y25885044D01*
X32022160Y25824537D01*
X31896718Y25728282D01*
X31800463Y25602840D01*
X31739956Y25456763D01*
X31739955Y25456761D01*
X31722433Y25323664D01*
X31719318Y25300000D01*
X31719530Y25298390D01*
X31724133Y25263421D01*
X31713365Y25194386D01*
X31688874Y25159558D01*
X31286955Y24757639D01*
X31267106Y24741518D01*
X31259331Y24736438D01*
X31239143Y24710502D01*
X31234067Y24704752D01*
X31231634Y24702319D01*
X31231623Y24702306D01*
X31218954Y24684562D01*
X31187483Y24644128D01*
X31183975Y24637647D01*
X31180760Y24631068D01*
X31168098Y24588538D01*
X31130102Y24529903D01*
X31066437Y24501118D01*
X30997317Y24511323D01*
X30961573Y24536241D01*
X30414050Y25083764D01*
X30380565Y25145087D01*
X30382465Y25205380D01*
X30394742Y25248528D01*
X30401397Y25271917D01*
X30420215Y25475000D01*
X30401397Y25678083D01*
X30345582Y25874250D01*
X30340207Y25885044D01*
X30278360Y26009251D01*
X30254673Y26056821D01*
X30163554Y26177482D01*
X30131762Y26219582D01*
X29981041Y26356981D01*
X29981039Y26356983D01*
X29807642Y26464345D01*
X29807635Y26464349D01*
X29665135Y26519553D01*
X29617456Y26538024D01*
X29416976Y26575500D01*
X29213024Y26575500D01*
X29012544Y26538024D01*
X29012541Y26538024D01*
X29012541Y26538023D01*
X28822364Y26464349D01*
X28822357Y26464345D01*
X28648960Y26356983D01*
X28648958Y26356981D01*
X28498237Y26219582D01*
X28375327Y26056822D01*
X28284422Y25874261D01*
X28284417Y25874248D01*
X28228602Y25678083D01*
X28209785Y25475001D01*
X28209785Y25475000D01*
X27875500Y25475000D01*
X27875500Y26394751D01*
X27875499Y26394753D01*
X27863868Y26453230D01*
X27863867Y26453231D01*
X27819552Y26519553D01*
X27753230Y26563868D01*
X27753229Y26563869D01*
X27694752Y26575500D01*
X27694748Y26575500D01*
X25855252Y26575500D01*
X25855247Y26575500D01*
X25796770Y26563869D01*
X25796769Y26563868D01*
X25730447Y26519553D01*
X25686132Y26453231D01*
X25686131Y26453230D01*
X25674500Y26394753D01*
X25674500Y24555248D01*
X5315554Y24555248D01*
X5322552Y24590432D01*
X5325500Y24605252D01*
X5325500Y26444748D01*
X5325500Y26444749D01*
X5325500Y26444751D01*
X5325499Y26444753D01*
X5313868Y26503230D01*
X5313867Y26503231D01*
X5269552Y26569553D01*
X5203230Y26613868D01*
X5203229Y26613869D01*
X5144752Y26625500D01*
X5144748Y26625500D01*
X3305252Y26625500D01*
X3305247Y26625500D01*
X3246770Y26613869D01*
X3246769Y26613868D01*
X3180447Y26569553D01*
X3136132Y26503231D01*
X3136131Y26503230D01*
X3124500Y26444753D01*
X3124500Y26073373D01*
X3104815Y26006334D01*
X3052011Y25960579D01*
X2982853Y25950635D01*
X2919297Y25979660D01*
X2888118Y26020968D01*
X2815133Y26177483D01*
X2734903Y26292064D01*
X2228813Y25785972D01*
X2167490Y25752487D01*
X2097799Y25757471D01*
X2044185Y25796341D01*
X1994539Y25858596D01*
X1994537Y25858597D01*
X1994536Y25858598D01*
X1994535Y25858599D01*
X1964319Y25879201D01*
X1920018Y25933228D01*
X1911959Y26002632D01*
X1942702Y26065374D01*
X1946491Y26069334D01*
X2452062Y26574905D01*
X2337482Y26655134D01*
X2131326Y26751266D01*
X2131317Y26751270D01*
X1911610Y26810140D01*
X1911599Y26810142D01*
X1685002Y26829966D01*
X1684998Y26829966D01*
X1458400Y26810142D01*
X1458389Y26810140D01*
X1238682Y26751270D01*
X1238673Y26751266D01*
X1032518Y26655135D01*
X1032516Y26655134D01*
X917937Y26574905D01*
X917936Y26574905D01*
X1422268Y26070574D01*
X1455753Y26009251D01*
X1450769Y25939560D01*
X1418929Y25891995D01*
X1329202Y25808741D01*
X1323406Y25801472D01*
X1320796Y25803554D01*
X1282225Y25766813D01*
X1213611Y25753626D01*
X1148759Y25779627D01*
X1137780Y25789377D01*
X635095Y26292064D01*
X635095Y26292063D01*
X554866Y26177484D01*
X554865Y26177482D01*
X458734Y25971327D01*
X458730Y25971318D01*
X399860Y25751611D01*
X399858Y25751600D01*
X380034Y25525003D01*
X380034Y25524998D01*
X-1699500Y25524998D01*
X-1699500Y28899999D01*
X24694318Y28899999D01*
X24714955Y28743240D01*
X24714956Y28743238D01*
X24756376Y28643240D01*
X24775464Y28597159D01*
X24871718Y28471718D01*
X24997159Y28375464D01*
X25143238Y28314956D01*
X25221619Y28304637D01*
X25299999Y28294318D01*
X25300000Y28294318D01*
X25300001Y28294318D01*
X25352254Y28301198D01*
X25456762Y28314956D01*
X25602841Y28375464D01*
X25728282Y28471718D01*
X25750741Y28500989D01*
X25807168Y28542189D01*
X25849116Y28549500D01*
X37024151Y28549500D01*
X37091190Y28529815D01*
X37122527Y28500987D01*
X37125463Y28497161D01*
X37125464Y28497159D01*
X37221718Y28371718D01*
X37347159Y28275464D01*
X37493238Y28214956D01*
X37571618Y28204637D01*
X37649999Y28194318D01*
X37650000Y28194318D01*
X37650001Y28194318D01*
X37702253Y28201198D01*
X37806762Y28214956D01*
X37952841Y28275464D01*
X38078282Y28371718D01*
X38174536Y28497159D01*
X38235044Y28643238D01*
X38255682Y28800000D01*
X38235044Y28956762D01*
X38174536Y29102841D01*
X38078282Y29228282D01*
X37952841Y29324536D01*
X37943797Y29328282D01*
X37806762Y29385044D01*
X37806760Y29385045D01*
X37650001Y29405682D01*
X37649999Y29405682D01*
X37493239Y29385045D01*
X37493237Y29385044D01*
X37347157Y29324536D01*
X37284067Y29276124D01*
X37218898Y29250930D01*
X37208581Y29250500D01*
X25849116Y29250500D01*
X25782077Y29270185D01*
X25750742Y29299011D01*
X25728282Y29328282D01*
X25602841Y29424536D01*
X25456762Y29485044D01*
X25456760Y29485045D01*
X25300001Y29505682D01*
X25299999Y29505682D01*
X25143239Y29485045D01*
X25143237Y29485044D01*
X24997160Y29424537D01*
X24871718Y29328282D01*
X24775463Y29202840D01*
X24714956Y29056763D01*
X24714955Y29056761D01*
X24694318Y28900002D01*
X24694318Y28899999D01*
X-1699500Y28899999D01*
X-1699500Y32699999D01*
X34694318Y32699999D01*
X34714955Y32543240D01*
X34714956Y32543238D01*
X34775464Y32397159D01*
X34871718Y32271718D01*
X34997159Y32175464D01*
X35143238Y32114956D01*
X35221619Y32104637D01*
X35299999Y32094318D01*
X35300000Y32094318D01*
X35300001Y32094318D01*
X35352254Y32101198D01*
X35456762Y32114956D01*
X35602841Y32175464D01*
X35728282Y32271718D01*
X35824536Y32397159D01*
X35885044Y32543238D01*
X35905682Y32700000D01*
X35885044Y32856762D01*
X35825914Y32999513D01*
X35818446Y33068979D01*
X35824636Y33091200D01*
X36190889Y34049999D01*
X37744318Y34049999D01*
X37764955Y33893240D01*
X37764956Y33893238D01*
X37802086Y33803597D01*
X37825464Y33747159D01*
X37921718Y33621718D01*
X38047159Y33525464D01*
X38193238Y33464956D01*
X38271619Y33454637D01*
X38349999Y33444318D01*
X38350000Y33444318D01*
X38350001Y33444318D01*
X38402253Y33451198D01*
X38506762Y33464956D01*
X38652841Y33525464D01*
X38778282Y33621718D01*
X38874536Y33747159D01*
X38935044Y33893238D01*
X38945424Y33972085D01*
X38973688Y34035979D01*
X38980669Y34043567D01*
X40250283Y35313181D01*
X40311607Y35346666D01*
X40337965Y35349500D01*
X45312034Y35349500D01*
X45379073Y35329815D01*
X45399715Y35313181D01*
X46969317Y33743580D01*
X47002802Y33682257D01*
X47004575Y33672085D01*
X47014955Y33593239D01*
X47043029Y33525464D01*
X47075464Y33447159D01*
X47171718Y33321718D01*
X47297159Y33225464D01*
X47443238Y33164956D01*
X47521619Y33154637D01*
X47599999Y33144318D01*
X47600000Y33144318D01*
X47600001Y33144318D01*
X47652254Y33151198D01*
X47756762Y33164956D01*
X47878050Y33215196D01*
X47947516Y33222664D01*
X48009995Y33191389D01*
X48045648Y33131301D01*
X48049500Y33100634D01*
X48049500Y30749117D01*
X48029815Y30682078D01*
X48000987Y30650742D01*
X47971721Y30628286D01*
X47875463Y30502840D01*
X47814956Y30356763D01*
X47814955Y30356761D01*
X47794318Y30200002D01*
X47794318Y30199999D01*
X47814955Y30043240D01*
X47814956Y30043238D01*
X47875464Y29897159D01*
X47971718Y29771718D01*
X48097159Y29675464D01*
X48243238Y29614956D01*
X48321619Y29604637D01*
X48399999Y29594318D01*
X48400000Y29594318D01*
X48400001Y29594318D01*
X48452254Y29601198D01*
X48556762Y29614956D01*
X48702841Y29675464D01*
X48828282Y29771718D01*
X48924536Y29897159D01*
X48985044Y30043238D01*
X49005682Y30200000D01*
X48985044Y30356762D01*
X48924536Y30502841D01*
X48828282Y30628282D01*
X48828279Y30628284D01*
X48828278Y30628286D01*
X48799013Y30650742D01*
X48757811Y30707170D01*
X48750500Y30749117D01*
X48750500Y33961455D01*
X48753139Y33986901D01*
X48755042Y33995976D01*
X48752782Y34014100D01*
X48750977Y34028593D01*
X48750500Y34036270D01*
X48750500Y34039698D01*
X48750498Y34039711D01*
X48749909Y34043238D01*
X48746910Y34061212D01*
X48740573Y34112054D01*
X48740572Y34112057D01*
X48738518Y34118957D01*
X48738475Y34119082D01*
X48738437Y34119208D01*
X48736092Y34126043D01*
X48711704Y34171106D01*
X48689199Y34217143D01*
X48684919Y34223137D01*
X48680419Y34228918D01*
X48642724Y34263620D01*
X45793298Y37113045D01*
X45777172Y37132902D01*
X45772098Y37140669D01*
X45746148Y37160867D01*
X45740402Y37165941D01*
X45737968Y37168375D01*
X45737967Y37168376D01*
X45737966Y37168377D01*
X45731509Y37172987D01*
X45720222Y37181045D01*
X45679787Y37212517D01*
X45679783Y37212519D01*
X45673309Y37216023D01*
X45666730Y37219240D01*
X45617615Y37233862D01*
X45569147Y37250502D01*
X45561930Y37251706D01*
X45554614Y37252618D01*
X45505386Y37250581D01*
X45503430Y37250500D01*
X41249116Y37250500D01*
X41182077Y37270185D01*
X41150742Y37299011D01*
X41128282Y37328282D01*
X41002841Y37424536D01*
X40856762Y37485044D01*
X40856760Y37485045D01*
X40700001Y37505682D01*
X40699999Y37505682D01*
X40543239Y37485045D01*
X40543237Y37485044D01*
X40397160Y37424537D01*
X40271718Y37328282D01*
X40175463Y37202840D01*
X40114956Y37056763D01*
X40114955Y37056761D01*
X40094318Y36900002D01*
X40094318Y36899999D01*
X40114955Y36743240D01*
X40114956Y36743238D01*
X40174888Y36598548D01*
X40175464Y36597159D01*
X40271718Y36471718D01*
X40271720Y36471717D01*
X40271722Y36471714D01*
X40277465Y36465971D01*
X40276185Y36464692D01*
X40311413Y36416445D01*
X40315566Y36346699D01*
X40281353Y36285780D01*
X40219635Y36253028D01*
X40194723Y36250500D01*
X40128783Y36250500D01*
X40121844Y36250890D01*
X40107569Y36252498D01*
X40082964Y36255271D01*
X40024511Y36244211D01*
X39965711Y36235348D01*
X39957556Y36232833D01*
X39949530Y36230025D01*
X39949529Y36230024D01*
X39949527Y36230024D01*
X39949524Y36230022D01*
X39896926Y36202223D01*
X39843358Y36176425D01*
X39836308Y36171620D01*
X39829461Y36166565D01*
X39808437Y36145542D01*
X39787413Y36124517D01*
X39763770Y36102580D01*
X39743803Y36084053D01*
X39738013Y36076792D01*
X39737362Y36077312D01*
X39727967Y36065072D01*
X38343578Y34680683D01*
X38282255Y34647198D01*
X38272084Y34645425D01*
X38193238Y34635044D01*
X38047160Y34574537D01*
X37921718Y34478282D01*
X37825463Y34352840D01*
X37764956Y34206763D01*
X37764955Y34206761D01*
X37744318Y34050002D01*
X37744318Y34049999D01*
X36190889Y34049999D01*
X37967151Y38699999D01*
X43394318Y38699999D01*
X43414955Y38543240D01*
X43414956Y38543238D01*
X43475464Y38397159D01*
X43571718Y38271718D01*
X43697159Y38175464D01*
X43843238Y38114956D01*
X43921619Y38104637D01*
X43999999Y38094318D01*
X44000000Y38094318D01*
X44000001Y38094318D01*
X44052254Y38101198D01*
X44156762Y38114956D01*
X44233992Y38146946D01*
X44310351Y38178574D01*
X44311596Y38175567D01*
X44364662Y38188475D01*
X44401212Y38181147D01*
X54020929Y34682990D01*
X54077205Y34641580D01*
X54101955Y34578611D01*
X54115699Y34439068D01*
X54135134Y34375000D01*
X54175768Y34241046D01*
X54273315Y34058550D01*
X54294763Y34032415D01*
X54404589Y33898590D01*
X54411111Y33893238D01*
X54564550Y33767315D01*
X54747046Y33669768D01*
X54945066Y33609700D01*
X54945065Y33609700D01*
X54963529Y33607882D01*
X55151000Y33589417D01*
X55356934Y33609700D01*
X55554954Y33669768D01*
X55737450Y33767315D01*
X55897410Y33898590D01*
X56028685Y34058550D01*
X56126232Y34241046D01*
X56186300Y34439066D01*
X56206583Y34645000D01*
X56186300Y34850934D01*
X56126232Y35048954D01*
X56028685Y35231450D01*
X55969199Y35303934D01*
X55897410Y35391411D01*
X55737452Y35522683D01*
X55737453Y35522683D01*
X55737450Y35522685D01*
X55554954Y35620232D01*
X55455944Y35650267D01*
X55356932Y35680301D01*
X55288132Y35687077D01*
X55223345Y35713238D01*
X55182986Y35770273D01*
X55176311Y35808044D01*
X55172220Y36016691D01*
X55190586Y36084100D01*
X55242483Y36130881D01*
X55284040Y36142521D01*
X55356934Y36149700D01*
X55554954Y36209768D01*
X55737450Y36307315D01*
X55897410Y36438590D01*
X56028685Y36598550D01*
X56126232Y36781046D01*
X56186300Y36979066D01*
X56206583Y37185000D01*
X56186300Y37390934D01*
X56126232Y37588954D01*
X56028685Y37771450D01*
X55976702Y37834791D01*
X55897410Y37931411D01*
X55737452Y38062683D01*
X55737453Y38062683D01*
X55737450Y38062685D01*
X55554954Y38160232D01*
X55455944Y38190267D01*
X55356932Y38220301D01*
X55238233Y38231992D01*
X55173446Y38258153D01*
X55133087Y38315188D01*
X55126412Y38352964D01*
X55123294Y38511949D01*
X55122513Y38551792D01*
X55140879Y38619203D01*
X55192776Y38665985D01*
X55234334Y38677625D01*
X55356934Y38689700D01*
X55554954Y38749768D01*
X55737450Y38847315D01*
X55897410Y38978590D01*
X56028685Y39138550D01*
X56126232Y39321046D01*
X56186300Y39519066D01*
X56206583Y39725000D01*
X56186300Y39930934D01*
X56126232Y40128954D01*
X56028685Y40311450D01*
X55962620Y40391951D01*
X55897410Y40471411D01*
X55737452Y40602683D01*
X55737453Y40602683D01*
X55737450Y40602685D01*
X55554954Y40700232D01*
X55356934Y40760300D01*
X55356932Y40760301D01*
X55356934Y40760301D01*
X55169463Y40778765D01*
X55151000Y40780583D01*
X55150999Y40780583D01*
X54945067Y40760301D01*
X54747043Y40700231D01*
X54636898Y40641357D01*
X54564550Y40602685D01*
X54564548Y40602684D01*
X54564547Y40602683D01*
X54404589Y40471411D01*
X54273315Y40311452D01*
X54241045Y40251079D01*
X54192082Y40201236D01*
X54123944Y40185776D01*
X54118694Y40186217D01*
X44582233Y41191090D01*
X44517625Y41217691D01*
X44496854Y41238917D01*
X44428282Y41328282D01*
X44302841Y41424536D01*
X44156762Y41485044D01*
X44156760Y41485045D01*
X44000001Y41505682D01*
X43999999Y41505682D01*
X43843239Y41485045D01*
X43843237Y41485044D01*
X43697160Y41424537D01*
X43571718Y41328282D01*
X43475463Y41202840D01*
X43414956Y41056763D01*
X43414955Y41056761D01*
X43394318Y40900002D01*
X43394318Y40899999D01*
X43414955Y40743240D01*
X43414956Y40743238D01*
X43475464Y40597159D01*
X43571718Y40471718D01*
X43602139Y40448376D01*
X43643341Y40391951D01*
X43647496Y40322205D01*
X43613285Y40261284D01*
X43602140Y40251627D01*
X43571721Y40228285D01*
X43571719Y40228284D01*
X43571718Y40228282D01*
X43539102Y40185776D01*
X43475463Y40102840D01*
X43414956Y39956763D01*
X43414955Y39956761D01*
X43394318Y39800002D01*
X43394318Y39799999D01*
X43414955Y39643240D01*
X43414956Y39643238D01*
X43475464Y39497159D01*
X43571718Y39371718D01*
X43602140Y39348375D01*
X43643341Y39291948D01*
X43647496Y39222202D01*
X43613283Y39161281D01*
X43602146Y39151631D01*
X43585100Y39138550D01*
X43571718Y39128282D01*
X43475463Y39002840D01*
X43414956Y38856763D01*
X43414955Y38856761D01*
X43394318Y38700002D01*
X43394318Y38699999D01*
X37967151Y38699999D01*
X38231718Y39392598D01*
X38274028Y39448197D01*
X38300098Y39462907D01*
X38402841Y39505464D01*
X38528282Y39601718D01*
X38624536Y39727159D01*
X38685044Y39873238D01*
X38705682Y40030000D01*
X38701773Y40059689D01*
X38685044Y40186761D01*
X38685044Y40186762D01*
X38624536Y40332841D01*
X38528282Y40458282D01*
X38402841Y40554536D01*
X38256762Y40615044D01*
X38256760Y40615045D01*
X38100001Y40635682D01*
X38099999Y40635682D01*
X37943239Y40615045D01*
X37943237Y40615044D01*
X37797160Y40554537D01*
X37671718Y40458282D01*
X37575463Y40332840D01*
X37514956Y40186763D01*
X37514955Y40186761D01*
X37494318Y40030002D01*
X37494318Y40029999D01*
X37514955Y39873240D01*
X37514956Y39873238D01*
X37574083Y39730493D01*
X37581552Y39661023D01*
X37575358Y39638791D01*
X35168280Y33337404D01*
X35125969Y33281803D01*
X35099897Y33267092D01*
X34997160Y33224537D01*
X34871718Y33128282D01*
X34775463Y33002840D01*
X34714956Y32856763D01*
X34714955Y32856761D01*
X34694318Y32700002D01*
X34694318Y32699999D01*
X-1699500Y32699999D01*
X-1699500Y34924995D01*
X1570202Y34924995D01*
X1589361Y34693782D01*
X1646317Y34468865D01*
X1739516Y34256391D01*
X1851754Y34084598D01*
X2358545Y34591390D01*
X2419868Y34624875D01*
X2489559Y34619891D01*
X2536849Y34588346D01*
X2576334Y34546069D01*
X2624638Y34494348D01*
X2624641Y34494346D01*
X2629746Y34490192D01*
X2669323Y34432613D01*
X2671489Y34362777D01*
X2639167Y34306327D01*
X2136438Y33803599D01*
X2136439Y33803597D01*
X2206646Y33748952D01*
X2410697Y33638524D01*
X2410706Y33638521D01*
X2630139Y33563189D01*
X2858993Y33525000D01*
X3091007Y33525000D01*
X3319860Y33563189D01*
X3539293Y33638521D01*
X3539301Y33638524D01*
X3743355Y33748953D01*
X3743356Y33748954D01*
X3813559Y33803597D01*
X3813560Y33803598D01*
X3307155Y34310002D01*
X3273670Y34371325D01*
X3278654Y34441016D01*
X3316579Y34493869D01*
X3380739Y34546066D01*
X3401792Y34575892D01*
X3456531Y34619309D01*
X3526056Y34626240D01*
X3588292Y34594482D01*
X3590777Y34592065D01*
X4098244Y34084598D01*
X4210482Y34256389D01*
X4303682Y34468865D01*
X4360638Y34693782D01*
X4379798Y34924995D01*
X8070202Y34924995D01*
X8089361Y34693782D01*
X8146317Y34468865D01*
X8239516Y34256391D01*
X8351754Y34084598D01*
X8858545Y34591390D01*
X8919868Y34624875D01*
X8989559Y34619891D01*
X9036849Y34588346D01*
X9076334Y34546069D01*
X9124638Y34494348D01*
X9124641Y34494346D01*
X9129746Y34490192D01*
X9169323Y34432613D01*
X9171489Y34362777D01*
X9139167Y34306327D01*
X8636438Y33803599D01*
X8636439Y33803597D01*
X8706646Y33748952D01*
X8910697Y33638524D01*
X8910706Y33638521D01*
X9130139Y33563189D01*
X9358993Y33525000D01*
X9591007Y33525000D01*
X9819860Y33563189D01*
X10039293Y33638521D01*
X10039301Y33638524D01*
X10243355Y33748953D01*
X10243356Y33748954D01*
X10313559Y33803597D01*
X10313560Y33803598D01*
X9807155Y34310002D01*
X9773670Y34371325D01*
X9778654Y34441016D01*
X9816579Y34493869D01*
X9880739Y34546066D01*
X9901792Y34575892D01*
X9956531Y34619309D01*
X10026056Y34626240D01*
X10088292Y34594482D01*
X10090777Y34592065D01*
X10598244Y34084598D01*
X10673640Y34199999D01*
X30219318Y34199999D01*
X30239955Y34043240D01*
X30239956Y34043238D01*
X30300464Y33897159D01*
X30396718Y33771718D01*
X30522159Y33675464D01*
X30668238Y33614956D01*
X30746618Y33604637D01*
X30824999Y33594318D01*
X30825000Y33594318D01*
X30825001Y33594318D01*
X30877253Y33601198D01*
X30981762Y33614956D01*
X31127841Y33675464D01*
X31253282Y33771718D01*
X31349536Y33897159D01*
X31410044Y34043238D01*
X31430682Y34200000D01*
X31425278Y34241044D01*
X31410043Y34356763D01*
X31410043Y34356764D01*
X31410043Y34356766D01*
X31407940Y34364616D01*
X31410443Y34365287D01*
X31404350Y34421936D01*
X31422982Y34468372D01*
X34840064Y39630502D01*
X34893481Y39675535D01*
X34927271Y39684992D01*
X35006762Y39695456D01*
X35152841Y39755964D01*
X35278282Y39852218D01*
X35374536Y39977659D01*
X35435044Y40123738D01*
X35449987Y40237239D01*
X35455682Y40280499D01*
X35455682Y40280502D01*
X35435044Y40437261D01*
X35435044Y40437262D01*
X35374536Y40583341D01*
X35278282Y40708782D01*
X35152841Y40805036D01*
X35006762Y40865544D01*
X35006760Y40865545D01*
X34850001Y40886182D01*
X34849999Y40886182D01*
X34693239Y40865545D01*
X34693237Y40865544D01*
X34547160Y40805037D01*
X34421718Y40708782D01*
X34325463Y40583340D01*
X34264956Y40437263D01*
X34264955Y40437261D01*
X34244318Y40280502D01*
X34244318Y40280499D01*
X34264955Y40123740D01*
X34267060Y40115887D01*
X34264555Y40115217D01*
X34270648Y40058561D01*
X34252017Y40012131D01*
X30834936Y34850003D01*
X30781517Y34804967D01*
X30747723Y34795509D01*
X30682908Y34786976D01*
X30668238Y34785044D01*
X30668237Y34785044D01*
X30522160Y34724537D01*
X30396718Y34628282D01*
X30300463Y34502840D01*
X30239956Y34356763D01*
X30239955Y34356761D01*
X30219318Y34200002D01*
X30219318Y34199999D01*
X10673640Y34199999D01*
X10710482Y34256389D01*
X10803682Y34468865D01*
X10860638Y34693782D01*
X10879798Y34924995D01*
X10879798Y34925006D01*
X10860638Y35156219D01*
X10803682Y35381136D01*
X10710484Y35593607D01*
X10598244Y35765404D01*
X10091453Y35258612D01*
X10030130Y35225127D01*
X9960438Y35230111D01*
X9913149Y35261656D01*
X9825363Y35355651D01*
X9820253Y35359808D01*
X9780674Y35417386D01*
X9778508Y35487223D01*
X9810830Y35543675D01*
X10313559Y36046404D01*
X10313559Y36046405D01*
X10243353Y36101049D01*
X10039302Y36211477D01*
X10039293Y36211480D01*
X9819860Y36286812D01*
X9591007Y36325000D01*
X9358993Y36325000D01*
X9130139Y36286812D01*
X8910706Y36211480D01*
X8910697Y36211477D01*
X8706650Y36101052D01*
X8636439Y36046405D01*
X8636439Y36046404D01*
X9142844Y35539999D01*
X9176329Y35478676D01*
X9171345Y35408984D01*
X9133419Y35356131D01*
X9069261Y35303934D01*
X9069260Y35303933D01*
X9069258Y35303931D01*
X9069255Y35303928D01*
X9048204Y35274106D01*
X8993461Y35230690D01*
X8923936Y35223762D01*
X8861702Y35255523D01*
X8859221Y35257936D01*
X8351753Y35765404D01*
X8239516Y35593610D01*
X8146317Y35381136D01*
X8089361Y35156219D01*
X8070202Y34925006D01*
X8070202Y34924995D01*
X4379798Y34924995D01*
X4379798Y34925006D01*
X4360638Y35156219D01*
X4303682Y35381136D01*
X4210484Y35593607D01*
X4098244Y35765404D01*
X3591453Y35258612D01*
X3530130Y35225127D01*
X3460438Y35230111D01*
X3413149Y35261656D01*
X3325363Y35355651D01*
X3320253Y35359808D01*
X3280674Y35417386D01*
X3278508Y35487223D01*
X3310830Y35543675D01*
X3813559Y36046404D01*
X3813559Y36046405D01*
X3743353Y36101049D01*
X3539302Y36211477D01*
X3539293Y36211480D01*
X3319860Y36286812D01*
X3091007Y36325000D01*
X2858993Y36325000D01*
X2630139Y36286812D01*
X2410706Y36211480D01*
X2410697Y36211477D01*
X2206650Y36101052D01*
X2136439Y36046405D01*
X2136439Y36046404D01*
X2642844Y35539999D01*
X2676329Y35478676D01*
X2671345Y35408984D01*
X2633419Y35356131D01*
X2569261Y35303934D01*
X2569260Y35303933D01*
X2569258Y35303931D01*
X2569255Y35303928D01*
X2548204Y35274106D01*
X2493461Y35230690D01*
X2423936Y35223762D01*
X2361702Y35255523D01*
X2359221Y35257936D01*
X1851753Y35765404D01*
X1739516Y35593610D01*
X1646317Y35381136D01*
X1589361Y35156219D01*
X1570202Y34925006D01*
X1570202Y34924995D01*
X-1699500Y34924995D01*
X-1699500Y37999999D01*
X30794318Y37999999D01*
X30814955Y37843240D01*
X30814956Y37843238D01*
X30875464Y37697159D01*
X30971718Y37571718D01*
X31097159Y37475464D01*
X31243238Y37414956D01*
X31321619Y37404637D01*
X31399999Y37394318D01*
X31400000Y37394318D01*
X31400001Y37394318D01*
X31452253Y37401198D01*
X31556762Y37414956D01*
X31702841Y37475464D01*
X31828282Y37571718D01*
X31924536Y37697159D01*
X31985044Y37843238D01*
X32005682Y38000000D01*
X31997429Y38062685D01*
X31985044Y38156761D01*
X31985044Y38156762D01*
X31974315Y38182662D01*
X31966847Y38252131D01*
X31971807Y38270988D01*
X33169240Y41699999D01*
X49244318Y41699999D01*
X49264955Y41543240D01*
X49264956Y41543239D01*
X49264956Y41543238D01*
X49325464Y41397159D01*
X49421718Y41271718D01*
X49547159Y41175464D01*
X49693238Y41114956D01*
X49752797Y41107115D01*
X49849999Y41094318D01*
X49850000Y41094318D01*
X49850001Y41094318D01*
X49947203Y41107115D01*
X50006762Y41114956D01*
X50152841Y41175464D01*
X50278282Y41271718D01*
X50374536Y41397159D01*
X50435044Y41543238D01*
X50440426Y41584127D01*
X50468691Y41648022D01*
X50500690Y41674936D01*
X51166625Y42065000D01*
X53913723Y42065000D01*
X53915288Y42047113D01*
X53915288Y42047109D01*
X53971894Y41835850D01*
X53971898Y41835841D01*
X54064333Y41637613D01*
X54189787Y41458446D01*
X54344445Y41303788D01*
X54523612Y41178334D01*
X54721840Y41085899D01*
X54721849Y41085895D01*
X54933110Y41029289D01*
X54951000Y41027724D01*
X54951000Y41645511D01*
X54970685Y41712550D01*
X55023489Y41758305D01*
X55092643Y41768249D01*
X55115237Y41765000D01*
X55115238Y41765000D01*
X55186762Y41765000D01*
X55186763Y41765000D01*
X55209351Y41768248D01*
X55278508Y41758307D01*
X55331313Y41712554D01*
X55351000Y41645515D01*
X55351000Y41027724D01*
X55368887Y41029289D01*
X55368891Y41029289D01*
X55580150Y41085895D01*
X55580159Y41085899D01*
X55778387Y41178334D01*
X55957554Y41303788D01*
X56112212Y41458446D01*
X56237666Y41637613D01*
X56330101Y41835841D01*
X56330105Y41835850D01*
X56386711Y42047109D01*
X56386711Y42047113D01*
X56388277Y42065000D01*
X55775000Y42065000D01*
X55707961Y42084685D01*
X55662206Y42137489D01*
X55651000Y42189000D01*
X55651000Y42341000D01*
X55670685Y42408039D01*
X55723489Y42453794D01*
X55775000Y42465000D01*
X56388276Y42465000D01*
X56386711Y42482888D01*
X56386711Y42482892D01*
X56330105Y42694151D01*
X56330101Y42694160D01*
X56237666Y42892388D01*
X56237664Y42892392D01*
X56112216Y43071550D01*
X56112211Y43071556D01*
X55957554Y43226213D01*
X55778387Y43351667D01*
X55580159Y43444102D01*
X55580150Y43444106D01*
X55368889Y43500712D01*
X55351000Y43502278D01*
X55351000Y42884490D01*
X55331315Y42817451D01*
X55278511Y42771696D01*
X55209354Y42761752D01*
X55186764Y42765000D01*
X55186763Y42765000D01*
X55115237Y42765000D01*
X55115235Y42765000D01*
X55092646Y42761752D01*
X55023488Y42771696D01*
X54970684Y42817451D01*
X54951000Y42884490D01*
X54951000Y43502278D01*
X54933110Y43500712D01*
X54721849Y43444106D01*
X54721840Y43444102D01*
X54523612Y43351667D01*
X54523608Y43351665D01*
X54344450Y43226217D01*
X54344444Y43226212D01*
X54189788Y43071556D01*
X54189783Y43071550D01*
X54064335Y42892392D01*
X54064333Y42892388D01*
X53971898Y42694160D01*
X53971894Y42694151D01*
X53915288Y42482892D01*
X53915288Y42482888D01*
X53913723Y42465000D01*
X54527000Y42465000D01*
X54594039Y42445315D01*
X54639794Y42392511D01*
X54651000Y42341000D01*
X54651000Y42189000D01*
X54631315Y42121961D01*
X54578511Y42076206D01*
X54527000Y42065000D01*
X53913723Y42065000D01*
X51166625Y42065000D01*
X54399003Y43958328D01*
X54466798Y43975225D01*
X54532967Y43952787D01*
X54540339Y43947184D01*
X54564550Y43927315D01*
X54747046Y43829768D01*
X54945066Y43769700D01*
X54945065Y43769700D01*
X54963529Y43767882D01*
X55151000Y43749417D01*
X55356934Y43769700D01*
X55554954Y43829768D01*
X55737450Y43927315D01*
X55897410Y44058590D01*
X56028685Y44218550D01*
X56126232Y44401046D01*
X56186300Y44599066D01*
X56206583Y44805000D01*
X56186300Y45010934D01*
X56126232Y45208954D01*
X56028685Y45391450D01*
X55976702Y45454791D01*
X55897410Y45551411D01*
X55737452Y45682683D01*
X55737453Y45682683D01*
X55737450Y45682685D01*
X55554954Y45780232D01*
X55356934Y45840300D01*
X55356932Y45840301D01*
X55356934Y45840301D01*
X55151000Y45860583D01*
X54945067Y45840301D01*
X54747043Y45780231D01*
X54637577Y45721719D01*
X54564550Y45682685D01*
X54564548Y45682684D01*
X54564547Y45682683D01*
X54404589Y45551411D01*
X54278000Y45397159D01*
X54273315Y45391450D01*
X54240398Y45329867D01*
X54175767Y45208953D01*
X54147285Y45115062D01*
X54119855Y45067075D01*
X54057517Y44999358D01*
X54010528Y44892236D01*
X54010527Y44892233D01*
X54010527Y44892232D01*
X54009441Y44879121D01*
X54000868Y44775656D01*
X54030505Y44658622D01*
X54027880Y44588802D01*
X53987923Y44531484D01*
X53972971Y44521186D01*
X50146970Y42280148D01*
X50079174Y42263250D01*
X50036846Y42272583D01*
X50006765Y42285043D01*
X50006760Y42285045D01*
X49850001Y42305682D01*
X49849999Y42305682D01*
X49693239Y42285045D01*
X49693237Y42285044D01*
X49547160Y42224537D01*
X49421718Y42128282D01*
X49325463Y42002840D01*
X49264956Y41856763D01*
X49264955Y41856761D01*
X49244318Y41700002D01*
X49244318Y41699999D01*
X33169240Y41699999D01*
X33878567Y43731252D01*
X33919251Y43788050D01*
X33920053Y43788672D01*
X34028282Y43871718D01*
X34124536Y43997159D01*
X34185044Y44143238D01*
X34205682Y44300000D01*
X34185044Y44456762D01*
X34124536Y44602841D01*
X34028282Y44728282D01*
X33902841Y44824536D01*
X33756762Y44885044D01*
X33756760Y44885045D01*
X33600001Y44905682D01*
X33599999Y44905682D01*
X33443239Y44885045D01*
X33443237Y44885044D01*
X33297160Y44824537D01*
X33171718Y44728282D01*
X33075463Y44602840D01*
X33014956Y44456763D01*
X33014955Y44456761D01*
X32994318Y44300002D01*
X32994318Y44299999D01*
X33014955Y44143241D01*
X33025684Y44117338D01*
X33033150Y44047869D01*
X33028188Y44029008D01*
X31121431Y38568750D01*
X31080746Y38511949D01*
X31079851Y38511255D01*
X30971718Y38428282D01*
X30875463Y38302840D01*
X30814956Y38156763D01*
X30814955Y38156761D01*
X30794318Y38000002D01*
X30794318Y37999999D01*
X-1699500Y37999999D01*
X-1699500Y39425000D01*
X1769357Y39425000D01*
X1789884Y39203465D01*
X1789885Y39203463D01*
X1850769Y38989477D01*
X1850775Y38989462D01*
X1949938Y38790317D01*
X1949943Y38790309D01*
X2084020Y38612762D01*
X2248437Y38462877D01*
X2248439Y38462875D01*
X2437595Y38345755D01*
X2437596Y38345755D01*
X2437599Y38345753D01*
X2645060Y38265382D01*
X2863757Y38224500D01*
X2863759Y38224500D01*
X3086241Y38224500D01*
X3086243Y38224500D01*
X3304940Y38265382D01*
X3512401Y38345753D01*
X3701562Y38462876D01*
X3865981Y38612764D01*
X4000058Y38790311D01*
X4099229Y38989472D01*
X4160115Y39203464D01*
X4180643Y39425000D01*
X8269357Y39425000D01*
X8289884Y39203465D01*
X8289885Y39203463D01*
X8350769Y38989477D01*
X8350775Y38989462D01*
X8449938Y38790317D01*
X8449943Y38790309D01*
X8584020Y38612762D01*
X8748437Y38462877D01*
X8748439Y38462875D01*
X8937595Y38345755D01*
X8937596Y38345755D01*
X8937599Y38345753D01*
X9145060Y38265382D01*
X9363757Y38224500D01*
X9363759Y38224500D01*
X9586241Y38224500D01*
X9586243Y38224500D01*
X9804940Y38265382D01*
X10012401Y38345753D01*
X10201562Y38462876D01*
X10365981Y38612764D01*
X10500058Y38790311D01*
X10554676Y38899999D01*
X22244318Y38899999D01*
X22264955Y38743240D01*
X22264956Y38743238D01*
X22325464Y38597159D01*
X22421718Y38471718D01*
X22547159Y38375464D01*
X22693238Y38314956D01*
X22771618Y38304637D01*
X22849999Y38294318D01*
X22850000Y38294318D01*
X22850001Y38294318D01*
X22914739Y38302841D01*
X23006762Y38314956D01*
X23152841Y38375464D01*
X23278282Y38471718D01*
X23300741Y38500989D01*
X23357168Y38542189D01*
X23399116Y38549500D01*
X25411450Y38549500D01*
X25436895Y38546862D01*
X25445976Y38544957D01*
X25461666Y38546913D01*
X25478600Y38549023D01*
X25486276Y38549500D01*
X25489696Y38549500D01*
X25489701Y38549500D01*
X25493269Y38550096D01*
X25511200Y38553087D01*
X25538619Y38556506D01*
X25562054Y38559427D01*
X25562063Y38559432D01*
X25569112Y38561530D01*
X25576038Y38563908D01*
X25576042Y38563908D01*
X25621105Y38588296D01*
X25667145Y38610802D01*
X25667148Y38610806D01*
X25673114Y38615065D01*
X25678915Y38619581D01*
X25678919Y38619582D01*
X25713618Y38657276D01*
X28114341Y41058000D01*
X28175664Y41091484D01*
X28191944Y41093235D01*
X28191942Y41093257D01*
X28297203Y41107115D01*
X28356762Y41114956D01*
X28502841Y41175464D01*
X28628282Y41271718D01*
X28724536Y41397159D01*
X28785044Y41543238D01*
X28805682Y41700000D01*
X28785044Y41856762D01*
X28724536Y42002841D01*
X28628282Y42128282D01*
X28502841Y42224536D01*
X28502626Y42224625D01*
X28356762Y42285044D01*
X28356760Y42285045D01*
X28200001Y42305682D01*
X28199999Y42305682D01*
X28043239Y42285045D01*
X28043237Y42285044D01*
X27897157Y42224536D01*
X27775486Y42131174D01*
X27710317Y42105980D01*
X27641872Y42120019D01*
X27624514Y42131174D01*
X27502842Y42224536D01*
X27356762Y42285044D01*
X27356760Y42285045D01*
X27200001Y42305682D01*
X27199999Y42305682D01*
X27043239Y42285045D01*
X27043237Y42285044D01*
X26897160Y42224537D01*
X26771718Y42128282D01*
X26675463Y42002840D01*
X26614956Y41856763D01*
X26614955Y41856761D01*
X26595970Y41712550D01*
X26594318Y41700000D01*
X26596927Y41680176D01*
X26599133Y41663421D01*
X26588365Y41594386D01*
X26563874Y41559558D01*
X25291137Y40286819D01*
X25229814Y40253334D01*
X25203456Y40250500D01*
X23399116Y40250500D01*
X23332077Y40270185D01*
X23300742Y40299011D01*
X23278282Y40328282D01*
X23152841Y40424536D01*
X23122120Y40437261D01*
X23006762Y40485044D01*
X23006760Y40485045D01*
X22850001Y40505682D01*
X22849999Y40505682D01*
X22693239Y40485045D01*
X22693237Y40485044D01*
X22547160Y40424537D01*
X22421718Y40328282D01*
X22325463Y40202840D01*
X22264956Y40056763D01*
X22264955Y40056761D01*
X22244318Y39900002D01*
X22244318Y39899999D01*
X22264955Y39743240D01*
X22264956Y39743238D01*
X22325464Y39597158D01*
X22418826Y39475486D01*
X22444020Y39410317D01*
X22429981Y39341872D01*
X22418826Y39324514D01*
X22325464Y39202843D01*
X22264956Y39056763D01*
X22264955Y39056761D01*
X22244318Y38900002D01*
X22244318Y38899999D01*
X10554676Y38899999D01*
X10599229Y38989472D01*
X10660115Y39203464D01*
X10680643Y39425000D01*
X10671926Y39519068D01*
X10660115Y39646536D01*
X10660114Y39646538D01*
X10651271Y39677617D01*
X10599229Y39860528D01*
X10599224Y39860539D01*
X10500061Y40059684D01*
X10500056Y40059692D01*
X10365979Y40237239D01*
X10201562Y40387124D01*
X10201560Y40387126D01*
X10012404Y40504246D01*
X10012398Y40504248D01*
X9804940Y40584618D01*
X9586243Y40625500D01*
X9363757Y40625500D01*
X9145060Y40584618D01*
X9067410Y40554536D01*
X8937601Y40504248D01*
X8937595Y40504246D01*
X8748439Y40387126D01*
X8748437Y40387124D01*
X8584020Y40237239D01*
X8449943Y40059692D01*
X8449938Y40059684D01*
X8350775Y39860539D01*
X8350769Y39860524D01*
X8289885Y39646538D01*
X8289884Y39646536D01*
X8269357Y39425001D01*
X8269357Y39425000D01*
X4180643Y39425000D01*
X4171926Y39519068D01*
X4160115Y39646536D01*
X4160114Y39646538D01*
X4151271Y39677617D01*
X4099229Y39860528D01*
X4099224Y39860539D01*
X4000061Y40059684D01*
X4000056Y40059692D01*
X3865979Y40237239D01*
X3701562Y40387124D01*
X3701560Y40387126D01*
X3512404Y40504246D01*
X3512398Y40504248D01*
X3304940Y40584618D01*
X3086243Y40625500D01*
X2863757Y40625500D01*
X2645060Y40584618D01*
X2567410Y40554536D01*
X2437601Y40504248D01*
X2437595Y40504246D01*
X2248439Y40387126D01*
X2248437Y40387124D01*
X2084020Y40237239D01*
X1949943Y40059692D01*
X1949938Y40059684D01*
X1850775Y39860539D01*
X1850769Y39860524D01*
X1789885Y39646538D01*
X1789884Y39646536D01*
X1769357Y39425001D01*
X1769357Y39425000D01*
X-1699500Y39425000D01*
X-1699500Y55937371D01*
X-554283Y55937371D01*
X-524108Y55688850D01*
X-454460Y55448399D01*
X-347140Y55222225D01*
X-274059Y55116350D01*
X-204932Y55016203D01*
X-31516Y54835659D01*
X168615Y54685270D01*
X390279Y54568931D01*
X627734Y54489657D01*
X627737Y54489657D01*
X627739Y54489656D01*
X874828Y54449500D01*
X874831Y54449500D01*
X1062482Y54449500D01*
X1156004Y54457050D01*
X1249527Y54464600D01*
X1492591Y54524510D01*
X1722897Y54622634D01*
X1934481Y54756432D01*
X2121862Y54922437D01*
X2280188Y55116350D01*
X2405357Y55333150D01*
X2494128Y55567220D01*
X2544202Y55812500D01*
X2549513Y55944297D01*
X2554282Y56062629D01*
X2554282Y56062635D01*
X2524107Y56311151D01*
X2488876Y56432780D01*
X2454459Y56551604D01*
X2347141Y56777772D01*
X2347140Y56777773D01*
X2347139Y56777776D01*
X2204933Y56983795D01*
X2204932Y56983797D01*
X2031516Y57164341D01*
X1831385Y57314730D01*
X1831383Y57314731D01*
X1831382Y57314732D01*
X1609726Y57431067D01*
X1609722Y57431069D01*
X1609721Y57431069D01*
X1372266Y57510343D01*
X1372265Y57510344D01*
X1372260Y57510345D01*
X1125172Y57550500D01*
X1125169Y57550500D01*
X937519Y57550500D01*
X937518Y57550500D01*
X750473Y57535401D01*
X507411Y57475491D01*
X277106Y57377368D01*
X65514Y57243565D01*
X-121857Y57077569D01*
X-280191Y56883647D01*
X-405357Y56666852D01*
X-494129Y56432778D01*
X-544202Y56187507D01*
X-544203Y56187497D01*
X-554283Y55937372D01*
X-554283Y55937371D01*
X-1699500Y55937371D01*
X-1699500Y57799999D01*
X4394318Y57799999D01*
X4414955Y57643240D01*
X4414957Y57643235D01*
X4475461Y57497164D01*
X4479526Y57490124D01*
X4477783Y57489118D01*
X4499069Y57434068D01*
X4499500Y57423743D01*
X4499500Y47967142D01*
X4496667Y47940794D01*
X4495641Y47936073D01*
X4495641Y47936071D01*
X4495641Y47936070D01*
X4499342Y47884331D01*
X4499500Y47879906D01*
X4499500Y47864201D01*
X4501734Y47848657D01*
X4502207Y47844260D01*
X4505909Y47792515D01*
X4507593Y47788000D01*
X4514148Y47762318D01*
X4514834Y47757545D01*
X4514835Y47757543D01*
X4536383Y47710358D01*
X4538071Y47706284D01*
X4556203Y47657671D01*
X4559096Y47653806D01*
X4572617Y47631017D01*
X4574619Y47626633D01*
X4574622Y47626629D01*
X4574623Y47626627D01*
X4608598Y47587417D01*
X4611362Y47583987D01*
X4620775Y47571412D01*
X4620782Y47571404D01*
X4631886Y47560300D01*
X4634896Y47557068D01*
X4662810Y47524853D01*
X4668871Y47517858D01*
X4668874Y47517855D01*
X4672928Y47515250D01*
X4693571Y47498615D01*
X9848614Y42343572D01*
X9865246Y42322934D01*
X9867854Y42318875D01*
X9867857Y42318872D01*
X9907067Y42284897D01*
X9910283Y42281903D01*
X9921407Y42270779D01*
X9921412Y42270776D01*
X9921417Y42270771D01*
X9933979Y42261367D01*
X9937427Y42258589D01*
X9967947Y42232144D01*
X9976627Y42224623D01*
X9981010Y42222621D01*
X10003807Y42209095D01*
X10007669Y42206204D01*
X10056295Y42188068D01*
X10060351Y42186388D01*
X10082457Y42176292D01*
X10107540Y42164836D01*
X10107541Y42164836D01*
X10107543Y42164835D01*
X10112312Y42164150D01*
X10138002Y42157593D01*
X10142517Y42155909D01*
X10194258Y42152209D01*
X10198657Y42151736D01*
X10214201Y42149500D01*
X10229906Y42149500D01*
X10234328Y42149343D01*
X10286073Y42145641D01*
X10290784Y42146666D01*
X10317143Y42149500D01*
X12623743Y42149500D01*
X12690782Y42129815D01*
X12696099Y42126076D01*
X12697157Y42125466D01*
X12697159Y42125464D01*
X12697160Y42125464D01*
X12697163Y42125462D01*
X12710304Y42120019D01*
X12843238Y42064956D01*
X12917677Y42055156D01*
X12999999Y42044318D01*
X13000000Y42044318D01*
X13000001Y42044318D01*
X13082323Y42055156D01*
X13156762Y42064956D01*
X13302841Y42125464D01*
X13428282Y42221718D01*
X13524536Y42347159D01*
X13585044Y42493238D01*
X13605682Y42650000D01*
X13599869Y42694151D01*
X13590542Y42765000D01*
X13585044Y42806762D01*
X13524536Y42952841D01*
X13428282Y43078282D01*
X13302841Y43174536D01*
X13273187Y43186819D01*
X13156762Y43235044D01*
X13156760Y43235045D01*
X13000001Y43255682D01*
X12999999Y43255682D01*
X12843239Y43235045D01*
X12843234Y43235043D01*
X12697163Y43174539D01*
X12690124Y43170474D01*
X12689117Y43172217D01*
X12634068Y43150931D01*
X12623743Y43150500D01*
X10508676Y43150500D01*
X10441637Y43170185D01*
X10420995Y43186819D01*
X5536819Y48070995D01*
X5503334Y48132318D01*
X5500500Y48158676D01*
X5500500Y48499999D01*
X14544318Y48499999D01*
X14564955Y48343240D01*
X14564956Y48343238D01*
X14625464Y48197159D01*
X14721718Y48071718D01*
X14847159Y47975464D01*
X14993238Y47914956D01*
X15071619Y47904637D01*
X15149999Y47894318D01*
X15150000Y47894318D01*
X15150001Y47894318D01*
X15189190Y47899478D01*
X15306762Y47914956D01*
X15321359Y47921003D01*
X15390823Y47928474D01*
X15411843Y47922737D01*
X20260691Y46128282D01*
X20924117Y45882762D01*
X20979455Y45841958D01*
X21071718Y45721718D01*
X21197159Y45625464D01*
X21343238Y45564956D01*
X21421619Y45554637D01*
X21499999Y45544318D01*
X21500000Y45544318D01*
X21500001Y45544318D01*
X21553877Y45551411D01*
X21656762Y45564956D01*
X21802841Y45625464D01*
X21928282Y45721718D01*
X22024536Y45847159D01*
X22085044Y45993238D01*
X22102823Y46128285D01*
X22105682Y46149999D01*
X22105682Y46150002D01*
X22085044Y46306761D01*
X22085044Y46306762D01*
X22024536Y46452841D01*
X21928282Y46578282D01*
X21802841Y46674536D01*
X21656762Y46735044D01*
X21656760Y46735045D01*
X21500001Y46755682D01*
X21499999Y46755682D01*
X21343236Y46735044D01*
X21328635Y46728996D01*
X21259165Y46721530D01*
X21238149Y46727267D01*
X15725882Y48767239D01*
X15670544Y48808043D01*
X15578282Y48928282D01*
X15452841Y49024536D01*
X15306762Y49085044D01*
X15306760Y49085045D01*
X15150001Y49105682D01*
X15149999Y49105682D01*
X14993239Y49085045D01*
X14993237Y49085044D01*
X14847160Y49024537D01*
X14721718Y48928282D01*
X14625463Y48802840D01*
X14564956Y48656763D01*
X14564955Y48656761D01*
X14544318Y48500002D01*
X14544318Y48499999D01*
X5500500Y48499999D01*
X5500500Y57423743D01*
X5520185Y57490782D01*
X5523924Y57496100D01*
X5524532Y57497155D01*
X5524536Y57497159D01*
X5585044Y57643238D01*
X5605682Y57800000D01*
X5604363Y57810016D01*
X5585044Y57956761D01*
X5585044Y57956762D01*
X5524536Y58102841D01*
X5428282Y58228282D01*
X5302841Y58324536D01*
X5257690Y58343238D01*
X5156762Y58385044D01*
X5156760Y58385045D01*
X5000001Y58405682D01*
X4999999Y58405682D01*
X4843239Y58385045D01*
X4843237Y58385044D01*
X4697160Y58324537D01*
X4571718Y58228282D01*
X4475463Y58102840D01*
X4414956Y57956763D01*
X4414955Y57956761D01*
X4394318Y57800002D01*
X4394318Y57799999D01*
X-1699500Y57799999D01*
X-1699500Y58499999D01*
X15705396Y58499999D01*
X15726033Y58343240D01*
X15726034Y58343238D01*
X15786542Y58197159D01*
X15882796Y58071718D01*
X16008237Y57975464D01*
X16154316Y57914956D01*
X16232696Y57904637D01*
X16311077Y57894318D01*
X16311078Y57894318D01*
X16311079Y57894318D01*
X16375817Y57902841D01*
X16467840Y57914956D01*
X16467843Y57914958D01*
X16468249Y57915066D01*
X16468609Y57915058D01*
X16475898Y57916017D01*
X16476047Y57914881D01*
X16538099Y57913405D01*
X16595962Y57874244D01*
X16623468Y57810016D01*
X16620120Y57763200D01*
X16618395Y57756763D01*
X16597757Y57600002D01*
X16597757Y57599999D01*
X16618394Y57443240D01*
X16618395Y57443238D01*
X16665047Y57330609D01*
X16678903Y57297159D01*
X16775157Y57171718D01*
X16900598Y57075464D01*
X17046677Y57014956D01*
X17125057Y57004637D01*
X17203438Y56994318D01*
X17203439Y56994318D01*
X17203440Y56994318D01*
X17255692Y57001198D01*
X17360201Y57014956D01*
X17506280Y57075464D01*
X17631721Y57171718D01*
X17654180Y57200989D01*
X17710607Y57242189D01*
X17752555Y57249500D01*
X22001651Y57249500D01*
X22068690Y57229815D01*
X22114445Y57177011D01*
X22124389Y57107853D01*
X22100027Y57050014D01*
X22025464Y56952843D01*
X21964956Y56806763D01*
X21964955Y56806761D01*
X21944318Y56650002D01*
X21944318Y56649999D01*
X21964955Y56493240D01*
X21964956Y56493238D01*
X21989998Y56432780D01*
X22025464Y56347159D01*
X22121718Y56221718D01*
X22247159Y56125464D01*
X22393238Y56064956D01*
X22471619Y56054637D01*
X22549999Y56044318D01*
X22550000Y56044318D01*
X22550001Y56044318D01*
X22602254Y56051198D01*
X22706762Y56064956D01*
X22852841Y56125464D01*
X22852845Y56125468D01*
X22859876Y56129526D01*
X22860882Y56127784D01*
X22915932Y56149069D01*
X22926257Y56149500D01*
X26792324Y56149500D01*
X26859363Y56129815D01*
X26905118Y56077011D01*
X26915062Y56007853D01*
X26886037Y55944297D01*
X26880005Y55937819D01*
X24793568Y53851384D01*
X24772938Y53834757D01*
X24768876Y53832146D01*
X24768867Y53832139D01*
X24734905Y53792945D01*
X24731892Y53789709D01*
X24720781Y53778598D01*
X24711354Y53766004D01*
X24708587Y53762572D01*
X24695375Y53747324D01*
X24674623Y53723374D01*
X24674617Y53723364D01*
X24672615Y53718980D01*
X24659100Y53696201D01*
X24656206Y53692336D01*
X24656200Y53692325D01*
X24638078Y53643736D01*
X24636385Y53639647D01*
X24614835Y53592457D01*
X24614833Y53592450D01*
X24614146Y53587673D01*
X24607598Y53562014D01*
X24605910Y53557487D01*
X24605909Y53557483D01*
X24602207Y53505740D01*
X24601734Y53501344D01*
X24599500Y53485801D01*
X24599500Y53470096D01*
X24599342Y53465671D01*
X24595641Y53413931D01*
X24595641Y53413927D01*
X24596666Y53409215D01*
X24599500Y53382857D01*
X24599500Y45164824D01*
X24590061Y45117372D01*
X24564957Y45056766D01*
X24564955Y45056761D01*
X24544318Y44900002D01*
X24544318Y44899999D01*
X24564955Y44743240D01*
X24564956Y44743238D01*
X24624287Y44599999D01*
X24625464Y44597159D01*
X24721718Y44471718D01*
X24847159Y44375464D01*
X24993238Y44314956D01*
X25071619Y44304637D01*
X25149999Y44294318D01*
X25150000Y44294318D01*
X25150001Y44294318D01*
X25202253Y44301198D01*
X25306762Y44314956D01*
X25452841Y44375464D01*
X25578282Y44471718D01*
X25674536Y44597159D01*
X25735044Y44743238D01*
X25755682Y44900000D01*
X25750357Y44940444D01*
X25735044Y45056761D01*
X25735044Y45056762D01*
X25674536Y45202841D01*
X25674535Y45202842D01*
X25674535Y45202843D01*
X25626124Y45265934D01*
X25600930Y45331104D01*
X25600500Y45341420D01*
X25600500Y51238655D01*
X27595002Y51238655D01*
X27615639Y51081896D01*
X27615640Y51081894D01*
X27676148Y50935815D01*
X27772402Y50810374D01*
X27897843Y50714120D01*
X28043922Y50653612D01*
X28122303Y50643294D01*
X28200683Y50632974D01*
X28200684Y50632974D01*
X28200685Y50632974D01*
X28252938Y50639854D01*
X28357446Y50653612D01*
X28503525Y50714120D01*
X28628966Y50810374D01*
X28628969Y50810378D01*
X28628973Y50810381D01*
X28631779Y50813186D01*
X28634726Y50814796D01*
X28635413Y50815322D01*
X28635495Y50815215D01*
X28693104Y50846668D01*
X28719455Y50849500D01*
X29697440Y50849500D01*
X29764479Y50829815D01*
X29810234Y50777011D01*
X29821312Y50731131D01*
X29978138Y47280943D01*
X29961518Y47213078D01*
X29941947Y47187631D01*
X29096258Y46341942D01*
X29034935Y46308457D01*
X29008127Y46307333D01*
X29008127Y46305682D01*
X28999999Y46305682D01*
X28843239Y46285045D01*
X28843237Y46285044D01*
X28697160Y46224537D01*
X28571718Y46128282D01*
X28475463Y46002840D01*
X28414956Y45856763D01*
X28414955Y45856761D01*
X28394318Y45700002D01*
X28394318Y45699999D01*
X28414955Y45543240D01*
X28414956Y45543238D01*
X28457115Y45441456D01*
X28475464Y45397159D01*
X28479845Y45391450D01*
X28571719Y45271717D01*
X28627138Y45229193D01*
X28668341Y45172765D01*
X28672496Y45103019D01*
X28638284Y45042099D01*
X28627140Y45032443D01*
X28621721Y45028285D01*
X28621719Y45028284D01*
X28621718Y45028282D01*
X28570930Y44962093D01*
X28525463Y44902840D01*
X28464956Y44756763D01*
X28464955Y44756761D01*
X28444318Y44600002D01*
X28444318Y44599999D01*
X28464955Y44443240D01*
X28464956Y44443238D01*
X28524287Y44299999D01*
X28525464Y44297159D01*
X28621718Y44171718D01*
X28747159Y44075464D01*
X28893238Y44014956D01*
X28971618Y44004637D01*
X29049999Y43994318D01*
X29050000Y43994318D01*
X29050001Y43994318D01*
X29108305Y44001994D01*
X29206762Y44014956D01*
X29352841Y44075464D01*
X29478282Y44171718D01*
X29574536Y44297159D01*
X29635044Y44443238D01*
X29651704Y44569787D01*
X29679970Y44633683D01*
X29686950Y44641270D01*
X32965375Y47919695D01*
X33026696Y47953178D01*
X33069235Y47954951D01*
X33150000Y47944318D01*
X33150001Y47944318D01*
X33202253Y47951198D01*
X33306762Y47964956D01*
X33452841Y48025464D01*
X33578282Y48121718D01*
X33674536Y48247159D01*
X33735044Y48393238D01*
X33755682Y48550000D01*
X33735044Y48706762D01*
X33674536Y48852841D01*
X33578282Y48978282D01*
X33553678Y48997161D01*
X33490280Y49045809D01*
X33449078Y49102237D01*
X33444923Y49171983D01*
X33479136Y49232903D01*
X33490268Y49242550D01*
X33528282Y49271718D01*
X33624536Y49397159D01*
X33685044Y49543238D01*
X33705682Y49700000D01*
X33685044Y49856762D01*
X33667268Y49899676D01*
X33659800Y49969142D01*
X33691075Y50031621D01*
X33751163Y50067274D01*
X33820988Y50064781D01*
X33869511Y50034807D01*
X38963875Y44940444D01*
X38997360Y44879121D01*
X38999133Y44836579D01*
X38994318Y44800003D01*
X38994318Y44799999D01*
X39014955Y44643240D01*
X39014956Y44643238D01*
X39075464Y44497159D01*
X39171718Y44371718D01*
X39297159Y44275464D01*
X39443238Y44214956D01*
X39521619Y44204637D01*
X39599999Y44194318D01*
X39600000Y44194318D01*
X39600001Y44194318D01*
X39652254Y44201198D01*
X39756762Y44214956D01*
X39902841Y44275464D01*
X40028282Y44371718D01*
X40031333Y44375695D01*
X40087756Y44416898D01*
X40157501Y44421057D01*
X40218424Y44386848D01*
X40226046Y44378052D01*
X40227044Y44377054D01*
X40227046Y44377052D01*
X40227049Y44377049D01*
X40352490Y44280795D01*
X40498569Y44220287D01*
X40576950Y44209968D01*
X40655330Y44199649D01*
X40655331Y44199649D01*
X40655332Y44199649D01*
X40707584Y44206529D01*
X40812093Y44220287D01*
X40958172Y44280795D01*
X41083613Y44377049D01*
X41179867Y44502490D01*
X41240375Y44648569D01*
X41260312Y44800003D01*
X41261013Y44805330D01*
X41261013Y44805333D01*
X41240375Y44962092D01*
X41240375Y44962093D01*
X41179867Y45108172D01*
X41083613Y45233613D01*
X40958172Y45329867D01*
X40812093Y45390375D01*
X40812091Y45390376D01*
X40655333Y45411013D01*
X40655329Y45411013D01*
X40618753Y45406198D01*
X40549718Y45416964D01*
X40514888Y45441456D01*
X33793298Y52163045D01*
X33777172Y52182902D01*
X33772098Y52190669D01*
X33746148Y52210867D01*
X33740402Y52215941D01*
X33737968Y52218375D01*
X33737967Y52218376D01*
X33737966Y52218377D01*
X33731509Y52222987D01*
X33720222Y52231045D01*
X33679787Y52262517D01*
X33679783Y52262519D01*
X33673309Y52266023D01*
X33666730Y52269240D01*
X33617615Y52283862D01*
X33569147Y52300502D01*
X33561930Y52301706D01*
X33554614Y52302618D01*
X33505386Y52300581D01*
X33503430Y52300500D01*
X30352095Y52300500D01*
X30285056Y52320185D01*
X30253719Y52349014D01*
X30208260Y52408258D01*
X30208259Y52408259D01*
X30082818Y52504513D01*
X29936739Y52565021D01*
X29936737Y52565022D01*
X29779978Y52585659D01*
X29779976Y52585659D01*
X29623216Y52565022D01*
X29623214Y52565021D01*
X29477137Y52504514D01*
X29351695Y52408259D01*
X29255440Y52282817D01*
X29194933Y52136740D01*
X29194932Y52136738D01*
X29174295Y51979979D01*
X29174295Y51979976D01*
X29194932Y51823217D01*
X29194934Y51823212D01*
X29236877Y51721952D01*
X29244346Y51652483D01*
X29213071Y51590004D01*
X29152982Y51554352D01*
X29122316Y51550500D01*
X28779462Y51550500D01*
X28712423Y51570185D01*
X28681088Y51599011D01*
X28628966Y51666938D01*
X28503525Y51763192D01*
X28357446Y51823700D01*
X28357444Y51823701D01*
X28200685Y51844338D01*
X28200683Y51844338D01*
X28043923Y51823701D01*
X28043921Y51823700D01*
X27897844Y51763193D01*
X27772402Y51666938D01*
X27676147Y51541496D01*
X27615640Y51395419D01*
X27615639Y51395417D01*
X27595002Y51238658D01*
X27595002Y51238655D01*
X25600500Y51238655D01*
X25600500Y53191324D01*
X25603047Y53199999D01*
X35994318Y53199999D01*
X36014955Y53043240D01*
X36014956Y53043238D01*
X36075464Y52897159D01*
X36171718Y52771718D01*
X36297159Y52675464D01*
X36443238Y52614956D01*
X36520647Y52604765D01*
X36599999Y52594318D01*
X36600000Y52594318D01*
X36756762Y52614956D01*
X36756764Y52614957D01*
X36761117Y52615530D01*
X36830153Y52604765D01*
X36849025Y52593744D01*
X38318581Y51551695D01*
X41450195Y49331095D01*
X41493495Y49276260D01*
X41501409Y49246131D01*
X41511832Y49166965D01*
X41514956Y49143238D01*
X41575464Y48997159D01*
X41671718Y48871718D01*
X41797159Y48775464D01*
X41943238Y48714956D01*
X42005478Y48706762D01*
X42099999Y48694318D01*
X42100000Y48694318D01*
X42100001Y48694318D01*
X42194514Y48706761D01*
X42256762Y48714956D01*
X42402841Y48775464D01*
X42528282Y48871718D01*
X42624536Y48997159D01*
X42685044Y49143238D01*
X42705682Y49300000D01*
X42685044Y49456762D01*
X42624536Y49602841D01*
X42528282Y49728282D01*
X42402841Y49824536D01*
X42296118Y49868742D01*
X42256762Y49885044D01*
X42256760Y49885045D01*
X42100001Y49905682D01*
X42099999Y49905682D01*
X41938882Y49884471D01*
X41869847Y49895237D01*
X41850972Y49906259D01*
X38593717Y52215948D01*
X37249802Y53168906D01*
X37206503Y53223740D01*
X37198590Y53253869D01*
X37185044Y53356762D01*
X37124536Y53502841D01*
X37028282Y53628282D01*
X36902841Y53724536D01*
X36756762Y53785044D01*
X36756760Y53785045D01*
X36600001Y53805682D01*
X36599999Y53805682D01*
X36443239Y53785045D01*
X36443237Y53785044D01*
X36297160Y53724537D01*
X36171718Y53628282D01*
X36075463Y53502840D01*
X36014956Y53356763D01*
X36014955Y53356761D01*
X35994318Y53200002D01*
X35994318Y53199999D01*
X25603047Y53199999D01*
X25620185Y53258363D01*
X25636819Y53279005D01*
X28470995Y56113181D01*
X28532318Y56146666D01*
X28558676Y56149500D01*
X31573743Y56149500D01*
X31640782Y56129815D01*
X31646099Y56126076D01*
X31647157Y56125466D01*
X31647159Y56125464D01*
X31647160Y56125464D01*
X31647163Y56125462D01*
X31720198Y56095211D01*
X31793238Y56064956D01*
X31871619Y56054637D01*
X31949999Y56044318D01*
X31950000Y56044318D01*
X31950001Y56044318D01*
X32002253Y56051198D01*
X32106762Y56064956D01*
X32252841Y56125464D01*
X32378282Y56221718D01*
X32474536Y56347159D01*
X32535044Y56493238D01*
X32555682Y56650000D01*
X32553463Y56666852D01*
X32535044Y56806761D01*
X32535044Y56806762D01*
X32474536Y56952841D01*
X32378282Y57078282D01*
X32252841Y57174536D01*
X32106762Y57235044D01*
X32106760Y57235045D01*
X31950001Y57255682D01*
X31949999Y57255682D01*
X31793239Y57235045D01*
X31793234Y57235043D01*
X31647163Y57174539D01*
X31640124Y57170474D01*
X31639117Y57172217D01*
X31584068Y57150931D01*
X31573743Y57150500D01*
X29202282Y57150500D01*
X29135243Y57170185D01*
X29089488Y57222989D01*
X29079544Y57292147D01*
X29087721Y57321953D01*
X29089710Y57326754D01*
X29140021Y57448215D01*
X29160659Y57604977D01*
X29140021Y57761739D01*
X29079513Y57907818D01*
X28983259Y58033259D01*
X28857818Y58129513D01*
X28847830Y58133650D01*
X28711739Y58190021D01*
X28711737Y58190022D01*
X28554978Y58210659D01*
X28554976Y58210659D01*
X28398216Y58190022D01*
X28398214Y58190021D01*
X28252137Y58129514D01*
X28193854Y58084792D01*
X28126695Y58033259D01*
X28100416Y57999012D01*
X28043990Y57957811D01*
X28002042Y57950500D01*
X27099507Y57950500D01*
X27032468Y57970185D01*
X26986713Y58022989D01*
X26976769Y58092147D01*
X27001131Y58149986D01*
X27079512Y58252135D01*
X27079511Y58252135D01*
X27079513Y58252136D01*
X27140021Y58398215D01*
X27160659Y58554977D01*
X27140021Y58711739D01*
X27079513Y58857818D01*
X26983259Y58983259D01*
X26857818Y59079513D01*
X26711739Y59140021D01*
X26711737Y59140022D01*
X26554978Y59160659D01*
X26554976Y59160659D01*
X26398216Y59140022D01*
X26398214Y59140021D01*
X26252137Y59079514D01*
X26252135Y59079513D01*
X26252136Y59079513D01*
X26126695Y58983259D01*
X26100416Y58949012D01*
X26043990Y58907811D01*
X26002042Y58900500D01*
X16817658Y58900500D01*
X16750619Y58920185D01*
X16742171Y58926124D01*
X16739361Y58928280D01*
X16739360Y58928282D01*
X16613919Y59024536D01*
X16467840Y59085044D01*
X16467838Y59085045D01*
X16311079Y59105682D01*
X16311077Y59105682D01*
X16154317Y59085045D01*
X16154315Y59085044D01*
X16008238Y59024537D01*
X15882796Y58928282D01*
X15786541Y58802840D01*
X15726034Y58656763D01*
X15726033Y58656761D01*
X15705396Y58500002D01*
X15705396Y58499999D01*
X-1699500Y58499999D01*
X-1699500Y59304999D01*
X41494318Y59304999D01*
X41514955Y59148240D01*
X41514956Y59148238D01*
X41575464Y59002159D01*
X41671718Y58876718D01*
X41797159Y58780464D01*
X41943238Y58719956D01*
X42100000Y58699318D01*
X42136577Y58704134D01*
X42205609Y58693369D01*
X42240442Y58668876D01*
X43713181Y57196137D01*
X43746666Y57134814D01*
X43749500Y57108456D01*
X43749500Y46241443D01*
X43729815Y46174404D01*
X43700987Y46143068D01*
X43681720Y46128285D01*
X43585463Y46002840D01*
X43524956Y45856763D01*
X43524955Y45856761D01*
X43504318Y45700002D01*
X43504318Y45699999D01*
X43524955Y45543240D01*
X43524956Y45543238D01*
X43567115Y45441456D01*
X43585464Y45397159D01*
X43681718Y45271718D01*
X43807159Y45175464D01*
X43953238Y45114956D01*
X44031619Y45104637D01*
X44109999Y45094318D01*
X44110000Y45094318D01*
X44110001Y45094318D01*
X44176091Y45103019D01*
X44266762Y45114956D01*
X44412841Y45175464D01*
X44538282Y45271718D01*
X44634536Y45397159D01*
X44695044Y45543238D01*
X44713402Y45682683D01*
X44715682Y45699999D01*
X44715682Y45700002D01*
X44695044Y45856761D01*
X44695044Y45856762D01*
X44634536Y46002841D01*
X44538282Y46128282D01*
X44538280Y46128284D01*
X44538279Y46128285D01*
X44499012Y46158416D01*
X44457810Y46214845D01*
X44450500Y46256791D01*
X44450500Y46475248D01*
X54100500Y46475248D01*
X54112131Y46416771D01*
X54112132Y46416770D01*
X54156447Y46350448D01*
X54222769Y46306133D01*
X54222770Y46306132D01*
X54281247Y46294501D01*
X54281250Y46294500D01*
X54281252Y46294500D01*
X56020750Y46294500D01*
X56020751Y46294501D01*
X56041873Y46298702D01*
X56079229Y46306132D01*
X56079229Y46306133D01*
X56079231Y46306133D01*
X56145552Y46350448D01*
X56189867Y46416769D01*
X56189867Y46416771D01*
X56189868Y46416771D01*
X56201499Y46475248D01*
X56201500Y46475250D01*
X56201500Y48214751D01*
X56201499Y48214753D01*
X56189868Y48273230D01*
X56189867Y48273231D01*
X56145552Y48339553D01*
X56079230Y48383868D01*
X56079229Y48383869D01*
X56020752Y48395500D01*
X56020748Y48395500D01*
X54281252Y48395500D01*
X54281247Y48395500D01*
X54222770Y48383869D01*
X54222769Y48383868D01*
X54156447Y48339553D01*
X54112132Y48273231D01*
X54112131Y48273230D01*
X54100500Y48214753D01*
X54100500Y46475248D01*
X44450500Y46475248D01*
X44450500Y55937371D01*
X53445717Y55937371D01*
X53475892Y55688850D01*
X53545540Y55448399D01*
X53652860Y55222225D01*
X53725941Y55116350D01*
X53795068Y55016203D01*
X53968484Y54835659D01*
X54168615Y54685270D01*
X54390279Y54568931D01*
X54627734Y54489657D01*
X54627737Y54489657D01*
X54627739Y54489656D01*
X54874828Y54449500D01*
X54874831Y54449500D01*
X55062482Y54449500D01*
X55156004Y54457050D01*
X55249527Y54464600D01*
X55492591Y54524510D01*
X55722897Y54622634D01*
X55934481Y54756432D01*
X56121862Y54922437D01*
X56280188Y55116350D01*
X56405357Y55333150D01*
X56494128Y55567220D01*
X56544202Y55812500D01*
X56549513Y55944297D01*
X56554282Y56062629D01*
X56554282Y56062635D01*
X56524107Y56311151D01*
X56488876Y56432780D01*
X56454459Y56551604D01*
X56347141Y56777772D01*
X56347140Y56777773D01*
X56347139Y56777776D01*
X56204933Y56983795D01*
X56204932Y56983797D01*
X56031516Y57164341D01*
X55831385Y57314730D01*
X55831383Y57314731D01*
X55831382Y57314732D01*
X55609726Y57431067D01*
X55609722Y57431069D01*
X55609721Y57431069D01*
X55372266Y57510343D01*
X55372265Y57510344D01*
X55372260Y57510345D01*
X55125172Y57550500D01*
X55125169Y57550500D01*
X54937519Y57550500D01*
X54937518Y57550500D01*
X54750473Y57535401D01*
X54507411Y57475491D01*
X54277106Y57377368D01*
X54065514Y57243565D01*
X53878143Y57077569D01*
X53719809Y56883647D01*
X53594643Y56666852D01*
X53505871Y56432778D01*
X53455798Y56187507D01*
X53455797Y56187497D01*
X53445717Y55937372D01*
X53445717Y55937371D01*
X44450500Y55937371D01*
X44450500Y57255794D01*
X44453139Y57281240D01*
X44455042Y57290315D01*
X44451999Y57314732D01*
X44450977Y57322932D01*
X44450500Y57330609D01*
X44450500Y57334037D01*
X44450498Y57334050D01*
X44446910Y57355551D01*
X44444191Y57377366D01*
X44440573Y57406393D01*
X44440572Y57406396D01*
X44438518Y57413296D01*
X44438475Y57413421D01*
X44438437Y57413547D01*
X44436092Y57420382D01*
X44411704Y57465445D01*
X44389199Y57511482D01*
X44384919Y57517476D01*
X44380419Y57523257D01*
X44342724Y57557959D01*
X42736124Y59164558D01*
X42702639Y59225881D01*
X42700866Y59268421D01*
X42705682Y59305000D01*
X42685044Y59461762D01*
X42624536Y59607841D01*
X42528282Y59733282D01*
X42402841Y59829536D01*
X42256762Y59890044D01*
X42256760Y59890045D01*
X42100001Y59910682D01*
X42099999Y59910682D01*
X41943239Y59890045D01*
X41943237Y59890044D01*
X41797160Y59829537D01*
X41671718Y59733282D01*
X41575463Y59607840D01*
X41514956Y59461763D01*
X41514955Y59461761D01*
X41494318Y59305002D01*
X41494318Y59304999D01*
X-1699500Y59304999D01*
X-1699500Y63876000D01*
X-1679815Y63943039D01*
X-1627011Y63988794D01*
X-1575500Y64000000D01*
X57575500Y64000000D01*
X57642539Y63980315D01*
G37*
%TD.AperFunction*%
%TD*%
M02*
