%TF.GenerationSoftware,KiCad,Pcbnew,7.0.7*%
%TF.CreationDate,2023-11-27T18:29:32+03:00*%
%TF.ProjectId,Bagryanets,42616772-7961-46e6-9574-732e6b696361,rev?*%
%TF.SameCoordinates,PX68e7780PY7bfa480*%
%TF.FileFunction,Soldermask,Top*%
%TF.FilePolarity,Negative*%
%FSLAX46Y46*%
G04 Gerber Fmt 4.6, Leading zero omitted, Abs format (unit mm)*
G04 Created by KiCad (PCBNEW 7.0.7) date 2023-11-27 18:29:32*
%MOMM*%
%LPD*%
G01*
G04 APERTURE LIST*
G04 Aperture macros list*
%AMRoundRect*
0 Rectangle with rounded corners*
0 $1 Rounding radius*
0 $2 $3 $4 $5 $6 $7 $8 $9 X,Y pos of 4 corners*
0 Add a 4 corners polygon primitive as box body*
4,1,4,$2,$3,$4,$5,$6,$7,$8,$9,$2,$3,0*
0 Add four circle primitives for the rounded corners*
1,1,$1+$1,$2,$3*
1,1,$1+$1,$4,$5*
1,1,$1+$1,$6,$7*
1,1,$1+$1,$8,$9*
0 Add four rect primitives between the rounded corners*
20,1,$1+$1,$2,$3,$4,$5,0*
20,1,$1+$1,$4,$5,$6,$7,0*
20,1,$1+$1,$6,$7,$8,$9,0*
20,1,$1+$1,$8,$9,$2,$3,0*%
%AMHorizOval*
0 Thick line with rounded ends*
0 $1 width*
0 $2 $3 position (X,Y) of the first rounded end (center of the circle)*
0 $4 $5 position (X,Y) of the second rounded end (center of the circle)*
0 Add line between two ends*
20,1,$1,$2,$3,$4,$5,0*
0 Add two circle primitives to create the rounded ends*
1,1,$1,$2,$3*
1,1,$1,$4,$5*%
%AMRotRect*
0 Rectangle, with rotation*
0 The origin of the aperture is its center*
0 $1 length*
0 $2 width*
0 $3 Rotation angle, in degrees counterclockwise*
0 Add horizontal line*
21,1,$1,$2,0,0,$3*%
G04 Aperture macros list end*
%ADD10R,0.600000X0.600000*%
%ADD11C,1.000000*%
%ADD12RotRect,0.600000X0.600000X45.000000*%
%ADD13R,0.900000X1.000000*%
%ADD14C,2.600000*%
%ADD15R,2.000000X1.100000*%
%ADD16RoundRect,0.150000X-0.587500X-0.150000X0.587500X-0.150000X0.587500X0.150000X-0.587500X0.150000X0*%
%ADD17R,1.000000X0.900000*%
%ADD18R,0.914400X0.914400*%
%ADD19RotRect,0.600000X0.600000X135.000000*%
%ADD20R,1.000000X1.400000*%
%ADD21R,1.397000X1.143000*%
%ADD22R,1.600000X1.600000*%
%ADD23C,1.600000*%
%ADD24RotRect,0.600000X0.600000X225.000000*%
%ADD25RoundRect,0.250000X0.400000X1.450000X-0.400000X1.450000X-0.400000X-1.450000X0.400000X-1.450000X0*%
%ADD26R,0.889000X1.016000*%
%ADD27R,1.800000X1.000000*%
%ADD28C,2.000000*%
%ADD29RotRect,0.300000X0.750000X225.000000*%
%ADD30HorizOval,0.300000X-0.159099X0.159099X0.159099X-0.159099X0*%
%ADD31HorizOval,0.300000X0.159099X0.159099X-0.159099X-0.159099X0*%
%ADD32RotRect,4.800000X4.800000X135.000000*%
%ADD33C,1.700000*%
%ADD34R,1.000760X1.000760*%
%ADD35RotRect,0.600000X0.600000X315.000000*%
%ADD36R,0.400000X0.500000*%
%ADD37R,0.800000X0.500000*%
%ADD38R,0.800000X0.350000*%
%ADD39O,1.900000X0.900000*%
%ADD40O,1.700000X0.900000*%
%ADD41R,1.800000X1.800000*%
%ADD42C,1.800000*%
%ADD43R,1.016000X0.889000*%
%ADD44R,1.099820X0.635000*%
%ADD45O,1.099820X0.635000*%
%ADD46R,0.635000X1.100000*%
%ADD47O,0.635000X1.100000*%
%ADD48RotRect,0.889000X1.016000X315.000000*%
%ADD49RotRect,1.400000X1.000000X45.000000*%
%ADD50R,0.270000X1.200000*%
%ADD51O,0.270000X1.200000*%
%ADD52O,1.200000X0.270000*%
%ADD53R,1.700000X1.700000*%
%ADD54O,1.700000X1.700000*%
G04 APERTURE END LIST*
D10*
%TO.C,C42*%
X10895000Y57800000D03*
X10895000Y58800000D03*
%TD*%
D11*
%TO.C,TP9*%
X26800000Y51238656D03*
%TD*%
D12*
%TO.C,C9*%
X23903447Y47931447D03*
X24610553Y48638553D03*
%TD*%
D13*
%TO.C,R9*%
X10019556Y28975000D03*
X11519556Y28975000D03*
%TD*%
D10*
%TO.C,C36*%
X10895000Y50925000D03*
X10895000Y49925000D03*
%TD*%
%TO.C,C15*%
X47228050Y30150000D03*
X46228050Y30150000D03*
%TD*%
D14*
%TO.C,H3*%
X1000000Y3000000D03*
%TD*%
D10*
%TO.C,C44*%
X9200000Y58785000D03*
X9200000Y59785000D03*
%TD*%
%TO.C,C45*%
X9200000Y60935000D03*
X10200000Y60935000D03*
%TD*%
D15*
%TO.C,VD7*%
X25625000Y19175000D03*
X25625000Y17475000D03*
X25625000Y15775000D03*
X30425000Y15775000D03*
X30425000Y17475000D03*
X30425000Y19175000D03*
%TD*%
D10*
%TO.C,C30*%
X49825000Y44030000D03*
X49825000Y45030000D03*
%TD*%
%TO.C,C39*%
X10845000Y54585000D03*
X10845000Y55585000D03*
%TD*%
%TO.C,L4*%
X12155000Y49925000D03*
X12155000Y50925000D03*
%TD*%
%TO.C,C5*%
X44675000Y26775000D03*
X43675000Y26775000D03*
%TD*%
D16*
%TO.C,VD3*%
X34007500Y9460000D03*
X34007500Y7560000D03*
X35882500Y8510000D03*
%TD*%
D10*
%TO.C,C35*%
X13445000Y50925000D03*
X13445000Y49925000D03*
%TD*%
D17*
%TO.C,R13*%
X13945000Y26000000D03*
X13945000Y27500000D03*
%TD*%
D10*
%TO.C,C37*%
X11945000Y54585000D03*
X11945000Y55585000D03*
%TD*%
D13*
%TO.C,R19*%
X32750000Y15675000D03*
X34250000Y15675000D03*
%TD*%
D10*
%TO.C,C25*%
X48610000Y48425000D03*
X47610000Y48425000D03*
%TD*%
%TO.C,R17*%
X13125000Y57800000D03*
X12125000Y57800000D03*
%TD*%
D18*
%TO.C,VT2*%
X23826500Y28906400D03*
X22048500Y28906400D03*
X22937500Y26874400D03*
%TD*%
D19*
%TO.C,C34*%
X14678553Y45121447D03*
X13971447Y45828553D03*
%TD*%
D17*
%TO.C,R1*%
X39875000Y14250000D03*
X39875000Y12750000D03*
%TD*%
D10*
%TO.C,L7*%
X8525000Y53475000D03*
X7525000Y53475000D03*
%TD*%
D20*
%TO.C,ZQ3*%
X42753000Y57643000D03*
X44353000Y55443000D03*
X44353000Y57643000D03*
X42753000Y55443000D03*
%TD*%
D18*
%TO.C,VT3*%
X16576500Y19560000D03*
X14798500Y19560000D03*
X15687500Y17528000D03*
%TD*%
D21*
%TO.C,L1*%
X38375000Y54641000D03*
X38375000Y52609000D03*
%TD*%
D10*
%TO.C,C40*%
X7525000Y52185000D03*
X8525000Y52185000D03*
%TD*%
D22*
%TO.C,HA1*%
X8945000Y13035000D03*
D23*
X4945000Y13035000D03*
%TD*%
D19*
%TO.C,C33*%
X15438553Y45901447D03*
X14731447Y46608553D03*
%TD*%
D13*
%TO.C,R21*%
X32750000Y19275000D03*
X34250000Y19275000D03*
%TD*%
D19*
%TO.C,C20*%
X23028553Y47221447D03*
X22321447Y47928553D03*
%TD*%
D10*
%TO.C,C16*%
X13945000Y28975000D03*
X14945000Y28975000D03*
%TD*%
D17*
%TO.C,R15*%
X44025000Y52275000D03*
X44025000Y50775000D03*
%TD*%
D24*
%TO.C,C14*%
X26053553Y50138553D03*
X25346447Y49431447D03*
%TD*%
D10*
%TO.C,C29*%
X40610000Y49125000D03*
X39610000Y49125000D03*
%TD*%
D25*
%TO.C,F1*%
X49670000Y9525000D03*
X45220000Y9525000D03*
%TD*%
D10*
%TO.C,L8*%
X9200000Y62225000D03*
X10200000Y62225000D03*
%TD*%
%TO.C,C19*%
X44153000Y59305000D03*
X43153000Y59305000D03*
%TD*%
D11*
%TO.C,TP2*%
X14800000Y31300000D03*
%TD*%
D26*
%TO.C,C4*%
X27722500Y36425000D03*
X26198500Y36425000D03*
%TD*%
D14*
%TO.C,H2*%
X55000000Y56000000D03*
%TD*%
D11*
%TO.C,TP4*%
X26800000Y54700000D03*
%TD*%
D27*
%TO.C,ZQ2*%
X46575000Y57825000D03*
X46575000Y55325000D03*
%TD*%
D28*
%TO.C,SB2*%
X9475000Y34925000D03*
X2975000Y34925000D03*
X9475000Y39425000D03*
X2975000Y39425000D03*
%TD*%
D10*
%TO.C,C18*%
X48375000Y56825000D03*
X48375000Y57825000D03*
%TD*%
D29*
%TO.C,U1*%
X19347462Y48664821D03*
D30*
X19807082Y49124441D03*
X20266701Y49584060D03*
X20726320Y50043680D03*
X21185940Y50503299D03*
X21645559Y50962918D03*
X22105179Y51422538D03*
D31*
X22105179Y52907462D03*
X21645559Y53367082D03*
X21185940Y53826701D03*
X20726320Y54286320D03*
X20266701Y54745940D03*
X19807082Y55205559D03*
X19347462Y55665179D03*
D30*
X17862538Y55665179D03*
X17402918Y55205559D03*
X16943299Y54745940D03*
X16483680Y54286320D03*
X16024060Y53826701D03*
X15564441Y53367082D03*
X15104821Y52907462D03*
D31*
X15104821Y51422538D03*
X15564441Y50962918D03*
X16024060Y50503299D03*
X16483680Y50043680D03*
X16943299Y49584060D03*
X17402918Y49124441D03*
X17862538Y48664821D03*
D32*
X18605000Y52165000D03*
%TD*%
D13*
%TO.C,R6*%
X30825000Y29775000D03*
X32325000Y29775000D03*
%TD*%
D33*
%TO.C,SB1*%
X30620000Y9460000D03*
X30620000Y6960000D03*
X30620000Y4460000D03*
X25120000Y9460000D03*
X25120000Y6960000D03*
X25120000Y4460000D03*
%TD*%
D10*
%TO.C,L5*%
X12945000Y53285000D03*
X11945000Y53285000D03*
%TD*%
D17*
%TO.C,R11*%
X8969286Y23125000D03*
X8969286Y24625000D03*
%TD*%
D12*
%TO.C,C22*%
X19371447Y46871447D03*
X20078553Y47578553D03*
%TD*%
D10*
%TO.C,C11*%
X48658050Y24925000D03*
X48658050Y23925000D03*
%TD*%
D34*
%TO.C,VD1*%
X41950000Y11078500D03*
X41950000Y8477540D03*
%TD*%
D11*
%TO.C,TP7*%
X16400000Y60200000D03*
%TD*%
%TO.C,TP5*%
X18300000Y58100000D03*
%TD*%
D10*
%TO.C,L6*%
X8525000Y49925000D03*
X8525000Y50925000D03*
%TD*%
%TO.C,R4*%
X47925000Y6725000D03*
X46925000Y6725000D03*
%TD*%
D35*
%TO.C,C10*%
X19551447Y57328553D03*
X20258553Y56621447D03*
%TD*%
D10*
%TO.C,C23*%
X46875000Y53725000D03*
X45875000Y53725000D03*
%TD*%
%TO.C,C8*%
X31825000Y33075000D03*
X30825000Y33075000D03*
%TD*%
%TO.C,R5*%
X22475000Y8460000D03*
X22475000Y9460000D03*
%TD*%
D13*
%TO.C,R7*%
X32325000Y31625000D03*
X30825000Y31625000D03*
%TD*%
D36*
%TO.C,DA4*%
X8550000Y55850000D03*
X9200000Y55850000D03*
X9850000Y55850000D03*
X9850000Y57800000D03*
X9200000Y57800000D03*
X8550000Y57800000D03*
%TD*%
D10*
%TO.C,C46*%
X10200000Y63485000D03*
X9200000Y63485000D03*
%TD*%
D37*
%TO.C,XS1*%
X51325000Y13170000D03*
X51325000Y14440000D03*
D38*
X51325000Y13800000D03*
X51325000Y15075000D03*
X51325000Y17825000D03*
X51325000Y19100000D03*
D37*
X51325000Y19730000D03*
X51325000Y18460000D03*
D38*
X51325000Y17275000D03*
X51325000Y16725000D03*
X51325000Y16175000D03*
X51325000Y15625000D03*
D39*
X55965000Y12125000D03*
D40*
X52025000Y12125000D03*
X52025000Y20775000D03*
D39*
X55965000Y20775000D03*
%TD*%
D18*
%TO.C,VT1*%
X39875800Y11078500D03*
X38097800Y11078500D03*
X38986800Y9046500D03*
%TD*%
D10*
%TO.C,C38*%
X9795000Y50925000D03*
X9795000Y49925000D03*
%TD*%
%TO.C,C31*%
X11875000Y36775000D03*
X11875000Y37775000D03*
%TD*%
D11*
%TO.C,TP8*%
X15500000Y61350000D03*
%TD*%
D17*
%TO.C,R12*%
X47228050Y27250000D03*
X47228050Y28750000D03*
%TD*%
D10*
%TO.C,C6*%
X11519556Y27475000D03*
X10519556Y27475000D03*
%TD*%
D17*
%TO.C,R10*%
X47228050Y23925000D03*
X47228050Y25425000D03*
%TD*%
D18*
%TO.C,DA1*%
X27976500Y34763600D03*
X26198500Y34763600D03*
X27087500Y32731600D03*
%TD*%
D12*
%TO.C,C13*%
X13821447Y48471447D03*
X14528553Y49178553D03*
%TD*%
D13*
%TO.C,R20*%
X32750000Y17475000D03*
X34250000Y17475000D03*
%TD*%
%TO.C,R2*%
X49225000Y13800000D03*
X47725000Y13800000D03*
%TD*%
D10*
%TO.C,C32*%
X45600000Y33750000D03*
X46600000Y33750000D03*
%TD*%
%TO.C,C28*%
X34775000Y38530000D03*
X34775000Y37530000D03*
%TD*%
D12*
%TO.C,C17*%
X20121447Y46071447D03*
X20828553Y46778553D03*
%TD*%
D41*
%TO.C,VD5*%
X4225000Y25525000D03*
D42*
X1685000Y25525000D03*
%TD*%
D17*
%TO.C,R14*%
X45825000Y52275000D03*
X45825000Y50775000D03*
%TD*%
D10*
%TO.C,C43*%
X7495000Y57800000D03*
X7495000Y56800000D03*
%TD*%
%TO.C,C26*%
X34625000Y45330000D03*
X34625000Y44330000D03*
%TD*%
%TO.C,L3*%
X12155000Y47515000D03*
X12155000Y48515000D03*
%TD*%
D14*
%TO.C,H1*%
X1000000Y56000000D03*
%TD*%
%TO.C,H4*%
X55000000Y3000000D03*
%TD*%
D11*
%TO.C,TP1*%
X47228050Y31500000D03*
%TD*%
D10*
%TO.C,C3*%
X36650000Y12075000D03*
X36650000Y11075000D03*
%TD*%
D21*
%TO.C,L2*%
X40610000Y54641000D03*
X40610000Y52609000D03*
%TD*%
D10*
%TO.C,C41*%
X8525000Y54735000D03*
X7525000Y54735000D03*
%TD*%
%TO.C,C12*%
X7475000Y24625000D03*
X7475000Y23625000D03*
%TD*%
D41*
%TO.C,VD6*%
X26775000Y25475000D03*
D42*
X29315000Y25475000D03*
%TD*%
D43*
%TO.C,C21*%
X33325000Y39054000D03*
X33325000Y37530000D03*
%TD*%
D44*
%TO.C,VD2*%
X46637980Y15550040D03*
D45*
X46637980Y16500000D03*
X46637980Y17449960D03*
X44037020Y17449960D03*
X44037020Y16500000D03*
X44037020Y15550040D03*
%TD*%
D10*
%TO.C,C2*%
X28087500Y31475000D03*
X27087500Y31475000D03*
%TD*%
D46*
%TO.C,DA3*%
X12469556Y26000000D03*
D47*
X11519556Y26000000D03*
X10569556Y26000000D03*
X10569556Y23400000D03*
X12469556Y23400000D03*
%TD*%
D48*
%TO.C,C7*%
X20216185Y58763815D03*
X21293815Y57686185D03*
%TD*%
D10*
%TO.C,C24*%
X43053000Y53743000D03*
X44053000Y53743000D03*
%TD*%
D11*
%TO.C,TP3*%
X25700000Y53300000D03*
%TD*%
D13*
%TO.C,R8*%
X43175000Y28325000D03*
X44675000Y28325000D03*
%TD*%
D26*
%TO.C,C27*%
X40610000Y50625000D03*
X39086000Y50625000D03*
%TD*%
D10*
%TO.C,C1*%
X44320000Y12925000D03*
X45320000Y12925000D03*
%TD*%
D11*
%TO.C,TP6*%
X17400000Y59200000D03*
%TD*%
D10*
%TO.C,R22*%
X15687500Y16075000D03*
X14687500Y16075000D03*
%TD*%
D46*
%TO.C,DA2*%
X45625000Y25428860D03*
D47*
X44675000Y25428860D03*
X43725000Y25428860D03*
X43725000Y22828860D03*
X45625000Y22828860D03*
%TD*%
D49*
%TO.C,ZQ1*%
X26944868Y46741497D03*
X27369132Y49428503D03*
X25813497Y47872868D03*
X28500503Y48297132D03*
%TD*%
D10*
%TO.C,R18*%
X23937500Y25475000D03*
X22937500Y25475000D03*
%TD*%
D13*
%TO.C,R3*%
X48125000Y19200000D03*
X46625000Y19200000D03*
%TD*%
D17*
%TO.C,R16*%
X12275000Y39275000D03*
X12275000Y40775000D03*
%TD*%
D41*
%TO.C,VD4*%
X51625000Y25525000D03*
D42*
X54165000Y25525000D03*
%TD*%
D50*
%TO.C,DD1*%
X46100000Y47030000D03*
D51*
X45600000Y47030000D03*
X45100000Y47030000D03*
X44600000Y47030000D03*
X44100000Y47030000D03*
X43600000Y47030000D03*
X43100000Y47030000D03*
X42600000Y47030000D03*
X42100000Y47030000D03*
X41600000Y47030000D03*
X41100000Y47030000D03*
X40600000Y47030000D03*
X40100000Y47030000D03*
X39600000Y47030000D03*
X39100000Y47030000D03*
X38600000Y47030000D03*
D52*
X36600000Y45030000D03*
X36600000Y44530000D03*
X36600000Y44030000D03*
X36600000Y43530000D03*
X36600000Y43030000D03*
X36600000Y42530000D03*
X36600000Y42030000D03*
X36600000Y41530000D03*
X36600000Y41030000D03*
X36600000Y40530000D03*
X36600000Y40030000D03*
X36600000Y39530000D03*
X36600000Y39030000D03*
X36600000Y38530000D03*
X36600000Y38030000D03*
X36600000Y37530000D03*
D51*
X38600000Y35530000D03*
X39100000Y35530000D03*
X39600000Y35530000D03*
X40100000Y35530000D03*
X40600000Y35530000D03*
X41100000Y35530000D03*
X41600000Y35530000D03*
X42100000Y35530000D03*
X42600000Y35530000D03*
X43100000Y35530000D03*
X43600000Y35530000D03*
X44100000Y35530000D03*
X44600000Y35530000D03*
X45100000Y35530000D03*
X45600000Y35530000D03*
X46100000Y35530000D03*
D52*
X48100000Y37530000D03*
X48100000Y38030000D03*
X48100000Y38530000D03*
X48100000Y39030000D03*
X48100000Y39530000D03*
X48100000Y40030000D03*
X48100000Y40530000D03*
X48100000Y41030000D03*
X48100000Y41530000D03*
X48100000Y42030000D03*
X48100000Y42530000D03*
X48100000Y43030000D03*
X48100000Y43530000D03*
X48100000Y44030000D03*
X48100000Y44530000D03*
X48100000Y45030000D03*
%TD*%
D53*
%TO.C,XP2*%
X19345000Y4185000D03*
D54*
X16805000Y4185000D03*
%TD*%
D53*
%TO.C,XP1*%
X55151000Y47345000D03*
D54*
X55151000Y44805000D03*
X55151000Y42265000D03*
X55151000Y39725000D03*
X55151000Y37185000D03*
X55151000Y34645000D03*
%TD*%
M02*
