%TF.GenerationSoftware,KiCad,Pcbnew,7.0.7*%
%TF.CreationDate,2023-11-27T18:29:32+03:00*%
%TF.ProjectId,Bagryanets,42616772-7961-46e6-9574-732e6b696361,rev?*%
%TF.SameCoordinates,PX68e7780PY7bfa480*%
%TF.FileFunction,Legend,Top*%
%TF.FilePolarity,Positive*%
%FSLAX46Y46*%
G04 Gerber Fmt 4.6, Leading zero omitted, Abs format (unit mm)*
G04 Created by KiCad (PCBNEW 7.0.7) date 2023-11-27 18:29:32*
%MOMM*%
%LPD*%
G01*
G04 APERTURE LIST*
%ADD10C,0.150000*%
%ADD11C,0.300000*%
%ADD12C,0.120000*%
%ADD13C,0.127000*%
%ADD14C,0.100000*%
%ADD15C,0.200000*%
%ADD16C,0.149860*%
G04 APERTURE END LIST*
D10*
X42600000Y53100000D02*
X42200000Y52900000D01*
X10850000Y46300000D02*
X13050000Y46300000D01*
X13050000Y44300000D01*
X10850000Y44300000D01*
X10850000Y46300000D01*
X11950000Y44300000D02*
X11950000Y46300000D01*
X10850000Y44300000D02*
X11950000Y44300000D01*
X11950000Y42300000D01*
X10850000Y42300000D01*
X10850000Y44300000D01*
X42600000Y53100000D02*
X42600000Y52600000D01*
X42200000Y52400000D02*
X42600000Y53100000D01*
X15589160Y62205705D02*
X15589160Y63005705D01*
X15589160Y63005705D02*
X16046303Y62205705D01*
X16046303Y62205705D02*
X16046303Y63005705D01*
X16389159Y62243800D02*
X16503445Y62205705D01*
X16503445Y62205705D02*
X16693921Y62205705D01*
X16693921Y62205705D02*
X16770112Y62243800D01*
X16770112Y62243800D02*
X16808207Y62281896D01*
X16808207Y62281896D02*
X16846302Y62358086D01*
X16846302Y62358086D02*
X16846302Y62434277D01*
X16846302Y62434277D02*
X16808207Y62510467D01*
X16808207Y62510467D02*
X16770112Y62548562D01*
X16770112Y62548562D02*
X16693921Y62586658D01*
X16693921Y62586658D02*
X16541540Y62624753D01*
X16541540Y62624753D02*
X16465350Y62662848D01*
X16465350Y62662848D02*
X16427255Y62700943D01*
X16427255Y62700943D02*
X16389159Y62777134D01*
X16389159Y62777134D02*
X16389159Y62853324D01*
X16389159Y62853324D02*
X16427255Y62929515D01*
X16427255Y62929515D02*
X16465350Y62967610D01*
X16465350Y62967610D02*
X16541540Y63005705D01*
X16541540Y63005705D02*
X16732017Y63005705D01*
X16732017Y63005705D02*
X16846302Y62967610D01*
X17151064Y62243800D02*
X17265350Y62205705D01*
X17265350Y62205705D02*
X17455826Y62205705D01*
X17455826Y62205705D02*
X17532017Y62243800D01*
X17532017Y62243800D02*
X17570112Y62281896D01*
X17570112Y62281896D02*
X17608207Y62358086D01*
X17608207Y62358086D02*
X17608207Y62434277D01*
X17608207Y62434277D02*
X17570112Y62510467D01*
X17570112Y62510467D02*
X17532017Y62548562D01*
X17532017Y62548562D02*
X17455826Y62586658D01*
X17455826Y62586658D02*
X17303445Y62624753D01*
X17303445Y62624753D02*
X17227255Y62662848D01*
X17227255Y62662848D02*
X17189160Y62700943D01*
X17189160Y62700943D02*
X17151064Y62777134D01*
X17151064Y62777134D02*
X17151064Y62853324D01*
X17151064Y62853324D02*
X17189160Y62929515D01*
X17189160Y62929515D02*
X17227255Y62967610D01*
X17227255Y62967610D02*
X17303445Y63005705D01*
X17303445Y63005705D02*
X17493922Y63005705D01*
X17493922Y63005705D02*
X17608207Y62967610D01*
X28146303Y50805705D02*
X27879636Y51186658D01*
X27689160Y50805705D02*
X27689160Y51605705D01*
X27689160Y51605705D02*
X27993922Y51605705D01*
X27993922Y51605705D02*
X28070112Y51567610D01*
X28070112Y51567610D02*
X28108207Y51529515D01*
X28108207Y51529515D02*
X28146303Y51453324D01*
X28146303Y51453324D02*
X28146303Y51339039D01*
X28146303Y51339039D02*
X28108207Y51262848D01*
X28108207Y51262848D02*
X28070112Y51224753D01*
X28070112Y51224753D02*
X27993922Y51186658D01*
X27993922Y51186658D02*
X27689160Y51186658D01*
X28451064Y50843800D02*
X28565350Y50805705D01*
X28565350Y50805705D02*
X28755826Y50805705D01*
X28755826Y50805705D02*
X28832017Y50843800D01*
X28832017Y50843800D02*
X28870112Y50881896D01*
X28870112Y50881896D02*
X28908207Y50958086D01*
X28908207Y50958086D02*
X28908207Y51034277D01*
X28908207Y51034277D02*
X28870112Y51110467D01*
X28870112Y51110467D02*
X28832017Y51148562D01*
X28832017Y51148562D02*
X28755826Y51186658D01*
X28755826Y51186658D02*
X28603445Y51224753D01*
X28603445Y51224753D02*
X28527255Y51262848D01*
X28527255Y51262848D02*
X28489160Y51300943D01*
X28489160Y51300943D02*
X28451064Y51377134D01*
X28451064Y51377134D02*
X28451064Y51453324D01*
X28451064Y51453324D02*
X28489160Y51529515D01*
X28489160Y51529515D02*
X28527255Y51567610D01*
X28527255Y51567610D02*
X28603445Y51605705D01*
X28603445Y51605705D02*
X28793922Y51605705D01*
X28793922Y51605705D02*
X28908207Y51567610D01*
X29136779Y51605705D02*
X29593922Y51605705D01*
X29365350Y50805705D02*
X29365350Y51605705D01*
X15536779Y30830181D02*
X15536779Y31830181D01*
X16584397Y30830181D02*
X16251064Y31306372D01*
X16012969Y30830181D02*
X16012969Y31830181D01*
X16012969Y31830181D02*
X16393921Y31830181D01*
X16393921Y31830181D02*
X16489159Y31782562D01*
X16489159Y31782562D02*
X16536778Y31734943D01*
X16536778Y31734943D02*
X16584397Y31639705D01*
X16584397Y31639705D02*
X16584397Y31496848D01*
X16584397Y31496848D02*
X16536778Y31401610D01*
X16536778Y31401610D02*
X16489159Y31353991D01*
X16489159Y31353991D02*
X16393921Y31306372D01*
X16393921Y31306372D02*
X16012969Y31306372D01*
X16965350Y31734943D02*
X17012969Y31782562D01*
X17012969Y31782562D02*
X17108207Y31830181D01*
X17108207Y31830181D02*
X17346302Y31830181D01*
X17346302Y31830181D02*
X17441540Y31782562D01*
X17441540Y31782562D02*
X17489159Y31734943D01*
X17489159Y31734943D02*
X17536778Y31639705D01*
X17536778Y31639705D02*
X17536778Y31544467D01*
X17536778Y31544467D02*
X17489159Y31401610D01*
X17489159Y31401610D02*
X16917731Y30830181D01*
X16917731Y30830181D02*
X17536778Y30830181D01*
X26689160Y52905705D02*
X26689160Y53705705D01*
X26689160Y53705705D02*
X26879636Y53705705D01*
X26879636Y53705705D02*
X26993922Y53667610D01*
X26993922Y53667610D02*
X27070112Y53591420D01*
X27070112Y53591420D02*
X27108207Y53515229D01*
X27108207Y53515229D02*
X27146303Y53362848D01*
X27146303Y53362848D02*
X27146303Y53248562D01*
X27146303Y53248562D02*
X27108207Y53096181D01*
X27108207Y53096181D02*
X27070112Y53019991D01*
X27070112Y53019991D02*
X26993922Y52943800D01*
X26993922Y52943800D02*
X26879636Y52905705D01*
X26879636Y52905705D02*
X26689160Y52905705D01*
X27489160Y52905705D02*
X27489160Y53705705D01*
X28022493Y53705705D02*
X28174874Y53705705D01*
X28174874Y53705705D02*
X28251064Y53667610D01*
X28251064Y53667610D02*
X28327255Y53591420D01*
X28327255Y53591420D02*
X28365350Y53439039D01*
X28365350Y53439039D02*
X28365350Y53172372D01*
X28365350Y53172372D02*
X28327255Y53019991D01*
X28327255Y53019991D02*
X28251064Y52943800D01*
X28251064Y52943800D02*
X28174874Y52905705D01*
X28174874Y52905705D02*
X28022493Y52905705D01*
X28022493Y52905705D02*
X27946302Y52943800D01*
X27946302Y52943800D02*
X27870112Y53019991D01*
X27870112Y53019991D02*
X27832016Y53172372D01*
X27832016Y53172372D02*
X27832016Y53439039D01*
X27832016Y53439039D02*
X27870112Y53591420D01*
X27870112Y53591420D02*
X27946302Y53667610D01*
X27946302Y53667610D02*
X28022493Y53705705D01*
X28860588Y53705705D02*
X28936778Y53705705D01*
X28936778Y53705705D02*
X29012969Y53667610D01*
X29012969Y53667610D02*
X29051064Y53629515D01*
X29051064Y53629515D02*
X29089159Y53553324D01*
X29089159Y53553324D02*
X29127254Y53400943D01*
X29127254Y53400943D02*
X29127254Y53210467D01*
X29127254Y53210467D02*
X29089159Y53058086D01*
X29089159Y53058086D02*
X29051064Y52981896D01*
X29051064Y52981896D02*
X29012969Y52943800D01*
X29012969Y52943800D02*
X28936778Y52905705D01*
X28936778Y52905705D02*
X28860588Y52905705D01*
X28860588Y52905705D02*
X28784397Y52943800D01*
X28784397Y52943800D02*
X28746302Y52981896D01*
X28746302Y52981896D02*
X28708207Y53058086D01*
X28708207Y53058086D02*
X28670111Y53210467D01*
X28670111Y53210467D02*
X28670111Y53400943D01*
X28670111Y53400943D02*
X28708207Y53553324D01*
X28708207Y53553324D02*
X28746302Y53629515D01*
X28746302Y53629515D02*
X28784397Y53667610D01*
X28784397Y53667610D02*
X28860588Y53705705D01*
X15551064Y56943800D02*
X15665350Y56905705D01*
X15665350Y56905705D02*
X15855826Y56905705D01*
X15855826Y56905705D02*
X15932017Y56943800D01*
X15932017Y56943800D02*
X15970112Y56981896D01*
X15970112Y56981896D02*
X16008207Y57058086D01*
X16008207Y57058086D02*
X16008207Y57134277D01*
X16008207Y57134277D02*
X15970112Y57210467D01*
X15970112Y57210467D02*
X15932017Y57248562D01*
X15932017Y57248562D02*
X15855826Y57286658D01*
X15855826Y57286658D02*
X15703445Y57324753D01*
X15703445Y57324753D02*
X15627255Y57362848D01*
X15627255Y57362848D02*
X15589160Y57400943D01*
X15589160Y57400943D02*
X15551064Y57477134D01*
X15551064Y57477134D02*
X15551064Y57553324D01*
X15551064Y57553324D02*
X15589160Y57629515D01*
X15589160Y57629515D02*
X15627255Y57667610D01*
X15627255Y57667610D02*
X15703445Y57705705D01*
X15703445Y57705705D02*
X15893922Y57705705D01*
X15893922Y57705705D02*
X16008207Y57667610D01*
X16808208Y56981896D02*
X16770112Y56943800D01*
X16770112Y56943800D02*
X16655827Y56905705D01*
X16655827Y56905705D02*
X16579636Y56905705D01*
X16579636Y56905705D02*
X16465350Y56943800D01*
X16465350Y56943800D02*
X16389160Y57019991D01*
X16389160Y57019991D02*
X16351065Y57096181D01*
X16351065Y57096181D02*
X16312969Y57248562D01*
X16312969Y57248562D02*
X16312969Y57362848D01*
X16312969Y57362848D02*
X16351065Y57515229D01*
X16351065Y57515229D02*
X16389160Y57591420D01*
X16389160Y57591420D02*
X16465350Y57667610D01*
X16465350Y57667610D02*
X16579636Y57705705D01*
X16579636Y57705705D02*
X16655827Y57705705D01*
X16655827Y57705705D02*
X16770112Y57667610D01*
X16770112Y57667610D02*
X16808208Y57629515D01*
X17151065Y56905705D02*
X17151065Y57705705D01*
X17608208Y56905705D02*
X17265350Y57362848D01*
X17608208Y57705705D02*
X17151065Y57248562D01*
X17589160Y60005705D02*
X17589160Y60805705D01*
X17589160Y60805705D02*
X17855826Y60234277D01*
X17855826Y60234277D02*
X18122493Y60805705D01*
X18122493Y60805705D02*
X18122493Y60005705D01*
X18503446Y60005705D02*
X18503446Y60805705D01*
X18846302Y60043800D02*
X18960588Y60005705D01*
X18960588Y60005705D02*
X19151064Y60005705D01*
X19151064Y60005705D02*
X19227255Y60043800D01*
X19227255Y60043800D02*
X19265350Y60081896D01*
X19265350Y60081896D02*
X19303445Y60158086D01*
X19303445Y60158086D02*
X19303445Y60234277D01*
X19303445Y60234277D02*
X19265350Y60310467D01*
X19265350Y60310467D02*
X19227255Y60348562D01*
X19227255Y60348562D02*
X19151064Y60386658D01*
X19151064Y60386658D02*
X18998683Y60424753D01*
X18998683Y60424753D02*
X18922493Y60462848D01*
X18922493Y60462848D02*
X18884398Y60500943D01*
X18884398Y60500943D02*
X18846302Y60577134D01*
X18846302Y60577134D02*
X18846302Y60653324D01*
X18846302Y60653324D02*
X18884398Y60729515D01*
X18884398Y60729515D02*
X18922493Y60767610D01*
X18922493Y60767610D02*
X18998683Y60805705D01*
X18998683Y60805705D02*
X19189160Y60805705D01*
X19189160Y60805705D02*
X19303445Y60767610D01*
X19798684Y60805705D02*
X19951065Y60805705D01*
X19951065Y60805705D02*
X20027255Y60767610D01*
X20027255Y60767610D02*
X20103446Y60691420D01*
X20103446Y60691420D02*
X20141541Y60539039D01*
X20141541Y60539039D02*
X20141541Y60272372D01*
X20141541Y60272372D02*
X20103446Y60119991D01*
X20103446Y60119991D02*
X20027255Y60043800D01*
X20027255Y60043800D02*
X19951065Y60005705D01*
X19951065Y60005705D02*
X19798684Y60005705D01*
X19798684Y60005705D02*
X19722493Y60043800D01*
X19722493Y60043800D02*
X19646303Y60119991D01*
X19646303Y60119991D02*
X19608207Y60272372D01*
X19608207Y60272372D02*
X19608207Y60539039D01*
X19608207Y60539039D02*
X19646303Y60691420D01*
X19646303Y60691420D02*
X19722493Y60767610D01*
X19722493Y60767610D02*
X19798684Y60805705D01*
X16689160Y61105705D02*
X16689160Y61905705D01*
X16689160Y61905705D02*
X16955826Y61334277D01*
X16955826Y61334277D02*
X17222493Y61905705D01*
X17222493Y61905705D02*
X17222493Y61105705D01*
X17755827Y61905705D02*
X17908208Y61905705D01*
X17908208Y61905705D02*
X17984398Y61867610D01*
X17984398Y61867610D02*
X18060589Y61791420D01*
X18060589Y61791420D02*
X18098684Y61639039D01*
X18098684Y61639039D02*
X18098684Y61372372D01*
X18098684Y61372372D02*
X18060589Y61219991D01*
X18060589Y61219991D02*
X17984398Y61143800D01*
X17984398Y61143800D02*
X17908208Y61105705D01*
X17908208Y61105705D02*
X17755827Y61105705D01*
X17755827Y61105705D02*
X17679636Y61143800D01*
X17679636Y61143800D02*
X17603446Y61219991D01*
X17603446Y61219991D02*
X17565350Y61372372D01*
X17565350Y61372372D02*
X17565350Y61639039D01*
X17565350Y61639039D02*
X17603446Y61791420D01*
X17603446Y61791420D02*
X17679636Y61867610D01*
X17679636Y61867610D02*
X17755827Y61905705D01*
X18403445Y61143800D02*
X18517731Y61105705D01*
X18517731Y61105705D02*
X18708207Y61105705D01*
X18708207Y61105705D02*
X18784398Y61143800D01*
X18784398Y61143800D02*
X18822493Y61181896D01*
X18822493Y61181896D02*
X18860588Y61258086D01*
X18860588Y61258086D02*
X18860588Y61334277D01*
X18860588Y61334277D02*
X18822493Y61410467D01*
X18822493Y61410467D02*
X18784398Y61448562D01*
X18784398Y61448562D02*
X18708207Y61486658D01*
X18708207Y61486658D02*
X18555826Y61524753D01*
X18555826Y61524753D02*
X18479636Y61562848D01*
X18479636Y61562848D02*
X18441541Y61600943D01*
X18441541Y61600943D02*
X18403445Y61677134D01*
X18403445Y61677134D02*
X18403445Y61753324D01*
X18403445Y61753324D02*
X18441541Y61829515D01*
X18441541Y61829515D02*
X18479636Y61867610D01*
X18479636Y61867610D02*
X18555826Y61905705D01*
X18555826Y61905705D02*
X18746303Y61905705D01*
X18746303Y61905705D02*
X18860588Y61867610D01*
X19203446Y61105705D02*
X19203446Y61905705D01*
X27689160Y54405705D02*
X27689160Y55205705D01*
X27689160Y55205705D02*
X27879636Y55205705D01*
X27879636Y55205705D02*
X27993922Y55167610D01*
X27993922Y55167610D02*
X28070112Y55091420D01*
X28070112Y55091420D02*
X28108207Y55015229D01*
X28108207Y55015229D02*
X28146303Y54862848D01*
X28146303Y54862848D02*
X28146303Y54748562D01*
X28146303Y54748562D02*
X28108207Y54596181D01*
X28108207Y54596181D02*
X28070112Y54519991D01*
X28070112Y54519991D02*
X27993922Y54443800D01*
X27993922Y54443800D02*
X27879636Y54405705D01*
X27879636Y54405705D02*
X27689160Y54405705D01*
X28489160Y54405705D02*
X28489160Y55205705D01*
X29022493Y55205705D02*
X29174874Y55205705D01*
X29174874Y55205705D02*
X29251064Y55167610D01*
X29251064Y55167610D02*
X29327255Y55091420D01*
X29327255Y55091420D02*
X29365350Y54939039D01*
X29365350Y54939039D02*
X29365350Y54672372D01*
X29365350Y54672372D02*
X29327255Y54519991D01*
X29327255Y54519991D02*
X29251064Y54443800D01*
X29251064Y54443800D02*
X29174874Y54405705D01*
X29174874Y54405705D02*
X29022493Y54405705D01*
X29022493Y54405705D02*
X28946302Y54443800D01*
X28946302Y54443800D02*
X28870112Y54519991D01*
X28870112Y54519991D02*
X28832016Y54672372D01*
X28832016Y54672372D02*
X28832016Y54939039D01*
X28832016Y54939039D02*
X28870112Y55091420D01*
X28870112Y55091420D02*
X28946302Y55167610D01*
X28946302Y55167610D02*
X29022493Y55205705D01*
X30127254Y54405705D02*
X29670111Y54405705D01*
X29898683Y54405705D02*
X29898683Y55205705D01*
X29898683Y55205705D02*
X29822492Y55091420D01*
X29822492Y55091420D02*
X29746302Y55015229D01*
X29746302Y55015229D02*
X29670111Y54977134D01*
D11*
X21979295Y68330362D02*
X21979295Y70330362D01*
X21979295Y70330362D02*
X22645962Y68901791D01*
X22645962Y68901791D02*
X23312628Y70330362D01*
X23312628Y70330362D02*
X23312628Y68330362D01*
X24265009Y68330362D02*
X24265009Y70330362D01*
X24265009Y70330362D02*
X25312628Y70330362D01*
X25693581Y70330362D02*
X26836438Y70330362D01*
X26265009Y68330362D02*
X26265009Y70330362D01*
X27407867Y70330362D02*
X28074534Y68997029D01*
X28741200Y70330362D02*
X27884057Y68616077D01*
X27884057Y68616077D02*
X27693581Y68425600D01*
X27693581Y68425600D02*
X27503105Y68330362D01*
X27503105Y68330362D02*
X27407867Y68330362D01*
X30931677Y69663696D02*
X30931677Y68330362D01*
X30931677Y68330362D02*
X31884058Y69663696D01*
X31884058Y69663696D02*
X31884058Y68330362D01*
X32836439Y68330362D02*
X32836439Y69663696D01*
X32836439Y69663696D02*
X33407868Y68616077D01*
X33407868Y68616077D02*
X33979296Y69663696D01*
X33979296Y69663696D02*
X33979296Y68330362D01*
X34931677Y68520839D02*
X35026915Y68425600D01*
X35026915Y68425600D02*
X34931677Y68330362D01*
X34931677Y68330362D02*
X34836439Y68425600D01*
X34836439Y68425600D02*
X34931677Y68520839D01*
X34931677Y68520839D02*
X34931677Y68330362D01*
X37407868Y68330362D02*
X37407868Y70330362D01*
X37407868Y69377981D02*
X38550725Y69377981D01*
X38550725Y68330362D02*
X38550725Y70330362D01*
X39503106Y68520839D02*
X39598344Y68425600D01*
X39598344Y68425600D02*
X39503106Y68330362D01*
X39503106Y68330362D02*
X39407868Y68425600D01*
X39407868Y68425600D02*
X39503106Y68520839D01*
X39503106Y68520839D02*
X39503106Y68330362D01*
X41598344Y69282743D02*
X40645963Y69282743D01*
X40360249Y70139886D02*
X40455487Y70235124D01*
X40455487Y70235124D02*
X40741201Y70330362D01*
X40741201Y70330362D02*
X40931677Y70330362D01*
X40931677Y70330362D02*
X41217392Y70235124D01*
X41217392Y70235124D02*
X41407868Y70044648D01*
X41407868Y70044648D02*
X41503106Y69854172D01*
X41503106Y69854172D02*
X41598344Y69473220D01*
X41598344Y69473220D02*
X41598344Y69187505D01*
X41598344Y69187505D02*
X41503106Y68806553D01*
X41503106Y68806553D02*
X41407868Y68616077D01*
X41407868Y68616077D02*
X41217392Y68425600D01*
X41217392Y68425600D02*
X40931677Y68330362D01*
X40931677Y68330362D02*
X40741201Y68330362D01*
X40741201Y68330362D02*
X40455487Y68425600D01*
X40455487Y68425600D02*
X40360249Y68520839D01*
X42455487Y68520839D02*
X42550725Y68425600D01*
X42550725Y68425600D02*
X42455487Y68330362D01*
X42455487Y68330362D02*
X42360249Y68425600D01*
X42360249Y68425600D02*
X42455487Y68520839D01*
X42455487Y68520839D02*
X42455487Y68330362D01*
X45884059Y70330362D02*
X44931678Y70330362D01*
X44931678Y70330362D02*
X44931678Y68330362D01*
X44931678Y68330362D02*
X45503107Y68330362D01*
X45503107Y68330362D02*
X45788821Y68425600D01*
X45788821Y68425600D02*
X45979297Y68616077D01*
X45979297Y68616077D02*
X46074535Y68806553D01*
X46074535Y68806553D02*
X46074535Y69092267D01*
X46074535Y69092267D02*
X45979297Y69282743D01*
X45979297Y69282743D02*
X45788821Y69473220D01*
X45788821Y69473220D02*
X45503107Y69568458D01*
X45503107Y69568458D02*
X44931678Y69568458D01*
X47788821Y68330362D02*
X47788821Y69377981D01*
X47788821Y69377981D02*
X47693583Y69568458D01*
X47693583Y69568458D02*
X47503107Y69663696D01*
X47503107Y69663696D02*
X47122154Y69663696D01*
X47122154Y69663696D02*
X46931678Y69568458D01*
X47788821Y68425600D02*
X47598345Y68330362D01*
X47598345Y68330362D02*
X47122154Y68330362D01*
X47122154Y68330362D02*
X46931678Y68425600D01*
X46931678Y68425600D02*
X46836440Y68616077D01*
X46836440Y68616077D02*
X46836440Y68806553D01*
X46836440Y68806553D02*
X46931678Y68997029D01*
X46931678Y68997029D02*
X47122154Y69092267D01*
X47122154Y69092267D02*
X47598345Y69092267D01*
X47598345Y69092267D02*
X47788821Y69187505D01*
X48550726Y69663696D02*
X49026916Y68330362D01*
X49503107Y69663696D02*
X49026916Y68330362D01*
X49026916Y68330362D02*
X48836440Y67854172D01*
X48836440Y67854172D02*
X48741202Y67758934D01*
X48741202Y67758934D02*
X48550726Y67663696D01*
X50265012Y68330362D02*
X50265012Y69663696D01*
X50265012Y69663696D02*
X50836441Y68616077D01*
X50836441Y68616077D02*
X51407869Y69663696D01*
X51407869Y69663696D02*
X51407869Y68330362D01*
X53217393Y68330362D02*
X53217393Y69377981D01*
X53217393Y69377981D02*
X53122155Y69568458D01*
X53122155Y69568458D02*
X52931679Y69663696D01*
X52931679Y69663696D02*
X52550726Y69663696D01*
X52550726Y69663696D02*
X52360250Y69568458D01*
X53217393Y68425600D02*
X53026917Y68330362D01*
X53026917Y68330362D02*
X52550726Y68330362D01*
X52550726Y68330362D02*
X52360250Y68425600D01*
X52360250Y68425600D02*
X52265012Y68616077D01*
X52265012Y68616077D02*
X52265012Y68806553D01*
X52265012Y68806553D02*
X52360250Y68997029D01*
X52360250Y68997029D02*
X52550726Y69092267D01*
X52550726Y69092267D02*
X53026917Y69092267D01*
X53026917Y69092267D02*
X53217393Y69187505D01*
X54169774Y68997029D02*
X55026917Y68997029D01*
X54169774Y69663696D02*
X54169774Y68330362D01*
X55026917Y69663696D02*
X55026917Y68330362D01*
X56836441Y68330362D02*
X56836441Y69377981D01*
X56836441Y69377981D02*
X56741203Y69568458D01*
X56741203Y69568458D02*
X56550727Y69663696D01*
X56550727Y69663696D02*
X56169774Y69663696D01*
X56169774Y69663696D02*
X55979298Y69568458D01*
X56836441Y68425600D02*
X56645965Y68330362D01*
X56645965Y68330362D02*
X56169774Y68330362D01*
X56169774Y68330362D02*
X55979298Y68425600D01*
X55979298Y68425600D02*
X55884060Y68616077D01*
X55884060Y68616077D02*
X55884060Y68806553D01*
X55884060Y68806553D02*
X55979298Y68997029D01*
X55979298Y68997029D02*
X56169774Y69092267D01*
X56169774Y69092267D02*
X56645965Y69092267D01*
X56645965Y69092267D02*
X56836441Y69187505D01*
X37598344Y66443696D02*
X37598344Y65110362D01*
X37788820Y65872267D02*
X38360249Y65110362D01*
X38360249Y66443696D02*
X37598344Y65681791D01*
X40074535Y65110362D02*
X40074535Y66157981D01*
X40074535Y66157981D02*
X39979297Y66348458D01*
X39979297Y66348458D02*
X39788821Y66443696D01*
X39788821Y66443696D02*
X39407868Y66443696D01*
X39407868Y66443696D02*
X39217392Y66348458D01*
X40074535Y65205600D02*
X39884059Y65110362D01*
X39884059Y65110362D02*
X39407868Y65110362D01*
X39407868Y65110362D02*
X39217392Y65205600D01*
X39217392Y65205600D02*
X39122154Y65396077D01*
X39122154Y65396077D02*
X39122154Y65586553D01*
X39122154Y65586553D02*
X39217392Y65777029D01*
X39217392Y65777029D02*
X39407868Y65872267D01*
X39407868Y65872267D02*
X39884059Y65872267D01*
X39884059Y65872267D02*
X40074535Y65967505D01*
X41598345Y67110362D02*
X41598345Y64443696D01*
X41407868Y66443696D02*
X41788821Y66443696D01*
X41788821Y66443696D02*
X41979297Y66348458D01*
X41979297Y66348458D02*
X42169773Y66157981D01*
X42169773Y66157981D02*
X42265011Y65967505D01*
X42265011Y65967505D02*
X42265011Y65586553D01*
X42265011Y65586553D02*
X42169773Y65396077D01*
X42169773Y65396077D02*
X41979297Y65205600D01*
X41979297Y65205600D02*
X41788821Y65110362D01*
X41788821Y65110362D02*
X41407868Y65110362D01*
X41407868Y65110362D02*
X41217392Y65205600D01*
X41217392Y65205600D02*
X41026916Y65396077D01*
X41026916Y65396077D02*
X40931678Y65586553D01*
X40931678Y65586553D02*
X40931678Y65967505D01*
X40931678Y65967505D02*
X41026916Y66157981D01*
X41026916Y66157981D02*
X41217392Y66348458D01*
X41217392Y66348458D02*
X41407868Y66443696D01*
X43884059Y65205600D02*
X43693583Y65110362D01*
X43693583Y65110362D02*
X43312630Y65110362D01*
X43312630Y65110362D02*
X43122154Y65205600D01*
X43122154Y65205600D02*
X43026916Y65396077D01*
X43026916Y65396077D02*
X43026916Y66157981D01*
X43026916Y66157981D02*
X43122154Y66348458D01*
X43122154Y66348458D02*
X43312630Y66443696D01*
X43312630Y66443696D02*
X43693583Y66443696D01*
X43693583Y66443696D02*
X43884059Y66348458D01*
X43884059Y66348458D02*
X43979297Y66157981D01*
X43979297Y66157981D02*
X43979297Y65967505D01*
X43979297Y65967505D02*
X43026916Y65777029D01*
X45788821Y66253220D02*
X45693583Y66348458D01*
X45693583Y66348458D02*
X45503107Y66443696D01*
X45503107Y66443696D02*
X45122154Y66443696D01*
X45122154Y66443696D02*
X44931678Y66348458D01*
X44931678Y66348458D02*
X44836440Y66253220D01*
X44836440Y66253220D02*
X44741202Y66062743D01*
X44741202Y66062743D02*
X44741202Y65491315D01*
X44741202Y65491315D02*
X44836440Y65300839D01*
X44836440Y65300839D02*
X44931678Y65205600D01*
X44931678Y65205600D02*
X45122154Y65110362D01*
X45122154Y65110362D02*
X45407869Y65110362D01*
X45407869Y65110362D02*
X45598345Y65205600D01*
X45598345Y65205600D02*
X45693583Y65300839D01*
X45693583Y65300839D02*
X45788821Y65491315D01*
X45788821Y65491315D02*
X45788821Y66729410D01*
X45788821Y66729410D02*
X45693583Y66919886D01*
X45693583Y66919886D02*
X45598345Y67015124D01*
X45598345Y67015124D02*
X45407869Y67110362D01*
X45407869Y67110362D02*
X45026916Y67110362D01*
X45026916Y67110362D02*
X44836440Y67015124D01*
X46645964Y66443696D02*
X46645964Y64443696D01*
X46645964Y66348458D02*
X46836440Y66443696D01*
X46836440Y66443696D02*
X47217393Y66443696D01*
X47217393Y66443696D02*
X47407869Y66348458D01*
X47407869Y66348458D02*
X47503107Y66253220D01*
X47503107Y66253220D02*
X47598345Y66062743D01*
X47598345Y66062743D02*
X47598345Y65491315D01*
X47598345Y65491315D02*
X47503107Y65300839D01*
X47503107Y65300839D02*
X47407869Y65205600D01*
X47407869Y65205600D02*
X47217393Y65110362D01*
X47217393Y65110362D02*
X46836440Y65110362D01*
X46836440Y65110362D02*
X46645964Y65205600D01*
X49312631Y65110362D02*
X49312631Y66157981D01*
X49312631Y66157981D02*
X49217393Y66348458D01*
X49217393Y66348458D02*
X49026917Y66443696D01*
X49026917Y66443696D02*
X48645964Y66443696D01*
X48645964Y66443696D02*
X48455488Y66348458D01*
X49312631Y65205600D02*
X49122155Y65110362D01*
X49122155Y65110362D02*
X48645964Y65110362D01*
X48645964Y65110362D02*
X48455488Y65205600D01*
X48455488Y65205600D02*
X48360250Y65396077D01*
X48360250Y65396077D02*
X48360250Y65586553D01*
X48360250Y65586553D02*
X48455488Y65777029D01*
X48455488Y65777029D02*
X48645964Y65872267D01*
X48645964Y65872267D02*
X49122155Y65872267D01*
X49122155Y65872267D02*
X49312631Y65967505D01*
X51788822Y65110362D02*
X51788822Y67110362D01*
X51788822Y67110362D02*
X52550727Y67110362D01*
X52550727Y67110362D02*
X52741203Y67015124D01*
X52741203Y67015124D02*
X52836441Y66919886D01*
X52836441Y66919886D02*
X52931679Y66729410D01*
X52931679Y66729410D02*
X52931679Y66443696D01*
X52931679Y66443696D02*
X52836441Y66253220D01*
X52836441Y66253220D02*
X52741203Y66157981D01*
X52741203Y66157981D02*
X52550727Y66062743D01*
X52550727Y66062743D02*
X51788822Y66062743D01*
X54931679Y65110362D02*
X54931679Y67110362D01*
X54931679Y67110362D02*
X54645965Y67110362D01*
X54645965Y67110362D02*
X54360251Y67015124D01*
X54360251Y67015124D02*
X54169774Y66824648D01*
X54169774Y66824648D02*
X54074536Y66538934D01*
X54074536Y66538934D02*
X53884060Y65396077D01*
X53884060Y65396077D02*
X53788822Y65205600D01*
X53788822Y65205600D02*
X53598346Y65110362D01*
X53598346Y65110362D02*
X53503108Y65110362D01*
X56931679Y65110362D02*
X55788822Y65110362D01*
X56360250Y65110362D02*
X56360250Y67110362D01*
X56360250Y67110362D02*
X56169774Y66824648D01*
X56169774Y66824648D02*
X55979298Y66634172D01*
X55979298Y66634172D02*
X55788822Y66538934D01*
D10*
X48136779Y31030181D02*
X48136779Y32030181D01*
X49184397Y31030181D02*
X48851064Y31506372D01*
X48612969Y31030181D02*
X48612969Y32030181D01*
X48612969Y32030181D02*
X48993921Y32030181D01*
X48993921Y32030181D02*
X49089159Y31982562D01*
X49089159Y31982562D02*
X49136778Y31934943D01*
X49136778Y31934943D02*
X49184397Y31839705D01*
X49184397Y31839705D02*
X49184397Y31696848D01*
X49184397Y31696848D02*
X49136778Y31601610D01*
X49136778Y31601610D02*
X49089159Y31553991D01*
X49089159Y31553991D02*
X48993921Y31506372D01*
X48993921Y31506372D02*
X48612969Y31506372D01*
X50136778Y31030181D02*
X49565350Y31030181D01*
X49851064Y31030181D02*
X49851064Y32030181D01*
X49851064Y32030181D02*
X49755826Y31887324D01*
X49755826Y31887324D02*
X49660588Y31792086D01*
X49660588Y31792086D02*
X49565350Y31744467D01*
X12087628Y59114286D02*
X12116200Y59085714D01*
X12116200Y59085714D02*
X12144771Y59000000D01*
X12144771Y59000000D02*
X12144771Y58942857D01*
X12144771Y58942857D02*
X12116200Y58857143D01*
X12116200Y58857143D02*
X12059057Y58800000D01*
X12059057Y58800000D02*
X12001914Y58771429D01*
X12001914Y58771429D02*
X11887628Y58742857D01*
X11887628Y58742857D02*
X11801914Y58742857D01*
X11801914Y58742857D02*
X11687628Y58771429D01*
X11687628Y58771429D02*
X11630485Y58800000D01*
X11630485Y58800000D02*
X11573342Y58857143D01*
X11573342Y58857143D02*
X11544771Y58942857D01*
X11544771Y58942857D02*
X11544771Y59000000D01*
X11544771Y59000000D02*
X11573342Y59085714D01*
X11573342Y59085714D02*
X11601914Y59114286D01*
X11744771Y59628571D02*
X12144771Y59628571D01*
X11516200Y59485714D02*
X11944771Y59342857D01*
X11944771Y59342857D02*
X11944771Y59714286D01*
X11601914Y59914286D02*
X11573342Y59942858D01*
X11573342Y59942858D02*
X11544771Y60000000D01*
X11544771Y60000000D02*
X11544771Y60142858D01*
X11544771Y60142858D02*
X11573342Y60200000D01*
X11573342Y60200000D02*
X11601914Y60228572D01*
X11601914Y60228572D02*
X11659057Y60257143D01*
X11659057Y60257143D02*
X11716200Y60257143D01*
X11716200Y60257143D02*
X11801914Y60228572D01*
X11801914Y60228572D02*
X12144771Y59885715D01*
X12144771Y59885715D02*
X12144771Y60257143D01*
X23615391Y48785188D02*
X23615391Y48744782D01*
X23615391Y48744782D02*
X23574985Y48663970D01*
X23574985Y48663970D02*
X23534579Y48623564D01*
X23534579Y48623564D02*
X23453767Y48583157D01*
X23453767Y48583157D02*
X23372955Y48583157D01*
X23372955Y48583157D02*
X23312345Y48603360D01*
X23312345Y48603360D02*
X23211330Y48663970D01*
X23211330Y48663970D02*
X23150721Y48724579D01*
X23150721Y48724579D02*
X23090112Y48825594D01*
X23090112Y48825594D02*
X23069909Y48886203D01*
X23069909Y48886203D02*
X23069909Y48967015D01*
X23069909Y48967015D02*
X23110315Y49047828D01*
X23110315Y49047828D02*
X23150721Y49088234D01*
X23150721Y49088234D02*
X23231533Y49128640D01*
X23231533Y49128640D02*
X23271939Y49128640D01*
X23857828Y48946812D02*
X23938640Y49027625D01*
X23938640Y49027625D02*
X23958843Y49088234D01*
X23958843Y49088234D02*
X23958843Y49128640D01*
X23958843Y49128640D02*
X23938640Y49229655D01*
X23938640Y49229655D02*
X23878031Y49330670D01*
X23878031Y49330670D02*
X23716406Y49492295D01*
X23716406Y49492295D02*
X23655797Y49512498D01*
X23655797Y49512498D02*
X23615391Y49512498D01*
X23615391Y49512498D02*
X23554782Y49492295D01*
X23554782Y49492295D02*
X23473970Y49411482D01*
X23473970Y49411482D02*
X23453767Y49350873D01*
X23453767Y49350873D02*
X23453767Y49310467D01*
X23453767Y49310467D02*
X23473970Y49249858D01*
X23473970Y49249858D02*
X23574985Y49148843D01*
X23574985Y49148843D02*
X23635594Y49128640D01*
X23635594Y49128640D02*
X23676000Y49128640D01*
X23676000Y49128640D02*
X23736609Y49148843D01*
X23736609Y49148843D02*
X23817422Y49229655D01*
X23817422Y49229655D02*
X23837625Y49290264D01*
X23837625Y49290264D02*
X23837625Y49330670D01*
X23837625Y49330670D02*
X23817422Y49391279D01*
X8369556Y28705229D02*
X8169556Y28990943D01*
X8026699Y28705229D02*
X8026699Y29305229D01*
X8026699Y29305229D02*
X8255270Y29305229D01*
X8255270Y29305229D02*
X8312413Y29276658D01*
X8312413Y29276658D02*
X8340984Y29248086D01*
X8340984Y29248086D02*
X8369556Y29190943D01*
X8369556Y29190943D02*
X8369556Y29105229D01*
X8369556Y29105229D02*
X8340984Y29048086D01*
X8340984Y29048086D02*
X8312413Y29019515D01*
X8312413Y29019515D02*
X8255270Y28990943D01*
X8255270Y28990943D02*
X8026699Y28990943D01*
X8655270Y28705229D02*
X8769556Y28705229D01*
X8769556Y28705229D02*
X8826699Y28733800D01*
X8826699Y28733800D02*
X8855270Y28762372D01*
X8855270Y28762372D02*
X8912413Y28848086D01*
X8912413Y28848086D02*
X8940984Y28962372D01*
X8940984Y28962372D02*
X8940984Y29190943D01*
X8940984Y29190943D02*
X8912413Y29248086D01*
X8912413Y29248086D02*
X8883842Y29276658D01*
X8883842Y29276658D02*
X8826699Y29305229D01*
X8826699Y29305229D02*
X8712413Y29305229D01*
X8712413Y29305229D02*
X8655270Y29276658D01*
X8655270Y29276658D02*
X8626699Y29248086D01*
X8626699Y29248086D02*
X8598127Y29190943D01*
X8598127Y29190943D02*
X8598127Y29048086D01*
X8598127Y29048086D02*
X8626699Y28990943D01*
X8626699Y28990943D02*
X8655270Y28962372D01*
X8655270Y28962372D02*
X8712413Y28933800D01*
X8712413Y28933800D02*
X8826699Y28933800D01*
X8826699Y28933800D02*
X8883842Y28962372D01*
X8883842Y28962372D02*
X8912413Y28990943D01*
X8912413Y28990943D02*
X8940984Y29048086D01*
X11127628Y47939286D02*
X11156200Y47910714D01*
X11156200Y47910714D02*
X11184771Y47825000D01*
X11184771Y47825000D02*
X11184771Y47767857D01*
X11184771Y47767857D02*
X11156200Y47682143D01*
X11156200Y47682143D02*
X11099057Y47625000D01*
X11099057Y47625000D02*
X11041914Y47596429D01*
X11041914Y47596429D02*
X10927628Y47567857D01*
X10927628Y47567857D02*
X10841914Y47567857D01*
X10841914Y47567857D02*
X10727628Y47596429D01*
X10727628Y47596429D02*
X10670485Y47625000D01*
X10670485Y47625000D02*
X10613342Y47682143D01*
X10613342Y47682143D02*
X10584771Y47767857D01*
X10584771Y47767857D02*
X10584771Y47825000D01*
X10584771Y47825000D02*
X10613342Y47910714D01*
X10613342Y47910714D02*
X10641914Y47939286D01*
X10584771Y48139286D02*
X10584771Y48510714D01*
X10584771Y48510714D02*
X10813342Y48310714D01*
X10813342Y48310714D02*
X10813342Y48396429D01*
X10813342Y48396429D02*
X10841914Y48453571D01*
X10841914Y48453571D02*
X10870485Y48482143D01*
X10870485Y48482143D02*
X10927628Y48510714D01*
X10927628Y48510714D02*
X11070485Y48510714D01*
X11070485Y48510714D02*
X11127628Y48482143D01*
X11127628Y48482143D02*
X11156200Y48453571D01*
X11156200Y48453571D02*
X11184771Y48396429D01*
X11184771Y48396429D02*
X11184771Y48225000D01*
X11184771Y48225000D02*
X11156200Y48167857D01*
X11156200Y48167857D02*
X11127628Y48139286D01*
X10584771Y49025000D02*
X10584771Y48910715D01*
X10584771Y48910715D02*
X10613342Y48853572D01*
X10613342Y48853572D02*
X10641914Y48825000D01*
X10641914Y48825000D02*
X10727628Y48767858D01*
X10727628Y48767858D02*
X10841914Y48739286D01*
X10841914Y48739286D02*
X11070485Y48739286D01*
X11070485Y48739286D02*
X11127628Y48767858D01*
X11127628Y48767858D02*
X11156200Y48796429D01*
X11156200Y48796429D02*
X11184771Y48853572D01*
X11184771Y48853572D02*
X11184771Y48967858D01*
X11184771Y48967858D02*
X11156200Y49025000D01*
X11156200Y49025000D02*
X11127628Y49053572D01*
X11127628Y49053572D02*
X11070485Y49082143D01*
X11070485Y49082143D02*
X10927628Y49082143D01*
X10927628Y49082143D02*
X10870485Y49053572D01*
X10870485Y49053572D02*
X10841914Y49025000D01*
X10841914Y49025000D02*
X10813342Y48967858D01*
X10813342Y48967858D02*
X10813342Y48853572D01*
X10813342Y48853572D02*
X10841914Y48796429D01*
X10841914Y48796429D02*
X10870485Y48767858D01*
X10870485Y48767858D02*
X10927628Y48739286D01*
X44342335Y29917372D02*
X44313763Y29888800D01*
X44313763Y29888800D02*
X44228049Y29860229D01*
X44228049Y29860229D02*
X44170906Y29860229D01*
X44170906Y29860229D02*
X44085192Y29888800D01*
X44085192Y29888800D02*
X44028049Y29945943D01*
X44028049Y29945943D02*
X43999478Y30003086D01*
X43999478Y30003086D02*
X43970906Y30117372D01*
X43970906Y30117372D02*
X43970906Y30203086D01*
X43970906Y30203086D02*
X43999478Y30317372D01*
X43999478Y30317372D02*
X44028049Y30374515D01*
X44028049Y30374515D02*
X44085192Y30431658D01*
X44085192Y30431658D02*
X44170906Y30460229D01*
X44170906Y30460229D02*
X44228049Y30460229D01*
X44228049Y30460229D02*
X44313763Y30431658D01*
X44313763Y30431658D02*
X44342335Y30403086D01*
X44913763Y29860229D02*
X44570906Y29860229D01*
X44742335Y29860229D02*
X44742335Y30460229D01*
X44742335Y30460229D02*
X44685192Y30374515D01*
X44685192Y30374515D02*
X44628049Y30317372D01*
X44628049Y30317372D02*
X44570906Y30288800D01*
X45456621Y30460229D02*
X45170907Y30460229D01*
X45170907Y30460229D02*
X45142335Y30174515D01*
X45142335Y30174515D02*
X45170907Y30203086D01*
X45170907Y30203086D02*
X45228050Y30231658D01*
X45228050Y30231658D02*
X45370907Y30231658D01*
X45370907Y30231658D02*
X45428050Y30203086D01*
X45428050Y30203086D02*
X45456621Y30174515D01*
X45456621Y30174515D02*
X45485192Y30117372D01*
X45485192Y30117372D02*
X45485192Y29974515D01*
X45485192Y29974515D02*
X45456621Y29917372D01*
X45456621Y29917372D02*
X45428050Y29888800D01*
X45428050Y29888800D02*
X45370907Y29860229D01*
X45370907Y29860229D02*
X45228050Y29860229D01*
X45228050Y29860229D02*
X45170907Y29888800D01*
X45170907Y29888800D02*
X45142335Y29917372D01*
X8492628Y58999286D02*
X8521200Y58970714D01*
X8521200Y58970714D02*
X8549771Y58885000D01*
X8549771Y58885000D02*
X8549771Y58827857D01*
X8549771Y58827857D02*
X8521200Y58742143D01*
X8521200Y58742143D02*
X8464057Y58685000D01*
X8464057Y58685000D02*
X8406914Y58656429D01*
X8406914Y58656429D02*
X8292628Y58627857D01*
X8292628Y58627857D02*
X8206914Y58627857D01*
X8206914Y58627857D02*
X8092628Y58656429D01*
X8092628Y58656429D02*
X8035485Y58685000D01*
X8035485Y58685000D02*
X7978342Y58742143D01*
X7978342Y58742143D02*
X7949771Y58827857D01*
X7949771Y58827857D02*
X7949771Y58885000D01*
X7949771Y58885000D02*
X7978342Y58970714D01*
X7978342Y58970714D02*
X8006914Y58999286D01*
X8149771Y59513571D02*
X8549771Y59513571D01*
X7921200Y59370714D02*
X8349771Y59227857D01*
X8349771Y59227857D02*
X8349771Y59599286D01*
X8149771Y60085000D02*
X8549771Y60085000D01*
X7921200Y59942143D02*
X8349771Y59799286D01*
X8349771Y59799286D02*
X8349771Y60170715D01*
X11314285Y60642372D02*
X11285713Y60613800D01*
X11285713Y60613800D02*
X11199999Y60585229D01*
X11199999Y60585229D02*
X11142856Y60585229D01*
X11142856Y60585229D02*
X11057142Y60613800D01*
X11057142Y60613800D02*
X10999999Y60670943D01*
X10999999Y60670943D02*
X10971428Y60728086D01*
X10971428Y60728086D02*
X10942856Y60842372D01*
X10942856Y60842372D02*
X10942856Y60928086D01*
X10942856Y60928086D02*
X10971428Y61042372D01*
X10971428Y61042372D02*
X10999999Y61099515D01*
X10999999Y61099515D02*
X11057142Y61156658D01*
X11057142Y61156658D02*
X11142856Y61185229D01*
X11142856Y61185229D02*
X11199999Y61185229D01*
X11199999Y61185229D02*
X11285713Y61156658D01*
X11285713Y61156658D02*
X11314285Y61128086D01*
X11828571Y60985229D02*
X11828571Y60585229D01*
X11685713Y61213800D02*
X11542856Y60785229D01*
X11542856Y60785229D02*
X11914285Y60785229D01*
X12428571Y61185229D02*
X12142857Y61185229D01*
X12142857Y61185229D02*
X12114285Y60899515D01*
X12114285Y60899515D02*
X12142857Y60928086D01*
X12142857Y60928086D02*
X12200000Y60956658D01*
X12200000Y60956658D02*
X12342857Y60956658D01*
X12342857Y60956658D02*
X12400000Y60928086D01*
X12400000Y60928086D02*
X12428571Y60899515D01*
X12428571Y60899515D02*
X12457142Y60842372D01*
X12457142Y60842372D02*
X12457142Y60699515D01*
X12457142Y60699515D02*
X12428571Y60642372D01*
X12428571Y60642372D02*
X12400000Y60613800D01*
X12400000Y60613800D02*
X12342857Y60585229D01*
X12342857Y60585229D02*
X12200000Y60585229D01*
X12200000Y60585229D02*
X12142857Y60613800D01*
X12142857Y60613800D02*
X12114285Y60642372D01*
X26715476Y21420181D02*
X27048809Y20420181D01*
X27048809Y20420181D02*
X27382142Y21420181D01*
X27715476Y20420181D02*
X27715476Y21420181D01*
X27715476Y21420181D02*
X27953571Y21420181D01*
X27953571Y21420181D02*
X28096428Y21372562D01*
X28096428Y21372562D02*
X28191666Y21277324D01*
X28191666Y21277324D02*
X28239285Y21182086D01*
X28239285Y21182086D02*
X28286904Y20991610D01*
X28286904Y20991610D02*
X28286904Y20848753D01*
X28286904Y20848753D02*
X28239285Y20658277D01*
X28239285Y20658277D02*
X28191666Y20563039D01*
X28191666Y20563039D02*
X28096428Y20467800D01*
X28096428Y20467800D02*
X27953571Y20420181D01*
X27953571Y20420181D02*
X27715476Y20420181D01*
X28620238Y21420181D02*
X29286904Y21420181D01*
X29286904Y21420181D02*
X28858333Y20420181D01*
X51017628Y44144286D02*
X51046200Y44115714D01*
X51046200Y44115714D02*
X51074771Y44030000D01*
X51074771Y44030000D02*
X51074771Y43972857D01*
X51074771Y43972857D02*
X51046200Y43887143D01*
X51046200Y43887143D02*
X50989057Y43830000D01*
X50989057Y43830000D02*
X50931914Y43801429D01*
X50931914Y43801429D02*
X50817628Y43772857D01*
X50817628Y43772857D02*
X50731914Y43772857D01*
X50731914Y43772857D02*
X50617628Y43801429D01*
X50617628Y43801429D02*
X50560485Y43830000D01*
X50560485Y43830000D02*
X50503342Y43887143D01*
X50503342Y43887143D02*
X50474771Y43972857D01*
X50474771Y43972857D02*
X50474771Y44030000D01*
X50474771Y44030000D02*
X50503342Y44115714D01*
X50503342Y44115714D02*
X50531914Y44144286D01*
X50474771Y44344286D02*
X50474771Y44715714D01*
X50474771Y44715714D02*
X50703342Y44515714D01*
X50703342Y44515714D02*
X50703342Y44601429D01*
X50703342Y44601429D02*
X50731914Y44658571D01*
X50731914Y44658571D02*
X50760485Y44687143D01*
X50760485Y44687143D02*
X50817628Y44715714D01*
X50817628Y44715714D02*
X50960485Y44715714D01*
X50960485Y44715714D02*
X51017628Y44687143D01*
X51017628Y44687143D02*
X51046200Y44658571D01*
X51046200Y44658571D02*
X51074771Y44601429D01*
X51074771Y44601429D02*
X51074771Y44430000D01*
X51074771Y44430000D02*
X51046200Y44372857D01*
X51046200Y44372857D02*
X51017628Y44344286D01*
X50474771Y45087143D02*
X50474771Y45144286D01*
X50474771Y45144286D02*
X50503342Y45201429D01*
X50503342Y45201429D02*
X50531914Y45230000D01*
X50531914Y45230000D02*
X50589057Y45258572D01*
X50589057Y45258572D02*
X50703342Y45287143D01*
X50703342Y45287143D02*
X50846200Y45287143D01*
X50846200Y45287143D02*
X50960485Y45258572D01*
X50960485Y45258572D02*
X51017628Y45230000D01*
X51017628Y45230000D02*
X51046200Y45201429D01*
X51046200Y45201429D02*
X51074771Y45144286D01*
X51074771Y45144286D02*
X51074771Y45087143D01*
X51074771Y45087143D02*
X51046200Y45030000D01*
X51046200Y45030000D02*
X51017628Y45001429D01*
X51017628Y45001429D02*
X50960485Y44972858D01*
X50960485Y44972858D02*
X50846200Y44944286D01*
X50846200Y44944286D02*
X50703342Y44944286D01*
X50703342Y44944286D02*
X50589057Y44972858D01*
X50589057Y44972858D02*
X50531914Y45001429D01*
X50531914Y45001429D02*
X50503342Y45030000D01*
X50503342Y45030000D02*
X50474771Y45087143D01*
X10137628Y53899286D02*
X10166200Y53870714D01*
X10166200Y53870714D02*
X10194771Y53785000D01*
X10194771Y53785000D02*
X10194771Y53727857D01*
X10194771Y53727857D02*
X10166200Y53642143D01*
X10166200Y53642143D02*
X10109057Y53585000D01*
X10109057Y53585000D02*
X10051914Y53556429D01*
X10051914Y53556429D02*
X9937628Y53527857D01*
X9937628Y53527857D02*
X9851914Y53527857D01*
X9851914Y53527857D02*
X9737628Y53556429D01*
X9737628Y53556429D02*
X9680485Y53585000D01*
X9680485Y53585000D02*
X9623342Y53642143D01*
X9623342Y53642143D02*
X9594771Y53727857D01*
X9594771Y53727857D02*
X9594771Y53785000D01*
X9594771Y53785000D02*
X9623342Y53870714D01*
X9623342Y53870714D02*
X9651914Y53899286D01*
X9594771Y54099286D02*
X9594771Y54470714D01*
X9594771Y54470714D02*
X9823342Y54270714D01*
X9823342Y54270714D02*
X9823342Y54356429D01*
X9823342Y54356429D02*
X9851914Y54413571D01*
X9851914Y54413571D02*
X9880485Y54442143D01*
X9880485Y54442143D02*
X9937628Y54470714D01*
X9937628Y54470714D02*
X10080485Y54470714D01*
X10080485Y54470714D02*
X10137628Y54442143D01*
X10137628Y54442143D02*
X10166200Y54413571D01*
X10166200Y54413571D02*
X10194771Y54356429D01*
X10194771Y54356429D02*
X10194771Y54185000D01*
X10194771Y54185000D02*
X10166200Y54127857D01*
X10166200Y54127857D02*
X10137628Y54099286D01*
X10194771Y54756429D02*
X10194771Y54870715D01*
X10194771Y54870715D02*
X10166200Y54927858D01*
X10166200Y54927858D02*
X10137628Y54956429D01*
X10137628Y54956429D02*
X10051914Y55013572D01*
X10051914Y55013572D02*
X9937628Y55042143D01*
X9937628Y55042143D02*
X9709057Y55042143D01*
X9709057Y55042143D02*
X9651914Y55013572D01*
X9651914Y55013572D02*
X9623342Y54985000D01*
X9623342Y54985000D02*
X9594771Y54927858D01*
X9594771Y54927858D02*
X9594771Y54813572D01*
X9594771Y54813572D02*
X9623342Y54756429D01*
X9623342Y54756429D02*
X9651914Y54727858D01*
X9651914Y54727858D02*
X9709057Y54699286D01*
X9709057Y54699286D02*
X9851914Y54699286D01*
X9851914Y54699286D02*
X9909057Y54727858D01*
X9909057Y54727858D02*
X9937628Y54756429D01*
X9937628Y54756429D02*
X9966200Y54813572D01*
X9966200Y54813572D02*
X9966200Y54927858D01*
X9966200Y54927858D02*
X9937628Y54985000D01*
X9937628Y54985000D02*
X9909057Y55013572D01*
X9909057Y55013572D02*
X9851914Y55042143D01*
X11724771Y45187858D02*
X11724771Y44902144D01*
X11724771Y44902144D02*
X11124771Y44902144D01*
X11324771Y45645000D02*
X11724771Y45645000D01*
X11096200Y45502143D02*
X11524771Y45359286D01*
X11524771Y45359286D02*
X11524771Y45730715D01*
X42375000Y26442372D02*
X42346428Y26413800D01*
X42346428Y26413800D02*
X42260714Y26385229D01*
X42260714Y26385229D02*
X42203571Y26385229D01*
X42203571Y26385229D02*
X42117857Y26413800D01*
X42117857Y26413800D02*
X42060714Y26470943D01*
X42060714Y26470943D02*
X42032143Y26528086D01*
X42032143Y26528086D02*
X42003571Y26642372D01*
X42003571Y26642372D02*
X42003571Y26728086D01*
X42003571Y26728086D02*
X42032143Y26842372D01*
X42032143Y26842372D02*
X42060714Y26899515D01*
X42060714Y26899515D02*
X42117857Y26956658D01*
X42117857Y26956658D02*
X42203571Y26985229D01*
X42203571Y26985229D02*
X42260714Y26985229D01*
X42260714Y26985229D02*
X42346428Y26956658D01*
X42346428Y26956658D02*
X42375000Y26928086D01*
X42917857Y26985229D02*
X42632143Y26985229D01*
X42632143Y26985229D02*
X42603571Y26699515D01*
X42603571Y26699515D02*
X42632143Y26728086D01*
X42632143Y26728086D02*
X42689286Y26756658D01*
X42689286Y26756658D02*
X42832143Y26756658D01*
X42832143Y26756658D02*
X42889286Y26728086D01*
X42889286Y26728086D02*
X42917857Y26699515D01*
X42917857Y26699515D02*
X42946428Y26642372D01*
X42946428Y26642372D02*
X42946428Y26499515D01*
X42946428Y26499515D02*
X42917857Y26442372D01*
X42917857Y26442372D02*
X42889286Y26413800D01*
X42889286Y26413800D02*
X42832143Y26385229D01*
X42832143Y26385229D02*
X42689286Y26385229D01*
X42689286Y26385229D02*
X42632143Y26413800D01*
X42632143Y26413800D02*
X42603571Y26442372D01*
X33147381Y6597705D02*
X33414048Y5797705D01*
X33414048Y5797705D02*
X33680714Y6597705D01*
X33947381Y5797705D02*
X33947381Y6597705D01*
X33947381Y6597705D02*
X34137857Y6597705D01*
X34137857Y6597705D02*
X34252143Y6559610D01*
X34252143Y6559610D02*
X34328333Y6483420D01*
X34328333Y6483420D02*
X34366428Y6407229D01*
X34366428Y6407229D02*
X34404524Y6254848D01*
X34404524Y6254848D02*
X34404524Y6140562D01*
X34404524Y6140562D02*
X34366428Y5988181D01*
X34366428Y5988181D02*
X34328333Y5911991D01*
X34328333Y5911991D02*
X34252143Y5835800D01*
X34252143Y5835800D02*
X34137857Y5797705D01*
X34137857Y5797705D02*
X33947381Y5797705D01*
X34671190Y6597705D02*
X35166428Y6597705D01*
X35166428Y6597705D02*
X34899762Y6292943D01*
X34899762Y6292943D02*
X35014047Y6292943D01*
X35014047Y6292943D02*
X35090238Y6254848D01*
X35090238Y6254848D02*
X35128333Y6216753D01*
X35128333Y6216753D02*
X35166428Y6140562D01*
X35166428Y6140562D02*
X35166428Y5950086D01*
X35166428Y5950086D02*
X35128333Y5873896D01*
X35128333Y5873896D02*
X35090238Y5835800D01*
X35090238Y5835800D02*
X35014047Y5797705D01*
X35014047Y5797705D02*
X34785476Y5797705D01*
X34785476Y5797705D02*
X34709285Y5835800D01*
X34709285Y5835800D02*
X34671190Y5873896D01*
X12727628Y44889286D02*
X12756200Y44860714D01*
X12756200Y44860714D02*
X12784771Y44775000D01*
X12784771Y44775000D02*
X12784771Y44717857D01*
X12784771Y44717857D02*
X12756200Y44632143D01*
X12756200Y44632143D02*
X12699057Y44575000D01*
X12699057Y44575000D02*
X12641914Y44546429D01*
X12641914Y44546429D02*
X12527628Y44517857D01*
X12527628Y44517857D02*
X12441914Y44517857D01*
X12441914Y44517857D02*
X12327628Y44546429D01*
X12327628Y44546429D02*
X12270485Y44575000D01*
X12270485Y44575000D02*
X12213342Y44632143D01*
X12213342Y44632143D02*
X12184771Y44717857D01*
X12184771Y44717857D02*
X12184771Y44775000D01*
X12184771Y44775000D02*
X12213342Y44860714D01*
X12213342Y44860714D02*
X12241914Y44889286D01*
X12184771Y45089286D02*
X12184771Y45460714D01*
X12184771Y45460714D02*
X12413342Y45260714D01*
X12413342Y45260714D02*
X12413342Y45346429D01*
X12413342Y45346429D02*
X12441914Y45403571D01*
X12441914Y45403571D02*
X12470485Y45432143D01*
X12470485Y45432143D02*
X12527628Y45460714D01*
X12527628Y45460714D02*
X12670485Y45460714D01*
X12670485Y45460714D02*
X12727628Y45432143D01*
X12727628Y45432143D02*
X12756200Y45403571D01*
X12756200Y45403571D02*
X12784771Y45346429D01*
X12784771Y45346429D02*
X12784771Y45175000D01*
X12784771Y45175000D02*
X12756200Y45117857D01*
X12756200Y45117857D02*
X12727628Y45089286D01*
X12184771Y46003572D02*
X12184771Y45717858D01*
X12184771Y45717858D02*
X12470485Y45689286D01*
X12470485Y45689286D02*
X12441914Y45717858D01*
X12441914Y45717858D02*
X12413342Y45775000D01*
X12413342Y45775000D02*
X12413342Y45917858D01*
X12413342Y45917858D02*
X12441914Y45975000D01*
X12441914Y45975000D02*
X12470485Y46003572D01*
X12470485Y46003572D02*
X12527628Y46032143D01*
X12527628Y46032143D02*
X12670485Y46032143D01*
X12670485Y46032143D02*
X12727628Y46003572D01*
X12727628Y46003572D02*
X12756200Y45975000D01*
X12756200Y45975000D02*
X12784771Y45917858D01*
X12784771Y45917858D02*
X12784771Y45775000D01*
X12784771Y45775000D02*
X12756200Y45717858D01*
X12756200Y45717858D02*
X12727628Y45689286D01*
X15614771Y26464286D02*
X15329057Y26264286D01*
X15614771Y26121429D02*
X15014771Y26121429D01*
X15014771Y26121429D02*
X15014771Y26350000D01*
X15014771Y26350000D02*
X15043342Y26407143D01*
X15043342Y26407143D02*
X15071914Y26435714D01*
X15071914Y26435714D02*
X15129057Y26464286D01*
X15129057Y26464286D02*
X15214771Y26464286D01*
X15214771Y26464286D02*
X15271914Y26435714D01*
X15271914Y26435714D02*
X15300485Y26407143D01*
X15300485Y26407143D02*
X15329057Y26350000D01*
X15329057Y26350000D02*
X15329057Y26121429D01*
X15614771Y27035714D02*
X15614771Y26692857D01*
X15614771Y26864286D02*
X15014771Y26864286D01*
X15014771Y26864286D02*
X15100485Y26807143D01*
X15100485Y26807143D02*
X15157628Y26750000D01*
X15157628Y26750000D02*
X15186200Y26692857D01*
X15014771Y27235715D02*
X15014771Y27607143D01*
X15014771Y27607143D02*
X15243342Y27407143D01*
X15243342Y27407143D02*
X15243342Y27492858D01*
X15243342Y27492858D02*
X15271914Y27550000D01*
X15271914Y27550000D02*
X15300485Y27578572D01*
X15300485Y27578572D02*
X15357628Y27607143D01*
X15357628Y27607143D02*
X15500485Y27607143D01*
X15500485Y27607143D02*
X15557628Y27578572D01*
X15557628Y27578572D02*
X15586200Y27550000D01*
X15586200Y27550000D02*
X15614771Y27492858D01*
X15614771Y27492858D02*
X15614771Y27321429D01*
X15614771Y27321429D02*
X15586200Y27264286D01*
X15586200Y27264286D02*
X15557628Y27235715D01*
X13337628Y54699286D02*
X13366200Y54670714D01*
X13366200Y54670714D02*
X13394771Y54585000D01*
X13394771Y54585000D02*
X13394771Y54527857D01*
X13394771Y54527857D02*
X13366200Y54442143D01*
X13366200Y54442143D02*
X13309057Y54385000D01*
X13309057Y54385000D02*
X13251914Y54356429D01*
X13251914Y54356429D02*
X13137628Y54327857D01*
X13137628Y54327857D02*
X13051914Y54327857D01*
X13051914Y54327857D02*
X12937628Y54356429D01*
X12937628Y54356429D02*
X12880485Y54385000D01*
X12880485Y54385000D02*
X12823342Y54442143D01*
X12823342Y54442143D02*
X12794771Y54527857D01*
X12794771Y54527857D02*
X12794771Y54585000D01*
X12794771Y54585000D02*
X12823342Y54670714D01*
X12823342Y54670714D02*
X12851914Y54699286D01*
X12794771Y54899286D02*
X12794771Y55270714D01*
X12794771Y55270714D02*
X13023342Y55070714D01*
X13023342Y55070714D02*
X13023342Y55156429D01*
X13023342Y55156429D02*
X13051914Y55213571D01*
X13051914Y55213571D02*
X13080485Y55242143D01*
X13080485Y55242143D02*
X13137628Y55270714D01*
X13137628Y55270714D02*
X13280485Y55270714D01*
X13280485Y55270714D02*
X13337628Y55242143D01*
X13337628Y55242143D02*
X13366200Y55213571D01*
X13366200Y55213571D02*
X13394771Y55156429D01*
X13394771Y55156429D02*
X13394771Y54985000D01*
X13394771Y54985000D02*
X13366200Y54927857D01*
X13366200Y54927857D02*
X13337628Y54899286D01*
X12794771Y55470715D02*
X12794771Y55870715D01*
X12794771Y55870715D02*
X13394771Y55613572D01*
X35664285Y15355229D02*
X35464285Y15640943D01*
X35321428Y15355229D02*
X35321428Y15955229D01*
X35321428Y15955229D02*
X35549999Y15955229D01*
X35549999Y15955229D02*
X35607142Y15926658D01*
X35607142Y15926658D02*
X35635713Y15898086D01*
X35635713Y15898086D02*
X35664285Y15840943D01*
X35664285Y15840943D02*
X35664285Y15755229D01*
X35664285Y15755229D02*
X35635713Y15698086D01*
X35635713Y15698086D02*
X35607142Y15669515D01*
X35607142Y15669515D02*
X35549999Y15640943D01*
X35549999Y15640943D02*
X35321428Y15640943D01*
X36235713Y15355229D02*
X35892856Y15355229D01*
X36064285Y15355229D02*
X36064285Y15955229D01*
X36064285Y15955229D02*
X36007142Y15869515D01*
X36007142Y15869515D02*
X35949999Y15812372D01*
X35949999Y15812372D02*
X35892856Y15783800D01*
X36521428Y15355229D02*
X36635714Y15355229D01*
X36635714Y15355229D02*
X36692857Y15383800D01*
X36692857Y15383800D02*
X36721428Y15412372D01*
X36721428Y15412372D02*
X36778571Y15498086D01*
X36778571Y15498086D02*
X36807142Y15612372D01*
X36807142Y15612372D02*
X36807142Y15840943D01*
X36807142Y15840943D02*
X36778571Y15898086D01*
X36778571Y15898086D02*
X36750000Y15926658D01*
X36750000Y15926658D02*
X36692857Y15955229D01*
X36692857Y15955229D02*
X36578571Y15955229D01*
X36578571Y15955229D02*
X36521428Y15926658D01*
X36521428Y15926658D02*
X36492857Y15898086D01*
X36492857Y15898086D02*
X36464285Y15840943D01*
X36464285Y15840943D02*
X36464285Y15698086D01*
X36464285Y15698086D02*
X36492857Y15640943D01*
X36492857Y15640943D02*
X36521428Y15612372D01*
X36521428Y15612372D02*
X36578571Y15583800D01*
X36578571Y15583800D02*
X36692857Y15583800D01*
X36692857Y15583800D02*
X36750000Y15612372D01*
X36750000Y15612372D02*
X36778571Y15640943D01*
X36778571Y15640943D02*
X36807142Y15698086D01*
X47624285Y49292372D02*
X47595713Y49263800D01*
X47595713Y49263800D02*
X47509999Y49235229D01*
X47509999Y49235229D02*
X47452856Y49235229D01*
X47452856Y49235229D02*
X47367142Y49263800D01*
X47367142Y49263800D02*
X47309999Y49320943D01*
X47309999Y49320943D02*
X47281428Y49378086D01*
X47281428Y49378086D02*
X47252856Y49492372D01*
X47252856Y49492372D02*
X47252856Y49578086D01*
X47252856Y49578086D02*
X47281428Y49692372D01*
X47281428Y49692372D02*
X47309999Y49749515D01*
X47309999Y49749515D02*
X47367142Y49806658D01*
X47367142Y49806658D02*
X47452856Y49835229D01*
X47452856Y49835229D02*
X47509999Y49835229D01*
X47509999Y49835229D02*
X47595713Y49806658D01*
X47595713Y49806658D02*
X47624285Y49778086D01*
X47852856Y49778086D02*
X47881428Y49806658D01*
X47881428Y49806658D02*
X47938571Y49835229D01*
X47938571Y49835229D02*
X48081428Y49835229D01*
X48081428Y49835229D02*
X48138571Y49806658D01*
X48138571Y49806658D02*
X48167142Y49778086D01*
X48167142Y49778086D02*
X48195713Y49720943D01*
X48195713Y49720943D02*
X48195713Y49663800D01*
X48195713Y49663800D02*
X48167142Y49578086D01*
X48167142Y49578086D02*
X47824285Y49235229D01*
X47824285Y49235229D02*
X48195713Y49235229D01*
X48738571Y49835229D02*
X48452857Y49835229D01*
X48452857Y49835229D02*
X48424285Y49549515D01*
X48424285Y49549515D02*
X48452857Y49578086D01*
X48452857Y49578086D02*
X48510000Y49606658D01*
X48510000Y49606658D02*
X48652857Y49606658D01*
X48652857Y49606658D02*
X48710000Y49578086D01*
X48710000Y49578086D02*
X48738571Y49549515D01*
X48738571Y49549515D02*
X48767142Y49492372D01*
X48767142Y49492372D02*
X48767142Y49349515D01*
X48767142Y49349515D02*
X48738571Y49292372D01*
X48738571Y49292372D02*
X48710000Y49263800D01*
X48710000Y49263800D02*
X48652857Y49235229D01*
X48652857Y49235229D02*
X48510000Y49235229D01*
X48510000Y49235229D02*
X48452857Y49263800D01*
X48452857Y49263800D02*
X48424285Y49292372D01*
X12939285Y58630229D02*
X12739285Y58915943D01*
X12596428Y58630229D02*
X12596428Y59230229D01*
X12596428Y59230229D02*
X12824999Y59230229D01*
X12824999Y59230229D02*
X12882142Y59201658D01*
X12882142Y59201658D02*
X12910713Y59173086D01*
X12910713Y59173086D02*
X12939285Y59115943D01*
X12939285Y59115943D02*
X12939285Y59030229D01*
X12939285Y59030229D02*
X12910713Y58973086D01*
X12910713Y58973086D02*
X12882142Y58944515D01*
X12882142Y58944515D02*
X12824999Y58915943D01*
X12824999Y58915943D02*
X12596428Y58915943D01*
X13510713Y58630229D02*
X13167856Y58630229D01*
X13339285Y58630229D02*
X13339285Y59230229D01*
X13339285Y59230229D02*
X13282142Y59144515D01*
X13282142Y59144515D02*
X13224999Y59087372D01*
X13224999Y59087372D02*
X13167856Y59058800D01*
X13710714Y59230229D02*
X14110714Y59230229D01*
X14110714Y59230229D02*
X13853571Y58630229D01*
X19773213Y28229629D02*
X19973213Y27629629D01*
X19973213Y27629629D02*
X20173213Y28229629D01*
X20287499Y28229629D02*
X20630357Y28229629D01*
X20458928Y27629629D02*
X20458928Y28229629D01*
X20801785Y28172486D02*
X20830357Y28201058D01*
X20830357Y28201058D02*
X20887500Y28229629D01*
X20887500Y28229629D02*
X21030357Y28229629D01*
X21030357Y28229629D02*
X21087500Y28201058D01*
X21087500Y28201058D02*
X21116071Y28172486D01*
X21116071Y28172486D02*
X21144642Y28115343D01*
X21144642Y28115343D02*
X21144642Y28058200D01*
X21144642Y28058200D02*
X21116071Y27972486D01*
X21116071Y27972486D02*
X20773214Y27629629D01*
X20773214Y27629629D02*
X21144642Y27629629D01*
X15258476Y44253960D02*
X15218070Y44253960D01*
X15218070Y44253960D02*
X15137258Y44294366D01*
X15137258Y44294366D02*
X15096851Y44334772D01*
X15096851Y44334772D02*
X15056445Y44415584D01*
X15056445Y44415584D02*
X15056445Y44496396D01*
X15056445Y44496396D02*
X15076648Y44557006D01*
X15076648Y44557006D02*
X15137258Y44658021D01*
X15137258Y44658021D02*
X15197867Y44718630D01*
X15197867Y44718630D02*
X15298882Y44779239D01*
X15298882Y44779239D02*
X15359491Y44799442D01*
X15359491Y44799442D02*
X15440303Y44799442D01*
X15440303Y44799442D02*
X15521116Y44759036D01*
X15521116Y44759036D02*
X15561522Y44718630D01*
X15561522Y44718630D02*
X15601928Y44637818D01*
X15601928Y44637818D02*
X15601928Y44597412D01*
X15783755Y44496396D02*
X16046395Y44233757D01*
X16046395Y44233757D02*
X15743349Y44213554D01*
X15743349Y44213554D02*
X15803958Y44152945D01*
X15803958Y44152945D02*
X15824161Y44092335D01*
X15824161Y44092335D02*
X15824161Y44051929D01*
X15824161Y44051929D02*
X15803958Y43991320D01*
X15803958Y43991320D02*
X15702943Y43890305D01*
X15702943Y43890305D02*
X15642334Y43870102D01*
X15642334Y43870102D02*
X15601928Y43870102D01*
X15601928Y43870102D02*
X15541319Y43890305D01*
X15541319Y43890305D02*
X15420100Y44011523D01*
X15420100Y44011523D02*
X15399897Y44072132D01*
X15399897Y44072132D02*
X15399897Y44112539D01*
X16268629Y43728680D02*
X15985786Y43445838D01*
X16329238Y43991320D02*
X15925177Y43789289D01*
X15925177Y43789289D02*
X16187817Y43526650D01*
X39825000Y15280229D02*
X39625000Y15565943D01*
X39482143Y15280229D02*
X39482143Y15880229D01*
X39482143Y15880229D02*
X39710714Y15880229D01*
X39710714Y15880229D02*
X39767857Y15851658D01*
X39767857Y15851658D02*
X39796428Y15823086D01*
X39796428Y15823086D02*
X39825000Y15765943D01*
X39825000Y15765943D02*
X39825000Y15680229D01*
X39825000Y15680229D02*
X39796428Y15623086D01*
X39796428Y15623086D02*
X39767857Y15594515D01*
X39767857Y15594515D02*
X39710714Y15565943D01*
X39710714Y15565943D02*
X39482143Y15565943D01*
X40396428Y15280229D02*
X40053571Y15280229D01*
X40225000Y15280229D02*
X40225000Y15880229D01*
X40225000Y15880229D02*
X40167857Y15794515D01*
X40167857Y15794515D02*
X40110714Y15737372D01*
X40110714Y15737372D02*
X40053571Y15708800D01*
X6037857Y53205229D02*
X5752143Y53205229D01*
X5752143Y53205229D02*
X5752143Y53805229D01*
X6180714Y53805229D02*
X6580714Y53805229D01*
X6580714Y53805229D02*
X6323571Y53205229D01*
X41143771Y56943001D02*
X41143771Y57343001D01*
X41143771Y57343001D02*
X41743771Y56943001D01*
X41743771Y56943001D02*
X41743771Y57343001D01*
X41800914Y57971573D02*
X41772342Y57914430D01*
X41772342Y57914430D02*
X41715200Y57857287D01*
X41715200Y57857287D02*
X41629485Y57771573D01*
X41629485Y57771573D02*
X41600914Y57714430D01*
X41600914Y57714430D02*
X41600914Y57657287D01*
X41743771Y57685858D02*
X41715200Y57628715D01*
X41715200Y57628715D02*
X41658057Y57571573D01*
X41658057Y57571573D02*
X41543771Y57543001D01*
X41543771Y57543001D02*
X41343771Y57543001D01*
X41343771Y57543001D02*
X41229485Y57571573D01*
X41229485Y57571573D02*
X41172342Y57628715D01*
X41172342Y57628715D02*
X41143771Y57685858D01*
X41143771Y57685858D02*
X41143771Y57800144D01*
X41143771Y57800144D02*
X41172342Y57857287D01*
X41172342Y57857287D02*
X41229485Y57914430D01*
X41229485Y57914430D02*
X41343771Y57943001D01*
X41343771Y57943001D02*
X41543771Y57943001D01*
X41543771Y57943001D02*
X41658057Y57914430D01*
X41658057Y57914430D02*
X41715200Y57857287D01*
X41715200Y57857287D02*
X41743771Y57800144D01*
X41743771Y57800144D02*
X41743771Y57685858D01*
X41143771Y58143001D02*
X41143771Y58514429D01*
X41143771Y58514429D02*
X41372342Y58314429D01*
X41372342Y58314429D02*
X41372342Y58400144D01*
X41372342Y58400144D02*
X41400914Y58457286D01*
X41400914Y58457286D02*
X41429485Y58485858D01*
X41429485Y58485858D02*
X41486628Y58514429D01*
X41486628Y58514429D02*
X41629485Y58514429D01*
X41629485Y58514429D02*
X41686628Y58485858D01*
X41686628Y58485858D02*
X41715200Y58457286D01*
X41715200Y58457286D02*
X41743771Y58400144D01*
X41743771Y58400144D02*
X41743771Y58228715D01*
X41743771Y58228715D02*
X41715200Y58171572D01*
X41715200Y58171572D02*
X41686628Y58143001D01*
X17573213Y18833229D02*
X17773213Y18233229D01*
X17773213Y18233229D02*
X17973213Y18833229D01*
X18087499Y18833229D02*
X18430357Y18833229D01*
X18258928Y18233229D02*
X18258928Y18833229D01*
X18573214Y18833229D02*
X18944642Y18833229D01*
X18944642Y18833229D02*
X18744642Y18604658D01*
X18744642Y18604658D02*
X18830357Y18604658D01*
X18830357Y18604658D02*
X18887500Y18576086D01*
X18887500Y18576086D02*
X18916071Y18547515D01*
X18916071Y18547515D02*
X18944642Y18490372D01*
X18944642Y18490372D02*
X18944642Y18347515D01*
X18944642Y18347515D02*
X18916071Y18290372D01*
X18916071Y18290372D02*
X18887500Y18261800D01*
X18887500Y18261800D02*
X18830357Y18233229D01*
X18830357Y18233229D02*
X18658928Y18233229D01*
X18658928Y18233229D02*
X18601785Y18261800D01*
X18601785Y18261800D02*
X18573214Y18290372D01*
X38375000Y55905229D02*
X38089286Y55905229D01*
X38089286Y55905229D02*
X38089286Y56505229D01*
X38889285Y55905229D02*
X38546428Y55905229D01*
X38717857Y55905229D02*
X38717857Y56505229D01*
X38717857Y56505229D02*
X38660714Y56419515D01*
X38660714Y56419515D02*
X38603571Y56362372D01*
X38603571Y56362372D02*
X38546428Y56333800D01*
X5439285Y51992372D02*
X5410713Y51963800D01*
X5410713Y51963800D02*
X5324999Y51935229D01*
X5324999Y51935229D02*
X5267856Y51935229D01*
X5267856Y51935229D02*
X5182142Y51963800D01*
X5182142Y51963800D02*
X5124999Y52020943D01*
X5124999Y52020943D02*
X5096428Y52078086D01*
X5096428Y52078086D02*
X5067856Y52192372D01*
X5067856Y52192372D02*
X5067856Y52278086D01*
X5067856Y52278086D02*
X5096428Y52392372D01*
X5096428Y52392372D02*
X5124999Y52449515D01*
X5124999Y52449515D02*
X5182142Y52506658D01*
X5182142Y52506658D02*
X5267856Y52535229D01*
X5267856Y52535229D02*
X5324999Y52535229D01*
X5324999Y52535229D02*
X5410713Y52506658D01*
X5410713Y52506658D02*
X5439285Y52478086D01*
X5953571Y52335229D02*
X5953571Y51935229D01*
X5810713Y52563800D02*
X5667856Y52135229D01*
X5667856Y52135229D02*
X6039285Y52135229D01*
X6382142Y52535229D02*
X6439285Y52535229D01*
X6439285Y52535229D02*
X6496428Y52506658D01*
X6496428Y52506658D02*
X6525000Y52478086D01*
X6525000Y52478086D02*
X6553571Y52420943D01*
X6553571Y52420943D02*
X6582142Y52306658D01*
X6582142Y52306658D02*
X6582142Y52163800D01*
X6582142Y52163800D02*
X6553571Y52049515D01*
X6553571Y52049515D02*
X6525000Y51992372D01*
X6525000Y51992372D02*
X6496428Y51963800D01*
X6496428Y51963800D02*
X6439285Y51935229D01*
X6439285Y51935229D02*
X6382142Y51935229D01*
X6382142Y51935229D02*
X6325000Y51963800D01*
X6325000Y51963800D02*
X6296428Y51992372D01*
X6296428Y51992372D02*
X6267857Y52049515D01*
X6267857Y52049515D02*
X6239285Y52163800D01*
X6239285Y52163800D02*
X6239285Y52306658D01*
X6239285Y52306658D02*
X6267857Y52420943D01*
X6267857Y52420943D02*
X6296428Y52478086D01*
X6296428Y52478086D02*
X6325000Y52506658D01*
X6325000Y52506658D02*
X6382142Y52535229D01*
X5954524Y18180181D02*
X5954524Y19180181D01*
X5954524Y18703991D02*
X6525952Y18703991D01*
X6525952Y18180181D02*
X6525952Y19180181D01*
X6954524Y18465896D02*
X7430714Y18465896D01*
X6859286Y18180181D02*
X7192619Y19180181D01*
X7192619Y19180181D02*
X7525952Y18180181D01*
X8383095Y18180181D02*
X7811667Y18180181D01*
X8097381Y18180181D02*
X8097381Y19180181D01*
X8097381Y19180181D02*
X8002143Y19037324D01*
X8002143Y19037324D02*
X7906905Y18942086D01*
X7906905Y18942086D02*
X7811667Y18894467D01*
X11198866Y15954049D02*
X11198866Y16715953D01*
X11579819Y16335001D02*
X10817914Y16335001D01*
X16046795Y44919853D02*
X16006389Y44919853D01*
X16006389Y44919853D02*
X15925577Y44960259D01*
X15925577Y44960259D02*
X15885170Y45000665D01*
X15885170Y45000665D02*
X15844764Y45081477D01*
X15844764Y45081477D02*
X15844764Y45162289D01*
X15844764Y45162289D02*
X15864967Y45222899D01*
X15864967Y45222899D02*
X15925577Y45323914D01*
X15925577Y45323914D02*
X15986186Y45384523D01*
X15986186Y45384523D02*
X16087201Y45445132D01*
X16087201Y45445132D02*
X16147810Y45465335D01*
X16147810Y45465335D02*
X16228622Y45465335D01*
X16228622Y45465335D02*
X16309435Y45424929D01*
X16309435Y45424929D02*
X16349841Y45384523D01*
X16349841Y45384523D02*
X16390247Y45303711D01*
X16390247Y45303711D02*
X16390247Y45263305D01*
X16572074Y45162289D02*
X16834714Y44899650D01*
X16834714Y44899650D02*
X16531668Y44879447D01*
X16531668Y44879447D02*
X16592277Y44818838D01*
X16592277Y44818838D02*
X16612480Y44758228D01*
X16612480Y44758228D02*
X16612480Y44717822D01*
X16612480Y44717822D02*
X16592277Y44657213D01*
X16592277Y44657213D02*
X16491262Y44556198D01*
X16491262Y44556198D02*
X16430653Y44535995D01*
X16430653Y44535995D02*
X16390247Y44535995D01*
X16390247Y44535995D02*
X16329638Y44556198D01*
X16329638Y44556198D02*
X16208419Y44677416D01*
X16208419Y44677416D02*
X16188216Y44738025D01*
X16188216Y44738025D02*
X16188216Y44778432D01*
X16976136Y44758228D02*
X17238775Y44495589D01*
X17238775Y44495589D02*
X16935729Y44475385D01*
X16935729Y44475385D02*
X16996339Y44414776D01*
X16996339Y44414776D02*
X17016542Y44354167D01*
X17016542Y44354167D02*
X17016542Y44313761D01*
X17016542Y44313761D02*
X16996339Y44253152D01*
X16996339Y44253152D02*
X16895323Y44152137D01*
X16895323Y44152137D02*
X16834714Y44131934D01*
X16834714Y44131934D02*
X16794308Y44131934D01*
X16794308Y44131934D02*
X16733699Y44152137D01*
X16733699Y44152137D02*
X16612481Y44273355D01*
X16612481Y44273355D02*
X16592278Y44333964D01*
X16592278Y44333964D02*
X16592278Y44374370D01*
X35614285Y19005229D02*
X35414285Y19290943D01*
X35271428Y19005229D02*
X35271428Y19605229D01*
X35271428Y19605229D02*
X35499999Y19605229D01*
X35499999Y19605229D02*
X35557142Y19576658D01*
X35557142Y19576658D02*
X35585713Y19548086D01*
X35585713Y19548086D02*
X35614285Y19490943D01*
X35614285Y19490943D02*
X35614285Y19405229D01*
X35614285Y19405229D02*
X35585713Y19348086D01*
X35585713Y19348086D02*
X35557142Y19319515D01*
X35557142Y19319515D02*
X35499999Y19290943D01*
X35499999Y19290943D02*
X35271428Y19290943D01*
X35842856Y19548086D02*
X35871428Y19576658D01*
X35871428Y19576658D02*
X35928571Y19605229D01*
X35928571Y19605229D02*
X36071428Y19605229D01*
X36071428Y19605229D02*
X36128571Y19576658D01*
X36128571Y19576658D02*
X36157142Y19548086D01*
X36157142Y19548086D02*
X36185713Y19490943D01*
X36185713Y19490943D02*
X36185713Y19433800D01*
X36185713Y19433800D02*
X36157142Y19348086D01*
X36157142Y19348086D02*
X35814285Y19005229D01*
X35814285Y19005229D02*
X36185713Y19005229D01*
X36757142Y19005229D02*
X36414285Y19005229D01*
X36585714Y19005229D02*
X36585714Y19605229D01*
X36585714Y19605229D02*
X36528571Y19519515D01*
X36528571Y19519515D02*
X36471428Y19462372D01*
X36471428Y19462372D02*
X36414285Y19433800D01*
X21509180Y48058477D02*
X21509180Y48018071D01*
X21509180Y48018071D02*
X21468774Y47937259D01*
X21468774Y47937259D02*
X21428368Y47896852D01*
X21428368Y47896852D02*
X21347556Y47856446D01*
X21347556Y47856446D02*
X21266744Y47856446D01*
X21266744Y47856446D02*
X21206134Y47876649D01*
X21206134Y47876649D02*
X21105119Y47937259D01*
X21105119Y47937259D02*
X21044510Y47997868D01*
X21044510Y47997868D02*
X20983901Y48098883D01*
X20983901Y48098883D02*
X20963698Y48159492D01*
X20963698Y48159492D02*
X20963698Y48240304D01*
X20963698Y48240304D02*
X21004104Y48321117D01*
X21004104Y48321117D02*
X21044510Y48361523D01*
X21044510Y48361523D02*
X21125322Y48401929D01*
X21125322Y48401929D02*
X21165728Y48401929D01*
X21327353Y48563553D02*
X21327353Y48603959D01*
X21327353Y48603959D02*
X21347556Y48664568D01*
X21347556Y48664568D02*
X21448571Y48765584D01*
X21448571Y48765584D02*
X21509180Y48785787D01*
X21509180Y48785787D02*
X21549586Y48785787D01*
X21549586Y48785787D02*
X21610195Y48765584D01*
X21610195Y48765584D02*
X21650601Y48725178D01*
X21650601Y48725178D02*
X21691008Y48644365D01*
X21691008Y48644365D02*
X21691008Y48159492D01*
X21691008Y48159492D02*
X21953647Y48422132D01*
X21792023Y49109036D02*
X21832429Y49149442D01*
X21832429Y49149442D02*
X21893038Y49169645D01*
X21893038Y49169645D02*
X21933444Y49169645D01*
X21933444Y49169645D02*
X21994054Y49149442D01*
X21994054Y49149442D02*
X22095069Y49088833D01*
X22095069Y49088833D02*
X22196084Y48987818D01*
X22196084Y48987818D02*
X22256693Y48886802D01*
X22256693Y48886802D02*
X22276896Y48826193D01*
X22276896Y48826193D02*
X22276896Y48785787D01*
X22276896Y48785787D02*
X22256693Y48725178D01*
X22256693Y48725178D02*
X22216287Y48684772D01*
X22216287Y48684772D02*
X22155678Y48664569D01*
X22155678Y48664569D02*
X22115272Y48664569D01*
X22115272Y48664569D02*
X22054663Y48684772D01*
X22054663Y48684772D02*
X21953648Y48745381D01*
X21953648Y48745381D02*
X21852632Y48846396D01*
X21852632Y48846396D02*
X21792023Y48947411D01*
X21792023Y48947411D02*
X21771820Y49008021D01*
X21771820Y49008021D02*
X21771820Y49048427D01*
X21771820Y49048427D02*
X21792023Y49109036D01*
X13959285Y29682372D02*
X13930713Y29653800D01*
X13930713Y29653800D02*
X13844999Y29625229D01*
X13844999Y29625229D02*
X13787856Y29625229D01*
X13787856Y29625229D02*
X13702142Y29653800D01*
X13702142Y29653800D02*
X13644999Y29710943D01*
X13644999Y29710943D02*
X13616428Y29768086D01*
X13616428Y29768086D02*
X13587856Y29882372D01*
X13587856Y29882372D02*
X13587856Y29968086D01*
X13587856Y29968086D02*
X13616428Y30082372D01*
X13616428Y30082372D02*
X13644999Y30139515D01*
X13644999Y30139515D02*
X13702142Y30196658D01*
X13702142Y30196658D02*
X13787856Y30225229D01*
X13787856Y30225229D02*
X13844999Y30225229D01*
X13844999Y30225229D02*
X13930713Y30196658D01*
X13930713Y30196658D02*
X13959285Y30168086D01*
X14530713Y29625229D02*
X14187856Y29625229D01*
X14359285Y29625229D02*
X14359285Y30225229D01*
X14359285Y30225229D02*
X14302142Y30139515D01*
X14302142Y30139515D02*
X14244999Y30082372D01*
X14244999Y30082372D02*
X14187856Y30053800D01*
X15045000Y30225229D02*
X14930714Y30225229D01*
X14930714Y30225229D02*
X14873571Y30196658D01*
X14873571Y30196658D02*
X14845000Y30168086D01*
X14845000Y30168086D02*
X14787857Y30082372D01*
X14787857Y30082372D02*
X14759285Y29968086D01*
X14759285Y29968086D02*
X14759285Y29739515D01*
X14759285Y29739515D02*
X14787857Y29682372D01*
X14787857Y29682372D02*
X14816428Y29653800D01*
X14816428Y29653800D02*
X14873571Y29625229D01*
X14873571Y29625229D02*
X14987857Y29625229D01*
X14987857Y29625229D02*
X15045000Y29653800D01*
X15045000Y29653800D02*
X15073571Y29682372D01*
X15073571Y29682372D02*
X15102142Y29739515D01*
X15102142Y29739515D02*
X15102142Y29882372D01*
X15102142Y29882372D02*
X15073571Y29939515D01*
X15073571Y29939515D02*
X15045000Y29968086D01*
X15045000Y29968086D02*
X14987857Y29996658D01*
X14987857Y29996658D02*
X14873571Y29996658D01*
X14873571Y29996658D02*
X14816428Y29968086D01*
X14816428Y29968086D02*
X14787857Y29939515D01*
X14787857Y29939515D02*
X14759285Y29882372D01*
X44294771Y48639286D02*
X44009057Y48439286D01*
X44294771Y48296429D02*
X43694771Y48296429D01*
X43694771Y48296429D02*
X43694771Y48525000D01*
X43694771Y48525000D02*
X43723342Y48582143D01*
X43723342Y48582143D02*
X43751914Y48610714D01*
X43751914Y48610714D02*
X43809057Y48639286D01*
X43809057Y48639286D02*
X43894771Y48639286D01*
X43894771Y48639286D02*
X43951914Y48610714D01*
X43951914Y48610714D02*
X43980485Y48582143D01*
X43980485Y48582143D02*
X44009057Y48525000D01*
X44009057Y48525000D02*
X44009057Y48296429D01*
X44294771Y49210714D02*
X44294771Y48867857D01*
X44294771Y49039286D02*
X43694771Y49039286D01*
X43694771Y49039286D02*
X43780485Y48982143D01*
X43780485Y48982143D02*
X43837628Y48925000D01*
X43837628Y48925000D02*
X43866200Y48867857D01*
X43694771Y49753572D02*
X43694771Y49467858D01*
X43694771Y49467858D02*
X43980485Y49439286D01*
X43980485Y49439286D02*
X43951914Y49467858D01*
X43951914Y49467858D02*
X43923342Y49525000D01*
X43923342Y49525000D02*
X43923342Y49667858D01*
X43923342Y49667858D02*
X43951914Y49725000D01*
X43951914Y49725000D02*
X43980485Y49753572D01*
X43980485Y49753572D02*
X44037628Y49782143D01*
X44037628Y49782143D02*
X44180485Y49782143D01*
X44180485Y49782143D02*
X44237628Y49753572D01*
X44237628Y49753572D02*
X44266200Y49725000D01*
X44266200Y49725000D02*
X44294771Y49667858D01*
X44294771Y49667858D02*
X44294771Y49525000D01*
X44294771Y49525000D02*
X44266200Y49467858D01*
X44266200Y49467858D02*
X44237628Y49439286D01*
X24884644Y50054873D02*
X24884644Y50014467D01*
X24884644Y50014467D02*
X24844238Y49933655D01*
X24844238Y49933655D02*
X24803832Y49893248D01*
X24803832Y49893248D02*
X24723020Y49852842D01*
X24723020Y49852842D02*
X24642208Y49852842D01*
X24642208Y49852842D02*
X24581598Y49873045D01*
X24581598Y49873045D02*
X24480583Y49933655D01*
X24480583Y49933655D02*
X24419974Y49994264D01*
X24419974Y49994264D02*
X24359365Y50095279D01*
X24359365Y50095279D02*
X24339162Y50155888D01*
X24339162Y50155888D02*
X24339162Y50236700D01*
X24339162Y50236700D02*
X24379568Y50317513D01*
X24379568Y50317513D02*
X24419974Y50357919D01*
X24419974Y50357919D02*
X24500786Y50398325D01*
X24500786Y50398325D02*
X24541192Y50398325D01*
X25329111Y50418528D02*
X25086675Y50176091D01*
X25207893Y50297310D02*
X24783629Y50721574D01*
X24783629Y50721574D02*
X24803832Y50620558D01*
X24803832Y50620558D02*
X24803832Y50539746D01*
X24803832Y50539746D02*
X24783629Y50479137D01*
X25409924Y51065026D02*
X25692766Y50782183D01*
X25147284Y51125635D02*
X25349315Y50721574D01*
X25349315Y50721574D02*
X25611954Y50984214D01*
X37724285Y48892372D02*
X37695713Y48863800D01*
X37695713Y48863800D02*
X37609999Y48835229D01*
X37609999Y48835229D02*
X37552856Y48835229D01*
X37552856Y48835229D02*
X37467142Y48863800D01*
X37467142Y48863800D02*
X37409999Y48920943D01*
X37409999Y48920943D02*
X37381428Y48978086D01*
X37381428Y48978086D02*
X37352856Y49092372D01*
X37352856Y49092372D02*
X37352856Y49178086D01*
X37352856Y49178086D02*
X37381428Y49292372D01*
X37381428Y49292372D02*
X37409999Y49349515D01*
X37409999Y49349515D02*
X37467142Y49406658D01*
X37467142Y49406658D02*
X37552856Y49435229D01*
X37552856Y49435229D02*
X37609999Y49435229D01*
X37609999Y49435229D02*
X37695713Y49406658D01*
X37695713Y49406658D02*
X37724285Y49378086D01*
X37952856Y49378086D02*
X37981428Y49406658D01*
X37981428Y49406658D02*
X38038571Y49435229D01*
X38038571Y49435229D02*
X38181428Y49435229D01*
X38181428Y49435229D02*
X38238571Y49406658D01*
X38238571Y49406658D02*
X38267142Y49378086D01*
X38267142Y49378086D02*
X38295713Y49320943D01*
X38295713Y49320943D02*
X38295713Y49263800D01*
X38295713Y49263800D02*
X38267142Y49178086D01*
X38267142Y49178086D02*
X37924285Y48835229D01*
X37924285Y48835229D02*
X38295713Y48835229D01*
X38581428Y48835229D02*
X38695714Y48835229D01*
X38695714Y48835229D02*
X38752857Y48863800D01*
X38752857Y48863800D02*
X38781428Y48892372D01*
X38781428Y48892372D02*
X38838571Y48978086D01*
X38838571Y48978086D02*
X38867142Y49092372D01*
X38867142Y49092372D02*
X38867142Y49320943D01*
X38867142Y49320943D02*
X38838571Y49378086D01*
X38838571Y49378086D02*
X38810000Y49406658D01*
X38810000Y49406658D02*
X38752857Y49435229D01*
X38752857Y49435229D02*
X38638571Y49435229D01*
X38638571Y49435229D02*
X38581428Y49406658D01*
X38581428Y49406658D02*
X38552857Y49378086D01*
X38552857Y49378086D02*
X38524285Y49320943D01*
X38524285Y49320943D02*
X38524285Y49178086D01*
X38524285Y49178086D02*
X38552857Y49120943D01*
X38552857Y49120943D02*
X38581428Y49092372D01*
X38581428Y49092372D02*
X38638571Y49063800D01*
X38638571Y49063800D02*
X38752857Y49063800D01*
X38752857Y49063800D02*
X38810000Y49092372D01*
X38810000Y49092372D02*
X38838571Y49120943D01*
X38838571Y49120943D02*
X38867142Y49178086D01*
X47178333Y11981753D02*
X46911667Y11981753D01*
X46911667Y11562705D02*
X46911667Y12362705D01*
X46911667Y12362705D02*
X47292619Y12362705D01*
X48016428Y11562705D02*
X47559285Y11562705D01*
X47787857Y11562705D02*
X47787857Y12362705D01*
X47787857Y12362705D02*
X47711666Y12248420D01*
X47711666Y12248420D02*
X47635476Y12172229D01*
X47635476Y12172229D02*
X47559285Y12134134D01*
X11400000Y61955229D02*
X11114286Y61955229D01*
X11114286Y61955229D02*
X11114286Y62555229D01*
X11685714Y62298086D02*
X11628571Y62326658D01*
X11628571Y62326658D02*
X11600000Y62355229D01*
X11600000Y62355229D02*
X11571428Y62412372D01*
X11571428Y62412372D02*
X11571428Y62440943D01*
X11571428Y62440943D02*
X11600000Y62498086D01*
X11600000Y62498086D02*
X11628571Y62526658D01*
X11628571Y62526658D02*
X11685714Y62555229D01*
X11685714Y62555229D02*
X11800000Y62555229D01*
X11800000Y62555229D02*
X11857143Y62526658D01*
X11857143Y62526658D02*
X11885714Y62498086D01*
X11885714Y62498086D02*
X11914285Y62440943D01*
X11914285Y62440943D02*
X11914285Y62412372D01*
X11914285Y62412372D02*
X11885714Y62355229D01*
X11885714Y62355229D02*
X11857143Y62326658D01*
X11857143Y62326658D02*
X11800000Y62298086D01*
X11800000Y62298086D02*
X11685714Y62298086D01*
X11685714Y62298086D02*
X11628571Y62269515D01*
X11628571Y62269515D02*
X11600000Y62240943D01*
X11600000Y62240943D02*
X11571428Y62183800D01*
X11571428Y62183800D02*
X11571428Y62069515D01*
X11571428Y62069515D02*
X11600000Y62012372D01*
X11600000Y62012372D02*
X11628571Y61983800D01*
X11628571Y61983800D02*
X11685714Y61955229D01*
X11685714Y61955229D02*
X11800000Y61955229D01*
X11800000Y61955229D02*
X11857143Y61983800D01*
X11857143Y61983800D02*
X11885714Y62012372D01*
X11885714Y62012372D02*
X11914285Y62069515D01*
X11914285Y62069515D02*
X11914285Y62183800D01*
X11914285Y62183800D02*
X11885714Y62240943D01*
X11885714Y62240943D02*
X11857143Y62269515D01*
X11857143Y62269515D02*
X11800000Y62298086D01*
X43267285Y60172372D02*
X43238713Y60143800D01*
X43238713Y60143800D02*
X43152999Y60115229D01*
X43152999Y60115229D02*
X43095856Y60115229D01*
X43095856Y60115229D02*
X43010142Y60143800D01*
X43010142Y60143800D02*
X42952999Y60200943D01*
X42952999Y60200943D02*
X42924428Y60258086D01*
X42924428Y60258086D02*
X42895856Y60372372D01*
X42895856Y60372372D02*
X42895856Y60458086D01*
X42895856Y60458086D02*
X42924428Y60572372D01*
X42924428Y60572372D02*
X42952999Y60629515D01*
X42952999Y60629515D02*
X43010142Y60686658D01*
X43010142Y60686658D02*
X43095856Y60715229D01*
X43095856Y60715229D02*
X43152999Y60715229D01*
X43152999Y60715229D02*
X43238713Y60686658D01*
X43238713Y60686658D02*
X43267285Y60658086D01*
X43838713Y60115229D02*
X43495856Y60115229D01*
X43667285Y60115229D02*
X43667285Y60715229D01*
X43667285Y60715229D02*
X43610142Y60629515D01*
X43610142Y60629515D02*
X43552999Y60572372D01*
X43552999Y60572372D02*
X43495856Y60543800D01*
X44124428Y60115229D02*
X44238714Y60115229D01*
X44238714Y60115229D02*
X44295857Y60143800D01*
X44295857Y60143800D02*
X44324428Y60172372D01*
X44324428Y60172372D02*
X44381571Y60258086D01*
X44381571Y60258086D02*
X44410142Y60372372D01*
X44410142Y60372372D02*
X44410142Y60600943D01*
X44410142Y60600943D02*
X44381571Y60658086D01*
X44381571Y60658086D02*
X44353000Y60686658D01*
X44353000Y60686658D02*
X44295857Y60715229D01*
X44295857Y60715229D02*
X44181571Y60715229D01*
X44181571Y60715229D02*
X44124428Y60686658D01*
X44124428Y60686658D02*
X44095857Y60658086D01*
X44095857Y60658086D02*
X44067285Y60600943D01*
X44067285Y60600943D02*
X44067285Y60458086D01*
X44067285Y60458086D02*
X44095857Y60400943D01*
X44095857Y60400943D02*
X44124428Y60372372D01*
X44124428Y60372372D02*
X44181571Y60343800D01*
X44181571Y60343800D02*
X44295857Y60343800D01*
X44295857Y60343800D02*
X44353000Y60372372D01*
X44353000Y60372372D02*
X44381571Y60400943D01*
X44381571Y60400943D02*
X44410142Y60458086D01*
X24660500Y36212372D02*
X24631928Y36183800D01*
X24631928Y36183800D02*
X24546214Y36155229D01*
X24546214Y36155229D02*
X24489071Y36155229D01*
X24489071Y36155229D02*
X24403357Y36183800D01*
X24403357Y36183800D02*
X24346214Y36240943D01*
X24346214Y36240943D02*
X24317643Y36298086D01*
X24317643Y36298086D02*
X24289071Y36412372D01*
X24289071Y36412372D02*
X24289071Y36498086D01*
X24289071Y36498086D02*
X24317643Y36612372D01*
X24317643Y36612372D02*
X24346214Y36669515D01*
X24346214Y36669515D02*
X24403357Y36726658D01*
X24403357Y36726658D02*
X24489071Y36755229D01*
X24489071Y36755229D02*
X24546214Y36755229D01*
X24546214Y36755229D02*
X24631928Y36726658D01*
X24631928Y36726658D02*
X24660500Y36698086D01*
X25174786Y36555229D02*
X25174786Y36155229D01*
X25031928Y36783800D02*
X24889071Y36355229D01*
X24889071Y36355229D02*
X25260500Y36355229D01*
X45975000Y59305229D02*
X46375000Y59305229D01*
X46375000Y59305229D02*
X45975000Y58705229D01*
X45975000Y58705229D02*
X46375000Y58705229D01*
X47003572Y58648086D02*
X46946429Y58676658D01*
X46946429Y58676658D02*
X46889286Y58733800D01*
X46889286Y58733800D02*
X46803572Y58819515D01*
X46803572Y58819515D02*
X46746429Y58848086D01*
X46746429Y58848086D02*
X46689286Y58848086D01*
X46717857Y58705229D02*
X46660715Y58733800D01*
X46660715Y58733800D02*
X46603572Y58790943D01*
X46603572Y58790943D02*
X46575000Y58905229D01*
X46575000Y58905229D02*
X46575000Y59105229D01*
X46575000Y59105229D02*
X46603572Y59219515D01*
X46603572Y59219515D02*
X46660715Y59276658D01*
X46660715Y59276658D02*
X46717857Y59305229D01*
X46717857Y59305229D02*
X46832143Y59305229D01*
X46832143Y59305229D02*
X46889286Y59276658D01*
X46889286Y59276658D02*
X46946429Y59219515D01*
X46946429Y59219515D02*
X46975000Y59105229D01*
X46975000Y59105229D02*
X46975000Y58905229D01*
X46975000Y58905229D02*
X46946429Y58790943D01*
X46946429Y58790943D02*
X46889286Y58733800D01*
X46889286Y58733800D02*
X46832143Y58705229D01*
X46832143Y58705229D02*
X46717857Y58705229D01*
X47203571Y59248086D02*
X47232143Y59276658D01*
X47232143Y59276658D02*
X47289286Y59305229D01*
X47289286Y59305229D02*
X47432143Y59305229D01*
X47432143Y59305229D02*
X47489286Y59276658D01*
X47489286Y59276658D02*
X47517857Y59248086D01*
X47517857Y59248086D02*
X47546428Y59190943D01*
X47546428Y59190943D02*
X47546428Y59133800D01*
X47546428Y59133800D02*
X47517857Y59048086D01*
X47517857Y59048086D02*
X47175000Y58705229D01*
X47175000Y58705229D02*
X47546428Y58705229D01*
X4963095Y41017800D02*
X5105952Y40970181D01*
X5105952Y40970181D02*
X5344047Y40970181D01*
X5344047Y40970181D02*
X5439285Y41017800D01*
X5439285Y41017800D02*
X5486904Y41065420D01*
X5486904Y41065420D02*
X5534523Y41160658D01*
X5534523Y41160658D02*
X5534523Y41255896D01*
X5534523Y41255896D02*
X5486904Y41351134D01*
X5486904Y41351134D02*
X5439285Y41398753D01*
X5439285Y41398753D02*
X5344047Y41446372D01*
X5344047Y41446372D02*
X5153571Y41493991D01*
X5153571Y41493991D02*
X5058333Y41541610D01*
X5058333Y41541610D02*
X5010714Y41589229D01*
X5010714Y41589229D02*
X4963095Y41684467D01*
X4963095Y41684467D02*
X4963095Y41779705D01*
X4963095Y41779705D02*
X5010714Y41874943D01*
X5010714Y41874943D02*
X5058333Y41922562D01*
X5058333Y41922562D02*
X5153571Y41970181D01*
X5153571Y41970181D02*
X5391666Y41970181D01*
X5391666Y41970181D02*
X5534523Y41922562D01*
X6296428Y41493991D02*
X6439285Y41446372D01*
X6439285Y41446372D02*
X6486904Y41398753D01*
X6486904Y41398753D02*
X6534523Y41303515D01*
X6534523Y41303515D02*
X6534523Y41160658D01*
X6534523Y41160658D02*
X6486904Y41065420D01*
X6486904Y41065420D02*
X6439285Y41017800D01*
X6439285Y41017800D02*
X6344047Y40970181D01*
X6344047Y40970181D02*
X5963095Y40970181D01*
X5963095Y40970181D02*
X5963095Y41970181D01*
X5963095Y41970181D02*
X6296428Y41970181D01*
X6296428Y41970181D02*
X6391666Y41922562D01*
X6391666Y41922562D02*
X6439285Y41874943D01*
X6439285Y41874943D02*
X6486904Y41779705D01*
X6486904Y41779705D02*
X6486904Y41684467D01*
X6486904Y41684467D02*
X6439285Y41589229D01*
X6439285Y41589229D02*
X6391666Y41541610D01*
X6391666Y41541610D02*
X6296428Y41493991D01*
X6296428Y41493991D02*
X5963095Y41493991D01*
X6915476Y41874943D02*
X6963095Y41922562D01*
X6963095Y41922562D02*
X7058333Y41970181D01*
X7058333Y41970181D02*
X7296428Y41970181D01*
X7296428Y41970181D02*
X7391666Y41922562D01*
X7391666Y41922562D02*
X7439285Y41874943D01*
X7439285Y41874943D02*
X7486904Y41779705D01*
X7486904Y41779705D02*
X7486904Y41684467D01*
X7486904Y41684467D02*
X7439285Y41541610D01*
X7439285Y41541610D02*
X6867857Y40970181D01*
X6867857Y40970181D02*
X7486904Y40970181D01*
X49667628Y56941210D02*
X49696200Y56912638D01*
X49696200Y56912638D02*
X49724771Y56826924D01*
X49724771Y56826924D02*
X49724771Y56769781D01*
X49724771Y56769781D02*
X49696200Y56684067D01*
X49696200Y56684067D02*
X49639057Y56626924D01*
X49639057Y56626924D02*
X49581914Y56598353D01*
X49581914Y56598353D02*
X49467628Y56569781D01*
X49467628Y56569781D02*
X49381914Y56569781D01*
X49381914Y56569781D02*
X49267628Y56598353D01*
X49267628Y56598353D02*
X49210485Y56626924D01*
X49210485Y56626924D02*
X49153342Y56684067D01*
X49153342Y56684067D02*
X49124771Y56769781D01*
X49124771Y56769781D02*
X49124771Y56826924D01*
X49124771Y56826924D02*
X49153342Y56912638D01*
X49153342Y56912638D02*
X49181914Y56941210D01*
X49724771Y57512638D02*
X49724771Y57169781D01*
X49724771Y57341210D02*
X49124771Y57341210D01*
X49124771Y57341210D02*
X49210485Y57284067D01*
X49210485Y57284067D02*
X49267628Y57226924D01*
X49267628Y57226924D02*
X49296200Y57169781D01*
X49381914Y57855496D02*
X49353342Y57798353D01*
X49353342Y57798353D02*
X49324771Y57769782D01*
X49324771Y57769782D02*
X49267628Y57741210D01*
X49267628Y57741210D02*
X49239057Y57741210D01*
X49239057Y57741210D02*
X49181914Y57769782D01*
X49181914Y57769782D02*
X49153342Y57798353D01*
X49153342Y57798353D02*
X49124771Y57855496D01*
X49124771Y57855496D02*
X49124771Y57969782D01*
X49124771Y57969782D02*
X49153342Y58026924D01*
X49153342Y58026924D02*
X49181914Y58055496D01*
X49181914Y58055496D02*
X49239057Y58084067D01*
X49239057Y58084067D02*
X49267628Y58084067D01*
X49267628Y58084067D02*
X49324771Y58055496D01*
X49324771Y58055496D02*
X49353342Y58026924D01*
X49353342Y58026924D02*
X49381914Y57969782D01*
X49381914Y57969782D02*
X49381914Y57855496D01*
X49381914Y57855496D02*
X49410485Y57798353D01*
X49410485Y57798353D02*
X49439057Y57769782D01*
X49439057Y57769782D02*
X49496200Y57741210D01*
X49496200Y57741210D02*
X49610485Y57741210D01*
X49610485Y57741210D02*
X49667628Y57769782D01*
X49667628Y57769782D02*
X49696200Y57798353D01*
X49696200Y57798353D02*
X49724771Y57855496D01*
X49724771Y57855496D02*
X49724771Y57969782D01*
X49724771Y57969782D02*
X49696200Y58026924D01*
X49696200Y58026924D02*
X49667628Y58055496D01*
X49667628Y58055496D02*
X49610485Y58084067D01*
X49610485Y58084067D02*
X49496200Y58084067D01*
X49496200Y58084067D02*
X49439057Y58055496D01*
X49439057Y58055496D02*
X49410485Y58026924D01*
X49410485Y58026924D02*
X49381914Y57969782D01*
X17735879Y47441158D02*
X17392427Y47097706D01*
X17392427Y47097706D02*
X17372224Y47037097D01*
X17372224Y47037097D02*
X17372224Y46996691D01*
X17372224Y46996691D02*
X17392427Y46936082D01*
X17392427Y46936082D02*
X17473239Y46855270D01*
X17473239Y46855270D02*
X17533848Y46835067D01*
X17533848Y46835067D02*
X17574254Y46835067D01*
X17574254Y46835067D02*
X17634863Y46855270D01*
X17634863Y46855270D02*
X17978315Y47198722D01*
X17978315Y46350194D02*
X17735878Y46592630D01*
X17857097Y46471412D02*
X18281361Y46895676D01*
X18281361Y46895676D02*
X18180345Y46875473D01*
X18180345Y46875473D02*
X18099533Y46875473D01*
X18099533Y46875473D02*
X18038924Y46895676D01*
X29275000Y29505229D02*
X29075000Y29790943D01*
X28932143Y29505229D02*
X28932143Y30105229D01*
X28932143Y30105229D02*
X29160714Y30105229D01*
X29160714Y30105229D02*
X29217857Y30076658D01*
X29217857Y30076658D02*
X29246428Y30048086D01*
X29246428Y30048086D02*
X29275000Y29990943D01*
X29275000Y29990943D02*
X29275000Y29905229D01*
X29275000Y29905229D02*
X29246428Y29848086D01*
X29246428Y29848086D02*
X29217857Y29819515D01*
X29217857Y29819515D02*
X29160714Y29790943D01*
X29160714Y29790943D02*
X28932143Y29790943D01*
X29789286Y30105229D02*
X29675000Y30105229D01*
X29675000Y30105229D02*
X29617857Y30076658D01*
X29617857Y30076658D02*
X29589286Y30048086D01*
X29589286Y30048086D02*
X29532143Y29962372D01*
X29532143Y29962372D02*
X29503571Y29848086D01*
X29503571Y29848086D02*
X29503571Y29619515D01*
X29503571Y29619515D02*
X29532143Y29562372D01*
X29532143Y29562372D02*
X29560714Y29533800D01*
X29560714Y29533800D02*
X29617857Y29505229D01*
X29617857Y29505229D02*
X29732143Y29505229D01*
X29732143Y29505229D02*
X29789286Y29533800D01*
X29789286Y29533800D02*
X29817857Y29562372D01*
X29817857Y29562372D02*
X29846428Y29619515D01*
X29846428Y29619515D02*
X29846428Y29762372D01*
X29846428Y29762372D02*
X29817857Y29819515D01*
X29817857Y29819515D02*
X29789286Y29848086D01*
X29789286Y29848086D02*
X29732143Y29876658D01*
X29732143Y29876658D02*
X29617857Y29876658D01*
X29617857Y29876658D02*
X29560714Y29848086D01*
X29560714Y29848086D02*
X29532143Y29819515D01*
X29532143Y29819515D02*
X29503571Y29762372D01*
X26458095Y12152800D02*
X26600952Y12105181D01*
X26600952Y12105181D02*
X26839047Y12105181D01*
X26839047Y12105181D02*
X26934285Y12152800D01*
X26934285Y12152800D02*
X26981904Y12200420D01*
X26981904Y12200420D02*
X27029523Y12295658D01*
X27029523Y12295658D02*
X27029523Y12390896D01*
X27029523Y12390896D02*
X26981904Y12486134D01*
X26981904Y12486134D02*
X26934285Y12533753D01*
X26934285Y12533753D02*
X26839047Y12581372D01*
X26839047Y12581372D02*
X26648571Y12628991D01*
X26648571Y12628991D02*
X26553333Y12676610D01*
X26553333Y12676610D02*
X26505714Y12724229D01*
X26505714Y12724229D02*
X26458095Y12819467D01*
X26458095Y12819467D02*
X26458095Y12914705D01*
X26458095Y12914705D02*
X26505714Y13009943D01*
X26505714Y13009943D02*
X26553333Y13057562D01*
X26553333Y13057562D02*
X26648571Y13105181D01*
X26648571Y13105181D02*
X26886666Y13105181D01*
X26886666Y13105181D02*
X27029523Y13057562D01*
X27791428Y12628991D02*
X27934285Y12581372D01*
X27934285Y12581372D02*
X27981904Y12533753D01*
X27981904Y12533753D02*
X28029523Y12438515D01*
X28029523Y12438515D02*
X28029523Y12295658D01*
X28029523Y12295658D02*
X27981904Y12200420D01*
X27981904Y12200420D02*
X27934285Y12152800D01*
X27934285Y12152800D02*
X27839047Y12105181D01*
X27839047Y12105181D02*
X27458095Y12105181D01*
X27458095Y12105181D02*
X27458095Y13105181D01*
X27458095Y13105181D02*
X27791428Y13105181D01*
X27791428Y13105181D02*
X27886666Y13057562D01*
X27886666Y13057562D02*
X27934285Y13009943D01*
X27934285Y13009943D02*
X27981904Y12914705D01*
X27981904Y12914705D02*
X27981904Y12819467D01*
X27981904Y12819467D02*
X27934285Y12724229D01*
X27934285Y12724229D02*
X27886666Y12676610D01*
X27886666Y12676610D02*
X27791428Y12628991D01*
X27791428Y12628991D02*
X27458095Y12628991D01*
X28981904Y12105181D02*
X28410476Y12105181D01*
X28696190Y12105181D02*
X28696190Y13105181D01*
X28696190Y13105181D02*
X28600952Y12962324D01*
X28600952Y12962324D02*
X28505714Y12867086D01*
X28505714Y12867086D02*
X28410476Y12819467D01*
X10662142Y53015229D02*
X10376428Y53015229D01*
X10376428Y53015229D02*
X10376428Y53615229D01*
X11147856Y53615229D02*
X10862142Y53615229D01*
X10862142Y53615229D02*
X10833570Y53329515D01*
X10833570Y53329515D02*
X10862142Y53358086D01*
X10862142Y53358086D02*
X10919285Y53386658D01*
X10919285Y53386658D02*
X11062142Y53386658D01*
X11062142Y53386658D02*
X11119285Y53358086D01*
X11119285Y53358086D02*
X11147856Y53329515D01*
X11147856Y53329515D02*
X11176427Y53272372D01*
X11176427Y53272372D02*
X11176427Y53129515D01*
X11176427Y53129515D02*
X11147856Y53072372D01*
X11147856Y53072372D02*
X11119285Y53043800D01*
X11119285Y53043800D02*
X11062142Y53015229D01*
X11062142Y53015229D02*
X10919285Y53015229D01*
X10919285Y53015229D02*
X10862142Y53043800D01*
X10862142Y53043800D02*
X10833570Y53072372D01*
X9239057Y20889286D02*
X8953343Y20689286D01*
X9239057Y20546429D02*
X8639057Y20546429D01*
X8639057Y20546429D02*
X8639057Y20775000D01*
X8639057Y20775000D02*
X8667628Y20832143D01*
X8667628Y20832143D02*
X8696200Y20860714D01*
X8696200Y20860714D02*
X8753343Y20889286D01*
X8753343Y20889286D02*
X8839057Y20889286D01*
X8839057Y20889286D02*
X8896200Y20860714D01*
X8896200Y20860714D02*
X8924771Y20832143D01*
X8924771Y20832143D02*
X8953343Y20775000D01*
X8953343Y20775000D02*
X8953343Y20546429D01*
X9239057Y21460714D02*
X9239057Y21117857D01*
X9239057Y21289286D02*
X8639057Y21289286D01*
X8639057Y21289286D02*
X8724771Y21232143D01*
X8724771Y21232143D02*
X8781914Y21175000D01*
X8781914Y21175000D02*
X8810486Y21117857D01*
X9239057Y22032143D02*
X9239057Y21689286D01*
X9239057Y21860715D02*
X8639057Y21860715D01*
X8639057Y21860715D02*
X8724771Y21803572D01*
X8724771Y21803572D02*
X8781914Y21746429D01*
X8781914Y21746429D02*
X8810486Y21689286D01*
X18209178Y45395339D02*
X18209178Y45354933D01*
X18209178Y45354933D02*
X18168772Y45274121D01*
X18168772Y45274121D02*
X18128366Y45233714D01*
X18128366Y45233714D02*
X18047554Y45193308D01*
X18047554Y45193308D02*
X17966742Y45193308D01*
X17966742Y45193308D02*
X17906132Y45213511D01*
X17906132Y45213511D02*
X17805117Y45274121D01*
X17805117Y45274121D02*
X17744508Y45334730D01*
X17744508Y45334730D02*
X17683899Y45435745D01*
X17683899Y45435745D02*
X17663696Y45496354D01*
X17663696Y45496354D02*
X17663696Y45577166D01*
X17663696Y45577166D02*
X17704102Y45657979D01*
X17704102Y45657979D02*
X17744508Y45698385D01*
X17744508Y45698385D02*
X17825320Y45738791D01*
X17825320Y45738791D02*
X17865726Y45738791D01*
X18027351Y45900415D02*
X18027351Y45940821D01*
X18027351Y45940821D02*
X18047554Y46001430D01*
X18047554Y46001430D02*
X18148569Y46102446D01*
X18148569Y46102446D02*
X18209178Y46122649D01*
X18209178Y46122649D02*
X18249584Y46122649D01*
X18249584Y46122649D02*
X18310193Y46102446D01*
X18310193Y46102446D02*
X18350599Y46062040D01*
X18350599Y46062040D02*
X18391006Y45981227D01*
X18391006Y45981227D02*
X18391006Y45496354D01*
X18391006Y45496354D02*
X18653645Y45758994D01*
X18431412Y46304476D02*
X18431412Y46344883D01*
X18431412Y46344883D02*
X18451615Y46405492D01*
X18451615Y46405492D02*
X18552630Y46506507D01*
X18552630Y46506507D02*
X18613239Y46526710D01*
X18613239Y46526710D02*
X18653646Y46526710D01*
X18653646Y46526710D02*
X18714255Y46506507D01*
X18714255Y46506507D02*
X18754661Y46466101D01*
X18754661Y46466101D02*
X18795067Y46385289D01*
X18795067Y46385289D02*
X18795067Y45900415D01*
X18795067Y45900415D02*
X19057707Y46163055D01*
X48890678Y22039286D02*
X48919250Y22010714D01*
X48919250Y22010714D02*
X48947821Y21925000D01*
X48947821Y21925000D02*
X48947821Y21867857D01*
X48947821Y21867857D02*
X48919250Y21782143D01*
X48919250Y21782143D02*
X48862107Y21725000D01*
X48862107Y21725000D02*
X48804964Y21696429D01*
X48804964Y21696429D02*
X48690678Y21667857D01*
X48690678Y21667857D02*
X48604964Y21667857D01*
X48604964Y21667857D02*
X48490678Y21696429D01*
X48490678Y21696429D02*
X48433535Y21725000D01*
X48433535Y21725000D02*
X48376392Y21782143D01*
X48376392Y21782143D02*
X48347821Y21867857D01*
X48347821Y21867857D02*
X48347821Y21925000D01*
X48347821Y21925000D02*
X48376392Y22010714D01*
X48376392Y22010714D02*
X48404964Y22039286D01*
X48947821Y22610714D02*
X48947821Y22267857D01*
X48947821Y22439286D02*
X48347821Y22439286D01*
X48347821Y22439286D02*
X48433535Y22382143D01*
X48433535Y22382143D02*
X48490678Y22325000D01*
X48490678Y22325000D02*
X48519250Y22267857D01*
X48947821Y23182143D02*
X48947821Y22839286D01*
X48947821Y23010715D02*
X48347821Y23010715D01*
X48347821Y23010715D02*
X48433535Y22953572D01*
X48433535Y22953572D02*
X48490678Y22896429D01*
X48490678Y22896429D02*
X48519250Y22839286D01*
X42919771Y8892306D02*
X43519771Y9092306D01*
X43519771Y9092306D02*
X42919771Y9292306D01*
X43519771Y9492307D02*
X42919771Y9492307D01*
X42919771Y9492307D02*
X42919771Y9635164D01*
X42919771Y9635164D02*
X42948342Y9720878D01*
X42948342Y9720878D02*
X43005485Y9778021D01*
X43005485Y9778021D02*
X43062628Y9806592D01*
X43062628Y9806592D02*
X43176914Y9835164D01*
X43176914Y9835164D02*
X43262628Y9835164D01*
X43262628Y9835164D02*
X43376914Y9806592D01*
X43376914Y9806592D02*
X43434057Y9778021D01*
X43434057Y9778021D02*
X43491200Y9720878D01*
X43491200Y9720878D02*
X43519771Y9635164D01*
X43519771Y9635164D02*
X43519771Y9492307D01*
X43519771Y10406592D02*
X43519771Y10063735D01*
X43519771Y10235164D02*
X42919771Y10235164D01*
X42919771Y10235164D02*
X43005485Y10178021D01*
X43005485Y10178021D02*
X43062628Y10120878D01*
X43062628Y10120878D02*
X43091200Y10063735D01*
X8794771Y48437858D02*
X8794771Y48152144D01*
X8794771Y48152144D02*
X8194771Y48152144D01*
X8194771Y48895000D02*
X8194771Y48780715D01*
X8194771Y48780715D02*
X8223342Y48723572D01*
X8223342Y48723572D02*
X8251914Y48695000D01*
X8251914Y48695000D02*
X8337628Y48637858D01*
X8337628Y48637858D02*
X8451914Y48609286D01*
X8451914Y48609286D02*
X8680485Y48609286D01*
X8680485Y48609286D02*
X8737628Y48637858D01*
X8737628Y48637858D02*
X8766200Y48666429D01*
X8766200Y48666429D02*
X8794771Y48723572D01*
X8794771Y48723572D02*
X8794771Y48837858D01*
X8794771Y48837858D02*
X8766200Y48895000D01*
X8766200Y48895000D02*
X8737628Y48923572D01*
X8737628Y48923572D02*
X8680485Y48952143D01*
X8680485Y48952143D02*
X8537628Y48952143D01*
X8537628Y48952143D02*
X8480485Y48923572D01*
X8480485Y48923572D02*
X8451914Y48895000D01*
X8451914Y48895000D02*
X8423342Y48837858D01*
X8423342Y48837858D02*
X8423342Y48723572D01*
X8423342Y48723572D02*
X8451914Y48666429D01*
X8451914Y48666429D02*
X8480485Y48637858D01*
X8480485Y48637858D02*
X8537628Y48609286D01*
X47325000Y5255229D02*
X47125000Y5540943D01*
X46982143Y5255229D02*
X46982143Y5855229D01*
X46982143Y5855229D02*
X47210714Y5855229D01*
X47210714Y5855229D02*
X47267857Y5826658D01*
X47267857Y5826658D02*
X47296428Y5798086D01*
X47296428Y5798086D02*
X47325000Y5740943D01*
X47325000Y5740943D02*
X47325000Y5655229D01*
X47325000Y5655229D02*
X47296428Y5598086D01*
X47296428Y5598086D02*
X47267857Y5569515D01*
X47267857Y5569515D02*
X47210714Y5540943D01*
X47210714Y5540943D02*
X46982143Y5540943D01*
X47839286Y5655229D02*
X47839286Y5255229D01*
X47696428Y5883800D02*
X47553571Y5455229D01*
X47553571Y5455229D02*
X47925000Y5455229D01*
X20825338Y55740822D02*
X20784932Y55740822D01*
X20784932Y55740822D02*
X20704120Y55781228D01*
X20704120Y55781228D02*
X20663713Y55821634D01*
X20663713Y55821634D02*
X20623307Y55902446D01*
X20623307Y55902446D02*
X20623307Y55983258D01*
X20623307Y55983258D02*
X20643510Y56043868D01*
X20643510Y56043868D02*
X20704120Y56144883D01*
X20704120Y56144883D02*
X20764729Y56205492D01*
X20764729Y56205492D02*
X20865744Y56266101D01*
X20865744Y56266101D02*
X20926353Y56286304D01*
X20926353Y56286304D02*
X21007165Y56286304D01*
X21007165Y56286304D02*
X21087978Y56245898D01*
X21087978Y56245898D02*
X21128384Y56205492D01*
X21128384Y56205492D02*
X21168790Y56124680D01*
X21168790Y56124680D02*
X21168790Y56084274D01*
X21188993Y55296355D02*
X20946556Y55538791D01*
X21067775Y55417573D02*
X21492039Y55841837D01*
X21492039Y55841837D02*
X21391023Y55821634D01*
X21391023Y55821634D02*
X21310211Y55821634D01*
X21310211Y55821634D02*
X21249602Y55841837D01*
X21875897Y55457979D02*
X21916303Y55417573D01*
X21916303Y55417573D02*
X21936506Y55356964D01*
X21936506Y55356964D02*
X21936506Y55316558D01*
X21936506Y55316558D02*
X21916303Y55255948D01*
X21916303Y55255948D02*
X21855694Y55154933D01*
X21855694Y55154933D02*
X21754679Y55053918D01*
X21754679Y55053918D02*
X21653663Y54993309D01*
X21653663Y54993309D02*
X21593054Y54973106D01*
X21593054Y54973106D02*
X21552648Y54973106D01*
X21552648Y54973106D02*
X21492039Y54993309D01*
X21492039Y54993309D02*
X21451633Y55033715D01*
X21451633Y55033715D02*
X21431430Y55094324D01*
X21431430Y55094324D02*
X21431430Y55134730D01*
X21431430Y55134730D02*
X21451633Y55195339D01*
X21451633Y55195339D02*
X21512242Y55296354D01*
X21512242Y55296354D02*
X21613257Y55397370D01*
X21613257Y55397370D02*
X21714272Y55457979D01*
X21714272Y55457979D02*
X21774882Y55478182D01*
X21774882Y55478182D02*
X21815288Y55478182D01*
X21815288Y55478182D02*
X21875897Y55457979D01*
X47989285Y53492372D02*
X47960713Y53463800D01*
X47960713Y53463800D02*
X47874999Y53435229D01*
X47874999Y53435229D02*
X47817856Y53435229D01*
X47817856Y53435229D02*
X47732142Y53463800D01*
X47732142Y53463800D02*
X47674999Y53520943D01*
X47674999Y53520943D02*
X47646428Y53578086D01*
X47646428Y53578086D02*
X47617856Y53692372D01*
X47617856Y53692372D02*
X47617856Y53778086D01*
X47617856Y53778086D02*
X47646428Y53892372D01*
X47646428Y53892372D02*
X47674999Y53949515D01*
X47674999Y53949515D02*
X47732142Y54006658D01*
X47732142Y54006658D02*
X47817856Y54035229D01*
X47817856Y54035229D02*
X47874999Y54035229D01*
X47874999Y54035229D02*
X47960713Y54006658D01*
X47960713Y54006658D02*
X47989285Y53978086D01*
X48217856Y53978086D02*
X48246428Y54006658D01*
X48246428Y54006658D02*
X48303571Y54035229D01*
X48303571Y54035229D02*
X48446428Y54035229D01*
X48446428Y54035229D02*
X48503571Y54006658D01*
X48503571Y54006658D02*
X48532142Y53978086D01*
X48532142Y53978086D02*
X48560713Y53920943D01*
X48560713Y53920943D02*
X48560713Y53863800D01*
X48560713Y53863800D02*
X48532142Y53778086D01*
X48532142Y53778086D02*
X48189285Y53435229D01*
X48189285Y53435229D02*
X48560713Y53435229D01*
X48760714Y54035229D02*
X49132142Y54035229D01*
X49132142Y54035229D02*
X48932142Y53806658D01*
X48932142Y53806658D02*
X49017857Y53806658D01*
X49017857Y53806658D02*
X49075000Y53778086D01*
X49075000Y53778086D02*
X49103571Y53749515D01*
X49103571Y53749515D02*
X49132142Y53692372D01*
X49132142Y53692372D02*
X49132142Y53549515D01*
X49132142Y53549515D02*
X49103571Y53492372D01*
X49103571Y53492372D02*
X49075000Y53463800D01*
X49075000Y53463800D02*
X49017857Y53435229D01*
X49017857Y53435229D02*
X48846428Y53435229D01*
X48846428Y53435229D02*
X48789285Y53463800D01*
X48789285Y53463800D02*
X48760714Y53492372D01*
X29525000Y32842372D02*
X29496428Y32813800D01*
X29496428Y32813800D02*
X29410714Y32785229D01*
X29410714Y32785229D02*
X29353571Y32785229D01*
X29353571Y32785229D02*
X29267857Y32813800D01*
X29267857Y32813800D02*
X29210714Y32870943D01*
X29210714Y32870943D02*
X29182143Y32928086D01*
X29182143Y32928086D02*
X29153571Y33042372D01*
X29153571Y33042372D02*
X29153571Y33128086D01*
X29153571Y33128086D02*
X29182143Y33242372D01*
X29182143Y33242372D02*
X29210714Y33299515D01*
X29210714Y33299515D02*
X29267857Y33356658D01*
X29267857Y33356658D02*
X29353571Y33385229D01*
X29353571Y33385229D02*
X29410714Y33385229D01*
X29410714Y33385229D02*
X29496428Y33356658D01*
X29496428Y33356658D02*
X29525000Y33328086D01*
X29867857Y33128086D02*
X29810714Y33156658D01*
X29810714Y33156658D02*
X29782143Y33185229D01*
X29782143Y33185229D02*
X29753571Y33242372D01*
X29753571Y33242372D02*
X29753571Y33270943D01*
X29753571Y33270943D02*
X29782143Y33328086D01*
X29782143Y33328086D02*
X29810714Y33356658D01*
X29810714Y33356658D02*
X29867857Y33385229D01*
X29867857Y33385229D02*
X29982143Y33385229D01*
X29982143Y33385229D02*
X30039286Y33356658D01*
X30039286Y33356658D02*
X30067857Y33328086D01*
X30067857Y33328086D02*
X30096428Y33270943D01*
X30096428Y33270943D02*
X30096428Y33242372D01*
X30096428Y33242372D02*
X30067857Y33185229D01*
X30067857Y33185229D02*
X30039286Y33156658D01*
X30039286Y33156658D02*
X29982143Y33128086D01*
X29982143Y33128086D02*
X29867857Y33128086D01*
X29867857Y33128086D02*
X29810714Y33099515D01*
X29810714Y33099515D02*
X29782143Y33070943D01*
X29782143Y33070943D02*
X29753571Y33013800D01*
X29753571Y33013800D02*
X29753571Y32899515D01*
X29753571Y32899515D02*
X29782143Y32842372D01*
X29782143Y32842372D02*
X29810714Y32813800D01*
X29810714Y32813800D02*
X29867857Y32785229D01*
X29867857Y32785229D02*
X29982143Y32785229D01*
X29982143Y32785229D02*
X30039286Y32813800D01*
X30039286Y32813800D02*
X30067857Y32842372D01*
X30067857Y32842372D02*
X30096428Y32899515D01*
X30096428Y32899515D02*
X30096428Y33013800D01*
X30096428Y33013800D02*
X30067857Y33070943D01*
X30067857Y33070943D02*
X30039286Y33099515D01*
X30039286Y33099515D02*
X29982143Y33128086D01*
X21544771Y8860001D02*
X21259057Y8660001D01*
X21544771Y8517144D02*
X20944771Y8517144D01*
X20944771Y8517144D02*
X20944771Y8745715D01*
X20944771Y8745715D02*
X20973342Y8802858D01*
X20973342Y8802858D02*
X21001914Y8831429D01*
X21001914Y8831429D02*
X21059057Y8860001D01*
X21059057Y8860001D02*
X21144771Y8860001D01*
X21144771Y8860001D02*
X21201914Y8831429D01*
X21201914Y8831429D02*
X21230485Y8802858D01*
X21230485Y8802858D02*
X21259057Y8745715D01*
X21259057Y8745715D02*
X21259057Y8517144D01*
X20944771Y9402858D02*
X20944771Y9117144D01*
X20944771Y9117144D02*
X21230485Y9088572D01*
X21230485Y9088572D02*
X21201914Y9117144D01*
X21201914Y9117144D02*
X21173342Y9174286D01*
X21173342Y9174286D02*
X21173342Y9317144D01*
X21173342Y9317144D02*
X21201914Y9374286D01*
X21201914Y9374286D02*
X21230485Y9402858D01*
X21230485Y9402858D02*
X21287628Y9431429D01*
X21287628Y9431429D02*
X21430485Y9431429D01*
X21430485Y9431429D02*
X21487628Y9402858D01*
X21487628Y9402858D02*
X21516200Y9374286D01*
X21516200Y9374286D02*
X21544771Y9317144D01*
X21544771Y9317144D02*
X21544771Y9174286D01*
X21544771Y9174286D02*
X21516200Y9117144D01*
X21516200Y9117144D02*
X21487628Y9088572D01*
X29275000Y31355229D02*
X29075000Y31640943D01*
X28932143Y31355229D02*
X28932143Y31955229D01*
X28932143Y31955229D02*
X29160714Y31955229D01*
X29160714Y31955229D02*
X29217857Y31926658D01*
X29217857Y31926658D02*
X29246428Y31898086D01*
X29246428Y31898086D02*
X29275000Y31840943D01*
X29275000Y31840943D02*
X29275000Y31755229D01*
X29275000Y31755229D02*
X29246428Y31698086D01*
X29246428Y31698086D02*
X29217857Y31669515D01*
X29217857Y31669515D02*
X29160714Y31640943D01*
X29160714Y31640943D02*
X28932143Y31640943D01*
X29475000Y31955229D02*
X29875000Y31955229D01*
X29875000Y31955229D02*
X29617857Y31355229D01*
X10475000Y56330229D02*
X10475000Y56930229D01*
X10475000Y56930229D02*
X10617857Y56930229D01*
X10617857Y56930229D02*
X10703571Y56901658D01*
X10703571Y56901658D02*
X10760714Y56844515D01*
X10760714Y56844515D02*
X10789285Y56787372D01*
X10789285Y56787372D02*
X10817857Y56673086D01*
X10817857Y56673086D02*
X10817857Y56587372D01*
X10817857Y56587372D02*
X10789285Y56473086D01*
X10789285Y56473086D02*
X10760714Y56415943D01*
X10760714Y56415943D02*
X10703571Y56358800D01*
X10703571Y56358800D02*
X10617857Y56330229D01*
X10617857Y56330229D02*
X10475000Y56330229D01*
X11046428Y56501658D02*
X11332143Y56501658D01*
X10989285Y56330229D02*
X11189285Y56930229D01*
X11189285Y56930229D02*
X11389285Y56330229D01*
X11846429Y56730229D02*
X11846429Y56330229D01*
X11703571Y56958800D02*
X11560714Y56530229D01*
X11560714Y56530229D02*
X11932143Y56530229D01*
X11414285Y63252372D02*
X11385713Y63223800D01*
X11385713Y63223800D02*
X11299999Y63195229D01*
X11299999Y63195229D02*
X11242856Y63195229D01*
X11242856Y63195229D02*
X11157142Y63223800D01*
X11157142Y63223800D02*
X11099999Y63280943D01*
X11099999Y63280943D02*
X11071428Y63338086D01*
X11071428Y63338086D02*
X11042856Y63452372D01*
X11042856Y63452372D02*
X11042856Y63538086D01*
X11042856Y63538086D02*
X11071428Y63652372D01*
X11071428Y63652372D02*
X11099999Y63709515D01*
X11099999Y63709515D02*
X11157142Y63766658D01*
X11157142Y63766658D02*
X11242856Y63795229D01*
X11242856Y63795229D02*
X11299999Y63795229D01*
X11299999Y63795229D02*
X11385713Y63766658D01*
X11385713Y63766658D02*
X11414285Y63738086D01*
X11928571Y63595229D02*
X11928571Y63195229D01*
X11785713Y63823800D02*
X11642856Y63395229D01*
X11642856Y63395229D02*
X12014285Y63395229D01*
X12500000Y63795229D02*
X12385714Y63795229D01*
X12385714Y63795229D02*
X12328571Y63766658D01*
X12328571Y63766658D02*
X12300000Y63738086D01*
X12300000Y63738086D02*
X12242857Y63652372D01*
X12242857Y63652372D02*
X12214285Y63538086D01*
X12214285Y63538086D02*
X12214285Y63309515D01*
X12214285Y63309515D02*
X12242857Y63252372D01*
X12242857Y63252372D02*
X12271428Y63223800D01*
X12271428Y63223800D02*
X12328571Y63195229D01*
X12328571Y63195229D02*
X12442857Y63195229D01*
X12442857Y63195229D02*
X12500000Y63223800D01*
X12500000Y63223800D02*
X12528571Y63252372D01*
X12528571Y63252372D02*
X12557142Y63309515D01*
X12557142Y63309515D02*
X12557142Y63452372D01*
X12557142Y63452372D02*
X12528571Y63509515D01*
X12528571Y63509515D02*
X12500000Y63538086D01*
X12500000Y63538086D02*
X12442857Y63566658D01*
X12442857Y63566658D02*
X12328571Y63566658D01*
X12328571Y63566658D02*
X12271428Y63538086D01*
X12271428Y63538086D02*
X12242857Y63509515D01*
X12242857Y63509515D02*
X12214285Y63452372D01*
X52839286Y10895181D02*
X53505952Y9895181D01*
X53505952Y10895181D02*
X52839286Y9895181D01*
X53839286Y9942800D02*
X53982143Y9895181D01*
X53982143Y9895181D02*
X54220238Y9895181D01*
X54220238Y9895181D02*
X54315476Y9942800D01*
X54315476Y9942800D02*
X54363095Y9990420D01*
X54363095Y9990420D02*
X54410714Y10085658D01*
X54410714Y10085658D02*
X54410714Y10180896D01*
X54410714Y10180896D02*
X54363095Y10276134D01*
X54363095Y10276134D02*
X54315476Y10323753D01*
X54315476Y10323753D02*
X54220238Y10371372D01*
X54220238Y10371372D02*
X54029762Y10418991D01*
X54029762Y10418991D02*
X53934524Y10466610D01*
X53934524Y10466610D02*
X53886905Y10514229D01*
X53886905Y10514229D02*
X53839286Y10609467D01*
X53839286Y10609467D02*
X53839286Y10704705D01*
X53839286Y10704705D02*
X53886905Y10799943D01*
X53886905Y10799943D02*
X53934524Y10847562D01*
X53934524Y10847562D02*
X54029762Y10895181D01*
X54029762Y10895181D02*
X54267857Y10895181D01*
X54267857Y10895181D02*
X54410714Y10847562D01*
X55363095Y9895181D02*
X54791667Y9895181D01*
X55077381Y9895181D02*
X55077381Y10895181D01*
X55077381Y10895181D02*
X54982143Y10752324D01*
X54982143Y10752324D02*
X54886905Y10657086D01*
X54886905Y10657086D02*
X54791667Y10609467D01*
X38072513Y8001729D02*
X38272513Y7401729D01*
X38272513Y7401729D02*
X38472513Y8001729D01*
X38586799Y8001729D02*
X38929657Y8001729D01*
X38758228Y7401729D02*
X38758228Y8001729D01*
X39443942Y7401729D02*
X39101085Y7401729D01*
X39272514Y7401729D02*
X39272514Y8001729D01*
X39272514Y8001729D02*
X39215371Y7916015D01*
X39215371Y7916015D02*
X39158228Y7858872D01*
X39158228Y7858872D02*
X39101085Y7830300D01*
X10027628Y47939286D02*
X10056200Y47910714D01*
X10056200Y47910714D02*
X10084771Y47825000D01*
X10084771Y47825000D02*
X10084771Y47767857D01*
X10084771Y47767857D02*
X10056200Y47682143D01*
X10056200Y47682143D02*
X9999057Y47625000D01*
X9999057Y47625000D02*
X9941914Y47596429D01*
X9941914Y47596429D02*
X9827628Y47567857D01*
X9827628Y47567857D02*
X9741914Y47567857D01*
X9741914Y47567857D02*
X9627628Y47596429D01*
X9627628Y47596429D02*
X9570485Y47625000D01*
X9570485Y47625000D02*
X9513342Y47682143D01*
X9513342Y47682143D02*
X9484771Y47767857D01*
X9484771Y47767857D02*
X9484771Y47825000D01*
X9484771Y47825000D02*
X9513342Y47910714D01*
X9513342Y47910714D02*
X9541914Y47939286D01*
X9484771Y48139286D02*
X9484771Y48510714D01*
X9484771Y48510714D02*
X9713342Y48310714D01*
X9713342Y48310714D02*
X9713342Y48396429D01*
X9713342Y48396429D02*
X9741914Y48453571D01*
X9741914Y48453571D02*
X9770485Y48482143D01*
X9770485Y48482143D02*
X9827628Y48510714D01*
X9827628Y48510714D02*
X9970485Y48510714D01*
X9970485Y48510714D02*
X10027628Y48482143D01*
X10027628Y48482143D02*
X10056200Y48453571D01*
X10056200Y48453571D02*
X10084771Y48396429D01*
X10084771Y48396429D02*
X10084771Y48225000D01*
X10084771Y48225000D02*
X10056200Y48167857D01*
X10056200Y48167857D02*
X10027628Y48139286D01*
X9741914Y48853572D02*
X9713342Y48796429D01*
X9713342Y48796429D02*
X9684771Y48767858D01*
X9684771Y48767858D02*
X9627628Y48739286D01*
X9627628Y48739286D02*
X9599057Y48739286D01*
X9599057Y48739286D02*
X9541914Y48767858D01*
X9541914Y48767858D02*
X9513342Y48796429D01*
X9513342Y48796429D02*
X9484771Y48853572D01*
X9484771Y48853572D02*
X9484771Y48967858D01*
X9484771Y48967858D02*
X9513342Y49025000D01*
X9513342Y49025000D02*
X9541914Y49053572D01*
X9541914Y49053572D02*
X9599057Y49082143D01*
X9599057Y49082143D02*
X9627628Y49082143D01*
X9627628Y49082143D02*
X9684771Y49053572D01*
X9684771Y49053572D02*
X9713342Y49025000D01*
X9713342Y49025000D02*
X9741914Y48967858D01*
X9741914Y48967858D02*
X9741914Y48853572D01*
X9741914Y48853572D02*
X9770485Y48796429D01*
X9770485Y48796429D02*
X9799057Y48767858D01*
X9799057Y48767858D02*
X9856200Y48739286D01*
X9856200Y48739286D02*
X9970485Y48739286D01*
X9970485Y48739286D02*
X10027628Y48767858D01*
X10027628Y48767858D02*
X10056200Y48796429D01*
X10056200Y48796429D02*
X10084771Y48853572D01*
X10084771Y48853572D02*
X10084771Y48967858D01*
X10084771Y48967858D02*
X10056200Y49025000D01*
X10056200Y49025000D02*
X10027628Y49053572D01*
X10027628Y49053572D02*
X9970485Y49082143D01*
X9970485Y49082143D02*
X9856200Y49082143D01*
X9856200Y49082143D02*
X9799057Y49053572D01*
X9799057Y49053572D02*
X9770485Y49025000D01*
X9770485Y49025000D02*
X9741914Y48967858D01*
X13217628Y36939286D02*
X13246200Y36910714D01*
X13246200Y36910714D02*
X13274771Y36825000D01*
X13274771Y36825000D02*
X13274771Y36767857D01*
X13274771Y36767857D02*
X13246200Y36682143D01*
X13246200Y36682143D02*
X13189057Y36625000D01*
X13189057Y36625000D02*
X13131914Y36596429D01*
X13131914Y36596429D02*
X13017628Y36567857D01*
X13017628Y36567857D02*
X12931914Y36567857D01*
X12931914Y36567857D02*
X12817628Y36596429D01*
X12817628Y36596429D02*
X12760485Y36625000D01*
X12760485Y36625000D02*
X12703342Y36682143D01*
X12703342Y36682143D02*
X12674771Y36767857D01*
X12674771Y36767857D02*
X12674771Y36825000D01*
X12674771Y36825000D02*
X12703342Y36910714D01*
X12703342Y36910714D02*
X12731914Y36939286D01*
X12674771Y37139286D02*
X12674771Y37510714D01*
X12674771Y37510714D02*
X12903342Y37310714D01*
X12903342Y37310714D02*
X12903342Y37396429D01*
X12903342Y37396429D02*
X12931914Y37453571D01*
X12931914Y37453571D02*
X12960485Y37482143D01*
X12960485Y37482143D02*
X13017628Y37510714D01*
X13017628Y37510714D02*
X13160485Y37510714D01*
X13160485Y37510714D02*
X13217628Y37482143D01*
X13217628Y37482143D02*
X13246200Y37453571D01*
X13246200Y37453571D02*
X13274771Y37396429D01*
X13274771Y37396429D02*
X13274771Y37225000D01*
X13274771Y37225000D02*
X13246200Y37167857D01*
X13246200Y37167857D02*
X13217628Y37139286D01*
X13274771Y38082143D02*
X13274771Y37739286D01*
X13274771Y37910715D02*
X12674771Y37910715D01*
X12674771Y37910715D02*
X12760485Y37853572D01*
X12760485Y37853572D02*
X12817628Y37796429D01*
X12817628Y37796429D02*
X12846200Y37739286D01*
X48897821Y27614286D02*
X48612107Y27414286D01*
X48897821Y27271429D02*
X48297821Y27271429D01*
X48297821Y27271429D02*
X48297821Y27500000D01*
X48297821Y27500000D02*
X48326392Y27557143D01*
X48326392Y27557143D02*
X48354964Y27585714D01*
X48354964Y27585714D02*
X48412107Y27614286D01*
X48412107Y27614286D02*
X48497821Y27614286D01*
X48497821Y27614286D02*
X48554964Y27585714D01*
X48554964Y27585714D02*
X48583535Y27557143D01*
X48583535Y27557143D02*
X48612107Y27500000D01*
X48612107Y27500000D02*
X48612107Y27271429D01*
X48897821Y28185714D02*
X48897821Y27842857D01*
X48897821Y28014286D02*
X48297821Y28014286D01*
X48297821Y28014286D02*
X48383535Y27957143D01*
X48383535Y27957143D02*
X48440678Y27900000D01*
X48440678Y27900000D02*
X48469250Y27842857D01*
X48354964Y28414286D02*
X48326392Y28442858D01*
X48326392Y28442858D02*
X48297821Y28500000D01*
X48297821Y28500000D02*
X48297821Y28642858D01*
X48297821Y28642858D02*
X48326392Y28700000D01*
X48326392Y28700000D02*
X48354964Y28728572D01*
X48354964Y28728572D02*
X48412107Y28757143D01*
X48412107Y28757143D02*
X48469250Y28757143D01*
X48469250Y28757143D02*
X48554964Y28728572D01*
X48554964Y28728572D02*
X48897821Y28385715D01*
X48897821Y28385715D02*
X48897821Y28757143D01*
X9219556Y27242372D02*
X9190984Y27213800D01*
X9190984Y27213800D02*
X9105270Y27185229D01*
X9105270Y27185229D02*
X9048127Y27185229D01*
X9048127Y27185229D02*
X8962413Y27213800D01*
X8962413Y27213800D02*
X8905270Y27270943D01*
X8905270Y27270943D02*
X8876699Y27328086D01*
X8876699Y27328086D02*
X8848127Y27442372D01*
X8848127Y27442372D02*
X8848127Y27528086D01*
X8848127Y27528086D02*
X8876699Y27642372D01*
X8876699Y27642372D02*
X8905270Y27699515D01*
X8905270Y27699515D02*
X8962413Y27756658D01*
X8962413Y27756658D02*
X9048127Y27785229D01*
X9048127Y27785229D02*
X9105270Y27785229D01*
X9105270Y27785229D02*
X9190984Y27756658D01*
X9190984Y27756658D02*
X9219556Y27728086D01*
X9733842Y27785229D02*
X9619556Y27785229D01*
X9619556Y27785229D02*
X9562413Y27756658D01*
X9562413Y27756658D02*
X9533842Y27728086D01*
X9533842Y27728086D02*
X9476699Y27642372D01*
X9476699Y27642372D02*
X9448127Y27528086D01*
X9448127Y27528086D02*
X9448127Y27299515D01*
X9448127Y27299515D02*
X9476699Y27242372D01*
X9476699Y27242372D02*
X9505270Y27213800D01*
X9505270Y27213800D02*
X9562413Y27185229D01*
X9562413Y27185229D02*
X9676699Y27185229D01*
X9676699Y27185229D02*
X9733842Y27213800D01*
X9733842Y27213800D02*
X9762413Y27242372D01*
X9762413Y27242372D02*
X9790984Y27299515D01*
X9790984Y27299515D02*
X9790984Y27442372D01*
X9790984Y27442372D02*
X9762413Y27499515D01*
X9762413Y27499515D02*
X9733842Y27528086D01*
X9733842Y27528086D02*
X9676699Y27556658D01*
X9676699Y27556658D02*
X9562413Y27556658D01*
X9562413Y27556658D02*
X9505270Y27528086D01*
X9505270Y27528086D02*
X9476699Y27499515D01*
X9476699Y27499515D02*
X9448127Y27442372D01*
X47597821Y21789286D02*
X47312107Y21589286D01*
X47597821Y21446429D02*
X46997821Y21446429D01*
X46997821Y21446429D02*
X46997821Y21675000D01*
X46997821Y21675000D02*
X47026392Y21732143D01*
X47026392Y21732143D02*
X47054964Y21760714D01*
X47054964Y21760714D02*
X47112107Y21789286D01*
X47112107Y21789286D02*
X47197821Y21789286D01*
X47197821Y21789286D02*
X47254964Y21760714D01*
X47254964Y21760714D02*
X47283535Y21732143D01*
X47283535Y21732143D02*
X47312107Y21675000D01*
X47312107Y21675000D02*
X47312107Y21446429D01*
X47597821Y22360714D02*
X47597821Y22017857D01*
X47597821Y22189286D02*
X46997821Y22189286D01*
X46997821Y22189286D02*
X47083535Y22132143D01*
X47083535Y22132143D02*
X47140678Y22075000D01*
X47140678Y22075000D02*
X47169250Y22017857D01*
X46997821Y22732143D02*
X46997821Y22789286D01*
X46997821Y22789286D02*
X47026392Y22846429D01*
X47026392Y22846429D02*
X47054964Y22875000D01*
X47054964Y22875000D02*
X47112107Y22903572D01*
X47112107Y22903572D02*
X47226392Y22932143D01*
X47226392Y22932143D02*
X47369250Y22932143D01*
X47369250Y22932143D02*
X47483535Y22903572D01*
X47483535Y22903572D02*
X47540678Y22875000D01*
X47540678Y22875000D02*
X47569250Y22846429D01*
X47569250Y22846429D02*
X47597821Y22789286D01*
X47597821Y22789286D02*
X47597821Y22732143D01*
X47597821Y22732143D02*
X47569250Y22675000D01*
X47569250Y22675000D02*
X47540678Y22646429D01*
X47540678Y22646429D02*
X47483535Y22617858D01*
X47483535Y22617858D02*
X47369250Y22589286D01*
X47369250Y22589286D02*
X47226392Y22589286D01*
X47226392Y22589286D02*
X47112107Y22617858D01*
X47112107Y22617858D02*
X47054964Y22646429D01*
X47054964Y22646429D02*
X47026392Y22675000D01*
X47026392Y22675000D02*
X46997821Y22732143D01*
X23837500Y33486829D02*
X23837500Y34086829D01*
X23837500Y34086829D02*
X23980357Y34086829D01*
X23980357Y34086829D02*
X24066071Y34058258D01*
X24066071Y34058258D02*
X24123214Y34001115D01*
X24123214Y34001115D02*
X24151785Y33943972D01*
X24151785Y33943972D02*
X24180357Y33829686D01*
X24180357Y33829686D02*
X24180357Y33743972D01*
X24180357Y33743972D02*
X24151785Y33629686D01*
X24151785Y33629686D02*
X24123214Y33572543D01*
X24123214Y33572543D02*
X24066071Y33515400D01*
X24066071Y33515400D02*
X23980357Y33486829D01*
X23980357Y33486829D02*
X23837500Y33486829D01*
X24408928Y33658258D02*
X24694643Y33658258D01*
X24351785Y33486829D02*
X24551785Y34086829D01*
X24551785Y34086829D02*
X24751785Y33486829D01*
X25266071Y33486829D02*
X24923214Y33486829D01*
X25094643Y33486829D02*
X25094643Y34086829D01*
X25094643Y34086829D02*
X25037500Y34001115D01*
X25037500Y34001115D02*
X24980357Y33943972D01*
X24980357Y33943972D02*
X24923214Y33915400D01*
X14759177Y47645339D02*
X14759177Y47604933D01*
X14759177Y47604933D02*
X14718771Y47524121D01*
X14718771Y47524121D02*
X14678365Y47483714D01*
X14678365Y47483714D02*
X14597553Y47443308D01*
X14597553Y47443308D02*
X14516741Y47443308D01*
X14516741Y47443308D02*
X14456131Y47463511D01*
X14456131Y47463511D02*
X14355116Y47524121D01*
X14355116Y47524121D02*
X14294507Y47584730D01*
X14294507Y47584730D02*
X14233898Y47685745D01*
X14233898Y47685745D02*
X14213695Y47746354D01*
X14213695Y47746354D02*
X14213695Y47827166D01*
X14213695Y47827166D02*
X14254101Y47907979D01*
X14254101Y47907979D02*
X14294507Y47948385D01*
X14294507Y47948385D02*
X14375319Y47988791D01*
X14375319Y47988791D02*
X14415725Y47988791D01*
X15203644Y48008994D02*
X14961208Y47766557D01*
X15082426Y47887776D02*
X14658162Y48312040D01*
X14658162Y48312040D02*
X14678365Y48211024D01*
X14678365Y48211024D02*
X14678365Y48130212D01*
X14678365Y48130212D02*
X14658162Y48069603D01*
X14920802Y48574680D02*
X15183441Y48837319D01*
X15183441Y48837319D02*
X15203645Y48534273D01*
X15203645Y48534273D02*
X15264254Y48594883D01*
X15264254Y48594883D02*
X15324863Y48615086D01*
X15324863Y48615086D02*
X15365269Y48615086D01*
X15365269Y48615086D02*
X15425878Y48594883D01*
X15425878Y48594883D02*
X15526893Y48493867D01*
X15526893Y48493867D02*
X15547096Y48433258D01*
X15547096Y48433258D02*
X15547096Y48392852D01*
X15547096Y48392852D02*
X15526893Y48332243D01*
X15526893Y48332243D02*
X15405675Y48211025D01*
X15405675Y48211025D02*
X15345066Y48190822D01*
X15345066Y48190822D02*
X15304660Y48190822D01*
X35664285Y17205229D02*
X35464285Y17490943D01*
X35321428Y17205229D02*
X35321428Y17805229D01*
X35321428Y17805229D02*
X35549999Y17805229D01*
X35549999Y17805229D02*
X35607142Y17776658D01*
X35607142Y17776658D02*
X35635713Y17748086D01*
X35635713Y17748086D02*
X35664285Y17690943D01*
X35664285Y17690943D02*
X35664285Y17605229D01*
X35664285Y17605229D02*
X35635713Y17548086D01*
X35635713Y17548086D02*
X35607142Y17519515D01*
X35607142Y17519515D02*
X35549999Y17490943D01*
X35549999Y17490943D02*
X35321428Y17490943D01*
X35892856Y17748086D02*
X35921428Y17776658D01*
X35921428Y17776658D02*
X35978571Y17805229D01*
X35978571Y17805229D02*
X36121428Y17805229D01*
X36121428Y17805229D02*
X36178571Y17776658D01*
X36178571Y17776658D02*
X36207142Y17748086D01*
X36207142Y17748086D02*
X36235713Y17690943D01*
X36235713Y17690943D02*
X36235713Y17633800D01*
X36235713Y17633800D02*
X36207142Y17548086D01*
X36207142Y17548086D02*
X35864285Y17205229D01*
X35864285Y17205229D02*
X36235713Y17205229D01*
X36607142Y17805229D02*
X36664285Y17805229D01*
X36664285Y17805229D02*
X36721428Y17776658D01*
X36721428Y17776658D02*
X36750000Y17748086D01*
X36750000Y17748086D02*
X36778571Y17690943D01*
X36778571Y17690943D02*
X36807142Y17576658D01*
X36807142Y17576658D02*
X36807142Y17433800D01*
X36807142Y17433800D02*
X36778571Y17319515D01*
X36778571Y17319515D02*
X36750000Y17262372D01*
X36750000Y17262372D02*
X36721428Y17233800D01*
X36721428Y17233800D02*
X36664285Y17205229D01*
X36664285Y17205229D02*
X36607142Y17205229D01*
X36607142Y17205229D02*
X36550000Y17233800D01*
X36550000Y17233800D02*
X36521428Y17262372D01*
X36521428Y17262372D02*
X36492857Y17319515D01*
X36492857Y17319515D02*
X36464285Y17433800D01*
X36464285Y17433800D02*
X36464285Y17576658D01*
X36464285Y17576658D02*
X36492857Y17690943D01*
X36492857Y17690943D02*
X36521428Y17748086D01*
X36521428Y17748086D02*
X36550000Y17776658D01*
X36550000Y17776658D02*
X36607142Y17805229D01*
X48375000Y14830229D02*
X48175000Y15115943D01*
X48032143Y14830229D02*
X48032143Y15430229D01*
X48032143Y15430229D02*
X48260714Y15430229D01*
X48260714Y15430229D02*
X48317857Y15401658D01*
X48317857Y15401658D02*
X48346428Y15373086D01*
X48346428Y15373086D02*
X48375000Y15315943D01*
X48375000Y15315943D02*
X48375000Y15230229D01*
X48375000Y15230229D02*
X48346428Y15173086D01*
X48346428Y15173086D02*
X48317857Y15144515D01*
X48317857Y15144515D02*
X48260714Y15115943D01*
X48260714Y15115943D02*
X48032143Y15115943D01*
X48603571Y15373086D02*
X48632143Y15401658D01*
X48632143Y15401658D02*
X48689286Y15430229D01*
X48689286Y15430229D02*
X48832143Y15430229D01*
X48832143Y15430229D02*
X48889286Y15401658D01*
X48889286Y15401658D02*
X48917857Y15373086D01*
X48917857Y15373086D02*
X48946428Y15315943D01*
X48946428Y15315943D02*
X48946428Y15258800D01*
X48946428Y15258800D02*
X48917857Y15173086D01*
X48917857Y15173086D02*
X48575000Y14830229D01*
X48575000Y14830229D02*
X48946428Y14830229D01*
X45714285Y32557372D02*
X45685713Y32528800D01*
X45685713Y32528800D02*
X45599999Y32500229D01*
X45599999Y32500229D02*
X45542856Y32500229D01*
X45542856Y32500229D02*
X45457142Y32528800D01*
X45457142Y32528800D02*
X45399999Y32585943D01*
X45399999Y32585943D02*
X45371428Y32643086D01*
X45371428Y32643086D02*
X45342856Y32757372D01*
X45342856Y32757372D02*
X45342856Y32843086D01*
X45342856Y32843086D02*
X45371428Y32957372D01*
X45371428Y32957372D02*
X45399999Y33014515D01*
X45399999Y33014515D02*
X45457142Y33071658D01*
X45457142Y33071658D02*
X45542856Y33100229D01*
X45542856Y33100229D02*
X45599999Y33100229D01*
X45599999Y33100229D02*
X45685713Y33071658D01*
X45685713Y33071658D02*
X45714285Y33043086D01*
X45914285Y33100229D02*
X46285713Y33100229D01*
X46285713Y33100229D02*
X46085713Y32871658D01*
X46085713Y32871658D02*
X46171428Y32871658D01*
X46171428Y32871658D02*
X46228571Y32843086D01*
X46228571Y32843086D02*
X46257142Y32814515D01*
X46257142Y32814515D02*
X46285713Y32757372D01*
X46285713Y32757372D02*
X46285713Y32614515D01*
X46285713Y32614515D02*
X46257142Y32557372D01*
X46257142Y32557372D02*
X46228571Y32528800D01*
X46228571Y32528800D02*
X46171428Y32500229D01*
X46171428Y32500229D02*
X45999999Y32500229D01*
X45999999Y32500229D02*
X45942856Y32528800D01*
X45942856Y32528800D02*
X45914285Y32557372D01*
X46514285Y33043086D02*
X46542857Y33071658D01*
X46542857Y33071658D02*
X46600000Y33100229D01*
X46600000Y33100229D02*
X46742857Y33100229D01*
X46742857Y33100229D02*
X46800000Y33071658D01*
X46800000Y33071658D02*
X46828571Y33043086D01*
X46828571Y33043086D02*
X46857142Y32985943D01*
X46857142Y32985943D02*
X46857142Y32928800D01*
X46857142Y32928800D02*
X46828571Y32843086D01*
X46828571Y32843086D02*
X46485714Y32500229D01*
X46485714Y32500229D02*
X46857142Y32500229D01*
X35007628Y35694286D02*
X35036200Y35665714D01*
X35036200Y35665714D02*
X35064771Y35580000D01*
X35064771Y35580000D02*
X35064771Y35522857D01*
X35064771Y35522857D02*
X35036200Y35437143D01*
X35036200Y35437143D02*
X34979057Y35380000D01*
X34979057Y35380000D02*
X34921914Y35351429D01*
X34921914Y35351429D02*
X34807628Y35322857D01*
X34807628Y35322857D02*
X34721914Y35322857D01*
X34721914Y35322857D02*
X34607628Y35351429D01*
X34607628Y35351429D02*
X34550485Y35380000D01*
X34550485Y35380000D02*
X34493342Y35437143D01*
X34493342Y35437143D02*
X34464771Y35522857D01*
X34464771Y35522857D02*
X34464771Y35580000D01*
X34464771Y35580000D02*
X34493342Y35665714D01*
X34493342Y35665714D02*
X34521914Y35694286D01*
X34521914Y35922857D02*
X34493342Y35951429D01*
X34493342Y35951429D02*
X34464771Y36008571D01*
X34464771Y36008571D02*
X34464771Y36151429D01*
X34464771Y36151429D02*
X34493342Y36208571D01*
X34493342Y36208571D02*
X34521914Y36237143D01*
X34521914Y36237143D02*
X34579057Y36265714D01*
X34579057Y36265714D02*
X34636200Y36265714D01*
X34636200Y36265714D02*
X34721914Y36237143D01*
X34721914Y36237143D02*
X35064771Y35894286D01*
X35064771Y35894286D02*
X35064771Y36265714D01*
X34721914Y36608572D02*
X34693342Y36551429D01*
X34693342Y36551429D02*
X34664771Y36522858D01*
X34664771Y36522858D02*
X34607628Y36494286D01*
X34607628Y36494286D02*
X34579057Y36494286D01*
X34579057Y36494286D02*
X34521914Y36522858D01*
X34521914Y36522858D02*
X34493342Y36551429D01*
X34493342Y36551429D02*
X34464771Y36608572D01*
X34464771Y36608572D02*
X34464771Y36722858D01*
X34464771Y36722858D02*
X34493342Y36780000D01*
X34493342Y36780000D02*
X34521914Y36808572D01*
X34521914Y36808572D02*
X34579057Y36837143D01*
X34579057Y36837143D02*
X34607628Y36837143D01*
X34607628Y36837143D02*
X34664771Y36808572D01*
X34664771Y36808572D02*
X34693342Y36780000D01*
X34693342Y36780000D02*
X34721914Y36722858D01*
X34721914Y36722858D02*
X34721914Y36608572D01*
X34721914Y36608572D02*
X34750485Y36551429D01*
X34750485Y36551429D02*
X34779057Y36522858D01*
X34779057Y36522858D02*
X34836200Y36494286D01*
X34836200Y36494286D02*
X34950485Y36494286D01*
X34950485Y36494286D02*
X35007628Y36522858D01*
X35007628Y36522858D02*
X35036200Y36551429D01*
X35036200Y36551429D02*
X35064771Y36608572D01*
X35064771Y36608572D02*
X35064771Y36722858D01*
X35064771Y36722858D02*
X35036200Y36780000D01*
X35036200Y36780000D02*
X35007628Y36808572D01*
X35007628Y36808572D02*
X34950485Y36837143D01*
X34950485Y36837143D02*
X34836200Y36837143D01*
X34836200Y36837143D02*
X34779057Y36808572D01*
X34779057Y36808572D02*
X34750485Y36780000D01*
X34750485Y36780000D02*
X34721914Y36722858D01*
X19009178Y44595340D02*
X19009178Y44554934D01*
X19009178Y44554934D02*
X18968772Y44474122D01*
X18968772Y44474122D02*
X18928366Y44433715D01*
X18928366Y44433715D02*
X18847554Y44393309D01*
X18847554Y44393309D02*
X18766742Y44393309D01*
X18766742Y44393309D02*
X18706132Y44413512D01*
X18706132Y44413512D02*
X18605117Y44474122D01*
X18605117Y44474122D02*
X18544508Y44534731D01*
X18544508Y44534731D02*
X18483899Y44635746D01*
X18483899Y44635746D02*
X18463696Y44696355D01*
X18463696Y44696355D02*
X18463696Y44777167D01*
X18463696Y44777167D02*
X18504102Y44857980D01*
X18504102Y44857980D02*
X18544508Y44898386D01*
X18544508Y44898386D02*
X18625320Y44938792D01*
X18625320Y44938792D02*
X18665726Y44938792D01*
X19453645Y44958995D02*
X19211209Y44716558D01*
X19332427Y44837777D02*
X18908163Y45262041D01*
X18908163Y45262041D02*
X18928366Y45161025D01*
X18928366Y45161025D02*
X18928366Y45080213D01*
X18928366Y45080213D02*
X18908163Y45019604D01*
X19170803Y45524681D02*
X19453646Y45807523D01*
X19453646Y45807523D02*
X19696082Y45201432D01*
X1645476Y22110181D02*
X1978809Y21110181D01*
X1978809Y21110181D02*
X2312142Y22110181D01*
X2645476Y21110181D02*
X2645476Y22110181D01*
X2645476Y22110181D02*
X2883571Y22110181D01*
X2883571Y22110181D02*
X3026428Y22062562D01*
X3026428Y22062562D02*
X3121666Y21967324D01*
X3121666Y21967324D02*
X3169285Y21872086D01*
X3169285Y21872086D02*
X3216904Y21681610D01*
X3216904Y21681610D02*
X3216904Y21538753D01*
X3216904Y21538753D02*
X3169285Y21348277D01*
X3169285Y21348277D02*
X3121666Y21253039D01*
X3121666Y21253039D02*
X3026428Y21157800D01*
X3026428Y21157800D02*
X2883571Y21110181D01*
X2883571Y21110181D02*
X2645476Y21110181D01*
X4121666Y22110181D02*
X3645476Y22110181D01*
X3645476Y22110181D02*
X3597857Y21633991D01*
X3597857Y21633991D02*
X3645476Y21681610D01*
X3645476Y21681610D02*
X3740714Y21729229D01*
X3740714Y21729229D02*
X3978809Y21729229D01*
X3978809Y21729229D02*
X4074047Y21681610D01*
X4074047Y21681610D02*
X4121666Y21633991D01*
X4121666Y21633991D02*
X4169285Y21538753D01*
X4169285Y21538753D02*
X4169285Y21300658D01*
X4169285Y21300658D02*
X4121666Y21205420D01*
X4121666Y21205420D02*
X4074047Y21157800D01*
X4074047Y21157800D02*
X3978809Y21110181D01*
X3978809Y21110181D02*
X3740714Y21110181D01*
X3740714Y21110181D02*
X3645476Y21157800D01*
X3645476Y21157800D02*
X3597857Y21205420D01*
X46194771Y48639286D02*
X45909057Y48439286D01*
X46194771Y48296429D02*
X45594771Y48296429D01*
X45594771Y48296429D02*
X45594771Y48525000D01*
X45594771Y48525000D02*
X45623342Y48582143D01*
X45623342Y48582143D02*
X45651914Y48610714D01*
X45651914Y48610714D02*
X45709057Y48639286D01*
X45709057Y48639286D02*
X45794771Y48639286D01*
X45794771Y48639286D02*
X45851914Y48610714D01*
X45851914Y48610714D02*
X45880485Y48582143D01*
X45880485Y48582143D02*
X45909057Y48525000D01*
X45909057Y48525000D02*
X45909057Y48296429D01*
X46194771Y49210714D02*
X46194771Y48867857D01*
X46194771Y49039286D02*
X45594771Y49039286D01*
X45594771Y49039286D02*
X45680485Y48982143D01*
X45680485Y48982143D02*
X45737628Y48925000D01*
X45737628Y48925000D02*
X45766200Y48867857D01*
X45794771Y49725000D02*
X46194771Y49725000D01*
X45566200Y49582143D02*
X45994771Y49439286D01*
X45994771Y49439286D02*
X45994771Y49810715D01*
X6727628Y56914286D02*
X6756200Y56885714D01*
X6756200Y56885714D02*
X6784771Y56800000D01*
X6784771Y56800000D02*
X6784771Y56742857D01*
X6784771Y56742857D02*
X6756200Y56657143D01*
X6756200Y56657143D02*
X6699057Y56600000D01*
X6699057Y56600000D02*
X6641914Y56571429D01*
X6641914Y56571429D02*
X6527628Y56542857D01*
X6527628Y56542857D02*
X6441914Y56542857D01*
X6441914Y56542857D02*
X6327628Y56571429D01*
X6327628Y56571429D02*
X6270485Y56600000D01*
X6270485Y56600000D02*
X6213342Y56657143D01*
X6213342Y56657143D02*
X6184771Y56742857D01*
X6184771Y56742857D02*
X6184771Y56800000D01*
X6184771Y56800000D02*
X6213342Y56885714D01*
X6213342Y56885714D02*
X6241914Y56914286D01*
X6384771Y57428571D02*
X6784771Y57428571D01*
X6156200Y57285714D02*
X6584771Y57142857D01*
X6584771Y57142857D02*
X6584771Y57514286D01*
X6184771Y57685715D02*
X6184771Y58057143D01*
X6184771Y58057143D02*
X6413342Y57857143D01*
X6413342Y57857143D02*
X6413342Y57942858D01*
X6413342Y57942858D02*
X6441914Y58000000D01*
X6441914Y58000000D02*
X6470485Y58028572D01*
X6470485Y58028572D02*
X6527628Y58057143D01*
X6527628Y58057143D02*
X6670485Y58057143D01*
X6670485Y58057143D02*
X6727628Y58028572D01*
X6727628Y58028572D02*
X6756200Y58000000D01*
X6756200Y58000000D02*
X6784771Y57942858D01*
X6784771Y57942858D02*
X6784771Y57771429D01*
X6784771Y57771429D02*
X6756200Y57714286D01*
X6756200Y57714286D02*
X6727628Y57685715D01*
X33857628Y44444286D02*
X33886200Y44415714D01*
X33886200Y44415714D02*
X33914771Y44330000D01*
X33914771Y44330000D02*
X33914771Y44272857D01*
X33914771Y44272857D02*
X33886200Y44187143D01*
X33886200Y44187143D02*
X33829057Y44130000D01*
X33829057Y44130000D02*
X33771914Y44101429D01*
X33771914Y44101429D02*
X33657628Y44072857D01*
X33657628Y44072857D02*
X33571914Y44072857D01*
X33571914Y44072857D02*
X33457628Y44101429D01*
X33457628Y44101429D02*
X33400485Y44130000D01*
X33400485Y44130000D02*
X33343342Y44187143D01*
X33343342Y44187143D02*
X33314771Y44272857D01*
X33314771Y44272857D02*
X33314771Y44330000D01*
X33314771Y44330000D02*
X33343342Y44415714D01*
X33343342Y44415714D02*
X33371914Y44444286D01*
X33371914Y44672857D02*
X33343342Y44701429D01*
X33343342Y44701429D02*
X33314771Y44758571D01*
X33314771Y44758571D02*
X33314771Y44901429D01*
X33314771Y44901429D02*
X33343342Y44958571D01*
X33343342Y44958571D02*
X33371914Y44987143D01*
X33371914Y44987143D02*
X33429057Y45015714D01*
X33429057Y45015714D02*
X33486200Y45015714D01*
X33486200Y45015714D02*
X33571914Y44987143D01*
X33571914Y44987143D02*
X33914771Y44644286D01*
X33914771Y44644286D02*
X33914771Y45015714D01*
X33314771Y45530000D02*
X33314771Y45415715D01*
X33314771Y45415715D02*
X33343342Y45358572D01*
X33343342Y45358572D02*
X33371914Y45330000D01*
X33371914Y45330000D02*
X33457628Y45272858D01*
X33457628Y45272858D02*
X33571914Y45244286D01*
X33571914Y45244286D02*
X33800485Y45244286D01*
X33800485Y45244286D02*
X33857628Y45272858D01*
X33857628Y45272858D02*
X33886200Y45301429D01*
X33886200Y45301429D02*
X33914771Y45358572D01*
X33914771Y45358572D02*
X33914771Y45472858D01*
X33914771Y45472858D02*
X33886200Y45530000D01*
X33886200Y45530000D02*
X33857628Y45558572D01*
X33857628Y45558572D02*
X33800485Y45587143D01*
X33800485Y45587143D02*
X33657628Y45587143D01*
X33657628Y45587143D02*
X33600485Y45558572D01*
X33600485Y45558572D02*
X33571914Y45530000D01*
X33571914Y45530000D02*
X33543342Y45472858D01*
X33543342Y45472858D02*
X33543342Y45358572D01*
X33543342Y45358572D02*
X33571914Y45301429D01*
X33571914Y45301429D02*
X33600485Y45272858D01*
X33600485Y45272858D02*
X33657628Y45244286D01*
X11747564Y43252224D02*
X11747564Y42966510D01*
X11747564Y42966510D02*
X11147564Y42966510D01*
X11147564Y43395081D02*
X11147564Y43766509D01*
X11147564Y43766509D02*
X11376135Y43566509D01*
X11376135Y43566509D02*
X11376135Y43652224D01*
X11376135Y43652224D02*
X11404707Y43709366D01*
X11404707Y43709366D02*
X11433278Y43737938D01*
X11433278Y43737938D02*
X11490421Y43766509D01*
X11490421Y43766509D02*
X11633278Y43766509D01*
X11633278Y43766509D02*
X11690421Y43737938D01*
X11690421Y43737938D02*
X11718993Y43709366D01*
X11718993Y43709366D02*
X11747564Y43652224D01*
X11747564Y43652224D02*
X11747564Y43480795D01*
X11747564Y43480795D02*
X11718993Y43423652D01*
X11718993Y43423652D02*
X11690421Y43395081D01*
X35882628Y11475001D02*
X35911200Y11446429D01*
X35911200Y11446429D02*
X35939771Y11360715D01*
X35939771Y11360715D02*
X35939771Y11303572D01*
X35939771Y11303572D02*
X35911200Y11217858D01*
X35911200Y11217858D02*
X35854057Y11160715D01*
X35854057Y11160715D02*
X35796914Y11132144D01*
X35796914Y11132144D02*
X35682628Y11103572D01*
X35682628Y11103572D02*
X35596914Y11103572D01*
X35596914Y11103572D02*
X35482628Y11132144D01*
X35482628Y11132144D02*
X35425485Y11160715D01*
X35425485Y11160715D02*
X35368342Y11217858D01*
X35368342Y11217858D02*
X35339771Y11303572D01*
X35339771Y11303572D02*
X35339771Y11360715D01*
X35339771Y11360715D02*
X35368342Y11446429D01*
X35368342Y11446429D02*
X35396914Y11475001D01*
X35339771Y11675001D02*
X35339771Y12046429D01*
X35339771Y12046429D02*
X35568342Y11846429D01*
X35568342Y11846429D02*
X35568342Y11932144D01*
X35568342Y11932144D02*
X35596914Y11989286D01*
X35596914Y11989286D02*
X35625485Y12017858D01*
X35625485Y12017858D02*
X35682628Y12046429D01*
X35682628Y12046429D02*
X35825485Y12046429D01*
X35825485Y12046429D02*
X35882628Y12017858D01*
X35882628Y12017858D02*
X35911200Y11989286D01*
X35911200Y11989286D02*
X35939771Y11932144D01*
X35939771Y11932144D02*
X35939771Y11760715D01*
X35939771Y11760715D02*
X35911200Y11703572D01*
X35911200Y11703572D02*
X35882628Y11675001D01*
X40510000Y55905229D02*
X40224286Y55905229D01*
X40224286Y55905229D02*
X40224286Y56505229D01*
X40681428Y56448086D02*
X40710000Y56476658D01*
X40710000Y56476658D02*
X40767143Y56505229D01*
X40767143Y56505229D02*
X40910000Y56505229D01*
X40910000Y56505229D02*
X40967143Y56476658D01*
X40967143Y56476658D02*
X40995714Y56448086D01*
X40995714Y56448086D02*
X41024285Y56390943D01*
X41024285Y56390943D02*
X41024285Y56333800D01*
X41024285Y56333800D02*
X40995714Y56248086D01*
X40995714Y56248086D02*
X40652857Y55905229D01*
X40652857Y55905229D02*
X41024285Y55905229D01*
X5539285Y54502372D02*
X5510713Y54473800D01*
X5510713Y54473800D02*
X5424999Y54445229D01*
X5424999Y54445229D02*
X5367856Y54445229D01*
X5367856Y54445229D02*
X5282142Y54473800D01*
X5282142Y54473800D02*
X5224999Y54530943D01*
X5224999Y54530943D02*
X5196428Y54588086D01*
X5196428Y54588086D02*
X5167856Y54702372D01*
X5167856Y54702372D02*
X5167856Y54788086D01*
X5167856Y54788086D02*
X5196428Y54902372D01*
X5196428Y54902372D02*
X5224999Y54959515D01*
X5224999Y54959515D02*
X5282142Y55016658D01*
X5282142Y55016658D02*
X5367856Y55045229D01*
X5367856Y55045229D02*
X5424999Y55045229D01*
X5424999Y55045229D02*
X5510713Y55016658D01*
X5510713Y55016658D02*
X5539285Y54988086D01*
X6053571Y54845229D02*
X6053571Y54445229D01*
X5910713Y55073800D02*
X5767856Y54645229D01*
X5767856Y54645229D02*
X6139285Y54645229D01*
X6682142Y54445229D02*
X6339285Y54445229D01*
X6510714Y54445229D02*
X6510714Y55045229D01*
X6510714Y55045229D02*
X6453571Y54959515D01*
X6453571Y54959515D02*
X6396428Y54902372D01*
X6396428Y54902372D02*
X6339285Y54873800D01*
X7707628Y21639286D02*
X7736200Y21610714D01*
X7736200Y21610714D02*
X7764771Y21525000D01*
X7764771Y21525000D02*
X7764771Y21467857D01*
X7764771Y21467857D02*
X7736200Y21382143D01*
X7736200Y21382143D02*
X7679057Y21325000D01*
X7679057Y21325000D02*
X7621914Y21296429D01*
X7621914Y21296429D02*
X7507628Y21267857D01*
X7507628Y21267857D02*
X7421914Y21267857D01*
X7421914Y21267857D02*
X7307628Y21296429D01*
X7307628Y21296429D02*
X7250485Y21325000D01*
X7250485Y21325000D02*
X7193342Y21382143D01*
X7193342Y21382143D02*
X7164771Y21467857D01*
X7164771Y21467857D02*
X7164771Y21525000D01*
X7164771Y21525000D02*
X7193342Y21610714D01*
X7193342Y21610714D02*
X7221914Y21639286D01*
X7764771Y22210714D02*
X7764771Y21867857D01*
X7764771Y22039286D02*
X7164771Y22039286D01*
X7164771Y22039286D02*
X7250485Y21982143D01*
X7250485Y21982143D02*
X7307628Y21925000D01*
X7307628Y21925000D02*
X7336200Y21867857D01*
X7221914Y22439286D02*
X7193342Y22467858D01*
X7193342Y22467858D02*
X7164771Y22525000D01*
X7164771Y22525000D02*
X7164771Y22667858D01*
X7164771Y22667858D02*
X7193342Y22725000D01*
X7193342Y22725000D02*
X7221914Y22753572D01*
X7221914Y22753572D02*
X7279057Y22782143D01*
X7279057Y22782143D02*
X7336200Y22782143D01*
X7336200Y22782143D02*
X7421914Y22753572D01*
X7421914Y22753572D02*
X7764771Y22410715D01*
X7764771Y22410715D02*
X7764771Y22782143D01*
X31185476Y26030181D02*
X31518809Y25030181D01*
X31518809Y25030181D02*
X31852142Y26030181D01*
X32185476Y25030181D02*
X32185476Y26030181D01*
X32185476Y26030181D02*
X32423571Y26030181D01*
X32423571Y26030181D02*
X32566428Y25982562D01*
X32566428Y25982562D02*
X32661666Y25887324D01*
X32661666Y25887324D02*
X32709285Y25792086D01*
X32709285Y25792086D02*
X32756904Y25601610D01*
X32756904Y25601610D02*
X32756904Y25458753D01*
X32756904Y25458753D02*
X32709285Y25268277D01*
X32709285Y25268277D02*
X32661666Y25173039D01*
X32661666Y25173039D02*
X32566428Y25077800D01*
X32566428Y25077800D02*
X32423571Y25030181D01*
X32423571Y25030181D02*
X32185476Y25030181D01*
X33614047Y26030181D02*
X33423571Y26030181D01*
X33423571Y26030181D02*
X33328333Y25982562D01*
X33328333Y25982562D02*
X33280714Y25934943D01*
X33280714Y25934943D02*
X33185476Y25792086D01*
X33185476Y25792086D02*
X33137857Y25601610D01*
X33137857Y25601610D02*
X33137857Y25220658D01*
X33137857Y25220658D02*
X33185476Y25125420D01*
X33185476Y25125420D02*
X33233095Y25077800D01*
X33233095Y25077800D02*
X33328333Y25030181D01*
X33328333Y25030181D02*
X33518809Y25030181D01*
X33518809Y25030181D02*
X33614047Y25077800D01*
X33614047Y25077800D02*
X33661666Y25125420D01*
X33661666Y25125420D02*
X33709285Y25220658D01*
X33709285Y25220658D02*
X33709285Y25458753D01*
X33709285Y25458753D02*
X33661666Y25553991D01*
X33661666Y25553991D02*
X33614047Y25601610D01*
X33614047Y25601610D02*
X33518809Y25649229D01*
X33518809Y25649229D02*
X33328333Y25649229D01*
X33328333Y25649229D02*
X33233095Y25601610D01*
X33233095Y25601610D02*
X33185476Y25553991D01*
X33185476Y25553991D02*
X33137857Y25458753D01*
X33562628Y35331286D02*
X33591200Y35302714D01*
X33591200Y35302714D02*
X33619771Y35217000D01*
X33619771Y35217000D02*
X33619771Y35159857D01*
X33619771Y35159857D02*
X33591200Y35074143D01*
X33591200Y35074143D02*
X33534057Y35017000D01*
X33534057Y35017000D02*
X33476914Y34988429D01*
X33476914Y34988429D02*
X33362628Y34959857D01*
X33362628Y34959857D02*
X33276914Y34959857D01*
X33276914Y34959857D02*
X33162628Y34988429D01*
X33162628Y34988429D02*
X33105485Y35017000D01*
X33105485Y35017000D02*
X33048342Y35074143D01*
X33048342Y35074143D02*
X33019771Y35159857D01*
X33019771Y35159857D02*
X33019771Y35217000D01*
X33019771Y35217000D02*
X33048342Y35302714D01*
X33048342Y35302714D02*
X33076914Y35331286D01*
X33076914Y35559857D02*
X33048342Y35588429D01*
X33048342Y35588429D02*
X33019771Y35645571D01*
X33019771Y35645571D02*
X33019771Y35788429D01*
X33019771Y35788429D02*
X33048342Y35845571D01*
X33048342Y35845571D02*
X33076914Y35874143D01*
X33076914Y35874143D02*
X33134057Y35902714D01*
X33134057Y35902714D02*
X33191200Y35902714D01*
X33191200Y35902714D02*
X33276914Y35874143D01*
X33276914Y35874143D02*
X33619771Y35531286D01*
X33619771Y35531286D02*
X33619771Y35902714D01*
X33619771Y36474143D02*
X33619771Y36131286D01*
X33619771Y36302715D02*
X33019771Y36302715D01*
X33019771Y36302715D02*
X33105485Y36245572D01*
X33105485Y36245572D02*
X33162628Y36188429D01*
X33162628Y36188429D02*
X33191200Y36131286D01*
X43907592Y18874773D02*
X44107592Y18274773D01*
X44107592Y18274773D02*
X44307592Y18874773D01*
X44507593Y18274773D02*
X44507593Y18874773D01*
X44507593Y18874773D02*
X44650450Y18874773D01*
X44650450Y18874773D02*
X44736164Y18846202D01*
X44736164Y18846202D02*
X44793307Y18789059D01*
X44793307Y18789059D02*
X44821878Y18731916D01*
X44821878Y18731916D02*
X44850450Y18617630D01*
X44850450Y18617630D02*
X44850450Y18531916D01*
X44850450Y18531916D02*
X44821878Y18417630D01*
X44821878Y18417630D02*
X44793307Y18360487D01*
X44793307Y18360487D02*
X44736164Y18303344D01*
X44736164Y18303344D02*
X44650450Y18274773D01*
X44650450Y18274773D02*
X44507593Y18274773D01*
X45079021Y18817630D02*
X45107593Y18846202D01*
X45107593Y18846202D02*
X45164736Y18874773D01*
X45164736Y18874773D02*
X45307593Y18874773D01*
X45307593Y18874773D02*
X45364736Y18846202D01*
X45364736Y18846202D02*
X45393307Y18817630D01*
X45393307Y18817630D02*
X45421878Y18760487D01*
X45421878Y18760487D02*
X45421878Y18703344D01*
X45421878Y18703344D02*
X45393307Y18617630D01*
X45393307Y18617630D02*
X45050450Y18274773D01*
X45050450Y18274773D02*
X45421878Y18274773D01*
X25787500Y31242372D02*
X25758928Y31213800D01*
X25758928Y31213800D02*
X25673214Y31185229D01*
X25673214Y31185229D02*
X25616071Y31185229D01*
X25616071Y31185229D02*
X25530357Y31213800D01*
X25530357Y31213800D02*
X25473214Y31270943D01*
X25473214Y31270943D02*
X25444643Y31328086D01*
X25444643Y31328086D02*
X25416071Y31442372D01*
X25416071Y31442372D02*
X25416071Y31528086D01*
X25416071Y31528086D02*
X25444643Y31642372D01*
X25444643Y31642372D02*
X25473214Y31699515D01*
X25473214Y31699515D02*
X25530357Y31756658D01*
X25530357Y31756658D02*
X25616071Y31785229D01*
X25616071Y31785229D02*
X25673214Y31785229D01*
X25673214Y31785229D02*
X25758928Y31756658D01*
X25758928Y31756658D02*
X25787500Y31728086D01*
X26016071Y31728086D02*
X26044643Y31756658D01*
X26044643Y31756658D02*
X26101786Y31785229D01*
X26101786Y31785229D02*
X26244643Y31785229D01*
X26244643Y31785229D02*
X26301786Y31756658D01*
X26301786Y31756658D02*
X26330357Y31728086D01*
X26330357Y31728086D02*
X26358928Y31670943D01*
X26358928Y31670943D02*
X26358928Y31613800D01*
X26358928Y31613800D02*
X26330357Y31528086D01*
X26330357Y31528086D02*
X25987500Y31185229D01*
X25987500Y31185229D02*
X26358928Y31185229D01*
X13319556Y24317229D02*
X13319556Y24917229D01*
X13319556Y24917229D02*
X13462413Y24917229D01*
X13462413Y24917229D02*
X13548127Y24888658D01*
X13548127Y24888658D02*
X13605270Y24831515D01*
X13605270Y24831515D02*
X13633841Y24774372D01*
X13633841Y24774372D02*
X13662413Y24660086D01*
X13662413Y24660086D02*
X13662413Y24574372D01*
X13662413Y24574372D02*
X13633841Y24460086D01*
X13633841Y24460086D02*
X13605270Y24402943D01*
X13605270Y24402943D02*
X13548127Y24345800D01*
X13548127Y24345800D02*
X13462413Y24317229D01*
X13462413Y24317229D02*
X13319556Y24317229D01*
X13890984Y24488658D02*
X14176699Y24488658D01*
X13833841Y24317229D02*
X14033841Y24917229D01*
X14033841Y24917229D02*
X14233841Y24317229D01*
X14376699Y24917229D02*
X14748127Y24917229D01*
X14748127Y24917229D02*
X14548127Y24688658D01*
X14548127Y24688658D02*
X14633842Y24688658D01*
X14633842Y24688658D02*
X14690985Y24660086D01*
X14690985Y24660086D02*
X14719556Y24631515D01*
X14719556Y24631515D02*
X14748127Y24574372D01*
X14748127Y24574372D02*
X14748127Y24431515D01*
X14748127Y24431515D02*
X14719556Y24374372D01*
X14719556Y24374372D02*
X14690985Y24345800D01*
X14690985Y24345800D02*
X14633842Y24317229D01*
X14633842Y24317229D02*
X14462413Y24317229D01*
X14462413Y24317229D02*
X14405270Y24345800D01*
X14405270Y24345800D02*
X14376699Y24374372D01*
X21407592Y59071706D02*
X21367186Y59071706D01*
X21367186Y59071706D02*
X21286374Y59112112D01*
X21286374Y59112112D02*
X21245968Y59152518D01*
X21245968Y59152518D02*
X21205561Y59233330D01*
X21205561Y59233330D02*
X21205561Y59314142D01*
X21205561Y59314142D02*
X21225764Y59374752D01*
X21225764Y59374752D02*
X21286374Y59475767D01*
X21286374Y59475767D02*
X21346983Y59536376D01*
X21346983Y59536376D02*
X21447998Y59596985D01*
X21447998Y59596985D02*
X21508607Y59617188D01*
X21508607Y59617188D02*
X21589419Y59617188D01*
X21589419Y59617188D02*
X21670232Y59576782D01*
X21670232Y59576782D02*
X21710638Y59536376D01*
X21710638Y59536376D02*
X21751044Y59455564D01*
X21751044Y59455564D02*
X21751044Y59415158D01*
X21932871Y59314142D02*
X22215714Y59031300D01*
X22215714Y59031300D02*
X21609622Y58788863D01*
X42468628Y50970286D02*
X42497200Y50941714D01*
X42497200Y50941714D02*
X42525771Y50856000D01*
X42525771Y50856000D02*
X42525771Y50798857D01*
X42525771Y50798857D02*
X42497200Y50713143D01*
X42497200Y50713143D02*
X42440057Y50656000D01*
X42440057Y50656000D02*
X42382914Y50627429D01*
X42382914Y50627429D02*
X42268628Y50598857D01*
X42268628Y50598857D02*
X42182914Y50598857D01*
X42182914Y50598857D02*
X42068628Y50627429D01*
X42068628Y50627429D02*
X42011485Y50656000D01*
X42011485Y50656000D02*
X41954342Y50713143D01*
X41954342Y50713143D02*
X41925771Y50798857D01*
X41925771Y50798857D02*
X41925771Y50856000D01*
X41925771Y50856000D02*
X41954342Y50941714D01*
X41954342Y50941714D02*
X41982914Y50970286D01*
X41982914Y51198857D02*
X41954342Y51227429D01*
X41954342Y51227429D02*
X41925771Y51284571D01*
X41925771Y51284571D02*
X41925771Y51427429D01*
X41925771Y51427429D02*
X41954342Y51484571D01*
X41954342Y51484571D02*
X41982914Y51513143D01*
X41982914Y51513143D02*
X42040057Y51541714D01*
X42040057Y51541714D02*
X42097200Y51541714D01*
X42097200Y51541714D02*
X42182914Y51513143D01*
X42182914Y51513143D02*
X42525771Y51170286D01*
X42525771Y51170286D02*
X42525771Y51541714D01*
X42125771Y52056000D02*
X42525771Y52056000D01*
X41897200Y51913143D02*
X42325771Y51770286D01*
X42325771Y51770286D02*
X42325771Y52141715D01*
X41625000Y28055229D02*
X41425000Y28340943D01*
X41282143Y28055229D02*
X41282143Y28655229D01*
X41282143Y28655229D02*
X41510714Y28655229D01*
X41510714Y28655229D02*
X41567857Y28626658D01*
X41567857Y28626658D02*
X41596428Y28598086D01*
X41596428Y28598086D02*
X41625000Y28540943D01*
X41625000Y28540943D02*
X41625000Y28455229D01*
X41625000Y28455229D02*
X41596428Y28398086D01*
X41596428Y28398086D02*
X41567857Y28369515D01*
X41567857Y28369515D02*
X41510714Y28340943D01*
X41510714Y28340943D02*
X41282143Y28340943D01*
X41967857Y28398086D02*
X41910714Y28426658D01*
X41910714Y28426658D02*
X41882143Y28455229D01*
X41882143Y28455229D02*
X41853571Y28512372D01*
X41853571Y28512372D02*
X41853571Y28540943D01*
X41853571Y28540943D02*
X41882143Y28598086D01*
X41882143Y28598086D02*
X41910714Y28626658D01*
X41910714Y28626658D02*
X41967857Y28655229D01*
X41967857Y28655229D02*
X42082143Y28655229D01*
X42082143Y28655229D02*
X42139286Y28626658D01*
X42139286Y28626658D02*
X42167857Y28598086D01*
X42167857Y28598086D02*
X42196428Y28540943D01*
X42196428Y28540943D02*
X42196428Y28512372D01*
X42196428Y28512372D02*
X42167857Y28455229D01*
X42167857Y28455229D02*
X42139286Y28426658D01*
X42139286Y28426658D02*
X42082143Y28398086D01*
X42082143Y28398086D02*
X41967857Y28398086D01*
X41967857Y28398086D02*
X41910714Y28369515D01*
X41910714Y28369515D02*
X41882143Y28340943D01*
X41882143Y28340943D02*
X41853571Y28283800D01*
X41853571Y28283800D02*
X41853571Y28169515D01*
X41853571Y28169515D02*
X41882143Y28112372D01*
X41882143Y28112372D02*
X41910714Y28083800D01*
X41910714Y28083800D02*
X41967857Y28055229D01*
X41967857Y28055229D02*
X42082143Y28055229D01*
X42082143Y28055229D02*
X42139286Y28083800D01*
X42139286Y28083800D02*
X42167857Y28112372D01*
X42167857Y28112372D02*
X42196428Y28169515D01*
X42196428Y28169515D02*
X42196428Y28283800D01*
X42196428Y28283800D02*
X42167857Y28340943D01*
X42167857Y28340943D02*
X42139286Y28369515D01*
X42139286Y28369515D02*
X42082143Y28398086D01*
X36962285Y50412372D02*
X36933713Y50383800D01*
X36933713Y50383800D02*
X36847999Y50355229D01*
X36847999Y50355229D02*
X36790856Y50355229D01*
X36790856Y50355229D02*
X36705142Y50383800D01*
X36705142Y50383800D02*
X36647999Y50440943D01*
X36647999Y50440943D02*
X36619428Y50498086D01*
X36619428Y50498086D02*
X36590856Y50612372D01*
X36590856Y50612372D02*
X36590856Y50698086D01*
X36590856Y50698086D02*
X36619428Y50812372D01*
X36619428Y50812372D02*
X36647999Y50869515D01*
X36647999Y50869515D02*
X36705142Y50926658D01*
X36705142Y50926658D02*
X36790856Y50955229D01*
X36790856Y50955229D02*
X36847999Y50955229D01*
X36847999Y50955229D02*
X36933713Y50926658D01*
X36933713Y50926658D02*
X36962285Y50898086D01*
X37190856Y50898086D02*
X37219428Y50926658D01*
X37219428Y50926658D02*
X37276571Y50955229D01*
X37276571Y50955229D02*
X37419428Y50955229D01*
X37419428Y50955229D02*
X37476571Y50926658D01*
X37476571Y50926658D02*
X37505142Y50898086D01*
X37505142Y50898086D02*
X37533713Y50840943D01*
X37533713Y50840943D02*
X37533713Y50783800D01*
X37533713Y50783800D02*
X37505142Y50698086D01*
X37505142Y50698086D02*
X37162285Y50355229D01*
X37162285Y50355229D02*
X37533713Y50355229D01*
X37733714Y50955229D02*
X38133714Y50955229D01*
X38133714Y50955229D02*
X37876571Y50355229D01*
X44670000Y13782372D02*
X44641428Y13753800D01*
X44641428Y13753800D02*
X44555714Y13725229D01*
X44555714Y13725229D02*
X44498571Y13725229D01*
X44498571Y13725229D02*
X44412857Y13753800D01*
X44412857Y13753800D02*
X44355714Y13810943D01*
X44355714Y13810943D02*
X44327143Y13868086D01*
X44327143Y13868086D02*
X44298571Y13982372D01*
X44298571Y13982372D02*
X44298571Y14068086D01*
X44298571Y14068086D02*
X44327143Y14182372D01*
X44327143Y14182372D02*
X44355714Y14239515D01*
X44355714Y14239515D02*
X44412857Y14296658D01*
X44412857Y14296658D02*
X44498571Y14325229D01*
X44498571Y14325229D02*
X44555714Y14325229D01*
X44555714Y14325229D02*
X44641428Y14296658D01*
X44641428Y14296658D02*
X44670000Y14268086D01*
X45241428Y13725229D02*
X44898571Y13725229D01*
X45070000Y13725229D02*
X45070000Y14325229D01*
X45070000Y14325229D02*
X45012857Y14239515D01*
X45012857Y14239515D02*
X44955714Y14182372D01*
X44955714Y14182372D02*
X44898571Y14153800D01*
X16901785Y15755229D02*
X16701785Y16040943D01*
X16558928Y15755229D02*
X16558928Y16355229D01*
X16558928Y16355229D02*
X16787499Y16355229D01*
X16787499Y16355229D02*
X16844642Y16326658D01*
X16844642Y16326658D02*
X16873213Y16298086D01*
X16873213Y16298086D02*
X16901785Y16240943D01*
X16901785Y16240943D02*
X16901785Y16155229D01*
X16901785Y16155229D02*
X16873213Y16098086D01*
X16873213Y16098086D02*
X16844642Y16069515D01*
X16844642Y16069515D02*
X16787499Y16040943D01*
X16787499Y16040943D02*
X16558928Y16040943D01*
X17130356Y16298086D02*
X17158928Y16326658D01*
X17158928Y16326658D02*
X17216071Y16355229D01*
X17216071Y16355229D02*
X17358928Y16355229D01*
X17358928Y16355229D02*
X17416071Y16326658D01*
X17416071Y16326658D02*
X17444642Y16298086D01*
X17444642Y16298086D02*
X17473213Y16240943D01*
X17473213Y16240943D02*
X17473213Y16183800D01*
X17473213Y16183800D02*
X17444642Y16098086D01*
X17444642Y16098086D02*
X17101785Y15755229D01*
X17101785Y15755229D02*
X17473213Y15755229D01*
X17701785Y16298086D02*
X17730357Y16326658D01*
X17730357Y16326658D02*
X17787500Y16355229D01*
X17787500Y16355229D02*
X17930357Y16355229D01*
X17930357Y16355229D02*
X17987500Y16326658D01*
X17987500Y16326658D02*
X18016071Y16298086D01*
X18016071Y16298086D02*
X18044642Y16240943D01*
X18044642Y16240943D02*
X18044642Y16183800D01*
X18044642Y16183800D02*
X18016071Y16098086D01*
X18016071Y16098086D02*
X17673214Y15755229D01*
X17673214Y15755229D02*
X18044642Y15755229D01*
X41475000Y23846089D02*
X41475000Y24446089D01*
X41475000Y24446089D02*
X41617857Y24446089D01*
X41617857Y24446089D02*
X41703571Y24417518D01*
X41703571Y24417518D02*
X41760714Y24360375D01*
X41760714Y24360375D02*
X41789285Y24303232D01*
X41789285Y24303232D02*
X41817857Y24188946D01*
X41817857Y24188946D02*
X41817857Y24103232D01*
X41817857Y24103232D02*
X41789285Y23988946D01*
X41789285Y23988946D02*
X41760714Y23931803D01*
X41760714Y23931803D02*
X41703571Y23874660D01*
X41703571Y23874660D02*
X41617857Y23846089D01*
X41617857Y23846089D02*
X41475000Y23846089D01*
X42046428Y24017518D02*
X42332143Y24017518D01*
X41989285Y23846089D02*
X42189285Y24446089D01*
X42189285Y24446089D02*
X42389285Y23846089D01*
X42560714Y24388946D02*
X42589286Y24417518D01*
X42589286Y24417518D02*
X42646429Y24446089D01*
X42646429Y24446089D02*
X42789286Y24446089D01*
X42789286Y24446089D02*
X42846429Y24417518D01*
X42846429Y24417518D02*
X42875000Y24388946D01*
X42875000Y24388946D02*
X42903571Y24331803D01*
X42903571Y24331803D02*
X42903571Y24274660D01*
X42903571Y24274660D02*
X42875000Y24188946D01*
X42875000Y24188946D02*
X42532143Y23846089D01*
X42532143Y23846089D02*
X42903571Y23846089D01*
X27031939Y45300563D02*
X27314782Y45583406D01*
X27314782Y45583406D02*
X27456203Y44876299D01*
X27456203Y44876299D02*
X27739046Y45159142D01*
X28223920Y45563203D02*
X28163311Y45543000D01*
X28163311Y45543000D02*
X28082498Y45543000D01*
X28082498Y45543000D02*
X27961280Y45543000D01*
X27961280Y45543000D02*
X27900671Y45522797D01*
X27900671Y45522797D02*
X27860265Y45482391D01*
X27981483Y45401579D02*
X27920874Y45381376D01*
X27920874Y45381376D02*
X27840062Y45381376D01*
X27840062Y45381376D02*
X27739046Y45441985D01*
X27739046Y45441985D02*
X27597625Y45583406D01*
X27597625Y45583406D02*
X27537016Y45684421D01*
X27537016Y45684421D02*
X27537016Y45765234D01*
X27537016Y45765234D02*
X27557219Y45825843D01*
X27557219Y45825843D02*
X27638031Y45906655D01*
X27638031Y45906655D02*
X27698640Y45926858D01*
X27698640Y45926858D02*
X27779453Y45926858D01*
X27779453Y45926858D02*
X27880468Y45866249D01*
X27880468Y45866249D02*
X28021889Y45724828D01*
X28021889Y45724828D02*
X28082498Y45623812D01*
X28082498Y45623812D02*
X28082498Y45543000D01*
X28082498Y45543000D02*
X28062295Y45482391D01*
X28062295Y45482391D02*
X27981483Y45401579D01*
X28567371Y45987467D02*
X28324935Y45745030D01*
X28446153Y45866249D02*
X28021889Y46290513D01*
X28021889Y46290513D02*
X28042092Y46189497D01*
X28042092Y46189497D02*
X28042092Y46108685D01*
X28042092Y46108685D02*
X28021889Y46048076D01*
X20951785Y25205229D02*
X20751785Y25490943D01*
X20608928Y25205229D02*
X20608928Y25805229D01*
X20608928Y25805229D02*
X20837499Y25805229D01*
X20837499Y25805229D02*
X20894642Y25776658D01*
X20894642Y25776658D02*
X20923213Y25748086D01*
X20923213Y25748086D02*
X20951785Y25690943D01*
X20951785Y25690943D02*
X20951785Y25605229D01*
X20951785Y25605229D02*
X20923213Y25548086D01*
X20923213Y25548086D02*
X20894642Y25519515D01*
X20894642Y25519515D02*
X20837499Y25490943D01*
X20837499Y25490943D02*
X20608928Y25490943D01*
X21523213Y25205229D02*
X21180356Y25205229D01*
X21351785Y25205229D02*
X21351785Y25805229D01*
X21351785Y25805229D02*
X21294642Y25719515D01*
X21294642Y25719515D02*
X21237499Y25662372D01*
X21237499Y25662372D02*
X21180356Y25633800D01*
X21866071Y25548086D02*
X21808928Y25576658D01*
X21808928Y25576658D02*
X21780357Y25605229D01*
X21780357Y25605229D02*
X21751785Y25662372D01*
X21751785Y25662372D02*
X21751785Y25690943D01*
X21751785Y25690943D02*
X21780357Y25748086D01*
X21780357Y25748086D02*
X21808928Y25776658D01*
X21808928Y25776658D02*
X21866071Y25805229D01*
X21866071Y25805229D02*
X21980357Y25805229D01*
X21980357Y25805229D02*
X22037500Y25776658D01*
X22037500Y25776658D02*
X22066071Y25748086D01*
X22066071Y25748086D02*
X22094642Y25690943D01*
X22094642Y25690943D02*
X22094642Y25662372D01*
X22094642Y25662372D02*
X22066071Y25605229D01*
X22066071Y25605229D02*
X22037500Y25576658D01*
X22037500Y25576658D02*
X21980357Y25548086D01*
X21980357Y25548086D02*
X21866071Y25548086D01*
X21866071Y25548086D02*
X21808928Y25519515D01*
X21808928Y25519515D02*
X21780357Y25490943D01*
X21780357Y25490943D02*
X21751785Y25433800D01*
X21751785Y25433800D02*
X21751785Y25319515D01*
X21751785Y25319515D02*
X21780357Y25262372D01*
X21780357Y25262372D02*
X21808928Y25233800D01*
X21808928Y25233800D02*
X21866071Y25205229D01*
X21866071Y25205229D02*
X21980357Y25205229D01*
X21980357Y25205229D02*
X22037500Y25233800D01*
X22037500Y25233800D02*
X22066071Y25262372D01*
X22066071Y25262372D02*
X22094642Y25319515D01*
X22094642Y25319515D02*
X22094642Y25433800D01*
X22094642Y25433800D02*
X22066071Y25490943D01*
X22066071Y25490943D02*
X22037500Y25519515D01*
X22037500Y25519515D02*
X21980357Y25548086D01*
X47375000Y20230229D02*
X47175000Y20515943D01*
X47032143Y20230229D02*
X47032143Y20830229D01*
X47032143Y20830229D02*
X47260714Y20830229D01*
X47260714Y20830229D02*
X47317857Y20801658D01*
X47317857Y20801658D02*
X47346428Y20773086D01*
X47346428Y20773086D02*
X47375000Y20715943D01*
X47375000Y20715943D02*
X47375000Y20630229D01*
X47375000Y20630229D02*
X47346428Y20573086D01*
X47346428Y20573086D02*
X47317857Y20544515D01*
X47317857Y20544515D02*
X47260714Y20515943D01*
X47260714Y20515943D02*
X47032143Y20515943D01*
X47575000Y20830229D02*
X47946428Y20830229D01*
X47946428Y20830229D02*
X47746428Y20601658D01*
X47746428Y20601658D02*
X47832143Y20601658D01*
X47832143Y20601658D02*
X47889286Y20573086D01*
X47889286Y20573086D02*
X47917857Y20544515D01*
X47917857Y20544515D02*
X47946428Y20487372D01*
X47946428Y20487372D02*
X47946428Y20344515D01*
X47946428Y20344515D02*
X47917857Y20287372D01*
X47917857Y20287372D02*
X47889286Y20258800D01*
X47889286Y20258800D02*
X47832143Y20230229D01*
X47832143Y20230229D02*
X47660714Y20230229D01*
X47660714Y20230229D02*
X47603571Y20258800D01*
X47603571Y20258800D02*
X47575000Y20287372D01*
X13944771Y39639286D02*
X13659057Y39439286D01*
X13944771Y39296429D02*
X13344771Y39296429D01*
X13344771Y39296429D02*
X13344771Y39525000D01*
X13344771Y39525000D02*
X13373342Y39582143D01*
X13373342Y39582143D02*
X13401914Y39610714D01*
X13401914Y39610714D02*
X13459057Y39639286D01*
X13459057Y39639286D02*
X13544771Y39639286D01*
X13544771Y39639286D02*
X13601914Y39610714D01*
X13601914Y39610714D02*
X13630485Y39582143D01*
X13630485Y39582143D02*
X13659057Y39525000D01*
X13659057Y39525000D02*
X13659057Y39296429D01*
X13944771Y40210714D02*
X13944771Y39867857D01*
X13944771Y40039286D02*
X13344771Y40039286D01*
X13344771Y40039286D02*
X13430485Y39982143D01*
X13430485Y39982143D02*
X13487628Y39925000D01*
X13487628Y39925000D02*
X13516200Y39867857D01*
X13344771Y40725000D02*
X13344771Y40610715D01*
X13344771Y40610715D02*
X13373342Y40553572D01*
X13373342Y40553572D02*
X13401914Y40525000D01*
X13401914Y40525000D02*
X13487628Y40467858D01*
X13487628Y40467858D02*
X13601914Y40439286D01*
X13601914Y40439286D02*
X13830485Y40439286D01*
X13830485Y40439286D02*
X13887628Y40467858D01*
X13887628Y40467858D02*
X13916200Y40496429D01*
X13916200Y40496429D02*
X13944771Y40553572D01*
X13944771Y40553572D02*
X13944771Y40667858D01*
X13944771Y40667858D02*
X13916200Y40725000D01*
X13916200Y40725000D02*
X13887628Y40753572D01*
X13887628Y40753572D02*
X13830485Y40782143D01*
X13830485Y40782143D02*
X13687628Y40782143D01*
X13687628Y40782143D02*
X13630485Y40753572D01*
X13630485Y40753572D02*
X13601914Y40725000D01*
X13601914Y40725000D02*
X13573342Y40667858D01*
X13573342Y40667858D02*
X13573342Y40553572D01*
X13573342Y40553572D02*
X13601914Y40496429D01*
X13601914Y40496429D02*
X13630485Y40467858D01*
X13630485Y40467858D02*
X13687628Y40439286D01*
X51585476Y30030181D02*
X51918809Y29030181D01*
X51918809Y29030181D02*
X52252142Y30030181D01*
X52585476Y29030181D02*
X52585476Y30030181D01*
X52585476Y30030181D02*
X52823571Y30030181D01*
X52823571Y30030181D02*
X52966428Y29982562D01*
X52966428Y29982562D02*
X53061666Y29887324D01*
X53061666Y29887324D02*
X53109285Y29792086D01*
X53109285Y29792086D02*
X53156904Y29601610D01*
X53156904Y29601610D02*
X53156904Y29458753D01*
X53156904Y29458753D02*
X53109285Y29268277D01*
X53109285Y29268277D02*
X53061666Y29173039D01*
X53061666Y29173039D02*
X52966428Y29077800D01*
X52966428Y29077800D02*
X52823571Y29030181D01*
X52823571Y29030181D02*
X52585476Y29030181D01*
X54014047Y29696848D02*
X54014047Y29030181D01*
X53775952Y30077800D02*
X53537857Y29363515D01*
X53537857Y29363515D02*
X54156904Y29363515D01*
X48057143Y46610229D02*
X48057143Y47210229D01*
X48057143Y47210229D02*
X48200000Y47210229D01*
X48200000Y47210229D02*
X48285714Y47181658D01*
X48285714Y47181658D02*
X48342857Y47124515D01*
X48342857Y47124515D02*
X48371428Y47067372D01*
X48371428Y47067372D02*
X48400000Y46953086D01*
X48400000Y46953086D02*
X48400000Y46867372D01*
X48400000Y46867372D02*
X48371428Y46753086D01*
X48371428Y46753086D02*
X48342857Y46695943D01*
X48342857Y46695943D02*
X48285714Y46638800D01*
X48285714Y46638800D02*
X48200000Y46610229D01*
X48200000Y46610229D02*
X48057143Y46610229D01*
X48657143Y46610229D02*
X48657143Y47210229D01*
X48657143Y47210229D02*
X48800000Y47210229D01*
X48800000Y47210229D02*
X48885714Y47181658D01*
X48885714Y47181658D02*
X48942857Y47124515D01*
X48942857Y47124515D02*
X48971428Y47067372D01*
X48971428Y47067372D02*
X49000000Y46953086D01*
X49000000Y46953086D02*
X49000000Y46867372D01*
X49000000Y46867372D02*
X48971428Y46753086D01*
X48971428Y46753086D02*
X48942857Y46695943D01*
X48942857Y46695943D02*
X48885714Y46638800D01*
X48885714Y46638800D02*
X48800000Y46610229D01*
X48800000Y46610229D02*
X48657143Y46610229D01*
X49571428Y46610229D02*
X49228571Y46610229D01*
X49400000Y46610229D02*
X49400000Y47210229D01*
X49400000Y47210229D02*
X49342857Y47124515D01*
X49342857Y47124515D02*
X49285714Y47067372D01*
X49285714Y47067372D02*
X49228571Y47038800D01*
X47630819Y47407715D02*
X47630819Y46836287D01*
X47630819Y47122001D02*
X46630819Y47122001D01*
X46630819Y47122001D02*
X46773676Y47026763D01*
X46773676Y47026763D02*
X46868914Y46931525D01*
X46868914Y46931525D02*
X46916533Y46836287D01*
%TO.C,C42*%
X10445000Y57350000D02*
X10445000Y59250000D01*
X11345000Y57350000D02*
X10445000Y57350000D01*
X10445000Y59250000D02*
X11345000Y59250000D01*
X11345000Y59250000D02*
X11345000Y57350000D01*
%TO.C,C9*%
X23267051Y47931447D02*
X24610553Y49274949D01*
X23903447Y47295051D02*
X23267051Y47931447D01*
X24610553Y49274949D02*
X25246949Y48638553D01*
X25246949Y48638553D02*
X23903447Y47295051D01*
%TO.C,R9*%
X9269556Y29775000D02*
X12269556Y29775000D01*
X9269556Y28975000D02*
X9269556Y29775000D01*
X9269556Y28175000D02*
X9269556Y28975000D01*
X12269556Y29775000D02*
X12269556Y28175000D01*
X12269556Y28175000D02*
X9269556Y28175000D01*
%TO.C,C36*%
X11345000Y51375000D02*
X11345000Y49475000D01*
X10445000Y51375000D02*
X11345000Y51375000D01*
X11345000Y49475000D02*
X10445000Y49475000D01*
X10445000Y49475000D02*
X10445000Y51375000D01*
%TO.C,C15*%
X47678050Y29700000D02*
X45778050Y29700000D01*
X47678050Y30600000D02*
X47678050Y29700000D01*
X45778050Y29700000D02*
X45778050Y30600000D01*
X45778050Y30600000D02*
X47678050Y30600000D01*
%TO.C,C44*%
X8750000Y58335000D02*
X8750000Y60235000D01*
X9650000Y58335000D02*
X8750000Y58335000D01*
X8750000Y60235000D02*
X9650000Y60235000D01*
X9650000Y60235000D02*
X9650000Y58335000D01*
%TO.C,C45*%
X8750000Y61385000D02*
X10650000Y61385000D01*
X8750000Y60485000D02*
X8750000Y61385000D01*
X10650000Y61385000D02*
X10650000Y60485000D01*
X10650000Y60485000D02*
X8750000Y60485000D01*
D12*
%TO.C,VD7*%
X24425000Y20175000D02*
X30525000Y20175000D01*
X24425000Y19075000D02*
X24425000Y20175000D01*
X30525000Y14775000D02*
X25525000Y14775000D01*
D10*
%TO.C,C30*%
X49375000Y43580000D02*
X49375000Y45480000D01*
X50275000Y43580000D02*
X49375000Y43580000D01*
X49375000Y45480000D02*
X50275000Y45480000D01*
X50275000Y45480000D02*
X50275000Y43580000D01*
%TO.C,C39*%
X10395000Y54135000D02*
X10395000Y56035000D01*
X11295000Y54135000D02*
X10395000Y54135000D01*
X10395000Y56035000D02*
X11295000Y56035000D01*
X11295000Y56035000D02*
X11295000Y54135000D01*
%TO.C,L4*%
X11555000Y49325000D02*
X11555000Y50425000D01*
X12755000Y49325000D02*
X11555000Y49325000D01*
X11555000Y50425000D02*
X11555000Y51525000D01*
X11555000Y51525000D02*
X12755000Y51525000D01*
X12755000Y51525000D02*
X12755000Y49325000D01*
%TO.C,C5*%
X45125000Y26325000D02*
X43225000Y26325000D01*
X45125000Y27225000D02*
X45125000Y26325000D01*
X43225000Y26325000D02*
X43225000Y27225000D01*
X43225000Y27225000D02*
X45125000Y27225000D01*
D12*
%TO.C,VD3*%
X34945000Y10070000D02*
X33270000Y10070000D01*
X34945000Y10070000D02*
X35595000Y10070000D01*
X34945000Y6950000D02*
X34295000Y6950000D01*
X34945000Y6950000D02*
X35595000Y6950000D01*
D10*
%TO.C,C35*%
X13895000Y51375000D02*
X13895000Y49475000D01*
X12995000Y51375000D02*
X13895000Y51375000D01*
X13895000Y49475000D02*
X12995000Y49475000D01*
X12995000Y49475000D02*
X12995000Y51375000D01*
%TO.C,R13*%
X13145000Y25250000D02*
X13145000Y28250000D01*
X13945000Y25250000D02*
X13145000Y25250000D01*
X14745000Y25250000D02*
X13945000Y25250000D01*
X13145000Y28250000D02*
X14745000Y28250000D01*
X14745000Y28250000D02*
X14745000Y25250000D01*
%TO.C,C37*%
X11495000Y54135000D02*
X11495000Y56035000D01*
X12395000Y54135000D02*
X11495000Y54135000D01*
X11495000Y56035000D02*
X12395000Y56035000D01*
X12395000Y56035000D02*
X12395000Y54135000D01*
%TO.C,R19*%
X32000000Y16475000D02*
X35000000Y16475000D01*
X32000000Y15675000D02*
X32000000Y16475000D01*
X32000000Y14875000D02*
X32000000Y15675000D01*
X35000000Y16475000D02*
X35000000Y14875000D01*
X35000000Y14875000D02*
X32000000Y14875000D01*
%TO.C,C25*%
X49060000Y47975000D02*
X47160000Y47975000D01*
X49060000Y48875000D02*
X49060000Y47975000D01*
X47160000Y47975000D02*
X47160000Y48875000D01*
X47160000Y48875000D02*
X49060000Y48875000D01*
%TO.C,R17*%
X13725000Y57200000D02*
X12625000Y57200000D01*
X13725000Y58400000D02*
X13725000Y57200000D01*
X12625000Y57200000D02*
X11525000Y57200000D01*
X11525000Y57200000D02*
X11525000Y58400000D01*
X11525000Y58400000D02*
X13725000Y58400000D01*
D13*
%TO.C,VT2*%
X21413500Y28271400D02*
X24461500Y28271400D01*
X21413500Y27509400D02*
X21413500Y28271400D01*
X24461500Y28271400D02*
X24461500Y27509400D01*
X24461500Y27509400D02*
X21413500Y27509400D01*
D10*
%TO.C,C34*%
X14678553Y44485051D02*
X13335051Y45828553D01*
X15314949Y45121447D02*
X14678553Y44485051D01*
X13335051Y45828553D02*
X13971447Y46464949D01*
X13971447Y46464949D02*
X15314949Y45121447D01*
%TO.C,R1*%
X40675000Y15000000D02*
X40675000Y12000000D01*
X39875000Y15000000D02*
X40675000Y15000000D01*
X39075000Y15000000D02*
X39875000Y15000000D01*
X40675000Y12000000D02*
X39075000Y12000000D01*
X39075000Y12000000D02*
X39075000Y15000000D01*
%TO.C,L7*%
X9125000Y52875000D02*
X8025000Y52875000D01*
X9125000Y54075000D02*
X9125000Y52875000D01*
X8025000Y52875000D02*
X6925000Y52875000D01*
X6925000Y52875000D02*
X6925000Y54075000D01*
X6925000Y54075000D02*
X9125000Y54075000D01*
%TO.C,ZQ3*%
X45077000Y58575000D02*
X45077000Y54511000D01*
X42029000Y58575000D02*
X45077000Y58575000D01*
X45077000Y54511000D02*
X42029000Y54511000D01*
X42029000Y54511000D02*
X42029000Y58575000D01*
D13*
%TO.C,VT3*%
X14163500Y18925000D02*
X17211500Y18925000D01*
X14163500Y18163000D02*
X14163500Y18925000D01*
X17211500Y18925000D02*
X17211500Y18163000D01*
X17211500Y18163000D02*
X14163500Y18163000D01*
D10*
%TO.C,L1*%
X39375000Y55525000D02*
X39375000Y51725000D01*
X38375000Y55525000D02*
X39375000Y55525000D01*
X37375000Y55525000D02*
X38425000Y55525000D01*
X39375000Y51725000D02*
X37375000Y51725000D01*
X37375000Y51725000D02*
X37375000Y55525000D01*
%TO.C,C40*%
X7075000Y52635000D02*
X8975000Y52635000D01*
X7075000Y51735000D02*
X7075000Y52635000D01*
X8975000Y52635000D02*
X8975000Y51735000D01*
X8975000Y51735000D02*
X7075000Y51735000D01*
D12*
%TO.C,HA1*%
X11565000Y13035000D02*
G75*
G03*
X11565000Y13035000I-4620000J0D01*
G01*
D10*
%TO.C,C33*%
X15438553Y45265051D02*
X14095051Y46608553D01*
X16074949Y45901447D02*
X15438553Y45265051D01*
X14095051Y46608553D02*
X14731447Y47244949D01*
X14731447Y47244949D02*
X16074949Y45901447D01*
%TO.C,R21*%
X32000000Y20075000D02*
X35000000Y20075000D01*
X32000000Y19275000D02*
X32000000Y20075000D01*
X32000000Y18475000D02*
X32000000Y19275000D01*
X35000000Y20075000D02*
X35000000Y18475000D01*
X35000000Y18475000D02*
X32000000Y18475000D01*
%TO.C,C20*%
X23028553Y46585051D02*
X21685051Y47928553D01*
X23664949Y47221447D02*
X23028553Y46585051D01*
X21685051Y47928553D02*
X22321447Y48564949D01*
X22321447Y48564949D02*
X23664949Y47221447D01*
%TO.C,C16*%
X13495000Y29425000D02*
X15395000Y29425000D01*
X13495000Y28525000D02*
X13495000Y29425000D01*
X15395000Y29425000D02*
X15395000Y28525000D01*
X15395000Y28525000D02*
X13495000Y28525000D01*
%TO.C,R15*%
X44825000Y53025000D02*
X44825000Y50025000D01*
X44025000Y53025000D02*
X44825000Y53025000D01*
X43225000Y53025000D02*
X44025000Y53025000D01*
X44825000Y50025000D02*
X43225000Y50025000D01*
X43225000Y50025000D02*
X43225000Y53025000D01*
%TO.C,C14*%
X26689949Y50138553D02*
X25346447Y48795051D01*
X26053553Y50774949D02*
X26689949Y50138553D01*
X25346447Y48795051D02*
X24710051Y49431447D01*
X24710051Y49431447D02*
X26053553Y50774949D01*
%TO.C,C29*%
X41060000Y48675000D02*
X39160000Y48675000D01*
X41060000Y49575000D02*
X41060000Y48675000D01*
X39160000Y48675000D02*
X39160000Y49575000D01*
X39160000Y49575000D02*
X41060000Y49575000D01*
D12*
%TO.C,F1*%
X48831252Y7815000D02*
X46058748Y7815000D01*
X48831252Y11235000D02*
X46058748Y11235000D01*
D10*
%TO.C,L8*%
X8600000Y62825000D02*
X9700000Y62825000D01*
X8600000Y61625000D02*
X8600000Y62825000D01*
X9700000Y62825000D02*
X10800000Y62825000D01*
X10800000Y62825000D02*
X10800000Y61625000D01*
X10800000Y61625000D02*
X8600000Y61625000D01*
%TO.C,C19*%
X44603000Y58855000D02*
X42703000Y58855000D01*
X44603000Y59755000D02*
X44603000Y58855000D01*
X42703000Y58855000D02*
X42703000Y59755000D01*
X42703000Y59755000D02*
X44603000Y59755000D01*
%TO.C,C4*%
X28460500Y35625000D02*
X25460500Y35625000D01*
X28460500Y36425000D02*
X28460500Y35625000D01*
X28460500Y37225000D02*
X28460500Y36425000D01*
X25460500Y35625000D02*
X25460500Y37225000D01*
X25460500Y37225000D02*
X28460500Y37225000D01*
D12*
%TO.C,ZQ2*%
X45700000Y55900000D02*
X45700000Y57250000D01*
X47450000Y55900000D02*
X47450000Y57250000D01*
%TO.C,SB2*%
X9725000Y36425000D02*
X9725000Y37925000D01*
X8475000Y40425000D02*
X3975000Y40425000D01*
X3975000Y33925000D02*
X8475000Y33925000D01*
X2725000Y37925000D02*
X2725000Y36425000D01*
D10*
%TO.C,C18*%
X47925000Y56375000D02*
X47925000Y58275000D01*
X48825000Y56375000D02*
X47925000Y56375000D01*
X47925000Y58275000D02*
X48825000Y58275000D01*
X48825000Y58275000D02*
X48825000Y56375000D01*
%TO.C,U1*%
X18605000Y47003120D02*
X13443120Y52165000D01*
X23766880Y52165000D02*
X18605000Y47003120D01*
X22847641Y52165000D02*
X22458732Y51776091D01*
X22458732Y52553909D02*
X22847641Y52165000D01*
X14751268Y51776091D02*
X14362359Y52165000D01*
X18993909Y56018732D02*
X18605000Y56407641D01*
X14362359Y52165000D02*
X14751268Y52553909D01*
X18605000Y56407641D02*
X18216091Y56018732D01*
X13443120Y52165000D02*
X18605000Y57326880D01*
X18605000Y57326880D02*
X23766880Y52165000D01*
D14*
X18605000Y47003120D02*
X18110025Y47568806D01*
X19099975Y47568806D01*
X18605000Y47003120D01*
G36*
X18605000Y47003120D02*
G01*
X18110025Y47568806D01*
X19099975Y47568806D01*
X18605000Y47003120D01*
G37*
D10*
X18887843Y48205202D02*
X18605000Y47922359D01*
X18180736Y48346623D01*
X19029264Y48346623D01*
X18887843Y48205202D01*
G36*
X18887843Y48205202D02*
G01*
X18605000Y47922359D01*
X18180736Y48346623D01*
X19029264Y48346623D01*
X18887843Y48205202D01*
G37*
%TO.C,R6*%
X30075000Y30575000D02*
X33075000Y30575000D01*
X30075000Y29775000D02*
X30075000Y30575000D01*
X30075000Y28975000D02*
X30075000Y29775000D01*
X33075000Y30575000D02*
X33075000Y28975000D01*
X33075000Y28975000D02*
X30075000Y28975000D01*
D15*
%TO.C,SB1*%
X32120000Y11460000D02*
X23620000Y11460000D01*
X23620000Y11460000D02*
X23620000Y2460000D01*
X23620000Y2460000D02*
X32120000Y2460000D01*
X32120000Y2460000D02*
X32120000Y11460000D01*
D10*
%TO.C,L5*%
X13545000Y52685000D02*
X12445000Y52685000D01*
X13545000Y53885000D02*
X13545000Y52685000D01*
X12445000Y52685000D02*
X11345000Y52685000D01*
X11345000Y52685000D02*
X11345000Y53885000D01*
X11345000Y53885000D02*
X13545000Y53885000D01*
%TO.C,R11*%
X8169286Y22375000D02*
X8169286Y25375000D01*
X8969286Y22375000D02*
X8169286Y22375000D01*
X9769286Y22375000D02*
X8969286Y22375000D01*
X8169286Y25375000D02*
X9769286Y25375000D01*
X9769286Y25375000D02*
X9769286Y22375000D01*
%TO.C,C22*%
X18735051Y46871447D02*
X20078553Y48214949D01*
X19371447Y46235051D02*
X18735051Y46871447D01*
X20078553Y48214949D02*
X20714949Y47578553D01*
X20714949Y47578553D02*
X19371447Y46235051D01*
%TO.C,C11*%
X49108050Y25375000D02*
X49108050Y23475000D01*
X48208050Y25375000D02*
X49108050Y25375000D01*
X49108050Y23475000D02*
X48208050Y23475000D01*
X48208050Y23475000D02*
X48208050Y25375000D01*
%TO.C,VD1*%
X41250000Y7678020D02*
X42650000Y7678020D01*
X42650000Y7678020D02*
X42650000Y7778020D01*
X41250000Y7778020D02*
X41250000Y7678020D01*
X41250000Y7778020D02*
X41250000Y11778020D01*
X42650000Y7778020D02*
X41250000Y7778020D01*
X41950000Y9397020D02*
X42331000Y10159020D01*
X42331000Y9397020D02*
X41569000Y9397020D01*
X41569000Y10159020D02*
X41950000Y9397020D01*
X41950000Y10159020D02*
X41569000Y10159020D01*
X42331000Y10159020D02*
X41950000Y10159020D01*
X41250000Y11778020D02*
X42650000Y11778020D01*
X42650000Y11778020D02*
X42650000Y7778020D01*
%TO.C,L6*%
X7925000Y49325000D02*
X7925000Y50425000D01*
X9125000Y49325000D02*
X7925000Y49325000D01*
X7925000Y50425000D02*
X7925000Y51525000D01*
X7925000Y51525000D02*
X9125000Y51525000D01*
X9125000Y51525000D02*
X9125000Y49325000D01*
%TO.C,R4*%
X48525000Y6125000D02*
X47425000Y6125000D01*
X48525000Y7325000D02*
X48525000Y6125000D01*
X47425000Y6125000D02*
X46325000Y6125000D01*
X46325000Y6125000D02*
X46325000Y7325000D01*
X46325000Y7325000D02*
X48525000Y7325000D01*
%TO.C,C10*%
X19551447Y57964949D02*
X20894949Y56621447D01*
X18915051Y57328553D02*
X19551447Y57964949D01*
X20894949Y56621447D02*
X20258553Y55985051D01*
X20258553Y55985051D02*
X18915051Y57328553D01*
%TO.C,C23*%
X47325000Y53275000D02*
X45425000Y53275000D01*
X47325000Y54175000D02*
X47325000Y53275000D01*
X45425000Y53275000D02*
X45425000Y54175000D01*
X45425000Y54175000D02*
X47325000Y54175000D01*
%TO.C,C8*%
X32275000Y32625000D02*
X30375000Y32625000D01*
X32275000Y33525000D02*
X32275000Y32625000D01*
X30375000Y32625000D02*
X30375000Y33525000D01*
X30375000Y33525000D02*
X32275000Y33525000D01*
%TO.C,R5*%
X21875000Y7860000D02*
X21875000Y8960000D01*
X23075000Y7860000D02*
X21875000Y7860000D01*
X21875000Y8960000D02*
X21875000Y10060000D01*
X21875000Y10060000D02*
X23075000Y10060000D01*
X23075000Y10060000D02*
X23075000Y7860000D01*
%TO.C,R7*%
X33075000Y30825000D02*
X30075000Y30825000D01*
X33075000Y31625000D02*
X33075000Y30825000D01*
X33075000Y32425000D02*
X33075000Y31625000D01*
X30075000Y30825000D02*
X30075000Y32425000D01*
X30075000Y32425000D02*
X33075000Y32425000D01*
%TO.C,DA4*%
X8175000Y57450000D02*
X10225000Y57450000D01*
X8175000Y56825000D02*
X8750000Y56200000D01*
X8175000Y56200000D02*
X8175000Y57450000D01*
X8225000Y56600000D02*
X8300000Y56300000D01*
X8300000Y56300000D02*
X8550000Y56275000D01*
X8550000Y56275000D02*
X8350000Y56425000D01*
X8750000Y56200000D02*
X8225000Y56600000D01*
X10225000Y57450000D02*
X10225000Y56200000D01*
X10225000Y56200000D02*
X8175000Y56200000D01*
%TO.C,C46*%
X10650000Y63035000D02*
X8750000Y63035000D01*
X10650000Y63935000D02*
X10650000Y63035000D01*
X8750000Y63035000D02*
X8750000Y63935000D01*
X8750000Y63935000D02*
X10650000Y63935000D01*
%TO.C,XS1*%
X54525000Y11950000D02*
X53275000Y11950000D01*
X57925000Y11950000D02*
X57275000Y11950000D01*
X57925000Y16450000D02*
X57925000Y11950000D01*
X54525000Y20950000D02*
X53275000Y20950000D01*
X57925000Y20950000D02*
X57925000Y16450000D01*
X57925000Y20950000D02*
X57275000Y20950000D01*
D13*
%TO.C,VT1*%
X37462800Y10443500D02*
X40510800Y10443500D01*
X37462800Y9681500D02*
X37462800Y10443500D01*
X40510800Y10443500D02*
X40510800Y9681500D01*
X40510800Y9681500D02*
X37462800Y9681500D01*
D10*
%TO.C,C38*%
X10245000Y51375000D02*
X10245000Y49475000D01*
X9345000Y51375000D02*
X10245000Y51375000D01*
X10245000Y49475000D02*
X9345000Y49475000D01*
X9345000Y49475000D02*
X9345000Y51375000D01*
%TO.C,C31*%
X11425000Y36325000D02*
X11425000Y38225000D01*
X12325000Y36325000D02*
X11425000Y36325000D01*
X11425000Y38225000D02*
X12325000Y38225000D01*
X12325000Y38225000D02*
X12325000Y36325000D01*
%TO.C,R12*%
X46428050Y26500000D02*
X46428050Y29500000D01*
X47228050Y26500000D02*
X46428050Y26500000D01*
X48028050Y26500000D02*
X47228050Y26500000D01*
X46428050Y29500000D02*
X48028050Y29500000D01*
X48028050Y29500000D02*
X48028050Y26500000D01*
%TO.C,C6*%
X11969556Y27025000D02*
X10069556Y27025000D01*
X11969556Y27925000D02*
X11969556Y27025000D01*
X10069556Y27025000D02*
X10069556Y27925000D01*
X10069556Y27925000D02*
X11969556Y27925000D01*
%TO.C,R10*%
X46428050Y23175000D02*
X46428050Y26175000D01*
X47228050Y23175000D02*
X46428050Y23175000D01*
X48028050Y23175000D02*
X47228050Y23175000D01*
X46428050Y26175000D02*
X48028050Y26175000D01*
X48028050Y26175000D02*
X48028050Y23175000D01*
D13*
%TO.C,DA1*%
X25563500Y34128600D02*
X28611500Y34128600D01*
X25563500Y33366600D02*
X25563500Y34128600D01*
X28611500Y34128600D02*
X28611500Y33366600D01*
X28611500Y33366600D02*
X25563500Y33366600D01*
D10*
%TO.C,C13*%
X13185051Y48471447D02*
X14528553Y49814949D01*
X13821447Y47835051D02*
X13185051Y48471447D01*
X14528553Y49814949D02*
X15164949Y49178553D01*
X15164949Y49178553D02*
X13821447Y47835051D01*
%TO.C,R20*%
X32000000Y18275000D02*
X35000000Y18275000D01*
X32000000Y17475000D02*
X32000000Y18275000D01*
X32000000Y16675000D02*
X32000000Y17475000D01*
X35000000Y18275000D02*
X35000000Y16675000D01*
X35000000Y16675000D02*
X32000000Y16675000D01*
%TO.C,R2*%
X49975000Y13000000D02*
X46975000Y13000000D01*
X49975000Y13800000D02*
X49975000Y13000000D01*
X49975000Y14600000D02*
X49975000Y13800000D01*
X46975000Y13000000D02*
X46975000Y14600000D01*
X46975000Y14600000D02*
X49975000Y14600000D01*
%TO.C,C32*%
X45150000Y34200000D02*
X47050000Y34200000D01*
X45150000Y33300000D02*
X45150000Y34200000D01*
X47050000Y34200000D02*
X47050000Y33300000D01*
X47050000Y33300000D02*
X45150000Y33300000D01*
%TO.C,C28*%
X35225000Y38980000D02*
X35225000Y37080000D01*
X34325000Y38980000D02*
X35225000Y38980000D01*
X35225000Y37080000D02*
X34325000Y37080000D01*
X34325000Y37080000D02*
X34325000Y38980000D01*
%TO.C,C17*%
X19485051Y46071447D02*
X20828553Y47414949D01*
X20121447Y45435051D02*
X19485051Y46071447D01*
X20828553Y47414949D02*
X21464949Y46778553D01*
X21464949Y46778553D02*
X20121447Y45435051D01*
D12*
%TO.C,VD5*%
X5515000Y23980000D02*
X5515000Y27070000D01*
X-34999Y25525462D02*
G75*
G03*
X5514999Y23980170I2989999J-462D01*
G01*
X5515000Y27069830D02*
G75*
G03*
X-35000Y25524538I-2560000J-1544830D01*
G01*
X5455000Y25525000D02*
G75*
G03*
X5455000Y25525000I-2500000J0D01*
G01*
D10*
%TO.C,R14*%
X46625000Y53025000D02*
X46625000Y50025000D01*
X45825000Y53025000D02*
X46625000Y53025000D01*
X45025000Y53025000D02*
X45825000Y53025000D01*
X46625000Y50025000D02*
X45025000Y50025000D01*
X45025000Y50025000D02*
X45025000Y53025000D01*
%TO.C,C43*%
X7945000Y58250000D02*
X7945000Y56350000D01*
X7045000Y58250000D02*
X7945000Y58250000D01*
X7945000Y56350000D02*
X7045000Y56350000D01*
X7045000Y56350000D02*
X7045000Y58250000D01*
%TO.C,C26*%
X35075000Y45780000D02*
X35075000Y43880000D01*
X34175000Y45780000D02*
X35075000Y45780000D01*
X35075000Y43880000D02*
X34175000Y43880000D01*
X34175000Y43880000D02*
X34175000Y45780000D01*
%TO.C,L3*%
X11555000Y46915000D02*
X11555000Y48015000D01*
X12755000Y46915000D02*
X11555000Y46915000D01*
X11555000Y48015000D02*
X11555000Y49115000D01*
X11555000Y49115000D02*
X12755000Y49115000D01*
X12755000Y49115000D02*
X12755000Y46915000D01*
%TO.C,C3*%
X37100000Y12525000D02*
X37100000Y10625000D01*
X36200000Y12525000D02*
X37100000Y12525000D01*
X37100000Y10625000D02*
X36200000Y10625000D01*
X36200000Y10625000D02*
X36200000Y12525000D01*
%TO.C,L2*%
X41610000Y55525000D02*
X41610000Y51725000D01*
X40610000Y55525000D02*
X41610000Y55525000D01*
X39610000Y55525000D02*
X40660000Y55525000D01*
X41610000Y51725000D02*
X39610000Y51725000D01*
X39610000Y51725000D02*
X39610000Y55525000D01*
%TO.C,C41*%
X8975000Y54285000D02*
X7075000Y54285000D01*
X8975000Y55185000D02*
X8975000Y54285000D01*
X7075000Y54285000D02*
X7075000Y55185000D01*
X7075000Y55185000D02*
X8975000Y55185000D01*
%TO.C,C12*%
X7925000Y25075000D02*
X7925000Y23175000D01*
X7025000Y25075000D02*
X7925000Y25075000D01*
X7925000Y23175000D02*
X7025000Y23175000D01*
X7025000Y23175000D02*
X7025000Y25075000D01*
D12*
%TO.C,VD6*%
X25485000Y27020000D02*
X25485000Y23930000D01*
X31034999Y25474538D02*
G75*
G03*
X25485001Y27019830I-2989999J462D01*
G01*
X25485000Y23930170D02*
G75*
G03*
X31035000Y25475462I2560000J1544830D01*
G01*
X30545000Y25475000D02*
G75*
G03*
X30545000Y25475000I-2500000J0D01*
G01*
D10*
%TO.C,C21*%
X34125000Y39792000D02*
X34125000Y36792000D01*
X33325000Y39792000D02*
X34125000Y39792000D01*
X32525000Y39792000D02*
X33325000Y39792000D01*
X34125000Y36792000D02*
X32525000Y36792000D01*
X32525000Y36792000D02*
X32525000Y39792000D01*
D16*
%TO.C,VD2*%
X44737500Y15049660D02*
X44737500Y17950340D01*
X45937500Y15049660D02*
X44737500Y15049660D01*
D10*
X45937500Y15400000D02*
X44737500Y15400000D01*
D16*
X44737500Y17950340D02*
X45937500Y17950340D01*
X45937500Y17950340D02*
X45937500Y15049660D01*
D10*
%TO.C,C2*%
X28537500Y31025000D02*
X26637500Y31025000D01*
X28537500Y31925000D02*
X28537500Y31025000D01*
X26637500Y31025000D02*
X26637500Y31925000D01*
X26637500Y31925000D02*
X28537500Y31925000D01*
D16*
%TO.C,DA3*%
X12969896Y24100000D02*
X10069216Y24100000D01*
X12969896Y25300000D02*
X12969896Y24100000D01*
D10*
X12619556Y25300000D02*
X12619556Y24100000D01*
D16*
X10069216Y24100000D02*
X10069216Y25300000D01*
X10069216Y25300000D02*
X12969896Y25300000D01*
D10*
%TO.C,C7*%
X20260025Y59851346D02*
X22381346Y57730025D01*
X19694340Y59285660D02*
X20260025Y59851346D01*
X19128654Y58719975D02*
X19694340Y59285660D01*
X22381346Y57730025D02*
X21249975Y56598654D01*
X21249975Y56598654D02*
X19128654Y58719975D01*
%TO.C,C24*%
X42603000Y54193000D02*
X44503000Y54193000D01*
X42603000Y53293000D02*
X42603000Y54193000D01*
X44503000Y54193000D02*
X44503000Y53293000D01*
X44503000Y53293000D02*
X42603000Y53293000D01*
%TO.C,R8*%
X42425000Y29125000D02*
X45425000Y29125000D01*
X42425000Y28325000D02*
X42425000Y29125000D01*
X42425000Y27525000D02*
X42425000Y28325000D01*
X45425000Y29125000D02*
X45425000Y27525000D01*
X45425000Y27525000D02*
X42425000Y27525000D01*
%TO.C,C27*%
X41348000Y49825000D02*
X38348000Y49825000D01*
X41348000Y50625000D02*
X41348000Y49825000D01*
X41348000Y51425000D02*
X41348000Y50625000D01*
X38348000Y49825000D02*
X38348000Y51425000D01*
X38348000Y51425000D02*
X41348000Y51425000D01*
%TO.C,C1*%
X43870000Y13375000D02*
X45770000Y13375000D01*
X43870000Y12475000D02*
X43870000Y13375000D01*
X45770000Y13375000D02*
X45770000Y12475000D01*
X45770000Y12475000D02*
X43870000Y12475000D01*
%TO.C,R22*%
X16287500Y15475000D02*
X15187500Y15475000D01*
X16287500Y16675000D02*
X16287500Y15475000D01*
X15187500Y15475000D02*
X14087500Y15475000D01*
X14087500Y15475000D02*
X14087500Y16675000D01*
X14087500Y16675000D02*
X16287500Y16675000D01*
D16*
%TO.C,DA2*%
X46125340Y23528860D02*
X43224660Y23528860D01*
X46125340Y24728860D02*
X46125340Y23528860D01*
D10*
X45775000Y24728860D02*
X45775000Y23528860D01*
D16*
X43224660Y23528860D02*
X43224660Y24728860D01*
X43224660Y24728860D02*
X46125340Y24728860D01*
D10*
%TO.C,ZQ1*%
X24642528Y47725790D02*
X27516210Y50599472D01*
X26797790Y45570528D02*
X24642528Y47725790D01*
X27516210Y50599472D02*
X29671472Y48444210D01*
X29671472Y48444210D02*
X26797790Y45570528D01*
%TO.C,R18*%
X24537500Y24875000D02*
X23437500Y24875000D01*
X24537500Y26075000D02*
X24537500Y24875000D01*
X23437500Y24875000D02*
X22337500Y24875000D01*
X22337500Y24875000D02*
X22337500Y26075000D01*
X22337500Y26075000D02*
X24537500Y26075000D01*
%TO.C,R3*%
X48875000Y18400000D02*
X45875000Y18400000D01*
X48875000Y19200000D02*
X48875000Y18400000D01*
X48875000Y20000000D02*
X48875000Y19200000D01*
X45875000Y18400000D02*
X45875000Y20000000D01*
X45875000Y20000000D02*
X48875000Y20000000D01*
%TO.C,R16*%
X11475000Y38525000D02*
X11475000Y41525000D01*
X12275000Y38525000D02*
X11475000Y38525000D01*
X13075000Y38525000D02*
X12275000Y38525000D01*
X11475000Y41525000D02*
X13075000Y41525000D01*
X13075000Y41525000D02*
X13075000Y38525000D01*
D12*
%TO.C,VD4*%
X50335000Y27070000D02*
X50335000Y23980000D01*
X55884999Y25524538D02*
G75*
G03*
X50335001Y27069830I-2989999J462D01*
G01*
X50335000Y23980170D02*
G75*
G03*
X55885000Y25525462I2560000J1544830D01*
G01*
X55395000Y25525000D02*
G75*
G03*
X55395000Y25525000I-2500000J0D01*
G01*
D16*
%TO.C,DD1*%
X47351260Y46281260D02*
X47351260Y36278740D01*
X46350500Y46281260D02*
X47351260Y45280500D01*
X37348740Y46281260D02*
X47351260Y46281260D01*
X47351260Y36278740D02*
X37348740Y36278740D01*
X37348740Y36278740D02*
X37348740Y46281260D01*
%TD*%
M02*
