%TF.GenerationSoftware,KiCad,Pcbnew,7.0.7*%
%TF.CreationDate,2023-11-27T18:29:32+03:00*%
%TF.ProjectId,Bagryanets,42616772-7961-46e6-9574-732e6b696361,rev?*%
%TF.SameCoordinates,PX68e7780PY7bfa480*%
%TF.FileFunction,Legend,Bot*%
%TF.FilePolarity,Positive*%
%FSLAX46Y46*%
G04 Gerber Fmt 4.6, Leading zero omitted, Abs format (unit mm)*
G04 Created by KiCad (PCBNEW 7.0.7) date 2023-11-27 18:29:32*
%MOMM*%
%LPD*%
G01*
G04 APERTURE LIST*
%ADD10C,0.150000*%
%ADD11C,0.250000*%
%ADD12C,0.300000*%
%ADD13C,0.120000*%
G04 APERTURE END LIST*
D10*
X43815000Y46078750D02*
X43815000Y43538750D01*
X43815000Y33378750D02*
X33020000Y33378750D01*
X43815000Y40998750D02*
X33020000Y40998750D01*
X43815000Y38458750D02*
X33020000Y38458750D01*
X43815000Y48618750D02*
X43815000Y33378750D01*
X18070000Y22860000D02*
X18070000Y15240000D01*
X15530000Y22860000D02*
X15530000Y15240000D01*
X33020000Y46078750D02*
X43815000Y46078750D01*
X33020000Y48618750D02*
X43815000Y48618750D01*
X20610000Y15240000D02*
X20610000Y22860000D01*
X43815000Y43538750D02*
X33020000Y43538750D01*
X20610000Y22860000D02*
X15530000Y22860000D01*
X33020000Y33378750D02*
X33020000Y48618750D01*
X43815000Y35918750D02*
X33020000Y35918750D01*
X15530000Y15240000D02*
X20610000Y15240000D01*
D11*
X41627856Y48075322D02*
X40699284Y48075322D01*
X40699284Y48075322D02*
X41199284Y47503893D01*
X41199284Y47503893D02*
X40984999Y47503893D01*
X40984999Y47503893D02*
X40842142Y47432465D01*
X40842142Y47432465D02*
X40770713Y47361036D01*
X40770713Y47361036D02*
X40699284Y47218179D01*
X40699284Y47218179D02*
X40699284Y46861036D01*
X40699284Y46861036D02*
X40770713Y46718179D01*
X40770713Y46718179D02*
X40842142Y46646750D01*
X40842142Y46646750D02*
X40984999Y46575322D01*
X40984999Y46575322D02*
X41413570Y46575322D01*
X41413570Y46575322D02*
X41556427Y46646750D01*
X41556427Y46646750D02*
X41627856Y46718179D01*
X40056428Y46718179D02*
X39984999Y46646750D01*
X39984999Y46646750D02*
X40056428Y46575322D01*
X40056428Y46575322D02*
X40127856Y46646750D01*
X40127856Y46646750D02*
X40056428Y46718179D01*
X40056428Y46718179D02*
X40056428Y46575322D01*
X39484999Y48075322D02*
X38556427Y48075322D01*
X38556427Y48075322D02*
X39056427Y47503893D01*
X39056427Y47503893D02*
X38842142Y47503893D01*
X38842142Y47503893D02*
X38699285Y47432465D01*
X38699285Y47432465D02*
X38627856Y47361036D01*
X38627856Y47361036D02*
X38556427Y47218179D01*
X38556427Y47218179D02*
X38556427Y46861036D01*
X38556427Y46861036D02*
X38627856Y46718179D01*
X38627856Y46718179D02*
X38699285Y46646750D01*
X38699285Y46646750D02*
X38842142Y46575322D01*
X38842142Y46575322D02*
X39270713Y46575322D01*
X39270713Y46575322D02*
X39413570Y46646750D01*
X39413570Y46646750D02*
X39484999Y46718179D01*
X36270714Y47361036D02*
X36056428Y47289608D01*
X36056428Y47289608D02*
X35984999Y47218179D01*
X35984999Y47218179D02*
X35913571Y47075322D01*
X35913571Y47075322D02*
X35913571Y46861036D01*
X35913571Y46861036D02*
X35984999Y46718179D01*
X35984999Y46718179D02*
X36056428Y46646750D01*
X36056428Y46646750D02*
X36199285Y46575322D01*
X36199285Y46575322D02*
X36770714Y46575322D01*
X36770714Y46575322D02*
X36770714Y48075322D01*
X36770714Y48075322D02*
X36270714Y48075322D01*
X36270714Y48075322D02*
X36127857Y48003893D01*
X36127857Y48003893D02*
X36056428Y47932465D01*
X36056428Y47932465D02*
X35984999Y47789608D01*
X35984999Y47789608D02*
X35984999Y47646750D01*
X35984999Y47646750D02*
X36056428Y47503893D01*
X36056428Y47503893D02*
X36127857Y47432465D01*
X36127857Y47432465D02*
X36270714Y47361036D01*
X36270714Y47361036D02*
X36770714Y47361036D01*
X42127856Y44106750D02*
X41913571Y44035322D01*
X41913571Y44035322D02*
X41556428Y44035322D01*
X41556428Y44035322D02*
X41413571Y44106750D01*
X41413571Y44106750D02*
X41342142Y44178179D01*
X41342142Y44178179D02*
X41270713Y44321036D01*
X41270713Y44321036D02*
X41270713Y44463893D01*
X41270713Y44463893D02*
X41342142Y44606750D01*
X41342142Y44606750D02*
X41413571Y44678179D01*
X41413571Y44678179D02*
X41556428Y44749608D01*
X41556428Y44749608D02*
X41842142Y44821036D01*
X41842142Y44821036D02*
X41984999Y44892465D01*
X41984999Y44892465D02*
X42056428Y44963893D01*
X42056428Y44963893D02*
X42127856Y45106750D01*
X42127856Y45106750D02*
X42127856Y45249608D01*
X42127856Y45249608D02*
X42056428Y45392465D01*
X42056428Y45392465D02*
X41984999Y45463893D01*
X41984999Y45463893D02*
X41842142Y45535322D01*
X41842142Y45535322D02*
X41484999Y45535322D01*
X41484999Y45535322D02*
X41270713Y45463893D01*
X40770714Y45535322D02*
X40413571Y44035322D01*
X40413571Y44035322D02*
X40127857Y45106750D01*
X40127857Y45106750D02*
X39842142Y44035322D01*
X39842142Y44035322D02*
X39485000Y45535322D01*
X38056428Y44178179D02*
X38127856Y44106750D01*
X38127856Y44106750D02*
X38342142Y44035322D01*
X38342142Y44035322D02*
X38484999Y44035322D01*
X38484999Y44035322D02*
X38699285Y44106750D01*
X38699285Y44106750D02*
X38842142Y44249608D01*
X38842142Y44249608D02*
X38913571Y44392465D01*
X38913571Y44392465D02*
X38984999Y44678179D01*
X38984999Y44678179D02*
X38984999Y44892465D01*
X38984999Y44892465D02*
X38913571Y45178179D01*
X38913571Y45178179D02*
X38842142Y45321036D01*
X38842142Y45321036D02*
X38699285Y45463893D01*
X38699285Y45463893D02*
X38484999Y45535322D01*
X38484999Y45535322D02*
X38342142Y45535322D01*
X38342142Y45535322D02*
X38127856Y45463893D01*
X38127856Y45463893D02*
X38056428Y45392465D01*
X36699285Y44035322D02*
X37413571Y44035322D01*
X37413571Y44035322D02*
X37413571Y45535322D01*
X36199285Y44035322D02*
X36199285Y45535322D01*
X35342142Y44035322D02*
X35984999Y44892465D01*
X35342142Y45535322D02*
X36199285Y44678179D01*
X42984999Y37915322D02*
X42984999Y36701036D01*
X42984999Y36701036D02*
X42913570Y36558179D01*
X42913570Y36558179D02*
X42842142Y36486750D01*
X42842142Y36486750D02*
X42699284Y36415322D01*
X42699284Y36415322D02*
X42413570Y36415322D01*
X42413570Y36415322D02*
X42270713Y36486750D01*
X42270713Y36486750D02*
X42199284Y36558179D01*
X42199284Y36558179D02*
X42127856Y36701036D01*
X42127856Y36701036D02*
X42127856Y37915322D01*
X41484998Y36843893D02*
X40770713Y36843893D01*
X41627855Y36415322D02*
X41127855Y37915322D01*
X41127855Y37915322D02*
X40627855Y36415322D01*
X39270713Y36415322D02*
X39770713Y37129608D01*
X40127856Y36415322D02*
X40127856Y37915322D01*
X40127856Y37915322D02*
X39556427Y37915322D01*
X39556427Y37915322D02*
X39413570Y37843893D01*
X39413570Y37843893D02*
X39342141Y37772465D01*
X39342141Y37772465D02*
X39270713Y37629608D01*
X39270713Y37629608D02*
X39270713Y37415322D01*
X39270713Y37415322D02*
X39342141Y37272465D01*
X39342141Y37272465D02*
X39413570Y37201036D01*
X39413570Y37201036D02*
X39556427Y37129608D01*
X39556427Y37129608D02*
X40127856Y37129608D01*
X38842141Y37915322D02*
X37984999Y37915322D01*
X38413570Y36415322D02*
X38413570Y37915322D01*
X36556427Y37915322D02*
X35699285Y37915322D01*
X36127856Y36415322D02*
X36127856Y37915322D01*
X35342142Y37915322D02*
X34342142Y36415322D01*
X34342142Y37915322D02*
X35342142Y36415322D01*
X41913571Y39026750D02*
X41699286Y38955322D01*
X41699286Y38955322D02*
X41342143Y38955322D01*
X41342143Y38955322D02*
X41199286Y39026750D01*
X41199286Y39026750D02*
X41127857Y39098179D01*
X41127857Y39098179D02*
X41056428Y39241036D01*
X41056428Y39241036D02*
X41056428Y39383893D01*
X41056428Y39383893D02*
X41127857Y39526750D01*
X41127857Y39526750D02*
X41199286Y39598179D01*
X41199286Y39598179D02*
X41342143Y39669608D01*
X41342143Y39669608D02*
X41627857Y39741036D01*
X41627857Y39741036D02*
X41770714Y39812465D01*
X41770714Y39812465D02*
X41842143Y39883893D01*
X41842143Y39883893D02*
X41913571Y40026750D01*
X41913571Y40026750D02*
X41913571Y40169608D01*
X41913571Y40169608D02*
X41842143Y40312465D01*
X41842143Y40312465D02*
X41770714Y40383893D01*
X41770714Y40383893D02*
X41627857Y40455322D01*
X41627857Y40455322D02*
X41270714Y40455322D01*
X41270714Y40455322D02*
X41056428Y40383893D01*
X40556429Y40455322D02*
X40199286Y38955322D01*
X40199286Y38955322D02*
X39913572Y40026750D01*
X39913572Y40026750D02*
X39627857Y38955322D01*
X39627857Y38955322D02*
X39270715Y40455322D01*
X38699286Y38955322D02*
X38699286Y40455322D01*
X38699286Y40455322D02*
X38342143Y40455322D01*
X38342143Y40455322D02*
X38127857Y40383893D01*
X38127857Y40383893D02*
X37985000Y40241036D01*
X37985000Y40241036D02*
X37913571Y40098179D01*
X37913571Y40098179D02*
X37842143Y39812465D01*
X37842143Y39812465D02*
X37842143Y39598179D01*
X37842143Y39598179D02*
X37913571Y39312465D01*
X37913571Y39312465D02*
X37985000Y39169608D01*
X37985000Y39169608D02*
X38127857Y39026750D01*
X38127857Y39026750D02*
X38342143Y38955322D01*
X38342143Y38955322D02*
X38699286Y38955322D01*
X37199286Y38955322D02*
X37199286Y40455322D01*
X36199285Y40455322D02*
X35913571Y40455322D01*
X35913571Y40455322D02*
X35770714Y40383893D01*
X35770714Y40383893D02*
X35627857Y40241036D01*
X35627857Y40241036D02*
X35556428Y39955322D01*
X35556428Y39955322D02*
X35556428Y39455322D01*
X35556428Y39455322D02*
X35627857Y39169608D01*
X35627857Y39169608D02*
X35770714Y39026750D01*
X35770714Y39026750D02*
X35913571Y38955322D01*
X35913571Y38955322D02*
X36199285Y38955322D01*
X36199285Y38955322D02*
X36342143Y39026750D01*
X36342143Y39026750D02*
X36485000Y39169608D01*
X36485000Y39169608D02*
X36556428Y39455322D01*
X36556428Y39455322D02*
X36556428Y39955322D01*
X36556428Y39955322D02*
X36485000Y40241036D01*
X36485000Y40241036D02*
X36342143Y40383893D01*
X36342143Y40383893D02*
X36199285Y40455322D01*
D12*
X56826441Y68680362D02*
X56826441Y70680362D01*
X54731203Y68680362D02*
X55397870Y69632743D01*
X55874060Y68680362D02*
X55874060Y70680362D01*
X55874060Y70680362D02*
X55112155Y70680362D01*
X55112155Y70680362D02*
X54921679Y70585124D01*
X54921679Y70585124D02*
X54826441Y70489886D01*
X54826441Y70489886D02*
X54731203Y70299410D01*
X54731203Y70299410D02*
X54731203Y70013696D01*
X54731203Y70013696D02*
X54826441Y69823220D01*
X54826441Y69823220D02*
X54921679Y69727981D01*
X54921679Y69727981D02*
X55112155Y69632743D01*
X55112155Y69632743D02*
X55874060Y69632743D01*
X52350250Y68680362D02*
X52350250Y70013696D01*
X52350250Y69823220D02*
X52255012Y69918458D01*
X52255012Y69918458D02*
X52064536Y70013696D01*
X52064536Y70013696D02*
X51778821Y70013696D01*
X51778821Y70013696D02*
X51588345Y69918458D01*
X51588345Y69918458D02*
X51493107Y69727981D01*
X51493107Y69727981D02*
X51493107Y68680362D01*
X51493107Y69727981D02*
X51397869Y69918458D01*
X51397869Y69918458D02*
X51207393Y70013696D01*
X51207393Y70013696D02*
X50921679Y70013696D01*
X50921679Y70013696D02*
X50731202Y69918458D01*
X50731202Y69918458D02*
X50635964Y69727981D01*
X50635964Y69727981D02*
X50635964Y68680362D01*
X49397869Y68680362D02*
X49588345Y68775600D01*
X49588345Y68775600D02*
X49683583Y68870839D01*
X49683583Y68870839D02*
X49778821Y69061315D01*
X49778821Y69061315D02*
X49778821Y69632743D01*
X49778821Y69632743D02*
X49683583Y69823220D01*
X49683583Y69823220D02*
X49588345Y69918458D01*
X49588345Y69918458D02*
X49397869Y70013696D01*
X49397869Y70013696D02*
X49112154Y70013696D01*
X49112154Y70013696D02*
X48921678Y69918458D01*
X48921678Y69918458D02*
X48826440Y69823220D01*
X48826440Y69823220D02*
X48731202Y69632743D01*
X48731202Y69632743D02*
X48731202Y69061315D01*
X48731202Y69061315D02*
X48826440Y68870839D01*
X48826440Y68870839D02*
X48921678Y68775600D01*
X48921678Y68775600D02*
X49112154Y68680362D01*
X49112154Y68680362D02*
X49397869Y68680362D01*
X48159773Y70013696D02*
X47397869Y70013696D01*
X47874059Y70680362D02*
X47874059Y68966077D01*
X47874059Y68966077D02*
X47778821Y68775600D01*
X47778821Y68775600D02*
X47588345Y68680362D01*
X47588345Y68680362D02*
X47397869Y68680362D01*
X46731202Y68680362D02*
X46731202Y70013696D01*
X46731202Y70680362D02*
X46826440Y70585124D01*
X46826440Y70585124D02*
X46731202Y70489886D01*
X46731202Y70489886D02*
X46635964Y70585124D01*
X46635964Y70585124D02*
X46731202Y70680362D01*
X46731202Y70680362D02*
X46731202Y70489886D01*
X45493107Y68680362D02*
X45683583Y68775600D01*
X45683583Y68775600D02*
X45778821Y68870839D01*
X45778821Y68870839D02*
X45874059Y69061315D01*
X45874059Y69061315D02*
X45874059Y69632743D01*
X45874059Y69632743D02*
X45778821Y69823220D01*
X45778821Y69823220D02*
X45683583Y69918458D01*
X45683583Y69918458D02*
X45493107Y70013696D01*
X45493107Y70013696D02*
X45207392Y70013696D01*
X45207392Y70013696D02*
X45016916Y69918458D01*
X45016916Y69918458D02*
X44921678Y69823220D01*
X44921678Y69823220D02*
X44826440Y69632743D01*
X44826440Y69632743D02*
X44826440Y69061315D01*
X44826440Y69061315D02*
X44921678Y68870839D01*
X44921678Y68870839D02*
X45016916Y68775600D01*
X45016916Y68775600D02*
X45207392Y68680362D01*
X45207392Y68680362D02*
X45493107Y68680362D01*
X43969297Y70013696D02*
X43969297Y68680362D01*
X43969297Y69823220D02*
X43874059Y69918458D01*
X43874059Y69918458D02*
X43683583Y70013696D01*
X43683583Y70013696D02*
X43397868Y70013696D01*
X43397868Y70013696D02*
X43207392Y69918458D01*
X43207392Y69918458D02*
X43112154Y69727981D01*
X43112154Y69727981D02*
X43112154Y68680362D01*
X40731201Y68775600D02*
X40540725Y68680362D01*
X40540725Y68680362D02*
X40159773Y68680362D01*
X40159773Y68680362D02*
X39969296Y68775600D01*
X39969296Y68775600D02*
X39874058Y68966077D01*
X39874058Y68966077D02*
X39874058Y69061315D01*
X39874058Y69061315D02*
X39969296Y69251791D01*
X39969296Y69251791D02*
X40159773Y69347029D01*
X40159773Y69347029D02*
X40445487Y69347029D01*
X40445487Y69347029D02*
X40635963Y69442267D01*
X40635963Y69442267D02*
X40731201Y69632743D01*
X40731201Y69632743D02*
X40731201Y69727981D01*
X40731201Y69727981D02*
X40635963Y69918458D01*
X40635963Y69918458D02*
X40445487Y70013696D01*
X40445487Y70013696D02*
X40159773Y70013696D01*
X40159773Y70013696D02*
X39969296Y69918458D01*
X38255010Y68775600D02*
X38445486Y68680362D01*
X38445486Y68680362D02*
X38826439Y68680362D01*
X38826439Y68680362D02*
X39016915Y68775600D01*
X39016915Y68775600D02*
X39112153Y68966077D01*
X39112153Y68966077D02*
X39112153Y69727981D01*
X39112153Y69727981D02*
X39016915Y69918458D01*
X39016915Y69918458D02*
X38826439Y70013696D01*
X38826439Y70013696D02*
X38445486Y70013696D01*
X38445486Y70013696D02*
X38255010Y69918458D01*
X38255010Y69918458D02*
X38159772Y69727981D01*
X38159772Y69727981D02*
X38159772Y69537505D01*
X38159772Y69537505D02*
X39112153Y69347029D01*
X37302629Y70013696D02*
X37302629Y68680362D01*
X37302629Y69823220D02*
X37207391Y69918458D01*
X37207391Y69918458D02*
X37016915Y70013696D01*
X37016915Y70013696D02*
X36731200Y70013696D01*
X36731200Y70013696D02*
X36540724Y69918458D01*
X36540724Y69918458D02*
X36445486Y69727981D01*
X36445486Y69727981D02*
X36445486Y68680362D01*
X35588343Y68775600D02*
X35397867Y68680362D01*
X35397867Y68680362D02*
X35016915Y68680362D01*
X35016915Y68680362D02*
X34826438Y68775600D01*
X34826438Y68775600D02*
X34731200Y68966077D01*
X34731200Y68966077D02*
X34731200Y69061315D01*
X34731200Y69061315D02*
X34826438Y69251791D01*
X34826438Y69251791D02*
X35016915Y69347029D01*
X35016915Y69347029D02*
X35302629Y69347029D01*
X35302629Y69347029D02*
X35493105Y69442267D01*
X35493105Y69442267D02*
X35588343Y69632743D01*
X35588343Y69632743D02*
X35588343Y69727981D01*
X35588343Y69727981D02*
X35493105Y69918458D01*
X35493105Y69918458D02*
X35302629Y70013696D01*
X35302629Y70013696D02*
X35016915Y70013696D01*
X35016915Y70013696D02*
X34826438Y69918458D01*
X33588343Y68680362D02*
X33778819Y68775600D01*
X33778819Y68775600D02*
X33874057Y68870839D01*
X33874057Y68870839D02*
X33969295Y69061315D01*
X33969295Y69061315D02*
X33969295Y69632743D01*
X33969295Y69632743D02*
X33874057Y69823220D01*
X33874057Y69823220D02*
X33778819Y69918458D01*
X33778819Y69918458D02*
X33588343Y70013696D01*
X33588343Y70013696D02*
X33302628Y70013696D01*
X33302628Y70013696D02*
X33112152Y69918458D01*
X33112152Y69918458D02*
X33016914Y69823220D01*
X33016914Y69823220D02*
X32921676Y69632743D01*
X32921676Y69632743D02*
X32921676Y69061315D01*
X32921676Y69061315D02*
X33016914Y68870839D01*
X33016914Y68870839D02*
X33112152Y68775600D01*
X33112152Y68775600D02*
X33302628Y68680362D01*
X33302628Y68680362D02*
X33588343Y68680362D01*
X32064533Y68680362D02*
X32064533Y70013696D01*
X32064533Y69632743D02*
X31969295Y69823220D01*
X31969295Y69823220D02*
X31874057Y69918458D01*
X31874057Y69918458D02*
X31683581Y70013696D01*
X31683581Y70013696D02*
X31493104Y70013696D01*
X56159774Y66507981D02*
X55874060Y66412743D01*
X55874060Y66412743D02*
X55778822Y66317505D01*
X55778822Y66317505D02*
X55683584Y66127029D01*
X55683584Y66127029D02*
X55683584Y65841315D01*
X55683584Y65841315D02*
X55778822Y65650839D01*
X55778822Y65650839D02*
X55874060Y65555600D01*
X55874060Y65555600D02*
X56064536Y65460362D01*
X56064536Y65460362D02*
X56826441Y65460362D01*
X56826441Y65460362D02*
X56826441Y67460362D01*
X56826441Y67460362D02*
X56159774Y67460362D01*
X56159774Y67460362D02*
X55969298Y67365124D01*
X55969298Y67365124D02*
X55874060Y67269886D01*
X55874060Y67269886D02*
X55778822Y67079410D01*
X55778822Y67079410D02*
X55778822Y66888934D01*
X55778822Y66888934D02*
X55874060Y66698458D01*
X55874060Y66698458D02*
X55969298Y66603220D01*
X55969298Y66603220D02*
X56159774Y66507981D01*
X56159774Y66507981D02*
X56826441Y66507981D01*
X53969298Y65460362D02*
X53969298Y66507981D01*
X53969298Y66507981D02*
X54064536Y66698458D01*
X54064536Y66698458D02*
X54255012Y66793696D01*
X54255012Y66793696D02*
X54635965Y66793696D01*
X54635965Y66793696D02*
X54826441Y66698458D01*
X53969298Y65555600D02*
X54159774Y65460362D01*
X54159774Y65460362D02*
X54635965Y65460362D01*
X54635965Y65460362D02*
X54826441Y65555600D01*
X54826441Y65555600D02*
X54921679Y65746077D01*
X54921679Y65746077D02*
X54921679Y65936553D01*
X54921679Y65936553D02*
X54826441Y66127029D01*
X54826441Y66127029D02*
X54635965Y66222267D01*
X54635965Y66222267D02*
X54159774Y66222267D01*
X54159774Y66222267D02*
X53969298Y66317505D01*
X52159774Y66793696D02*
X52159774Y65174648D01*
X52159774Y65174648D02*
X52255012Y64984172D01*
X52255012Y64984172D02*
X52350250Y64888934D01*
X52350250Y64888934D02*
X52540727Y64793696D01*
X52540727Y64793696D02*
X52826441Y64793696D01*
X52826441Y64793696D02*
X53016917Y64888934D01*
X52159774Y65555600D02*
X52350250Y65460362D01*
X52350250Y65460362D02*
X52731203Y65460362D01*
X52731203Y65460362D02*
X52921679Y65555600D01*
X52921679Y65555600D02*
X53016917Y65650839D01*
X53016917Y65650839D02*
X53112155Y65841315D01*
X53112155Y65841315D02*
X53112155Y66412743D01*
X53112155Y66412743D02*
X53016917Y66603220D01*
X53016917Y66603220D02*
X52921679Y66698458D01*
X52921679Y66698458D02*
X52731203Y66793696D01*
X52731203Y66793696D02*
X52350250Y66793696D01*
X52350250Y66793696D02*
X52159774Y66698458D01*
X51207393Y65460362D02*
X51207393Y66793696D01*
X51207393Y66412743D02*
X51112155Y66603220D01*
X51112155Y66603220D02*
X51016917Y66698458D01*
X51016917Y66698458D02*
X50826441Y66793696D01*
X50826441Y66793696D02*
X50635964Y66793696D01*
X50159774Y66793696D02*
X49683584Y65460362D01*
X49207393Y66793696D02*
X49683584Y65460362D01*
X49683584Y65460362D02*
X49874060Y64984172D01*
X49874060Y64984172D02*
X49969298Y64888934D01*
X49969298Y64888934D02*
X50159774Y64793696D01*
X47588345Y65460362D02*
X47588345Y66507981D01*
X47588345Y66507981D02*
X47683583Y66698458D01*
X47683583Y66698458D02*
X47874059Y66793696D01*
X47874059Y66793696D02*
X48255012Y66793696D01*
X48255012Y66793696D02*
X48445488Y66698458D01*
X47588345Y65555600D02*
X47778821Y65460362D01*
X47778821Y65460362D02*
X48255012Y65460362D01*
X48255012Y65460362D02*
X48445488Y65555600D01*
X48445488Y65555600D02*
X48540726Y65746077D01*
X48540726Y65746077D02*
X48540726Y65936553D01*
X48540726Y65936553D02*
X48445488Y66127029D01*
X48445488Y66127029D02*
X48255012Y66222267D01*
X48255012Y66222267D02*
X47778821Y66222267D01*
X47778821Y66222267D02*
X47588345Y66317505D01*
X46635964Y66793696D02*
X46635964Y65460362D01*
X46635964Y66603220D02*
X46540726Y66698458D01*
X46540726Y66698458D02*
X46350250Y66793696D01*
X46350250Y66793696D02*
X46064535Y66793696D01*
X46064535Y66793696D02*
X45874059Y66698458D01*
X45874059Y66698458D02*
X45778821Y66507981D01*
X45778821Y66507981D02*
X45778821Y65460362D01*
X44064535Y65555600D02*
X44255011Y65460362D01*
X44255011Y65460362D02*
X44635964Y65460362D01*
X44635964Y65460362D02*
X44826440Y65555600D01*
X44826440Y65555600D02*
X44921678Y65746077D01*
X44921678Y65746077D02*
X44921678Y66507981D01*
X44921678Y66507981D02*
X44826440Y66698458D01*
X44826440Y66698458D02*
X44635964Y66793696D01*
X44635964Y66793696D02*
X44255011Y66793696D01*
X44255011Y66793696D02*
X44064535Y66698458D01*
X44064535Y66698458D02*
X43969297Y66507981D01*
X43969297Y66507981D02*
X43969297Y66317505D01*
X43969297Y66317505D02*
X44921678Y66127029D01*
X43397868Y66793696D02*
X42635964Y66793696D01*
X43112154Y67460362D02*
X43112154Y65746077D01*
X43112154Y65746077D02*
X43016916Y65555600D01*
X43016916Y65555600D02*
X42826440Y65460362D01*
X42826440Y65460362D02*
X42635964Y65460362D01*
X42064535Y65555600D02*
X41874059Y65460362D01*
X41874059Y65460362D02*
X41493107Y65460362D01*
X41493107Y65460362D02*
X41302630Y65555600D01*
X41302630Y65555600D02*
X41207392Y65746077D01*
X41207392Y65746077D02*
X41207392Y65841315D01*
X41207392Y65841315D02*
X41302630Y66031791D01*
X41302630Y66031791D02*
X41493107Y66127029D01*
X41493107Y66127029D02*
X41778821Y66127029D01*
X41778821Y66127029D02*
X41969297Y66222267D01*
X41969297Y66222267D02*
X42064535Y66412743D01*
X42064535Y66412743D02*
X42064535Y66507981D01*
X42064535Y66507981D02*
X41969297Y66698458D01*
X41969297Y66698458D02*
X41778821Y66793696D01*
X41778821Y66793696D02*
X41493107Y66793696D01*
X41493107Y66793696D02*
X41302630Y66698458D01*
X39016915Y66793696D02*
X38540725Y65460362D01*
X38540725Y65460362D02*
X38064534Y66793696D01*
X36255010Y65460362D02*
X37397867Y65460362D01*
X36826439Y65460362D02*
X36826439Y67460362D01*
X36826439Y67460362D02*
X37016915Y67174648D01*
X37016915Y67174648D02*
X37207391Y66984172D01*
X37207391Y66984172D02*
X37397867Y66888934D01*
X35397867Y65650839D02*
X35302629Y65555600D01*
X35302629Y65555600D02*
X35397867Y65460362D01*
X35397867Y65460362D02*
X35493105Y65555600D01*
X35493105Y65555600D02*
X35397867Y65650839D01*
X35397867Y65650839D02*
X35397867Y65460362D01*
X34064534Y67460362D02*
X33874057Y67460362D01*
X33874057Y67460362D02*
X33683581Y67365124D01*
X33683581Y67365124D02*
X33588343Y67269886D01*
X33588343Y67269886D02*
X33493105Y67079410D01*
X33493105Y67079410D02*
X33397867Y66698458D01*
X33397867Y66698458D02*
X33397867Y66222267D01*
X33397867Y66222267D02*
X33493105Y65841315D01*
X33493105Y65841315D02*
X33588343Y65650839D01*
X33588343Y65650839D02*
X33683581Y65555600D01*
X33683581Y65555600D02*
X33874057Y65460362D01*
X33874057Y65460362D02*
X34064534Y65460362D01*
X34064534Y65460362D02*
X34255010Y65555600D01*
X34255010Y65555600D02*
X34350248Y65650839D01*
X34350248Y65650839D02*
X34445486Y65841315D01*
X34445486Y65841315D02*
X34540724Y66222267D01*
X34540724Y66222267D02*
X34540724Y66698458D01*
X34540724Y66698458D02*
X34445486Y67079410D01*
X34445486Y67079410D02*
X34350248Y67269886D01*
X34350248Y67269886D02*
X34255010Y67365124D01*
X34255010Y67365124D02*
X34064534Y67460362D01*
D11*
X43163571Y35375322D02*
X43163571Y34161036D01*
X43163571Y34161036D02*
X43092142Y34018179D01*
X43092142Y34018179D02*
X43020714Y33946750D01*
X43020714Y33946750D02*
X42877856Y33875322D01*
X42877856Y33875322D02*
X42592142Y33875322D01*
X42592142Y33875322D02*
X42449285Y33946750D01*
X42449285Y33946750D02*
X42377856Y34018179D01*
X42377856Y34018179D02*
X42306428Y34161036D01*
X42306428Y34161036D02*
X42306428Y35375322D01*
X41663570Y34303893D02*
X40949285Y34303893D01*
X41806427Y33875322D02*
X41306427Y35375322D01*
X41306427Y35375322D02*
X40806427Y33875322D01*
X39449285Y33875322D02*
X39949285Y34589608D01*
X40306428Y33875322D02*
X40306428Y35375322D01*
X40306428Y35375322D02*
X39734999Y35375322D01*
X39734999Y35375322D02*
X39592142Y35303893D01*
X39592142Y35303893D02*
X39520713Y35232465D01*
X39520713Y35232465D02*
X39449285Y35089608D01*
X39449285Y35089608D02*
X39449285Y34875322D01*
X39449285Y34875322D02*
X39520713Y34732465D01*
X39520713Y34732465D02*
X39592142Y34661036D01*
X39592142Y34661036D02*
X39734999Y34589608D01*
X39734999Y34589608D02*
X40306428Y34589608D01*
X39020713Y35375322D02*
X38163571Y35375322D01*
X38592142Y33875322D02*
X38592142Y35375322D01*
X35663571Y33875322D02*
X36163571Y34589608D01*
X36520714Y33875322D02*
X36520714Y35375322D01*
X36520714Y35375322D02*
X35949285Y35375322D01*
X35949285Y35375322D02*
X35806428Y35303893D01*
X35806428Y35303893D02*
X35734999Y35232465D01*
X35734999Y35232465D02*
X35663571Y35089608D01*
X35663571Y35089608D02*
X35663571Y34875322D01*
X35663571Y34875322D02*
X35734999Y34732465D01*
X35734999Y34732465D02*
X35806428Y34661036D01*
X35806428Y34661036D02*
X35949285Y34589608D01*
X35949285Y34589608D02*
X36520714Y34589608D01*
X35163571Y35375322D02*
X34163571Y33875322D01*
X34163571Y35375322D02*
X35163571Y33875322D01*
X20159071Y16157144D02*
X20159071Y17085716D01*
X20159071Y17085716D02*
X19587642Y16585716D01*
X19587642Y16585716D02*
X19587642Y16800001D01*
X19587642Y16800001D02*
X19516214Y16942858D01*
X19516214Y16942858D02*
X19444785Y17014287D01*
X19444785Y17014287D02*
X19301928Y17085716D01*
X19301928Y17085716D02*
X18944785Y17085716D01*
X18944785Y17085716D02*
X18801928Y17014287D01*
X18801928Y17014287D02*
X18730500Y16942858D01*
X18730500Y16942858D02*
X18659071Y16800001D01*
X18659071Y16800001D02*
X18659071Y16371430D01*
X18659071Y16371430D02*
X18730500Y16228573D01*
X18730500Y16228573D02*
X18801928Y16157144D01*
X18801928Y17728572D02*
X18730500Y17800001D01*
X18730500Y17800001D02*
X18659071Y17728572D01*
X18659071Y17728572D02*
X18730500Y17657144D01*
X18730500Y17657144D02*
X18801928Y17728572D01*
X18801928Y17728572D02*
X18659071Y17728572D01*
X20159071Y18300001D02*
X20159071Y19228573D01*
X20159071Y19228573D02*
X19587642Y18728573D01*
X19587642Y18728573D02*
X19587642Y18942858D01*
X19587642Y18942858D02*
X19516214Y19085715D01*
X19516214Y19085715D02*
X19444785Y19157144D01*
X19444785Y19157144D02*
X19301928Y19228573D01*
X19301928Y19228573D02*
X18944785Y19228573D01*
X18944785Y19228573D02*
X18801928Y19157144D01*
X18801928Y19157144D02*
X18730500Y19085715D01*
X18730500Y19085715D02*
X18659071Y18942858D01*
X18659071Y18942858D02*
X18659071Y18514287D01*
X18659071Y18514287D02*
X18730500Y18371430D01*
X18730500Y18371430D02*
X18801928Y18300001D01*
X19444785Y21514286D02*
X19373357Y21728572D01*
X19373357Y21728572D02*
X19301928Y21800001D01*
X19301928Y21800001D02*
X19159071Y21871429D01*
X19159071Y21871429D02*
X18944785Y21871429D01*
X18944785Y21871429D02*
X18801928Y21800001D01*
X18801928Y21800001D02*
X18730500Y21728572D01*
X18730500Y21728572D02*
X18659071Y21585715D01*
X18659071Y21585715D02*
X18659071Y21014286D01*
X18659071Y21014286D02*
X20159071Y21014286D01*
X20159071Y21014286D02*
X20159071Y21514286D01*
X20159071Y21514286D02*
X20087642Y21657143D01*
X20087642Y21657143D02*
X20016214Y21728572D01*
X20016214Y21728572D02*
X19873357Y21800001D01*
X19873357Y21800001D02*
X19730500Y21800001D01*
X19730500Y21800001D02*
X19587642Y21728572D01*
X19587642Y21728572D02*
X19516214Y21657143D01*
X19516214Y21657143D02*
X19444785Y21514286D01*
X19444785Y21514286D02*
X19444785Y21014286D01*
X39877856Y42923893D02*
X40020714Y42995322D01*
X40020714Y42995322D02*
X40234999Y42995322D01*
X40234999Y42995322D02*
X40449285Y42923893D01*
X40449285Y42923893D02*
X40592142Y42781036D01*
X40592142Y42781036D02*
X40663571Y42638179D01*
X40663571Y42638179D02*
X40734999Y42352465D01*
X40734999Y42352465D02*
X40734999Y42138179D01*
X40734999Y42138179D02*
X40663571Y41852465D01*
X40663571Y41852465D02*
X40592142Y41709608D01*
X40592142Y41709608D02*
X40449285Y41566750D01*
X40449285Y41566750D02*
X40234999Y41495322D01*
X40234999Y41495322D02*
X40092142Y41495322D01*
X40092142Y41495322D02*
X39877856Y41566750D01*
X39877856Y41566750D02*
X39806428Y41638179D01*
X39806428Y41638179D02*
X39806428Y42138179D01*
X39806428Y42138179D02*
X40092142Y42138179D01*
X39163571Y41495322D02*
X39163571Y42995322D01*
X39163571Y42995322D02*
X38306428Y41495322D01*
X38306428Y41495322D02*
X38306428Y42995322D01*
X37592142Y41495322D02*
X37592142Y42995322D01*
X37592142Y42995322D02*
X37234999Y42995322D01*
X37234999Y42995322D02*
X37020713Y42923893D01*
X37020713Y42923893D02*
X36877856Y42781036D01*
X36877856Y42781036D02*
X36806427Y42638179D01*
X36806427Y42638179D02*
X36734999Y42352465D01*
X36734999Y42352465D02*
X36734999Y42138179D01*
X36734999Y42138179D02*
X36806427Y41852465D01*
X36806427Y41852465D02*
X36877856Y41709608D01*
X36877856Y41709608D02*
X37020713Y41566750D01*
X37020713Y41566750D02*
X37234999Y41495322D01*
X37234999Y41495322D02*
X37592142Y41495322D01*
X17547642Y17907144D02*
X17619071Y17764286D01*
X17619071Y17764286D02*
X17619071Y17550001D01*
X17619071Y17550001D02*
X17547642Y17335715D01*
X17547642Y17335715D02*
X17404785Y17192858D01*
X17404785Y17192858D02*
X17261928Y17121429D01*
X17261928Y17121429D02*
X16976214Y17050001D01*
X16976214Y17050001D02*
X16761928Y17050001D01*
X16761928Y17050001D02*
X16476214Y17121429D01*
X16476214Y17121429D02*
X16333357Y17192858D01*
X16333357Y17192858D02*
X16190500Y17335715D01*
X16190500Y17335715D02*
X16119071Y17550001D01*
X16119071Y17550001D02*
X16119071Y17692858D01*
X16119071Y17692858D02*
X16190500Y17907144D01*
X16190500Y17907144D02*
X16261928Y17978572D01*
X16261928Y17978572D02*
X16761928Y17978572D01*
X16761928Y17978572D02*
X16761928Y17692858D01*
X16119071Y18621429D02*
X17619071Y18621429D01*
X17619071Y18621429D02*
X16119071Y19478572D01*
X16119071Y19478572D02*
X17619071Y19478572D01*
X16119071Y20192858D02*
X17619071Y20192858D01*
X17619071Y20192858D02*
X17619071Y20550001D01*
X17619071Y20550001D02*
X17547642Y20764287D01*
X17547642Y20764287D02*
X17404785Y20907144D01*
X17404785Y20907144D02*
X17261928Y20978573D01*
X17261928Y20978573D02*
X16976214Y21050001D01*
X16976214Y21050001D02*
X16761928Y21050001D01*
X16761928Y21050001D02*
X16476214Y20978573D01*
X16476214Y20978573D02*
X16333357Y20907144D01*
X16333357Y20907144D02*
X16190500Y20764287D01*
X16190500Y20764287D02*
X16119071Y20550001D01*
X16119071Y20550001D02*
X16119071Y20192858D01*
D10*
X15324523Y4615181D02*
X14657857Y3615181D01*
X14657857Y4615181D02*
X15324523Y3615181D01*
X14276904Y3615181D02*
X14276904Y4615181D01*
X14276904Y4615181D02*
X13895952Y4615181D01*
X13895952Y4615181D02*
X13800714Y4567562D01*
X13800714Y4567562D02*
X13753095Y4519943D01*
X13753095Y4519943D02*
X13705476Y4424705D01*
X13705476Y4424705D02*
X13705476Y4281848D01*
X13705476Y4281848D02*
X13753095Y4186610D01*
X13753095Y4186610D02*
X13800714Y4138991D01*
X13800714Y4138991D02*
X13895952Y4091372D01*
X13895952Y4091372D02*
X14276904Y4091372D01*
X13324523Y4519943D02*
X13276904Y4567562D01*
X13276904Y4567562D02*
X13181666Y4615181D01*
X13181666Y4615181D02*
X12943571Y4615181D01*
X12943571Y4615181D02*
X12848333Y4567562D01*
X12848333Y4567562D02*
X12800714Y4519943D01*
X12800714Y4519943D02*
X12753095Y4424705D01*
X12753095Y4424705D02*
X12753095Y4329467D01*
X12753095Y4329467D02*
X12800714Y4186610D01*
X12800714Y4186610D02*
X13372142Y3615181D01*
X13372142Y3615181D02*
X12753095Y3615181D01*
X52075523Y50160181D02*
X51408857Y49160181D01*
X51408857Y50160181D02*
X52075523Y49160181D01*
X51027904Y49160181D02*
X51027904Y50160181D01*
X51027904Y50160181D02*
X50646952Y50160181D01*
X50646952Y50160181D02*
X50551714Y50112562D01*
X50551714Y50112562D02*
X50504095Y50064943D01*
X50504095Y50064943D02*
X50456476Y49969705D01*
X50456476Y49969705D02*
X50456476Y49826848D01*
X50456476Y49826848D02*
X50504095Y49731610D01*
X50504095Y49731610D02*
X50551714Y49683991D01*
X50551714Y49683991D02*
X50646952Y49636372D01*
X50646952Y49636372D02*
X51027904Y49636372D01*
X49504095Y49160181D02*
X50075523Y49160181D01*
X49789809Y49160181D02*
X49789809Y50160181D01*
X49789809Y50160181D02*
X49885047Y50017324D01*
X49885047Y50017324D02*
X49980285Y49922086D01*
X49980285Y49922086D02*
X50075523Y49874467D01*
%TO.C,G\u002A\u002A\u002A*%
G36*
X12979082Y65929098D02*
G01*
X12979082Y65320917D01*
X12370901Y65320917D01*
X11762720Y65320917D01*
X11762720Y65929098D01*
X11762720Y66537279D01*
X12370901Y66537279D01*
X12979082Y66537279D01*
X12979082Y65929098D01*
G37*
G36*
X12979082Y76470901D02*
G01*
X12979082Y75862720D01*
X12370901Y75862720D01*
X11762720Y75862720D01*
X11762720Y76470901D01*
X11762720Y77079082D01*
X12370901Y77079082D01*
X12979082Y77079082D01*
X12979082Y76470901D01*
G37*
G36*
X4464549Y77683039D02*
G01*
X4464549Y77476089D01*
X4257599Y77476089D01*
X4050648Y77476089D01*
X4050648Y77683039D01*
X4050648Y77889990D01*
X4257599Y77889990D01*
X4464549Y77889990D01*
X4464549Y77683039D01*
G37*
G36*
X3248187Y67141237D02*
G01*
X3248187Y66934286D01*
X3041237Y66934286D01*
X2834286Y66934286D01*
X2834286Y67141237D01*
X2834286Y67348187D01*
X3041237Y67348187D01*
X3248187Y67348187D01*
X3248187Y67141237D01*
G37*
G36*
X2437279Y76470901D02*
G01*
X2437279Y75862720D01*
X1829098Y75862720D01*
X1220917Y75862720D01*
X1220917Y76470901D01*
X1220917Y77079082D01*
X1829098Y77079082D01*
X2437279Y77079082D01*
X2437279Y76470901D01*
G37*
G36*
X815464Y73223046D02*
G01*
X815464Y73016095D01*
X608513Y73016095D01*
X401563Y73016095D01*
X401563Y73223046D01*
X401563Y73429996D01*
X608513Y73429996D01*
X815464Y73429996D01*
X815464Y73223046D01*
G37*
G36*
X815464Y74033954D02*
G01*
X815464Y73827003D01*
X608513Y73827003D01*
X401563Y73827003D01*
X401563Y74033954D01*
X401563Y74240904D01*
X608513Y74240904D01*
X815464Y74240904D01*
X815464Y74033954D01*
G37*
G36*
X4059095Y69578184D02*
G01*
X4059095Y69375457D01*
X4261822Y69375457D01*
X4464549Y69375457D01*
X4464549Y69168506D01*
X4464549Y68961556D01*
X4257751Y68961556D01*
X4050954Y68961556D01*
X4048689Y69162171D01*
X4046425Y69362786D01*
X3845809Y69365051D01*
X3645194Y69367316D01*
X3645194Y69574113D01*
X3645194Y69780911D01*
X3852145Y69780911D01*
X4059095Y69780911D01*
X4059095Y69578184D01*
G37*
G36*
X13789990Y65929098D02*
G01*
X13789990Y64510010D01*
X12370901Y64510010D01*
X10951812Y64510010D01*
X10951812Y64915464D01*
X11357266Y64915464D01*
X12370901Y64915464D01*
X13384536Y64915464D01*
X13384536Y65929098D01*
X13384536Y66942733D01*
X12370901Y66942733D01*
X11357266Y66942733D01*
X11357266Y65929098D01*
X11357266Y64915464D01*
X10951812Y64915464D01*
X10951812Y65929098D01*
X10951812Y67348187D01*
X12370901Y67348187D01*
X13789990Y67348187D01*
X13789990Y66942733D01*
X13789990Y65929098D01*
G37*
G36*
X13789990Y76470901D02*
G01*
X13789990Y75051812D01*
X12370901Y75051812D01*
X10951812Y75051812D01*
X10951812Y75457266D01*
X11357266Y75457266D01*
X12370901Y75457266D01*
X13384536Y75457266D01*
X13384536Y76470901D01*
X13384536Y77484536D01*
X12370901Y77484536D01*
X11357266Y77484536D01*
X11357266Y76470901D01*
X11357266Y75457266D01*
X10951812Y75457266D01*
X10951812Y76470901D01*
X10951812Y77889990D01*
X12370901Y77889990D01*
X13789990Y77889990D01*
X13789990Y77484536D01*
X13789990Y76470901D01*
G37*
G36*
X3248187Y76470901D02*
G01*
X3248187Y75051812D01*
X1829098Y75051812D01*
X410010Y75051812D01*
X410010Y75457266D01*
X815464Y75457266D01*
X1829098Y75457266D01*
X2842733Y75457266D01*
X2842733Y76470901D01*
X2842733Y77484536D01*
X1829098Y77484536D01*
X815464Y77484536D01*
X815464Y76470901D01*
X815464Y75457266D01*
X410010Y75457266D01*
X410010Y76470901D01*
X410010Y77889990D01*
X1829098Y77889990D01*
X3248187Y77889990D01*
X3248187Y77484536D01*
X3248187Y76470901D01*
G37*
G36*
X6491819Y75448797D02*
G01*
X6491819Y75051812D01*
X6491819Y75043365D01*
X6289092Y75043365D01*
X6086365Y75043365D01*
X6086365Y74435184D01*
X6086365Y74240904D01*
X6086365Y73827003D01*
X5883638Y73827003D01*
X5680911Y73827003D01*
X5680911Y73628500D01*
X5680911Y73429996D01*
X6082231Y73429996D01*
X6483551Y73429996D01*
X6483174Y73833338D01*
X6483130Y73883591D01*
X6483067Y73975585D01*
X6483022Y74068404D01*
X6482995Y74159095D01*
X6482988Y74244706D01*
X6483000Y74322282D01*
X6483032Y74388871D01*
X6483084Y74441519D01*
X6483372Y74646358D01*
X6686495Y74646358D01*
X6889618Y74646358D01*
X6888805Y74846973D01*
X6888789Y74850987D01*
X6888561Y74924563D01*
X6888402Y75008063D01*
X6888320Y75094919D01*
X6888320Y75178564D01*
X6888409Y75252427D01*
X6888826Y75457266D01*
X7095776Y75457266D01*
X7302727Y75457266D01*
X7302727Y74646358D01*
X7302727Y73835450D01*
X7703907Y73835450D01*
X8105088Y73835450D01*
X8519088Y73835450D01*
X8717542Y73835450D01*
X8915996Y73835450D01*
X8913934Y74234569D01*
X8913901Y74240904D01*
X9329996Y74240904D01*
X9528450Y74240904D01*
X9726904Y74240904D01*
X9724842Y74640023D01*
X9722780Y75039142D01*
X9526388Y75041409D01*
X9329996Y75043676D01*
X9329996Y74642290D01*
X9329996Y74240904D01*
X8913901Y74240904D01*
X8911872Y74633688D01*
X8715480Y74635955D01*
X8519088Y74638222D01*
X8519088Y74236836D01*
X8519088Y73835450D01*
X8105088Y73835450D01*
X8103026Y74234569D01*
X8100964Y74633688D01*
X7900641Y74635952D01*
X7700317Y74638216D01*
X7697914Y74842902D01*
X7697877Y74846066D01*
X7697261Y74920943D01*
X7696957Y75005708D01*
X7696963Y75093670D01*
X7697281Y75178139D01*
X7697909Y75252427D01*
X7700309Y75457266D01*
X7906972Y75457266D01*
X8113634Y75457266D01*
X8113634Y75051812D01*
X8113634Y74646358D01*
X8312001Y74646358D01*
X8510368Y74646358D01*
X8510352Y75051812D01*
X8924542Y75051812D01*
X9123046Y75051812D01*
X9321549Y75051812D01*
X9321549Y75254539D01*
X9321549Y75457266D01*
X9528500Y75457266D01*
X9735450Y75457266D01*
X9735450Y75254539D01*
X9735450Y75051812D01*
X9933835Y75051812D01*
X10132220Y75051812D01*
X10130227Y75653658D01*
X10128234Y76255503D01*
X9927771Y76257768D01*
X9727308Y76260032D01*
X9725044Y76460495D01*
X9722780Y76660957D01*
X9323661Y76663020D01*
X8924542Y76665082D01*
X8924542Y76466628D01*
X8924542Y76268174D01*
X9127269Y76268174D01*
X9329996Y76268174D01*
X9329996Y76061223D01*
X9329996Y75854273D01*
X9127269Y75854273D01*
X8924542Y75854273D01*
X8924542Y75453042D01*
X8924542Y75051812D01*
X8510352Y75051812D01*
X8510321Y75860608D01*
X8510318Y75958123D01*
X8510316Y76102778D01*
X8510316Y76244547D01*
X8510319Y76382263D01*
X8510324Y76514759D01*
X8510331Y76640868D01*
X8510341Y76759421D01*
X8510352Y76869252D01*
X8510366Y76969194D01*
X8510381Y77058078D01*
X8510398Y77134738D01*
X8510417Y77198006D01*
X8510437Y77246715D01*
X8510458Y77279697D01*
X8510641Y77484536D01*
X8717592Y77484536D01*
X8924542Y77484536D01*
X8924542Y77281809D01*
X8924542Y77079082D01*
X9123046Y77079082D01*
X9321549Y77079082D01*
X9321549Y77281809D01*
X9321549Y77484536D01*
X9731227Y77484536D01*
X10140904Y77484536D01*
X10140904Y77281809D01*
X10140904Y77079082D01*
X10343631Y77079082D01*
X10546358Y77079082D01*
X10546358Y75858496D01*
X10546358Y75051812D01*
X10546358Y74637911D01*
X10343631Y74637911D01*
X10140904Y74637911D01*
X10140904Y74435184D01*
X10140904Y74240904D01*
X10140904Y74232457D01*
X9938177Y74232457D01*
X9735450Y74232457D01*
X9735450Y74033954D01*
X9735450Y73835450D01*
X10951812Y73835450D01*
X12168174Y73835450D01*
X12168174Y73024542D01*
X12168174Y72619088D01*
X12168174Y72213634D01*
X12366504Y72213634D01*
X12564835Y72213634D01*
X12562896Y73220934D01*
X12560957Y74228234D01*
X11952776Y74230134D01*
X11900684Y74230296D01*
X11794064Y74230617D01*
X11688444Y74230924D01*
X11585810Y74231212D01*
X11488149Y74231476D01*
X11397448Y74231710D01*
X11315694Y74231909D01*
X11244874Y74232068D01*
X11186974Y74232182D01*
X11143980Y74232246D01*
X10943365Y74232457D01*
X10943365Y74439408D01*
X10943365Y74646358D01*
X11961223Y74646358D01*
X12979082Y74646358D01*
X12979082Y74443631D01*
X12979082Y74240904D01*
X13177585Y74240904D01*
X13376089Y74240904D01*
X13376089Y74443631D01*
X13376089Y74646358D01*
X13583039Y74646358D01*
X13789990Y74646358D01*
X13789990Y74033954D01*
X13789990Y73421549D01*
X13587263Y73421549D01*
X13384536Y73421549D01*
X13384536Y72813368D01*
X13384536Y72205187D01*
X13181809Y72205187D01*
X12979082Y72205187D01*
X12979082Y72006684D01*
X12979082Y71808181D01*
X13181809Y71808181D01*
X13384536Y71808181D01*
X13384536Y71605454D01*
X13384536Y71402727D01*
X13587263Y71402727D01*
X13789990Y71402727D01*
X13789990Y70993049D01*
X13789990Y70583372D01*
X13587263Y70583372D01*
X13384536Y70583372D01*
X13384536Y70186365D01*
X13384536Y70182141D01*
X13384536Y69780911D01*
X13587263Y69780911D01*
X13789990Y69780911D01*
X13789990Y69375457D01*
X13789990Y68763052D01*
X13789990Y67745194D01*
X13583039Y67745194D01*
X13376089Y67745194D01*
X13375839Y67945809D01*
X13375793Y67974603D01*
X13375652Y68034817D01*
X13375444Y68107292D01*
X13375176Y68189122D01*
X13374861Y68277402D01*
X13374508Y68369225D01*
X13374127Y68461686D01*
X13373728Y68551879D01*
X13371865Y68957332D01*
X13171403Y68959597D01*
X12970940Y68961861D01*
X12968676Y69162324D01*
X12966411Y69362786D01*
X12770020Y69365054D01*
X12573628Y69367321D01*
X12573628Y68970003D01*
X12573628Y68965935D01*
X12573628Y68564549D01*
X12776355Y68564549D01*
X12979082Y68564549D01*
X12979082Y68154872D01*
X12979082Y67745194D01*
X12772131Y67745194D01*
X12565181Y67745194D01*
X12564834Y67945809D01*
X12564830Y67947631D01*
X12564628Y68021178D01*
X12564281Y68104769D01*
X12563824Y68191738D01*
X12563293Y68275421D01*
X12562722Y68349152D01*
X12560957Y68551879D01*
X12364566Y68554146D01*
X12168174Y68556413D01*
X12168174Y68159095D01*
X12168174Y68150804D01*
X12168174Y67745194D01*
X11965447Y67744964D01*
X11955343Y67744953D01*
X11881017Y67744883D01*
X11797121Y67744823D01*
X11710008Y67744776D01*
X11626032Y67744745D01*
X11551546Y67744733D01*
X11540026Y67744734D01*
X11464027Y67744748D01*
X11379995Y67744782D01*
X11294163Y67744832D01*
X11212761Y67744893D01*
X11142021Y67744964D01*
X10943671Y67745194D01*
X10941406Y67945809D01*
X10939142Y68146425D01*
X10738679Y68148689D01*
X10538216Y68150953D01*
X10538124Y68159095D01*
X10951812Y68159095D01*
X11353198Y68159095D01*
X11754584Y68159095D01*
X11752317Y68355487D01*
X11750049Y68551879D01*
X11350931Y68553941D01*
X10951812Y68556003D01*
X10951812Y68357549D01*
X10951812Y68159095D01*
X10538124Y68159095D01*
X10535952Y68351416D01*
X10533688Y68551879D01*
X10134569Y68553941D01*
X9735450Y68556003D01*
X9735450Y68357549D01*
X9735450Y68159095D01*
X9938177Y68159095D01*
X10140904Y68159095D01*
X10140904Y67956368D01*
X10140904Y67753641D01*
X10343631Y67753641D01*
X10546358Y67753641D01*
X10546358Y67546691D01*
X10546358Y67339740D01*
X10339561Y67339740D01*
X10132763Y67339740D01*
X10130498Y67540355D01*
X10128234Y67740971D01*
X9931842Y67743238D01*
X9735450Y67745506D01*
X9735450Y67344119D01*
X9735450Y66942733D01*
X10140904Y66942733D01*
X10546358Y66942733D01*
X10546358Y66127602D01*
X10546358Y65726371D01*
X10546358Y65320917D01*
X10546358Y65312470D01*
X10341519Y65312054D01*
X10337422Y65312046D01*
X10262776Y65311962D01*
X10178748Y65311967D01*
X10091908Y65312054D01*
X10008824Y65312218D01*
X9936065Y65312450D01*
X9735450Y65313263D01*
X9735450Y65114363D01*
X9735450Y64915464D01*
X10140904Y64915464D01*
X10546358Y64915464D01*
X10546358Y64708663D01*
X10546358Y64501863D01*
X10341519Y64499601D01*
X10332137Y64499504D01*
X10284082Y64499146D01*
X10224751Y64498881D01*
X10155628Y64498705D01*
X10078195Y64498613D01*
X9993934Y64498599D01*
X9904328Y64498659D01*
X9810860Y64498787D01*
X9715012Y64498979D01*
X9618267Y64499229D01*
X9522107Y64499533D01*
X9428015Y64499885D01*
X9337474Y64500281D01*
X9251966Y64500716D01*
X9172974Y64501184D01*
X9101980Y64501680D01*
X9040467Y64502200D01*
X8989918Y64502738D01*
X8951814Y64503289D01*
X8927640Y64503849D01*
X8918877Y64504413D01*
X8918260Y64513076D01*
X8917599Y64536989D01*
X8916919Y64574490D01*
X8916240Y64623920D01*
X8915581Y64683621D01*
X8914964Y64751935D01*
X8914408Y64827204D01*
X8913935Y64907769D01*
X8911872Y65308247D01*
X8715480Y65310514D01*
X8519088Y65312782D01*
X8519088Y65109899D01*
X8519088Y64907017D01*
X8314250Y64906600D01*
X8310153Y64906592D01*
X8235506Y64906508D01*
X8151478Y64906513D01*
X8064638Y64906600D01*
X7981554Y64906764D01*
X7908796Y64906996D01*
X7708181Y64907809D01*
X7708181Y64704686D01*
X7708181Y64501563D01*
X7505454Y64501332D01*
X7495349Y64501321D01*
X7421024Y64501252D01*
X7337127Y64501191D01*
X7250014Y64501144D01*
X7166038Y64501113D01*
X7091553Y64501102D01*
X7080068Y64501102D01*
X7004057Y64501117D01*
X6919996Y64501151D01*
X6834122Y64501200D01*
X6752669Y64501262D01*
X6681875Y64501332D01*
X6483372Y64501563D01*
X6483372Y64708513D01*
X6483372Y64915464D01*
X6888981Y64915464D01*
X7294591Y64915464D01*
X7292324Y65111855D01*
X7290056Y65308247D01*
X7089593Y65310511D01*
X6889131Y65312776D01*
X6886866Y65513238D01*
X6884602Y65713701D01*
X6688210Y65715968D01*
X6491819Y65718236D01*
X6491819Y65515353D01*
X6491819Y65312470D01*
X6284868Y65312470D01*
X6077918Y65312470D01*
X6077571Y65513086D01*
X6077567Y65514907D01*
X6077365Y65588454D01*
X6077018Y65672045D01*
X6076733Y65726371D01*
X6897273Y65726371D01*
X7095932Y65726371D01*
X7294591Y65726371D01*
X7292324Y65922763D01*
X7290056Y66119155D01*
X7093664Y66121422D01*
X6897273Y66123690D01*
X6897273Y65925031D01*
X6897273Y65726371D01*
X6076733Y65726371D01*
X6076561Y65759014D01*
X6076030Y65842697D01*
X6075459Y65916428D01*
X6073694Y66119155D01*
X5269122Y66121114D01*
X4464549Y66123073D01*
X4464549Y65924722D01*
X4464549Y65726371D01*
X4667276Y65726371D01*
X4870003Y65726371D01*
X4870003Y65523644D01*
X4870003Y65320917D01*
X5068506Y65320917D01*
X5267010Y65320917D01*
X5267010Y65523644D01*
X5267010Y65726371D01*
X5473960Y65726371D01*
X5680911Y65726371D01*
X5680911Y65519421D01*
X5680911Y65312470D01*
X5478184Y65312470D01*
X5275457Y65312470D01*
X5275457Y65109744D01*
X5275457Y64907017D01*
X5072730Y64907017D01*
X4870003Y64907017D01*
X4870003Y64704290D01*
X4870003Y64501563D01*
X4667276Y64501382D01*
X4634009Y64501356D01*
X4572648Y64501320D01*
X4499192Y64501287D01*
X4416504Y64501258D01*
X4327445Y64501234D01*
X4234875Y64501216D01*
X4141656Y64501205D01*
X4050648Y64501201D01*
X3988535Y64501203D01*
X3896045Y64501212D01*
X3803473Y64501228D01*
X3713647Y64501250D01*
X3629397Y64501277D01*
X3553552Y64501309D01*
X3488942Y64501344D01*
X3438397Y64501382D01*
X3240046Y64501563D01*
X3237781Y64702178D01*
X3235517Y64902793D01*
X3039125Y64905060D01*
X2842733Y64907328D01*
X2842733Y64704445D01*
X2842733Y64501563D01*
X2635936Y64501563D01*
X2429138Y64501563D01*
X2426873Y64702178D01*
X2424609Y64902793D01*
X2228217Y64905060D01*
X2031825Y64907328D01*
X2031825Y64704445D01*
X2031825Y64501563D01*
X1825028Y64501563D01*
X1618230Y64501563D01*
X1615966Y64702178D01*
X1613701Y64902793D01*
X1417309Y64905060D01*
X1220917Y64907328D01*
X1220917Y64704445D01*
X1220917Y64501563D01*
X1013967Y64501563D01*
X807017Y64501563D01*
X807017Y64708513D01*
X807017Y64915464D01*
X1009744Y64915464D01*
X1212470Y64915464D01*
X1212470Y65118190D01*
X1212470Y65312782D01*
X2437279Y65312782D01*
X2437279Y65114123D01*
X2437279Y64915464D01*
X2635938Y64915464D01*
X2834598Y64915464D01*
X2832330Y65111855D01*
X2830063Y65308247D01*
X2633671Y65310514D01*
X2437279Y65312782D01*
X1212470Y65312782D01*
X1212470Y65320917D01*
X1415079Y65320917D01*
X1617688Y65320917D01*
X2031825Y65320917D01*
X2230485Y65320917D01*
X2429144Y65320917D01*
X3248187Y65320917D01*
X3450914Y65320917D01*
X3653641Y65320917D01*
X3653641Y65118190D01*
X3653641Y64915464D01*
X3852145Y64915464D01*
X4050648Y64915464D01*
X4050648Y65118190D01*
X4050648Y65320917D01*
X4253531Y65320917D01*
X4456413Y65320917D01*
X4454146Y65517309D01*
X4451879Y65713701D01*
X3850033Y65715694D01*
X3248187Y65717688D01*
X3248187Y65519303D01*
X3248187Y65320917D01*
X2429144Y65320917D01*
X2426876Y65517309D01*
X2424609Y65713701D01*
X2228217Y65715968D01*
X2031825Y65718236D01*
X2031825Y65519577D01*
X2031825Y65320917D01*
X1617688Y65320917D01*
X1616345Y65726371D01*
X2437279Y65726371D01*
X2838665Y65726371D01*
X3240052Y65726371D01*
X3237784Y65922763D01*
X3235517Y66119155D01*
X2836398Y66121217D01*
X2437279Y66123279D01*
X2437279Y65924825D01*
X2437279Y65726371D01*
X1616345Y65726371D01*
X1615694Y65922763D01*
X1615002Y66131825D01*
X4059095Y66131825D01*
X4257754Y66131825D01*
X4456413Y66131825D01*
X6086365Y66131825D01*
X6487751Y66131825D01*
X6889137Y66131825D01*
X7708181Y66131825D01*
X7708181Y65924756D01*
X7708181Y65726371D01*
X7708181Y65320917D01*
X8109567Y65320917D01*
X8510953Y65320917D01*
X8924542Y65320917D01*
X9123202Y65320917D01*
X9321861Y65320917D01*
X9319593Y65517309D01*
X9317326Y65713701D01*
X9120934Y65715968D01*
X8924542Y65718236D01*
X8924542Y65519577D01*
X8924542Y65320917D01*
X8510953Y65320917D01*
X8508685Y65517309D01*
X8506418Y65713701D01*
X8305803Y65715966D01*
X8105187Y65718230D01*
X8105187Y65925028D01*
X8105187Y66131825D01*
X8510797Y66131825D01*
X8916407Y66131825D01*
X8914139Y66328217D01*
X8911872Y66524609D01*
X8310026Y66526602D01*
X7708181Y66528596D01*
X7708181Y66131825D01*
X6889137Y66131825D01*
X6886870Y66328217D01*
X6884602Y66524609D01*
X6485483Y66526671D01*
X6086365Y66528733D01*
X6086365Y66330279D01*
X6086365Y66131825D01*
X4456413Y66131825D01*
X4454146Y66328217D01*
X4451879Y66524609D01*
X4255487Y66526876D01*
X4059095Y66529144D01*
X4059095Y66330485D01*
X4059095Y66131825D01*
X1615002Y66131825D01*
X1613701Y66524609D01*
X1417309Y66526876D01*
X1220917Y66529144D01*
X1220917Y66326261D01*
X1220917Y66123378D01*
X1018190Y66123378D01*
X815464Y66123378D01*
X815464Y65920651D01*
X815464Y65717924D01*
X608513Y65717924D01*
X401563Y65717924D01*
X401332Y65916428D01*
X401320Y65927258D01*
X401251Y66000268D01*
X401191Y66082894D01*
X401144Y66168899D01*
X401113Y66252048D01*
X401102Y66326105D01*
X401102Y66336610D01*
X401117Y66412956D01*
X401150Y66497822D01*
X401200Y66584854D01*
X401262Y66667701D01*
X401332Y66740006D01*
X401563Y66942733D01*
X604290Y66942733D01*
X807017Y66942733D01*
X807017Y67145460D01*
X807017Y67348187D01*
X1009899Y67348187D01*
X1212782Y67348187D01*
X1210514Y67544579D01*
X1208247Y67740971D01*
X807769Y67743034D01*
X727623Y67743496D01*
X652355Y67744026D01*
X584045Y67744604D01*
X524351Y67745211D01*
X474926Y67745828D01*
X437428Y67746436D01*
X413512Y67747018D01*
X404834Y67747554D01*
X404097Y67755811D01*
X403390Y67779629D01*
X402758Y67817572D01*
X402209Y67868224D01*
X401752Y67930169D01*
X401396Y68001990D01*
X401149Y68082271D01*
X401047Y68150549D01*
X1220917Y68150549D01*
X1220917Y67952095D01*
X1220917Y67753641D01*
X1423644Y67753641D01*
X1626371Y67753641D01*
X1626371Y67348187D01*
X1626371Y66942733D01*
X1824756Y66942733D01*
X2023142Y66942733D01*
X2437279Y66942733D01*
X2437279Y66537279D01*
X3041118Y66537279D01*
X3644957Y66537279D01*
X4464549Y66537279D01*
X4866176Y66537279D01*
X5267802Y66537279D01*
X5680911Y66537279D01*
X5879414Y66537279D01*
X6077918Y66537279D01*
X6897273Y66537279D01*
X7298659Y66537279D01*
X7700045Y66537279D01*
X8924542Y66537279D01*
X9127269Y66537279D01*
X9329996Y66537279D01*
X9329996Y66334552D01*
X9329996Y66131825D01*
X9532723Y66131825D01*
X9735450Y66131825D01*
X9735450Y65929098D01*
X9735450Y65726371D01*
X9933904Y65726371D01*
X10132358Y65726371D01*
X10130296Y66125490D01*
X10128234Y66524609D01*
X9927771Y66526873D01*
X9727308Y66529137D01*
X9725044Y66729600D01*
X9722780Y66930063D01*
X9323661Y66932125D01*
X8924542Y66934187D01*
X8924542Y66735733D01*
X8924542Y66537279D01*
X7700045Y66537279D01*
X7697777Y66733671D01*
X7695510Y66930063D01*
X7296391Y66932125D01*
X6897273Y66934187D01*
X6897273Y66735733D01*
X6897273Y66537279D01*
X6077918Y66537279D01*
X6077918Y66740006D01*
X6077918Y66942733D01*
X6280800Y66942733D01*
X6483683Y66942733D01*
X8113634Y66942733D01*
X8514815Y66942733D01*
X8915996Y66942733D01*
X8913934Y67341852D01*
X8911872Y67740971D01*
X8715480Y67743238D01*
X8519088Y67745506D01*
X8519088Y67542623D01*
X8519088Y67339740D01*
X8316361Y67339740D01*
X8113634Y67339740D01*
X8113634Y67141237D01*
X8113634Y66942733D01*
X6483683Y66942733D01*
X6481416Y67139125D01*
X6479148Y67335517D01*
X6080030Y67337579D01*
X5680911Y67339641D01*
X5680911Y66938460D01*
X5680911Y66537279D01*
X5267802Y66537279D01*
X5266989Y66737895D01*
X5266973Y66741909D01*
X5266745Y66815484D01*
X5266586Y66898984D01*
X5266504Y66985841D01*
X5266504Y67069485D01*
X5266593Y67143348D01*
X5267010Y67348187D01*
X5469687Y67348187D01*
X5672365Y67348187D01*
X5670303Y67747306D01*
X5670270Y67753641D01*
X6086365Y67753641D01*
X6285024Y67753641D01*
X6483683Y67753641D01*
X6481416Y67950033D01*
X6479148Y68146425D01*
X6282756Y68148692D01*
X6086365Y68150959D01*
X6086365Y67952300D01*
X6086365Y67753641D01*
X5670270Y67753641D01*
X5668240Y68146425D01*
X5269122Y68148487D01*
X4870003Y68150549D01*
X4870003Y67947872D01*
X4870003Y67753641D01*
X4870003Y67745194D01*
X4667276Y67745194D01*
X4464549Y67745194D01*
X4464549Y67546691D01*
X4464549Y67348187D01*
X4667276Y67348187D01*
X4870003Y67348187D01*
X4870003Y67141237D01*
X4870003Y66934286D01*
X4667276Y66934286D01*
X4464549Y66934286D01*
X4464549Y66735783D01*
X4464549Y66537279D01*
X3644957Y66537279D01*
X3642964Y67139125D01*
X3640971Y67740971D01*
X3039125Y67742964D01*
X2437279Y67744957D01*
X2437279Y67141118D01*
X2437279Y66942733D01*
X2023142Y66942733D01*
X2021148Y67544579D01*
X2020456Y67753641D01*
X4059095Y67753641D01*
X4257754Y67753641D01*
X4456413Y67753641D01*
X4454146Y67950033D01*
X4451879Y68146425D01*
X4255487Y68148692D01*
X4059095Y68150959D01*
X4059095Y67952300D01*
X4059095Y67753641D01*
X2020456Y67753641D01*
X2019155Y68146425D01*
X1620036Y68148487D01*
X1220917Y68150549D01*
X401047Y68150549D01*
X401019Y68169596D01*
X401015Y68262547D01*
X401146Y68359710D01*
X401563Y68564549D01*
X604445Y68564549D01*
X807328Y68564549D01*
X805060Y68760941D01*
X802793Y68957332D01*
X602470Y68959596D01*
X402146Y68961860D01*
X399743Y69166547D01*
X399706Y69169711D01*
X399090Y69244588D01*
X398786Y69329352D01*
X398792Y69417314D01*
X399110Y69501784D01*
X399738Y69576072D01*
X402038Y69772365D01*
X815464Y69772365D01*
X815464Y69371184D01*
X815464Y68970003D01*
X1216644Y68970003D01*
X1617825Y68970003D01*
X2031825Y68970003D01*
X2031825Y68763003D01*
X2031825Y68159095D01*
X2433211Y68159095D01*
X2834598Y68159095D01*
X2832330Y68355487D01*
X2830063Y68551879D01*
X2629448Y68554143D01*
X2428832Y68556408D01*
X2428832Y68564549D01*
X2842733Y68564549D01*
X3041392Y68564549D01*
X3240052Y68564549D01*
X3237784Y68760941D01*
X3235517Y68957332D01*
X3039125Y68959600D01*
X2842733Y68961867D01*
X2842733Y68763208D01*
X2842733Y68564549D01*
X2428832Y68564549D01*
X2428832Y68763205D01*
X2428832Y68970003D01*
X2631715Y68970003D01*
X2834598Y68970003D01*
X2832330Y69166395D01*
X2830063Y69362786D01*
X2430944Y69364849D01*
X2031825Y69366911D01*
X2031825Y68970003D01*
X1617825Y68970003D01*
X1615763Y69369122D01*
X1615730Y69375457D01*
X2842733Y69375457D01*
X3045460Y69375457D01*
X3248187Y69375457D01*
X3248187Y69172730D01*
X3248187Y68970003D01*
X3450914Y68970003D01*
X3653641Y68970003D01*
X3653641Y68767276D01*
X3653641Y68564549D01*
X4663208Y68564549D01*
X5672775Y68564549D01*
X5670508Y68760941D01*
X5668240Y68957332D01*
X5267763Y68959395D01*
X5187658Y68959864D01*
X5112361Y68960413D01*
X5044013Y68961020D01*
X4984271Y68961665D01*
X4934792Y68962328D01*
X4897234Y68962991D01*
X4873255Y68963631D01*
X4864513Y68964231D01*
X4864117Y68970003D01*
X5680911Y68970003D01*
X5883638Y68970003D01*
X6086365Y68970003D01*
X6086365Y68767276D01*
X6086365Y68564549D01*
X6289092Y68564549D01*
X6491819Y68564549D01*
X6491819Y68361822D01*
X6491819Y68159095D01*
X6690322Y68159095D01*
X6888826Y68159095D01*
X6888826Y68361822D01*
X6888826Y68564549D01*
X7095776Y68564549D01*
X7302727Y68564549D01*
X7302727Y67956368D01*
X7302727Y67753641D01*
X7302727Y67348187D01*
X7501626Y67348187D01*
X7700526Y67348187D01*
X7699713Y67548802D01*
X7699697Y67552817D01*
X7699469Y67626392D01*
X7699310Y67709892D01*
X7699268Y67753641D01*
X8924542Y67753641D01*
X9123202Y67753641D01*
X9321861Y67753641D01*
X9319593Y67950033D01*
X9317326Y68146425D01*
X9120934Y68148692D01*
X8924542Y68150959D01*
X8924542Y67952300D01*
X8924542Y67753641D01*
X7699268Y67753641D01*
X7699227Y67796749D01*
X7699228Y67880393D01*
X7699317Y67954256D01*
X7699734Y68159095D01*
X7902411Y68159095D01*
X8105088Y68159095D01*
X8519088Y68159095D01*
X8717748Y68159095D01*
X8916407Y68159095D01*
X8914139Y68355487D01*
X8911872Y68551879D01*
X8715480Y68554146D01*
X8519088Y68556413D01*
X8519088Y68357754D01*
X8519088Y68159095D01*
X8105088Y68159095D01*
X8103026Y68558214D01*
X8100964Y68957332D01*
X7492783Y68959233D01*
X7440662Y68959394D01*
X7334050Y68959716D01*
X7228442Y68960023D01*
X7125824Y68960311D01*
X7028182Y68960575D01*
X6937503Y68960809D01*
X6855773Y68961008D01*
X6784979Y68961167D01*
X6727106Y68961281D01*
X6684140Y68961345D01*
X6483677Y68961556D01*
X6481413Y69162171D01*
X6479148Y69362786D01*
X6080030Y69364849D01*
X5680911Y69366911D01*
X5680911Y69168457D01*
X5680911Y68970003D01*
X4864117Y68970003D01*
X4863993Y68971806D01*
X4863468Y68995242D01*
X4862984Y69033430D01*
X4862547Y69085255D01*
X4862160Y69149604D01*
X4861825Y69225361D01*
X4861547Y69311414D01*
X4861330Y69406648D01*
X4861176Y69509947D01*
X4861089Y69620199D01*
X4861073Y69736289D01*
X4861091Y69772775D01*
X5275457Y69772775D01*
X5275457Y69574116D01*
X5275457Y69375457D01*
X5474116Y69375457D01*
X5672775Y69375457D01*
X5670508Y69571849D01*
X5668240Y69768240D01*
X5471849Y69770508D01*
X5275457Y69772775D01*
X4861091Y69772775D01*
X4861132Y69857103D01*
X4861268Y69981526D01*
X4861556Y70186365D01*
X5064439Y70186365D01*
X5267321Y70186365D01*
X5265054Y70382756D01*
X5262786Y70579148D01*
X5062324Y70581413D01*
X4861861Y70583677D01*
X4859597Y70784139D01*
X4857332Y70984602D01*
X4660941Y70986870D01*
X4464549Y70989137D01*
X4464549Y70786254D01*
X4464549Y70591819D01*
X4464549Y70583372D01*
X4261822Y70583372D01*
X4059095Y70583372D01*
X4059095Y70380645D01*
X4059095Y70186365D01*
X4059095Y70177918D01*
X3854256Y70177501D01*
X3850159Y70177493D01*
X3775512Y70177409D01*
X3691485Y70177414D01*
X3604645Y70177502D01*
X3521561Y70177665D01*
X3448802Y70177897D01*
X3248187Y70178710D01*
X3248187Y69975587D01*
X3248187Y69772464D01*
X3045460Y69772464D01*
X2842733Y69772464D01*
X2842733Y69573960D01*
X2842733Y69375457D01*
X1615730Y69375457D01*
X1613701Y69768240D01*
X1214582Y69770303D01*
X815464Y69772365D01*
X402038Y69772365D01*
X402138Y69780911D01*
X604459Y69780911D01*
X806780Y69780911D01*
X805437Y70186365D01*
X1626371Y70186365D01*
X1825031Y70186365D01*
X2023690Y70186365D01*
X2021422Y70382756D01*
X2019155Y70579148D01*
X1822763Y70581416D01*
X1626371Y70583683D01*
X1626371Y70385024D01*
X1626371Y70186365D01*
X805437Y70186365D01*
X804786Y70382756D01*
X804094Y70591819D01*
X2031825Y70591819D01*
X2230485Y70591819D01*
X2429144Y70591819D01*
X3248187Y70591819D01*
X3649573Y70591819D01*
X4050959Y70591819D01*
X4048692Y70788210D01*
X4046425Y70984602D01*
X3647306Y70986664D01*
X3248187Y70988726D01*
X3248187Y70790273D01*
X3248187Y70591819D01*
X2429144Y70591819D01*
X2426876Y70788210D01*
X2424609Y70984602D01*
X2228217Y70986870D01*
X2031825Y70989137D01*
X2031825Y70790478D01*
X2031825Y70591819D01*
X804094Y70591819D01*
X802793Y70984602D01*
X602178Y70986867D01*
X401563Y70989131D01*
X401563Y71195929D01*
X401563Y71402727D01*
X608513Y71402727D01*
X815464Y71402727D01*
X815464Y71200000D01*
X815464Y70997273D01*
X1419577Y70997273D01*
X2023690Y70997273D01*
X2021422Y71193664D01*
X2019155Y71390056D01*
X1816428Y71391821D01*
X1814552Y71391837D01*
X1740467Y71392407D01*
X1656632Y71392937D01*
X1569709Y71393391D01*
X1486358Y71393734D01*
X1413239Y71393932D01*
X1212776Y71394280D01*
X1212772Y71394591D01*
X2842733Y71394591D01*
X2842733Y71195932D01*
X2842733Y70997273D01*
X3041392Y70997273D01*
X3240052Y70997273D01*
X3237784Y71193664D01*
X3235517Y71390056D01*
X3039125Y71392324D01*
X2842733Y71394591D01*
X1212772Y71394591D01*
X1210512Y71594895D01*
X1208247Y71795510D01*
X1007784Y71797774D01*
X807322Y71800039D01*
X807230Y71808181D01*
X2031825Y71808181D01*
X2433006Y71808181D01*
X2834187Y71808181D01*
X2832125Y72207299D01*
X2832092Y72213634D01*
X3248187Y72213634D01*
X3450914Y72213634D01*
X3653641Y72213634D01*
X3653641Y71808181D01*
X3653641Y71402727D01*
X3856368Y71402727D01*
X4059095Y71402727D01*
X4059095Y71200000D01*
X4059095Y70997273D01*
X4257599Y70997273D01*
X4456102Y70997273D01*
X4456102Y71200000D01*
X4456102Y71402727D01*
X4658985Y71402727D01*
X4861867Y71402727D01*
X4859600Y71599118D01*
X4857332Y71795510D01*
X4656870Y71797774D01*
X4456407Y71800039D01*
X4454143Y72000501D01*
X4451879Y72200964D01*
X4251416Y72203228D01*
X4050953Y72205493D01*
X4048689Y72405955D01*
X4046425Y72606418D01*
X3647306Y72608480D01*
X3248187Y72610542D01*
X3248187Y72412088D01*
X3248187Y72213634D01*
X2832092Y72213634D01*
X2830063Y72606418D01*
X2430944Y72608480D01*
X2031825Y72610542D01*
X2031825Y72209361D01*
X2031825Y71808181D01*
X807230Y71808181D01*
X805057Y72000501D01*
X802793Y72200964D01*
X602178Y72203229D01*
X401563Y72205493D01*
X401563Y72412291D01*
X401563Y72619088D01*
X811240Y72619088D01*
X1220917Y72619088D01*
X1220917Y72416361D01*
X1220917Y72213634D01*
X1419371Y72213634D01*
X1617825Y72213634D01*
X1615763Y72612753D01*
X1615730Y72619088D01*
X2842733Y72619088D01*
X3041392Y72619088D01*
X3240052Y72619088D01*
X4870003Y72619088D01*
X4870003Y72412294D01*
X4870003Y71808181D01*
X5068506Y71808181D01*
X5267010Y71808181D01*
X5267010Y72010907D01*
X5267010Y72213634D01*
X5473960Y72213634D01*
X5680911Y72213634D01*
X5680911Y72006684D01*
X5680911Y71799734D01*
X5478184Y71799734D01*
X5275457Y71799734D01*
X5275457Y71597007D01*
X5275457Y71402727D01*
X5275457Y71394280D01*
X5072730Y71394280D01*
X4870003Y71394280D01*
X4870003Y71195776D01*
X4870003Y70997273D01*
X5275457Y70997273D01*
X5680911Y70997273D01*
X5680911Y70591819D01*
X5680911Y70186365D01*
X5879810Y70186365D01*
X6078710Y70186365D01*
X6077897Y70386980D01*
X6077881Y70390994D01*
X6077653Y70464569D01*
X6077494Y70548069D01*
X6077412Y70634926D01*
X6077412Y70718570D01*
X6077501Y70792434D01*
X6077918Y70997273D01*
X6284868Y70997273D01*
X6491819Y70997273D01*
X6491819Y70587595D01*
X6491819Y70177918D01*
X6289092Y70177918D01*
X6086365Y70177918D01*
X6086365Y69979414D01*
X6086365Y69780911D01*
X6289092Y69780911D01*
X6491819Y69780911D01*
X6491819Y69578184D01*
X6491819Y69375457D01*
X6893049Y69375457D01*
X7294280Y69375457D01*
X7708181Y69375457D01*
X7906840Y69375457D01*
X8105499Y69375457D01*
X8103231Y69571849D01*
X8100964Y69768240D01*
X7904572Y69770508D01*
X7708181Y69772775D01*
X7708181Y69574116D01*
X7708181Y69375457D01*
X7294280Y69375457D01*
X7294280Y69578184D01*
X7294280Y69780911D01*
X7497162Y69780911D01*
X7700045Y69780911D01*
X8113634Y69780911D01*
X8721815Y69780911D01*
X9329996Y69780911D01*
X9329996Y69573960D01*
X9329996Y69375457D01*
X9329996Y69367010D01*
X9127269Y69367010D01*
X8924542Y69367010D01*
X8924542Y68965779D01*
X8924542Y68564549D01*
X9325773Y68564549D01*
X9727003Y68564549D01*
X11762720Y68564549D01*
X11961379Y68564549D01*
X12160038Y68564549D01*
X12157771Y68760941D01*
X12155503Y68957332D01*
X11959112Y68959600D01*
X11762720Y68961867D01*
X11762720Y68763208D01*
X11762720Y68564549D01*
X9727003Y68564549D01*
X9727003Y68767276D01*
X9727003Y68970003D01*
X10132613Y68970003D01*
X10538222Y68970003D01*
X10951812Y68970003D01*
X11353198Y68970003D01*
X11754584Y68970003D01*
X11752317Y69166395D01*
X11750049Y69362786D01*
X11350931Y69364849D01*
X10951812Y69366911D01*
X10951812Y69168457D01*
X10951812Y68970003D01*
X10538222Y68970003D01*
X10535955Y69166395D01*
X10533688Y69362786D01*
X10330961Y69364551D01*
X10329120Y69364567D01*
X10255026Y69365137D01*
X10171163Y69365667D01*
X10084197Y69366121D01*
X10000794Y69366464D01*
X9927618Y69366663D01*
X9727003Y69367010D01*
X9727003Y69375457D01*
X12168174Y69375457D01*
X12366833Y69375457D01*
X12565492Y69375457D01*
X12563225Y69571849D01*
X12560957Y69768240D01*
X12364566Y69770508D01*
X12168174Y69772775D01*
X12168174Y69574116D01*
X12168174Y69375457D01*
X9727003Y69375457D01*
X9727003Y69573960D01*
X9727003Y69780911D01*
X9929681Y69780911D01*
X10132358Y69780911D01*
X10951812Y69780911D01*
X11150471Y69780911D01*
X11349130Y69780911D01*
X11346863Y69977303D01*
X11344596Y70173694D01*
X11148204Y70175962D01*
X10951812Y70178229D01*
X10951812Y69979570D01*
X10951812Y69780911D01*
X10132358Y69780911D01*
X10130296Y70180030D01*
X10130263Y70186365D01*
X10546358Y70186365D01*
X10745017Y70186365D01*
X10943676Y70186365D01*
X11357266Y70186365D01*
X11555925Y70186365D01*
X11754584Y70186365D01*
X11752317Y70382756D01*
X11750049Y70579148D01*
X11553658Y70581416D01*
X11357266Y70583683D01*
X11357266Y70385024D01*
X11357266Y70186365D01*
X10943676Y70186365D01*
X10941409Y70382756D01*
X10939142Y70579148D01*
X10742750Y70581416D01*
X10546358Y70583683D01*
X10546358Y70385024D01*
X10546358Y70186365D01*
X10130263Y70186365D01*
X10128234Y70579148D01*
X9931842Y70581416D01*
X9735450Y70583683D01*
X9735450Y70380800D01*
X9735450Y70177918D01*
X9528653Y70177918D01*
X9321855Y70177918D01*
X9319590Y70378533D01*
X9317326Y70579148D01*
X9120934Y70581416D01*
X8924542Y70583683D01*
X8924542Y70380800D01*
X8924542Y70177918D01*
X8719704Y70177501D01*
X8715607Y70177493D01*
X8640960Y70177409D01*
X8556932Y70177414D01*
X8470092Y70177502D01*
X8387008Y70177665D01*
X8314250Y70177897D01*
X8113634Y70178710D01*
X8113634Y69979810D01*
X8113634Y69780911D01*
X7700045Y69780911D01*
X7697777Y69977303D01*
X7695510Y70173694D01*
X7295032Y70175757D01*
X7214886Y70176220D01*
X7139618Y70176750D01*
X7071308Y70177328D01*
X7011614Y70177934D01*
X6962189Y70178551D01*
X6924691Y70179160D01*
X6900775Y70179741D01*
X6892097Y70180277D01*
X6891360Y70188534D01*
X6890653Y70212352D01*
X6890021Y70250295D01*
X6889472Y70300947D01*
X6889016Y70362892D01*
X6888659Y70434713D01*
X6888412Y70514994D01*
X6888298Y70591819D01*
X7302727Y70591819D01*
X7703957Y70591819D01*
X8105187Y70591819D01*
X8105187Y70794546D01*
X8105187Y70989137D01*
X10951812Y70989137D01*
X10951812Y70790478D01*
X10951812Y70591819D01*
X11150471Y70591819D01*
X11349130Y70591819D01*
X11346863Y70788210D01*
X11344596Y70984602D01*
X11148204Y70986870D01*
X10951812Y70989137D01*
X8105187Y70989137D01*
X8105187Y70997273D01*
X9118978Y70997273D01*
X10132769Y70997273D01*
X10130501Y71193664D01*
X10128234Y71390056D01*
X9727756Y71392119D01*
X9647670Y71392590D01*
X9572361Y71393147D01*
X9503995Y71393767D01*
X9444232Y71394430D01*
X9394728Y71395114D01*
X9357144Y71395800D01*
X9333137Y71396467D01*
X9324365Y71397095D01*
X9323960Y71402727D01*
X10951812Y71402727D01*
X11154539Y71402727D01*
X11357266Y71402727D01*
X11357266Y71200000D01*
X11357266Y70997273D01*
X11555769Y70997273D01*
X11754273Y70997273D01*
X11754273Y71200000D01*
X11754273Y71402727D01*
X11961223Y71402727D01*
X12168174Y71402727D01*
X12168174Y70997273D01*
X12168174Y70591819D01*
X12367074Y70591819D01*
X12565973Y70591819D01*
X12565160Y70792434D01*
X12565144Y70796448D01*
X12564916Y70870023D01*
X12564757Y70953523D01*
X12564675Y71040380D01*
X12564675Y71124024D01*
X12564764Y71197888D01*
X12565181Y71402727D01*
X12768063Y71402727D01*
X12970946Y71402727D01*
X12968679Y71599118D01*
X12966411Y71795510D01*
X12560957Y71797372D01*
X12507751Y71797611D01*
X12415870Y71798001D01*
X12323456Y71798367D01*
X12233413Y71798699D01*
X12148646Y71798987D01*
X12072058Y71799220D01*
X12006555Y71799389D01*
X11955041Y71799484D01*
X11754579Y71799734D01*
X11752314Y72000349D01*
X11750049Y72200964D01*
X11553658Y72203231D01*
X11357266Y72205499D01*
X11357266Y72002616D01*
X11357266Y71808181D01*
X11357266Y71799734D01*
X11154539Y71799734D01*
X10951812Y71799734D01*
X10951812Y71601230D01*
X10951812Y71402727D01*
X9323960Y71402727D01*
X9323741Y71405765D01*
X9323074Y71429684D01*
X9322388Y71467189D01*
X9321704Y71516624D01*
X9321041Y71576330D01*
X9320421Y71644648D01*
X9319863Y71719919D01*
X9319389Y71800486D01*
X9317326Y72200964D01*
X9120934Y72203231D01*
X8924542Y72205499D01*
X8924542Y72002616D01*
X8924542Y71799734D01*
X8719704Y71799317D01*
X8715607Y71799309D01*
X8640960Y71799225D01*
X8556932Y71799230D01*
X8470092Y71799317D01*
X8387008Y71799481D01*
X8314250Y71799713D01*
X8113634Y71800526D01*
X8113634Y71597403D01*
X8113634Y71394280D01*
X7910907Y71394280D01*
X7708181Y71394280D01*
X7708181Y71191553D01*
X7708181Y70988826D01*
X7505454Y70988826D01*
X7302727Y70988826D01*
X7302727Y70790322D01*
X7302727Y70591819D01*
X6888298Y70591819D01*
X6888282Y70602319D01*
X6888278Y70695271D01*
X6888409Y70792434D01*
X6888826Y70997273D01*
X7091503Y70997273D01*
X7294180Y70997273D01*
X7292118Y71396391D01*
X7290056Y71795510D01*
X6686921Y71797504D01*
X6605838Y71797799D01*
X6510461Y71798217D01*
X6421201Y71798687D01*
X6339404Y71799197D01*
X6266418Y71799736D01*
X6203590Y71800293D01*
X6152267Y71800857D01*
X6113797Y71801417D01*
X6089527Y71801962D01*
X6080803Y71802480D01*
X6080165Y71811161D01*
X6079485Y71835091D01*
X6078787Y71872609D01*
X6078093Y71922054D01*
X6077421Y71981768D01*
X6076795Y72050093D01*
X6076233Y72125370D01*
X6075757Y72205940D01*
X6073694Y72606418D01*
X5870967Y72608182D01*
X5869091Y72608199D01*
X5795006Y72608769D01*
X5711172Y72609298D01*
X5624249Y72609752D01*
X5540897Y72610096D01*
X5467778Y72610294D01*
X5267316Y72610641D01*
X5267221Y72619088D01*
X6086365Y72619088D01*
X6289092Y72619088D01*
X6491819Y72619088D01*
X6491819Y72416361D01*
X6491819Y72213634D01*
X6893205Y72213634D01*
X7294591Y72213634D01*
X7708181Y72213634D01*
X7906840Y72213634D01*
X8105499Y72213634D01*
X8519088Y72213634D01*
X8717748Y72213634D01*
X8916407Y72213634D01*
X9735450Y72213634D01*
X9735450Y72209567D01*
X9735450Y71808181D01*
X9933904Y71808181D01*
X10132358Y71808181D01*
X10130296Y72207299D01*
X10128234Y72606418D01*
X9931842Y72608685D01*
X9735450Y72610953D01*
X9735450Y72213634D01*
X8916407Y72213634D01*
X8914139Y72410026D01*
X8911872Y72606418D01*
X8715480Y72608685D01*
X8519088Y72610953D01*
X8519088Y72412294D01*
X8519088Y72213634D01*
X8105499Y72213634D01*
X8103231Y72410026D01*
X8100964Y72606418D01*
X7904572Y72608685D01*
X7708181Y72610953D01*
X7708181Y72412294D01*
X7708181Y72213634D01*
X7294591Y72213634D01*
X7292324Y72410026D01*
X7290056Y72606418D01*
X7089593Y72608682D01*
X6889131Y72610946D01*
X6886866Y72811409D01*
X6884602Y73011872D01*
X6485483Y73013934D01*
X6086365Y73015996D01*
X6086365Y72817542D01*
X6086365Y72619088D01*
X5267221Y72619088D01*
X5265051Y72811257D01*
X5262786Y73011872D01*
X5066395Y73014139D01*
X4870003Y73016407D01*
X8113634Y73016407D01*
X8113634Y72817748D01*
X8113634Y72619088D01*
X8312294Y72619088D01*
X8510953Y72619088D01*
X8508685Y72815480D01*
X8506418Y73011872D01*
X8310026Y73014139D01*
X8113634Y73016407D01*
X4870003Y73016407D01*
X4870003Y72619088D01*
X3240052Y72619088D01*
X3237784Y72815480D01*
X3235517Y73011872D01*
X3039125Y73014139D01*
X2842733Y73016407D01*
X2842733Y72817748D01*
X2842733Y72619088D01*
X1615730Y72619088D01*
X1613701Y73011872D01*
X1413086Y73014137D01*
X1212470Y73016401D01*
X1212289Y73214752D01*
X1212263Y73247885D01*
X1212227Y73308410D01*
X1212194Y73381054D01*
X1212177Y73429996D01*
X1626371Y73429996D01*
X1825031Y73429996D01*
X2023690Y73429996D01*
X2437279Y73429996D01*
X2437279Y73425928D01*
X2437279Y73024542D01*
X2635733Y73024542D01*
X2834187Y73024542D01*
X4059095Y73024542D01*
X4257549Y73024542D01*
X4456003Y73024542D01*
X5275457Y73024542D01*
X5474116Y73024542D01*
X5672775Y73024542D01*
X7708181Y73024542D01*
X7906840Y73024542D01*
X8105499Y73024542D01*
X8519088Y73024542D01*
X8721815Y73024542D01*
X8924542Y73024542D01*
X8924542Y72821815D01*
X8924542Y72619088D01*
X9325773Y72619088D01*
X9727003Y72619088D01*
X10140904Y72619088D01*
X10343631Y72619088D01*
X10546358Y72619088D01*
X10546358Y72416361D01*
X10546358Y72213634D01*
X10947744Y72213634D01*
X11349130Y72213634D01*
X11346863Y72410026D01*
X11344596Y72606418D01*
X11143980Y72608683D01*
X10943365Y72610947D01*
X10943365Y72619088D01*
X11357266Y72619088D01*
X11555925Y72619088D01*
X11754584Y72619088D01*
X11752317Y72815480D01*
X11750049Y73011872D01*
X11553658Y73014139D01*
X11357266Y73016407D01*
X11357266Y72817748D01*
X11357266Y72619088D01*
X10943365Y72619088D01*
X10943365Y72817745D01*
X10943365Y73024542D01*
X11146248Y73024542D01*
X11349130Y73024542D01*
X11346863Y73220934D01*
X11344596Y73417326D01*
X10945477Y73419388D01*
X10546358Y73421450D01*
X10546358Y73218773D01*
X10546358Y73024542D01*
X10546358Y73016095D01*
X10343631Y73016095D01*
X10140904Y73016095D01*
X10140904Y72817592D01*
X10140904Y72619088D01*
X9727003Y72619088D01*
X9727003Y72821815D01*
X9727003Y73024542D01*
X9929886Y73024542D01*
X10132769Y73024542D01*
X10130501Y73220934D01*
X10128234Y73417326D01*
X9925507Y73419090D01*
X9923630Y73419107D01*
X9849546Y73419677D01*
X9765711Y73420206D01*
X9678788Y73420660D01*
X9595437Y73421004D01*
X9522317Y73421202D01*
X9321855Y73421549D01*
X9319590Y73622165D01*
X9317326Y73822780D01*
X9120934Y73825047D01*
X8924542Y73827315D01*
X8924542Y73624432D01*
X8924542Y73421549D01*
X8721815Y73421549D01*
X8519088Y73421549D01*
X8519088Y73223046D01*
X8519088Y73024542D01*
X8105499Y73024542D01*
X8103231Y73220934D01*
X8100964Y73417326D01*
X7904572Y73419593D01*
X7708181Y73421861D01*
X7708181Y73223202D01*
X7708181Y73024542D01*
X5672775Y73024542D01*
X5670508Y73220934D01*
X5668240Y73417326D01*
X5471849Y73419593D01*
X5275457Y73421861D01*
X5275457Y73223202D01*
X5275457Y73024542D01*
X4456003Y73024542D01*
X4453941Y73423661D01*
X4451879Y73822780D01*
X4255487Y73825047D01*
X4059095Y73827315D01*
X4059095Y73425928D01*
X4059095Y73024542D01*
X2834187Y73024542D01*
X2832125Y73423661D01*
X2830063Y73822780D01*
X2633671Y73825047D01*
X2437279Y73827315D01*
X2437279Y73429996D01*
X2023690Y73429996D01*
X2021422Y73626388D01*
X2019155Y73822780D01*
X1822763Y73825047D01*
X1626371Y73827315D01*
X1626371Y73628655D01*
X1626371Y73429996D01*
X1212177Y73429996D01*
X1212166Y73462985D01*
X1212142Y73551375D01*
X1212124Y73643395D01*
X1212112Y73736214D01*
X1212108Y73827003D01*
X1212110Y73888318D01*
X1212119Y73981137D01*
X1212136Y74074228D01*
X1212158Y74164731D01*
X1212180Y74232769D01*
X2031825Y74232769D01*
X2031825Y74034109D01*
X2031825Y73835450D01*
X2230485Y73835450D01*
X2429144Y73835450D01*
X2426876Y74031842D01*
X2424609Y74228234D01*
X2228217Y74230501D01*
X2031825Y74232769D01*
X1212180Y74232769D01*
X1212185Y74249783D01*
X1212216Y74326525D01*
X1212252Y74392094D01*
X1212289Y74443631D01*
X1212470Y74646358D01*
X2230329Y74646358D01*
X3248187Y74646358D01*
X3248187Y74240904D01*
X3248187Y73835450D01*
X3649299Y73835450D01*
X4050411Y73835450D01*
X4464549Y73835450D01*
X4667276Y73835450D01*
X4870003Y73835450D01*
X4870003Y73632723D01*
X4870003Y73429996D01*
X5068903Y73429996D01*
X5267802Y73429996D01*
X5266989Y73630612D01*
X5266973Y73634626D01*
X5266745Y73708201D01*
X5266586Y73791701D01*
X5266504Y73878558D01*
X5266504Y73962202D01*
X5266593Y74036065D01*
X5267010Y74240904D01*
X5469893Y74240904D01*
X5672775Y74240904D01*
X5670508Y74437296D01*
X5668240Y74633688D01*
X5465513Y74635452D01*
X5463637Y74635468D01*
X5389552Y74636039D01*
X5305718Y74636568D01*
X5218795Y74637022D01*
X5135443Y74637366D01*
X5062324Y74637564D01*
X4861862Y74637911D01*
X4859597Y74838526D01*
X4857332Y75039142D01*
X4660941Y75041409D01*
X4464549Y75043676D01*
X4464549Y74439563D01*
X4464549Y73835450D01*
X4050411Y73835450D01*
X4048418Y74437296D01*
X4046425Y75039142D01*
X3846101Y75041406D01*
X3645778Y75043669D01*
X3645682Y75051812D01*
X4059095Y75051812D01*
X4257599Y75051812D01*
X4456102Y75051812D01*
X4456102Y75254539D01*
X4456102Y75457266D01*
X4663052Y75457266D01*
X4870003Y75457266D01*
X4870003Y75254539D01*
X4870003Y75051812D01*
X5068506Y75051812D01*
X5267010Y75051812D01*
X5680911Y75051812D01*
X5879570Y75051812D01*
X6078229Y75051812D01*
X6075962Y75248204D01*
X6073694Y75444596D01*
X5877303Y75446863D01*
X5680911Y75449130D01*
X5680911Y75250471D01*
X5680911Y75051812D01*
X5267010Y75051812D01*
X5267010Y75254539D01*
X5267010Y75457266D01*
X5469893Y75457266D01*
X5672775Y75457266D01*
X5670508Y75653658D01*
X5668240Y75850049D01*
X5465513Y75851814D01*
X5463637Y75851830D01*
X5389552Y75852400D01*
X5305718Y75852930D01*
X5218795Y75853384D01*
X5135443Y75853728D01*
X5062324Y75853926D01*
X4861862Y75854273D01*
X4859597Y76054888D01*
X4857332Y76255503D01*
X4660941Y76257771D01*
X4464549Y76260038D01*
X4464549Y76057156D01*
X4464549Y75854273D01*
X4261822Y75854273D01*
X4059095Y75854273D01*
X4059095Y75453042D01*
X4059095Y75051812D01*
X3645682Y75051812D01*
X3643374Y75248356D01*
X3643338Y75251520D01*
X3642722Y75326397D01*
X3642417Y75411162D01*
X3642424Y75499123D01*
X3642741Y75583593D01*
X3643370Y75657881D01*
X3645769Y75862720D01*
X3848209Y75862720D01*
X4050648Y75862720D01*
X4050648Y76065447D01*
X4050648Y76268174D01*
X4253771Y76268174D01*
X4456894Y76268174D01*
X4456082Y76468789D01*
X4456065Y76472803D01*
X4455837Y76546378D01*
X4455678Y76629879D01*
X4455596Y76716735D01*
X4455596Y76800380D01*
X4455685Y76874243D01*
X4456102Y77079082D01*
X4861712Y77079082D01*
X5267321Y77079082D01*
X5265054Y77275473D01*
X5262786Y77471865D01*
X5062171Y77474130D01*
X4861556Y77476394D01*
X4861556Y77683192D01*
X4861556Y77889990D01*
X5676687Y77889990D01*
X6491819Y77889990D01*
X6491819Y77480312D01*
X6491819Y77070635D01*
X6285021Y77070635D01*
X6078224Y77070635D01*
X6075959Y77271250D01*
X6073694Y77471865D01*
X5877303Y77474133D01*
X5680911Y77476400D01*
X5680911Y77273517D01*
X5680911Y77070635D01*
X5478184Y77070635D01*
X5275457Y77070635D01*
X5275457Y76867908D01*
X5275457Y76665181D01*
X5072730Y76665181D01*
X4870003Y76665181D01*
X4870003Y76466677D01*
X4870003Y76268174D01*
X5275457Y76268174D01*
X5680911Y76268174D01*
X5680911Y76065447D01*
X5680911Y75862720D01*
X6082297Y75862720D01*
X6483683Y75862720D01*
X6481416Y76059112D01*
X6479148Y76255503D01*
X6278533Y76257768D01*
X6077918Y76260033D01*
X6077918Y76466830D01*
X6077918Y76673628D01*
X6284868Y76673628D01*
X6491819Y76673628D01*
X6491819Y76470901D01*
X6491819Y76268174D01*
X6893049Y76268174D01*
X7294280Y76268174D01*
X7294280Y76470901D01*
X7294280Y76673628D01*
X7497162Y76673628D01*
X7700045Y76673628D01*
X7697777Y76870020D01*
X7695510Y77066411D01*
X7495047Y77068676D01*
X7294585Y77070940D01*
X7292320Y77271403D01*
X7290056Y77471865D01*
X7089441Y77474130D01*
X6888826Y77476394D01*
X6888826Y77683192D01*
X6888826Y77889990D01*
X7095776Y77889990D01*
X7302727Y77889990D01*
X7302727Y77687263D01*
X7302727Y77484536D01*
X7505454Y77484536D01*
X7708181Y77484536D01*
X7708181Y77281809D01*
X7708181Y77079082D01*
X7910907Y77079082D01*
X8113634Y77079082D01*
X8113634Y76872131D01*
X8113634Y76665181D01*
X7910907Y76665181D01*
X7708181Y76665181D01*
X7708181Y76466677D01*
X7708181Y76268174D01*
X7910907Y76268174D01*
X8113634Y76268174D01*
X8113634Y76061223D01*
X8113634Y75854273D01*
X7908796Y75854036D01*
X7890396Y75854017D01*
X7839402Y75853984D01*
X7774457Y75853959D01*
X7697568Y75853941D01*
X7610745Y75853933D01*
X7515994Y75853932D01*
X7415325Y75853940D01*
X7310745Y75853956D01*
X7204263Y75853981D01*
X7097888Y75854014D01*
X6491819Y75854229D01*
X6491819Y75457266D01*
X6491819Y75448797D01*
G37*
D13*
%TO.C,XP2*%
X19345000Y2915000D02*
X20615000Y2915000D01*
X20615000Y2915000D02*
X20615000Y4185000D01*
X16425000Y5227929D02*
X16425000Y5625000D01*
X17185000Y5227929D02*
X17185000Y5625000D01*
X18965000Y5295000D02*
X18965000Y5625000D01*
X19725000Y5295000D02*
X19725000Y5625000D01*
X15475000Y5625000D02*
X15475000Y8285000D01*
X18075000Y5625000D02*
X18075000Y8285000D01*
X20675000Y5625000D02*
X15475000Y5625000D01*
X15475000Y8285000D02*
X20675000Y8285000D01*
X17185000Y8285000D02*
X17185000Y14285000D01*
X19065000Y8285000D02*
X19065000Y14285000D01*
X19185000Y8285000D02*
X19185000Y14285000D01*
X19305000Y8285000D02*
X19305000Y14285000D01*
X19425000Y8285000D02*
X19425000Y14285000D01*
X19545000Y8285000D02*
X19545000Y14285000D01*
X19665000Y8285000D02*
X19665000Y14285000D01*
X19725000Y8285000D02*
X19725000Y14285000D01*
X20675000Y8285000D02*
X20675000Y5625000D01*
X16425000Y14285000D02*
X16425000Y8285000D01*
X17185000Y14285000D02*
X16425000Y14285000D01*
X18965000Y14285000D02*
X18965000Y8285000D01*
X19725000Y14285000D02*
X18965000Y14285000D01*
%TO.C,XP1*%
X56421000Y47345000D02*
X56421000Y48615000D01*
X56421000Y48615000D02*
X55151000Y48615000D01*
X54108071Y34265000D02*
X53711000Y34265000D01*
X54108071Y35025000D02*
X53711000Y35025000D01*
X54108071Y36805000D02*
X53711000Y36805000D01*
X54108071Y37565000D02*
X53711000Y37565000D01*
X54108071Y39345000D02*
X53711000Y39345000D01*
X54108071Y40105000D02*
X53711000Y40105000D01*
X54108071Y41885000D02*
X53711000Y41885000D01*
X54108071Y42645000D02*
X53711000Y42645000D01*
X54108071Y44425000D02*
X53711000Y44425000D01*
X54108071Y45185000D02*
X53711000Y45185000D01*
X54041000Y46965000D02*
X53711000Y46965000D01*
X54041000Y47725000D02*
X53711000Y47725000D01*
X53711000Y33315000D02*
X51051000Y33315000D01*
X53711000Y35915000D02*
X51051000Y35915000D01*
X53711000Y38455000D02*
X51051000Y38455000D01*
X53711000Y40995000D02*
X51051000Y40995000D01*
X53711000Y43535000D02*
X51051000Y43535000D01*
X53711000Y46075000D02*
X51051000Y46075000D01*
X53711000Y48675000D02*
X53711000Y33315000D01*
X51051000Y33315000D02*
X51051000Y48675000D01*
X51051000Y35025000D02*
X45051000Y35025000D01*
X51051000Y37565000D02*
X45051000Y37565000D01*
X51051000Y40105000D02*
X45051000Y40105000D01*
X51051000Y42645000D02*
X45051000Y42645000D01*
X51051000Y45185000D02*
X45051000Y45185000D01*
X51051000Y47065000D02*
X45051000Y47065000D01*
X51051000Y47185000D02*
X45051000Y47185000D01*
X51051000Y47305000D02*
X45051000Y47305000D01*
X51051000Y47425000D02*
X45051000Y47425000D01*
X51051000Y47545000D02*
X45051000Y47545000D01*
X51051000Y47665000D02*
X45051000Y47665000D01*
X51051000Y47725000D02*
X45051000Y47725000D01*
X51051000Y48675000D02*
X53711000Y48675000D01*
X45051000Y34265000D02*
X51051000Y34265000D01*
X45051000Y35025000D02*
X45051000Y34265000D01*
X45051000Y36805000D02*
X51051000Y36805000D01*
X45051000Y37565000D02*
X45051000Y36805000D01*
X45051000Y39345000D02*
X51051000Y39345000D01*
X45051000Y40105000D02*
X45051000Y39345000D01*
X45051000Y41885000D02*
X51051000Y41885000D01*
X45051000Y42645000D02*
X45051000Y41885000D01*
X45051000Y44425000D02*
X51051000Y44425000D01*
X45051000Y45185000D02*
X45051000Y44425000D01*
X45051000Y46965000D02*
X51051000Y46965000D01*
X45051000Y47725000D02*
X45051000Y46965000D01*
%TD*%
M02*
