M48
;Layer_Color=9474304
;FILE_FORMAT=2:5
INCH
;TYPE=PLATED
T01F00S00C0.01575
T03F00S00C0.03937
T04F00S00C0.04134
T05F00S00C0.04724
%
T01
X0320472Y0207087
Y0216929
X0330315
Y0226772
X0340158
Y0216929
Y0207087
X0330315
X0330709Y0240158
X0325197Y0250394
X0314173Y0249213
X0318774Y0261811
X0317323Y0274803
X0325197Y0273228
X0321752Y0288287
X0323228Y0308661
X0359842Y0266142
Y0256299
Y0236614
Y0226772
X0350000
X0310630Y0216929
X0300787
X0290945
X0281102
Y0207087
X0290945
X0300787
X0310630
X0271260
X0261417
X0251575
X0241732
X0231890
X0222047
X0212205
X0202362
Y0216929
X0192520
X0182677
X0172835
X0162992
Y0226772
Y0236614
Y0246457
Y0256299
Y0266142
X0172835
Y0275984
Y0285827
Y0295669
X0182677
X0192520
X0202362
X0212205
Y0305512
X0202362
X0192520
X0182677
Y0285827
Y0275984
X0198031Y0287795
X0222047Y0285827
X0242126Y0282283
X0235827Y0272441
Y0266142
Y0259842
X0242913Y0250000
X0231102Y0242520
X0262598Y0242913
X0280315Y0257087
X0287795Y0258268
X0286221Y0267717
Y0276772
Y0283858
Y0291339
Y0298819
Y0305906
X0295669Y0303543
Y0294882
Y0285827
Y0277165
X0300394Y0269685
X0298155Y0261811
X0300394Y0253937
X0310630Y0275984
Y0285827
X0296850Y0311417
X0271260Y0285827
X0274016Y0221260
X0192520Y0207087
X0182677
X0172835
X0162992
X0208661Y0259449
X0153150Y0256299
Y0246457
Y0236614
Y0226772
X0143307
Y0236614
Y0246457
Y0256299
Y0266142
X0153150
X0141339Y0321260
X0143307Y0354724
Y0364567
Y0374409
Y0384252
Y0394094
Y0403937
X0153150
X0154331Y0381496
Y0373622
X0150787Y0358268
X0153150Y0433465
X0143307
Y0443307
X0153150
X0162992
Y0433465
X0159843Y0420472
Y0407874
X0182677Y0413779
X0192520
X0202362
Y0423622
Y0433465
X0192520
Y0423622
X0182677
X0179921Y0435827
Y0446063
X0192520Y0443307
X0202362
X0212205
Y0433465
Y0423622
X0222047
Y0413779
X0212205
Y0394094
X0202362
Y0384252
X0212205
X0222047
Y0394094
Y0374409
X0212205
Y0364567
X0202362
X0192520
X0182677
Y0374409
X0192520
Y0384252
Y0394094
X0182677
Y0384252
X0202362Y0374409
X0202116Y0348811
X0202362Y0344882
Y0335433
X0194488Y0342520
X0192520Y0351575
X0170472Y0352756
X0160236Y0337008
X0181496Y0335433
X0187402Y0320079
X0202362Y0315354
X0212205
Y0325197
X0219291Y0334252
X0226378Y0341339
X0230709
X0237402Y0341732
X0236221Y0332677
X0241732Y0319685
X0259055Y0320866
X0271455Y0325863
X0271260Y0335039
X0281102
X0275197Y0342520
X0259055Y0341339
X0248031Y0340551
X0248306Y0362718
X0249606Y0368110
X0256693Y0366535
X0259055Y0373622
X0268181Y0373228
X0268110Y0391732
X0273622
X0282242Y0393898
X0273622Y0405905
X0268458Y0406423
X0261417Y0413779
X0251575
Y0423622
X0261417
X0271260
Y0433465
X0281102
Y0443307
X0290945
X0300787
X0310630
X0292520Y0428740
X0281496Y0424016
X0261417Y0433465
X0251575
X0241732
X0231890
X0222047
Y0443307
X0231890
X0241732
X0251575
X0261417
X0271260
X0302756Y0407480
X0301575Y0395276
X0300000Y0384646
X0304724Y0383465
X0310236Y0379134
X0309449Y0370866
X0311417Y0357635
X0309133Y0351258
X0305512Y0354331
X0292913Y0354528
X0290945Y0364567
X0289567Y0374213
X0302756Y0337402
X0305512Y0333858
X0298819Y0327559
X0292913Y0321260
X0287008Y0315354
X0274410Y0318447
X0303150Y0317323
X0309055Y0324016
X0259449Y0354331
X0233071Y0360630
X0227165Y0353543
X0216929Y0349606
X0321654Y0344882
X0333465Y0342913
X0334252Y0326772
X0325197Y0327165
X0315354Y0331890
X0350000Y0325197
X0359842
Y0315354
X0331496Y0361417
X0334252Y0369685
X0319685
X0322441Y0386221
X0334252Y0390158
X0335827Y0399213
X0350000Y0403937
X0359842
Y0433465
X0350000
Y0443307
X0359842
X0340158
X0330315
X0320472
X0315748Y0437008
X0330315Y0419291
X0348819Y0381890
T03
X0212323Y0215354
X0222323
X0357874Y0336732
Y0346732
Y0356732
Y0366732
Y0376732
Y0386732
T04
X0163150Y0279921
X0153150
X0143150
T05
X0345000Y0297638
X0355000
X0256575
X0246575
X0240945Y0234646
Y0224803
Y0214961
X0262205
Y0224803
Y0234646
X0194882Y0243307
X0175197
X0147835Y0328150
Y0345866
X0173425
Y0328150
M30
