G04*
G04 #@! TF.GenerationSoftware,Altium Limited,Altium Designer,24.3.1 (35)*
G04*
G04 Layer_Physical_Order=2*
G04 Layer_Color=16711680*
%FSAX25Y25*%
%MOIN*%
G70*
G04*
G04 #@! TF.SameCoordinates,A3C2EEE2-FC71-4F10-AF2F-9764D03318EB*
G04*
G04*
G04 #@! TF.FilePolarity,Positive*
G04*
G01*
G75*
%ADD31C,0.06299*%
%ADD32R,0.06299X0.06299*%
%ADD34C,0.05906*%
%ADD35C,0.07874*%
%ADD36C,0.07087*%
%ADD37R,0.07087X0.07087*%
%ADD38C,0.02559*%
%ADD39O,0.07087X0.03937*%
%ADD43C,0.01181*%
%ADD44C,0.01968*%
%ADD48C,0.09843*%
%ADD49C,0.03150*%
G36*
X0235016Y0008373D02*
X0227848Y0001204D01*
X0008373Y0001204D01*
X0001204Y0008373D01*
X0001204Y0251969D01*
X0235016Y0251969D01*
X0235016Y0008373D01*
X0235016Y0008373D02*
G37*
%LPC*%
G36*
X0225010Y0226575D02*
X0223808Y0226575D01*
X0222629Y0226340D01*
X0221519Y0225880D01*
X0220519Y0225213D01*
X0219669Y0224362D01*
X0219002Y0223363D01*
X0218542Y0222252D01*
X0218307Y0221074D01*
X0218307Y0219871D01*
X0218542Y0218692D01*
X0219002Y0217582D01*
X0219669Y0216582D01*
X0220519Y0215732D01*
X0221519Y0215065D01*
X0222629Y0214605D01*
X0223808Y0214370D01*
X0225010Y0214370D01*
X0226189Y0214605D01*
X0227300Y0215065D01*
X0228299Y0215732D01*
X0229150Y0216582D01*
X0229817Y0217582D01*
X0230277Y0218692D01*
X0230512Y0219871D01*
X0230512Y0221074D01*
X0230277Y0222252D01*
X0229817Y0223363D01*
X0229150Y0224362D01*
X0228299Y0225213D01*
X0227300Y0225880D01*
X0226189Y0226340D01*
X0225010Y0226575D01*
X0225010Y0226575D02*
G37*
G36*
X0012412Y0226575D02*
X0011210Y0226575D01*
X0010031Y0226340D01*
X0008920Y0225880D01*
X0007921Y0225213D01*
X0007071Y0224362D01*
X0006403Y0223363D01*
X0005943Y0222252D01*
X0005709Y0221074D01*
X0005709Y0219871D01*
X0005943Y0218692D01*
X0006403Y0217582D01*
X0007071Y0216582D01*
X0007921Y0215732D01*
X0008920Y0215065D01*
X0010031Y0214605D01*
X0011210Y0214370D01*
X0012412Y0214370D01*
X0013591Y0214605D01*
X0014702Y0215065D01*
X0015701Y0215732D01*
X0016551Y0216582D01*
X0017219Y0217582D01*
X0017679Y0218692D01*
X0017913Y0219871D01*
X0017913Y0221074D01*
X0017679Y0222252D01*
X0017219Y0223363D01*
X0016551Y0224362D01*
X0015701Y0225213D01*
X0014702Y0225880D01*
X0013591Y0226340D01*
X0012412Y0226575D01*
X0012412Y0226575D02*
G37*
G36*
X0148368Y0229331D02*
X0147695Y0229331D01*
X0147044Y0229156D01*
X0146460Y0228819D01*
X0145984Y0228343D01*
X0145647Y0227759D01*
X0145473Y0227109D01*
X0145473Y0227051D01*
X0133348Y0214927D01*
X0132913Y0214276D01*
X0132761Y0213508D01*
X0132761Y0210429D01*
X0132609Y0210167D01*
X0132434Y0209516D01*
X0132434Y0208842D01*
X0132580Y0208299D01*
X0132552Y0208109D01*
X0131865Y0207118D01*
X0042126Y0207118D01*
X0041511Y0206995D01*
X0040991Y0206647D01*
X0040991Y0206647D01*
X0021154Y0186811D01*
X0020529Y0186811D01*
X0019878Y0186637D01*
X0019295Y0186300D01*
X0018818Y0185823D01*
X0018482Y0185240D01*
X0018307Y0184589D01*
X0018307Y0183915D01*
X0018482Y0183264D01*
X0018818Y0182681D01*
X0019295Y0182204D01*
X0019878Y0181867D01*
X0020529Y0181693D01*
X0020866Y0181693D01*
X0020866Y0178937D01*
X0020529Y0178937D01*
X0019878Y0178763D01*
X0019295Y0178426D01*
X0018818Y0177949D01*
X0018482Y0177366D01*
X0018307Y0176715D01*
X0018307Y0176041D01*
X0018482Y0175390D01*
X0018818Y0174807D01*
X0019295Y0174330D01*
X0019878Y0173993D01*
X0020529Y0173819D01*
X0021203Y0173819D01*
X0021854Y0173993D01*
X0022437Y0174330D01*
X0022914Y0174807D01*
X0023251Y0175390D01*
X0023425Y0176041D01*
X0023425Y0176666D01*
X0048303Y0201544D01*
X0114687Y0201544D01*
X0115176Y0200363D01*
X0068939Y0154126D01*
X0068314Y0154126D01*
X0067663Y0153952D01*
X0067080Y0153615D01*
X0066603Y0153138D01*
X0066266Y0152555D01*
X0066092Y0151904D01*
X0066092Y0151230D01*
X0066266Y0150579D01*
X0066603Y0149996D01*
X0066850Y0149209D01*
X0066513Y0148626D01*
X0066339Y0147975D01*
X0066339Y0147301D01*
X0066513Y0146650D01*
X0066850Y0146066D01*
X0067326Y0145590D01*
X0067910Y0145253D01*
X0068561Y0145079D01*
X0069235Y0145079D01*
X0069885Y0145253D01*
X0070469Y0145590D01*
X0070945Y0146066D01*
X0071282Y0146650D01*
X0071457Y0147301D01*
X0071457Y0147926D01*
X0119366Y0195835D01*
X0131161Y0195835D01*
X0132087Y0194825D01*
X0132087Y0194151D01*
X0132261Y0193500D01*
X0132598Y0192917D01*
X0133074Y0192440D01*
X0133658Y0192104D01*
X0134309Y0191929D01*
X0134366Y0191929D01*
X0139725Y0186570D01*
X0139725Y0146888D01*
X0139684Y0146847D01*
X0139348Y0146263D01*
X0139173Y0145613D01*
X0139173Y0144939D01*
X0139348Y0144288D01*
X0139684Y0143704D01*
X0140161Y0143228D01*
X0140744Y0142891D01*
X0141395Y0142717D01*
X0142069Y0142717D01*
X0142720Y0142891D01*
X0143304Y0143228D01*
X0143780Y0143704D01*
X0144117Y0144288D01*
X0144291Y0144939D01*
X0144291Y0144996D01*
X0147682Y0148387D01*
X0184602Y0148387D01*
X0185630Y0147358D01*
X0185630Y0147301D01*
X0185804Y0146650D01*
X0186141Y0146066D01*
X0186618Y0145590D01*
X0187201Y0145253D01*
X0187852Y0145079D01*
X0187910Y0145079D01*
X0202717Y0130271D01*
X0202717Y0108312D01*
X0188008Y0093602D01*
X0187951Y0093602D01*
X0187300Y0093428D01*
X0186716Y0093091D01*
X0186240Y0092615D01*
X0185903Y0092031D01*
X0185728Y0091380D01*
X0185728Y0090706D01*
X0185903Y0090056D01*
X0186240Y0089472D01*
X0186716Y0088996D01*
X0187300Y0088659D01*
X0187951Y0088484D01*
X0188624Y0088484D01*
X0189275Y0088659D01*
X0189859Y0088996D01*
X0190335Y0089472D01*
X0190672Y0090056D01*
X0190847Y0090706D01*
X0190847Y0090764D01*
X0206144Y0106061D01*
X0206579Y0106712D01*
X0206732Y0107480D01*
X0206732Y0131102D01*
X0206579Y0131870D01*
X0206144Y0132522D01*
X0190748Y0147917D01*
X0190748Y0147975D01*
X0190574Y0148626D01*
X0190237Y0149209D01*
X0189760Y0149686D01*
X0189177Y0150022D01*
X0188526Y0150197D01*
X0188468Y0150197D01*
X0187437Y0151228D01*
X0187927Y0152409D01*
X0207525Y0152409D01*
X0220268Y0139666D01*
X0220268Y0139666D01*
X0220472Y0139529D01*
X0220472Y0138970D01*
X0220741Y0137969D01*
X0221259Y0137071D01*
X0221992Y0136338D01*
X0222890Y0135819D01*
X0223891Y0135551D01*
X0224928Y0135551D01*
X0225929Y0135819D01*
X0226827Y0136338D01*
X0227560Y0137071D01*
X0228078Y0137969D01*
X0228346Y0138970D01*
X0228346Y0140006D01*
X0228078Y0141008D01*
X0227560Y0141905D01*
X0226827Y0142639D01*
X0225929Y0143157D01*
X0224928Y0143425D01*
X0224409Y0143425D01*
X0224409Y0145551D01*
X0224928Y0145551D01*
X0225929Y0145819D01*
X0226827Y0146338D01*
X0227560Y0147071D01*
X0228078Y0147968D01*
X0228346Y0148970D01*
X0228346Y0150006D01*
X0228078Y0151008D01*
X0227560Y0151906D01*
X0226827Y0152638D01*
X0225929Y0153157D01*
X0224928Y0153425D01*
X0224409Y0153425D01*
X0224409Y0155551D01*
X0224928Y0155551D01*
X0225929Y0155819D01*
X0226827Y0156338D01*
X0227560Y0157071D01*
X0228078Y0157968D01*
X0228346Y0158970D01*
X0228346Y0160006D01*
X0228078Y0161008D01*
X0227560Y0161906D01*
X0226827Y0162638D01*
X0225929Y0163157D01*
X0224928Y0163425D01*
X0223891Y0163425D01*
X0222890Y0163157D01*
X0221992Y0162638D01*
X0221259Y0161906D01*
X0220790Y0161094D01*
X0192913Y0161094D01*
X0192913Y0169996D01*
X0194333Y0171415D01*
X0194768Y0172067D01*
X0194921Y0172835D01*
X0194921Y0184208D01*
X0201067Y0190354D01*
X0201124Y0190354D01*
X0201775Y0190529D01*
X0202359Y0190866D01*
X0202399Y0190906D01*
X0219559Y0190906D01*
X0220472Y0190006D01*
X0220472Y0188970D01*
X0220741Y0187969D01*
X0221259Y0187071D01*
X0221992Y0186338D01*
X0222890Y0185819D01*
X0223891Y0185551D01*
X0224928Y0185551D01*
X0225929Y0185819D01*
X0226827Y0186338D01*
X0227560Y0187071D01*
X0228078Y0187969D01*
X0228346Y0188970D01*
X0228346Y0190006D01*
X0228078Y0191008D01*
X0227560Y0191905D01*
X0226827Y0192639D01*
X0225929Y0193157D01*
X0224928Y0193425D01*
X0223891Y0193425D01*
X0223433Y0193303D01*
X0222403Y0194333D01*
X0221752Y0194768D01*
X0220984Y0194921D01*
X0202399Y0194921D01*
X0202359Y0194961D01*
X0201775Y0195298D01*
X0201124Y0195472D01*
X0200450Y0195472D01*
X0199800Y0195298D01*
X0199216Y0194961D01*
X0198740Y0194485D01*
X0198403Y0193901D01*
X0198228Y0193250D01*
X0198228Y0193193D01*
X0191494Y0186459D01*
X0191059Y0185807D01*
X0190906Y0185039D01*
X0190906Y0173666D01*
X0189961Y0172720D01*
X0189578Y0172739D01*
X0188688Y0173118D01*
X0188605Y0173429D01*
X0188268Y0174012D01*
X0187792Y0174489D01*
X0187208Y0174826D01*
X0186557Y0175000D01*
X0185932Y0175000D01*
X0179331Y0181601D01*
X0179331Y0182227D01*
X0179156Y0182878D01*
X0178819Y0183461D01*
X0178343Y0183938D01*
X0177759Y0184274D01*
X0177109Y0184449D01*
X0176435Y0184449D01*
X0175784Y0184274D01*
X0175200Y0183938D01*
X0174724Y0183461D01*
X0174387Y0182878D01*
X0174213Y0182227D01*
X0174213Y0181553D01*
X0174387Y0180902D01*
X0174724Y0180318D01*
X0175200Y0179842D01*
X0175784Y0179505D01*
X0176435Y0179331D01*
X0177060Y0179331D01*
X0183661Y0172729D01*
X0183661Y0172104D01*
X0183836Y0171453D01*
X0184173Y0170870D01*
X0184649Y0170393D01*
X0185233Y0170056D01*
X0185543Y0169973D01*
X0185923Y0169084D01*
X0185941Y0168701D01*
X0183421Y0166180D01*
X0172835Y0166180D01*
X0172067Y0166027D01*
X0171415Y0165592D01*
X0158224Y0152401D01*
X0146850Y0152401D01*
X0146082Y0152248D01*
X0145431Y0151813D01*
X0144831Y0151212D01*
X0143739Y0151664D01*
X0143739Y0187402D01*
X0143587Y0188170D01*
X0143151Y0188821D01*
X0137318Y0194654D01*
X0137365Y0195000D01*
X0138130Y0195835D01*
X0146347Y0195835D01*
X0146392Y0195666D01*
X0146729Y0195082D01*
X0147206Y0194606D01*
X0147789Y0194269D01*
X0148440Y0194095D01*
X0149114Y0194095D01*
X0149765Y0194269D01*
X0150348Y0194606D01*
X0150825Y0195082D01*
X0152193Y0195142D01*
X0164022Y0183313D01*
X0164543Y0182965D01*
X0165157Y0182843D01*
X0165157Y0182843D01*
X0168955Y0182843D01*
X0168956Y0182843D01*
X0169570Y0182965D01*
X0170091Y0183313D01*
X0170541Y0183764D01*
X0170923Y0183661D01*
X0171597Y0183661D01*
X0172248Y0183836D01*
X0172831Y0184173D01*
X0173308Y0184649D01*
X0173644Y0185233D01*
X0173819Y0185884D01*
X0173819Y0186557D01*
X0173644Y0187208D01*
X0173308Y0187792D01*
X0172831Y0188268D01*
X0172248Y0188605D01*
X0171597Y0188779D01*
X0171260Y0188779D01*
X0171260Y0194882D01*
X0169920Y0196222D01*
X0170158Y0196460D01*
X0170495Y0197044D01*
X0170669Y0197695D01*
X0170669Y0198368D01*
X0170495Y0199019D01*
X0170158Y0199603D01*
X0169682Y0200079D01*
X0169098Y0200416D01*
X0168447Y0200591D01*
X0167773Y0200591D01*
X0167421Y0200496D01*
X0161270Y0206647D01*
X0160749Y0206995D01*
X0160135Y0207118D01*
X0160135Y0207118D01*
X0138122Y0207118D01*
X0137435Y0208109D01*
X0137407Y0208299D01*
X0137553Y0208842D01*
X0137553Y0209516D01*
X0137378Y0210167D01*
X0137041Y0210750D01*
X0136775Y0211017D01*
X0136775Y0212676D01*
X0148311Y0224213D01*
X0148368Y0224213D01*
X0149019Y0224387D01*
X0149603Y0224724D01*
X0150079Y0225200D01*
X0150416Y0225784D01*
X0150591Y0226435D01*
X0150591Y0227109D01*
X0150416Y0227759D01*
X0150079Y0228343D01*
X0149603Y0228819D01*
X0149019Y0229156D01*
X0148368Y0229331D01*
X0148368Y0229331D02*
G37*
G36*
X0224928Y0183425D02*
X0223891Y0183425D01*
X0222890Y0183157D01*
X0221992Y0182639D01*
X0221259Y0181905D01*
X0220741Y0181008D01*
X0220472Y0180006D01*
X0220472Y0178970D01*
X0220741Y0177969D01*
X0221259Y0177071D01*
X0221992Y0176338D01*
X0222890Y0175819D01*
X0223891Y0175551D01*
X0224928Y0175551D01*
X0225929Y0175819D01*
X0226827Y0176338D01*
X0227560Y0177071D01*
X0228078Y0177969D01*
X0228346Y0178970D01*
X0228346Y0180006D01*
X0228078Y0181008D01*
X0227560Y0181905D01*
X0226827Y0182639D01*
X0225929Y0183157D01*
X0224928Y0183425D01*
X0224928Y0183425D02*
G37*
G36*
X0125927Y0178937D02*
X0125254Y0178937D01*
X0124603Y0178763D01*
X0124019Y0178426D01*
X0123543Y0177949D01*
X0123206Y0177366D01*
X0123031Y0176715D01*
X0123031Y0176041D01*
X0123206Y0175390D01*
X0123543Y0174807D01*
X0124019Y0174330D01*
X0124603Y0173993D01*
X0125254Y0173819D01*
X0125927Y0173819D01*
X0126578Y0173993D01*
X0127162Y0174330D01*
X0127407Y0174575D01*
X0132575Y0174575D01*
X0132669Y0174413D01*
X0133145Y0173936D01*
X0133729Y0173600D01*
X0134380Y0173425D01*
X0135054Y0173425D01*
X0135704Y0173600D01*
X0136288Y0173936D01*
X0136764Y0174413D01*
X0137101Y0174996D01*
X0137276Y0175647D01*
X0137276Y0176321D01*
X0137101Y0176972D01*
X0136764Y0177556D01*
X0136288Y0178032D01*
X0135704Y0178369D01*
X0135054Y0178543D01*
X0134380Y0178543D01*
X0133729Y0178369D01*
X0133145Y0178032D01*
X0132900Y0177787D01*
X0127732Y0177787D01*
X0127638Y0177949D01*
X0127162Y0178426D01*
X0126578Y0178763D01*
X0125927Y0178937D01*
X0125927Y0178937D02*
G37*
G36*
X0225000Y0173609D02*
X0225000Y0170079D01*
X0228531Y0170079D01*
X0228262Y0171084D01*
X0227717Y0172026D01*
X0226948Y0172796D01*
X0226005Y0173340D01*
X0225000Y0173609D01*
X0225000Y0173609D02*
G37*
G36*
X0223819Y0173609D02*
X0222814Y0173340D01*
X0221871Y0172796D01*
X0221101Y0172026D01*
X0220557Y0171084D01*
X0220288Y0170079D01*
X0223819Y0170079D01*
X0223819Y0173609D01*
X0223819Y0173609D02*
G37*
G36*
X0123565Y0171850D02*
X0122891Y0171850D01*
X0122241Y0171676D01*
X0121657Y0171339D01*
X0121181Y0170863D01*
X0120844Y0170279D01*
X0120669Y0169628D01*
X0120669Y0169397D01*
X0118258Y0166985D01*
X0116889Y0167045D01*
X0116412Y0167522D01*
X0115829Y0167858D01*
X0115178Y0168033D01*
X0114504Y0168033D01*
X0113854Y0167858D01*
X0113270Y0167522D01*
X0112794Y0167045D01*
X0112457Y0166462D01*
X0112282Y0165811D01*
X0112282Y0165579D01*
X0093334Y0146631D01*
X0093250Y0146653D01*
X0092576Y0146653D01*
X0091926Y0146479D01*
X0091342Y0146142D01*
X0090866Y0145666D01*
X0090529Y0145082D01*
X0090354Y0144431D01*
X0090354Y0143758D01*
X0090529Y0143107D01*
X0090866Y0142523D01*
X0091342Y0142047D01*
X0091926Y0141710D01*
X0092576Y0141535D01*
X0093250Y0141535D01*
X0093901Y0141710D01*
X0094485Y0142047D01*
X0095079Y0142445D01*
X0095673Y0142047D01*
X0096256Y0141710D01*
X0096907Y0141535D01*
X0097581Y0141535D01*
X0098232Y0141710D01*
X0098815Y0142047D01*
X0099292Y0142523D01*
X0099629Y0143107D01*
X0099803Y0143758D01*
X0099803Y0143989D01*
X0122619Y0166805D01*
X0122891Y0166732D01*
X0123565Y0166732D01*
X0124216Y0166907D01*
X0124800Y0167244D01*
X0125276Y0167720D01*
X0125613Y0168304D01*
X0125787Y0168954D01*
X0125787Y0169628D01*
X0125613Y0170279D01*
X0125276Y0170863D01*
X0124800Y0171339D01*
X0124216Y0171676D01*
X0123565Y0171850D01*
X0123565Y0171850D02*
G37*
G36*
X0228531Y0168898D02*
X0225000Y0168898D01*
X0225000Y0165367D01*
X0226005Y0165636D01*
X0226948Y0166180D01*
X0227717Y0166950D01*
X0228262Y0167893D01*
X0228531Y0168898D01*
X0228531Y0168898D02*
G37*
G36*
X0223819Y0168898D02*
X0220288Y0168898D01*
X0220557Y0167893D01*
X0221101Y0166950D01*
X0221871Y0166180D01*
X0222814Y0165636D01*
X0223819Y0165367D01*
X0223819Y0168898D01*
X0223819Y0168898D02*
G37*
G36*
X0040557Y0153150D02*
X0039365Y0153150D01*
X0038213Y0152841D01*
X0037181Y0152245D01*
X0036338Y0151402D01*
X0035742Y0150370D01*
X0035433Y0149218D01*
X0035433Y0148026D01*
X0035742Y0146874D01*
X0036338Y0145842D01*
X0037181Y0144999D01*
X0038213Y0144403D01*
X0039365Y0144095D01*
X0040557Y0144095D01*
X0041708Y0144403D01*
X0042741Y0144999D01*
X0043584Y0145842D01*
X0044180Y0146874D01*
X0044488Y0148026D01*
X0044488Y0149218D01*
X0044180Y0150370D01*
X0043584Y0151402D01*
X0042741Y0152245D01*
X0041708Y0152841D01*
X0040557Y0153150D01*
X0040557Y0153150D02*
G37*
G36*
X0014966Y0153150D02*
X0013774Y0153150D01*
X0012622Y0152841D01*
X0011590Y0152245D01*
X0010747Y0151402D01*
X0010151Y0150370D01*
X0009843Y0149218D01*
X0009843Y0148026D01*
X0010151Y0146874D01*
X0010747Y0145842D01*
X0011590Y0144999D01*
X0012622Y0144403D01*
X0013774Y0144095D01*
X0014966Y0144095D01*
X0016118Y0144403D01*
X0017150Y0144999D01*
X0017993Y0145842D01*
X0018589Y0146874D01*
X0018898Y0148026D01*
X0018898Y0149218D01*
X0018589Y0150370D01*
X0017993Y0151402D01*
X0017150Y0152245D01*
X0016118Y0152841D01*
X0014966Y0153150D01*
X0014966Y0153150D02*
G37*
G36*
X0169628Y0142717D02*
X0168954Y0142717D01*
X0168304Y0142542D01*
X0167720Y0142205D01*
X0167278Y0141763D01*
X0159899Y0141763D01*
X0159285Y0141641D01*
X0158764Y0141293D01*
X0158764Y0141293D01*
X0141233Y0123762D01*
X0140608Y0123762D01*
X0139957Y0123588D01*
X0139374Y0123251D01*
X0138897Y0122774D01*
X0138560Y0122191D01*
X0138386Y0121540D01*
X0138386Y0120866D01*
X0138560Y0120215D01*
X0138897Y0119632D01*
X0139374Y0119155D01*
X0139957Y0118818D01*
X0140608Y0118644D01*
X0141282Y0118644D01*
X0141933Y0118818D01*
X0142516Y0119155D01*
X0142993Y0119632D01*
X0143330Y0120215D01*
X0143504Y0120866D01*
X0143504Y0121491D01*
X0160564Y0138552D01*
X0167278Y0138552D01*
X0167720Y0138110D01*
X0168304Y0137773D01*
X0168954Y0137598D01*
X0169628Y0137598D01*
X0170279Y0137773D01*
X0170863Y0138110D01*
X0171339Y0138586D01*
X0171676Y0139170D01*
X0171850Y0139821D01*
X0171850Y0140494D01*
X0171676Y0141145D01*
X0171339Y0141729D01*
X0170863Y0142205D01*
X0170279Y0142542D01*
X0169628Y0142717D01*
X0169628Y0142717D02*
G37*
G36*
X0040583Y0135630D02*
X0040551Y0135630D01*
X0040551Y0131496D01*
X0044685Y0131496D01*
X0044685Y0131527D01*
X0044363Y0132729D01*
X0043741Y0133806D01*
X0042862Y0134686D01*
X0041784Y0135308D01*
X0040583Y0135630D01*
X0040583Y0135630D02*
G37*
G36*
X0014992Y0135630D02*
X0014961Y0135630D01*
X0014961Y0131496D01*
X0019094Y0131496D01*
X0019094Y0131527D01*
X0018772Y0132729D01*
X0018150Y0133806D01*
X0017271Y0134686D01*
X0016194Y0135308D01*
X0014992Y0135630D01*
X0014992Y0135630D02*
G37*
G36*
X0039370Y0135630D02*
X0039339Y0135630D01*
X0038137Y0135308D01*
X0037060Y0134686D01*
X0036180Y0133806D01*
X0035558Y0132729D01*
X0035236Y0131527D01*
X0035236Y0131496D01*
X0039370Y0131496D01*
X0039370Y0135630D01*
X0039370Y0135630D02*
G37*
G36*
X0013780Y0135630D02*
X0013748Y0135630D01*
X0012547Y0135308D01*
X0011469Y0134686D01*
X0010590Y0133806D01*
X0009968Y0132729D01*
X0009646Y0131527D01*
X0009646Y0131496D01*
X0013780Y0131496D01*
X0013780Y0135630D01*
X0013780Y0135630D02*
G37*
G36*
X0044685Y0130315D02*
X0040551Y0130315D01*
X0040551Y0126181D01*
X0040583Y0126181D01*
X0041784Y0126503D01*
X0042862Y0127125D01*
X0043741Y0128005D01*
X0044363Y0129082D01*
X0044685Y0130283D01*
X0044685Y0130315D01*
X0044685Y0130315D02*
G37*
G36*
X0039370Y0130315D02*
X0035236Y0130315D01*
X0035236Y0130283D01*
X0035558Y0129082D01*
X0036180Y0128005D01*
X0037060Y0127125D01*
X0038137Y0126503D01*
X0039339Y0126181D01*
X0039370Y0126181D01*
X0039370Y0130315D01*
X0039370Y0130315D02*
G37*
G36*
X0019094Y0130315D02*
X0014961Y0130315D01*
X0014961Y0126181D01*
X0014992Y0126181D01*
X0016194Y0126503D01*
X0017271Y0127125D01*
X0018150Y0128005D01*
X0018772Y0129082D01*
X0019094Y0130283D01*
X0019094Y0130315D01*
X0019094Y0130315D02*
G37*
G36*
X0013780Y0130315D02*
X0009646Y0130315D01*
X0009646Y0130283D01*
X0009968Y0129082D01*
X0010590Y0128005D01*
X0011469Y0127125D01*
X0012547Y0126503D01*
X0013748Y0126181D01*
X0013780Y0126181D01*
X0013780Y0130315D01*
X0013780Y0130315D02*
G37*
G36*
X0220945Y0105118D02*
X0220913Y0105118D01*
X0219712Y0104796D01*
X0218635Y0104174D01*
X0217755Y0103295D01*
X0217244Y0102410D01*
X0216553Y0102433D01*
X0216063Y0102615D01*
X0216063Y0104921D01*
X0207008Y0104921D01*
X0207008Y0095866D01*
X0216063Y0095866D01*
X0216063Y0098172D01*
X0216553Y0098354D01*
X0217244Y0098378D01*
X0217755Y0097493D01*
X0218635Y0096613D01*
X0219712Y0095991D01*
X0220913Y0095669D01*
X0220945Y0095669D01*
X0220945Y0100394D01*
X0220945Y0105118D01*
X0220945Y0105118D02*
G37*
G36*
X0127638Y0104921D02*
X0118583Y0104921D01*
X0118583Y0102027D01*
X0117402Y0101871D01*
X0117329Y0102141D01*
X0116733Y0103174D01*
X0115890Y0104017D01*
X0114858Y0104613D01*
X0113706Y0104921D01*
X0112514Y0104921D01*
X0111363Y0104613D01*
X0110330Y0104017D01*
X0109487Y0103174D01*
X0108891Y0102141D01*
X0108583Y0100990D01*
X0108583Y0099798D01*
X0108891Y0098646D01*
X0109487Y0097614D01*
X0110330Y0096771D01*
X0111103Y0096325D01*
X0111103Y0093583D01*
X0111256Y0092815D01*
X0111691Y0092163D01*
X0144291Y0059563D01*
X0144291Y0059506D01*
X0144466Y0058855D01*
X0144803Y0058271D01*
X0145279Y0057795D01*
X0145863Y0057458D01*
X0146513Y0057284D01*
X0147187Y0057284D01*
X0147838Y0057458D01*
X0148422Y0057795D01*
X0148898Y0058271D01*
X0149235Y0058855D01*
X0149409Y0059506D01*
X0149409Y0060179D01*
X0149235Y0060830D01*
X0148898Y0061414D01*
X0148422Y0061890D01*
X0147838Y0062227D01*
X0147187Y0062402D01*
X0147130Y0062402D01*
X0115117Y0094414D01*
X0115117Y0096325D01*
X0115890Y0096771D01*
X0116733Y0097614D01*
X0117329Y0098646D01*
X0117402Y0098916D01*
X0118583Y0098761D01*
X0118583Y0095866D01*
X0127638Y0095866D01*
X0127638Y0104921D01*
X0127638Y0104921D02*
G37*
G36*
X0222157Y0105118D02*
X0222126Y0105118D01*
X0222126Y0100984D01*
X0226260Y0100984D01*
X0226260Y0101016D01*
X0225938Y0102217D01*
X0225316Y0103295D01*
X0224436Y0104174D01*
X0223359Y0104796D01*
X0222157Y0105118D01*
X0222157Y0105118D02*
G37*
G36*
X0226260Y0099803D02*
X0222126Y0099803D01*
X0222126Y0095669D01*
X0222157Y0095669D01*
X0223359Y0095991D01*
X0224436Y0096613D01*
X0225316Y0097493D01*
X0225938Y0098570D01*
X0226260Y0099772D01*
X0226260Y0099803D01*
X0226260Y0099803D02*
G37*
G36*
X0020276Y0087002D02*
X0020276Y0083268D01*
X0024010Y0083268D01*
X0023721Y0084349D01*
X0023151Y0085336D01*
X0022344Y0086143D01*
X0021357Y0086713D01*
X0020276Y0087002D01*
X0020276Y0087002D02*
G37*
G36*
X0019094Y0087002D02*
X0018013Y0086713D01*
X0017026Y0086143D01*
X0016220Y0085336D01*
X0015650Y0084349D01*
X0015360Y0083268D01*
X0019094Y0083268D01*
X0019094Y0087002D01*
X0019094Y0087002D02*
G37*
G36*
X0227559Y0084750D02*
X0224409Y0084750D01*
X0223639Y0084648D01*
X0222920Y0084351D01*
X0222304Y0083877D01*
X0221830Y0083261D01*
X0221533Y0082542D01*
X0221431Y0081772D01*
X0221533Y0081001D01*
X0221830Y0080282D01*
X0222304Y0079666D01*
X0222920Y0079192D01*
X0223639Y0078895D01*
X0224409Y0078793D01*
X0227559Y0078793D01*
X0228330Y0078895D01*
X0229048Y0079192D01*
X0229665Y0079666D01*
X0230138Y0080282D01*
X0230436Y0081001D01*
X0230537Y0081772D01*
X0230436Y0082542D01*
X0230138Y0083261D01*
X0229665Y0083877D01*
X0229048Y0084351D01*
X0228330Y0084648D01*
X0227559Y0084750D01*
X0227559Y0084750D02*
G37*
G36*
X0030229Y0086811D02*
X0029141Y0086811D01*
X0028089Y0086529D01*
X0027147Y0085985D01*
X0026377Y0085215D01*
X0025833Y0084273D01*
X0025551Y0083221D01*
X0025551Y0082133D01*
X0025833Y0081082D01*
X0026377Y0080139D01*
X0027147Y0079369D01*
X0028089Y0078825D01*
X0029141Y0078543D01*
X0030229Y0078543D01*
X0031281Y0078825D01*
X0032223Y0079369D01*
X0032993Y0080139D01*
X0033537Y0081082D01*
X0033819Y0082133D01*
X0033819Y0083221D01*
X0033537Y0084273D01*
X0032993Y0085215D01*
X0032223Y0085985D01*
X0031281Y0086529D01*
X0030229Y0086811D01*
X0030229Y0086811D02*
G37*
G36*
X0013819Y0086811D02*
X0005551Y0086811D01*
X0005551Y0078543D01*
X0013819Y0078543D01*
X0013819Y0086811D01*
X0013819Y0086811D02*
G37*
G36*
X0024010Y0082087D02*
X0020276Y0082087D01*
X0020276Y0078352D01*
X0021357Y0078642D01*
X0022344Y0079212D01*
X0023151Y0080018D01*
X0023721Y0081006D01*
X0024010Y0082087D01*
X0024010Y0082087D02*
G37*
G36*
X0019094Y0082087D02*
X0015360Y0082087D01*
X0015650Y0081006D01*
X0016220Y0080018D01*
X0017026Y0079212D01*
X0018013Y0078642D01*
X0019094Y0078352D01*
X0019094Y0082087D01*
X0019094Y0082087D02*
G37*
G36*
X0211220Y0084750D02*
X0208071Y0084750D01*
X0207300Y0084648D01*
X0206582Y0084351D01*
X0205965Y0083877D01*
X0205492Y0083261D01*
X0205194Y0082542D01*
X0205093Y0081772D01*
X0205194Y0081001D01*
X0205492Y0080282D01*
X0205965Y0079666D01*
X0206582Y0079192D01*
X0207300Y0078895D01*
X0208071Y0078793D01*
X0209116Y0078793D01*
X0209605Y0077612D01*
X0209528Y0077536D01*
X0209154Y0076631D01*
X0209154Y0075652D01*
X0209528Y0074748D01*
X0210220Y0074056D01*
X0211125Y0073681D01*
X0212104Y0073681D01*
X0213008Y0074056D01*
X0213700Y0074748D01*
X0214075Y0075652D01*
X0214075Y0076631D01*
X0213700Y0077536D01*
X0213142Y0078093D01*
X0213064Y0078292D01*
X0213033Y0078666D01*
X0213080Y0079476D01*
X0213326Y0079666D01*
X0213800Y0080282D01*
X0214097Y0081001D01*
X0214199Y0081772D01*
X0214097Y0082542D01*
X0213800Y0083261D01*
X0213326Y0083877D01*
X0212709Y0084351D01*
X0211991Y0084648D01*
X0211220Y0084750D01*
X0211220Y0084750D02*
G37*
G36*
X0192069Y0078543D02*
X0191395Y0078543D01*
X0190744Y0078369D01*
X0190161Y0078032D01*
X0189684Y0077556D01*
X0189348Y0076972D01*
X0189173Y0076321D01*
X0189173Y0075647D01*
X0189348Y0074997D01*
X0189684Y0074413D01*
X0189725Y0074372D01*
X0189725Y0054762D01*
X0189684Y0054721D01*
X0189348Y0054137D01*
X0189173Y0053487D01*
X0189173Y0052813D01*
X0189348Y0052162D01*
X0189684Y0051578D01*
X0190161Y0051102D01*
X0190744Y0050765D01*
X0191395Y0050591D01*
X0192069Y0050591D01*
X0192720Y0050765D01*
X0193304Y0051102D01*
X0193780Y0051578D01*
X0194117Y0052162D01*
X0194291Y0052813D01*
X0194291Y0053487D01*
X0194117Y0054137D01*
X0193780Y0054721D01*
X0193739Y0054762D01*
X0193739Y0074372D01*
X0193780Y0074413D01*
X0194117Y0074997D01*
X0194291Y0075647D01*
X0194291Y0076321D01*
X0194117Y0076972D01*
X0193780Y0077556D01*
X0193304Y0078032D01*
X0192720Y0078369D01*
X0192069Y0078543D01*
X0192069Y0078543D02*
G37*
G36*
X0165027Y0067126D02*
X0164354Y0067126D01*
X0163703Y0066952D01*
X0163119Y0066615D01*
X0162643Y0066138D01*
X0162306Y0065555D01*
X0162131Y0064904D01*
X0162131Y0064527D01*
X0145281Y0047676D01*
X0130746Y0047676D01*
X0130705Y0047717D01*
X0130122Y0048054D01*
X0129471Y0048228D01*
X0128797Y0048228D01*
X0128146Y0048054D01*
X0127563Y0047717D01*
X0127086Y0047241D01*
X0126749Y0046657D01*
X0126575Y0046006D01*
X0126575Y0045332D01*
X0126749Y0044682D01*
X0127086Y0044098D01*
X0127563Y0043622D01*
X0128146Y0043285D01*
X0128797Y0043110D01*
X0129471Y0043110D01*
X0130122Y0043285D01*
X0130705Y0043622D01*
X0130746Y0043662D01*
X0146112Y0043662D01*
X0146880Y0043815D01*
X0147532Y0044250D01*
X0165385Y0062104D01*
X0165678Y0062182D01*
X0166262Y0062519D01*
X0166738Y0062996D01*
X0167075Y0063579D01*
X0167250Y0064230D01*
X0167250Y0064904D01*
X0167075Y0065555D01*
X0166738Y0066138D01*
X0166262Y0066615D01*
X0165678Y0066952D01*
X0165027Y0067126D01*
X0165027Y0067126D02*
G37*
G36*
X0227559Y0050734D02*
X0224409Y0050734D01*
X0223639Y0050633D01*
X0222920Y0050335D01*
X0222304Y0049862D01*
X0221830Y0049245D01*
X0221533Y0048527D01*
X0221431Y0047756D01*
X0221533Y0046985D01*
X0221830Y0046267D01*
X0222304Y0045650D01*
X0222920Y0045177D01*
X0223639Y0044879D01*
X0224409Y0044778D01*
X0227559Y0044778D01*
X0228330Y0044879D01*
X0229048Y0045177D01*
X0229665Y0045650D01*
X0230138Y0046267D01*
X0230436Y0046985D01*
X0230537Y0047756D01*
X0230436Y0048527D01*
X0230138Y0049245D01*
X0229665Y0049862D01*
X0229048Y0050335D01*
X0228330Y0050633D01*
X0227559Y0050734D01*
X0227559Y0050734D02*
G37*
G36*
X0212104Y0055846D02*
X0211125Y0055846D01*
X0210220Y0055472D01*
X0209528Y0054780D01*
X0209154Y0053875D01*
X0209154Y0052896D01*
X0209528Y0051992D01*
X0209920Y0051600D01*
X0209495Y0050419D01*
X0208071Y0050419D01*
X0207300Y0050318D01*
X0206582Y0050020D01*
X0205965Y0049547D01*
X0205492Y0048930D01*
X0205194Y0048212D01*
X0205093Y0047441D01*
X0205194Y0046670D01*
X0205492Y0045952D01*
X0205965Y0045335D01*
X0206582Y0044862D01*
X0207300Y0044564D01*
X0208071Y0044463D01*
X0211220Y0044463D01*
X0211991Y0044564D01*
X0212709Y0044862D01*
X0213326Y0045335D01*
X0213800Y0045952D01*
X0214097Y0046670D01*
X0214199Y0047441D01*
X0214097Y0048212D01*
X0213800Y0048930D01*
X0213326Y0049547D01*
X0212813Y0049941D01*
X0212758Y0050417D01*
X0212857Y0051237D01*
X0213008Y0051300D01*
X0213700Y0051992D01*
X0214075Y0052896D01*
X0214075Y0053875D01*
X0213700Y0054780D01*
X0213008Y0055472D01*
X0212104Y0055846D01*
X0212104Y0055846D02*
G37*
G36*
X0062065Y0050984D02*
X0060769Y0050984D01*
X0059518Y0050649D01*
X0058396Y0050001D01*
X0057479Y0049085D01*
X0056831Y0047962D01*
X0056496Y0046711D01*
X0056496Y0045415D01*
X0056831Y0044164D01*
X0057479Y0043041D01*
X0058396Y0042125D01*
X0059518Y0041477D01*
X0060769Y0041142D01*
X0062065Y0041142D01*
X0063317Y0041477D01*
X0064439Y0042125D01*
X0065355Y0043041D01*
X0066003Y0044164D01*
X0066339Y0045415D01*
X0066339Y0046711D01*
X0066003Y0047962D01*
X0065355Y0049085D01*
X0064439Y0050001D01*
X0063317Y0050649D01*
X0062065Y0050984D01*
X0062065Y0050984D02*
G37*
G36*
X0042380Y0050984D02*
X0041084Y0050984D01*
X0039833Y0050649D01*
X0038711Y0050001D01*
X0037794Y0049085D01*
X0037146Y0047962D01*
X0036811Y0046711D01*
X0036811Y0045415D01*
X0037146Y0044164D01*
X0037794Y0043041D01*
X0038711Y0042125D01*
X0039833Y0041477D01*
X0041084Y0041142D01*
X0042380Y0041142D01*
X0043632Y0041477D01*
X0044754Y0042125D01*
X0045670Y0043041D01*
X0046318Y0044164D01*
X0046654Y0045415D01*
X0046654Y0046711D01*
X0046318Y0047962D01*
X0045670Y0049085D01*
X0044754Y0050001D01*
X0043632Y0050649D01*
X0042380Y0050984D01*
X0042380Y0050984D02*
G37*
G36*
X0079449Y0022232D02*
X0079449Y0018701D01*
X0082980Y0018701D01*
X0082710Y0019706D01*
X0082166Y0020649D01*
X0081397Y0021418D01*
X0080454Y0021962D01*
X0079449Y0022232D01*
X0079449Y0022232D02*
G37*
G36*
X0078268Y0022232D02*
X0077263Y0021962D01*
X0076320Y0021418D01*
X0075550Y0020649D01*
X0075006Y0019706D01*
X0074737Y0018701D01*
X0078268Y0018701D01*
X0078268Y0022232D01*
X0078268Y0022232D02*
G37*
G36*
X0089377Y0022047D02*
X0088340Y0022047D01*
X0087339Y0021779D01*
X0086441Y0021261D01*
X0085708Y0020528D01*
X0085190Y0019630D01*
X0084921Y0018629D01*
X0084921Y0017592D01*
X0085190Y0016591D01*
X0085708Y0015693D01*
X0086441Y0014960D01*
X0087339Y0014442D01*
X0088340Y0014173D01*
X0089377Y0014173D01*
X0090378Y0014442D01*
X0091276Y0014960D01*
X0092009Y0015693D01*
X0092527Y0016591D01*
X0092795Y0017592D01*
X0092795Y0018629D01*
X0092527Y0019630D01*
X0092009Y0020528D01*
X0091276Y0021261D01*
X0090378Y0021779D01*
X0089377Y0022047D01*
X0089377Y0022047D02*
G37*
G36*
X0078268Y0017520D02*
X0074737Y0017520D01*
X0075006Y0016515D01*
X0075550Y0015572D01*
X0076320Y0014802D01*
X0077263Y0014258D01*
X0078268Y0013989D01*
X0078268Y0017520D01*
X0078268Y0017520D02*
G37*
G36*
X0082980Y0017520D02*
X0079449Y0017520D01*
X0079449Y0013989D01*
X0080454Y0014258D01*
X0081397Y0014802D01*
X0082166Y0015572D01*
X0082710Y0016515D01*
X0082980Y0017520D01*
X0082980Y0017520D02*
G37*
G36*
X0129336Y0041929D02*
X0128144Y0041929D01*
X0126993Y0041621D01*
X0125960Y0041025D01*
X0125117Y0040182D01*
X0124521Y0039149D01*
X0124213Y0037998D01*
X0124213Y0036805D01*
X0124521Y0035654D01*
X0125117Y0034622D01*
X0125960Y0033779D01*
X0126993Y0033183D01*
X0127332Y0033092D01*
X0127332Y0031869D01*
X0126993Y0031778D01*
X0125960Y0031182D01*
X0125117Y0030339D01*
X0124521Y0029307D01*
X0124213Y0028155D01*
X0124213Y0026963D01*
X0124521Y0025811D01*
X0125117Y0024779D01*
X0125960Y0023936D01*
X0126993Y0023340D01*
X0127331Y0023249D01*
X0127331Y0022026D01*
X0126993Y0021936D01*
X0125960Y0021339D01*
X0125117Y0020497D01*
X0124521Y0019464D01*
X0124213Y0018313D01*
X0124213Y0017120D01*
X0124521Y0015969D01*
X0125117Y0014937D01*
X0125960Y0014094D01*
X0126993Y0013498D01*
X0128144Y0013189D01*
X0129336Y0013189D01*
X0130488Y0013498D01*
X0131520Y0014094D01*
X0132363Y0014937D01*
X0132959Y0015969D01*
X0133268Y0017120D01*
X0133268Y0018313D01*
X0132959Y0019464D01*
X0132363Y0020497D01*
X0131520Y0021339D01*
X0130488Y0021936D01*
X0130149Y0022026D01*
X0130149Y0023249D01*
X0130488Y0023340D01*
X0131520Y0023936D01*
X0132363Y0024779D01*
X0132959Y0025811D01*
X0133268Y0026963D01*
X0133268Y0028155D01*
X0132959Y0029307D01*
X0132363Y0030339D01*
X0131520Y0031182D01*
X0130488Y0031778D01*
X0130148Y0031869D01*
X0130148Y0033092D01*
X0130488Y0033183D01*
X0131520Y0033779D01*
X0132363Y0034622D01*
X0132959Y0035654D01*
X0133268Y0036805D01*
X0133268Y0037998D01*
X0132959Y0039149D01*
X0132363Y0040182D01*
X0131520Y0041025D01*
X0130488Y0041621D01*
X0129336Y0041929D01*
X0129336Y0041929D02*
G37*
G36*
X0108076Y0041929D02*
X0106884Y0041929D01*
X0105733Y0041621D01*
X0104700Y0041025D01*
X0103857Y0040182D01*
X0103261Y0039149D01*
X0102953Y0037998D01*
X0102953Y0036805D01*
X0103261Y0035654D01*
X0103857Y0034622D01*
X0104700Y0033779D01*
X0105733Y0033183D01*
X0106072Y0033092D01*
X0106072Y0031869D01*
X0105733Y0031778D01*
X0104700Y0031182D01*
X0103857Y0030339D01*
X0103261Y0029307D01*
X0102953Y0028155D01*
X0102953Y0026963D01*
X0103261Y0025811D01*
X0103857Y0024779D01*
X0104700Y0023936D01*
X0105733Y0023340D01*
X0106072Y0023249D01*
X0106072Y0022026D01*
X0105733Y0021936D01*
X0104700Y0021339D01*
X0103857Y0020497D01*
X0103261Y0019464D01*
X0102953Y0018313D01*
X0102953Y0017120D01*
X0103261Y0015969D01*
X0103857Y0014937D01*
X0104700Y0014094D01*
X0105733Y0013498D01*
X0106884Y0013189D01*
X0108076Y0013189D01*
X0109228Y0013498D01*
X0110260Y0014094D01*
X0111103Y0014937D01*
X0111699Y0015969D01*
X0112008Y0017120D01*
X0112008Y0018313D01*
X0111699Y0019464D01*
X0111103Y0020497D01*
X0110260Y0021339D01*
X0109228Y0021936D01*
X0108889Y0022026D01*
X0108889Y0023249D01*
X0109228Y0023340D01*
X0110260Y0023936D01*
X0111103Y0024779D01*
X0111699Y0025811D01*
X0112008Y0026963D01*
X0112008Y0028155D01*
X0111699Y0029307D01*
X0111103Y0030339D01*
X0110260Y0031182D01*
X0109228Y0031778D01*
X0108889Y0031869D01*
X0108889Y0033092D01*
X0109228Y0033183D01*
X0110260Y0033779D01*
X0111103Y0034622D01*
X0111699Y0035654D01*
X0112008Y0036805D01*
X0112008Y0037998D01*
X0111699Y0039149D01*
X0111103Y0040182D01*
X0110260Y0041025D01*
X0109228Y0041621D01*
X0108076Y0041929D01*
X0108076Y0041929D02*
G37*
G36*
X0225010Y0017913D02*
X0223808Y0017913D01*
X0222629Y0017679D01*
X0221519Y0017219D01*
X0220519Y0016551D01*
X0219669Y0015701D01*
X0219002Y0014702D01*
X0218542Y0013591D01*
X0218307Y0012412D01*
X0218307Y0011210D01*
X0218542Y0010031D01*
X0219002Y0008920D01*
X0219669Y0007921D01*
X0220519Y0007071D01*
X0221519Y0006403D01*
X0222629Y0005943D01*
X0223808Y0005709D01*
X0225010Y0005709D01*
X0226189Y0005943D01*
X0227300Y0006403D01*
X0228299Y0007071D01*
X0229150Y0007921D01*
X0229817Y0008920D01*
X0230277Y0010031D01*
X0230512Y0011210D01*
X0230512Y0012412D01*
X0230277Y0013591D01*
X0229817Y0014702D01*
X0229150Y0015701D01*
X0228299Y0016551D01*
X0227300Y0017219D01*
X0226189Y0017679D01*
X0225010Y0017913D01*
X0225010Y0017913D02*
G37*
G36*
X0012412Y0017913D02*
X0011210Y0017913D01*
X0010031Y0017679D01*
X0008920Y0017219D01*
X0007921Y0016551D01*
X0007071Y0015701D01*
X0006403Y0014702D01*
X0005943Y0013591D01*
X0005709Y0012412D01*
X0005709Y0011210D01*
X0005943Y0010031D01*
X0006403Y0008920D01*
X0007071Y0007921D01*
X0007921Y0007071D01*
X0008920Y0006403D01*
X0010031Y0005943D01*
X0011210Y0005709D01*
X0012412Y0005709D01*
X0013591Y0005943D01*
X0014702Y0006403D01*
X0015701Y0007071D01*
X0016551Y0007921D01*
X0017219Y0008920D01*
X0017679Y0010031D01*
X0017913Y0011210D01*
X0017913Y0012412D01*
X0017679Y0013591D01*
X0017219Y0014702D01*
X0016551Y0015701D01*
X0015701Y0016551D01*
X0014702Y0017219D01*
X0013591Y0017679D01*
X0012412Y0017913D01*
X0012412Y0017913D02*
G37*
%LPD*%
D31*
X0029685Y0082677D02*
D03*
X0019685Y0082677D02*
D03*
D32*
X0009685Y0082677D02*
D03*
D34*
X0078858Y0018110D02*
D03*
X0088858Y0018110D02*
D03*
X0224409Y0139488D02*
D03*
X0224409Y0189488D02*
D03*
X0224409Y0169488D02*
D03*
X0224409Y0159488D02*
D03*
X0224409Y0149488D02*
D03*
X0224409Y0179488D02*
D03*
D35*
X0061417Y0046063D02*
D03*
X0041732Y0046063D02*
D03*
D36*
X0039961Y0148622D02*
D03*
X0039961Y0130905D02*
D03*
X0014370Y0148622D02*
D03*
X0014370Y0130905D02*
D03*
X0128740Y0027559D02*
D03*
X0128740Y0037402D02*
D03*
X0128740Y0017717D02*
D03*
X0107480Y0027559D02*
D03*
X0107480Y0037402D02*
D03*
X0107480Y0017717D02*
D03*
X0113110Y0100394D02*
D03*
X0221535Y0100394D02*
D03*
D37*
X0123110Y0100394D02*
D03*
X0211535Y0100394D02*
D03*
D38*
X0211614Y0076142D02*
D03*
X0211614Y0053386D02*
D03*
D39*
X0209646Y0047441D02*
D03*
X0209646Y0081772D02*
D03*
X0225984Y0047756D02*
D03*
X0225984Y0081772D02*
D03*
D43*
X0140945Y0121203D02*
X0159899Y0140157D01*
X0169291Y0140157D01*
X0150787Y0203150D02*
X0166535Y0187402D01*
X0020866Y0176378D02*
X0047638Y0203150D01*
X0150787Y0203150D01*
X0149213Y0200394D02*
X0165157Y0184449D01*
X0068651Y0151567D02*
X0117478Y0200394D01*
X0149213Y0200394D01*
X0020866Y0184252D02*
X0042126Y0205512D01*
X0160135Y0205512D01*
X0167615Y0198031D01*
X0125591Y0176378D02*
X0125787Y0176181D01*
X0134520Y0176181D01*
X0134717Y0175984D01*
X0068898Y0147638D02*
X0118701Y0197441D01*
X0147457Y0197441D01*
X0148244Y0196653D01*
X0148777Y0196653D01*
X0093068Y0144095D02*
X0114447Y0165474D01*
X0092913Y0144095D02*
X0093068Y0144095D01*
X0114447Y0165474D02*
X0114841Y0165474D01*
X0097244Y0144095D02*
X0097638Y0144095D01*
X0122835Y0169291D01*
X0123228Y0169291D01*
X0165157Y0184449D02*
X0168956Y0184449D01*
X0170727Y0186221D01*
X0171260Y0186221D01*
X0167615Y0198031D02*
X0168110Y0198031D01*
X0176772Y0181890D02*
X0186221Y0172441D01*
X0208190Y0154015D02*
X0221404Y0140801D01*
X0175668Y0154015D02*
X0208190Y0154015D01*
X0172047Y0157087D02*
X0216811Y0157087D01*
X0224409Y0149488D01*
X0179388Y0159488D02*
X0224409Y0159488D01*
X0177953Y0160391D02*
X0178485Y0160391D01*
X0179388Y0159488D01*
X0221404Y0140801D02*
X0221818Y0140801D01*
X0223131Y0139488D02*
X0224409Y0139488D01*
X0221818Y0140801D02*
X0223131Y0139488D01*
D44*
X0134767Y0213508D02*
X0148031Y0226772D01*
X0148031Y0226772D01*
X0134767Y0209405D02*
X0134767Y0213508D01*
X0134767Y0209405D02*
X0134994Y0209179D01*
X0197244Y0201969D02*
X0202362Y0201969D01*
X0196850Y0207480D02*
X0202362Y0201969D01*
X0196850Y0207480D02*
X0196850Y0222047D01*
X0188976Y0210236D02*
X0197244Y0201969D01*
X0196653Y0222244D02*
X0196850Y0222047D01*
X0204060Y0169488D02*
X0224409Y0169488D01*
X0200787Y0172441D02*
X0201107Y0172441D01*
X0204060Y0169488D01*
X0113110Y0093583D02*
X0146850Y0059842D01*
X0113110Y0093583D02*
X0113110Y0100394D01*
X0188189Y0147638D02*
X0204724Y0131102D01*
X0185433Y0150394D02*
X0188189Y0147638D01*
X0041535Y0229331D02*
X0041535Y0233661D01*
X0046457Y0238583D01*
X0204724Y0107480D02*
X0204724Y0131102D01*
X0188287Y0091043D02*
X0204724Y0107480D01*
X0180315Y0081102D02*
X0180315Y0118504D01*
X0191732Y0129921D01*
X0200074Y0129921D01*
X0196653Y0222244D02*
X0196653Y0225394D01*
X0182283Y0239764D02*
X0196653Y0225394D01*
X0167323Y0239764D02*
X0182283Y0239764D01*
X0159055Y0231496D02*
X0167323Y0239764D01*
X0129134Y0045669D02*
X0146112Y0045669D01*
X0164690Y0064247D01*
X0164690Y0064567D01*
X0180709Y0051968D02*
X0180709Y0060541D01*
X0184399Y0063976D02*
X0184827Y0064404D01*
X0184144Y0063976D02*
X0184399Y0063976D01*
X0180709Y0060541D02*
X0184144Y0063976D01*
X0183858Y0077239D02*
X0183858Y0077559D01*
X0185310Y0064567D02*
X0185310Y0075788D01*
X0183858Y0077239D02*
X0185310Y0075788D01*
X0035659Y0223454D02*
X0041535Y0229331D01*
X0200074Y0129921D02*
X0200468Y0129528D01*
X0200787Y0129528D01*
X0110404Y0143081D02*
X0114341Y0143081D01*
X0114567Y0143307D01*
X0102756Y0135433D02*
X0110404Y0143081D01*
X0125758Y0154498D02*
X0125758Y0156861D01*
X0125984Y0157087D01*
X0114567Y0143307D02*
X0125758Y0154498D01*
X0026604Y0223454D02*
X0035659Y0223454D01*
X0026378Y0223228D02*
X0026604Y0223454D01*
X0183858Y0077559D02*
X0194655Y0088355D01*
X0180315Y0081102D02*
X0183858Y0077559D01*
X0140551Y0024016D02*
X0183858Y0024016D01*
X0197244Y0037402D02*
X0197244Y0042913D01*
X0183858Y0024016D02*
X0197244Y0037402D01*
X0180709Y0051968D02*
X0189764Y0042913D01*
X0197236Y0042913D01*
X0221535Y0094764D02*
X0221535Y0100394D01*
X0215127Y0088355D02*
X0221535Y0094764D01*
X0194655Y0088355D02*
X0215127Y0088355D01*
X0102362Y0062598D02*
X0102362Y0068898D01*
X0102362Y0075197D01*
X0141732Y0145276D02*
X0141732Y0187402D01*
X0134646Y0194488D02*
X0141732Y0187402D01*
X0172835Y0164173D02*
X0184252Y0164173D01*
X0159055Y0150394D02*
X0185433Y0150394D01*
X0159055Y0150394D02*
X0172835Y0164173D01*
X0146850Y0150394D02*
X0159055Y0150394D01*
X0184252Y0164173D02*
X0192913Y0172835D01*
X0192913Y0185039D01*
X0200787Y0192913D01*
X0141732Y0145276D02*
X0146850Y0150394D01*
X0200787Y0192913D02*
X0220984Y0192913D01*
X0224409Y0189488D01*
X0169291Y0210236D02*
X0188976Y0210236D01*
X0191732Y0053150D02*
X0191732Y0075984D01*
D48*
X0224409Y0011811D02*
D03*
X0224409Y0220472D02*
D03*
X0011811Y0220472D02*
D03*
X0011811Y0011811D02*
D03*
D49*
X0154331Y0061024D02*
D03*
X0039370Y0098425D02*
D03*
X0039370Y0088583D02*
D03*
X0140945Y0121203D02*
D03*
X0175591Y0126772D02*
D03*
X0172047Y0136614D02*
D03*
X0181890Y0134646D02*
D03*
X0169685Y0120079D02*
D03*
X0162205Y0106299D02*
D03*
X0163386Y0114173D02*
D03*
X0162205Y0097638D02*
D03*
X0162205Y0088583D02*
D03*
X0162205Y0079921D02*
D03*
X0166929Y0072441D02*
D03*
X0166929Y0056693D02*
D03*
X0134994Y0209179D02*
D03*
X0125591Y0144095D02*
D03*
X0202362Y0201969D02*
D03*
X0200787Y0172441D02*
D03*
X0020866Y0184252D02*
D03*
X0020866Y0176378D02*
D03*
X0078740Y0167323D02*
D03*
X0068898Y0167323D02*
D03*
X0059055Y0167323D02*
D03*
X0049213Y0167323D02*
D03*
X0118110Y0216535D02*
D03*
X0118110Y0226378D02*
D03*
X0127953Y0226378D02*
D03*
X0116142Y0170866D02*
D03*
X0127953Y0216535D02*
D03*
X0140157Y0208661D02*
D03*
X0125591Y0176378D02*
D03*
X0099606Y0163386D02*
D03*
X0026772Y0139764D02*
D03*
X0017323Y0161024D02*
D03*
X0037008Y0155512D02*
D03*
X0059055Y0154331D02*
D03*
X0083465Y0152362D02*
D03*
X0068651Y0151567D02*
D03*
X0068898Y0147638D02*
D03*
X0215354Y0184646D02*
D03*
X0198031Y0164173D02*
D03*
X0200000Y0145669D02*
D03*
X0108661Y0085039D02*
D03*
X0097638Y0045276D02*
D03*
X0075197Y0062205D02*
D03*
X0007874Y0124016D02*
D03*
X0085827Y0137008D02*
D03*
X0103937Y0144488D02*
D03*
X0053937Y0122835D02*
D03*
X0068898Y0138189D02*
D03*
X0093701Y0156299D02*
D03*
X0137795Y0226378D02*
D03*
X0189764Y0111417D02*
D03*
X0108268Y0122441D02*
D03*
X0061024Y0145276D02*
D03*
X0175984Y0173622D02*
D03*
X0188976Y0188976D02*
D03*
X0196850Y0029528D02*
D03*
X0187008Y0019685D02*
D03*
X0177165Y0019685D02*
D03*
X0118110Y0009843D02*
D03*
X0108268Y0009843D02*
D03*
X0098425Y0009843D02*
D03*
X0088583Y0009843D02*
D03*
X0078740Y0009843D02*
D03*
X0127953Y0009843D02*
D03*
X0137795Y0009843D02*
D03*
X0177165Y0078740D02*
D03*
X0177165Y0088583D02*
D03*
X0019685Y0206693D02*
D03*
X0046457Y0238583D02*
D03*
X0046457Y0248819D02*
D03*
X0009843Y0196850D02*
D03*
X0009843Y0206693D02*
D03*
X0009843Y0177165D02*
D03*
X0009843Y0187008D02*
D03*
X0009843Y0167323D02*
D03*
X0009843Y0157480D02*
D03*
X0068898Y0196850D02*
D03*
X0078740Y0196850D02*
D03*
X0078740Y0187008D02*
D03*
X0068898Y0187008D02*
D03*
X0059055Y0187008D02*
D03*
X0059055Y0196850D02*
D03*
X0059055Y0216535D02*
D03*
X0088583Y0226378D02*
D03*
X0088583Y0216535D02*
D03*
X0088583Y0196850D02*
D03*
X0088583Y0187008D02*
D03*
X0088583Y0177165D02*
D03*
X0078740Y0177165D02*
D03*
X0068898Y0177165D02*
D03*
X0059055Y0177165D02*
D03*
X0049213Y0177165D02*
D03*
X0049213Y0187008D02*
D03*
X0049213Y0196850D02*
D03*
X0049213Y0216535D02*
D03*
X0049213Y0226378D02*
D03*
X0068898Y0236221D02*
D03*
X0068898Y0226378D02*
D03*
X0078740Y0216535D02*
D03*
X0078740Y0226378D02*
D03*
X0068898Y0216535D02*
D03*
X0059055Y0226378D02*
D03*
X0157480Y0167323D02*
D03*
X0137990Y0128619D02*
D03*
X0137795Y0137795D02*
D03*
X0147638Y0137795D02*
D03*
X0137795Y0088583D02*
D03*
X0088583Y0088583D02*
D03*
X0078740Y0108268D02*
D03*
X0059055Y0098425D02*
D03*
X0068898Y0098425D02*
D03*
X0078740Y0098425D02*
D03*
X0078740Y0127953D02*
D03*
X0078740Y0118110D02*
D03*
X0068898Y0118110D02*
D03*
X0068898Y0108268D02*
D03*
X0059055Y0108268D02*
D03*
X0049213Y0108268D02*
D03*
X0049213Y0098425D02*
D03*
X0049213Y0088583D02*
D03*
X0049213Y0078740D02*
D03*
X0029528Y0049213D02*
D03*
X0029528Y0039370D02*
D03*
X0019685Y0039370D02*
D03*
X0019685Y0049213D02*
D03*
X0019685Y0059055D02*
D03*
X0019685Y0068898D02*
D03*
X0029528Y0068898D02*
D03*
X0029528Y0059055D02*
D03*
X0029528Y0029528D02*
D03*
X0019685Y0029528D02*
D03*
X0009843Y0029528D02*
D03*
X0009843Y0039370D02*
D03*
X0009843Y0049213D02*
D03*
X0009843Y0059055D02*
D03*
X0009843Y0068898D02*
D03*
X0039370Y0078740D02*
D03*
X0039370Y0068898D02*
D03*
X0068898Y0019685D02*
D03*
X0059055Y0019685D02*
D03*
X0049213Y0019685D02*
D03*
X0039370Y0019685D02*
D03*
X0029528Y0019685D02*
D03*
X0029528Y0009843D02*
D03*
X0039370Y0009843D02*
D03*
X0049213Y0009843D02*
D03*
X0059055Y0009843D02*
D03*
X0068898Y0009843D02*
D03*
X0206693Y0029528D02*
D03*
X0206693Y0019685D02*
D03*
X0196850Y0019685D02*
D03*
X0167323Y0019685D02*
D03*
X0157480Y0019685D02*
D03*
X0147638Y0019685D02*
D03*
X0147638Y0009843D02*
D03*
X0157480Y0009843D02*
D03*
X0167323Y0009843D02*
D03*
X0177165Y0009843D02*
D03*
X0187008Y0009843D02*
D03*
X0196850Y0009843D02*
D03*
X0206693Y0009843D02*
D03*
X0216535Y0029528D02*
D03*
X0226378Y0029528D02*
D03*
X0226378Y0039370D02*
D03*
X0226378Y0059055D02*
D03*
X0226378Y0068898D02*
D03*
X0216535Y0127953D02*
D03*
X0226378Y0118110D02*
D03*
X0226378Y0127953D02*
D03*
X0226378Y0206693D02*
D03*
X0216535Y0206693D02*
D03*
X0216535Y0236221D02*
D03*
X0226378Y0236221D02*
D03*
X0147638Y0236221D02*
D03*
X0137795Y0236221D02*
D03*
X0127953Y0236221D02*
D03*
X0118110Y0236221D02*
D03*
X0108268Y0236221D02*
D03*
X0098425Y0236221D02*
D03*
X0059055Y0236221D02*
D03*
X0078740Y0236221D02*
D03*
X0088583Y0236221D02*
D03*
X0029528Y0236221D02*
D03*
X0019685Y0236221D02*
D03*
X0009843Y0236221D02*
D03*
X0226378Y0246063D02*
D03*
X0216535Y0246063D02*
D03*
X0206693Y0246063D02*
D03*
X0187008Y0246063D02*
D03*
X0196850Y0246063D02*
D03*
X0177165Y0246063D02*
D03*
X0167323Y0246063D02*
D03*
X0157480Y0246063D02*
D03*
X0147638Y0246063D02*
D03*
X0137795Y0246063D02*
D03*
X0118110Y0246063D02*
D03*
X0127953Y0246063D02*
D03*
X0108268Y0246063D02*
D03*
X0098425Y0246063D02*
D03*
X0088583Y0246063D02*
D03*
X0078740Y0246063D02*
D03*
X0059055Y0246063D02*
D03*
X0068898Y0246063D02*
D03*
X0029528Y0246063D02*
D03*
X0019685Y0246063D02*
D03*
X0009843Y0246063D02*
D03*
X0125591Y0123622D02*
D03*
X0026378Y0210630D02*
D03*
X0109449Y0052756D02*
D03*
X0064567Y0090551D02*
D03*
X0048031Y0138189D02*
D03*
X0165354Y0130315D02*
D03*
X0159449Y0124016D02*
D03*
X0169291Y0140157D02*
D03*
X0152756Y0101575D02*
D03*
X0153543Y0118110D02*
D03*
X0152756Y0108661D02*
D03*
X0152756Y0094095D02*
D03*
X0152756Y0086614D02*
D03*
X0152756Y0079528D02*
D03*
X0152756Y0070472D02*
D03*
X0159449Y0157283D02*
D03*
X0156102Y0176969D02*
D03*
X0140157Y0194488D02*
D03*
X0182283Y0239764D02*
D03*
X0146850Y0059842D02*
D03*
X0185310Y0064567D02*
D03*
X0164690Y0064567D02*
D03*
X0191732Y0129921D02*
D03*
X0102756Y0135433D02*
D03*
X0159055Y0231496D02*
D03*
X0114841Y0165474D02*
D03*
X0123228Y0169291D02*
D03*
X0125984Y0157087D02*
D03*
X0114567Y0143307D02*
D03*
X0026378Y0223228D02*
D03*
X0200787Y0129528D02*
D03*
X0140551Y0024016D02*
D03*
X0197244Y0042913D02*
D03*
X0180709Y0051968D02*
D03*
X0183858Y0077559D02*
D03*
X0102362Y0075197D02*
D03*
X0102362Y0062598D02*
D03*
X0102362Y0068898D02*
D03*
X0188287Y0091043D02*
D03*
X0148031Y0226772D02*
D03*
X0148777Y0196653D02*
D03*
X0092913Y0144095D02*
D03*
X0171260Y0186221D02*
D03*
X0176772Y0181890D02*
D03*
X0134646Y0194488D02*
D03*
X0166535Y0187402D02*
D03*
X0186221Y0172441D02*
D03*
X0097244Y0144095D02*
D03*
X0141732Y0145276D02*
D03*
X0188189Y0147638D02*
D03*
X0177953Y0160391D02*
D03*
X0175668Y0154015D02*
D03*
X0172047Y0157087D02*
D03*
X0200787Y0192913D02*
D03*
X0168110Y0198031D02*
D03*
X0134717Y0175984D02*
D03*
X0169291Y0210236D02*
D03*
X0196850Y0222047D02*
D03*
X0129134Y0045669D02*
D03*
X0191732Y0053150D02*
D03*
X0191732Y0075984D02*
D03*
M02*
