G04*
G04 #@! TF.GenerationSoftware,Altium Limited,Altium Designer,24.3.1 (35)*
G04*
G04 Layer_Color=65535*
%FSAX25Y25*%
%MOIN*%
G70*
G04*
G04 #@! TF.SameCoordinates,A3C2EEE2-FC71-4F10-AF2F-9764D03318EB*
G04*
G04*
G04 #@! TF.FilePolarity,Positive*
G04*
G01*
G75*
%ADD10C,0.01000*%
%ADD11C,0.00787*%
%ADD12C,0.01575*%
%ADD13C,0.01968*%
G36*
X0179853Y0273908D02*
X0179897Y0273908D01*
X0179995Y0273864D01*
X0180050Y0273842D01*
X0180104Y0273799D01*
X0180115Y0273799D01*
X0180126Y0273777D01*
X0180148Y0273744D01*
X0180181Y0273711D01*
X0180236Y0273602D01*
X0180246Y0273525D01*
X0180257Y0273449D01*
X0180257Y0266946D01*
X0180257Y0266934D01*
X0180257Y0266913D01*
X0180246Y0266869D01*
X0180236Y0266825D01*
X0180192Y0266716D01*
X0180159Y0266650D01*
X0180104Y0266596D01*
X0180093Y0266596D01*
X0180071Y0266574D01*
X0180039Y0266552D01*
X0180006Y0266530D01*
X0179897Y0266486D01*
X0179842Y0266476D01*
X0179776Y0266464D01*
X0179744Y0266464D01*
X0179711Y0266476D01*
X0179667Y0266476D01*
X0179569Y0266508D01*
X0179459Y0266563D01*
X0179448Y0266574D01*
X0179438Y0266585D01*
X0179416Y0266618D01*
X0179394Y0266661D01*
X0179339Y0266771D01*
X0179328Y0266847D01*
X0179317Y0266924D01*
X0179317Y0270082D01*
X0176639Y0270082D01*
X0176639Y0266934D01*
X0176639Y0266924D01*
X0176639Y0266902D01*
X0176629Y0266858D01*
X0176629Y0266814D01*
X0176585Y0266694D01*
X0176552Y0266639D01*
X0176508Y0266585D01*
X0176497Y0266585D01*
X0176487Y0266563D01*
X0176454Y0266552D01*
X0176410Y0266530D01*
X0176301Y0266486D01*
X0176246Y0266476D01*
X0176170Y0266464D01*
X0176137Y0266464D01*
X0176104Y0266476D01*
X0176049Y0266476D01*
X0175940Y0266508D01*
X0175831Y0266574D01*
X0175831Y0266585D01*
X0175809Y0266596D01*
X0175787Y0266629D01*
X0175765Y0266661D01*
X0175743Y0266716D01*
X0175721Y0266781D01*
X0175710Y0266847D01*
X0175699Y0266934D01*
X0175699Y0273438D01*
X0175699Y0273449D01*
X0175699Y0273471D01*
X0175710Y0273503D01*
X0175710Y0273547D01*
X0175754Y0273657D01*
X0175776Y0273711D01*
X0175820Y0273766D01*
X0175831Y0273777D01*
X0175853Y0273788D01*
X0175874Y0273810D01*
X0175918Y0273831D01*
X0176027Y0273875D01*
X0176093Y0273897D01*
X0176202Y0273897D01*
X0176235Y0273886D01*
X0176279Y0273886D01*
X0176377Y0273842D01*
X0176432Y0273820D01*
X0176487Y0273777D01*
X0176497Y0273777D01*
X0176508Y0273755D01*
X0176563Y0273689D01*
X0176596Y0273646D01*
X0176618Y0273591D01*
X0176629Y0273514D01*
X0176639Y0273438D01*
X0176639Y0271011D01*
X0179317Y0271011D01*
X0179317Y0273449D01*
X0179317Y0273460D01*
X0179317Y0273482D01*
X0179328Y0273514D01*
X0179339Y0273558D01*
X0179372Y0273667D01*
X0179405Y0273722D01*
X0179448Y0273777D01*
X0179459Y0273788D01*
X0179470Y0273799D01*
X0179503Y0273820D01*
X0179547Y0273853D01*
X0179656Y0273897D01*
X0179722Y0273908D01*
X0179787Y0273919D01*
X0179820Y0273919D01*
X0179853Y0273908D01*
X0179853Y0273908D02*
G37*
G36*
X0134800Y0273919D02*
X0134843Y0273908D01*
X0134942Y0273864D01*
X0134996Y0273831D01*
X0135051Y0273777D01*
X0135062Y0273766D01*
X0135073Y0273755D01*
X0135095Y0273722D01*
X0135116Y0273678D01*
X0135149Y0273558D01*
X0135171Y0273482D01*
X0135171Y0273405D01*
X0135171Y0266934D01*
X0135171Y0266924D01*
X0135171Y0266902D01*
X0135160Y0266858D01*
X0135160Y0266814D01*
X0135116Y0266694D01*
X0135084Y0266639D01*
X0135040Y0266585D01*
X0135029Y0266585D01*
X0135018Y0266563D01*
X0134985Y0266552D01*
X0134942Y0266530D01*
X0134832Y0266486D01*
X0134778Y0266476D01*
X0134701Y0266464D01*
X0134668Y0266464D01*
X0134646Y0266476D01*
X0134603Y0266476D01*
X0134493Y0266508D01*
X0134384Y0266574D01*
X0134373Y0266585D01*
X0134362Y0266596D01*
X0134340Y0266629D01*
X0134308Y0266661D01*
X0134275Y0266716D01*
X0134253Y0266781D01*
X0134242Y0266847D01*
X0134231Y0266934D01*
X0134231Y0271984D01*
X0132952Y0269623D01*
X0132941Y0269612D01*
X0132920Y0269569D01*
X0132876Y0269503D01*
X0132832Y0269438D01*
X0132766Y0269372D01*
X0132690Y0269306D01*
X0132614Y0269263D01*
X0132526Y0269252D01*
X0132493Y0269252D01*
X0132449Y0269263D01*
X0132395Y0269285D01*
X0132329Y0269317D01*
X0132264Y0269372D01*
X0132198Y0269438D01*
X0132122Y0269525D01*
X0130821Y0271984D01*
X0130821Y0266934D01*
X0130821Y0266924D01*
X0130821Y0266902D01*
X0130810Y0266858D01*
X0130810Y0266814D01*
X0130766Y0266694D01*
X0130734Y0266639D01*
X0130690Y0266585D01*
X0130679Y0266585D01*
X0130668Y0266563D01*
X0130635Y0266552D01*
X0130591Y0266530D01*
X0130482Y0266486D01*
X0130428Y0266476D01*
X0130351Y0266464D01*
X0130318Y0266464D01*
X0130285Y0266476D01*
X0130231Y0266476D01*
X0130121Y0266508D01*
X0130012Y0266574D01*
X0130012Y0266585D01*
X0129990Y0266596D01*
X0129968Y0266629D01*
X0129946Y0266661D01*
X0129925Y0266716D01*
X0129903Y0266781D01*
X0129892Y0266847D01*
X0129881Y0266934D01*
X0129881Y0273405D01*
X0129881Y0273416D01*
X0129881Y0273449D01*
X0129892Y0273493D01*
X0129903Y0273547D01*
X0129936Y0273678D01*
X0129968Y0273733D01*
X0130012Y0273788D01*
X0130023Y0273799D01*
X0130034Y0273810D01*
X0130100Y0273864D01*
X0130187Y0273908D01*
X0130253Y0273919D01*
X0130318Y0273930D01*
X0130340Y0273930D01*
X0130395Y0273919D01*
X0130471Y0273897D01*
X0130548Y0273853D01*
X0130570Y0273842D01*
X0130613Y0273799D01*
X0130679Y0273733D01*
X0130755Y0273624D01*
X0132526Y0270607D01*
X0134275Y0273613D01*
X0134286Y0273624D01*
X0134308Y0273667D01*
X0134340Y0273711D01*
X0134395Y0273777D01*
X0134461Y0273831D01*
X0134537Y0273886D01*
X0134625Y0273919D01*
X0134734Y0273930D01*
X0134767Y0273930D01*
X0134800Y0273919D01*
X0134800Y0273919D02*
G37*
G36*
X0151763Y0273897D02*
X0151806Y0273897D01*
X0151905Y0273853D01*
X0151960Y0273831D01*
X0152014Y0273788D01*
X0152025Y0273788D01*
X0152036Y0273766D01*
X0152058Y0273733D01*
X0152091Y0273700D01*
X0152145Y0273591D01*
X0152156Y0273514D01*
X0152167Y0273438D01*
X0152167Y0268017D01*
X0152167Y0268006D01*
X0152167Y0267984D01*
X0152167Y0267951D01*
X0152156Y0267907D01*
X0152145Y0267787D01*
X0152113Y0267634D01*
X0152058Y0267459D01*
X0151971Y0267284D01*
X0151861Y0267088D01*
X0151708Y0266913D01*
X0151686Y0266891D01*
X0151632Y0266847D01*
X0151533Y0266771D01*
X0151402Y0266694D01*
X0151238Y0266607D01*
X0151052Y0266530D01*
X0150834Y0266486D01*
X0150604Y0266464D01*
X0148768Y0266464D01*
X0148724Y0266476D01*
X0148681Y0266476D01*
X0148560Y0266519D01*
X0148506Y0266541D01*
X0148451Y0266585D01*
X0148451Y0266596D01*
X0148429Y0266618D01*
X0148418Y0266639D01*
X0148396Y0266683D01*
X0148353Y0266792D01*
X0148342Y0266858D01*
X0148331Y0266934D01*
X0148331Y0266946D01*
X0148331Y0266956D01*
X0148342Y0267033D01*
X0148385Y0267131D01*
X0148407Y0267186D01*
X0148451Y0267241D01*
X0148462Y0267251D01*
X0148473Y0267262D01*
X0148506Y0267284D01*
X0148538Y0267317D01*
X0148648Y0267372D01*
X0148724Y0267383D01*
X0148801Y0267394D01*
X0150648Y0267394D01*
X0150692Y0267405D01*
X0150757Y0267415D01*
X0150823Y0267437D01*
X0150899Y0267459D01*
X0150965Y0267503D01*
X0151041Y0267558D01*
X0151052Y0267568D01*
X0151074Y0267590D01*
X0151096Y0267623D01*
X0151140Y0267678D01*
X0151173Y0267743D01*
X0151195Y0267831D01*
X0151216Y0267918D01*
X0151227Y0268017D01*
X0151227Y0269361D01*
X0149096Y0269361D01*
X0149052Y0269372D01*
X0148932Y0269383D01*
X0148790Y0269416D01*
X0148615Y0269470D01*
X0148429Y0269547D01*
X0148243Y0269656D01*
X0148068Y0269809D01*
X0148047Y0269831D01*
X0147992Y0269886D01*
X0147926Y0269984D01*
X0147839Y0270115D01*
X0147751Y0270279D01*
X0147686Y0270465D01*
X0147631Y0270673D01*
X0147609Y0270913D01*
X0147609Y0273438D01*
X0147609Y0273449D01*
X0147609Y0273471D01*
X0147620Y0273503D01*
X0147620Y0273547D01*
X0147664Y0273657D01*
X0147686Y0273722D01*
X0147730Y0273777D01*
X0147741Y0273788D01*
X0147762Y0273799D01*
X0147784Y0273820D01*
X0147828Y0273842D01*
X0147937Y0273886D01*
X0148003Y0273908D01*
X0148112Y0273908D01*
X0148145Y0273897D01*
X0148189Y0273897D01*
X0148287Y0273853D01*
X0148342Y0273831D01*
X0148396Y0273788D01*
X0148407Y0273788D01*
X0148418Y0273766D01*
X0148440Y0273733D01*
X0148473Y0273700D01*
X0148528Y0273591D01*
X0148538Y0273514D01*
X0148549Y0273438D01*
X0148549Y0270913D01*
X0148549Y0270902D01*
X0148549Y0270869D01*
X0148560Y0270815D01*
X0148571Y0270760D01*
X0148593Y0270684D01*
X0148615Y0270607D01*
X0148659Y0270531D01*
X0148713Y0270465D01*
X0148735Y0270454D01*
X0148779Y0270410D01*
X0148845Y0270367D01*
X0148921Y0270323D01*
X0148943Y0270323D01*
X0148997Y0270312D01*
X0149074Y0270301D01*
X0149162Y0270290D01*
X0151227Y0270290D01*
X0151227Y0273438D01*
X0151227Y0273449D01*
X0151227Y0273471D01*
X0151238Y0273503D01*
X0151238Y0273547D01*
X0151282Y0273657D01*
X0151304Y0273711D01*
X0151347Y0273766D01*
X0151358Y0273777D01*
X0151380Y0273788D01*
X0151402Y0273810D01*
X0151446Y0273842D01*
X0151555Y0273886D01*
X0151621Y0273897D01*
X0151697Y0273908D01*
X0151730Y0273908D01*
X0151763Y0273897D01*
X0151763Y0273897D02*
G37*
G36*
X0227169Y0271722D02*
X0227213Y0271722D01*
X0227311Y0271678D01*
X0227366Y0271656D01*
X0227420Y0271613D01*
X0227431Y0271613D01*
X0227442Y0271591D01*
X0227464Y0271558D01*
X0227497Y0271525D01*
X0227551Y0271416D01*
X0227562Y0271339D01*
X0227573Y0271263D01*
X0227573Y0266934D01*
X0227573Y0266924D01*
X0227573Y0266902D01*
X0227562Y0266858D01*
X0227562Y0266814D01*
X0227519Y0266694D01*
X0227486Y0266639D01*
X0227442Y0266585D01*
X0227431Y0266585D01*
X0227420Y0266563D01*
X0227387Y0266552D01*
X0227344Y0266530D01*
X0227235Y0266486D01*
X0227180Y0266476D01*
X0227103Y0266464D01*
X0227070Y0266464D01*
X0227038Y0266476D01*
X0226983Y0266476D01*
X0226874Y0266508D01*
X0226764Y0266574D01*
X0226764Y0266585D01*
X0226743Y0266596D01*
X0226721Y0266629D01*
X0226699Y0266661D01*
X0226677Y0266716D01*
X0226655Y0266781D01*
X0226644Y0266847D01*
X0226633Y0266934D01*
X0226633Y0268640D01*
X0224677Y0268640D01*
X0224677Y0266934D01*
X0224677Y0266924D01*
X0224677Y0266902D01*
X0224666Y0266858D01*
X0224666Y0266814D01*
X0224622Y0266694D01*
X0224589Y0266639D01*
X0224546Y0266585D01*
X0224535Y0266585D01*
X0224524Y0266563D01*
X0224491Y0266552D01*
X0224447Y0266530D01*
X0224338Y0266486D01*
X0224283Y0266476D01*
X0224207Y0266464D01*
X0224174Y0266464D01*
X0224141Y0266476D01*
X0224087Y0266476D01*
X0223977Y0266508D01*
X0223868Y0266574D01*
X0223868Y0266585D01*
X0223846Y0266596D01*
X0223824Y0266629D01*
X0223802Y0266661D01*
X0223781Y0266716D01*
X0223759Y0266781D01*
X0223748Y0266847D01*
X0223737Y0266934D01*
X0223737Y0271263D01*
X0223737Y0271274D01*
X0223737Y0271296D01*
X0223748Y0271328D01*
X0223748Y0271372D01*
X0223792Y0271481D01*
X0223813Y0271547D01*
X0223857Y0271602D01*
X0223868Y0271613D01*
X0223890Y0271623D01*
X0223912Y0271645D01*
X0223955Y0271667D01*
X0224065Y0271711D01*
X0224130Y0271733D01*
X0224240Y0271733D01*
X0224272Y0271722D01*
X0224316Y0271722D01*
X0224414Y0271678D01*
X0224469Y0271656D01*
X0224524Y0271613D01*
X0224535Y0271613D01*
X0224546Y0271591D01*
X0224600Y0271525D01*
X0224655Y0271416D01*
X0224666Y0271350D01*
X0224677Y0271274D01*
X0224677Y0269569D01*
X0226633Y0269569D01*
X0226633Y0271274D01*
X0226633Y0271285D01*
X0226633Y0271306D01*
X0226644Y0271339D01*
X0226644Y0271383D01*
X0226688Y0271481D01*
X0226710Y0271547D01*
X0226753Y0271602D01*
X0226764Y0271613D01*
X0226786Y0271623D01*
X0226808Y0271645D01*
X0226852Y0271667D01*
X0226961Y0271711D01*
X0227027Y0271733D01*
X0227136Y0271733D01*
X0227169Y0271722D01*
X0227169Y0271722D02*
G37*
G36*
X0216840Y0271777D02*
X0216906Y0271766D01*
X0216993Y0271722D01*
X0217059Y0271667D01*
X0217080Y0271656D01*
X0217080Y0271645D01*
X0217124Y0271591D01*
X0217157Y0271525D01*
X0217201Y0271405D01*
X0217201Y0271350D01*
X0217212Y0271306D01*
X0217212Y0271274D01*
X0217212Y0271263D01*
X0217212Y0266934D01*
X0217201Y0266858D01*
X0217190Y0266781D01*
X0217135Y0266672D01*
X0217102Y0266639D01*
X0217080Y0266607D01*
X0217070Y0266596D01*
X0217059Y0266585D01*
X0217004Y0266541D01*
X0216949Y0266519D01*
X0216840Y0266476D01*
X0216807Y0266476D01*
X0216775Y0266464D01*
X0216742Y0266464D01*
X0216665Y0266476D01*
X0216600Y0266486D01*
X0216490Y0266530D01*
X0216447Y0266552D01*
X0216414Y0266563D01*
X0216403Y0266585D01*
X0216392Y0266585D01*
X0216348Y0266639D01*
X0216326Y0266694D01*
X0216283Y0266814D01*
X0216283Y0266858D01*
X0216272Y0266902D01*
X0216272Y0266924D01*
X0216272Y0266934D01*
X0216272Y0270039D01*
X0215321Y0268476D01*
X0215244Y0268399D01*
X0215179Y0268334D01*
X0215113Y0268290D01*
X0215048Y0268268D01*
X0215004Y0268246D01*
X0214960Y0268235D01*
X0214927Y0268235D01*
X0214851Y0268246D01*
X0214774Y0268279D01*
X0214709Y0268323D01*
X0214643Y0268377D01*
X0214599Y0268421D01*
X0214556Y0268465D01*
X0214534Y0268497D01*
X0214523Y0268508D01*
X0213594Y0270039D01*
X0213594Y0266934D01*
X0213583Y0266858D01*
X0213572Y0266781D01*
X0213517Y0266672D01*
X0213485Y0266639D01*
X0213463Y0266607D01*
X0213452Y0266596D01*
X0213441Y0266585D01*
X0213386Y0266541D01*
X0213332Y0266519D01*
X0213222Y0266476D01*
X0213189Y0266476D01*
X0213157Y0266464D01*
X0213124Y0266464D01*
X0213047Y0266476D01*
X0212982Y0266486D01*
X0212872Y0266530D01*
X0212829Y0266552D01*
X0212796Y0266563D01*
X0212785Y0266585D01*
X0212774Y0266585D01*
X0212730Y0266639D01*
X0212708Y0266694D01*
X0212665Y0266814D01*
X0212665Y0266858D01*
X0212654Y0266902D01*
X0212654Y0266924D01*
X0212654Y0266934D01*
X0212654Y0271263D01*
X0212676Y0271416D01*
X0212708Y0271536D01*
X0212730Y0271580D01*
X0212741Y0271613D01*
X0212763Y0271623D01*
X0212763Y0271634D01*
X0212818Y0271689D01*
X0212872Y0271722D01*
X0212971Y0271766D01*
X0213015Y0271777D01*
X0213047Y0271787D01*
X0213080Y0271787D01*
X0213168Y0271777D01*
X0213255Y0271744D01*
X0213321Y0271711D01*
X0213386Y0271667D01*
X0213441Y0271613D01*
X0213474Y0271580D01*
X0213495Y0271547D01*
X0213506Y0271536D01*
X0214927Y0269481D01*
X0216337Y0271525D01*
X0216425Y0271613D01*
X0216501Y0271678D01*
X0216578Y0271722D01*
X0216643Y0271755D01*
X0216698Y0271777D01*
X0216742Y0271787D01*
X0216775Y0271787D01*
X0216840Y0271777D01*
X0216840Y0271777D02*
G37*
G36*
X0167316Y0271777D02*
X0167382Y0271766D01*
X0167469Y0271722D01*
X0167535Y0271667D01*
X0167557Y0271656D01*
X0167557Y0271645D01*
X0167600Y0271591D01*
X0167633Y0271525D01*
X0167677Y0271405D01*
X0167677Y0271350D01*
X0167688Y0271306D01*
X0167688Y0271274D01*
X0167688Y0271263D01*
X0167688Y0266934D01*
X0167677Y0266858D01*
X0167666Y0266781D01*
X0167611Y0266672D01*
X0167578Y0266639D01*
X0167557Y0266607D01*
X0167546Y0266596D01*
X0167535Y0266585D01*
X0167480Y0266541D01*
X0167426Y0266519D01*
X0167316Y0266476D01*
X0167283Y0266476D01*
X0167251Y0266464D01*
X0167218Y0266464D01*
X0167141Y0266476D01*
X0167076Y0266486D01*
X0166966Y0266530D01*
X0166923Y0266552D01*
X0166890Y0266563D01*
X0166879Y0266585D01*
X0166868Y0266585D01*
X0166824Y0266639D01*
X0166803Y0266694D01*
X0166759Y0266814D01*
X0166759Y0266858D01*
X0166748Y0266902D01*
X0166748Y0266924D01*
X0166748Y0266934D01*
X0166748Y0270039D01*
X0165797Y0268476D01*
X0165720Y0268399D01*
X0165655Y0268334D01*
X0165589Y0268290D01*
X0165524Y0268268D01*
X0165480Y0268246D01*
X0165436Y0268235D01*
X0165403Y0268235D01*
X0165327Y0268246D01*
X0165250Y0268279D01*
X0165185Y0268323D01*
X0165119Y0268377D01*
X0165076Y0268421D01*
X0165032Y0268465D01*
X0165010Y0268497D01*
X0164999Y0268508D01*
X0164070Y0270039D01*
X0164070Y0266934D01*
X0164059Y0266858D01*
X0164048Y0266781D01*
X0163994Y0266672D01*
X0163961Y0266639D01*
X0163939Y0266607D01*
X0163928Y0266596D01*
X0163917Y0266585D01*
X0163862Y0266541D01*
X0163808Y0266519D01*
X0163698Y0266476D01*
X0163666Y0266476D01*
X0163633Y0266464D01*
X0163600Y0266464D01*
X0163523Y0266476D01*
X0163458Y0266486D01*
X0163349Y0266530D01*
X0163305Y0266552D01*
X0163272Y0266563D01*
X0163261Y0266585D01*
X0163250Y0266585D01*
X0163207Y0266639D01*
X0163185Y0266694D01*
X0163141Y0266814D01*
X0163141Y0266858D01*
X0163130Y0266902D01*
X0163130Y0266924D01*
X0163130Y0266934D01*
X0163130Y0271263D01*
X0163152Y0271416D01*
X0163185Y0271536D01*
X0163207Y0271580D01*
X0163217Y0271613D01*
X0163239Y0271623D01*
X0163239Y0271634D01*
X0163294Y0271689D01*
X0163349Y0271722D01*
X0163447Y0271766D01*
X0163491Y0271777D01*
X0163523Y0271787D01*
X0163556Y0271787D01*
X0163644Y0271777D01*
X0163731Y0271744D01*
X0163797Y0271711D01*
X0163862Y0271667D01*
X0163917Y0271613D01*
X0163950Y0271580D01*
X0163972Y0271547D01*
X0163983Y0271536D01*
X0165403Y0269481D01*
X0166813Y0271525D01*
X0166901Y0271613D01*
X0166977Y0271678D01*
X0167054Y0271722D01*
X0167120Y0271755D01*
X0167174Y0271777D01*
X0167218Y0271787D01*
X0167251Y0271787D01*
X0167316Y0271777D01*
X0167316Y0271777D02*
G37*
G36*
X0210916Y0271722D02*
X0210960Y0271722D01*
X0211058Y0271678D01*
X0211113Y0271656D01*
X0211167Y0271613D01*
X0211178Y0271613D01*
X0211189Y0271591D01*
X0211211Y0271558D01*
X0211244Y0271525D01*
X0211298Y0271416D01*
X0211310Y0271339D01*
X0211320Y0271263D01*
X0211320Y0265863D01*
X0211320Y0265852D01*
X0211320Y0265831D01*
X0211320Y0265798D01*
X0211310Y0265754D01*
X0211298Y0265634D01*
X0211266Y0265492D01*
X0211211Y0265317D01*
X0211124Y0265131D01*
X0211014Y0264945D01*
X0210861Y0264770D01*
X0210840Y0264749D01*
X0210785Y0264694D01*
X0210686Y0264617D01*
X0210555Y0264541D01*
X0210391Y0264453D01*
X0210206Y0264377D01*
X0209998Y0264322D01*
X0209878Y0264311D01*
X0209757Y0264300D01*
X0208282Y0264300D01*
X0208249Y0264311D01*
X0208205Y0264322D01*
X0208096Y0264366D01*
X0208031Y0264399D01*
X0207965Y0264442D01*
X0207965Y0264453D01*
X0207943Y0264464D01*
X0207932Y0264497D01*
X0207910Y0264541D01*
X0207867Y0264639D01*
X0207856Y0264705D01*
X0207845Y0264770D01*
X0207845Y0264781D01*
X0207845Y0264803D01*
X0207856Y0264836D01*
X0207856Y0264880D01*
X0207888Y0264989D01*
X0207954Y0265098D01*
X0207965Y0265109D01*
X0207976Y0265120D01*
X0208009Y0265142D01*
X0208041Y0265164D01*
X0208096Y0265186D01*
X0208162Y0265208D01*
X0208227Y0265229D01*
X0209801Y0265229D01*
X0209845Y0265240D01*
X0209910Y0265251D01*
X0209976Y0265273D01*
X0210052Y0265306D01*
X0210129Y0265350D01*
X0210195Y0265404D01*
X0210206Y0265415D01*
X0210227Y0265437D01*
X0210249Y0265470D01*
X0210293Y0265525D01*
X0210326Y0265590D01*
X0210348Y0265667D01*
X0210369Y0265754D01*
X0210380Y0265852D01*
X0210380Y0266464D01*
X0208970Y0266464D01*
X0208927Y0266476D01*
X0208806Y0266486D01*
X0208664Y0266519D01*
X0208489Y0266574D01*
X0208304Y0266650D01*
X0208118Y0266760D01*
X0207943Y0266913D01*
X0207921Y0266934D01*
X0207867Y0266989D01*
X0207801Y0267088D01*
X0207714Y0267219D01*
X0207626Y0267383D01*
X0207560Y0267568D01*
X0207506Y0267776D01*
X0207484Y0268017D01*
X0207484Y0271263D01*
X0207484Y0271274D01*
X0207484Y0271296D01*
X0207495Y0271328D01*
X0207495Y0271372D01*
X0207539Y0271481D01*
X0207560Y0271547D01*
X0207604Y0271602D01*
X0207615Y0271613D01*
X0207637Y0271623D01*
X0207659Y0271645D01*
X0207703Y0271667D01*
X0207812Y0271711D01*
X0207877Y0271733D01*
X0207987Y0271733D01*
X0208019Y0271722D01*
X0208063Y0271722D01*
X0208162Y0271678D01*
X0208216Y0271656D01*
X0208271Y0271613D01*
X0208282Y0271613D01*
X0208293Y0271591D01*
X0208315Y0271558D01*
X0208347Y0271525D01*
X0208402Y0271416D01*
X0208413Y0271339D01*
X0208424Y0271263D01*
X0208424Y0268017D01*
X0208424Y0268006D01*
X0208424Y0267973D01*
X0208435Y0267918D01*
X0208446Y0267864D01*
X0208468Y0267787D01*
X0208489Y0267711D01*
X0208533Y0267634D01*
X0208588Y0267568D01*
X0208610Y0267558D01*
X0208653Y0267514D01*
X0208719Y0267470D01*
X0208796Y0267426D01*
X0208817Y0267426D01*
X0208872Y0267415D01*
X0208949Y0267405D01*
X0209036Y0267394D01*
X0210380Y0267394D01*
X0210380Y0271263D01*
X0210380Y0271274D01*
X0210380Y0271296D01*
X0210391Y0271328D01*
X0210391Y0271372D01*
X0210435Y0271481D01*
X0210457Y0271547D01*
X0210501Y0271602D01*
X0210512Y0271613D01*
X0210533Y0271623D01*
X0210555Y0271645D01*
X0210599Y0271667D01*
X0210708Y0271711D01*
X0210774Y0271733D01*
X0210883Y0271733D01*
X0210916Y0271722D01*
X0210916Y0271722D02*
G37*
G36*
X0161392Y0271722D02*
X0161436Y0271722D01*
X0161534Y0271678D01*
X0161589Y0271656D01*
X0161644Y0271613D01*
X0161654Y0271613D01*
X0161665Y0271591D01*
X0161687Y0271558D01*
X0161720Y0271525D01*
X0161775Y0271416D01*
X0161786Y0271339D01*
X0161797Y0271263D01*
X0161797Y0266934D01*
X0161797Y0266913D01*
X0161786Y0266858D01*
X0161775Y0266781D01*
X0161742Y0266705D01*
X0161676Y0266618D01*
X0161589Y0266541D01*
X0161480Y0266486D01*
X0161403Y0266476D01*
X0161316Y0266464D01*
X0159447Y0266464D01*
X0159403Y0266476D01*
X0159283Y0266486D01*
X0159141Y0266519D01*
X0158966Y0266574D01*
X0158780Y0266650D01*
X0158594Y0266760D01*
X0158419Y0266913D01*
X0158397Y0266934D01*
X0158343Y0266989D01*
X0158277Y0267088D01*
X0158190Y0267219D01*
X0158102Y0267383D01*
X0158037Y0267568D01*
X0157982Y0267776D01*
X0157960Y0268017D01*
X0157960Y0271263D01*
X0157960Y0271274D01*
X0157960Y0271296D01*
X0157971Y0271328D01*
X0157971Y0271372D01*
X0158015Y0271481D01*
X0158037Y0271547D01*
X0158080Y0271602D01*
X0158091Y0271613D01*
X0158113Y0271623D01*
X0158135Y0271645D01*
X0158179Y0271667D01*
X0158288Y0271711D01*
X0158354Y0271733D01*
X0158463Y0271733D01*
X0158496Y0271722D01*
X0158539Y0271722D01*
X0158638Y0271678D01*
X0158692Y0271656D01*
X0158747Y0271613D01*
X0158758Y0271613D01*
X0158769Y0271591D01*
X0158791Y0271558D01*
X0158824Y0271525D01*
X0158878Y0271416D01*
X0158889Y0271339D01*
X0158900Y0271263D01*
X0158900Y0268017D01*
X0158900Y0268006D01*
X0158900Y0267973D01*
X0158911Y0267918D01*
X0158922Y0267864D01*
X0158944Y0267787D01*
X0158966Y0267711D01*
X0159009Y0267634D01*
X0159064Y0267568D01*
X0159086Y0267558D01*
X0159130Y0267514D01*
X0159195Y0267470D01*
X0159272Y0267426D01*
X0159294Y0267426D01*
X0159348Y0267415D01*
X0159425Y0267405D01*
X0159512Y0267394D01*
X0160857Y0267394D01*
X0160857Y0271263D01*
X0160857Y0271274D01*
X0160857Y0271296D01*
X0160868Y0271328D01*
X0160868Y0271372D01*
X0160911Y0271481D01*
X0160933Y0271547D01*
X0160977Y0271602D01*
X0160988Y0271613D01*
X0161010Y0271623D01*
X0161031Y0271645D01*
X0161075Y0271667D01*
X0161185Y0271711D01*
X0161250Y0271733D01*
X0161359Y0271733D01*
X0161392Y0271722D01*
X0161392Y0271722D02*
G37*
G36*
X0232339Y0271722D02*
X0232415Y0271711D01*
X0232503Y0271678D01*
X0232590Y0271623D01*
X0232667Y0271536D01*
X0232721Y0271416D01*
X0232743Y0271350D01*
X0232743Y0271263D01*
X0232743Y0268027D01*
X0232743Y0268017D01*
X0232743Y0267995D01*
X0232754Y0267951D01*
X0232754Y0267907D01*
X0232798Y0267776D01*
X0232820Y0267711D01*
X0232863Y0267634D01*
X0232863Y0267623D01*
X0232885Y0267601D01*
X0232940Y0267536D01*
X0233038Y0267437D01*
X0233158Y0267361D01*
X0233170Y0267350D01*
X0233202Y0267339D01*
X0233257Y0267306D01*
X0233312Y0267262D01*
X0233366Y0267197D01*
X0233421Y0267131D01*
X0233454Y0267033D01*
X0233465Y0266934D01*
X0233465Y0266924D01*
X0233465Y0266902D01*
X0233454Y0266869D01*
X0233443Y0266814D01*
X0233410Y0266705D01*
X0233366Y0266650D01*
X0233323Y0266596D01*
X0233301Y0266574D01*
X0233246Y0266530D01*
X0233137Y0266486D01*
X0233071Y0266476D01*
X0232995Y0266464D01*
X0232973Y0266464D01*
X0232929Y0266476D01*
X0232863Y0266486D01*
X0232787Y0266508D01*
X0232776Y0266519D01*
X0232732Y0266530D01*
X0232667Y0266574D01*
X0232590Y0266618D01*
X0232503Y0266672D01*
X0232404Y0266749D01*
X0232328Y0266836D01*
X0232251Y0266934D01*
X0232251Y0266924D01*
X0232229Y0266902D01*
X0232208Y0266869D01*
X0232164Y0266825D01*
X0232109Y0266771D01*
X0232033Y0266716D01*
X0231934Y0266661D01*
X0231825Y0266607D01*
X0231814Y0266596D01*
X0231770Y0266585D01*
X0231705Y0266563D01*
X0231628Y0266541D01*
X0231530Y0266508D01*
X0231421Y0266486D01*
X0231300Y0266476D01*
X0231180Y0266464D01*
X0230393Y0266464D01*
X0230349Y0266476D01*
X0230229Y0266486D01*
X0230087Y0266519D01*
X0229912Y0266574D01*
X0229727Y0266650D01*
X0229541Y0266760D01*
X0229366Y0266913D01*
X0229344Y0266934D01*
X0229289Y0266989D01*
X0229224Y0267088D01*
X0229136Y0267219D01*
X0229049Y0267383D01*
X0228983Y0267568D01*
X0228929Y0267776D01*
X0228907Y0268017D01*
X0228907Y0270181D01*
X0228907Y0270192D01*
X0228907Y0270214D01*
X0228907Y0270246D01*
X0228918Y0270290D01*
X0228929Y0270410D01*
X0228961Y0270563D01*
X0229016Y0270727D01*
X0229093Y0270913D01*
X0229202Y0271099D01*
X0229355Y0271274D01*
X0229377Y0271296D01*
X0229442Y0271350D01*
X0229530Y0271416D01*
X0229661Y0271503D01*
X0229825Y0271591D01*
X0230011Y0271656D01*
X0230229Y0271711D01*
X0230459Y0271733D01*
X0232284Y0271733D01*
X0232339Y0271722D01*
X0232339Y0271722D02*
G37*
G36*
X0221999Y0271722D02*
X0222076Y0271711D01*
X0222163Y0271678D01*
X0222250Y0271623D01*
X0222327Y0271536D01*
X0222382Y0271416D01*
X0222403Y0271350D01*
X0222403Y0271263D01*
X0222403Y0268027D01*
X0222403Y0268017D01*
X0222403Y0267995D01*
X0222414Y0267951D01*
X0222414Y0267907D01*
X0222458Y0267776D01*
X0222480Y0267711D01*
X0222524Y0267634D01*
X0222524Y0267623D01*
X0222546Y0267601D01*
X0222600Y0267536D01*
X0222698Y0267437D01*
X0222819Y0267361D01*
X0222830Y0267350D01*
X0222863Y0267339D01*
X0222917Y0267306D01*
X0222972Y0267262D01*
X0223026Y0267197D01*
X0223081Y0267131D01*
X0223114Y0267033D01*
X0223125Y0266934D01*
X0223125Y0266924D01*
X0223125Y0266902D01*
X0223114Y0266869D01*
X0223103Y0266814D01*
X0223070Y0266705D01*
X0223026Y0266650D01*
X0222983Y0266596D01*
X0222961Y0266574D01*
X0222906Y0266530D01*
X0222797Y0266486D01*
X0222731Y0266476D01*
X0222655Y0266464D01*
X0222633Y0266464D01*
X0222589Y0266476D01*
X0222524Y0266486D01*
X0222447Y0266508D01*
X0222436Y0266519D01*
X0222393Y0266530D01*
X0222327Y0266574D01*
X0222250Y0266618D01*
X0222163Y0266672D01*
X0222065Y0266749D01*
X0221988Y0266836D01*
X0221912Y0266934D01*
X0221912Y0266924D01*
X0221890Y0266902D01*
X0221868Y0266869D01*
X0221824Y0266825D01*
X0221769Y0266771D01*
X0221693Y0266716D01*
X0221595Y0266661D01*
X0221485Y0266607D01*
X0221474Y0266596D01*
X0221431Y0266585D01*
X0221365Y0266563D01*
X0221288Y0266541D01*
X0221190Y0266508D01*
X0221081Y0266486D01*
X0220961Y0266476D01*
X0220840Y0266464D01*
X0220054Y0266464D01*
X0220010Y0266476D01*
X0219889Y0266486D01*
X0219747Y0266519D01*
X0219572Y0266574D01*
X0219387Y0266650D01*
X0219201Y0266760D01*
X0219026Y0266913D01*
X0219004Y0266934D01*
X0218950Y0266989D01*
X0218884Y0267088D01*
X0218796Y0267219D01*
X0218709Y0267383D01*
X0218643Y0267568D01*
X0218589Y0267776D01*
X0218567Y0268017D01*
X0218567Y0270181D01*
X0218567Y0270192D01*
X0218567Y0270214D01*
X0218567Y0270246D01*
X0218578Y0270290D01*
X0218589Y0270410D01*
X0218622Y0270563D01*
X0218676Y0270727D01*
X0218753Y0270913D01*
X0218862Y0271099D01*
X0219015Y0271274D01*
X0219037Y0271296D01*
X0219103Y0271350D01*
X0219190Y0271416D01*
X0219321Y0271503D01*
X0219485Y0271591D01*
X0219671Y0271656D01*
X0219889Y0271711D01*
X0220119Y0271733D01*
X0221944Y0271733D01*
X0221999Y0271722D01*
X0221999Y0271722D02*
G37*
G36*
X0205746Y0271722D02*
X0205823Y0271711D01*
X0205910Y0271678D01*
X0205997Y0271623D01*
X0206074Y0271536D01*
X0206129Y0271416D01*
X0206151Y0271350D01*
X0206151Y0271263D01*
X0206151Y0268027D01*
X0206151Y0268017D01*
X0206151Y0267995D01*
X0206161Y0267951D01*
X0206161Y0267907D01*
X0206205Y0267776D01*
X0206227Y0267711D01*
X0206271Y0267634D01*
X0206271Y0267623D01*
X0206293Y0267601D01*
X0206347Y0267536D01*
X0206446Y0267437D01*
X0206566Y0267361D01*
X0206577Y0267350D01*
X0206610Y0267339D01*
X0206664Y0267306D01*
X0206719Y0267262D01*
X0206773Y0267197D01*
X0206828Y0267131D01*
X0206861Y0267033D01*
X0206872Y0266934D01*
X0206872Y0266924D01*
X0206872Y0266902D01*
X0206861Y0266869D01*
X0206850Y0266814D01*
X0206817Y0266705D01*
X0206773Y0266650D01*
X0206730Y0266596D01*
X0206708Y0266574D01*
X0206653Y0266530D01*
X0206544Y0266486D01*
X0206478Y0266476D01*
X0206402Y0266464D01*
X0206380Y0266464D01*
X0206336Y0266476D01*
X0206271Y0266486D01*
X0206194Y0266508D01*
X0206183Y0266519D01*
X0206140Y0266530D01*
X0206074Y0266574D01*
X0205997Y0266618D01*
X0205910Y0266672D01*
X0205812Y0266749D01*
X0205735Y0266836D01*
X0205659Y0266934D01*
X0205659Y0266924D01*
X0205637Y0266902D01*
X0205615Y0266869D01*
X0205571Y0266825D01*
X0205517Y0266771D01*
X0205440Y0266716D01*
X0205342Y0266661D01*
X0205232Y0266607D01*
X0205222Y0266596D01*
X0205178Y0266585D01*
X0205112Y0266563D01*
X0205036Y0266541D01*
X0204937Y0266508D01*
X0204828Y0266486D01*
X0204708Y0266476D01*
X0204588Y0266464D01*
X0203801Y0266464D01*
X0203757Y0266476D01*
X0203637Y0266486D01*
X0203495Y0266519D01*
X0203320Y0266574D01*
X0203134Y0266650D01*
X0202948Y0266760D01*
X0202773Y0266913D01*
X0202751Y0266934D01*
X0202697Y0266989D01*
X0202631Y0267088D01*
X0202544Y0267219D01*
X0202456Y0267383D01*
X0202391Y0267568D01*
X0202336Y0267776D01*
X0202314Y0268017D01*
X0202314Y0270181D01*
X0202314Y0270192D01*
X0202314Y0270214D01*
X0202314Y0270246D01*
X0202325Y0270290D01*
X0202336Y0270410D01*
X0202369Y0270563D01*
X0202423Y0270727D01*
X0202500Y0270913D01*
X0202609Y0271099D01*
X0202762Y0271274D01*
X0202784Y0271296D01*
X0202850Y0271350D01*
X0202937Y0271416D01*
X0203068Y0271503D01*
X0203232Y0271591D01*
X0203418Y0271656D01*
X0203637Y0271711D01*
X0203866Y0271733D01*
X0205691Y0271733D01*
X0205746Y0271722D01*
X0205746Y0271722D02*
G37*
G36*
X0199822Y0273897D02*
X0199877Y0273886D01*
X0199975Y0273842D01*
X0200030Y0273810D01*
X0200084Y0273755D01*
X0200095Y0273744D01*
X0200106Y0273733D01*
X0200161Y0273667D01*
X0200205Y0273569D01*
X0200216Y0273514D01*
X0200226Y0273449D01*
X0200226Y0273438D01*
X0200226Y0273416D01*
X0200216Y0273394D01*
X0200216Y0273350D01*
X0200172Y0273241D01*
X0200150Y0273186D01*
X0200106Y0273132D01*
X0200106Y0273121D01*
X0200084Y0273110D01*
X0200062Y0273088D01*
X0200019Y0273055D01*
X0199975Y0273023D01*
X0199909Y0273001D01*
X0199844Y0272990D01*
X0199756Y0272979D01*
X0197341Y0272979D01*
X0197341Y0271011D01*
X0199461Y0271011D01*
X0199505Y0271001D01*
X0199625Y0270990D01*
X0199767Y0270957D01*
X0199942Y0270902D01*
X0200128Y0270815D01*
X0200314Y0270705D01*
X0200489Y0270552D01*
X0200500Y0270552D01*
X0200511Y0270531D01*
X0200565Y0270476D01*
X0200642Y0270377D01*
X0200729Y0270246D01*
X0200806Y0270093D01*
X0200882Y0269907D01*
X0200937Y0269689D01*
X0200959Y0269580D01*
X0200959Y0269459D01*
X0200959Y0268017D01*
X0200959Y0268006D01*
X0200959Y0267984D01*
X0200959Y0267951D01*
X0200948Y0267907D01*
X0200937Y0267787D01*
X0200904Y0267634D01*
X0200850Y0267459D01*
X0200762Y0267284D01*
X0200653Y0267088D01*
X0200500Y0266913D01*
X0200478Y0266891D01*
X0200423Y0266847D01*
X0200325Y0266771D01*
X0200194Y0266694D01*
X0200030Y0266607D01*
X0199844Y0266530D01*
X0199625Y0266486D01*
X0199396Y0266464D01*
X0196849Y0266464D01*
X0196794Y0266476D01*
X0196718Y0266486D01*
X0196641Y0266519D01*
X0196554Y0266585D01*
X0196477Y0266661D01*
X0196423Y0266781D01*
X0196412Y0266847D01*
X0196401Y0266934D01*
X0196401Y0273438D01*
X0196401Y0273449D01*
X0196401Y0273460D01*
X0196412Y0273514D01*
X0196423Y0273591D01*
X0196456Y0273678D01*
X0196521Y0273755D01*
X0196598Y0273831D01*
X0196718Y0273886D01*
X0196783Y0273908D01*
X0199789Y0273908D01*
X0199822Y0273897D01*
X0199822Y0273897D02*
G37*
G36*
X0190313Y0267372D02*
X0190411Y0267339D01*
X0190466Y0267295D01*
X0190521Y0267251D01*
X0190532Y0267241D01*
X0190542Y0267230D01*
X0190608Y0267164D01*
X0190663Y0267066D01*
X0190674Y0267000D01*
X0190684Y0266934D01*
X0190684Y0266924D01*
X0190684Y0266902D01*
X0190674Y0266869D01*
X0190663Y0266825D01*
X0190630Y0266727D01*
X0190586Y0266661D01*
X0190542Y0266607D01*
X0190532Y0266596D01*
X0190521Y0266585D01*
X0190455Y0266541D01*
X0190346Y0266486D01*
X0190280Y0266476D01*
X0190215Y0266464D01*
X0190182Y0266464D01*
X0190138Y0266476D01*
X0190094Y0266486D01*
X0189985Y0266519D01*
X0189930Y0266552D01*
X0189876Y0266596D01*
X0189876Y0266607D01*
X0189854Y0266618D01*
X0189832Y0266650D01*
X0189810Y0266694D01*
X0189766Y0266803D01*
X0189755Y0266869D01*
X0189745Y0266934D01*
X0189745Y0266946D01*
X0189745Y0266967D01*
X0189755Y0267000D01*
X0189766Y0267044D01*
X0189799Y0267142D01*
X0189832Y0267197D01*
X0189876Y0267251D01*
X0189887Y0267262D01*
X0189898Y0267273D01*
X0189930Y0267295D01*
X0189963Y0267328D01*
X0190073Y0267372D01*
X0190138Y0267383D01*
X0190215Y0267394D01*
X0190236Y0267394D01*
X0190313Y0267372D01*
X0190313Y0267372D02*
G37*
G36*
X0186936Y0273897D02*
X0187056Y0273886D01*
X0187209Y0273853D01*
X0187384Y0273799D01*
X0187569Y0273711D01*
X0187755Y0273602D01*
X0187930Y0273449D01*
X0187952Y0273427D01*
X0188007Y0273372D01*
X0188072Y0273274D01*
X0188160Y0273143D01*
X0188247Y0272979D01*
X0188313Y0272793D01*
X0188367Y0272585D01*
X0188389Y0272356D01*
X0188389Y0268017D01*
X0188389Y0268006D01*
X0188389Y0267984D01*
X0188389Y0267951D01*
X0188378Y0267907D01*
X0188367Y0267787D01*
X0188335Y0267634D01*
X0188280Y0267459D01*
X0188192Y0267284D01*
X0188083Y0267088D01*
X0187930Y0266913D01*
X0187908Y0266891D01*
X0187854Y0266847D01*
X0187755Y0266771D01*
X0187624Y0266694D01*
X0187460Y0266607D01*
X0187274Y0266530D01*
X0187056Y0266486D01*
X0186826Y0266464D01*
X0184269Y0266464D01*
X0184225Y0266476D01*
X0184181Y0266476D01*
X0184061Y0266519D01*
X0184006Y0266541D01*
X0183952Y0266585D01*
X0183952Y0266596D01*
X0183930Y0266618D01*
X0183919Y0266639D01*
X0183897Y0266683D01*
X0183853Y0266792D01*
X0183842Y0266858D01*
X0183831Y0266934D01*
X0183831Y0266946D01*
X0183831Y0266956D01*
X0183842Y0267033D01*
X0183886Y0267131D01*
X0183908Y0267186D01*
X0183952Y0267241D01*
X0183963Y0267251D01*
X0183974Y0267262D01*
X0184006Y0267284D01*
X0184039Y0267317D01*
X0184148Y0267372D01*
X0184225Y0267383D01*
X0184301Y0267394D01*
X0186870Y0267394D01*
X0186914Y0267405D01*
X0186979Y0267415D01*
X0187045Y0267437D01*
X0187121Y0267459D01*
X0187187Y0267503D01*
X0187264Y0267558D01*
X0187274Y0267568D01*
X0187296Y0267590D01*
X0187318Y0267623D01*
X0187362Y0267678D01*
X0187395Y0267743D01*
X0187417Y0267831D01*
X0187438Y0267918D01*
X0187449Y0268017D01*
X0187449Y0270082D01*
X0185711Y0270082D01*
X0185668Y0270093D01*
X0185624Y0270093D01*
X0185515Y0270137D01*
X0185460Y0270159D01*
X0185405Y0270203D01*
X0185405Y0270214D01*
X0185383Y0270235D01*
X0185362Y0270257D01*
X0185340Y0270301D01*
X0185296Y0270410D01*
X0185285Y0270476D01*
X0185274Y0270552D01*
X0185274Y0270563D01*
X0185274Y0270574D01*
X0185285Y0270651D01*
X0185329Y0270749D01*
X0185351Y0270804D01*
X0185394Y0270858D01*
X0185405Y0270869D01*
X0185416Y0270880D01*
X0185449Y0270902D01*
X0185482Y0270935D01*
X0185591Y0270990D01*
X0185668Y0271001D01*
X0185744Y0271011D01*
X0187449Y0271011D01*
X0187449Y0272356D01*
X0187449Y0272367D01*
X0187449Y0272399D01*
X0187438Y0272443D01*
X0187427Y0272509D01*
X0187406Y0272574D01*
X0187373Y0272651D01*
X0187329Y0272727D01*
X0187274Y0272793D01*
X0187264Y0272804D01*
X0187242Y0272826D01*
X0187209Y0272848D01*
X0187154Y0272891D01*
X0187089Y0272924D01*
X0187012Y0272946D01*
X0186925Y0272968D01*
X0186826Y0272979D01*
X0184269Y0272979D01*
X0184225Y0272990D01*
X0184181Y0272990D01*
X0184061Y0273033D01*
X0184006Y0273055D01*
X0183952Y0273099D01*
X0183952Y0273110D01*
X0183930Y0273132D01*
X0183919Y0273165D01*
X0183897Y0273208D01*
X0183853Y0273318D01*
X0183842Y0273383D01*
X0183831Y0273449D01*
X0183831Y0273460D01*
X0183831Y0273471D01*
X0183842Y0273536D01*
X0183875Y0273635D01*
X0183941Y0273744D01*
X0183952Y0273755D01*
X0183963Y0273766D01*
X0183995Y0273799D01*
X0184028Y0273831D01*
X0184083Y0273853D01*
X0184148Y0273886D01*
X0184214Y0273897D01*
X0184301Y0273908D01*
X0186892Y0273908D01*
X0186936Y0273897D01*
X0186936Y0273897D02*
G37*
G36*
X0182181Y0267372D02*
X0182279Y0267339D01*
X0182334Y0267295D01*
X0182389Y0267251D01*
X0182400Y0267241D01*
X0182411Y0267230D01*
X0182476Y0267164D01*
X0182531Y0267066D01*
X0182542Y0267000D01*
X0182553Y0266934D01*
X0182553Y0266924D01*
X0182553Y0266902D01*
X0182542Y0266869D01*
X0182531Y0266825D01*
X0182498Y0266727D01*
X0182454Y0266661D01*
X0182411Y0266607D01*
X0182400Y0266596D01*
X0182389Y0266585D01*
X0182323Y0266541D01*
X0182214Y0266486D01*
X0182148Y0266476D01*
X0182083Y0266464D01*
X0182050Y0266464D01*
X0182006Y0266476D01*
X0181962Y0266486D01*
X0181853Y0266519D01*
X0181799Y0266552D01*
X0181744Y0266596D01*
X0181744Y0266607D01*
X0181722Y0266618D01*
X0181700Y0266650D01*
X0181678Y0266694D01*
X0181634Y0266803D01*
X0181624Y0266869D01*
X0181613Y0266934D01*
X0181613Y0266946D01*
X0181613Y0266967D01*
X0181624Y0267000D01*
X0181634Y0267044D01*
X0181667Y0267142D01*
X0181700Y0267197D01*
X0181744Y0267251D01*
X0181755Y0267262D01*
X0181766Y0267273D01*
X0181799Y0267295D01*
X0181831Y0267328D01*
X0181941Y0267372D01*
X0182006Y0267383D01*
X0182083Y0267394D01*
X0182105Y0267394D01*
X0182181Y0267372D01*
X0182181Y0267372D02*
G37*
G36*
X0169612Y0267372D02*
X0169710Y0267339D01*
X0169764Y0267295D01*
X0169819Y0267251D01*
X0169830Y0267241D01*
X0169841Y0267230D01*
X0169907Y0267164D01*
X0169961Y0267066D01*
X0169972Y0267000D01*
X0169983Y0266934D01*
X0169983Y0266924D01*
X0169983Y0266902D01*
X0169972Y0266869D01*
X0169961Y0266825D01*
X0169929Y0266727D01*
X0169885Y0266661D01*
X0169841Y0266607D01*
X0169830Y0266596D01*
X0169819Y0266585D01*
X0169754Y0266541D01*
X0169644Y0266486D01*
X0169579Y0266476D01*
X0169513Y0266464D01*
X0169480Y0266464D01*
X0169437Y0266476D01*
X0169393Y0266486D01*
X0169284Y0266519D01*
X0169229Y0266552D01*
X0169174Y0266596D01*
X0169174Y0266607D01*
X0169152Y0266618D01*
X0169131Y0266650D01*
X0169109Y0266694D01*
X0169065Y0266803D01*
X0169054Y0266869D01*
X0169043Y0266934D01*
X0169043Y0266946D01*
X0169043Y0266967D01*
X0169054Y0267000D01*
X0169065Y0267044D01*
X0169098Y0267142D01*
X0169131Y0267197D01*
X0169174Y0267251D01*
X0169185Y0267262D01*
X0169196Y0267273D01*
X0169229Y0267295D01*
X0169262Y0267328D01*
X0169371Y0267372D01*
X0169437Y0267383D01*
X0169513Y0267394D01*
X0169535Y0267394D01*
X0169612Y0267372D01*
X0169612Y0267372D02*
G37*
G36*
X0145839Y0273897D02*
X0145893Y0273886D01*
X0145992Y0273842D01*
X0146046Y0273810D01*
X0146101Y0273755D01*
X0146112Y0273744D01*
X0146123Y0273733D01*
X0146178Y0273667D01*
X0146221Y0273569D01*
X0146232Y0273514D01*
X0146243Y0273449D01*
X0146243Y0273438D01*
X0146243Y0273416D01*
X0146232Y0273394D01*
X0146232Y0273350D01*
X0146188Y0273241D01*
X0146167Y0273186D01*
X0146123Y0273132D01*
X0146123Y0273121D01*
X0146101Y0273110D01*
X0146068Y0273088D01*
X0146036Y0273055D01*
X0145926Y0273001D01*
X0145850Y0272990D01*
X0145773Y0272979D01*
X0144440Y0272979D01*
X0144440Y0266934D01*
X0144440Y0266924D01*
X0144440Y0266902D01*
X0144429Y0266858D01*
X0144429Y0266814D01*
X0144385Y0266694D01*
X0144352Y0266639D01*
X0144309Y0266585D01*
X0144298Y0266585D01*
X0144287Y0266563D01*
X0144254Y0266552D01*
X0144210Y0266530D01*
X0144101Y0266486D01*
X0144046Y0266476D01*
X0143970Y0266464D01*
X0143937Y0266464D01*
X0143904Y0266476D01*
X0143850Y0266476D01*
X0143740Y0266508D01*
X0143631Y0266574D01*
X0143631Y0266585D01*
X0143609Y0266596D01*
X0143587Y0266629D01*
X0143565Y0266661D01*
X0143544Y0266716D01*
X0143522Y0266781D01*
X0143511Y0266847D01*
X0143500Y0266934D01*
X0143500Y0272979D01*
X0142133Y0272979D01*
X0142090Y0272990D01*
X0142046Y0272990D01*
X0141926Y0273033D01*
X0141871Y0273055D01*
X0141816Y0273099D01*
X0141816Y0273110D01*
X0141795Y0273132D01*
X0141784Y0273165D01*
X0141762Y0273208D01*
X0141718Y0273318D01*
X0141707Y0273383D01*
X0141696Y0273449D01*
X0141696Y0273460D01*
X0141696Y0273471D01*
X0141707Y0273536D01*
X0141740Y0273635D01*
X0141806Y0273744D01*
X0141816Y0273755D01*
X0141827Y0273766D01*
X0141860Y0273799D01*
X0141893Y0273831D01*
X0141948Y0273853D01*
X0142013Y0273886D01*
X0142079Y0273897D01*
X0142166Y0273908D01*
X0145806Y0273908D01*
X0145839Y0273897D01*
X0145839Y0273897D02*
G37*
G36*
X0139958Y0273897D02*
X0140002Y0273886D01*
X0140111Y0273842D01*
X0140166Y0273810D01*
X0140221Y0273755D01*
X0140232Y0273744D01*
X0140243Y0273733D01*
X0140297Y0273667D01*
X0140341Y0273569D01*
X0140352Y0273514D01*
X0140363Y0273449D01*
X0140363Y0273438D01*
X0140363Y0273416D01*
X0140352Y0273394D01*
X0140352Y0273350D01*
X0140308Y0273241D01*
X0140286Y0273186D01*
X0140243Y0273132D01*
X0140243Y0273121D01*
X0140221Y0273110D01*
X0140188Y0273088D01*
X0140155Y0273055D01*
X0140101Y0273023D01*
X0140035Y0273001D01*
X0139969Y0272990D01*
X0139882Y0272979D01*
X0137466Y0272979D01*
X0137466Y0266934D01*
X0137466Y0266924D01*
X0137466Y0266902D01*
X0137455Y0266858D01*
X0137455Y0266814D01*
X0137412Y0266694D01*
X0137379Y0266639D01*
X0137335Y0266585D01*
X0137324Y0266585D01*
X0137313Y0266563D01*
X0137281Y0266552D01*
X0137237Y0266530D01*
X0137127Y0266486D01*
X0137073Y0266476D01*
X0136996Y0266464D01*
X0136964Y0266464D01*
X0136931Y0266476D01*
X0136876Y0266476D01*
X0136767Y0266508D01*
X0136658Y0266574D01*
X0136658Y0266585D01*
X0136636Y0266596D01*
X0136614Y0266629D01*
X0136592Y0266661D01*
X0136570Y0266716D01*
X0136548Y0266781D01*
X0136537Y0266847D01*
X0136526Y0266934D01*
X0136526Y0273438D01*
X0136526Y0273449D01*
X0136526Y0273460D01*
X0136537Y0273514D01*
X0136548Y0273591D01*
X0136581Y0273678D01*
X0136647Y0273755D01*
X0136723Y0273831D01*
X0136843Y0273886D01*
X0136909Y0273908D01*
X0139915Y0273908D01*
X0139958Y0273897D01*
X0139958Y0273897D02*
G37*
G36*
X0180476Y0260593D02*
X0180520Y0260582D01*
X0180629Y0260549D01*
X0180684Y0260506D01*
X0180749Y0260462D01*
X0180760Y0260451D01*
X0180771Y0260440D01*
X0180793Y0260407D01*
X0180826Y0260363D01*
X0180869Y0260254D01*
X0180880Y0260199D01*
X0180891Y0260123D01*
X0180891Y0260112D01*
X0180891Y0260090D01*
X0180880Y0260057D01*
X0180869Y0260003D01*
X0180826Y0259893D01*
X0180793Y0259828D01*
X0180738Y0259773D01*
X0179328Y0258298D01*
X0180804Y0256046D01*
X0180804Y0256035D01*
X0180815Y0256024D01*
X0180848Y0255948D01*
X0180880Y0255860D01*
X0180891Y0255773D01*
X0180891Y0255762D01*
X0180891Y0255740D01*
X0180880Y0255696D01*
X0180869Y0255653D01*
X0180837Y0255543D01*
X0180793Y0255489D01*
X0180749Y0255445D01*
X0180738Y0255434D01*
X0180727Y0255423D01*
X0180694Y0255401D01*
X0180651Y0255379D01*
X0180542Y0255325D01*
X0180476Y0255314D01*
X0180410Y0255303D01*
X0180378Y0255303D01*
X0180345Y0255314D01*
X0180290Y0255325D01*
X0180236Y0255346D01*
X0180181Y0255379D01*
X0180115Y0255423D01*
X0180061Y0255478D01*
X0178694Y0257675D01*
X0178006Y0256888D01*
X0178006Y0255784D01*
X0178006Y0255773D01*
X0178006Y0255751D01*
X0177995Y0255707D01*
X0177995Y0255663D01*
X0177951Y0255543D01*
X0177918Y0255489D01*
X0177875Y0255434D01*
X0177864Y0255434D01*
X0177853Y0255412D01*
X0177820Y0255401D01*
X0177776Y0255379D01*
X0177667Y0255336D01*
X0177612Y0255325D01*
X0177536Y0255314D01*
X0177503Y0255314D01*
X0177470Y0255325D01*
X0177416Y0255325D01*
X0177306Y0255358D01*
X0177197Y0255423D01*
X0177197Y0255434D01*
X0177175Y0255445D01*
X0177153Y0255478D01*
X0177131Y0255510D01*
X0177110Y0255565D01*
X0177088Y0255631D01*
X0177077Y0255696D01*
X0177066Y0255784D01*
X0177066Y0260123D01*
X0177066Y0260134D01*
X0177066Y0260156D01*
X0177077Y0260189D01*
X0177077Y0260232D01*
X0177120Y0260331D01*
X0177142Y0260396D01*
X0177186Y0260451D01*
X0177197Y0260462D01*
X0177219Y0260473D01*
X0177241Y0260495D01*
X0177284Y0260516D01*
X0177394Y0260560D01*
X0177459Y0260582D01*
X0177569Y0260582D01*
X0177601Y0260571D01*
X0177645Y0260571D01*
X0177743Y0260527D01*
X0177798Y0260506D01*
X0177853Y0260462D01*
X0177864Y0260462D01*
X0177875Y0260440D01*
X0177929Y0260374D01*
X0177984Y0260265D01*
X0177995Y0260199D01*
X0178006Y0260123D01*
X0178006Y0258090D01*
X0180115Y0260462D01*
X0180115Y0260473D01*
X0180137Y0260484D01*
X0180192Y0260538D01*
X0180290Y0260582D01*
X0180356Y0260593D01*
X0180421Y0260604D01*
X0180443Y0260604D01*
X0180476Y0260593D01*
X0180476Y0260593D02*
G37*
G36*
X0233148Y0262790D02*
X0233235Y0262757D01*
X0233290Y0262713D01*
X0233344Y0262670D01*
X0233355Y0262659D01*
X0233366Y0262648D01*
X0233388Y0262615D01*
X0233410Y0262571D01*
X0233443Y0262451D01*
X0233465Y0262374D01*
X0233465Y0262298D01*
X0233465Y0255784D01*
X0233465Y0255773D01*
X0233465Y0255751D01*
X0233454Y0255707D01*
X0233454Y0255663D01*
X0233410Y0255543D01*
X0233377Y0255489D01*
X0233333Y0255434D01*
X0233323Y0255434D01*
X0233312Y0255412D01*
X0233279Y0255401D01*
X0233235Y0255379D01*
X0233126Y0255336D01*
X0233071Y0255325D01*
X0232995Y0255314D01*
X0232962Y0255314D01*
X0232929Y0255325D01*
X0232874Y0255325D01*
X0232765Y0255358D01*
X0232656Y0255423D01*
X0232656Y0255434D01*
X0232634Y0255445D01*
X0232612Y0255478D01*
X0232590Y0255510D01*
X0232568Y0255565D01*
X0232546Y0255631D01*
X0232536Y0255696D01*
X0232525Y0255784D01*
X0232525Y0261314D01*
X0231869Y0260506D01*
X0231858Y0260506D01*
X0231847Y0260484D01*
X0231814Y0260462D01*
X0231770Y0260440D01*
X0231672Y0260396D01*
X0231607Y0260385D01*
X0231541Y0260374D01*
X0231508Y0260374D01*
X0231475Y0260385D01*
X0231432Y0260396D01*
X0231333Y0260429D01*
X0231268Y0260462D01*
X0231213Y0260506D01*
X0231202Y0260516D01*
X0231191Y0260527D01*
X0231169Y0260560D01*
X0231147Y0260604D01*
X0231093Y0260713D01*
X0231082Y0260779D01*
X0231071Y0260844D01*
X0231071Y0260855D01*
X0231071Y0260877D01*
X0231082Y0260910D01*
X0231093Y0260943D01*
X0231126Y0261052D01*
X0231158Y0261107D01*
X0231202Y0261161D01*
X0232656Y0262615D01*
X0232667Y0262626D01*
X0232710Y0262659D01*
X0232765Y0262702D01*
X0232831Y0262746D01*
X0232853Y0262757D01*
X0232896Y0262779D01*
X0232973Y0262801D01*
X0233060Y0262812D01*
X0233082Y0262812D01*
X0233148Y0262790D01*
X0233148Y0262790D02*
G37*
G36*
X0229311Y0262746D02*
X0229388Y0262735D01*
X0229475Y0262702D01*
X0229563Y0262648D01*
X0229639Y0262560D01*
X0229694Y0262440D01*
X0229716Y0262374D01*
X0229716Y0262287D01*
X0229716Y0255784D01*
X0229716Y0255773D01*
X0229716Y0255751D01*
X0229705Y0255707D01*
X0229705Y0255663D01*
X0229661Y0255543D01*
X0229628Y0255489D01*
X0229584Y0255434D01*
X0229573Y0255434D01*
X0229563Y0255412D01*
X0229530Y0255401D01*
X0229486Y0255379D01*
X0229377Y0255336D01*
X0229322Y0255325D01*
X0229246Y0255314D01*
X0229213Y0255314D01*
X0229180Y0255325D01*
X0229125Y0255325D01*
X0229016Y0255358D01*
X0228907Y0255423D01*
X0228907Y0255434D01*
X0228885Y0255445D01*
X0228863Y0255478D01*
X0228841Y0255510D01*
X0228819Y0255565D01*
X0228798Y0255631D01*
X0228786Y0255696D01*
X0228776Y0255784D01*
X0228776Y0261828D01*
X0227792Y0261828D01*
X0226076Y0255663D01*
X0226076Y0255653D01*
X0226076Y0255642D01*
X0226054Y0255576D01*
X0225999Y0255500D01*
X0225923Y0255412D01*
X0225912Y0255412D01*
X0225901Y0255401D01*
X0225835Y0255368D01*
X0225748Y0255325D01*
X0225628Y0255314D01*
X0225595Y0255314D01*
X0225562Y0255325D01*
X0225507Y0255325D01*
X0225398Y0255358D01*
X0225289Y0255423D01*
X0225289Y0255434D01*
X0225267Y0255445D01*
X0225223Y0255510D01*
X0225180Y0255620D01*
X0225169Y0255685D01*
X0225158Y0255762D01*
X0225158Y0255784D01*
X0225158Y0255817D01*
X0225169Y0255860D01*
X0225180Y0255904D01*
X0226983Y0262407D01*
X0226983Y0262418D01*
X0227005Y0262462D01*
X0227038Y0262517D01*
X0227081Y0262582D01*
X0227136Y0262648D01*
X0227213Y0262702D01*
X0227311Y0262746D01*
X0227431Y0262757D01*
X0229257Y0262757D01*
X0229311Y0262746D01*
X0229311Y0262746D02*
G37*
G36*
X0222349Y0262746D02*
X0222469Y0262735D01*
X0222622Y0262702D01*
X0222797Y0262648D01*
X0222983Y0262560D01*
X0223168Y0262451D01*
X0223343Y0262298D01*
X0223365Y0262276D01*
X0223420Y0262222D01*
X0223485Y0262123D01*
X0223573Y0261992D01*
X0223660Y0261828D01*
X0223726Y0261642D01*
X0223781Y0261435D01*
X0223802Y0261205D01*
X0223802Y0259762D01*
X0223802Y0259751D01*
X0223802Y0259730D01*
X0223802Y0259697D01*
X0223792Y0259653D01*
X0223781Y0259533D01*
X0223748Y0259380D01*
X0223693Y0259205D01*
X0223606Y0259030D01*
X0223496Y0258833D01*
X0223343Y0258658D01*
X0223322Y0258636D01*
X0223267Y0258593D01*
X0223168Y0258516D01*
X0223037Y0258440D01*
X0222873Y0258352D01*
X0222688Y0258276D01*
X0222469Y0258232D01*
X0222239Y0258210D01*
X0220185Y0258210D01*
X0220185Y0255784D01*
X0220185Y0255773D01*
X0220185Y0255751D01*
X0220174Y0255707D01*
X0220174Y0255663D01*
X0220130Y0255543D01*
X0220097Y0255489D01*
X0220054Y0255434D01*
X0220042Y0255434D01*
X0220032Y0255412D01*
X0219999Y0255401D01*
X0219955Y0255379D01*
X0219846Y0255336D01*
X0219791Y0255325D01*
X0219715Y0255314D01*
X0219682Y0255314D01*
X0219649Y0255325D01*
X0219594Y0255325D01*
X0219485Y0255358D01*
X0219376Y0255423D01*
X0219376Y0255434D01*
X0219354Y0255445D01*
X0219332Y0255478D01*
X0219310Y0255510D01*
X0219288Y0255565D01*
X0219267Y0255631D01*
X0219256Y0255696D01*
X0219245Y0255784D01*
X0219245Y0262287D01*
X0219245Y0262298D01*
X0219245Y0262309D01*
X0219256Y0262364D01*
X0219267Y0262440D01*
X0219299Y0262528D01*
X0219365Y0262604D01*
X0219441Y0262681D01*
X0219562Y0262735D01*
X0219627Y0262757D01*
X0222305Y0262757D01*
X0222349Y0262746D01*
X0222349Y0262746D02*
G37*
G36*
X0213069Y0260571D02*
X0213146Y0260560D01*
X0213233Y0260527D01*
X0213321Y0260473D01*
X0213397Y0260385D01*
X0213452Y0260265D01*
X0213474Y0260199D01*
X0213474Y0260112D01*
X0213474Y0256877D01*
X0213474Y0256866D01*
X0213474Y0256844D01*
X0213485Y0256800D01*
X0213485Y0256756D01*
X0213528Y0256625D01*
X0213550Y0256560D01*
X0213594Y0256483D01*
X0213594Y0256472D01*
X0213616Y0256451D01*
X0213670Y0256385D01*
X0213769Y0256287D01*
X0213889Y0256210D01*
X0213900Y0256199D01*
X0213933Y0256188D01*
X0213987Y0256155D01*
X0214042Y0256112D01*
X0214097Y0256046D01*
X0214151Y0255980D01*
X0214184Y0255882D01*
X0214195Y0255784D01*
X0214195Y0255773D01*
X0214195Y0255751D01*
X0214184Y0255718D01*
X0214173Y0255663D01*
X0214140Y0255554D01*
X0214097Y0255500D01*
X0214053Y0255445D01*
X0214031Y0255423D01*
X0213976Y0255379D01*
X0213867Y0255336D01*
X0213802Y0255325D01*
X0213725Y0255314D01*
X0213703Y0255314D01*
X0213659Y0255325D01*
X0213594Y0255336D01*
X0213517Y0255358D01*
X0213506Y0255368D01*
X0213463Y0255379D01*
X0213397Y0255423D01*
X0213321Y0255467D01*
X0213233Y0255521D01*
X0213135Y0255598D01*
X0213058Y0255685D01*
X0212982Y0255784D01*
X0212982Y0255773D01*
X0212960Y0255751D01*
X0212938Y0255718D01*
X0212894Y0255674D01*
X0212840Y0255620D01*
X0212763Y0255565D01*
X0212665Y0255510D01*
X0212556Y0255456D01*
X0212544Y0255445D01*
X0212501Y0255434D01*
X0212435Y0255412D01*
X0212359Y0255390D01*
X0212260Y0255358D01*
X0212151Y0255336D01*
X0212031Y0255325D01*
X0211911Y0255314D01*
X0211124Y0255314D01*
X0211080Y0255325D01*
X0210960Y0255336D01*
X0210818Y0255368D01*
X0210643Y0255423D01*
X0210457Y0255500D01*
X0210271Y0255609D01*
X0210096Y0255762D01*
X0210074Y0255784D01*
X0210020Y0255838D01*
X0209954Y0255937D01*
X0209867Y0256068D01*
X0209779Y0256232D01*
X0209714Y0256418D01*
X0209659Y0256625D01*
X0209637Y0256866D01*
X0209637Y0259030D01*
X0209637Y0259041D01*
X0209637Y0259063D01*
X0209637Y0259096D01*
X0209648Y0259139D01*
X0209659Y0259260D01*
X0209692Y0259413D01*
X0209747Y0259577D01*
X0209823Y0259762D01*
X0209932Y0259948D01*
X0210085Y0260123D01*
X0210107Y0260145D01*
X0210173Y0260199D01*
X0210260Y0260265D01*
X0210391Y0260352D01*
X0210555Y0260440D01*
X0210741Y0260506D01*
X0210960Y0260560D01*
X0211189Y0260582D01*
X0213015Y0260582D01*
X0213069Y0260571D01*
X0213069Y0260571D02*
G37*
G36*
X0201680Y0262746D02*
X0201800Y0262735D01*
X0201953Y0262702D01*
X0202128Y0262648D01*
X0202314Y0262560D01*
X0202500Y0262451D01*
X0202675Y0262298D01*
X0202697Y0262276D01*
X0202751Y0262222D01*
X0202817Y0262123D01*
X0202904Y0261992D01*
X0202992Y0261828D01*
X0203057Y0261642D01*
X0203112Y0261435D01*
X0203134Y0261205D01*
X0203134Y0256866D01*
X0203134Y0256855D01*
X0203134Y0256833D01*
X0203134Y0256800D01*
X0203123Y0256756D01*
X0203112Y0256636D01*
X0203079Y0256483D01*
X0203025Y0256308D01*
X0202937Y0256134D01*
X0202828Y0255937D01*
X0202675Y0255762D01*
X0202653Y0255740D01*
X0202598Y0255696D01*
X0202500Y0255620D01*
X0202369Y0255543D01*
X0202205Y0255456D01*
X0202019Y0255379D01*
X0201800Y0255336D01*
X0201571Y0255314D01*
X0200784Y0255314D01*
X0200740Y0255325D01*
X0200620Y0255336D01*
X0200478Y0255368D01*
X0200303Y0255423D01*
X0200117Y0255500D01*
X0199931Y0255609D01*
X0199756Y0255762D01*
X0199735Y0255784D01*
X0199680Y0255838D01*
X0199614Y0255937D01*
X0199527Y0256068D01*
X0199440Y0256232D01*
X0199374Y0256418D01*
X0199319Y0256625D01*
X0199297Y0256866D01*
X0199297Y0259030D01*
X0199297Y0259041D01*
X0199297Y0259063D01*
X0199297Y0259096D01*
X0199308Y0259139D01*
X0199319Y0259260D01*
X0199352Y0259413D01*
X0199407Y0259577D01*
X0199483Y0259762D01*
X0199592Y0259948D01*
X0199746Y0260123D01*
X0199767Y0260145D01*
X0199833Y0260199D01*
X0199920Y0260265D01*
X0200052Y0260352D01*
X0200216Y0260440D01*
X0200401Y0260506D01*
X0200620Y0260560D01*
X0200850Y0260582D01*
X0202194Y0260582D01*
X0202194Y0261205D01*
X0202194Y0261216D01*
X0202194Y0261249D01*
X0202183Y0261293D01*
X0202172Y0261358D01*
X0202150Y0261424D01*
X0202117Y0261500D01*
X0202074Y0261577D01*
X0202019Y0261642D01*
X0202008Y0261653D01*
X0201986Y0261675D01*
X0201953Y0261697D01*
X0201899Y0261741D01*
X0201833Y0261773D01*
X0201757Y0261795D01*
X0201669Y0261817D01*
X0201571Y0261828D01*
X0200095Y0261828D01*
X0200052Y0261839D01*
X0200008Y0261850D01*
X0199888Y0261883D01*
X0199822Y0261915D01*
X0199767Y0261959D01*
X0199767Y0261970D01*
X0199746Y0261981D01*
X0199735Y0262014D01*
X0199713Y0262058D01*
X0199680Y0262167D01*
X0199658Y0262298D01*
X0199658Y0262309D01*
X0199658Y0262320D01*
X0199669Y0262396D01*
X0199702Y0262495D01*
X0199767Y0262604D01*
X0199778Y0262615D01*
X0199789Y0262626D01*
X0199822Y0262648D01*
X0199855Y0262681D01*
X0199909Y0262713D01*
X0199975Y0262735D01*
X0200041Y0262746D01*
X0200128Y0262757D01*
X0201636Y0262757D01*
X0201680Y0262746D01*
X0201680Y0262746D02*
G37*
G36*
X0196510Y0260571D02*
X0196631Y0260560D01*
X0196773Y0260527D01*
X0196947Y0260473D01*
X0197133Y0260385D01*
X0197319Y0260276D01*
X0197494Y0260123D01*
X0197505Y0260123D01*
X0197516Y0260101D01*
X0197571Y0260046D01*
X0197647Y0259948D01*
X0197734Y0259817D01*
X0197811Y0259664D01*
X0197887Y0259478D01*
X0197942Y0259260D01*
X0197964Y0259150D01*
X0197964Y0259030D01*
X0197964Y0257948D01*
X0197964Y0257926D01*
X0197953Y0257871D01*
X0197942Y0257795D01*
X0197909Y0257718D01*
X0197844Y0257631D01*
X0197756Y0257554D01*
X0197647Y0257500D01*
X0197571Y0257489D01*
X0197483Y0257478D01*
X0195068Y0257478D01*
X0195068Y0256866D01*
X0195068Y0256855D01*
X0195068Y0256822D01*
X0195078Y0256767D01*
X0195089Y0256713D01*
X0195111Y0256636D01*
X0195133Y0256560D01*
X0195177Y0256483D01*
X0195231Y0256418D01*
X0195253Y0256407D01*
X0195297Y0256363D01*
X0195363Y0256319D01*
X0195439Y0256276D01*
X0195461Y0256276D01*
X0195516Y0256265D01*
X0195592Y0256254D01*
X0195680Y0256243D01*
X0197516Y0256243D01*
X0197559Y0256232D01*
X0197603Y0256221D01*
X0197713Y0256177D01*
X0197767Y0256144D01*
X0197822Y0256090D01*
X0197833Y0256079D01*
X0197844Y0256068D01*
X0197898Y0256002D01*
X0197942Y0255904D01*
X0197953Y0255849D01*
X0197964Y0255784D01*
X0197964Y0255773D01*
X0197964Y0255751D01*
X0197953Y0255729D01*
X0197953Y0255685D01*
X0197909Y0255576D01*
X0197887Y0255521D01*
X0197844Y0255467D01*
X0197844Y0255456D01*
X0197822Y0255445D01*
X0197789Y0255423D01*
X0197756Y0255390D01*
X0197702Y0255358D01*
X0197636Y0255336D01*
X0197571Y0255325D01*
X0197483Y0255314D01*
X0195614Y0255314D01*
X0195570Y0255325D01*
X0195450Y0255336D01*
X0195308Y0255368D01*
X0195133Y0255423D01*
X0194947Y0255500D01*
X0194761Y0255609D01*
X0194587Y0255762D01*
X0194565Y0255784D01*
X0194510Y0255838D01*
X0194445Y0255937D01*
X0194357Y0256068D01*
X0194270Y0256232D01*
X0194204Y0256418D01*
X0194149Y0256625D01*
X0194128Y0256866D01*
X0194128Y0259030D01*
X0194128Y0259041D01*
X0194128Y0259063D01*
X0194128Y0259096D01*
X0194138Y0259139D01*
X0194149Y0259248D01*
X0194182Y0259402D01*
X0194237Y0259565D01*
X0194313Y0259751D01*
X0194423Y0259937D01*
X0194576Y0260112D01*
X0194587Y0260123D01*
X0194597Y0260134D01*
X0194652Y0260189D01*
X0194750Y0260265D01*
X0194882Y0260352D01*
X0195046Y0260429D01*
X0195231Y0260506D01*
X0195439Y0260560D01*
X0195559Y0260582D01*
X0196467Y0260582D01*
X0196510Y0260571D01*
X0196510Y0260571D02*
G37*
G36*
X0185744Y0260571D02*
X0185821Y0260560D01*
X0185908Y0260527D01*
X0185996Y0260473D01*
X0186072Y0260385D01*
X0186127Y0260265D01*
X0186149Y0260199D01*
X0186149Y0260112D01*
X0186149Y0256877D01*
X0186149Y0256866D01*
X0186149Y0256844D01*
X0186160Y0256800D01*
X0186160Y0256756D01*
X0186203Y0256625D01*
X0186225Y0256560D01*
X0186269Y0256483D01*
X0186269Y0256472D01*
X0186291Y0256451D01*
X0186345Y0256385D01*
X0186444Y0256287D01*
X0186564Y0256210D01*
X0186575Y0256199D01*
X0186608Y0256188D01*
X0186662Y0256155D01*
X0186717Y0256112D01*
X0186772Y0256046D01*
X0186826Y0255980D01*
X0186859Y0255882D01*
X0186870Y0255784D01*
X0186870Y0255773D01*
X0186870Y0255751D01*
X0186859Y0255718D01*
X0186848Y0255663D01*
X0186815Y0255554D01*
X0186772Y0255500D01*
X0186728Y0255445D01*
X0186706Y0255423D01*
X0186651Y0255379D01*
X0186542Y0255336D01*
X0186477Y0255325D01*
X0186400Y0255314D01*
X0186378Y0255314D01*
X0186334Y0255325D01*
X0186269Y0255336D01*
X0186192Y0255358D01*
X0186181Y0255368D01*
X0186138Y0255379D01*
X0186072Y0255423D01*
X0185996Y0255467D01*
X0185908Y0255521D01*
X0185810Y0255598D01*
X0185733Y0255685D01*
X0185657Y0255784D01*
X0185657Y0255773D01*
X0185635Y0255751D01*
X0185613Y0255718D01*
X0185569Y0255674D01*
X0185515Y0255620D01*
X0185438Y0255565D01*
X0185340Y0255510D01*
X0185231Y0255456D01*
X0185220Y0255445D01*
X0185176Y0255434D01*
X0185110Y0255412D01*
X0185034Y0255390D01*
X0184935Y0255358D01*
X0184826Y0255336D01*
X0184706Y0255325D01*
X0184586Y0255314D01*
X0183799Y0255314D01*
X0183755Y0255325D01*
X0183635Y0255336D01*
X0183493Y0255368D01*
X0183318Y0255423D01*
X0183132Y0255500D01*
X0182946Y0255609D01*
X0182771Y0255762D01*
X0182749Y0255784D01*
X0182695Y0255838D01*
X0182629Y0255937D01*
X0182542Y0256068D01*
X0182454Y0256232D01*
X0182389Y0256418D01*
X0182334Y0256625D01*
X0182312Y0256866D01*
X0182312Y0259030D01*
X0182312Y0259041D01*
X0182312Y0259063D01*
X0182312Y0259096D01*
X0182323Y0259139D01*
X0182334Y0259260D01*
X0182367Y0259413D01*
X0182422Y0259577D01*
X0182498Y0259762D01*
X0182607Y0259948D01*
X0182760Y0260123D01*
X0182782Y0260145D01*
X0182848Y0260199D01*
X0182935Y0260265D01*
X0183066Y0260352D01*
X0183230Y0260440D01*
X0183416Y0260506D01*
X0183635Y0260560D01*
X0183864Y0260582D01*
X0185689Y0260582D01*
X0185744Y0260571D01*
X0185744Y0260571D02*
G37*
G36*
X0206850Y0260571D02*
X0206970Y0260560D01*
X0207112Y0260527D01*
X0207287Y0260473D01*
X0207473Y0260385D01*
X0207659Y0260276D01*
X0207834Y0260123D01*
X0207845Y0260123D01*
X0207856Y0260101D01*
X0207910Y0260046D01*
X0207987Y0259948D01*
X0208074Y0259817D01*
X0208151Y0259664D01*
X0208227Y0259478D01*
X0208282Y0259260D01*
X0208304Y0259150D01*
X0208304Y0259030D01*
X0208304Y0256866D01*
X0208304Y0256855D01*
X0208304Y0256833D01*
X0208304Y0256800D01*
X0208293Y0256756D01*
X0208282Y0256636D01*
X0208249Y0256483D01*
X0208194Y0256308D01*
X0208107Y0256134D01*
X0207998Y0255937D01*
X0207845Y0255762D01*
X0207823Y0255740D01*
X0207768Y0255696D01*
X0207670Y0255620D01*
X0207539Y0255543D01*
X0207375Y0255456D01*
X0207189Y0255379D01*
X0206970Y0255336D01*
X0206741Y0255314D01*
X0205407Y0255314D01*
X0205407Y0253620D01*
X0205407Y0253609D01*
X0205407Y0253587D01*
X0205396Y0253554D01*
X0205385Y0253510D01*
X0205342Y0253401D01*
X0205309Y0253346D01*
X0205254Y0253292D01*
X0205243Y0253281D01*
X0205232Y0253270D01*
X0205167Y0253226D01*
X0205058Y0253171D01*
X0205003Y0253161D01*
X0204937Y0253150D01*
X0204905Y0253150D01*
X0204883Y0253161D01*
X0204839Y0253161D01*
X0204730Y0253204D01*
X0204675Y0253226D01*
X0204620Y0253270D01*
X0204609Y0253281D01*
X0204598Y0253292D01*
X0204577Y0253325D01*
X0204544Y0253357D01*
X0204511Y0253412D01*
X0204489Y0253478D01*
X0204478Y0253543D01*
X0204467Y0253630D01*
X0204467Y0260112D01*
X0204467Y0260123D01*
X0204467Y0260134D01*
X0204478Y0260189D01*
X0204489Y0260265D01*
X0204522Y0260352D01*
X0204588Y0260429D01*
X0204664Y0260506D01*
X0204784Y0260560D01*
X0204850Y0260582D01*
X0206806Y0260582D01*
X0206850Y0260571D01*
X0206850Y0260571D02*
G37*
G36*
X0190193Y0262025D02*
X0190236Y0262025D01*
X0190335Y0261981D01*
X0190389Y0261959D01*
X0190444Y0261915D01*
X0190455Y0261915D01*
X0190466Y0261894D01*
X0190488Y0261861D01*
X0190521Y0261828D01*
X0190575Y0261719D01*
X0190586Y0261642D01*
X0190597Y0261566D01*
X0190597Y0260582D01*
X0190684Y0260582D01*
X0190739Y0260571D01*
X0190816Y0260560D01*
X0190903Y0260549D01*
X0191100Y0260495D01*
X0191340Y0260418D01*
X0191461Y0260363D01*
X0191592Y0260298D01*
X0191723Y0260221D01*
X0191854Y0260134D01*
X0191974Y0260035D01*
X0192105Y0259915D01*
X0192116Y0259904D01*
X0192138Y0259882D01*
X0192171Y0259850D01*
X0192215Y0259795D01*
X0192259Y0259730D01*
X0192313Y0259653D01*
X0192379Y0259565D01*
X0192444Y0259467D01*
X0192499Y0259358D01*
X0192564Y0259238D01*
X0192674Y0258964D01*
X0192707Y0258811D01*
X0192739Y0258647D01*
X0192761Y0258483D01*
X0192772Y0258309D01*
X0192772Y0257587D01*
X0192772Y0257576D01*
X0192772Y0257543D01*
X0192772Y0257500D01*
X0192761Y0257434D01*
X0192750Y0257358D01*
X0192739Y0257259D01*
X0192718Y0257161D01*
X0192685Y0257041D01*
X0192608Y0256789D01*
X0192554Y0256658D01*
X0192488Y0256527D01*
X0192411Y0256396D01*
X0192324Y0256254D01*
X0192226Y0256123D01*
X0192105Y0255991D01*
X0192095Y0255980D01*
X0192073Y0255959D01*
X0192040Y0255926D01*
X0191985Y0255882D01*
X0191931Y0255838D01*
X0191854Y0255773D01*
X0191767Y0255718D01*
X0191668Y0255653D01*
X0191450Y0255532D01*
X0191187Y0255423D01*
X0191045Y0255379D01*
X0190903Y0255346D01*
X0190750Y0255325D01*
X0190597Y0255314D01*
X0190597Y0253620D01*
X0190597Y0253609D01*
X0190597Y0253587D01*
X0190586Y0253554D01*
X0190575Y0253510D01*
X0190532Y0253401D01*
X0190499Y0253346D01*
X0190444Y0253292D01*
X0190433Y0253281D01*
X0190422Y0253270D01*
X0190357Y0253226D01*
X0190247Y0253171D01*
X0190193Y0253161D01*
X0190127Y0253150D01*
X0190094Y0253150D01*
X0190073Y0253161D01*
X0190029Y0253161D01*
X0189919Y0253204D01*
X0189865Y0253226D01*
X0189810Y0253270D01*
X0189799Y0253281D01*
X0189788Y0253292D01*
X0189766Y0253325D01*
X0189734Y0253357D01*
X0189679Y0253467D01*
X0189668Y0253543D01*
X0189657Y0253620D01*
X0189657Y0255314D01*
X0189570Y0255314D01*
X0189515Y0255325D01*
X0189438Y0255336D01*
X0189351Y0255346D01*
X0189143Y0255401D01*
X0188914Y0255478D01*
X0188783Y0255532D01*
X0188652Y0255587D01*
X0188531Y0255663D01*
X0188400Y0255751D01*
X0188269Y0255849D01*
X0188138Y0255970D01*
X0188127Y0255980D01*
X0188105Y0256002D01*
X0188072Y0256035D01*
X0188040Y0256090D01*
X0187985Y0256155D01*
X0187930Y0256232D01*
X0187875Y0256319D01*
X0187810Y0256418D01*
X0187744Y0256527D01*
X0187690Y0256658D01*
X0187580Y0256931D01*
X0187548Y0257084D01*
X0187515Y0257237D01*
X0187493Y0257412D01*
X0187482Y0257587D01*
X0187482Y0258309D01*
X0187482Y0258319D01*
X0187482Y0258352D01*
X0187482Y0258396D01*
X0187493Y0258462D01*
X0187504Y0258538D01*
X0187515Y0258636D01*
X0187537Y0258735D01*
X0187569Y0258855D01*
X0187646Y0259106D01*
X0187701Y0259238D01*
X0187766Y0259369D01*
X0187843Y0259511D01*
X0187930Y0259642D01*
X0188029Y0259773D01*
X0188149Y0259904D01*
X0188160Y0259915D01*
X0188182Y0259937D01*
X0188214Y0259970D01*
X0188269Y0260014D01*
X0188335Y0260057D01*
X0188400Y0260123D01*
X0188488Y0260178D01*
X0188586Y0260243D01*
X0188815Y0260363D01*
X0189067Y0260473D01*
X0189209Y0260516D01*
X0189351Y0260549D01*
X0189504Y0260571D01*
X0189657Y0260582D01*
X0189657Y0261566D01*
X0189657Y0261577D01*
X0189657Y0261598D01*
X0189668Y0261631D01*
X0189679Y0261675D01*
X0189712Y0261784D01*
X0189745Y0261850D01*
X0189788Y0261905D01*
X0189799Y0261915D01*
X0189810Y0261926D01*
X0189843Y0261948D01*
X0189887Y0261970D01*
X0189996Y0262014D01*
X0190061Y0262036D01*
X0190160Y0262036D01*
X0190193Y0262025D01*
X0190193Y0262025D02*
G37*
%LPC*%
G36*
X0231803Y0270804D02*
X0230415Y0270804D01*
X0230371Y0270793D01*
X0230306Y0270782D01*
X0230229Y0270760D01*
X0230164Y0270727D01*
X0230087Y0270684D01*
X0230011Y0270618D01*
X0230000Y0270607D01*
X0229967Y0270563D01*
X0229923Y0270498D01*
X0229879Y0270421D01*
X0229879Y0270399D01*
X0229869Y0270356D01*
X0229858Y0270279D01*
X0229847Y0270181D01*
X0229847Y0268017D01*
X0229847Y0268006D01*
X0229847Y0267973D01*
X0229858Y0267918D01*
X0229869Y0267864D01*
X0229890Y0267787D01*
X0229912Y0267711D01*
X0229956Y0267634D01*
X0230011Y0267568D01*
X0230032Y0267558D01*
X0230076Y0267514D01*
X0230142Y0267470D01*
X0230218Y0267426D01*
X0230240Y0267426D01*
X0230295Y0267415D01*
X0230371Y0267405D01*
X0230459Y0267394D01*
X0231224Y0267394D01*
X0231268Y0267405D01*
X0231333Y0267415D01*
X0231399Y0267437D01*
X0231475Y0267459D01*
X0231541Y0267503D01*
X0231617Y0267558D01*
X0231628Y0267568D01*
X0231650Y0267590D01*
X0231672Y0267623D01*
X0231716Y0267678D01*
X0231749Y0267743D01*
X0231770Y0267831D01*
X0231792Y0267918D01*
X0231803Y0268017D01*
X0231803Y0270804D01*
X0231803Y0270804D02*
G37*
G36*
X0221463Y0270804D02*
X0220075Y0270804D01*
X0220032Y0270793D01*
X0219966Y0270782D01*
X0219889Y0270760D01*
X0219824Y0270727D01*
X0219747Y0270684D01*
X0219671Y0270618D01*
X0219660Y0270607D01*
X0219627Y0270563D01*
X0219584Y0270498D01*
X0219540Y0270421D01*
X0219540Y0270399D01*
X0219529Y0270356D01*
X0219518Y0270279D01*
X0219507Y0270181D01*
X0219507Y0268017D01*
X0219507Y0268006D01*
X0219507Y0267973D01*
X0219518Y0267918D01*
X0219529Y0267864D01*
X0219551Y0267787D01*
X0219572Y0267711D01*
X0219616Y0267634D01*
X0219671Y0267568D01*
X0219693Y0267558D01*
X0219737Y0267514D01*
X0219802Y0267470D01*
X0219879Y0267426D01*
X0219900Y0267426D01*
X0219955Y0267415D01*
X0220032Y0267405D01*
X0220119Y0267394D01*
X0220884Y0267394D01*
X0220928Y0267405D01*
X0220993Y0267415D01*
X0221059Y0267437D01*
X0221135Y0267459D01*
X0221201Y0267503D01*
X0221278Y0267558D01*
X0221288Y0267568D01*
X0221310Y0267590D01*
X0221332Y0267623D01*
X0221376Y0267678D01*
X0221409Y0267743D01*
X0221431Y0267831D01*
X0221452Y0267918D01*
X0221463Y0268017D01*
X0221463Y0270804D01*
X0221463Y0270804D02*
G37*
G36*
X0205210Y0270804D02*
X0203822Y0270804D01*
X0203779Y0270793D01*
X0203713Y0270782D01*
X0203637Y0270760D01*
X0203571Y0270727D01*
X0203495Y0270684D01*
X0203418Y0270618D01*
X0203407Y0270607D01*
X0203374Y0270563D01*
X0203331Y0270498D01*
X0203287Y0270421D01*
X0203287Y0270399D01*
X0203276Y0270356D01*
X0203265Y0270279D01*
X0203254Y0270181D01*
X0203254Y0268017D01*
X0203254Y0268006D01*
X0203254Y0267973D01*
X0203265Y0267918D01*
X0203276Y0267864D01*
X0203298Y0267787D01*
X0203320Y0267711D01*
X0203363Y0267634D01*
X0203418Y0267568D01*
X0203440Y0267558D01*
X0203484Y0267514D01*
X0203549Y0267470D01*
X0203626Y0267426D01*
X0203647Y0267426D01*
X0203702Y0267415D01*
X0203779Y0267405D01*
X0203866Y0267394D01*
X0204631Y0267394D01*
X0204675Y0267405D01*
X0204741Y0267415D01*
X0204806Y0267437D01*
X0204883Y0267459D01*
X0204948Y0267503D01*
X0205025Y0267558D01*
X0205036Y0267568D01*
X0205058Y0267590D01*
X0205079Y0267623D01*
X0205123Y0267678D01*
X0205156Y0267743D01*
X0205178Y0267831D01*
X0205200Y0267918D01*
X0205210Y0268017D01*
X0205210Y0270804D01*
X0205210Y0270804D02*
G37*
G36*
X0199396Y0270082D02*
X0197341Y0270082D01*
X0197341Y0267394D01*
X0199440Y0267394D01*
X0199483Y0267405D01*
X0199549Y0267415D01*
X0199614Y0267437D01*
X0199691Y0267459D01*
X0199756Y0267503D01*
X0199833Y0267558D01*
X0199844Y0267568D01*
X0199866Y0267590D01*
X0199888Y0267623D01*
X0199931Y0267678D01*
X0199964Y0267743D01*
X0199986Y0267831D01*
X0200008Y0267918D01*
X0200019Y0268017D01*
X0200019Y0269459D01*
X0200019Y0269470D01*
X0200019Y0269503D01*
X0200008Y0269547D01*
X0199997Y0269612D01*
X0199975Y0269678D01*
X0199942Y0269755D01*
X0199899Y0269831D01*
X0199844Y0269897D01*
X0199833Y0269907D01*
X0199811Y0269929D01*
X0199778Y0269951D01*
X0199724Y0269995D01*
X0199658Y0270028D01*
X0199582Y0270050D01*
X0199494Y0270071D01*
X0199396Y0270082D01*
X0199396Y0270082D02*
G37*
G36*
X0222239Y0261828D02*
X0220185Y0261828D01*
X0220185Y0259139D01*
X0222283Y0259139D01*
X0222327Y0259150D01*
X0222393Y0259161D01*
X0222458Y0259183D01*
X0222535Y0259205D01*
X0222600Y0259248D01*
X0222677Y0259303D01*
X0222688Y0259314D01*
X0222709Y0259336D01*
X0222731Y0259369D01*
X0222775Y0259423D01*
X0222808Y0259489D01*
X0222830Y0259577D01*
X0222851Y0259664D01*
X0222863Y0259762D01*
X0222863Y0261205D01*
X0222863Y0261216D01*
X0222863Y0261249D01*
X0222851Y0261293D01*
X0222841Y0261358D01*
X0222819Y0261424D01*
X0222786Y0261500D01*
X0222742Y0261577D01*
X0222688Y0261642D01*
X0222677Y0261653D01*
X0222655Y0261675D01*
X0222622Y0261697D01*
X0222567Y0261741D01*
X0222502Y0261773D01*
X0222425Y0261795D01*
X0222338Y0261817D01*
X0222239Y0261828D01*
X0222239Y0261828D02*
G37*
G36*
X0212534Y0259653D02*
X0211145Y0259653D01*
X0211102Y0259642D01*
X0211036Y0259631D01*
X0210960Y0259609D01*
X0210894Y0259577D01*
X0210818Y0259533D01*
X0210741Y0259467D01*
X0210730Y0259456D01*
X0210697Y0259413D01*
X0210654Y0259347D01*
X0210610Y0259270D01*
X0210610Y0259248D01*
X0210599Y0259205D01*
X0210588Y0259128D01*
X0210577Y0259030D01*
X0210577Y0256866D01*
X0210577Y0256855D01*
X0210577Y0256822D01*
X0210588Y0256767D01*
X0210599Y0256713D01*
X0210621Y0256636D01*
X0210643Y0256560D01*
X0210686Y0256483D01*
X0210741Y0256418D01*
X0210763Y0256407D01*
X0210807Y0256363D01*
X0210872Y0256319D01*
X0210949Y0256276D01*
X0210971Y0256276D01*
X0211025Y0256265D01*
X0211102Y0256254D01*
X0211189Y0256243D01*
X0211954Y0256243D01*
X0211998Y0256254D01*
X0212064Y0256265D01*
X0212129Y0256287D01*
X0212206Y0256308D01*
X0212271Y0256352D01*
X0212348Y0256407D01*
X0212359Y0256418D01*
X0212381Y0256439D01*
X0212403Y0256472D01*
X0212446Y0256527D01*
X0212479Y0256593D01*
X0212501Y0256680D01*
X0212523Y0256767D01*
X0212534Y0256866D01*
X0212534Y0259653D01*
X0212534Y0259653D02*
G37*
G36*
X0202194Y0259653D02*
X0200806Y0259653D01*
X0200762Y0259642D01*
X0200696Y0259631D01*
X0200620Y0259609D01*
X0200554Y0259577D01*
X0200478Y0259533D01*
X0200401Y0259467D01*
X0200390Y0259456D01*
X0200358Y0259413D01*
X0200314Y0259347D01*
X0200270Y0259270D01*
X0200270Y0259248D01*
X0200259Y0259205D01*
X0200248Y0259128D01*
X0200237Y0259030D01*
X0200237Y0256866D01*
X0200237Y0256855D01*
X0200237Y0256822D01*
X0200248Y0256767D01*
X0200259Y0256713D01*
X0200281Y0256636D01*
X0200303Y0256560D01*
X0200347Y0256483D01*
X0200401Y0256418D01*
X0200423Y0256407D01*
X0200467Y0256363D01*
X0200533Y0256319D01*
X0200609Y0256276D01*
X0200631Y0256276D01*
X0200686Y0256265D01*
X0200762Y0256254D01*
X0200850Y0256243D01*
X0201615Y0256243D01*
X0201658Y0256254D01*
X0201724Y0256265D01*
X0201789Y0256287D01*
X0201866Y0256308D01*
X0201932Y0256352D01*
X0202008Y0256407D01*
X0202019Y0256418D01*
X0202041Y0256439D01*
X0202063Y0256472D01*
X0202106Y0256527D01*
X0202139Y0256593D01*
X0202161Y0256680D01*
X0202183Y0256767D01*
X0202194Y0256866D01*
X0202194Y0259653D01*
X0202194Y0259653D02*
G37*
G36*
X0196401Y0259653D02*
X0195636Y0259653D01*
X0195592Y0259642D01*
X0195527Y0259631D01*
X0195450Y0259609D01*
X0195384Y0259577D01*
X0195308Y0259533D01*
X0195231Y0259467D01*
X0195220Y0259456D01*
X0195188Y0259413D01*
X0195144Y0259347D01*
X0195100Y0259270D01*
X0195100Y0259248D01*
X0195089Y0259205D01*
X0195078Y0259128D01*
X0195068Y0259030D01*
X0195068Y0258407D01*
X0197024Y0258407D01*
X0197024Y0259030D01*
X0197024Y0259041D01*
X0197024Y0259074D01*
X0197013Y0259117D01*
X0197002Y0259183D01*
X0196980Y0259248D01*
X0196947Y0259325D01*
X0196904Y0259402D01*
X0196849Y0259467D01*
X0196838Y0259478D01*
X0196816Y0259500D01*
X0196783Y0259522D01*
X0196729Y0259565D01*
X0196663Y0259598D01*
X0196587Y0259620D01*
X0196499Y0259642D01*
X0196401Y0259653D01*
X0196401Y0259653D02*
G37*
G36*
X0185209Y0259653D02*
X0183820Y0259653D01*
X0183777Y0259642D01*
X0183711Y0259631D01*
X0183635Y0259609D01*
X0183569Y0259577D01*
X0183493Y0259533D01*
X0183416Y0259467D01*
X0183405Y0259456D01*
X0183372Y0259413D01*
X0183329Y0259347D01*
X0183285Y0259270D01*
X0183285Y0259248D01*
X0183274Y0259205D01*
X0183263Y0259128D01*
X0183252Y0259030D01*
X0183252Y0256866D01*
X0183252Y0256855D01*
X0183252Y0256822D01*
X0183263Y0256767D01*
X0183274Y0256713D01*
X0183296Y0256636D01*
X0183318Y0256560D01*
X0183361Y0256483D01*
X0183416Y0256418D01*
X0183438Y0256407D01*
X0183482Y0256363D01*
X0183547Y0256319D01*
X0183624Y0256276D01*
X0183646Y0256276D01*
X0183700Y0256265D01*
X0183777Y0256254D01*
X0183864Y0256243D01*
X0184629Y0256243D01*
X0184673Y0256254D01*
X0184739Y0256265D01*
X0184804Y0256287D01*
X0184881Y0256308D01*
X0184946Y0256352D01*
X0185023Y0256407D01*
X0185034Y0256418D01*
X0185056Y0256439D01*
X0185078Y0256472D01*
X0185121Y0256527D01*
X0185154Y0256593D01*
X0185176Y0256680D01*
X0185198Y0256767D01*
X0185209Y0256866D01*
X0185209Y0259653D01*
X0185209Y0259653D02*
G37*
G36*
X0206741Y0259653D02*
X0205407Y0259653D01*
X0205407Y0256243D01*
X0206784Y0256243D01*
X0206828Y0256254D01*
X0206894Y0256265D01*
X0206959Y0256287D01*
X0207036Y0256308D01*
X0207101Y0256352D01*
X0207178Y0256407D01*
X0207189Y0256418D01*
X0207211Y0256439D01*
X0207233Y0256472D01*
X0207276Y0256527D01*
X0207309Y0256593D01*
X0207331Y0256680D01*
X0207353Y0256767D01*
X0207364Y0256866D01*
X0207364Y0259030D01*
X0207364Y0259041D01*
X0207364Y0259074D01*
X0207353Y0259117D01*
X0207342Y0259183D01*
X0207320Y0259248D01*
X0207287Y0259325D01*
X0207243Y0259402D01*
X0207189Y0259467D01*
X0207178Y0259478D01*
X0207156Y0259500D01*
X0207123Y0259522D01*
X0207069Y0259565D01*
X0207003Y0259598D01*
X0206926Y0259620D01*
X0206839Y0259642D01*
X0206741Y0259653D01*
X0206741Y0259653D02*
G37*
G36*
X0190597Y0259653D02*
X0190597Y0256243D01*
X0190619Y0256243D01*
X0190674Y0256254D01*
X0190750Y0256265D01*
X0190859Y0256287D01*
X0190991Y0256341D01*
X0191133Y0256407D01*
X0191275Y0256494D01*
X0191428Y0256625D01*
X0191450Y0256647D01*
X0191493Y0256691D01*
X0191559Y0256778D01*
X0191636Y0256899D01*
X0191701Y0257030D01*
X0191767Y0257194D01*
X0191810Y0257380D01*
X0191832Y0257587D01*
X0191832Y0258309D01*
X0191832Y0258319D01*
X0191832Y0258330D01*
X0191821Y0258396D01*
X0191810Y0258494D01*
X0191788Y0258626D01*
X0191734Y0258779D01*
X0191668Y0258932D01*
X0191570Y0259096D01*
X0191439Y0259248D01*
X0191417Y0259270D01*
X0191373Y0259314D01*
X0191286Y0259380D01*
X0191187Y0259456D01*
X0191056Y0259522D01*
X0190914Y0259587D01*
X0190761Y0259631D01*
X0190597Y0259653D01*
X0190597Y0259653D02*
G37*
G36*
X0189657Y0259653D02*
X0189635Y0259653D01*
X0189581Y0259642D01*
X0189493Y0259631D01*
X0189384Y0259609D01*
X0189253Y0259555D01*
X0189111Y0259489D01*
X0188969Y0259391D01*
X0188815Y0259260D01*
X0188794Y0259238D01*
X0188750Y0259194D01*
X0188695Y0259106D01*
X0188619Y0258997D01*
X0188542Y0258855D01*
X0188488Y0258691D01*
X0188444Y0258505D01*
X0188422Y0258309D01*
X0188422Y0257587D01*
X0188422Y0257576D01*
X0188422Y0257565D01*
X0188422Y0257533D01*
X0188433Y0257500D01*
X0188444Y0257390D01*
X0188477Y0257259D01*
X0188520Y0257106D01*
X0188586Y0256953D01*
X0188684Y0256789D01*
X0188815Y0256636D01*
X0188837Y0256614D01*
X0188881Y0256571D01*
X0188969Y0256516D01*
X0189067Y0256439D01*
X0189198Y0256363D01*
X0189340Y0256308D01*
X0189493Y0256265D01*
X0189657Y0256243D01*
X0189657Y0259653D01*
X0189657Y0259653D02*
G37*
%LPD*%
D10*
X0006299Y0087598D02*
G03*
X0006299Y0087598I-0000394J0000000D01*
G01*
X0106693Y0080709D02*
G03*
X0106693Y0080709I-0000394J0000000D01*
G01*
X0186614Y0192126D02*
G03*
X0186614Y0192126I-0000394J0000000D01*
G01*
X0141732Y0055512D02*
G03*
X0141732Y0055512I-0000394J0000000D01*
G01*
X0180315Y0057480D02*
G03*
X0180315Y0057480I-0000394J0000000D01*
G01*
X0065354Y0031299D02*
X0071260Y0031299D01*
X0068307Y0028346D02*
X0068307Y0034252D01*
D11*
X0069291Y0046063D02*
G03*
X0069291Y0046063I-0017717J0000000D01*
G01*
X0127998Y0106102D02*
G03*
X0127998Y0094685I-0009888J-0005709D01*
G01*
X0206648Y0094685D02*
G03*
X0206648Y0106102I0009888J0005709D01*
G01*
X0007874Y0088583D02*
X0007874Y0112205D01*
X0007874Y0088583D02*
X0031496Y0088583D01*
X0007874Y0112205D02*
X0031496Y0112205D01*
X0031496Y0088583D02*
X0031496Y0112205D01*
X0037795Y0233071D02*
X0039370Y0233071D01*
X0071260Y0076378D02*
X0074410Y0076378D01*
X0074410Y0080315D01*
X0062599Y0076378D02*
X0065748Y0076378D01*
X0062599Y0076378D02*
X0062599Y0080315D01*
X0044980Y0112500D02*
X0044980Y0117421D01*
X0034547Y0117421D02*
X0044980Y0117421D01*
X0034547Y0112500D02*
X0044980Y0112500D01*
X0034547Y0112500D02*
X0034547Y0117421D01*
X0046752Y0112500D02*
X0046752Y0117421D01*
X0046752Y0112500D02*
X0057185Y0112500D01*
X0046752Y0117421D02*
X0057185Y0117421D01*
X0057185Y0112500D02*
X0057185Y0117421D01*
X0070964Y0066043D02*
X0070964Y0070964D01*
X0060532Y0070964D02*
X0070964Y0070964D01*
X0060532Y0066043D02*
X0070964Y0066043D01*
X0060532Y0066043D02*
X0060532Y0070964D01*
X0045571Y0151279D02*
X0050492Y0151279D01*
X0045571Y0140847D02*
X0045571Y0151279D01*
X0050492Y0140847D02*
X0050492Y0151279D01*
X0045571Y0140847D02*
X0050492Y0140847D01*
X0094783Y0127854D02*
X0094783Y0132776D01*
X0094783Y0127854D02*
X0105216Y0127854D01*
X0094783Y0132776D02*
X0105216Y0132776D01*
X0105216Y0127854D02*
X0105216Y0132776D01*
X0105217Y0121555D02*
X0105217Y0126476D01*
X0094783Y0126476D02*
X0105217Y0126476D01*
X0094783Y0121555D02*
X0105217Y0121555D01*
X0094783Y0121555D02*
X0094783Y0126476D01*
X0094784Y0115256D02*
X0094784Y0120177D01*
X0094784Y0115256D02*
X0105217Y0115256D01*
X0094784Y0120177D02*
X0105217Y0120177D01*
X0105217Y0115256D02*
X0105217Y0120177D01*
X0139862Y0097933D02*
X0139862Y0102854D01*
X0129429Y0102854D02*
X0139862Y0102854D01*
X0129429Y0097933D02*
X0139862Y0097933D01*
X0129429Y0097933D02*
X0129429Y0102854D01*
X0023917Y0197146D02*
X0028839Y0197146D01*
X0028839Y0207579D01*
X0023917Y0197146D02*
X0023917Y0207579D01*
X0028839Y0207579D01*
X0106594Y0136122D02*
X0106594Y0141043D01*
X0106594Y0136122D02*
X0117027Y0136122D01*
X0106594Y0141043D02*
X0117027Y0141043D01*
X0117027Y0136122D02*
X0117027Y0141043D01*
X0115748Y0125197D02*
X0118898Y0125197D01*
X0118898Y0129134D01*
X0107086Y0125197D02*
X0110236Y0125197D01*
X0107086Y0125197D02*
X0107086Y0129134D01*
X0128347Y0058661D02*
X0128347Y0059449D01*
X0107874Y0058661D02*
X0107874Y0059449D01*
X0128347Y0078347D02*
X0128347Y0079134D01*
X0107874Y0078347D02*
X0107874Y0079134D01*
X0107874Y0058661D02*
X0128347Y0058661D01*
X0107874Y0079134D02*
X0128347Y0079134D01*
X0132972Y0066437D02*
X0132972Y0071358D01*
X0132972Y0066437D02*
X0143405Y0066437D01*
X0132972Y0071358D02*
X0143405Y0071358D01*
X0143405Y0066437D02*
X0143405Y0071358D01*
X0132973Y0060138D02*
X0132973Y0065059D01*
X0132973Y0060138D02*
X0143405Y0060138D01*
X0132973Y0065059D02*
X0143405Y0065059D01*
X0143405Y0060138D02*
X0143405Y0065059D01*
X0132973Y0072736D02*
X0132973Y0077658D01*
X0132973Y0072736D02*
X0143405Y0072736D01*
X0132973Y0077658D02*
X0143405Y0077658D01*
X0143405Y0072736D02*
X0143405Y0077658D01*
X0110531Y0120177D02*
X0120964Y0120177D01*
X0110531Y0115256D02*
X0120964Y0115256D01*
X0110531Y0115256D02*
X0110531Y0120177D01*
X0120964Y0115256D02*
X0120964Y0120177D01*
X0125295Y0044783D02*
X0125295Y0055217D01*
X0120374Y0044783D02*
X0120374Y0055217D01*
X0125295Y0055217D01*
X0120374Y0044783D02*
X0125295Y0044783D01*
X0149606Y0052756D02*
X0152756Y0052756D01*
X0152756Y0048819D02*
X0152756Y0052756D01*
X0140945Y0052756D02*
X0144094Y0052756D01*
X0140945Y0048819D02*
X0140945Y0052756D01*
X0127998Y0094685D02*
X0127998Y0106102D01*
X0192815Y0126476D02*
X0203248Y0126476D01*
X0192815Y0121555D02*
X0203248Y0121555D01*
X0192815Y0121555D02*
X0192815Y0126476D01*
X0203248Y0121555D02*
X0203248Y0126476D01*
X0192815Y0109744D02*
X0192815Y0120177D01*
X0197736Y0109744D02*
X0197736Y0120177D01*
X0192815Y0109744D02*
X0197736Y0109744D01*
X0192815Y0120177D02*
X0197736Y0120177D01*
X0176673Y0120177D02*
X0187106Y0120177D01*
X0176673Y0115256D02*
X0187106Y0115256D01*
X0176673Y0115256D02*
X0176673Y0120177D01*
X0187106Y0115256D02*
X0187106Y0120177D01*
X0176673Y0108957D02*
X0187106Y0108957D01*
X0176673Y0113878D02*
X0187106Y0113878D01*
X0187106Y0108957D02*
X0187106Y0113878D01*
X0176673Y0108957D02*
X0176673Y0113878D01*
X0179134Y0099803D02*
X0190157Y0099803D01*
X0179134Y0101772D02*
X0190157Y0101772D01*
X0179134Y0099803D02*
X0179134Y0101772D01*
X0190157Y0099803D02*
X0190157Y0101772D01*
X0206648Y0094685D02*
X0206648Y0106102D01*
X0199508Y0097933D02*
X0199508Y0108366D01*
X0204429Y0097933D02*
X0204429Y0108366D01*
X0199508Y0097933D02*
X0204429Y0097933D01*
X0199508Y0108366D02*
X0204429Y0108366D01*
X0192815Y0097933D02*
X0192815Y0108366D01*
X0197736Y0097933D02*
X0197736Y0108366D01*
X0192815Y0097933D02*
X0197736Y0097933D01*
X0192815Y0108366D02*
X0197736Y0108366D01*
X0169980Y0236319D02*
X0180413Y0236319D01*
X0169980Y0231398D02*
X0180413Y0231398D01*
X0169980Y0231398D02*
X0169980Y0236319D01*
X0180413Y0231398D02*
X0180413Y0236319D01*
X0171555Y0212697D02*
X0181988Y0212697D01*
X0171555Y0207776D02*
X0181988Y0207776D01*
X0171555Y0207776D02*
X0171555Y0212697D01*
X0181988Y0207776D02*
X0181988Y0212697D01*
X0182480Y0214173D02*
X0182480Y0229921D01*
X0169488Y0214173D02*
X0182480Y0214173D01*
X0169488Y0214173D02*
X0169488Y0229921D01*
X0182480Y0229921D01*
X0132185Y0192225D02*
X0142618Y0192225D01*
X0132185Y0187303D02*
X0142618Y0187303D01*
X0132185Y0187303D02*
X0132185Y0192225D01*
X0142618Y0187303D02*
X0142618Y0192225D01*
X0134547Y0149114D02*
X0134547Y0159547D01*
X0139469Y0149114D02*
X0139469Y0159547D01*
X0134547Y0149114D02*
X0139469Y0149114D01*
X0134547Y0159547D02*
X0139469Y0159547D01*
X0185728Y0200098D02*
X0196161Y0200098D01*
X0185728Y0195177D02*
X0196161Y0195177D01*
X0185728Y0195177D02*
X0185728Y0200098D01*
X0196161Y0195177D02*
X0196161Y0200098D01*
X0203248Y0174311D02*
X0203248Y0184744D01*
X0198327Y0174311D02*
X0198327Y0184744D01*
X0203248Y0184744D01*
X0198327Y0174311D02*
X0203248Y0174311D01*
X0128248Y0149114D02*
X0128248Y0159547D01*
X0133169Y0149114D02*
X0133169Y0159547D01*
X0128248Y0149114D02*
X0133169Y0149114D01*
X0128248Y0159547D02*
X0133169Y0159547D01*
X0190650Y0134941D02*
X0190650Y0145374D01*
X0185728Y0134941D02*
X0185728Y0145374D01*
X0190650Y0145374D01*
X0185728Y0134941D02*
X0190650Y0134941D01*
X0184055Y0220079D02*
X0184055Y0236221D01*
X0193110Y0236221D01*
X0193110Y0220079D02*
X0193110Y0236221D01*
X0184055Y0220079D02*
X0193110Y0220079D01*
X0194390Y0225098D02*
X0194390Y0235531D01*
X0199311Y0225098D02*
X0199311Y0235531D01*
X0194390Y0225098D02*
X0199311Y0225098D01*
X0194390Y0235531D02*
X0199311Y0235531D01*
X0186122Y0218996D02*
X0196555Y0218996D01*
X0186122Y0214075D02*
X0196555Y0214075D01*
X0186122Y0214075D02*
X0186122Y0218996D01*
X0196555Y0214075D02*
X0196555Y0218996D01*
X0186122Y0212697D02*
X0196555Y0212697D01*
X0186122Y0207776D02*
X0196555Y0207776D01*
X0186122Y0207776D02*
X0186122Y0212697D01*
X0196555Y0207776D02*
X0196555Y0212697D01*
X0168209Y0218406D02*
X0168209Y0228839D01*
X0163287Y0218406D02*
X0163287Y0228839D01*
X0168209Y0228839D01*
X0163287Y0218406D02*
X0168209Y0218406D01*
X0151575Y0187795D02*
X0187008Y0187795D01*
X0151575Y0152362D02*
X0187008Y0152362D01*
X0187008Y0187795D01*
X0151575Y0152362D02*
X0151575Y0187795D01*
X0150295Y0229232D02*
X0155217Y0229232D01*
X0150295Y0218799D02*
X0155217Y0218799D01*
X0155217Y0229232D01*
X0150295Y0218799D02*
X0150295Y0229232D01*
X0156594Y0229232D02*
X0161516Y0229232D01*
X0156594Y0218799D02*
X0161516Y0218799D01*
X0161516Y0229232D01*
X0156594Y0218799D02*
X0156594Y0229232D01*
X0150689Y0217421D02*
X0161122Y0217421D01*
X0150689Y0212500D02*
X0161122Y0212500D01*
X0150689Y0212500D02*
X0150689Y0217421D01*
X0161122Y0212500D02*
X0161122Y0217421D01*
X0150689Y0211122D02*
X0161122Y0211122D01*
X0150689Y0206201D02*
X0161122Y0206201D01*
X0150689Y0206201D02*
X0150689Y0211122D01*
X0161122Y0206201D02*
X0161122Y0211122D01*
X0037598Y0164567D02*
X0100591Y0164567D01*
X0037598Y0227067D02*
X0037598Y0227559D01*
X0037598Y0219193D02*
X0037598Y0220177D01*
X0037598Y0211319D02*
X0037598Y0212303D01*
X0037598Y0203445D02*
X0037598Y0204429D01*
X0037598Y0195571D02*
X0037598Y0196555D01*
X0037598Y0187697D02*
X0037598Y0188681D01*
X0037598Y0179823D02*
X0037598Y0180807D01*
X0037598Y0171949D02*
X0037598Y0172933D01*
X0037598Y0164567D02*
X0037598Y0165059D01*
X0037598Y0227559D02*
X0100591Y0227559D01*
X0100591Y0227067D02*
X0100591Y0227559D01*
X0100591Y0219193D02*
X0100591Y0220177D01*
X0100591Y0211319D02*
X0100591Y0212303D01*
X0100591Y0203445D02*
X0100591Y0204429D01*
X0100591Y0195571D02*
X0100591Y0196555D01*
X0100591Y0187697D02*
X0100591Y0188681D01*
X0100591Y0179823D02*
X0100591Y0180807D01*
X0100591Y0171949D02*
X0100591Y0172933D01*
X0100591Y0164567D02*
X0100591Y0165059D01*
X0040551Y0248032D02*
X0040551Y0249606D01*
X0037795Y0243701D02*
X0039370Y0243701D01*
X0040551Y0237795D02*
X0040551Y0239370D01*
X0133858Y0052756D02*
X0139370Y0052756D01*
X0133858Y0042815D02*
X0133858Y0057972D01*
X0139370Y0057972D01*
X0139370Y0042815D02*
X0139370Y0057972D01*
X0133858Y0042815D02*
X0139370Y0042815D01*
X0194783Y0045177D02*
X0194783Y0055610D01*
X0199705Y0045177D02*
X0199705Y0055610D01*
X0194783Y0045177D02*
X0199705Y0045177D01*
X0194783Y0055610D02*
X0199705Y0055610D01*
X0194783Y0073524D02*
X0194783Y0083957D01*
X0199705Y0073524D02*
X0199705Y0083957D01*
X0194783Y0073524D02*
X0199705Y0073524D01*
X0194783Y0083957D02*
X0199705Y0083957D01*
X0189272Y0067618D02*
X0199705Y0067618D01*
X0189272Y0072539D02*
X0199705Y0072539D01*
X0199705Y0067618D02*
X0199705Y0072539D01*
X0189272Y0067618D02*
X0189272Y0072539D01*
X0189272Y0056594D02*
X0199705Y0056594D01*
X0189272Y0061516D02*
X0199705Y0061516D01*
X0199705Y0056594D02*
X0199705Y0061516D01*
X0189272Y0056594D02*
X0189272Y0061516D01*
X0173819Y0059449D02*
X0173819Y0069685D01*
X0175787Y0059449D02*
X0175787Y0069685D01*
X0173819Y0069685D02*
X0175787Y0069685D01*
X0173819Y0059449D02*
X0175787Y0059449D01*
X0163386Y0033661D02*
X0190157Y0033661D01*
X0163386Y0033661D02*
X0163386Y0049016D01*
X0190157Y0049016D01*
X0190157Y0033661D02*
X0190157Y0049016D01*
X0152854Y0030610D02*
X0152854Y0041043D01*
X0147933Y0030610D02*
X0147933Y0041043D01*
X0152854Y0041043D01*
X0147933Y0030610D02*
X0152854Y0030610D01*
X0134646Y0031102D02*
X0137795Y0031102D01*
X0134646Y0031102D02*
X0134646Y0035039D01*
X0143307Y0031102D02*
X0146457Y0031102D01*
X0146457Y0035039D01*
X0131496Y0108268D02*
X0134646Y0108268D01*
X0131496Y0108268D02*
X0131496Y0112205D01*
X0140157Y0108268D02*
X0143307Y0108268D01*
X0143307Y0112205D01*
X0008661Y0178345D02*
X0008661Y0174409D01*
X0010629Y0174409D01*
X0011285Y0175065D01*
X0011285Y0177689D01*
X0010629Y0178345D01*
X0008661Y0178345D01*
X0012597Y0178345D02*
X0013909Y0178345D01*
X0013253Y0178345D01*
X0013253Y0174409D01*
X0012597Y0174409D01*
X0013909Y0174409D01*
X0017845Y0178345D02*
X0016533Y0178345D01*
X0015877Y0177689D01*
X0015877Y0175065D01*
X0016533Y0174409D01*
X0017845Y0174409D01*
X0018501Y0175065D01*
X0018501Y0177689D01*
X0017845Y0178345D01*
X0019813Y0174409D02*
X0021125Y0174409D01*
X0020469Y0174409D01*
X0020469Y0178345D01*
X0019813Y0177689D01*
X0118372Y0193437D02*
X0117716Y0194093D01*
X0116404Y0194093D01*
X0115748Y0193437D01*
X0115748Y0192781D01*
X0116404Y0192125D01*
X0117716Y0192125D01*
X0118372Y0191469D01*
X0118372Y0190813D01*
X0117716Y0190157D01*
X0116404Y0190157D01*
X0115748Y0190813D01*
X0122308Y0193437D02*
X0121652Y0194093D01*
X0120340Y0194093D01*
X0119684Y0193437D01*
X0119684Y0190813D01*
X0120340Y0190157D01*
X0121652Y0190157D01*
X0122308Y0190813D01*
X0123619Y0194093D02*
X0123619Y0190157D01*
X0123619Y0191469D01*
X0126243Y0194093D01*
X0124276Y0192125D01*
X0126243Y0190157D01*
X0056299Y0133463D02*
X0057611Y0133463D01*
X0056955Y0133463D01*
X0056955Y0129528D01*
X0056299Y0129528D01*
X0057611Y0129528D01*
X0059579Y0129528D02*
X0059579Y0133463D01*
X0061547Y0133463D01*
X0062203Y0132807D01*
X0062203Y0131495D01*
X0061547Y0130840D01*
X0059579Y0130840D01*
X0060891Y0130840D02*
X0062203Y0129528D01*
X0066138Y0129528D02*
X0063515Y0129528D01*
X0066138Y0132151D01*
X0066138Y0132807D01*
X0065483Y0133463D01*
X0064171Y0133463D01*
X0063515Y0132807D01*
X0183071Y0205904D02*
X0183071Y0201969D01*
X0183071Y0203936D01*
X0185695Y0203936D01*
X0185695Y0205904D01*
X0185695Y0201969D01*
X0189630Y0205248D02*
X0188974Y0205904D01*
X0187663Y0205904D01*
X0187007Y0205248D01*
X0187007Y0204592D01*
X0187663Y0203936D01*
X0188974Y0203936D01*
X0189630Y0203280D01*
X0189630Y0202625D01*
X0188974Y0201969D01*
X0187663Y0201969D01*
X0187007Y0202625D01*
X0193566Y0205904D02*
X0190942Y0205904D01*
X0190942Y0201969D01*
X0193566Y0201969D01*
X0190942Y0203936D02*
X0192254Y0203936D01*
X0204724Y0242518D02*
X0204724Y0238583D01*
X0207348Y0238583D01*
X0211284Y0241862D02*
X0210628Y0242518D01*
X0209316Y0242518D01*
X0208660Y0241862D01*
X0208660Y0241207D01*
X0209316Y0240550D01*
X0210628Y0240550D01*
X0211284Y0239895D01*
X0211284Y0239239D01*
X0210628Y0238583D01*
X0209316Y0238583D01*
X0208660Y0239239D01*
X0215220Y0242518D02*
X0212596Y0242518D01*
X0212596Y0238583D01*
X0215220Y0238583D01*
X0212596Y0240550D02*
X0213908Y0240550D01*
X0008268Y0186219D02*
X0008268Y0182283D01*
X0010236Y0182283D01*
X0010892Y0182939D01*
X0010892Y0185563D01*
X0010236Y0186219D01*
X0008268Y0186219D01*
X0012203Y0186219D02*
X0013515Y0186219D01*
X0012859Y0186219D01*
X0012859Y0182283D01*
X0012203Y0182283D01*
X0013515Y0182283D01*
X0017451Y0186219D02*
X0016139Y0186219D01*
X0015483Y0185563D01*
X0015483Y0182939D01*
X0016139Y0182283D01*
X0017451Y0182283D01*
X0018107Y0182939D01*
X0018107Y0185563D01*
X0017451Y0186219D01*
X0019419Y0185563D02*
X0020075Y0186219D01*
X0021387Y0186219D01*
X0022043Y0185563D01*
X0022043Y0182939D01*
X0021387Y0182283D01*
X0020075Y0182283D01*
X0019419Y0182939D01*
X0019419Y0185563D01*
X0081495Y0107087D02*
X0081495Y0111022D01*
X0079528Y0109055D01*
X0082151Y0109055D01*
X0083463Y0107087D02*
X0083463Y0107743D01*
X0084119Y0107743D01*
X0084119Y0107087D01*
X0083463Y0107087D01*
X0089367Y0111022D02*
X0086743Y0111022D01*
X0086743Y0109055D01*
X0088055Y0109710D01*
X0088711Y0109710D01*
X0089367Y0109055D01*
X0089367Y0107743D01*
X0088711Y0107087D01*
X0087399Y0107087D01*
X0086743Y0107743D01*
X0090679Y0111022D02*
X0090679Y0108398D01*
X0091991Y0107087D01*
X0093303Y0108398D01*
X0093303Y0111022D01*
X0155513Y0023228D02*
X0159449Y0023228D01*
X0159449Y0025196D01*
X0158793Y0025852D01*
X0158137Y0025852D01*
X0157481Y0025196D01*
X0157481Y0023228D01*
X0157481Y0025196D01*
X0156825Y0025852D01*
X0156169Y0025852D01*
X0155513Y0025196D01*
X0155513Y0023228D01*
X0159449Y0027164D02*
X0156825Y0027164D01*
X0155513Y0028476D01*
X0156825Y0029788D01*
X0159449Y0029788D01*
X0157481Y0029788D01*
X0157481Y0027164D01*
X0155513Y0031100D02*
X0155513Y0033724D01*
X0155513Y0032412D01*
X0159449Y0032412D01*
X0116142Y0182283D02*
X0116142Y0186219D01*
X0117454Y0184907D01*
X0118766Y0186219D01*
X0118766Y0182283D01*
X0122045Y0186219D02*
X0120733Y0186219D01*
X0120078Y0185563D01*
X0120078Y0182939D01*
X0120733Y0182283D01*
X0122045Y0182283D01*
X0122701Y0182939D01*
X0122701Y0185563D01*
X0122045Y0186219D01*
X0126637Y0185563D02*
X0125981Y0186219D01*
X0124669Y0186219D01*
X0124013Y0185563D01*
X0124013Y0184907D01*
X0124669Y0184251D01*
X0125981Y0184251D01*
X0126637Y0183595D01*
X0126637Y0182939D01*
X0125981Y0182283D01*
X0124669Y0182283D01*
X0124013Y0182939D01*
X0127949Y0186219D02*
X0129261Y0186219D01*
X0128605Y0186219D01*
X0128605Y0182283D01*
X0127949Y0182283D01*
X0129261Y0182283D01*
X0116142Y0174409D02*
X0116142Y0178345D01*
X0117454Y0177033D01*
X0118766Y0178345D01*
X0118766Y0174409D01*
X0120078Y0178345D02*
X0121389Y0178345D01*
X0120733Y0178345D01*
X0120733Y0174409D01*
X0120078Y0174409D01*
X0121389Y0174409D01*
X0125981Y0177689D02*
X0125325Y0178345D01*
X0124013Y0178345D01*
X0123357Y0177689D01*
X0123357Y0177033D01*
X0124013Y0176377D01*
X0125325Y0176377D01*
X0125981Y0175721D01*
X0125981Y0175065D01*
X0125325Y0174409D01*
X0124013Y0174409D01*
X0123357Y0175065D01*
X0129261Y0178345D02*
X0127949Y0178345D01*
X0127293Y0177689D01*
X0127293Y0175065D01*
X0127949Y0174409D01*
X0129261Y0174409D01*
X0129917Y0175065D01*
X0129917Y0177689D01*
X0129261Y0178345D01*
X0176772Y0130314D02*
X0178084Y0130314D01*
X0177428Y0130314D01*
X0177428Y0126378D01*
X0176772Y0126378D01*
X0178084Y0126378D01*
X0180051Y0126378D02*
X0180051Y0130314D01*
X0182019Y0130314D01*
X0182675Y0129658D01*
X0182675Y0128346D01*
X0182019Y0127690D01*
X0180051Y0127690D01*
X0181363Y0127690D02*
X0182675Y0126378D01*
X0183987Y0126378D02*
X0185299Y0126378D01*
X0184643Y0126378D01*
X0184643Y0130314D01*
X0183987Y0129658D01*
X0115748Y0205906D02*
X0115748Y0209841D01*
X0117716Y0209841D01*
X0118372Y0209185D01*
X0118372Y0207873D01*
X0117716Y0207217D01*
X0115748Y0207217D01*
X0117060Y0207217D02*
X0118372Y0205906D01*
X0122308Y0209841D02*
X0119684Y0209841D01*
X0119684Y0205906D01*
X0122308Y0205906D01*
X0119684Y0207873D02*
X0120996Y0207873D01*
X0126243Y0209185D02*
X0125587Y0209841D01*
X0124276Y0209841D01*
X0123619Y0209185D01*
X0123619Y0208529D01*
X0124276Y0207873D01*
X0125587Y0207873D01*
X0126243Y0207217D01*
X0126243Y0206561D01*
X0125587Y0205906D01*
X0124276Y0205906D01*
X0123619Y0206561D01*
X0130179Y0209841D02*
X0127555Y0209841D01*
X0127555Y0205906D01*
X0130179Y0205906D01*
X0127555Y0207873D02*
X0128867Y0207873D01*
X0131491Y0209841D02*
X0134115Y0209841D01*
X0132803Y0209841D01*
X0132803Y0205906D01*
X0115748Y0198031D02*
X0115748Y0201967D01*
X0118372Y0198031D01*
X0118372Y0201967D01*
X0122308Y0201311D02*
X0121652Y0201967D01*
X0120340Y0201967D01*
X0119684Y0201311D01*
X0119684Y0200655D01*
X0120340Y0199999D01*
X0121652Y0199999D01*
X0122308Y0199343D01*
X0122308Y0198688D01*
X0121652Y0198031D01*
X0120340Y0198031D01*
X0119684Y0198688D01*
X0126243Y0201311D02*
X0125587Y0201967D01*
X0124275Y0201967D01*
X0123619Y0201311D01*
X0123619Y0200655D01*
X0124275Y0199999D01*
X0125587Y0199999D01*
X0126243Y0199343D01*
X0126243Y0198688D01*
X0125587Y0198031D01*
X0124275Y0198031D01*
X0123619Y0198688D01*
X0096063Y0152886D02*
X0096719Y0153542D01*
X0098031Y0153542D01*
X0098687Y0152886D01*
X0098687Y0152230D01*
X0098031Y0151574D01*
X0097375Y0151574D01*
X0098031Y0151574D01*
X0098687Y0150918D01*
X0098687Y0150262D01*
X0098031Y0149606D01*
X0096719Y0149606D01*
X0096063Y0150262D01*
X0099999Y0149606D02*
X0099999Y0150262D01*
X0100655Y0150262D01*
X0100655Y0149606D01*
X0099999Y0149606D01*
X0103279Y0152886D02*
X0103935Y0153542D01*
X0105246Y0153542D01*
X0105902Y0152886D01*
X0105902Y0152230D01*
X0105246Y0151574D01*
X0104590Y0151574D01*
X0105246Y0151574D01*
X0105902Y0150918D01*
X0105902Y0150262D01*
X0105246Y0149606D01*
X0103935Y0149606D01*
X0103279Y0150262D01*
X0107214Y0153542D02*
X0107214Y0150918D01*
X0108526Y0149606D01*
X0109838Y0150918D01*
X0109838Y0153542D01*
X0030972Y0231169D02*
X0030316Y0230513D01*
X0030316Y0229201D01*
X0030972Y0228545D01*
X0033595Y0228545D01*
X0034251Y0229201D01*
X0034251Y0230513D01*
X0033595Y0231169D01*
X0034251Y0232481D02*
X0034251Y0233793D01*
X0034251Y0233137D01*
X0030316Y0233137D01*
X0030972Y0232481D01*
X0033595Y0235760D02*
X0034251Y0236416D01*
X0034251Y0237728D01*
X0033595Y0238384D01*
X0030972Y0238384D01*
X0030316Y0237728D01*
X0030316Y0236416D01*
X0030972Y0235760D01*
X0031628Y0235760D01*
X0032283Y0236416D01*
X0032283Y0238384D01*
X0045611Y0071280D02*
X0045611Y0067345D01*
X0045611Y0069313D01*
X0048235Y0069313D01*
X0048235Y0071280D01*
X0048235Y0067345D01*
X0049547Y0067345D02*
X0049547Y0069968D01*
X0050859Y0071280D01*
X0052171Y0069968D01*
X0052171Y0067345D01*
X0052171Y0069313D01*
X0049547Y0069313D01*
X0053483Y0067345D02*
X0054795Y0067345D01*
X0054139Y0067345D01*
X0054139Y0071280D01*
X0053483Y0070625D01*
X0024935Y0157217D02*
X0024279Y0157873D01*
X0022967Y0157873D01*
X0022311Y0157217D01*
X0022311Y0156562D01*
X0022967Y0155905D01*
X0024279Y0155905D01*
X0024935Y0155250D01*
X0024935Y0154594D01*
X0024279Y0153938D01*
X0022967Y0153938D01*
X0022311Y0154594D01*
X0026247Y0157873D02*
X0026247Y0153938D01*
X0028215Y0153938D01*
X0028871Y0154594D01*
X0028871Y0155250D01*
X0028215Y0155905D01*
X0026247Y0155905D01*
X0028215Y0155905D01*
X0028871Y0156562D01*
X0028871Y0157217D01*
X0028215Y0157873D01*
X0026247Y0157873D01*
X0032807Y0153938D02*
X0030183Y0153938D01*
X0032807Y0156562D01*
X0032807Y0157217D01*
X0032151Y0157873D01*
X0030839Y0157873D01*
X0030183Y0157217D01*
X0104725Y0046981D02*
X0104069Y0047637D01*
X0102757Y0047637D01*
X0102101Y0046981D01*
X0102101Y0046325D01*
X0102757Y0045669D01*
X0104069Y0045669D01*
X0104725Y0045013D01*
X0104725Y0044357D01*
X0104069Y0043701D01*
X0102757Y0043701D01*
X0102101Y0044357D01*
X0106037Y0047637D02*
X0106037Y0043701D01*
X0108005Y0043701D01*
X0108661Y0044357D01*
X0108661Y0045013D01*
X0108005Y0045669D01*
X0106037Y0045669D01*
X0108005Y0045669D01*
X0108661Y0046325D01*
X0108661Y0046981D01*
X0108005Y0047637D01*
X0106037Y0047637D01*
X0109973Y0043701D02*
X0111285Y0043701D01*
X0110629Y0043701D01*
X0110629Y0047637D01*
X0109973Y0046981D01*
X0184910Y0242125D02*
X0187534Y0242125D01*
X0187534Y0241469D01*
X0184910Y0238846D01*
X0184910Y0238190D01*
X0187534Y0238190D01*
X0191469Y0238846D02*
X0191469Y0241469D01*
X0190813Y0242125D01*
X0189502Y0242125D01*
X0188846Y0241469D01*
X0188846Y0238846D01*
X0189502Y0238190D01*
X0190813Y0238190D01*
X0190157Y0239502D02*
X0191469Y0238190D01*
X0190813Y0238190D02*
X0191469Y0238846D01*
X0195405Y0238190D02*
X0192781Y0238190D01*
X0195405Y0240813D01*
X0195405Y0241469D01*
X0194749Y0242125D01*
X0193437Y0242125D01*
X0192781Y0241469D01*
X0162993Y0233597D02*
X0162993Y0236221D01*
X0163649Y0236221D01*
X0166272Y0233597D01*
X0166929Y0233597D01*
X0166929Y0236221D01*
X0166272Y0240157D02*
X0163649Y0240157D01*
X0162993Y0239501D01*
X0162993Y0238189D01*
X0163649Y0237533D01*
X0166272Y0237533D01*
X0166929Y0238189D01*
X0166929Y0239501D01*
X0165617Y0238845D02*
X0166929Y0240157D01*
X0166929Y0239501D02*
X0166272Y0240157D01*
X0166929Y0241469D02*
X0166929Y0242781D01*
X0166929Y0242125D01*
X0162993Y0242125D01*
X0163649Y0241469D01*
X0206038Y0043306D02*
X0208662Y0039371D01*
X0208662Y0043306D02*
X0206038Y0039371D01*
X0212598Y0042650D02*
X0211942Y0043306D01*
X0210630Y0043306D01*
X0209974Y0042650D01*
X0209974Y0041995D01*
X0210630Y0041339D01*
X0211942Y0041339D01*
X0212598Y0040683D01*
X0212598Y0040027D01*
X0211942Y0039371D01*
X0210630Y0039371D01*
X0209974Y0040027D01*
X0213910Y0039371D02*
X0215222Y0039371D01*
X0214566Y0039371D01*
X0214566Y0043306D01*
X0213910Y0042650D01*
X0077036Y0082677D02*
X0077036Y0080053D01*
X0078348Y0078741D01*
X0079660Y0080053D01*
X0079660Y0082677D01*
X0080972Y0082677D02*
X0083595Y0082677D01*
X0082284Y0082677D01*
X0082284Y0078741D01*
X0084907Y0082021D02*
X0085563Y0082677D01*
X0086875Y0082677D01*
X0087531Y0082021D01*
X0087531Y0081365D01*
X0086875Y0080709D01*
X0086219Y0080709D01*
X0086875Y0080709D01*
X0087531Y0080053D01*
X0087531Y0079397D01*
X0086875Y0078741D01*
X0085563Y0078741D01*
X0084907Y0079397D01*
X0131135Y0125492D02*
X0131135Y0122868D01*
X0132447Y0121556D01*
X0133759Y0122868D01*
X0133759Y0125492D01*
X0135071Y0125492D02*
X0137695Y0125492D01*
X0136383Y0125492D01*
X0136383Y0121556D01*
X0141631Y0121556D02*
X0139007Y0121556D01*
X0141631Y0124180D01*
X0141631Y0124836D01*
X0140975Y0125492D01*
X0139663Y0125492D01*
X0139007Y0124836D01*
X0154857Y0055905D02*
X0154857Y0053281D01*
X0156169Y0051969D01*
X0157481Y0053281D01*
X0157481Y0055905D01*
X0158793Y0055905D02*
X0161417Y0055905D01*
X0160105Y0055905D01*
X0160105Y0051969D01*
X0162729Y0051969D02*
X0164041Y0051969D01*
X0163385Y0051969D01*
X0163385Y0055905D01*
X0162729Y0055249D01*
X0112075Y0085039D02*
X0112075Y0082415D01*
X0113387Y0081103D01*
X0114699Y0082415D01*
X0114699Y0085039D01*
X0116011Y0085039D02*
X0116011Y0081103D01*
X0117979Y0081103D01*
X0118635Y0081759D01*
X0118635Y0084383D01*
X0117979Y0085039D01*
X0116011Y0085039D01*
X0122571Y0085039D02*
X0119947Y0085039D01*
X0119947Y0083071D01*
X0121259Y0083727D01*
X0121915Y0083727D01*
X0122571Y0083071D01*
X0122571Y0081759D01*
X0121915Y0081103D01*
X0120603Y0081103D01*
X0119947Y0081759D01*
X0093965Y0101968D02*
X0093965Y0099344D01*
X0095277Y0098032D01*
X0096589Y0099344D01*
X0096589Y0101968D01*
X0097901Y0101968D02*
X0097901Y0098032D01*
X0099869Y0098032D01*
X0100524Y0098688D01*
X0100524Y0101312D01*
X0099869Y0101968D01*
X0097901Y0101968D01*
X0103804Y0098032D02*
X0103804Y0101968D01*
X0101836Y0100000D01*
X0104460Y0100000D01*
X0135303Y0025196D02*
X0135303Y0022572D01*
X0136615Y0021260D01*
X0137927Y0022572D01*
X0137927Y0025196D01*
X0139239Y0025196D02*
X0139239Y0021260D01*
X0141207Y0021260D01*
X0141863Y0021916D01*
X0141863Y0024540D01*
X0141207Y0025196D01*
X0139239Y0025196D01*
X0143175Y0024540D02*
X0143831Y0025196D01*
X0145143Y0025196D01*
X0145799Y0024540D01*
X0145799Y0023884D01*
X0145143Y0023228D01*
X0144487Y0023228D01*
X0145143Y0023228D01*
X0145799Y0022572D01*
X0145799Y0021916D01*
X0145143Y0021260D01*
X0143831Y0021260D01*
X0143175Y0021916D01*
X0127953Y0044359D02*
X0130577Y0044359D01*
X0131889Y0045671D01*
X0130577Y0046982D01*
X0127953Y0046982D01*
X0127953Y0048294D02*
X0131889Y0048294D01*
X0131889Y0050262D01*
X0131233Y0050918D01*
X0128609Y0050918D01*
X0127953Y0050262D01*
X0127953Y0048294D01*
X0131889Y0054854D02*
X0131889Y0052230D01*
X0129265Y0054854D01*
X0128609Y0054854D01*
X0127953Y0054198D01*
X0127953Y0052886D01*
X0128609Y0052230D01*
X0168637Y0075590D02*
X0168637Y0072966D01*
X0169949Y0071654D01*
X0171260Y0072966D01*
X0171260Y0075590D01*
X0172572Y0075590D02*
X0172572Y0071654D01*
X0174540Y0071654D01*
X0175196Y0072310D01*
X0175196Y0074934D01*
X0174540Y0075590D01*
X0172572Y0075590D01*
X0176508Y0071654D02*
X0177820Y0071654D01*
X0177164Y0071654D01*
X0177164Y0075590D01*
X0176508Y0074934D01*
X0067455Y0233858D02*
X0067455Y0230578D01*
X0068111Y0229922D01*
X0069423Y0229922D01*
X0070079Y0230578D01*
X0070079Y0233858D01*
X0071391Y0229922D02*
X0072703Y0229922D01*
X0072047Y0229922D01*
X0072047Y0233858D01*
X0071391Y0233202D01*
X0129726Y0092127D02*
X0129726Y0096062D01*
X0131694Y0096062D01*
X0132350Y0095406D01*
X0132350Y0094095D01*
X0131694Y0093439D01*
X0129726Y0093439D01*
X0131038Y0093439D02*
X0132350Y0092127D01*
X0133662Y0092127D02*
X0134974Y0092127D01*
X0134318Y0092127D01*
X0134318Y0096062D01*
X0133662Y0095406D01*
X0139565Y0096062D02*
X0138253Y0095406D01*
X0136942Y0094095D01*
X0136942Y0092783D01*
X0137598Y0092127D01*
X0138909Y0092127D01*
X0139565Y0092783D01*
X0139565Y0093439D01*
X0138909Y0094095D01*
X0136942Y0094095D01*
X0047442Y0119686D02*
X0047442Y0123621D01*
X0049410Y0123621D01*
X0050066Y0122966D01*
X0050066Y0121653D01*
X0049410Y0120998D01*
X0047442Y0120998D01*
X0048754Y0120998D02*
X0050066Y0119686D01*
X0051378Y0119686D02*
X0052690Y0119686D01*
X0052034Y0119686D01*
X0052034Y0123621D01*
X0051378Y0122966D01*
X0057282Y0123621D02*
X0054658Y0123621D01*
X0054658Y0121653D01*
X0055970Y0122310D01*
X0056626Y0122310D01*
X0057282Y0121653D01*
X0057282Y0120342D01*
X0056626Y0119686D01*
X0055314Y0119686D01*
X0054658Y0120342D01*
X0073033Y0066536D02*
X0073033Y0070472D01*
X0075001Y0070472D01*
X0075657Y0069816D01*
X0075657Y0068504D01*
X0075001Y0067848D01*
X0073033Y0067848D01*
X0074345Y0067848D02*
X0075657Y0066536D01*
X0076969Y0066536D02*
X0078281Y0066536D01*
X0077625Y0066536D01*
X0077625Y0070472D01*
X0076969Y0069816D01*
X0082217Y0066536D02*
X0082217Y0070472D01*
X0080249Y0068504D01*
X0082872Y0068504D01*
X0198624Y0208268D02*
X0198624Y0212204D01*
X0200591Y0212204D01*
X0201248Y0211548D01*
X0201248Y0210236D01*
X0200591Y0209580D01*
X0198624Y0209580D01*
X0199935Y0209580D02*
X0201248Y0208268D01*
X0202559Y0208268D02*
X0203871Y0208268D01*
X0203215Y0208268D01*
X0203215Y0212204D01*
X0202559Y0211548D01*
X0205839Y0211548D02*
X0206495Y0212204D01*
X0207807Y0212204D01*
X0208463Y0211548D01*
X0208463Y0210892D01*
X0207807Y0210236D01*
X0207151Y0210236D01*
X0207807Y0210236D01*
X0208463Y0209580D01*
X0208463Y0208924D01*
X0207807Y0208268D01*
X0206495Y0208268D01*
X0205839Y0208924D01*
X0167716Y0206498D02*
X0163780Y0206498D01*
X0163780Y0208466D01*
X0164436Y0209121D01*
X0165748Y0209121D01*
X0166404Y0208466D01*
X0166404Y0206498D01*
X0166404Y0207809D02*
X0167716Y0209121D01*
X0167716Y0210433D02*
X0167716Y0211745D01*
X0167716Y0211089D01*
X0163780Y0211089D01*
X0164436Y0210433D01*
X0167716Y0216337D02*
X0167716Y0213713D01*
X0165092Y0216337D01*
X0164436Y0216337D01*
X0163780Y0215681D01*
X0163780Y0214369D01*
X0164436Y0213713D01*
X0145343Y0060631D02*
X0145343Y0064566D01*
X0147310Y0064566D01*
X0147966Y0063910D01*
X0147966Y0062598D01*
X0147310Y0061942D01*
X0145343Y0061942D01*
X0146654Y0061942D02*
X0147966Y0060631D01*
X0149278Y0060631D02*
X0150590Y0060631D01*
X0149934Y0060631D01*
X0149934Y0064566D01*
X0149278Y0063910D01*
X0152558Y0060631D02*
X0153870Y0060631D01*
X0153214Y0060631D01*
X0153214Y0064566D01*
X0152558Y0063910D01*
X0145474Y0067323D02*
X0145474Y0071259D01*
X0147442Y0071259D01*
X0148098Y0070603D01*
X0148098Y0069291D01*
X0147442Y0068635D01*
X0145474Y0068635D01*
X0146786Y0068635D02*
X0148098Y0067323D01*
X0149410Y0067323D02*
X0150722Y0067323D01*
X0150066Y0067323D01*
X0150066Y0071259D01*
X0149410Y0070603D01*
X0152690Y0070603D02*
X0153346Y0071259D01*
X0154657Y0071259D01*
X0155313Y0070603D01*
X0155313Y0067979D01*
X0154657Y0067323D01*
X0153346Y0067323D01*
X0152690Y0067979D01*
X0152690Y0070603D01*
X0145145Y0073229D02*
X0145145Y0077165D01*
X0147113Y0077165D01*
X0147769Y0076509D01*
X0147769Y0075197D01*
X0147113Y0074541D01*
X0145145Y0074541D01*
X0146457Y0074541D02*
X0147769Y0073229D01*
X0149081Y0073885D02*
X0149737Y0073229D01*
X0151049Y0073229D01*
X0151705Y0073885D01*
X0151705Y0076509D01*
X0151049Y0077165D01*
X0149737Y0077165D01*
X0149081Y0076509D01*
X0149081Y0075853D01*
X0149737Y0075197D01*
X0151705Y0075197D01*
X0203543Y0112074D02*
X0199607Y0112074D01*
X0199607Y0114042D01*
X0200263Y0114698D01*
X0201575Y0114698D01*
X0202231Y0114042D01*
X0202231Y0112074D01*
X0202231Y0113386D02*
X0203543Y0114698D01*
X0200263Y0116010D02*
X0199607Y0116666D01*
X0199607Y0117978D01*
X0200263Y0118634D01*
X0200919Y0118634D01*
X0201575Y0117978D01*
X0202231Y0118634D01*
X0202887Y0118634D01*
X0203543Y0117978D01*
X0203543Y0116666D01*
X0202887Y0116010D01*
X0202231Y0116010D01*
X0201575Y0116666D01*
X0200919Y0116010D01*
X0200263Y0116010D01*
X0201575Y0116666D02*
X0201575Y0117978D01*
X0086090Y0122048D02*
X0086090Y0125984D01*
X0088058Y0125984D01*
X0088714Y0125328D01*
X0088714Y0124016D01*
X0088058Y0123360D01*
X0086090Y0123360D01*
X0087402Y0123360D02*
X0088714Y0122048D01*
X0090026Y0125984D02*
X0092650Y0125984D01*
X0092650Y0125328D01*
X0090026Y0122704D01*
X0090026Y0122048D01*
X0086090Y0115749D02*
X0086090Y0119684D01*
X0088058Y0119684D01*
X0088714Y0119028D01*
X0088714Y0117717D01*
X0088058Y0117061D01*
X0086090Y0117061D01*
X0087402Y0117061D02*
X0088714Y0115749D01*
X0092650Y0119684D02*
X0091338Y0119028D01*
X0090026Y0117717D01*
X0090026Y0116405D01*
X0090682Y0115749D01*
X0091994Y0115749D01*
X0092650Y0116405D01*
X0092650Y0117061D01*
X0091994Y0117717D01*
X0090026Y0117717D01*
X0196850Y0089634D02*
X0192914Y0089634D01*
X0192914Y0091602D01*
X0193570Y0092257D01*
X0194882Y0092257D01*
X0195538Y0091602D01*
X0195538Y0089634D01*
X0195538Y0090946D02*
X0196850Y0092257D01*
X0192914Y0096193D02*
X0192914Y0093569D01*
X0194882Y0093569D01*
X0194226Y0094881D01*
X0194226Y0095537D01*
X0194882Y0096193D01*
X0196194Y0096193D01*
X0196850Y0095537D01*
X0196850Y0094225D01*
X0196194Y0093569D01*
X0168374Y0115749D02*
X0168374Y0119684D01*
X0170342Y0119684D01*
X0170998Y0119028D01*
X0170998Y0117717D01*
X0170342Y0117061D01*
X0168374Y0117061D01*
X0169686Y0117061D02*
X0170998Y0115749D01*
X0174277Y0115749D02*
X0174277Y0119684D01*
X0172310Y0117717D01*
X0174933Y0117717D01*
X0118503Y0046327D02*
X0114567Y0046327D01*
X0114567Y0048294D01*
X0115224Y0048950D01*
X0116535Y0048950D01*
X0117191Y0048294D01*
X0117191Y0046327D01*
X0117191Y0047638D02*
X0118503Y0048950D01*
X0115224Y0050262D02*
X0114567Y0050918D01*
X0114567Y0052230D01*
X0115224Y0052886D01*
X0115879Y0052886D01*
X0116535Y0052230D01*
X0116535Y0051574D01*
X0116535Y0052230D01*
X0117191Y0052886D01*
X0117847Y0052886D01*
X0118503Y0052230D01*
X0118503Y0050918D01*
X0117847Y0050262D01*
X0180972Y0071260D02*
X0180972Y0075196D01*
X0182940Y0075196D01*
X0183596Y0074540D01*
X0183596Y0073228D01*
X0182940Y0072572D01*
X0180972Y0072572D01*
X0182284Y0072572D02*
X0183596Y0071260D01*
X0187532Y0071260D02*
X0184908Y0071260D01*
X0187532Y0073884D01*
X0187532Y0074540D01*
X0186876Y0075196D01*
X0185564Y0075196D01*
X0184908Y0074540D01*
X0182416Y0053544D02*
X0182416Y0057480D01*
X0184383Y0057480D01*
X0185039Y0056824D01*
X0185039Y0055512D01*
X0184383Y0054856D01*
X0182416Y0054856D01*
X0183728Y0054856D02*
X0185039Y0053544D01*
X0186351Y0053544D02*
X0187663Y0053544D01*
X0187007Y0053544D01*
X0187007Y0057480D01*
X0186351Y0056824D01*
X0156694Y0234122D02*
X0160629Y0234122D01*
X0160629Y0236746D01*
X0157350Y0238057D02*
X0156694Y0238714D01*
X0156694Y0240025D01*
X0157350Y0240681D01*
X0158005Y0240681D01*
X0158661Y0240025D01*
X0158661Y0239369D01*
X0158661Y0240025D01*
X0159317Y0240681D01*
X0159973Y0240681D01*
X0160629Y0240025D01*
X0160629Y0238714D01*
X0159973Y0238057D01*
X0150788Y0234122D02*
X0154724Y0234122D01*
X0154724Y0236746D01*
X0154724Y0240681D02*
X0154724Y0238057D01*
X0152100Y0240681D01*
X0151444Y0240681D01*
X0150788Y0240025D01*
X0150788Y0238714D01*
X0151444Y0238057D01*
X0030316Y0242258D02*
X0034251Y0242258D01*
X0034251Y0244882D01*
X0034251Y0246194D02*
X0034251Y0247506D01*
X0034251Y0246850D01*
X0030316Y0246850D01*
X0030972Y0246194D01*
X0174804Y0031495D02*
X0172180Y0031495D01*
X0172180Y0029528D01*
X0173492Y0029528D01*
X0172180Y0029528D01*
X0172180Y0027560D01*
X0176116Y0031495D02*
X0176116Y0028216D01*
X0176772Y0027560D01*
X0178084Y0027560D01*
X0178740Y0028216D01*
X0178740Y0031495D01*
X0180051Y0027560D02*
X0181363Y0027560D01*
X0180707Y0027560D01*
X0180707Y0031495D01*
X0180051Y0030839D01*
X0192259Y0152362D02*
X0192259Y0148426D01*
X0194227Y0148426D01*
X0194883Y0149082D01*
X0194883Y0151706D01*
X0194227Y0152362D01*
X0192259Y0152362D01*
X0196194Y0152362D02*
X0196194Y0148426D01*
X0198162Y0148426D01*
X0198818Y0149082D01*
X0198818Y0151706D01*
X0198162Y0152362D01*
X0196194Y0152362D01*
X0200130Y0148426D02*
X0201442Y0148426D01*
X0200786Y0148426D01*
X0200786Y0152362D01*
X0200130Y0151706D01*
X0121524Y0133858D02*
X0121524Y0129922D01*
X0123492Y0129922D01*
X0124148Y0130578D01*
X0124148Y0133202D01*
X0123492Y0133858D01*
X0121524Y0133858D01*
X0125460Y0129922D02*
X0125460Y0132546D01*
X0126772Y0133858D01*
X0128084Y0132546D01*
X0128084Y0129922D01*
X0128084Y0131890D01*
X0125460Y0131890D01*
X0132019Y0129922D02*
X0129395Y0129922D01*
X0132019Y0132546D01*
X0132019Y0133202D01*
X0131363Y0133858D01*
X0130051Y0133858D01*
X0129395Y0133202D01*
X0167455Y0103149D02*
X0167455Y0099213D01*
X0169423Y0099213D01*
X0170079Y0099869D01*
X0170079Y0102493D01*
X0169423Y0103149D01*
X0167455Y0103149D01*
X0171391Y0099213D02*
X0171391Y0101837D01*
X0172703Y0103149D01*
X0174015Y0101837D01*
X0174015Y0099213D01*
X0174015Y0101181D01*
X0171391Y0101181D01*
X0175327Y0099213D02*
X0176639Y0099213D01*
X0175983Y0099213D01*
X0175983Y0103149D01*
X0175327Y0102493D01*
X0201313Y0217847D02*
X0200657Y0218503D01*
X0199345Y0218503D01*
X0198689Y0217847D01*
X0198689Y0215224D01*
X0199345Y0214568D01*
X0200657Y0214568D01*
X0201313Y0215224D01*
X0205249Y0214568D02*
X0202625Y0214568D01*
X0205249Y0217191D01*
X0205249Y0217847D01*
X0204593Y0218503D01*
X0203281Y0218503D01*
X0202625Y0217847D01*
X0209185Y0218503D02*
X0207873Y0217847D01*
X0206561Y0216535D01*
X0206561Y0215224D01*
X0207217Y0214568D01*
X0208529Y0214568D01*
X0209185Y0215224D01*
X0209185Y0215880D01*
X0208529Y0216535D01*
X0206561Y0216535D01*
X0171786Y0241469D02*
X0171130Y0242125D01*
X0169818Y0242125D01*
X0169162Y0241469D01*
X0169162Y0238846D01*
X0169818Y0238190D01*
X0171130Y0238190D01*
X0171786Y0238846D01*
X0175721Y0238190D02*
X0173098Y0238190D01*
X0175721Y0240813D01*
X0175721Y0241469D01*
X0175065Y0242125D01*
X0173753Y0242125D01*
X0173098Y0241469D01*
X0179657Y0242125D02*
X0177033Y0242125D01*
X0177033Y0240158D01*
X0178345Y0240813D01*
X0179001Y0240813D01*
X0179657Y0240158D01*
X0179657Y0238846D01*
X0179001Y0238190D01*
X0177689Y0238190D01*
X0177033Y0238846D01*
X0201444Y0227691D02*
X0200788Y0227035D01*
X0200788Y0225723D01*
X0201444Y0225067D01*
X0204068Y0225067D01*
X0204724Y0225723D01*
X0204724Y0227035D01*
X0204068Y0227691D01*
X0204724Y0231627D02*
X0204724Y0229003D01*
X0202100Y0231627D01*
X0201444Y0231627D01*
X0200788Y0230971D01*
X0200788Y0229659D01*
X0201444Y0229003D01*
X0204724Y0234907D02*
X0200788Y0234907D01*
X0202756Y0232939D01*
X0202756Y0235563D01*
X0165880Y0204068D02*
X0165224Y0204724D01*
X0163912Y0204724D01*
X0163256Y0204068D01*
X0163256Y0201444D01*
X0163912Y0200788D01*
X0165224Y0200788D01*
X0165880Y0201444D01*
X0169816Y0200788D02*
X0167192Y0200788D01*
X0169816Y0203412D01*
X0169816Y0204068D01*
X0169160Y0204724D01*
X0167848Y0204724D01*
X0167192Y0204068D01*
X0171128Y0204068D02*
X0171784Y0204724D01*
X0173096Y0204724D01*
X0173752Y0204068D01*
X0173752Y0203412D01*
X0173096Y0202756D01*
X0172440Y0202756D01*
X0173096Y0202756D01*
X0173752Y0202100D01*
X0173752Y0201444D01*
X0173096Y0200788D01*
X0171784Y0200788D01*
X0171128Y0201444D01*
X0038714Y0122966D02*
X0038058Y0123621D01*
X0036746Y0123621D01*
X0036090Y0122966D01*
X0036090Y0120342D01*
X0036746Y0119686D01*
X0038058Y0119686D01*
X0038714Y0120342D01*
X0040026Y0123621D02*
X0042650Y0123621D01*
X0042650Y0122966D01*
X0040026Y0120342D01*
X0040026Y0119686D01*
X0200657Y0088321D02*
X0200001Y0087665D01*
X0200001Y0086353D01*
X0200657Y0085697D01*
X0203280Y0085697D01*
X0203936Y0086353D01*
X0203936Y0087665D01*
X0203280Y0088321D01*
X0203936Y0092257D02*
X0203936Y0089633D01*
X0201313Y0092257D01*
X0200657Y0092257D01*
X0200001Y0091601D01*
X0200001Y0090289D01*
X0200657Y0089633D01*
X0200001Y0093569D02*
X0200001Y0096193D01*
X0200657Y0096193D01*
X0203280Y0093569D01*
X0203936Y0093569D01*
X0207612Y0125328D02*
X0206956Y0125984D01*
X0205644Y0125984D01*
X0204989Y0125328D01*
X0204989Y0122704D01*
X0205644Y0122048D01*
X0206956Y0122048D01*
X0207612Y0122704D01*
X0211548Y0122048D02*
X0208924Y0122048D01*
X0211548Y0124672D01*
X0211548Y0125328D01*
X0210892Y0125984D01*
X0209580Y0125984D01*
X0208924Y0125328D01*
X0215484Y0122048D02*
X0212860Y0122048D01*
X0215484Y0124672D01*
X0215484Y0125328D01*
X0214828Y0125984D01*
X0213516Y0125984D01*
X0212860Y0125328D01*
X0048820Y0248556D02*
X0048164Y0249212D01*
X0046852Y0249212D01*
X0046196Y0248556D01*
X0046196Y0245932D01*
X0046852Y0245276D01*
X0048164Y0245276D01*
X0048820Y0245932D01*
X0052755Y0245276D02*
X0050131Y0245276D01*
X0052755Y0247900D01*
X0052755Y0248556D01*
X0052099Y0249212D01*
X0050787Y0249212D01*
X0050131Y0248556D01*
X0054067Y0245276D02*
X0055379Y0245276D01*
X0054723Y0245276D01*
X0054723Y0249212D01*
X0054067Y0248556D01*
X0141405Y0216272D02*
X0140749Y0216929D01*
X0139437Y0216929D01*
X0138781Y0216272D01*
X0138781Y0213649D01*
X0139437Y0212993D01*
X0140749Y0212993D01*
X0141405Y0213649D01*
X0142717Y0212993D02*
X0144029Y0212993D01*
X0143373Y0212993D01*
X0143373Y0216929D01*
X0142717Y0216272D01*
X0145997Y0216272D02*
X0146653Y0216929D01*
X0147965Y0216929D01*
X0148620Y0216272D01*
X0148620Y0215617D01*
X0147965Y0214961D01*
X0148620Y0214305D01*
X0148620Y0213649D01*
X0147965Y0212993D01*
X0146653Y0212993D01*
X0145997Y0213649D01*
X0145997Y0214305D01*
X0146653Y0214961D01*
X0145997Y0215617D01*
X0145997Y0216272D01*
X0146653Y0214961D02*
X0147965Y0214961D01*
X0129397Y0163846D02*
X0128741Y0163190D01*
X0128741Y0161878D01*
X0129397Y0161222D01*
X0132021Y0161222D01*
X0132676Y0161878D01*
X0132676Y0163190D01*
X0132021Y0163846D01*
X0132676Y0165158D02*
X0132676Y0166470D01*
X0132676Y0165814D01*
X0128741Y0165814D01*
X0129397Y0165158D01*
X0128741Y0168438D02*
X0128741Y0171061D01*
X0129397Y0171061D01*
X0132021Y0168438D01*
X0132676Y0168438D01*
X0122114Y0140288D02*
X0121458Y0140944D01*
X0120146Y0140944D01*
X0119490Y0140288D01*
X0119490Y0137664D01*
X0120146Y0137009D01*
X0121458Y0137009D01*
X0122114Y0137664D01*
X0123425Y0137009D02*
X0124737Y0137009D01*
X0124082Y0137009D01*
X0124082Y0140944D01*
X0123425Y0140288D01*
X0129329Y0140944D02*
X0128017Y0140288D01*
X0126705Y0138976D01*
X0126705Y0137664D01*
X0127361Y0137009D01*
X0128673Y0137009D01*
X0129329Y0137664D01*
X0129329Y0138320D01*
X0128673Y0138976D01*
X0126705Y0138976D01*
X0141405Y0209973D02*
X0140749Y0210629D01*
X0139437Y0210629D01*
X0138781Y0209973D01*
X0138781Y0207349D01*
X0139437Y0206694D01*
X0140749Y0206694D01*
X0141405Y0207349D01*
X0142717Y0206694D02*
X0144029Y0206694D01*
X0143373Y0206694D01*
X0143373Y0210629D01*
X0142717Y0209973D01*
X0148620Y0210629D02*
X0145997Y0210629D01*
X0145997Y0208661D01*
X0147309Y0209317D01*
X0147965Y0209317D01*
X0148620Y0208661D01*
X0148620Y0207349D01*
X0147965Y0206694D01*
X0146653Y0206694D01*
X0145997Y0207349D01*
X0140618Y0197375D02*
X0139962Y0198031D01*
X0138650Y0198031D01*
X0137994Y0197375D01*
X0137994Y0194751D01*
X0138650Y0194095D01*
X0139962Y0194095D01*
X0140618Y0194751D01*
X0141929Y0194095D02*
X0143241Y0194095D01*
X0142585Y0194095D01*
X0142585Y0198031D01*
X0141929Y0197375D01*
X0147177Y0194095D02*
X0147177Y0198031D01*
X0145209Y0196063D01*
X0147833Y0196063D01*
X0205775Y0177232D02*
X0205119Y0176576D01*
X0205119Y0175264D01*
X0205775Y0174608D01*
X0208399Y0174608D01*
X0209054Y0175264D01*
X0209054Y0176576D01*
X0208399Y0177232D01*
X0209054Y0178544D02*
X0209054Y0179856D01*
X0209054Y0179200D01*
X0205119Y0179200D01*
X0205775Y0178544D01*
X0205775Y0181823D02*
X0205119Y0182479D01*
X0205119Y0183791D01*
X0205775Y0184447D01*
X0206431Y0184447D01*
X0207087Y0183791D01*
X0207087Y0183135D01*
X0207087Y0183791D01*
X0207743Y0184447D01*
X0208399Y0184447D01*
X0209054Y0183791D01*
X0209054Y0182479D01*
X0208399Y0181823D01*
X0200460Y0198950D02*
X0199804Y0199606D01*
X0198492Y0199606D01*
X0197836Y0198950D01*
X0197836Y0196326D01*
X0198492Y0195670D01*
X0199804Y0195670D01*
X0200460Y0196326D01*
X0201772Y0195670D02*
X0203084Y0195670D01*
X0202428Y0195670D01*
X0202428Y0199606D01*
X0201772Y0198950D01*
X0207676Y0195670D02*
X0205052Y0195670D01*
X0207676Y0198294D01*
X0207676Y0198950D01*
X0207020Y0199606D01*
X0205708Y0199606D01*
X0205052Y0198950D01*
X0135696Y0163714D02*
X0135040Y0163058D01*
X0135040Y0161747D01*
X0135696Y0161091D01*
X0138320Y0161091D01*
X0138976Y0161747D01*
X0138976Y0163058D01*
X0138320Y0163714D01*
X0138976Y0165026D02*
X0138976Y0166338D01*
X0138976Y0165682D01*
X0135040Y0165682D01*
X0135696Y0165026D01*
X0138976Y0168306D02*
X0138976Y0169618D01*
X0138976Y0168962D01*
X0135040Y0168962D01*
X0135696Y0168306D01*
X0192783Y0137862D02*
X0192127Y0137206D01*
X0192127Y0135894D01*
X0192783Y0135238D01*
X0195406Y0135238D01*
X0196062Y0135894D01*
X0196062Y0137206D01*
X0195406Y0137862D01*
X0196062Y0139173D02*
X0196062Y0140485D01*
X0196062Y0139830D01*
X0192127Y0139830D01*
X0192783Y0139173D01*
X0192783Y0142453D02*
X0192127Y0143109D01*
X0192127Y0144421D01*
X0192783Y0145077D01*
X0195406Y0145077D01*
X0196062Y0144421D01*
X0196062Y0143109D01*
X0195406Y0142453D01*
X0192783Y0142453D01*
X0053412Y0145801D02*
X0052757Y0145145D01*
X0052757Y0143833D01*
X0053412Y0143177D01*
X0056036Y0143177D01*
X0056692Y0143833D01*
X0056692Y0145145D01*
X0056036Y0145801D01*
X0056036Y0147113D02*
X0056692Y0147769D01*
X0056692Y0149081D01*
X0056036Y0149736D01*
X0053412Y0149736D01*
X0052757Y0149081D01*
X0052757Y0147769D01*
X0053412Y0147113D01*
X0054068Y0147113D01*
X0054724Y0147769D01*
X0054724Y0149736D01*
X0088714Y0131627D02*
X0088058Y0132283D01*
X0086746Y0132283D01*
X0086090Y0131627D01*
X0086090Y0129003D01*
X0086746Y0128347D01*
X0088058Y0128347D01*
X0088714Y0129003D01*
X0090026Y0131627D02*
X0090682Y0132283D01*
X0091994Y0132283D01*
X0092650Y0131627D01*
X0092650Y0130971D01*
X0091994Y0130315D01*
X0092650Y0129659D01*
X0092650Y0129003D01*
X0091994Y0128347D01*
X0090682Y0128347D01*
X0090026Y0129003D01*
X0090026Y0129659D01*
X0090682Y0130315D01*
X0090026Y0130971D01*
X0090026Y0131627D01*
X0090682Y0130315D02*
X0091994Y0130315D01*
X0048164Y0238714D02*
X0047508Y0239369D01*
X0046196Y0239369D01*
X0045540Y0238714D01*
X0045540Y0236090D01*
X0046196Y0235434D01*
X0047508Y0235434D01*
X0048164Y0236090D01*
X0052099Y0235434D02*
X0049475Y0235434D01*
X0052099Y0238057D01*
X0052099Y0238714D01*
X0051443Y0239369D01*
X0050131Y0239369D01*
X0049475Y0238714D01*
X0053411Y0238714D02*
X0054067Y0239369D01*
X0055379Y0239369D01*
X0056035Y0238714D01*
X0056035Y0236090D01*
X0055379Y0235434D01*
X0054067Y0235434D01*
X0053411Y0236090D01*
X0053411Y0238714D01*
X0170210Y0112729D02*
X0169554Y0113385D01*
X0168242Y0113385D01*
X0167586Y0112729D01*
X0167586Y0110105D01*
X0168242Y0109450D01*
X0169554Y0109450D01*
X0170210Y0110105D01*
X0174146Y0113385D02*
X0172834Y0112729D01*
X0171522Y0111417D01*
X0171522Y0110105D01*
X0172178Y0109450D01*
X0173490Y0109450D01*
X0174146Y0110105D01*
X0174146Y0110761D01*
X0173490Y0111417D01*
X0171522Y0111417D01*
X0024672Y0212336D02*
X0024016Y0211680D01*
X0024016Y0210368D01*
X0024672Y0209712D01*
X0027296Y0209712D01*
X0027952Y0210368D01*
X0027952Y0211680D01*
X0027296Y0212336D01*
X0024016Y0216272D02*
X0024016Y0213648D01*
X0025984Y0213648D01*
X0025328Y0214960D01*
X0025328Y0215616D01*
X0025984Y0216272D01*
X0027296Y0216272D01*
X0027952Y0215616D01*
X0027952Y0214304D01*
X0027296Y0213648D01*
X0125328Y0119028D02*
X0124672Y0119684D01*
X0123360Y0119684D01*
X0122705Y0119028D01*
X0122705Y0116405D01*
X0123360Y0115749D01*
X0124672Y0115749D01*
X0125328Y0116405D01*
X0128608Y0115749D02*
X0128608Y0119684D01*
X0126640Y0117717D01*
X0129264Y0117717D01*
X0149082Y0024541D02*
X0148426Y0023885D01*
X0148426Y0022573D01*
X0149082Y0021917D01*
X0151706Y0021917D01*
X0152362Y0022573D01*
X0152362Y0023885D01*
X0151706Y0024541D01*
X0149082Y0025853D02*
X0148426Y0026509D01*
X0148426Y0027821D01*
X0149082Y0028477D01*
X0149738Y0028477D01*
X0150394Y0027821D01*
X0150394Y0027165D01*
X0150394Y0027821D01*
X0151050Y0028477D01*
X0151706Y0028477D01*
X0152362Y0027821D01*
X0152362Y0026509D01*
X0151706Y0025853D01*
X0189633Y0081234D02*
X0188977Y0080578D01*
X0188977Y0079266D01*
X0189633Y0078610D01*
X0192257Y0078610D01*
X0192913Y0079266D01*
X0192913Y0080578D01*
X0192257Y0081234D01*
X0192913Y0085170D02*
X0192913Y0082546D01*
X0190289Y0085170D01*
X0189633Y0085170D01*
X0188977Y0084514D01*
X0188977Y0083202D01*
X0189633Y0082546D01*
X0195932Y0037402D02*
X0195276Y0036746D01*
X0195276Y0035434D01*
X0195932Y0034778D01*
X0198556Y0034778D01*
X0199212Y0035434D01*
X0199212Y0036746D01*
X0198556Y0037402D01*
X0199212Y0038713D02*
X0199212Y0040025D01*
X0199212Y0039369D01*
X0195276Y0039369D01*
X0195932Y0038713D01*
X0007351Y0118110D02*
X0007351Y0114174D01*
X0009319Y0114174D01*
X0009975Y0114830D01*
X0009975Y0115486D01*
X0009319Y0116142D01*
X0007351Y0116142D01*
X0009319Y0116142D01*
X0009975Y0116798D01*
X0009975Y0117454D01*
X0009319Y0118110D01*
X0007351Y0118110D01*
X0011287Y0118110D02*
X0011287Y0114174D01*
X0013910Y0114174D01*
X0017846Y0114174D02*
X0015222Y0114174D01*
X0017846Y0116798D01*
X0017846Y0117454D01*
X0017190Y0118110D01*
X0015878Y0118110D01*
X0015222Y0117454D01*
X0212337Y0118110D02*
X0212337Y0114174D01*
X0214305Y0114174D01*
X0214961Y0114830D01*
X0214961Y0115486D01*
X0214305Y0116142D01*
X0212337Y0116142D01*
X0214305Y0116142D01*
X0214961Y0116798D01*
X0214961Y0117454D01*
X0214305Y0118110D01*
X0212337Y0118110D01*
X0216273Y0118110D02*
X0216273Y0114174D01*
X0218897Y0114174D01*
X0220209Y0114174D02*
X0221521Y0114174D01*
X0220865Y0114174D01*
X0220865Y0118110D01*
X0220209Y0117454D01*
D12*
X0105315Y0162598D02*
G03*
X0105315Y0162598I-0000787J0000000D01*
G01*
D13*
X0168110Y0231102D02*
D03*
M02*
