G04*
G04 #@! TF.GenerationSoftware,Altium Limited,Altium Designer,24.3.1 (35)*
G04*
G04 Layer_Color=16711935*
%FSAX25Y25*%
%MOIN*%
G70*
G04*
G04 #@! TF.SameCoordinates,A3C2EEE2-FC71-4F10-AF2F-9764D03318EB*
G04*
G04*
G04 #@! TF.FilePolarity,Negative*
G04*
G01*
G75*
%ADD31C,0.06299*%
%ADD32R,0.06299X0.06299*%
%ADD33C,0.13780*%
%ADD34C,0.05906*%
%ADD35C,0.07874*%
%ADD36C,0.07087*%
%ADD37R,0.07087X0.07087*%
%ADD38C,0.02559*%
%ADD39O,0.07087X0.03937*%
G36*
X0031496Y0000000D02*
X0007874Y0000000D01*
X0000000Y0007874D01*
X0000000Y0031496D01*
X0031496Y0031496D01*
X0031496Y0000000D01*
X0031496Y0000000D02*
G37*
G36*
X0236221Y0007874D02*
X0228346Y0000000D01*
X0204724Y0000000D01*
X0204724Y0031496D01*
X0236221Y0031496D01*
X0236221Y0007874D01*
X0236221Y0007874D02*
G37*
D31*
X0029685Y0082677D02*
D03*
X0019685Y0082677D02*
D03*
D32*
X0009685Y0082677D02*
D03*
D33*
X0224409Y0011811D02*
D03*
X0224409Y0220472D02*
D03*
X0011811Y0220472D02*
D03*
X0011811Y0011811D02*
D03*
D34*
X0078858Y0018110D02*
D03*
X0088858Y0018110D02*
D03*
X0224409Y0139488D02*
D03*
X0224409Y0189488D02*
D03*
X0224409Y0169488D02*
D03*
X0224409Y0159488D02*
D03*
X0224409Y0149488D02*
D03*
X0224409Y0179488D02*
D03*
D35*
X0061417Y0046063D02*
D03*
X0041732Y0046063D02*
D03*
D36*
X0039961Y0148622D02*
D03*
X0039961Y0130905D02*
D03*
X0014370Y0148622D02*
D03*
X0014370Y0130905D02*
D03*
X0128740Y0027559D02*
D03*
X0128740Y0037402D02*
D03*
X0128740Y0017717D02*
D03*
X0107480Y0027559D02*
D03*
X0107480Y0037402D02*
D03*
X0107480Y0017717D02*
D03*
X0113110Y0100394D02*
D03*
X0221535Y0100394D02*
D03*
D37*
X0123110Y0100394D02*
D03*
X0211535Y0100394D02*
D03*
D38*
X0211614Y0076142D02*
D03*
X0211614Y0053386D02*
D03*
D39*
X0209646Y0047441D02*
D03*
X0209646Y0081772D02*
D03*
X0225984Y0047756D02*
D03*
X0225984Y0081772D02*
D03*
M02*
