G04*
G04 #@! TF.GenerationSoftware,Altium Limited,Altium Designer,24.3.1 (35)*
G04*
G04 Layer_Color=32896*
%FSAX25Y25*%
%MOIN*%
G70*
G04*
G04 #@! TF.SameCoordinates,A3C2EEE2-FC71-4F10-AF2F-9764D03318EB*
G04*
G04*
G04 #@! TF.FilePolarity,Positive*
G04*
G01*
G75*
%ADD11C,0.00787*%
G36*
X0042853Y0302165D02*
X0037856Y0302165D01*
X0037856Y0298834D01*
X0039521Y0298834D01*
X0039521Y0295502D01*
X0041187Y0295502D01*
X0041187Y0293837D01*
X0042853Y0293837D01*
X0042853Y0290506D01*
X0041187Y0290506D01*
X0041187Y0288840D01*
X0039521Y0288840D01*
X0039521Y0292171D01*
X0037856Y0292171D01*
X0037856Y0293837D01*
X0036190Y0293837D01*
X0036190Y0295502D01*
X0031193Y0295502D01*
X0031193Y0297168D01*
X0029528Y0297168D01*
X0029528Y0295502D01*
X0027862Y0295502D01*
X0027862Y0298001D01*
X0027862Y0298417D01*
X0027862Y0298834D01*
X0031193Y0298834D01*
X0031193Y0297168D01*
X0032859Y0297168D01*
X0032859Y0303831D01*
X0034524Y0303831D01*
X0034524Y0302165D01*
X0036190Y0302165D01*
X0036190Y0303831D01*
X0042853Y0303831D01*
X0042853Y0302165D01*
X0042853Y0302165D02*
G37*
G36*
X0041187Y0298834D02*
X0039521Y0298834D01*
X0039521Y0300499D01*
X0041187Y0300499D01*
X0041187Y0298834D01*
X0041187Y0298834D02*
G37*
G36*
X0056177Y0292171D02*
X0044518Y0292171D01*
X0044518Y0303831D01*
X0056177Y0303831D01*
X0056177Y0292171D01*
X0056177Y0292171D02*
G37*
G36*
X0036190Y0288840D02*
X0034524Y0288840D01*
X0034524Y0290506D01*
X0032859Y0290506D01*
X0032859Y0292171D01*
X0031193Y0292171D01*
X0031193Y0293837D01*
X0032859Y0293837D01*
X0032859Y0292171D01*
X0034524Y0292171D01*
X0034524Y0293837D01*
X0036190Y0293837D01*
X0036190Y0288840D01*
X0036190Y0288840D02*
G37*
G36*
X0019534Y0292171D02*
X0007875Y0292171D01*
X0007875Y0303831D01*
X0019534Y0303831D01*
X0019534Y0292171D01*
X0019534Y0292171D02*
G37*
G36*
X0027862Y0302165D02*
X0029528Y0302165D01*
X0029528Y0300499D01*
X0024531Y0300499D01*
X0024531Y0297168D01*
X0026196Y0297168D01*
X0026196Y0296335D01*
X0026196Y0295919D01*
X0026196Y0295502D01*
X0027862Y0295502D01*
X0027862Y0293837D01*
X0029528Y0293837D01*
X0029528Y0288840D01*
X0031193Y0288840D01*
X0031193Y0290506D01*
X0032859Y0290506D01*
X0032859Y0288840D01*
X0034524Y0288840D01*
X0034524Y0287174D01*
X0036190Y0287174D01*
X0036190Y0285509D01*
X0032859Y0285509D01*
X0032859Y0287174D01*
X0031193Y0287174D01*
X0031193Y0285509D01*
X0032859Y0285509D01*
X0032859Y0284260D01*
X0032859Y0283843D01*
X0031193Y0283843D01*
X0031193Y0285509D01*
X0027862Y0285509D01*
X0027862Y0283843D01*
X0029528Y0283843D01*
X0029528Y0282177D01*
X0032859Y0282177D01*
X0032859Y0277181D01*
X0034524Y0277181D01*
X0034524Y0270518D01*
X0036190Y0270518D01*
X0036190Y0273849D01*
X0039521Y0273849D01*
X0039521Y0277181D01*
X0041187Y0277181D01*
X0041187Y0275515D01*
X0042853Y0275515D01*
X0042853Y0273849D01*
X0046184Y0273849D01*
X0046184Y0275515D01*
X0044518Y0275515D01*
X0044518Y0277181D01*
X0047849Y0277181D01*
X0047849Y0278846D01*
X0042853Y0278846D01*
X0042853Y0277181D01*
X0041187Y0277181D01*
X0041187Y0278846D01*
X0039521Y0278846D01*
X0039521Y0280512D01*
X0037856Y0280512D01*
X0037856Y0280928D01*
X0037856Y0281345D01*
X0037856Y0283843D01*
X0041187Y0283843D01*
X0041187Y0282177D01*
X0042853Y0282177D01*
X0042853Y0285509D01*
X0039521Y0285509D01*
X0039521Y0287174D01*
X0037856Y0287174D01*
X0037856Y0288840D01*
X0039521Y0288840D01*
X0039521Y0288423D01*
X0039521Y0288007D01*
X0039521Y0287174D01*
X0042853Y0287174D01*
X0042853Y0286342D01*
X0042853Y0285925D01*
X0042853Y0285509D01*
X0044518Y0285509D01*
X0044518Y0283843D01*
X0046184Y0283843D01*
X0046184Y0282177D01*
X0047849Y0282177D01*
X0047849Y0280512D01*
X0051181Y0280512D01*
X0051181Y0283843D01*
X0049515Y0283843D01*
X0049515Y0285509D01*
X0047849Y0285509D01*
X0047849Y0287174D01*
X0046184Y0287174D01*
X0046184Y0288840D01*
X0044518Y0288840D01*
X0044518Y0290506D01*
X0046184Y0290506D01*
X0046184Y0289256D01*
X0046184Y0288840D01*
X0047849Y0288840D01*
X0047849Y0287174D01*
X0049515Y0287174D01*
X0049515Y0285509D01*
X0051181Y0285509D01*
X0051181Y0283843D01*
X0052846Y0283843D01*
X0052846Y0285509D01*
X0051181Y0285509D01*
X0051181Y0287174D01*
X0051181Y0287591D01*
X0051181Y0288840D01*
X0047849Y0288840D01*
X0047849Y0290506D01*
X0051181Y0290506D01*
X0051181Y0288840D01*
X0052846Y0288840D01*
X0052846Y0285509D01*
X0054512Y0285509D01*
X0054512Y0287174D01*
X0056177Y0287174D01*
X0056177Y0277181D01*
X0054512Y0277181D01*
X0054512Y0278846D01*
X0052846Y0278846D01*
X0052846Y0277181D01*
X0051181Y0277181D01*
X0051181Y0270518D01*
X0052846Y0270518D01*
X0052846Y0275515D01*
X0056177Y0275515D01*
X0056177Y0268852D01*
X0047849Y0268852D01*
X0047849Y0272184D01*
X0044518Y0272184D01*
X0044518Y0270518D01*
X0046184Y0270518D01*
X0046184Y0268852D01*
X0042853Y0268852D01*
X0042853Y0270518D01*
X0041187Y0270518D01*
X0041187Y0268852D01*
X0042853Y0268852D01*
X0042853Y0267187D01*
X0041187Y0267187D01*
X0041187Y0268852D01*
X0039521Y0268852D01*
X0039521Y0270518D01*
X0037856Y0270518D01*
X0037856Y0268852D01*
X0039521Y0268852D01*
X0039521Y0267187D01*
X0041187Y0267187D01*
X0041187Y0263856D01*
X0042853Y0263856D01*
X0042853Y0260524D01*
X0041187Y0260524D01*
X0041187Y0262190D01*
X0039521Y0262190D01*
X0039521Y0260524D01*
X0041187Y0260524D01*
X0041187Y0258859D01*
X0042853Y0258859D01*
X0042853Y0255527D01*
X0041187Y0255527D01*
X0041187Y0257193D01*
X0039521Y0257193D01*
X0039521Y0258859D01*
X0037856Y0258859D01*
X0037856Y0260524D01*
X0036190Y0260524D01*
X0036190Y0263856D01*
X0034524Y0263856D01*
X0034524Y0264272D01*
X0034524Y0264688D01*
X0034524Y0265521D01*
X0032859Y0265521D01*
X0032859Y0263856D01*
X0029528Y0263856D01*
X0029528Y0265521D01*
X0027862Y0265521D01*
X0027862Y0263856D01*
X0029528Y0263856D01*
X0029528Y0262190D01*
X0034524Y0262190D01*
X0034524Y0260524D01*
X0036190Y0260524D01*
X0036190Y0258859D01*
X0037856Y0258859D01*
X0037856Y0257193D01*
X0039521Y0257193D01*
X0039521Y0256360D01*
X0039521Y0255944D01*
X0039521Y0255527D01*
X0037856Y0255527D01*
X0037856Y0257193D01*
X0036190Y0257193D01*
X0036190Y0258026D01*
X0036190Y0258442D01*
X0036190Y0258859D01*
X0029528Y0258859D01*
X0029528Y0262190D01*
X0027862Y0262190D01*
X0027862Y0263439D01*
X0027862Y0263856D01*
X0026196Y0263856D01*
X0026196Y0267187D01*
X0024531Y0267187D01*
X0024531Y0268852D01*
X0026196Y0268852D01*
X0026196Y0267187D01*
X0034524Y0267187D01*
X0034524Y0265521D01*
X0036190Y0265521D01*
X0036190Y0263856D01*
X0037856Y0263856D01*
X0037856Y0265521D01*
X0036190Y0265521D01*
X0036190Y0268852D01*
X0034524Y0268852D01*
X0034524Y0270518D01*
X0032859Y0270518D01*
X0032859Y0275515D01*
X0027862Y0275515D01*
X0027862Y0278846D01*
X0024531Y0278846D01*
X0024531Y0273849D01*
X0026196Y0273849D01*
X0026196Y0272184D01*
X0024531Y0272184D01*
X0024531Y0270518D01*
X0022865Y0270518D01*
X0022865Y0275515D01*
X0019534Y0275515D01*
X0019534Y0277181D01*
X0022865Y0277181D01*
X0022865Y0278846D01*
X0017868Y0278846D01*
X0017868Y0280512D01*
X0016203Y0280512D01*
X0016203Y0278846D01*
X0017868Y0278846D01*
X0017868Y0277181D01*
X0014537Y0277181D01*
X0014537Y0280512D01*
X0012871Y0280512D01*
X0012871Y0277181D01*
X0014537Y0277181D01*
X0014537Y0275515D01*
X0016203Y0275515D01*
X0016203Y0272184D01*
X0014537Y0272184D01*
X0014537Y0270518D01*
X0017868Y0270518D01*
X0017868Y0272184D01*
X0019534Y0272184D01*
X0019534Y0270518D01*
X0022865Y0270518D01*
X0022865Y0267187D01*
X0024531Y0267187D01*
X0024531Y0262190D01*
X0021200Y0262190D01*
X0021200Y0260524D01*
X0022865Y0260524D01*
X0022865Y0259692D01*
X0022865Y0259275D01*
X0022865Y0258859D01*
X0019534Y0258859D01*
X0019534Y0262190D01*
X0012871Y0262190D01*
X0012871Y0263856D01*
X0014537Y0263856D01*
X0014537Y0265521D01*
X0012871Y0265521D01*
X0012871Y0268852D01*
X0009540Y0268852D01*
X0009540Y0270518D01*
X0011206Y0270518D01*
X0011206Y0272184D01*
X0012871Y0272184D01*
X0012871Y0273849D01*
X0009540Y0273849D01*
X0009540Y0275515D01*
X0012871Y0275515D01*
X0012871Y0273849D01*
X0014537Y0273849D01*
X0014537Y0275515D01*
X0012871Y0275515D01*
X0012871Y0277181D01*
X0011206Y0277181D01*
X0011206Y0280512D01*
X0009540Y0280512D01*
X0009540Y0277181D01*
X0007875Y0277181D01*
X0007875Y0285509D01*
X0009540Y0285509D01*
X0009540Y0282177D01*
X0016203Y0282177D01*
X0016203Y0285509D01*
X0014537Y0285509D01*
X0014537Y0288840D01*
X0017868Y0288840D01*
X0017868Y0285509D01*
X0021200Y0285509D01*
X0021200Y0283843D01*
X0022865Y0283843D01*
X0022865Y0282177D01*
X0024531Y0282177D01*
X0024531Y0280512D01*
X0029528Y0280512D01*
X0029528Y0282177D01*
X0027862Y0282177D01*
X0027862Y0282594D01*
X0027862Y0283010D01*
X0027862Y0283843D01*
X0026196Y0283843D01*
X0026196Y0285509D01*
X0024531Y0285509D01*
X0024531Y0287174D01*
X0022865Y0287174D01*
X0022865Y0290506D01*
X0021200Y0290506D01*
X0021200Y0295502D01*
X0022865Y0295502D01*
X0022865Y0292171D01*
X0024531Y0292171D01*
X0024531Y0293837D01*
X0026196Y0293837D01*
X0026196Y0290506D01*
X0027862Y0290506D01*
X0027862Y0293837D01*
X0026196Y0293837D01*
X0026196Y0295502D01*
X0022865Y0295502D01*
X0022865Y0297168D01*
X0021200Y0297168D01*
X0021200Y0298834D01*
X0022865Y0298834D01*
X0022865Y0302165D01*
X0026196Y0302165D01*
X0026196Y0303831D01*
X0027862Y0303831D01*
X0027862Y0302165D01*
X0027862Y0302165D02*
G37*
G36*
X0056177Y0289673D02*
X0056177Y0289256D01*
X0056177Y0288840D01*
X0052846Y0288840D01*
X0052846Y0290506D01*
X0056177Y0290506D01*
X0056177Y0289673D01*
X0056177Y0289673D02*
G37*
G36*
X0019534Y0288840D02*
X0021200Y0288840D01*
X0021200Y0288423D01*
X0021200Y0287174D01*
X0019534Y0287174D01*
X0019534Y0288840D01*
X0017868Y0288840D01*
X0017868Y0290506D01*
X0019534Y0290506D01*
X0019534Y0288840D01*
X0019534Y0288840D02*
G37*
G36*
X0046184Y0285509D02*
X0047849Y0285509D01*
X0047849Y0283843D01*
X0046184Y0283843D01*
X0046184Y0285509D01*
X0044518Y0285509D01*
X0044518Y0287174D01*
X0046184Y0287174D01*
X0046184Y0285509D01*
X0046184Y0285509D02*
G37*
G36*
X0024531Y0283843D02*
X0022865Y0283843D01*
X0022865Y0285509D01*
X0024531Y0285509D01*
X0024531Y0283843D01*
X0024531Y0283843D02*
G37*
G36*
X0009540Y0288840D02*
X0012871Y0288840D01*
X0012871Y0285509D01*
X0014537Y0285509D01*
X0014537Y0283843D01*
X0012871Y0283843D01*
X0012871Y0285509D01*
X0011206Y0285509D01*
X0011206Y0287174D01*
X0009540Y0287174D01*
X0009540Y0288840D01*
X0007875Y0288840D01*
X0007875Y0290506D01*
X0009540Y0290506D01*
X0009540Y0288840D01*
X0009540Y0288840D02*
G37*
G36*
X0036190Y0278846D02*
X0037856Y0278846D01*
X0037856Y0275515D01*
X0036190Y0275515D01*
X0036190Y0277181D01*
X0034524Y0277181D01*
X0034524Y0277597D01*
X0034524Y0278013D01*
X0034524Y0283843D01*
X0036190Y0283843D01*
X0036190Y0278846D01*
X0036190Y0278846D02*
G37*
G36*
X0027862Y0273849D02*
X0026196Y0273849D01*
X0026196Y0275515D01*
X0027862Y0275515D01*
X0027862Y0273849D01*
X0027862Y0273849D02*
G37*
G36*
X0031193Y0272184D02*
X0029528Y0272184D01*
X0029528Y0273849D01*
X0031193Y0273849D01*
X0031193Y0272184D01*
X0031193Y0272184D02*
G37*
G36*
X0009540Y0273433D02*
X0009540Y0272184D01*
X0007875Y0272184D01*
X0007875Y0273849D01*
X0009540Y0273849D01*
X0009540Y0273433D01*
X0009540Y0273433D02*
G37*
G36*
X0032859Y0268852D02*
X0031193Y0268852D01*
X0031193Y0270518D01*
X0032859Y0270518D01*
X0032859Y0268852D01*
X0032859Y0268852D02*
G37*
G36*
X0029528Y0268852D02*
X0026196Y0268852D01*
X0026196Y0270518D01*
X0029528Y0270518D01*
X0029528Y0268852D01*
X0029528Y0268852D02*
G37*
G36*
X0011206Y0263856D02*
X0009540Y0263856D01*
X0009540Y0265105D01*
X0009540Y0265521D01*
X0011206Y0265521D01*
X0011206Y0263856D01*
X0011206Y0263856D02*
G37*
G36*
X0056177Y0255527D02*
X0044518Y0255527D01*
X0044518Y0261357D01*
X0044518Y0261774D01*
X0044518Y0267187D01*
X0056177Y0267187D01*
X0056177Y0255527D01*
X0056177Y0255527D02*
G37*
G36*
X0036190Y0256777D02*
X0036190Y0255527D01*
X0032859Y0255527D01*
X0032859Y0257193D01*
X0036190Y0257193D01*
X0036190Y0256777D01*
X0036190Y0256777D02*
G37*
G36*
X0027862Y0258859D02*
X0029528Y0258859D01*
X0029528Y0258026D01*
X0029528Y0257610D01*
X0029528Y0257193D01*
X0031193Y0257193D01*
X0031193Y0255527D01*
X0029528Y0255527D01*
X0029528Y0257193D01*
X0027862Y0257193D01*
X0027862Y0258859D01*
X0026196Y0258859D01*
X0026196Y0257193D01*
X0024531Y0257193D01*
X0024531Y0260524D01*
X0027862Y0260524D01*
X0027862Y0258859D01*
X0027862Y0258859D02*
G37*
G36*
X0024531Y0255527D02*
X0021200Y0255527D01*
X0021200Y0257193D01*
X0024531Y0257193D01*
X0024531Y0255527D01*
X0024531Y0255527D02*
G37*
G36*
X0017868Y0258859D02*
X0019534Y0258859D01*
X0019534Y0255527D01*
X0017868Y0255527D01*
X0017868Y0257193D01*
X0016203Y0257193D01*
X0016203Y0258859D01*
X0014537Y0258859D01*
X0014537Y0260524D01*
X0017868Y0260524D01*
X0017868Y0258859D01*
X0017868Y0258859D02*
G37*
G36*
X0009540Y0260524D02*
X0012871Y0260524D01*
X0012871Y0258859D01*
X0014537Y0258859D01*
X0014537Y0257193D01*
X0016203Y0257193D01*
X0016203Y0255527D01*
X0014537Y0255527D01*
X0014537Y0257193D01*
X0011206Y0257193D01*
X0011206Y0258859D01*
X0009540Y0258859D01*
X0009540Y0257193D01*
X0007875Y0257193D01*
X0007875Y0262190D01*
X0009540Y0262190D01*
X0009540Y0260524D01*
X0009540Y0260524D02*
G37*
%LPC*%
G36*
X0036190Y0300499D02*
X0034524Y0300499D01*
X0034524Y0299250D01*
X0034524Y0298834D01*
X0034524Y0297168D01*
X0036190Y0297168D01*
X0036190Y0300499D01*
X0036190Y0300499D02*
G37*
G36*
X0039521Y0295502D02*
X0037856Y0295502D01*
X0037856Y0293837D01*
X0039521Y0293837D01*
X0039521Y0292171D01*
X0041187Y0292171D01*
X0041187Y0293837D01*
X0039521Y0293837D01*
X0039521Y0295502D01*
X0039521Y0295502D02*
G37*
G36*
X0054512Y0302165D02*
X0046184Y0302165D01*
X0046184Y0293837D01*
X0054512Y0293837D01*
X0054512Y0302165D01*
X0054512Y0302165D02*
G37*
%LPD*%
G36*
X0052846Y0295502D02*
X0047849Y0295502D01*
X0047849Y0300499D01*
X0052846Y0300499D01*
X0052846Y0295502D01*
X0052846Y0295502D02*
G37*
%LPC*%
G36*
X0017868Y0302165D02*
X0009540Y0302165D01*
X0009540Y0293837D01*
X0017868Y0293837D01*
X0017868Y0301748D01*
X0017868Y0302165D01*
X0017868Y0302165D02*
G37*
%LPD*%
G36*
X0016203Y0297584D02*
X0016203Y0297168D01*
X0016203Y0295502D01*
X0011206Y0295502D01*
X0011206Y0300499D01*
X0016203Y0300499D01*
X0016203Y0297584D01*
X0016203Y0297584D02*
G37*
%LPC*%
G36*
X0026196Y0290506D02*
X0024531Y0290506D01*
X0024531Y0288840D01*
X0026196Y0288840D01*
X0026196Y0290506D01*
X0026196Y0290506D02*
G37*
G36*
X0029528Y0288840D02*
X0027862Y0288840D01*
X0027862Y0287174D01*
X0029528Y0287174D01*
X0029528Y0288007D01*
X0029528Y0288423D01*
X0029528Y0288840D01*
X0029528Y0288840D02*
G37*
G36*
X0054512Y0282177D02*
X0052846Y0282177D01*
X0052846Y0281345D01*
X0052846Y0280928D01*
X0052846Y0280512D01*
X0054512Y0280512D01*
X0054512Y0282177D01*
X0054512Y0282177D02*
G37*
G36*
X0046184Y0282177D02*
X0044518Y0282177D01*
X0044518Y0280512D01*
X0046184Y0280512D01*
X0046184Y0282177D01*
X0046184Y0282177D02*
G37*
G36*
X0041187Y0282177D02*
X0039521Y0282177D01*
X0039521Y0280512D01*
X0041187Y0280512D01*
X0041187Y0282177D01*
X0041187Y0282177D02*
G37*
G36*
X0021200Y0283843D02*
X0019534Y0283843D01*
X0019534Y0280512D01*
X0022865Y0280512D01*
X0022865Y0282177D01*
X0021200Y0282177D01*
X0021200Y0283843D01*
X0021200Y0283843D02*
G37*
G36*
X0042853Y0273849D02*
X0041187Y0273849D01*
X0041187Y0272184D01*
X0042853Y0272184D01*
X0042853Y0273849D01*
X0042853Y0273849D02*
G37*
G36*
X0021200Y0268852D02*
X0016203Y0268852D01*
X0016203Y0267603D01*
X0016203Y0267187D01*
X0016203Y0263856D01*
X0021200Y0263856D01*
X0021200Y0268852D01*
X0021200Y0268852D02*
G37*
%LPD*%
G36*
X0019534Y0265521D02*
X0017868Y0265521D01*
X0017868Y0267187D01*
X0019534Y0267187D01*
X0019534Y0265521D01*
X0019534Y0265521D02*
G37*
%LPC*%
G36*
X0054512Y0265521D02*
X0046184Y0265521D01*
X0046184Y0257193D01*
X0054512Y0257193D01*
X0054512Y0265521D01*
X0054512Y0265521D02*
G37*
%LPD*%
G36*
X0052846Y0258859D02*
X0047849Y0258859D01*
X0047849Y0263856D01*
X0052846Y0263856D01*
X0052846Y0258859D01*
X0052846Y0258859D02*
G37*
D11*
X0073858Y0057323D02*
X0093858Y0057323D01*
X0073858Y0023110D02*
X0073858Y0057323D01*
X0093858Y0023110D02*
X0093858Y0057323D01*
X0184646Y0134488D02*
X0184646Y0194488D01*
X0219409Y0194488D01*
X0184646Y0134488D02*
X0219409Y0134488D01*
X0093858Y0013110D02*
X0093858Y0023110D01*
X0073858Y0023110D02*
X0093858Y0023110D01*
X0073858Y0013110D02*
X0073858Y0023110D01*
X0073858Y0013110D02*
X0093858Y0013110D01*
X0229409Y0134488D02*
X0229409Y0194488D01*
X0219409Y0134488D02*
X0229409Y0134488D01*
X0219409Y0134488D02*
X0219409Y0194488D01*
X0229409Y0194488D01*
X0074016Y0248817D02*
X0074016Y0244094D01*
X0071654Y0244094D01*
X0070867Y0244881D01*
X0070867Y0245668D01*
X0071654Y0246455D01*
X0074016Y0246455D01*
X0071654Y0246455D01*
X0070867Y0247243D01*
X0070867Y0248030D01*
X0071654Y0248817D01*
X0074016Y0248817D01*
X0068506Y0247243D02*
X0066931Y0247243D01*
X0066144Y0246455D01*
X0066144Y0244094D01*
X0068506Y0244094D01*
X0069293Y0244881D01*
X0068506Y0245668D01*
X0066144Y0245668D01*
X0062996Y0242520D02*
X0062209Y0242520D01*
X0061421Y0243307D01*
X0061421Y0247243D01*
X0063783Y0247243D01*
X0064570Y0246455D01*
X0064570Y0244881D01*
X0063783Y0244094D01*
X0061421Y0244094D01*
X0059847Y0247243D02*
X0059847Y0244094D01*
X0059847Y0245668D01*
X0059060Y0246455D01*
X0058273Y0247243D01*
X0057486Y0247243D01*
X0055124Y0247243D02*
X0055124Y0244881D01*
X0054337Y0244094D01*
X0051976Y0244094D01*
X0051976Y0243307D01*
X0052763Y0242520D01*
X0053550Y0242520D01*
X0051976Y0244094D02*
X0051976Y0247243D01*
X0049614Y0247243D02*
X0048040Y0247243D01*
X0047253Y0246455D01*
X0047253Y0244094D01*
X0049614Y0244094D01*
X0050401Y0244881D01*
X0049614Y0245668D01*
X0047253Y0245668D01*
X0045678Y0244094D02*
X0045678Y0247243D01*
X0043317Y0247243D01*
X0042530Y0246455D01*
X0042530Y0244094D01*
X0038594Y0244094D02*
X0040168Y0244094D01*
X0040956Y0244881D01*
X0040956Y0246455D01*
X0040168Y0247243D01*
X0038594Y0247243D01*
X0037807Y0246455D01*
X0037807Y0245668D01*
X0040956Y0245668D01*
X0035446Y0248030D02*
X0035446Y0247243D01*
X0036233Y0247243D01*
X0034658Y0247243D01*
X0035446Y0247243D01*
X0035446Y0244881D01*
X0034658Y0244094D01*
X0032297Y0244094D02*
X0029936Y0244094D01*
X0029148Y0244881D01*
X0029936Y0245668D01*
X0031510Y0245668D01*
X0032297Y0246455D01*
X0031510Y0247243D01*
X0029148Y0247243D01*
X0022851Y0247243D02*
X0021277Y0244094D01*
X0019703Y0247243D01*
X0018128Y0244094D02*
X0016554Y0244094D01*
X0017341Y0244094D01*
X0017341Y0248817D01*
X0018128Y0248030D01*
X0014193Y0244094D02*
X0014193Y0244881D01*
X0013405Y0244881D01*
X0013405Y0244094D01*
X0014193Y0244094D01*
X0010257Y0244094D02*
X0008683Y0244094D01*
X0009470Y0244094D01*
X0009470Y0248817D01*
X0010257Y0248030D01*
X0080433Y0062991D02*
X0081220Y0062204D01*
X0081220Y0060630D01*
X0080433Y0059842D01*
X0077284Y0059842D01*
X0076497Y0060630D01*
X0076497Y0062204D01*
X0077284Y0062991D01*
X0078858Y0062991D01*
X0078858Y0061417D01*
X0076497Y0064565D02*
X0081220Y0064565D01*
X0076497Y0067714D01*
X0081220Y0067714D01*
X0081220Y0069288D02*
X0076497Y0069288D01*
X0076497Y0071650D01*
X0077284Y0072437D01*
X0080433Y0072437D01*
X0081220Y0071650D01*
X0081220Y0069288D01*
X0086497Y0062204D02*
X0091220Y0062204D01*
X0088858Y0059842D01*
X0088858Y0062991D01*
X0086497Y0064565D02*
X0087284Y0064565D01*
X0087284Y0065352D01*
X0086497Y0065352D01*
X0086497Y0064565D01*
X0091220Y0071650D02*
X0091220Y0068501D01*
X0088858Y0068501D01*
X0089645Y0070075D01*
X0089645Y0070863D01*
X0088858Y0071650D01*
X0087284Y0071650D01*
X0086497Y0070863D01*
X0086497Y0069288D01*
X0087284Y0068501D01*
X0091220Y0077947D02*
X0086497Y0077947D01*
X0086497Y0080308D01*
X0087284Y0081095D01*
X0088071Y0081095D01*
X0088858Y0080308D01*
X0088858Y0077947D01*
X0088858Y0080308D01*
X0089645Y0081095D01*
X0090433Y0081095D01*
X0091220Y0080308D01*
X0091220Y0077947D01*
X0181299Y0141850D02*
X0181299Y0137914D01*
X0180512Y0137127D01*
X0178938Y0137127D01*
X0178151Y0137914D01*
X0178151Y0141850D01*
X0176576Y0137127D02*
X0176576Y0140275D01*
X0175002Y0141850D01*
X0173428Y0140275D01*
X0173428Y0137127D01*
X0173428Y0139488D01*
X0176576Y0139488D01*
X0171853Y0137127D02*
X0171853Y0141850D01*
X0169492Y0141850D01*
X0168705Y0141062D01*
X0168705Y0139488D01*
X0169492Y0138701D01*
X0171853Y0138701D01*
X0170279Y0138701D02*
X0168705Y0137127D01*
X0167131Y0141850D02*
X0163982Y0141850D01*
X0165556Y0141850D01*
X0165556Y0137127D01*
X0157685Y0137127D02*
X0157685Y0141850D01*
X0155323Y0141850D01*
X0154536Y0141062D01*
X0154536Y0139488D01*
X0155323Y0138701D01*
X0157685Y0138701D01*
X0156111Y0138701D02*
X0154536Y0137127D01*
X0152962Y0141850D02*
X0149813Y0137127D01*
X0149813Y0141850D02*
X0152962Y0137127D01*
X0181299Y0151849D02*
X0181299Y0147914D01*
X0180512Y0147127D01*
X0178938Y0147127D01*
X0178151Y0147914D01*
X0178151Y0151849D01*
X0176576Y0147127D02*
X0176576Y0150275D01*
X0175002Y0151849D01*
X0173428Y0150275D01*
X0173428Y0147127D01*
X0173428Y0149488D01*
X0176576Y0149488D01*
X0171853Y0147127D02*
X0171853Y0151849D01*
X0169492Y0151849D01*
X0168705Y0151062D01*
X0168705Y0149488D01*
X0169492Y0148701D01*
X0171853Y0148701D01*
X0170279Y0148701D02*
X0168705Y0147127D01*
X0167131Y0151849D02*
X0163982Y0151849D01*
X0165556Y0151849D01*
X0165556Y0147127D01*
X0157685Y0151849D02*
X0154536Y0151849D01*
X0156111Y0151849D01*
X0156111Y0147127D01*
X0152962Y0151849D02*
X0149813Y0147127D01*
X0149813Y0151849D02*
X0152962Y0147127D01*
X0178151Y0161062D02*
X0178938Y0161849D01*
X0180512Y0161849D01*
X0181299Y0161062D01*
X0181299Y0160275D01*
X0180512Y0159488D01*
X0178938Y0159488D01*
X0178151Y0158701D01*
X0178151Y0157914D01*
X0178938Y0157127D01*
X0180512Y0157127D01*
X0181299Y0157914D01*
X0176576Y0161849D02*
X0176576Y0157127D01*
X0175002Y0158701D01*
X0173428Y0157127D01*
X0173428Y0161849D01*
X0171853Y0161849D02*
X0171853Y0157127D01*
X0169492Y0157127D01*
X0168705Y0157914D01*
X0168705Y0161062D01*
X0169492Y0161849D01*
X0171853Y0161849D01*
X0167131Y0161849D02*
X0165556Y0161849D01*
X0166343Y0161849D01*
X0166343Y0157127D01*
X0167131Y0157127D01*
X0165556Y0157127D01*
X0160833Y0161849D02*
X0162408Y0161849D01*
X0163195Y0161062D01*
X0163195Y0157914D01*
X0162408Y0157127D01*
X0160833Y0157127D01*
X0160046Y0157914D01*
X0160046Y0161062D01*
X0160833Y0161849D01*
X0178151Y0171062D02*
X0178938Y0171850D01*
X0180512Y0171850D01*
X0181299Y0171062D01*
X0181299Y0167914D01*
X0180512Y0167127D01*
X0178938Y0167127D01*
X0178151Y0167914D01*
X0178151Y0169488D01*
X0179725Y0169488D01*
X0176576Y0167127D02*
X0176576Y0171850D01*
X0173428Y0167127D01*
X0173428Y0171850D01*
X0171853Y0171850D02*
X0171853Y0167127D01*
X0169492Y0167127D01*
X0168705Y0167914D01*
X0168705Y0171062D01*
X0169492Y0171850D01*
X0171853Y0171850D01*
X0178151Y0181062D02*
X0178938Y0181850D01*
X0180512Y0181850D01*
X0181299Y0181062D01*
X0181299Y0180275D01*
X0180512Y0179488D01*
X0178938Y0179488D01*
X0178151Y0178701D01*
X0178151Y0177914D01*
X0178938Y0177127D01*
X0180512Y0177127D01*
X0181299Y0177914D01*
X0176576Y0181850D02*
X0176576Y0177127D01*
X0175002Y0178701D01*
X0173428Y0177127D01*
X0173428Y0181850D01*
X0168705Y0181062D02*
X0169492Y0181850D01*
X0171066Y0181850D01*
X0171853Y0181062D01*
X0171853Y0177914D01*
X0171066Y0177127D01*
X0169492Y0177127D01*
X0168705Y0177914D01*
X0167131Y0181850D02*
X0167131Y0177127D01*
X0163982Y0177127D01*
X0162408Y0181850D02*
X0162408Y0177127D01*
X0162408Y0178701D01*
X0159259Y0181850D01*
X0161620Y0179488D01*
X0159259Y0177127D01*
X0181299Y0191062D02*
X0180512Y0191850D01*
X0178938Y0191850D01*
X0178151Y0191062D01*
X0178151Y0190275D01*
X0178938Y0189488D01*
X0179725Y0189488D01*
X0178938Y0189488D01*
X0178151Y0188701D01*
X0178151Y0187914D01*
X0178938Y0187127D01*
X0180512Y0187127D01*
X0181299Y0187914D01*
X0176576Y0187127D02*
X0176576Y0187914D01*
X0175789Y0187914D01*
X0175789Y0187127D01*
X0176576Y0187127D01*
X0172641Y0191062D02*
X0171853Y0191850D01*
X0170279Y0191850D01*
X0169492Y0191062D01*
X0169492Y0190275D01*
X0170279Y0189488D01*
X0171066Y0189488D01*
X0170279Y0189488D01*
X0169492Y0188701D01*
X0169492Y0187914D01*
X0170279Y0187127D01*
X0171853Y0187127D01*
X0172641Y0187914D01*
X0163195Y0191850D02*
X0163195Y0187127D01*
X0160833Y0187127D01*
X0160046Y0187914D01*
X0160046Y0188701D01*
X0160833Y0189488D01*
X0163195Y0189488D01*
X0160833Y0189488D01*
X0160046Y0190275D01*
X0160046Y0191062D01*
X0160833Y0191850D01*
X0163195Y0191850D01*
X0229035Y0201592D02*
X0226412Y0197656D01*
X0226412Y0201592D02*
X0229035Y0197656D01*
X0225100Y0197656D02*
X0225100Y0201592D01*
X0223132Y0201592D01*
X0222476Y0200936D01*
X0222476Y0199624D01*
X0223132Y0198968D01*
X0225100Y0198968D01*
X0218540Y0197656D02*
X0221164Y0197656D01*
X0218540Y0200280D01*
X0218540Y0200936D01*
X0219196Y0201592D01*
X0220508Y0201592D01*
X0221164Y0200936D01*
X0071127Y0020078D02*
X0068503Y0016142D01*
X0068503Y0020078D02*
X0071127Y0016142D01*
X0067191Y0016142D02*
X0067191Y0020078D01*
X0065223Y0020078D01*
X0064568Y0019422D01*
X0064568Y0018110D01*
X0065223Y0017454D01*
X0067191Y0017454D01*
X0063256Y0016142D02*
X0061944Y0016142D01*
X0062600Y0016142D01*
X0062600Y0020078D01*
X0063256Y0019422D01*
M02*
