G04*
G04 #@! TF.GenerationSoftware,Altium Limited,Altium Designer,24.3.1 (35)*
G04*
G04 Layer_Color=8388736*
%FSAX25Y25*%
%MOIN*%
G70*
G04*
G04 #@! TF.SameCoordinates,A3C2EEE2-FC71-4F10-AF2F-9764D03318EB*
G04*
G04*
G04 #@! TF.FilePolarity,Negative*
G04*
G01*
G75*
%ADD14C,0.03937*%
%ADD15R,0.02362X0.02362*%
%ADD16R,0.02362X0.04331*%
%ADD17R,0.03347X0.03347*%
%ADD18R,0.03347X0.03347*%
%ADD19R,0.07874X0.03937*%
%ADD20R,0.04134X0.05118*%
%ADD21R,0.07087X0.04331*%
%ADD22R,0.01181X0.05512*%
%ADD23R,0.05512X0.01181*%
%ADD24R,0.13780X0.03937*%
%ADD25R,0.02362X0.02362*%
%ADD26R,0.02756X0.03347*%
%ADD27R,0.04331X0.02362*%
%ADD28R,0.05906X0.13386*%
%ADD29R,0.04724X0.02362*%
%ADD30R,0.04724X0.01181*%
%ADD31C,0.06299*%
%ADD32R,0.06299X0.06299*%
%ADD33C,0.13780*%
%ADD34C,0.05906*%
%ADD35C,0.07874*%
%ADD36C,0.07087*%
%ADD37R,0.07087X0.07087*%
%ADD38C,0.02559*%
%ADD39O,0.07087X0.03937*%
G36*
X0236221Y0007874D02*
X0228346Y0000000D01*
X0204724Y0000000D01*
X0204724Y0031496D01*
X0236221Y0031496D01*
X0236221Y0007874D01*
X0236221Y0007874D02*
G37*
G36*
X0031496Y0000000D02*
X0007874Y0000000D01*
X0000000Y0007874D01*
X0000000Y0031496D01*
X0031496Y0031496D01*
X0031496Y0000000D01*
X0031496Y0000000D02*
G37*
G36*
X0026772Y0232283D02*
X0014961Y0232283D01*
X0014961Y0244094D01*
X0026772Y0244094D01*
X0026772Y0232283D01*
X0026772Y0232283D02*
G37*
D14*
X0199606Y0239370D02*
D03*
X0178347Y0203937D02*
D03*
X0052756Y0131496D02*
D03*
X0157480Y0038583D02*
D03*
X0115354Y0151575D02*
D03*
X0098425Y0109055D02*
D03*
X0025984Y0184252D02*
D03*
X0025591Y0176378D02*
D03*
X0188583Y0124016D02*
D03*
X0111024Y0207874D02*
D03*
X0111024Y0200000D02*
D03*
X0111024Y0192126D02*
D03*
X0111024Y0184252D02*
D03*
X0111024Y0176378D02*
D03*
D15*
X0038583Y0231102D02*
D03*
X0038583Y0235039D02*
D03*
X0038583Y0241732D02*
D03*
X0038583Y0245669D02*
D03*
D16*
X0068504Y0074409D02*
D03*
X0072244Y0083858D02*
D03*
X0064764Y0083858D02*
D03*
X0112992Y0123228D02*
D03*
X0116732Y0132677D02*
D03*
X0109252Y0132677D02*
D03*
X0146850Y0054725D02*
D03*
X0150591Y0045276D02*
D03*
X0143110Y0045276D02*
D03*
X0188386Y0095669D02*
D03*
X0180905Y0095669D02*
D03*
X0180905Y0105905D02*
D03*
X0184646Y0105905D02*
D03*
X0188386Y0105905D02*
D03*
X0140551Y0029134D02*
D03*
X0136811Y0038583D02*
D03*
X0144291Y0038583D02*
D03*
X0137401Y0106299D02*
D03*
X0133661Y0115748D02*
D03*
X0141142Y0115748D02*
D03*
D17*
X0042520Y0114961D02*
D03*
X0037008Y0114961D02*
D03*
X0049213Y0114961D02*
D03*
X0054725Y0114961D02*
D03*
X0068504Y0068504D02*
D03*
X0062992Y0068504D02*
D03*
X0097244Y0130315D02*
D03*
X0102756Y0130315D02*
D03*
X0102756Y0124016D02*
D03*
X0097244Y0124016D02*
D03*
X0097244Y0117717D02*
D03*
X0102756Y0117717D02*
D03*
X0137402Y0100394D02*
D03*
X0131890Y0100394D02*
D03*
X0109055Y0138583D02*
D03*
X0114567Y0138583D02*
D03*
X0135433Y0068898D02*
D03*
X0140945Y0068898D02*
D03*
X0135433Y0062598D02*
D03*
X0140945Y0062598D02*
D03*
X0135433Y0075197D02*
D03*
X0140945Y0075197D02*
D03*
X0112992Y0117717D02*
D03*
X0118504Y0117717D02*
D03*
X0195276Y0124016D02*
D03*
X0200787Y0124016D02*
D03*
X0179134Y0117717D02*
D03*
X0184646Y0117717D02*
D03*
X0184646Y0111417D02*
D03*
X0179134Y0111417D02*
D03*
X0172441Y0233858D02*
D03*
X0177953Y0233858D02*
D03*
X0174016Y0210236D02*
D03*
X0179528Y0210236D02*
D03*
X0134646Y0189764D02*
D03*
X0140157Y0189764D02*
D03*
X0188189Y0197638D02*
D03*
X0193701Y0197638D02*
D03*
X0188583Y0216535D02*
D03*
X0194095Y0216535D02*
D03*
X0188583Y0210236D02*
D03*
X0194095Y0210236D02*
D03*
X0153150Y0214961D02*
D03*
X0158661Y0214961D02*
D03*
X0153150Y0208662D02*
D03*
X0158661Y0208662D02*
D03*
X0197244Y0070079D02*
D03*
X0191732Y0070079D02*
D03*
X0197244Y0059055D02*
D03*
X0191732Y0059055D02*
D03*
D18*
X0048032Y0148819D02*
D03*
X0048032Y0143307D02*
D03*
X0026378Y0199606D02*
D03*
X0026378Y0205118D02*
D03*
X0122835Y0052756D02*
D03*
X0122835Y0047244D02*
D03*
X0195275Y0112205D02*
D03*
X0195275Y0117717D02*
D03*
X0201968Y0100394D02*
D03*
X0201968Y0105905D02*
D03*
X0195276Y0100394D02*
D03*
X0195276Y0105906D02*
D03*
X0137008Y0151575D02*
D03*
X0137008Y0157087D02*
D03*
X0200787Y0182283D02*
D03*
X0200787Y0176772D02*
D03*
X0130709Y0151575D02*
D03*
X0130709Y0157087D02*
D03*
X0188189Y0142913D02*
D03*
X0188189Y0137402D02*
D03*
X0196850Y0227559D02*
D03*
X0196850Y0233071D02*
D03*
X0165748Y0226378D02*
D03*
X0165748Y0220866D02*
D03*
X0152756Y0226772D02*
D03*
X0152756Y0221260D02*
D03*
X0159055Y0226772D02*
D03*
X0159055Y0221260D02*
D03*
X0197244Y0047638D02*
D03*
X0197244Y0053150D02*
D03*
X0197244Y0075984D02*
D03*
X0197244Y0081496D02*
D03*
X0150394Y0038583D02*
D03*
X0150394Y0033071D02*
D03*
D19*
X0108661Y0062480D02*
D03*
X0108661Y0068898D02*
D03*
X0108661Y0075315D02*
D03*
X0127559Y0062480D02*
D03*
X0127559Y0068898D02*
D03*
X0127559Y0075315D02*
D03*
D20*
X0179626Y0217520D02*
D03*
X0172343Y0217520D02*
D03*
X0172343Y0226575D02*
D03*
X0179626Y0226575D02*
D03*
D21*
X0188583Y0223228D02*
D03*
X0188583Y0233071D02*
D03*
D22*
X0184055Y0192520D02*
D03*
X0182087Y0192520D02*
D03*
X0180118Y0192520D02*
D03*
X0178150Y0192520D02*
D03*
X0176181Y0192520D02*
D03*
X0174213Y0192520D02*
D03*
X0172244Y0192520D02*
D03*
X0170276Y0192520D02*
D03*
X0168307Y0192520D02*
D03*
X0166339Y0192520D02*
D03*
X0164370Y0192520D02*
D03*
X0162402Y0192520D02*
D03*
X0160433Y0192520D02*
D03*
X0158465Y0192520D02*
D03*
X0156496Y0192520D02*
D03*
X0154528Y0192520D02*
D03*
X0154528Y0147638D02*
D03*
X0156496Y0147638D02*
D03*
X0158465Y0147638D02*
D03*
X0160433Y0147638D02*
D03*
X0162402Y0147638D02*
D03*
X0164370Y0147638D02*
D03*
X0166339Y0147638D02*
D03*
X0168307Y0147638D02*
D03*
X0170276Y0147638D02*
D03*
X0172244Y0147638D02*
D03*
X0174213Y0147638D02*
D03*
X0176181Y0147638D02*
D03*
X0178150Y0147638D02*
D03*
X0180118Y0147638D02*
D03*
X0182087Y0147638D02*
D03*
X0184055Y0147638D02*
D03*
D23*
X0146850Y0184843D02*
D03*
X0146850Y0182874D02*
D03*
X0146850Y0180905D02*
D03*
X0146850Y0178937D02*
D03*
X0146850Y0176969D02*
D03*
X0146850Y0175000D02*
D03*
X0146850Y0173031D02*
D03*
X0146850Y0171063D02*
D03*
X0146850Y0169095D02*
D03*
X0146850Y0167126D02*
D03*
X0146850Y0165157D02*
D03*
X0146850Y0163189D02*
D03*
X0146850Y0161221D02*
D03*
X0146850Y0159252D02*
D03*
X0146850Y0157283D02*
D03*
X0146850Y0155315D02*
D03*
X0191732Y0155315D02*
D03*
X0191732Y0157283D02*
D03*
X0191732Y0159252D02*
D03*
X0191732Y0161221D02*
D03*
X0191732Y0163189D02*
D03*
X0191732Y0165157D02*
D03*
X0191732Y0167126D02*
D03*
X0191732Y0169095D02*
D03*
X0191732Y0171063D02*
D03*
X0191732Y0173031D02*
D03*
X0191732Y0175000D02*
D03*
X0191732Y0176969D02*
D03*
X0191732Y0178937D02*
D03*
X0191732Y0180905D02*
D03*
X0191732Y0182874D02*
D03*
X0191732Y0184843D02*
D03*
D24*
X0099607Y0168504D02*
D03*
X0099607Y0176378D02*
D03*
X0099607Y0184252D02*
D03*
X0099607Y0192126D02*
D03*
X0099607Y0200000D02*
D03*
X0099607Y0207874D02*
D03*
X0099607Y0215748D02*
D03*
X0099607Y0223622D02*
D03*
X0038583Y0223622D02*
D03*
X0038583Y0215748D02*
D03*
X0038583Y0207874D02*
D03*
X0038583Y0200000D02*
D03*
X0038583Y0192126D02*
D03*
X0038583Y0184252D02*
D03*
X0038583Y0176378D02*
D03*
X0038583Y0168504D02*
D03*
D25*
X0042520Y0248819D02*
D03*
X0038583Y0248819D02*
D03*
X0042520Y0238583D02*
D03*
X0038583Y0238583D02*
D03*
D26*
X0136614Y0055512D02*
D03*
X0136614Y0045276D02*
D03*
D27*
X0169685Y0060827D02*
D03*
X0169685Y0064567D02*
D03*
X0169685Y0068307D02*
D03*
X0179921Y0068307D02*
D03*
X0179921Y0064567D02*
D03*
X0179921Y0060827D02*
D03*
D28*
X0167323Y0041339D02*
D03*
X0186221Y0041339D02*
D03*
D29*
X0207087Y0077362D02*
D03*
X0207087Y0074213D02*
D03*
X0207087Y0055315D02*
D03*
X0207087Y0052165D02*
D03*
D30*
X0207087Y0071654D02*
D03*
X0207087Y0069685D02*
D03*
X0207087Y0067717D02*
D03*
X0207087Y0063780D02*
D03*
X0207087Y0061811D02*
D03*
X0207087Y0059843D02*
D03*
X0207087Y0057874D02*
D03*
X0207087Y0065748D02*
D03*
D31*
X0029685Y0082677D02*
D03*
X0019685Y0082677D02*
D03*
D32*
X0009685Y0082677D02*
D03*
D33*
X0224409Y0011811D02*
D03*
X0224409Y0220472D02*
D03*
X0011811Y0220472D02*
D03*
X0011811Y0011811D02*
D03*
D34*
X0078858Y0018110D02*
D03*
X0088858Y0018110D02*
D03*
X0224409Y0139488D02*
D03*
X0224409Y0189488D02*
D03*
X0224409Y0169488D02*
D03*
X0224409Y0159488D02*
D03*
X0224409Y0149488D02*
D03*
X0224409Y0179488D02*
D03*
D35*
X0061417Y0046063D02*
D03*
X0041732Y0046063D02*
D03*
D36*
X0039961Y0148622D02*
D03*
X0039961Y0130905D02*
D03*
X0014370Y0148622D02*
D03*
X0014370Y0130905D02*
D03*
X0128740Y0027559D02*
D03*
X0128740Y0037402D02*
D03*
X0128740Y0017717D02*
D03*
X0107480Y0027559D02*
D03*
X0107480Y0037402D02*
D03*
X0107480Y0017717D02*
D03*
X0113110Y0100394D02*
D03*
X0221535Y0100394D02*
D03*
D37*
X0123110Y0100394D02*
D03*
X0211535Y0100394D02*
D03*
D38*
X0211614Y0076142D02*
D03*
X0211614Y0053386D02*
D03*
D39*
X0209646Y0047441D02*
D03*
X0209646Y0081772D02*
D03*
X0225984Y0047756D02*
D03*
X0225984Y0081772D02*
D03*
M02*
